<?xml version="1.0" standalone="no"?>
<!DOCTYPE svg PUBLIC "-//W3C//DTD SVG 1.1//EN" "http://www.w3.org/Graphics/SVG/1.1/DTD/svg11.dtd" >
<svg xmlns="http://www.w3.org/2000/svg" xmlns:xlink="http://www.w3.org/1999/xlink" version="1.1">
<metadata></metadata>
<defs>
<font id="proxima_novalight_italic" horiz-adv-x="1169" >
<font-face units-per-em="2048" ascent="1618" descent="-430" />
<missing-glyph horiz-adv-x="530" />
<glyph horiz-adv-x="0" />
<glyph horiz-adv-x="682" />
<glyph unicode="&#xd;" horiz-adv-x="0" />
<glyph unicode=" "  horiz-adv-x="530" />
<glyph unicode="&#x09;" horiz-adv-x="530" />
<glyph unicode="&#xa0;" horiz-adv-x="530" />
<glyph unicode="!" horiz-adv-x="448" d="M39 63q0 40 28.5 68.5t69.5 28.5q34 0 58 -24.5t24 -59.5q0 -40 -29 -68t-69 -28q-35 0 -58.5 24t-23.5 59zM150 356l194 1010h139l-250 -1010h-83z" />
<glyph unicode="&#x22;" horiz-adv-x="649" d="M240 874l53 422q5 41 27.5 65.5t58.5 24.5q27 0 45 -19t18 -48q0 -17 -8 -41l-133 -404h-61zM510 874l51 422q5 41 27.5 65.5t58.5 24.5q28 0 47 -19t19 -48q0 -8 -11 -41l-133 -404h-59z" />
<glyph unicode="#" horiz-adv-x="1185" d="M23 381l43 84h229l244 436h-232l43 82h236l209 383h96l-209 -383h240l208 383h99l-213 -383h227l-41 -82h-231l-246 -436h238l-43 -84h-238l-213 -381h-96l213 381h-242l-211 -381h-96l211 381h-225zM391 465h238l245 436h-239z" />
<glyph unicode="$" horiz-adv-x="1196" d="M53 215l86 84q118 -164 328 -205l127 568q-52 22 -86 38t-79 40.5t-73.5 49.5t-55.5 58t-39.5 73t-12.5 87q0 116 73 207.5t189.5 136t245.5 34.5l41 187h94l-43 -199q110 -20 196 -72.5t136 -127.5l-88 -80q-88 132 -269 174l-114 -516q62 -27 104 -47.5t93 -54t81 -68 t51 -83.5t21 -106q0 -192 -153 -312.5t-369 -103.5l-41 -182h-95l43 193q-131 21 -235 82.5t-156 144.5zM375 1020q0 -41 18.5 -75.5t57 -63t76.5 -48.5t96 -45l108 492q-86 8 -168.5 -23.5t-135 -95.5t-52.5 -141zM561 82q80 -2 145 16t106 49t68.5 71.5t38.5 80.5t11 80 q0 45 -19 82.5t-57 67.5t-77 51t-97 47z" />
<glyph unicode="%" horiz-adv-x="1474" d="M152 0l1173 1366h94l-1175 -1366h-92zM184 989q0 173 106.5 285t252.5 112q125 0 210 -76t85 -196q0 -115 -50.5 -207.5t-132.5 -142t-176 -49.5q-125 0 -210 76.5t-85 197.5zM279 997q0 -88 57.5 -145t146.5 -57q104 0 182 90t78 219q0 88 -58 145.5t-146 57.5 q-105 0 -182.5 -89.5t-77.5 -220.5zM715 250q0 172 107 284.5t251 112.5q125 0 211 -76.5t86 -197.5q0 -173 -106.5 -285.5t-251.5 -112.5q-126 0 -211.5 77t-85.5 198zM809 258q0 -88 58.5 -145.5t146.5 -57.5q105 0 182.5 89.5t77.5 220.5q0 86 -57.5 143t-145.5 57 q-105 0 -183.5 -89t-78.5 -218z" />
<glyph unicode="&#x26;" horiz-adv-x="1308" d="M43 309q0 65 15 120.5t44.5 99.5t64.5 79.5t84.5 66.5t94 53.5t103.5 47.5q-54 130 -54 244q0 149 109.5 257.5t253.5 108.5q123 0 201.5 -60.5t78.5 -170.5q0 -49 -13.5 -92t-33.5 -76t-55.5 -64.5t-67 -53t-82.5 -46t-86.5 -40t-92.5 -38.5l-15 -6q31 -65 119 -217 q53 -93 143 -227q74 78 135 165t96 154l89 -51q-141 -225 -263 -350q69 -93 166 -213h-147q-26 31 -103 133q-191 -158 -387 -158q-173 0 -285 88.5t-112 245.5zM166 324q0 -121 82.5 -187.5t202.5 -66.5q153 0 319 145q-92 132 -156 238q-93 160 -131 241q-72 -33 -123 -64 t-98.5 -75t-71.5 -102t-24 -129zM512 1022q0 -91 45 -203q42 17 65 26.5t60 26t58.5 28t51 29.5t46.5 33.5t36.5 37t29.5 42.5t17 47.5t7 55.5q0 72 -48.5 111.5t-119.5 39.5q-43 0 -86 -18.5t-79.5 -51.5t-59.5 -86.5t-23 -117.5z" />
<glyph unicode="'" horiz-adv-x="382" d="M240 874l53 422q5 41 27.5 65.5t58.5 24.5q27 0 45 -19t18 -48q0 -17 -8 -41l-133 -404h-61z" />
<glyph unicode="(" horiz-adv-x="464" d="M51 172q0 318 131 632.5t383 598.5l53 -53q-221 -298 -336.5 -599t-115.5 -628q0 -212 74 -490l-74 -41q-115 269 -115 580z" />
<glyph unicode=")" horiz-adv-x="464" d="M-156 -354q221 297 337 597.5t116 628.5q0 212 -74 490l72 41q117 -267 117 -580q0 -317 -131.5 -631.5t-382.5 -599.5z" />
<glyph unicode="*" horiz-adv-x="686" d="M184 1024l238 84l-186 129l51 61l172 -149l41 237h78l-66 -241l229 104l23 -69l-236 -84l187 -129l-53 -62l-170 150l-41 -238h-80l67 244l-229 -107z" />
<glyph unicode="+" horiz-adv-x="1015" d="M92 647l19 86h403l94 432h92l-94 -432h404l-21 -86h-403l-99 -444h-90l99 444h-404z" />
<glyph unicode="," horiz-adv-x="448" d="M-37 -184q57 29 102 77t58 95h-14q-28 0 -49 21.5t-21 51.5q0 41 28.5 70t67.5 29q38 0 63 -26.5t25 -72.5q0 -85 -63 -170.5t-148 -128.5z" />
<glyph unicode="-" horiz-adv-x="614" d="M49 446l21 99h491l-20 -99h-492z" />
<glyph unicode="." horiz-adv-x="448" d="M39 63q0 40 28.5 68.5t69.5 28.5q34 0 58 -24.5t24 -59.5q0 -40 -29 -68t-69 -28q-35 0 -58.5 24t-23.5 59z" />
<glyph unicode="/" horiz-adv-x="577" d="M-121 -41l805 1448h96l-807 -1448h-94z" />
<glyph unicode="0" horiz-adv-x="1245" d="M133 500q0 120 27 244.5t81.5 239t128.5 204.5t176.5 144t217.5 54q207 0 316.5 -140.5t109.5 -381.5q0 -121 -26.5 -245.5t-80.5 -240t-127.5 -205.5t-175.5 -144t-217 -54q-208 0 -319 141.5t-111 383.5zM256 492q0 -89 17.5 -162t54.5 -129.5t99.5 -87.5t145.5 -31 q110 0 206 75t158 192t97 255t35 268q0 89 -17.5 161.5t-54.5 128.5t-99 87t-146 31q-89 0 -169 -49t-138.5 -130t-102 -183.5t-65 -212.5t-21.5 -213z" />
<glyph unicode="1" horiz-adv-x="630" d="M174 1049l371 317h106l-301 -1366h-119l267 1206l-269 -233z" />
<glyph unicode="2" horiz-adv-x="1191" d="M4 0l29 123q104 66 176 112.5t162.5 108t153 107t134.5 102t119 102t94 97.5t74 98t43.5 95t16.5 95q0 112 -86.5 176t-227.5 64q-217 0 -354 -137l-64 82q73 73 186 117t236 44q86 0 163 -20.5t139 -61t98.5 -107t36.5 -150.5q0 -54 -16.5 -109.5t-45 -107t-74 -107 t-93.5 -104.5t-115.5 -105t-129 -103t-143.5 -103t-150 -100.5t-157 -101.5h719l-23 -106h-901z" />
<glyph unicode="3" horiz-adv-x="1114" d="M2 260l94 62q45 -109 154 -174.5t242 -65.5q164 0 262 92t98 236q0 108 -89.5 173.5t-236.5 65.5q-93 0 -116 -2l26 111q31 -2 182 -2q95 0 173.5 29.5t130 94.5t51.5 156q0 104 -91.5 174t-240.5 70q-194 0 -350 -143l-58 82q77 77 188 122t226 45q196 0 320.5 -90 t124.5 -249q0 -78 -33.5 -145t-87 -110.5t-118.5 -69.5t-132 -30q106 -25 177 -101t71 -190q0 -86 -34.5 -163.5t-96 -135.5t-151.5 -92.5t-195 -34.5q-167 0 -305 80t-185 205z" />
<glyph unicode="4" horiz-adv-x="1107" d="M43 373l25 112l792 881h166l-197 -887h201l-22 -106h-201l-82 -373h-117l82 373h-647zM186 479h527l170 770z" />
<glyph unicode="5" horiz-adv-x="1191" d="M86 252l94 67q104 -237 385 -237q155 0 266 108t111 265q0 137 -92 213.5t-238 76.5q-159 0 -299 -104l-77 47l147 678h791l-23 -106h-672l-112 -506q51 40 128 67t164 27q109 0 199.5 -42t148.5 -131t58 -210q0 -131 -64 -242.5t-182 -179.5t-264 -68q-340 0 -469 277z " />
<glyph unicode="6" horiz-adv-x="1196" d="M125 467q0 79 11.5 164t37 175t62.5 173.5t90.5 157.5t118 129.5t149 87.5t178.5 32q137 0 237.5 -55.5t155.5 -156.5l-88 -76q-39 87 -119 134.5t-192 47.5q-85 0 -159 -35.5t-127 -92.5t-96.5 -136t-70.5 -157.5t-47 -166.5q-1 -3 -10 -39q65 73 178.5 132t231.5 59 q182 0 294.5 -95.5t112.5 -259.5q0 -135 -66 -253t-184 -189.5t-260 -71.5q-211 0 -324.5 128t-113.5 364zM238 436q0 -160 85.5 -257t243.5 -97q162 0 272.5 117.5t110.5 273.5q0 124 -87.5 196t-233.5 72q-212 0 -387 -196q-4 -36 -4 -109z" />
<glyph unicode="7" horiz-adv-x="1028" d="M135 0l850 1260h-749l22 106h895l-18 -82l-863 -1284h-137z" />
<glyph unicode="8" d="M76 317q0 156 117.5 261.5t310.5 140.5q-48 18 -91 44.5t-80 62.5t-59 84t-22 102q0 74 27.5 137t73.5 106t106 73t125 44t131 14q117 0 216 -38t161.5 -114t62.5 -177q0 -149 -110.5 -244t-290.5 -121q47 -20 90 -47t85.5 -67t67.5 -95t25 -118q0 -110 -64.5 -200 t-173.5 -140t-239 -50q-207 0 -338 90t-131 252zM199 336q0 -120 100 -187t248 -67q89 0 169 33.5t133.5 101.5t53.5 156q0 53 -27.5 102t-71.5 83.5t-91.5 58.5t-94.5 36q-182 -12 -300.5 -99t-118.5 -218zM373 1006q0 -61 44.5 -116t103.5 -88t120 -48q175 14 281 88.5 t106 201.5q0 99 -92.5 166.5t-226.5 67.5q-138 0 -237 -73.5t-99 -198.5z" />
<glyph unicode="9" horiz-adv-x="1196" d="M111 190l86 76q39 -87 119.5 -134.5t193.5 -47.5q85 0 158.5 35.5t126 92.5t96.5 136t71.5 157.5t47.5 166.5q8 36 8 37q-65 -72 -178.5 -130.5t-231.5 -58.5q-183 0 -295 95t-112 259q0 135 66 253t184 190t260 72q211 0 324.5 -128t113.5 -364q0 -79 -11.5 -164.5 t-37 -175.5t-62 -173.5t-90 -158t-118 -129.5t-149 -87t-179.5 -32q-138 0 -238.5 56t-152.5 157zM324 891q0 -124 87.5 -197t233.5 -73q107 0 206.5 53t180.5 145q4 36 4 109q0 160 -86 257t-243 97q-108 0 -197 -55.5t-137.5 -145t-48.5 -190.5z" />
<glyph unicode=":" horiz-adv-x="448" d="M39 63q0 40 28.5 68.5t69.5 28.5q34 0 58 -24.5t24 -59.5q0 -40 -29 -68t-69 -28q-35 0 -58.5 24t-23.5 59zM225 907q0 40 29.5 68.5t69.5 28.5q35 0 58.5 -24t23.5 -58q0 -41 -29.5 -70t-69.5 -29q-35 0 -58.5 24.5t-23.5 59.5z" />
<glyph unicode=";" horiz-adv-x="448" d="M-37 -184q57 29 102 77t58 95h-14q-28 0 -49 21.5t-21 51.5q0 41 28.5 70t67.5 29q38 0 63 -26.5t25 -72.5q0 -85 -63 -170.5t-148 -128.5zM225 907q0 40 29.5 68.5t69.5 28.5q35 0 58.5 -24t23.5 -58q0 -41 -29.5 -70t-69.5 -29q-35 0 -58.5 24.5t-23.5 59.5z" />
<glyph unicode="&#x3c;" horiz-adv-x="1015" d="M90 647l19 76l999 465l-25 -107l-878 -403l700 -397l-20 -97z" />
<glyph unicode="=" horiz-adv-x="1015" d="M45 440l21 86h897l-19 -86h-899zM135 842l19 84h897l-19 -84h-897z" />
<glyph unicode="&#x3e;" horiz-adv-x="1015" d="M-12 184l24 107l881 397l-703 404l21 96l795 -465l-17 -76z" />
<glyph unicode="?" horiz-adv-x="950" d="M193 1212q177 174 409 174q180 0 292 -83t112 -216q0 -57 -20.5 -107.5t-43 -81.5t-75.5 -69t-78.5 -52.5t-91.5 -48.5q-6 -3 -9 -5q-46 -23 -71.5 -37t-59.5 -37t-52 -42.5t-31 -47t-13 -57.5q0 -51 39 -90l-92 -52q-54 66 -54 148q0 31 8.5 59t19.5 49t34.5 44t40.5 37 t50 34t51 30t56 30q44 22 66 34t59 34.5t56.5 41.5t41.5 46t31 58.5t9 67.5q0 94 -76 150.5t-209 56.5q-198 0 -342 -147zM270 63q0 40 29.5 68.5t69.5 28.5q35 0 58.5 -24.5t23.5 -59.5q0 -40 -29 -68t-70 -28q-34 0 -58 24t-24 59z" />
<glyph unicode="@" horiz-adv-x="1603" d="M113 500q0 163 67.5 313t179 257.5t260.5 172t306 64.5q188 0 336.5 -88.5t228.5 -238.5t80 -333q0 -220 -98.5 -346.5t-233.5 -126.5q-81 0 -129.5 50.5t-50.5 123.5l-2 12q-58 -80 -148 -133t-188 -53q-141 0 -227 89.5t-86 238.5q0 107 42 204.5t110.5 166t157 109 t179.5 40.5q97 0 165.5 -47.5t100.5 -120.5l27 133h100l-121 -577q-4 -24 -4 -41q0 -51 30 -82t73 -31q26 0 55.5 11.5t62.5 40t59 71t43 112.5t17 156q0 169 -73 304t-207 212.5t-305 77.5q-196 0 -368 -104t-273 -274.5t-101 -360.5q0 -163 76 -296t212 -209.5t304 -76.5 q203 0 383 117l35 -51q-200 -129 -426 -129q-183 0 -332 85t-233 232t-84 326zM514 506q0 -109 60.5 -178.5t166.5 -69.5q105 0 191 60.5t145 146.5l66 303q-23 66 -82.5 118t-151.5 52q-106 0 -198 -62t-144.5 -161.5t-52.5 -208.5z" />
<glyph unicode="A" horiz-adv-x="1325" d="M-80 0l860 1366h146l258 -1366h-125l-64 336h-727l-209 -336h-139zM330 442h651l-147 807z" />
<glyph unicode="B" horiz-adv-x="1257" d="M59 0l301 1366h527q142 0 240 -85.5t98 -223.5q0 -145 -94 -250t-224 -119q85 -23 142 -104t57 -178q0 -79 -28.5 -151t-84 -129.5t-146 -91.5t-204.5 -34h-584zM199 106h450q156 0 246 91t90 215q0 103 -67 169t-183 66h-416zM344 754h447q81 0 142.5 25.5t95.5 68.5 t50.5 92.5t16.5 103.5q0 92 -69 154t-169 62h-403z" />
<glyph unicode="C" horiz-adv-x="1376" d="M137 567q0 145 41.5 276t114.5 229t168.5 170.5t206 109.5t225.5 37q181 0 321 -76t218 -217l-113 -52q-68 122 -180.5 180t-251.5 58q-117 0 -228.5 -50.5t-199.5 -140.5t-141.5 -226t-53.5 -294q0 -221 134 -355t360 -134q207 0 385 156l84 -70q-101 -97 -224.5 -145 t-252.5 -48q-177 0 -316 73t-218 208.5t-79 310.5z" />
<glyph unicode="D" horiz-adv-x="1417" d="M59 0l301 1366h426q113 0 215 -44t177 -120t119 -185t44 -233q0 -115 -32.5 -226.5t-102 -212.5t-167 -177.5t-238.5 -122t-307 -45.5h-435zM199 106h315q158 0 292 54.5t223.5 147t139.5 214.5t50 258q0 207 -130 343.5t-325 136.5h-309z" />
<glyph unicode="E" horiz-adv-x="1155" d="M59 0l301 1366h867l-23 -106h-749l-111 -506h733l-24 -107h-734l-120 -541h747l-20 -106h-867z" />
<glyph unicode="F" horiz-adv-x="1110" d="M59 0l301 1366h867l-23 -106h-749l-111 -506h733l-24 -107h-734l-143 -647h-117z" />
<glyph unicode="G" horiz-adv-x="1456" d="M137 567q0 175 61.5 329t165.5 261.5t243.5 169.5t291.5 62q180 0 315.5 -75t212.5 -206l-104 -53q-61 111 -177 169t-259 58q-120 0 -233 -53.5t-199.5 -145.5t-138.5 -226t-52 -286q0 -224 134.5 -356.5t359.5 -132.5q222 0 397 164l72 325h-516l22 107h635l-108 -488 q-221 -215 -510 -215q-138 0 -253 44.5t-194 122.5t-122.5 187.5t-43.5 237.5z" />
<glyph unicode="H" horiz-adv-x="1439" d="M59 0l301 1366h117l-133 -610h864l135 610h117l-299 -1366h-119l144 649h-867l-143 -649h-117z" />
<glyph unicode="I" horiz-adv-x="456" d="M59 0l301 1366h117l-301 -1366h-117z" />
<glyph unicode="J" horiz-adv-x="962" d="M-39 156l78 82q84 -156 274 -156q134 0 220 84.5t118 228.5l213 971h119l-213 -971q-46 -210 -162 -315t-289 -105q-119 0 -213.5 46.5t-144.5 134.5z" />
<glyph unicode="K" horiz-adv-x="1200" d="M59 0l301 1366h117l-162 -733l811 733h160l-725 -651l479 -715h-139l-426 651l-192 -174l-107 -477h-117z" />
<glyph unicode="L" horiz-adv-x="1058" d="M59 0l301 1366h117l-278 -1260h661l-22 -106h-779z" />
<glyph unicode="M" horiz-adv-x="1615" d="M59 0l301 1366h168l211 -1145l717 1145h182l-301 -1366h-118l270 1225l-768 -1225h-45l-230 1225l-270 -1225h-117z" />
<glyph unicode="N" horiz-adv-x="1431" d="M59 0l301 1366h119l592 -1186l264 1186h117l-301 -1366h-115l-594 1202l-266 -1202h-117z" />
<glyph unicode="O" horiz-adv-x="1564" d="M137 567q0 170 60 323t161.5 262t241 173t293.5 64q128 0 239.5 -39.5t195 -113t131.5 -187t48 -252.5q0 -170 -60 -323t-161.5 -262t-241.5 -173t-294 -64q-127 0 -238.5 39.5t-195 113t-131.5 187t-48 252.5zM264 571q0 -116 39 -210t107 -154.5t157 -92.5t191 -32 q123 0 236.5 53.5t198.5 146t136 226.5t51 285q0 116 -39 210t-107 154.5t-157.5 92.5t-191.5 32q-123 0 -236.5 -53.5t-198.5 -146t-135.5 -226t-50.5 -285.5z" />
<glyph unicode="P" d="M59 0l301 1366h480q157 0 257.5 -100.5t100.5 -241.5q0 -65 -17.5 -128.5t-57 -123.5t-96.5 -105t-143.5 -72.5t-191.5 -27.5h-389l-127 -567h-117zM326 674h381q174 0 270 99t96 243q0 99 -72.5 171.5t-179.5 72.5h-366z" />
<glyph unicode="Q" horiz-adv-x="1564" d="M137 567q0 170 60 323t161.5 262t241 173t293.5 64q128 0 239.5 -39.5t195 -113t131.5 -187t48 -252.5q0 -206 -84.5 -381.5t-230.5 -288.5l92 -123l-94 -59l-90 121q-166 -91 -350 -91q-127 0 -238.5 39.5t-195 113t-131.5 187t-48 252.5zM264 571q0 -116 39 -210 t107 -154.5t157 -92.5t191 -32q144 0 276 74l-178 239l94 60l176 -238q118 98 186 247.5t68 328.5q0 116 -39 210t-107 154.5t-157.5 92.5t-191.5 32q-123 0 -236.5 -53.5t-198.5 -146t-135.5 -226t-50.5 -285.5z" />
<glyph unicode="R" horiz-adv-x="1216" d="M59 0l301 1366h469q70 0 136 -23.5t118.5 -66t84.5 -109t32 -145.5q0 -192 -128.5 -319t-338.5 -134l268 -569h-133l-258 565h-309l-125 -565h-117zM326 672h381q171 0 268.5 99.5t97.5 244.5q0 104 -78 174t-180 70h-360z" />
<glyph unicode="S" horiz-adv-x="1189" d="M47 215l88 84q72 -102 187.5 -159.5t259.5 -57.5q71 0 129.5 18t97.5 47.5t66 68.5t39 80t12 83q0 40 -19 76t-38.5 58.5t-71 51.5t-76 40.5t-92.5 40.5q-7 3 -11 5q-44 18 -69 28.5t-65.5 29.5t-64.5 34.5t-55.5 37.5t-50 45t-36 51t-25.5 61t-8 70q0 157 134 269 t327 112q155 0 281 -58.5t190 -156.5l-89 -80q-62 92 -167.5 140t-225.5 48q-134 0 -228.5 -79.5t-94.5 -182.5q0 -27 9 -51t21.5 -42.5t38.5 -38.5t45 -32.5t57 -31t59.5 -28t66.5 -28.5q53 -22 80.5 -34.5t75.5 -36.5t74.5 -43t61 -49t52 -59.5t30.5 -69t13 -83.5 q0 -62 -19.5 -122t-60 -113.5t-97 -94t-136 -64.5t-171.5 -24q-171 0 -314.5 68t-209.5 172z" />
<glyph unicode="T" horiz-adv-x="1155" d="M240 1260l22 106h1012l-23 -106h-448l-277 -1260h-118l278 1260h-446z" />
<glyph unicode="U" horiz-adv-x="1404" d="M166 420q0 64 12 117l182 829h119l-182 -827q-12 -58 -12 -107q0 -159 101.5 -254.5t281.5 -95.5q100 0 176.5 30t130 89.5t88.5 138t59 186.5l185 840h118l-184 -842q-30 -132 -73 -228.5t-110.5 -171t-165.5 -112t-228 -37.5q-230 0 -364 120.5t-134 324.5z" />
<glyph unicode="V" horiz-adv-x="1325" d="M221 1366h129l223 -1235l770 1235h142l-860 -1366h-146z" />
<glyph unicode="W" horiz-adv-x="1775" d="M229 1366h129l62 -1202l602 1202h106l70 -1202l594 1202h135l-690 -1366h-131l-70 1174l-585 -1174h-132z" />
<glyph unicode="X" horiz-adv-x="1320" d="M-74 0l703 709l-371 657h137l322 -580l565 580h160l-664 -674l393 -692h-133l-348 618l-604 -618h-160z" />
<glyph unicode="Y" horiz-adv-x="1265" d="M221 1366h131l314 -672l608 672h151l-714 -782l-129 -584h-119l129 584z" />
<glyph unicode="Z" horiz-adv-x="1189" d="M-8 0l22 102l1069 1158h-813l23 106h971l-23 -100l-1069 -1160h827l-22 -106h-985z" />
<glyph unicode="[" horiz-adv-x="466" d="M-121 -389l393 1778h357l-21 -89h-266l-354 -1601h264l-19 -88h-354z" />
<glyph unicode="\" horiz-adv-x="577" d="M201 1407h92l164 -1448h-92z" />
<glyph unicode="]" horiz-adv-x="466" d="M-162 -389l21 88h262l356 1601h-266l20 89h357l-395 -1778h-355z" />
<glyph unicode="^" horiz-adv-x="876" d="M78 682l508 684h86l205 -684h-93l-170 600l-434 -600h-102z" />
<glyph unicode="_" horiz-adv-x="1155" d="M-154 -170l21 88h1165l-20 -88h-1166z" />
<glyph unicode="`" horiz-adv-x="442" d="M207 1434h127l250 -295h-90z" />
<glyph unicode="a" d="M92 381q0 167 63.5 310.5t184 233t272.5 89.5q118 0 211 -52.5t146 -140.5l35 168h108l-219 -989h-109l33 150q-62 -81 -149.5 -128t-188.5 -47q-173 0 -280 108.5t-107 297.5zM209 399q0 -151 81.5 -239t217.5 -88q100 0 191 54.5t145 135.5l104 475 q-39 78 -125.5 129.5t-201.5 51.5q-90 0 -168.5 -44.5t-131 -117t-82.5 -166t-30 -191.5z" />
<glyph unicode="b" d="M55 0l301 1366h107l-115 -526q62 81 149.5 127.5t190.5 46.5q172 0 278.5 -109.5t106.5 -298.5q0 -98 -23.5 -192t-69.5 -173t-108 -139t-144 -93.5t-173 -33.5q-119 0 -211 52.5t-145 140.5l-37 -168h-107zM217 252q39 -78 126 -129t202 -51q91 0 169.5 44t130.5 116.5 t81.5 165t29.5 190.5q0 151 -81.5 240.5t-217.5 89.5q-99 0 -189 -54.5t-146 -136.5z" />
<glyph unicode="c" horiz-adv-x="1011" d="M94 414q0 161 72 299t198.5 219.5t276.5 81.5q250 0 356 -180l-82 -62q-42 72 -113 109t-155 37q-131 0 -233.5 -73t-154.5 -187t-52 -246q0 -163 94 -251.5t244 -88.5q81 0 150 34t118 93l61 -74q-143 -150 -339 -150t-318.5 116.5t-122.5 322.5z" />
<glyph unicode="d" d="M92 381q0 167 63.5 310.5t184 233t272.5 89.5q118 0 211 -52.5t146 -140.5l118 545h109l-303 -1366h-109l33 150q-62 -81 -149.5 -128t-188.5 -47q-173 0 -280 108.5t-107 297.5zM209 399q0 -151 81.5 -239t217.5 -88q100 0 191 54.5t145 135.5l104 475 q-39 78 -125.5 129.5t-201.5 51.5q-90 0 -168.5 -44.5t-131 -117t-82.5 -166t-30 -191.5z" />
<glyph unicode="e" horiz-adv-x="1161" d="M94 412q0 122 43 233t116 192t175 129t215 48q193 0 306.5 -121t113.5 -307q0 -58 -16 -125h-836q-4 -24 -4 -58q0 -144 94 -239.5t268 -95.5q78 0 157.5 27t141.5 79l41 -78q-70 -54 -160.5 -87.5t-183.5 -33.5q-219 0 -345 120t-126 317zM221 545h737q3 15 3 45 q0 149 -87 240.5t-243 91.5q-147 0 -265 -111t-145 -266z" />
<glyph unicode="f" horiz-adv-x="542" d="M90 0l199 895h-164l20 94h164l19 90q68 307 307 307q92 0 156 -43l-46 -77q-38 28 -108 28q-82 0 -129.5 -54t-71.5 -161l-20 -90h200l-20 -94h-201l-198 -895h-107z" />
<glyph unicode="g" horiz-adv-x="1167" d="M6 -233l78 75q100 -151 348 -151q130 0 223 76t131 243l31 148q-63 -80 -153.5 -127t-196.5 -47q-165 0 -270 105t-105 306q0 119 36.5 230.5t101 198t163 138.5t213.5 52q104 0 204 -55t155 -138l39 168h108l-219 -979q-24 -111 -69 -191.5t-106 -128t-131 -69.5 t-153 -22q-148 0 -251.5 37.5t-176.5 130.5zM205 410q0 -154 81.5 -243t219.5 -89q91 0 182 51.5t152 126.5l108 479q-46 83 -139 133t-199 50q-120 0 -214.5 -76.5t-142.5 -191t-48 -240.5z" />
<glyph unicode="h" horiz-adv-x="1105" d="M55 0l301 1366h107l-115 -526q76 75 168.5 124.5t188.5 49.5q131 0 209.5 -62t78.5 -180q0 -44 -12 -84l-152 -688h-106l147 672q13 58 13 71q0 88 -60 131.5t-161 43.5q-86 0 -174.5 -50.5t-161.5 -124.5l-164 -743h-107z" />
<glyph unicode="i" horiz-adv-x="438" d="M55 0l219 989h107l-219 -989h-107zM297 1229q0 40 29 66t63 26q32 0 54 -21t22 -51q0 -40 -29 -66t-63 -26q-32 0 -54 21t-22 51z" />
<glyph unicode="j" horiz-adv-x="438" d="M-276 -377l30 88q38 -18 88 -18q142 0 185 180l247 1116h107l-248 -1116q-31 -139 -99.5 -206.5t-185.5 -67.5q-72 0 -124 24zM297 1229q0 40 29 66t63 26q32 0 54 -21t22 -51q0 -40 -29 -66t-63 -26q-32 0 -54 21t-22 51z" />
<glyph unicode="k" horiz-adv-x="1034" d="M55 0l301 1366h107l-207 -934l700 557h150l-561 -446l340 -543h-131l-297 477l-230 -180l-65 -297h-107z" />
<glyph unicode="l" horiz-adv-x="438" d="M55 0l301 1366h107l-301 -1366h-107z" />
<glyph unicode="m" horiz-adv-x="1615" d="M55 0l219 989h107l-33 -149q35 40 75 74.5t107.5 67t133.5 32.5q113 0 180 -63t67 -128v-6q67 84 155.5 140.5t186.5 56.5q105 0 177.5 -64t72.5 -178q0 -26 -12 -84l-152 -688h-106l151 688q9 36 9 60q0 79 -52.5 124.5t-128.5 45.5q-74 0 -154.5 -50t-142.5 -123 l-163 -745h-109l154 688q6 46 6 72q0 69 -48 113.5t-134 44.5q-72 0 -150.5 -49.5t-144.5 -123.5l-164 -745h-107z" />
<glyph unicode="n" horiz-adv-x="1105" d="M55 0l219 989h107l-33 -149q76 75 168.5 124.5t188.5 49.5q131 0 209.5 -62t78.5 -180q0 -38 -12 -84l-152 -688h-106l147 670q13 65 13 73q0 88 -59 131.5t-156 43.5q-90 0 -180 -49.5t-162 -123.5l-164 -745h-107z" />
<glyph unicode="o" d="M92 410q0 156 70 294.5t196 224t277 85.5q200 0 319 -118.5t119 -315.5q0 -157 -70 -295.5t-196.5 -224t-278.5 -85.5q-199 0 -317.5 119t-118.5 316zM209 414q0 -157 85 -249.5t236 -92.5q120 0 219 72.5t153 187.5t54 243q0 157 -85 250t-236 93q-120 0 -219 -72.5 t-153 -188t-54 -243.5z" />
<glyph unicode="p" horiz-adv-x="1161" d="M-29 -377l303 1366h107l-33 -149q62 81 149.5 127.5t190.5 46.5q172 0 278.5 -109.5t106.5 -298.5q0 -98 -23.5 -192t-69.5 -173t-108 -139t-144 -93.5t-173 -33.5q-119 0 -211 52.5t-145 140.5l-121 -545h-107zM217 252q39 -78 126 -129t202 -51q91 0 169.5 44 t130.5 116.5t81.5 165t29.5 190.5q0 151 -81.5 240.5t-217.5 89.5q-99 0 -189 -54.5t-146 -136.5z" />
<glyph unicode="q" horiz-adv-x="1161" d="M92 381q0 167 63.5 310.5t184 233t272.5 89.5q118 0 211 -52.5t146 -140.5l35 168h108l-303 -1366h-109l117 527q-62 -81 -149.5 -128t-188.5 -47q-173 0 -280 108.5t-107 297.5zM209 399q0 -151 81.5 -239t217.5 -88q100 0 191 54.5t145 135.5l104 475 q-39 78 -125.5 129.5t-201.5 51.5q-90 0 -168.5 -44.5t-131 -117t-82.5 -166t-30 -191.5z" />
<glyph unicode="r" horiz-adv-x="649" d="M55 0l219 989h107l-37 -160q81 95 165 138t210 43l-25 -115q-36 6 -71 6q-85 0 -167 -53.5t-134 -128.5l-160 -719h-107z" />
<glyph unicode="s" horiz-adv-x="940" d="M16 150l74 69q41 -64 129.5 -108.5t196.5 -44.5q118 0 190 60.5t72 143.5q0 28 -14 53.5t-33 43t-55 37t-62.5 31t-73.5 30.5q-56 23 -85 36t-75 39t-69.5 50t-42 60.5t-18.5 78.5q0 119 97.5 202t262.5 83q121 0 218.5 -47t141.5 -115l-67 -68q-33 58 -119 99t-182 41 q-110 0 -177 -51t-67 -128q0 -32 17 -58.5t54 -49.5t68.5 -37.5t87.5 -36.5q43 -17 62.5 -25t58.5 -26.5t58.5 -31.5t47 -35.5t41 -44t23.5 -51t10 -62.5q0 -126 -100.5 -219t-271.5 -93q-273 0 -398 175z" />
<glyph unicode="t" horiz-adv-x="563" d="M111 895l20 94h164l59 271h109l-60 -271h201l-22 -94h-201l-152 -686q-4 -20 -4 -43q0 -45 26 -69.5t75 -24.5q53 0 104 37l21 -86q-61 -48 -142 -48q-196 0 -196 166q0 34 4 54l157 700h-163z" />
<glyph unicode="u" horiz-adv-x="1105" d="M111 217q0 38 12 84l151 688h107l-148 -670q-12 -60 -12 -73q0 -88 59.5 -131t159.5 -43q87 0 176 50t160 124l166 743h107l-220 -989h-106l33 150q-183 -175 -357 -175q-131 0 -209.5 62t-78.5 180z" />
<glyph unicode="v" horiz-adv-x="985" d="M123 989h115l165 -864l551 864h125l-637 -989h-120z" />
<glyph unicode="w" horiz-adv-x="1472" d="M143 989h109l76 -839l467 839h90l92 -839l450 839h119l-540 -989h-103l-90 846l-465 -846h-102z" />
<glyph unicode="x" horiz-adv-x="980" d="M-76 0l502 508l-260 481h121l215 -407l395 407h135l-477 -481l281 -508h-121l-232 436l-424 -436h-135z" />
<glyph unicode="y" horiz-adv-x="985" d="M-94 -381l41 102q36 -18 96 -18q42 0 77.5 24.5t78.5 88.5l116 178l-192 995h115l165 -864l551 864h125l-780 -1206q-59 -94 -125.5 -139t-150.5 -45q-62 0 -117 20z" />
<glyph unicode="z" horiz-adv-x="960" d="M4 0l16 88l760 805h-577l20 96h723l-18 -86l-764 -809h590l-19 -94h-731z" />
<glyph unicode="{" horiz-adv-x="509" d="M-29 -190q0 32 6 53l99 450q4 24 4 35q0 47 -21 79t-57 32l18 82q57 0 92 40.5t48 104.5l100 449q29 124 103.5 189t181.5 65h127l-21 -89h-127q-67 0 -112 -43t-62 -122l-104 -465q-30 -141 -131 -181q59 -27 59 -108q0 -37 -8 -70l-98 -446q-5 -30 -5 -45 q0 -52 34 -86.5t85 -34.5h115l-21 -88h-100q-82 0 -143.5 55t-61.5 144z" />
<glyph unicode="|" horiz-adv-x="425" d="M211 -41v1448h88v-1448h-88z" />
<glyph unicode="}" horiz-adv-x="509" d="M-164 -389l21 88h125q67 0 113 43.5t63 120.5l102 467q33 141 133 178q-59 32 -59 110q0 37 8 70l98 447q4 24 4 43q0 54 -33.5 88t-84.5 34h-115l20 89h101q82 0 143.5 -56t61.5 -143q0 -34 -7 -55l-100 -449q-4 -24 -4 -37q0 -46 21 -77t57 -31l-19 -82q-56 0 -90 -41 t-47 -105l-100 -448q-29 -125 -103 -189.5t-182 -64.5h-127z" />
<glyph unicode="~" horiz-adv-x="1021" d="M141 887q23 99 54 180.5t74 150t101 106.5t126 38q28 0 51 -4.5t40.5 -16t30.5 -22t23.5 -31t17 -34t12.5 -39.5t9 -39.5t8 -42.5q5 -34 9 -53.5t13 -46t20 -40.5t30.5 -24.5t44.5 -10.5q81 0 149.5 107.5t114.5 300.5l86 -10q-23 -99 -54 -180.5t-73.5 -151t-101 -108.5 t-127.5 -39q-44 0 -76.5 14.5t-51 33.5t-32.5 54.5t-19 59.5t-12 67q-5 30 -8 44.5t-9.5 39t-14.5 37t-19.5 26.5t-27.5 19.5t-37 5.5q-81 0 -151 -107.5t-114 -298.5z" />
<glyph unicode="&#xa1;" horiz-adv-x="448" d="M-41 -377l252 1010h84l-197 -1010h-139zM225 911q0 41 29.5 70t69.5 29q35 0 58.5 -24.5t23.5 -59.5q0 -40 -29.5 -68.5t-69.5 -28.5q-35 0 -58.5 24t-23.5 58z" />
<glyph unicode="&#xa2;" horiz-adv-x="1011" d="M94 414q0 122 43 233t116 191.5t174.5 128t213.5 47.5l31 143h90l-33 -151q183 -26 268 -172l-82 -62q-66 116 -206 139l-189 -837q84 -6 160.5 27t132.5 98l61 -74q-155 -162 -374 -148l-41 -182h-90l43 195q-145 33 -231.5 144t-86.5 280zM207 412q0 -130 61 -213.5 t166 -110.5l182 827q-123 -7 -218 -80.5t-143 -184.5t-48 -238z" />
<glyph unicode="&#xa3;" horiz-adv-x="1032" d="M2 84q158 62 265.5 176.5t107.5 231.5q0 28 -6 55h-322l19 86h270q-3 6 -43 72q-31 48 -45.5 74t-30.5 73t-16 94q0 118 63.5 219t174.5 161t243 60q136 0 250.5 -65t144.5 -166l-106 -47q-19 75 -100 125.5t-185 50.5q-147 0 -252.5 -94.5t-105.5 -247.5 q0 -43 13.5 -86.5t27 -67.5t39.5 -67q33 -53 51 -88h301l-19 -86h-256q0 -6 1 -20t1 -21q0 -102 -73 -197.5t-166 -154.5q56 16 98 16q33 0 69 -8.5t53 -15t58 -23.5q95 -43 162 -43q109 0 197 84l33 -96q-116 -97 -236 -97q-43 0 -85.5 9t-64.5 17.5t-63 25.5 q-115 45 -205 45q-96 0 -237 -82z" />
<glyph unicode="&#xa5;" horiz-adv-x="1265" d="M-10 258l18 84h539l53 242h-537l17 86h479l-332 696h131l316 -672l606 672h152l-637 -696h465l-19 -86h-524l-53 -242h522l-19 -84h-522l-57 -258h-117l57 258h-538z" />
<glyph unicode="&#xa8;" horiz-adv-x="837" d="M297 1231q0 35 26 59.5t60 24.5q29 0 48.5 -19.5t19.5 -48.5q0 -34 -25 -59t-59 -25q-29 0 -49.5 20t-20.5 48zM717 1231q0 35 25 59.5t59 24.5q29 0 48 -19.5t19 -48.5q0 -34 -25 -59t-59 -25q-29 0 -48 20t-19 48z" />
<glyph unicode="&#xa9;" horiz-adv-x="1593" d="M131 684q0 192 94.5 355t257 257.5t353.5 94.5q192 0 355 -94.5t258 -257.5t95 -355q0 -143 -56 -274t-151 -226t-226 -151t-275 -56q-191 0 -353.5 95t-257 258t-94.5 354zM188 684q0 -175 87 -324.5t236.5 -237t324.5 -87.5t325 87.5t238 237t88 324.5q0 176 -88 325.5 t-238 236.5t-325 87q-131 0 -251 -51.5t-207 -138.5t-138.5 -207t-51.5 -252zM403 629q0 103 41.5 196t109 158t155 103t178.5 38q217 0 317 -163l-55 -41q-36 70 -104.5 106.5t-157.5 36.5q-101 0 -196 -55t-157.5 -156.5t-62.5 -222.5q0 -134 91 -228t235 -94 q64 0 128.5 27t108.5 69l35 -53q-126 -104 -272 -104q-181 0 -287.5 109.5t-106.5 273.5z" />
<glyph unicode="&#xaa;" horiz-adv-x="837" d="M186 928q0 104 44.5 195.5t125.5 147.5t179 56q80 0 141.5 -31t97.5 -86l23 101h88l-144 -643h-88l23 102q-96 -119 -232 -119q-110 0 -184 72t-74 205zM279 934q0 -102 52.5 -156.5t139.5 -54.5q118 0 221 115l70 313q-26 47 -85 75.5t-130 28.5q-113 0 -190.5 -95 t-77.5 -226z" />
<glyph unicode="&#xab;" horiz-adv-x="823" d="M59 498l410 362h125l-418 -373l238 -358h-109zM315 498l410 362h123l-416 -373l238 -358h-109z" />
<glyph unicode="&#xac;" horiz-adv-x="1021" d="M135 842l19 84h897l-107 -486h-90l88 402h-807z" />
<glyph unicode="&#xad;" horiz-adv-x="614" d="M49 446l21 99h491l-20 -99h-492z" />
<glyph unicode="&#xae;" horiz-adv-x="1011" d="M172 952q0 181 127 307.5t307 126.5q119 0 219 -57.5t157.5 -157.5t57.5 -219q0 -180 -127.5 -307t-308.5 -127q-180 0 -306 127t-126 307zM227 952q0 -156 110.5 -267.5t266.5 -111.5t267.5 111.5t111.5 267.5q0 158 -111 267.5t-268 109.5t-267 -109.5t-110 -267.5z M387 702l109 498h186q57 0 99 -35.5t42 -95.5q0 -71 -51.5 -119.5t-112.5 -48.5l91 -199h-74l-86 197h-98l-43 -197h-62zM504 958h141q46 0 79.5 30t33.5 73q0 38 -24.5 60t-61.5 22h-127z" />
<glyph unicode="&#xaf;" horiz-adv-x="743" d="M221 1182l19 75h604l-19 -75h-604z" />
<glyph unicode="&#xb1;" horiz-adv-x="1015" d="M-51 0l16 84h899l-18 -84h-897zM94 662l19 83h403l96 435h90l-94 -435h404l-21 -83h-403l-99 -447h-90l99 447h-404z" />
<glyph unicode="&#xb4;" horiz-adv-x="442" d="M137 1139l381 295h131l-420 -295h-92z" />
<glyph unicode="&#xb5;" horiz-adv-x="1132" d="M-33 -377l309 1366h109l-152 -672q-29 -124 26 -186.5t159 -62.5q90 0 190 49t166 119l166 753h109l-177 -786q-12 -61 5.5 -96t66.5 -35q27 0 43 4l-12 -94q-28 -7 -66 -7q-168 0 -151 177q-79 -77 -178.5 -127t-192.5 -50q-153 0 -207 115l-104 -467h-109z" />
<glyph unicode="&#xb8;" horiz-adv-x="405" d="M-182 -311l47 63q65 -71 170 -71q66 0 100.5 29.5t34.5 74.5q0 31 -22 49.5t-60 18.5q-48 0 -76 -35l-49 32l100 173h78l-84 -140q32 25 70 25q53 0 86 -31t33 -86q0 -79 -59.5 -128.5t-155.5 -49.5q-133 0 -213 76z" />
<glyph unicode="&#xba;" horiz-adv-x="829" d="M188 940q0 158 106.5 272.5t260.5 114.5q135 0 216 -80t81 -211q0 -157 -106.5 -271t-260.5 -114q-134 0 -215.5 79.5t-81.5 209.5zM281 940q0 -94 56 -153.5t148 -59.5q121 0 199 92.5t78 218.5q0 93 -58 152t-151 59q-121 0 -196.5 -91.5t-75.5 -217.5z" />
<glyph unicode="&#xbb;" horiz-adv-x="823" d="M-23 129l418 373l-237 358h108l246 -368l-410 -363h-125zM233 129l418 373l-237 358h108l246 -368l-410 -363h-125z" />
<glyph unicode="&#xbf;" horiz-adv-x="802" d="M-59 -100q0 42 10.5 80.5t25.5 67.5t42.5 58t50 48t61 42t62 36t65.5 34q40 20 60 30.5t52.5 29.5t48.5 34t34.5 35t26 42.5t7.5 47.5q0 52 -41 90l95 52q53 -68 53 -146q0 -31 -8.5 -59t-19.5 -49t-34.5 -43.5t-40.5 -36.5t-50.5 -34.5t-52 -30t-56.5 -29.5 q-50 -26 -78 -41.5t-68.5 -44t-62 -54t-37.5 -63.5t-16 -80q0 -94 75.5 -150.5t208.5 -56.5q199 0 342 146l58 -78q-174 -174 -410 -174q-180 0 -291.5 82.5t-111.5 214.5zM496 911q0 41 29 69t69 28q35 0 58.5 -24t23.5 -58q0 -41 -28.5 -69t-69.5 -28q-34 0 -58 24t-24 58 z" />
<glyph unicode="&#xc0;" horiz-adv-x="1325" d="M-80 0l860 1366h146l258 -1366h-125l-64 336h-727l-209 -336h-139zM330 442h651l-147 807zM549 1776h127l248 -295h-88z" />
<glyph unicode="&#xc1;" horiz-adv-x="1325" d="M-80 0l860 1366h146l258 -1366h-125l-64 336h-727l-209 -336h-139zM330 442h651l-147 807zM834 1481l380 295h132l-418 -295h-94z" />
<glyph unicode="&#xc2;" horiz-adv-x="1325" d="M-80 0l860 1366h146l258 -1366h-125l-64 336h-727l-209 -336h-139zM330 442h651l-147 807zM629 1481l264 295h111l137 -295h-78l-127 231l-223 -231h-84z" />
<glyph unicode="&#xc3;" horiz-adv-x="1325" d="M-80 0l860 1366h146l258 -1366h-125l-64 336h-727l-209 -336h-139zM330 442h651l-147 807zM567 1489q25 125 79.5 199.5t141.5 74.5q55 0 87.5 -31t58.5 -83q11 -23 18.5 -36.5t20 -29.5t28 -23.5t35.5 -7.5q95 0 142 199h75q-59 -274 -223 -274q-55 0 -87 30.5t-58 83.5 q-14 30 -25 47.5t-31.5 32.5t-46.5 15q-94 0 -141 -197h-74z" />
<glyph unicode="&#xc4;" horiz-adv-x="1325" d="M-80 0l860 1366h146l258 -1366h-125l-64 336h-727l-209 -336h-139zM330 442h651l-147 807zM623 1573q0 35 26 59.5t60 24.5q29 0 48 -19.5t19 -48.5q0 -34 -25.5 -59t-60.5 -25q-28 0 -47.5 20t-19.5 48zM1040 1573q0 35 26 59.5t60 24.5q29 0 48.5 -19.5t19.5 -48.5 q0 -34 -25 -59t-59 -25q-29 0 -49.5 20t-20.5 48z" />
<glyph unicode="&#xc5;" horiz-adv-x="1325" d="M-80 0l860 1366h146l258 -1366h-125l-64 336h-727l-209 -336h-139zM330 442h651l-147 807zM725 1642q0 86 64.5 151t150.5 65q78 0 128 -50.5t50 -128.5q0 -88 -63.5 -151.5t-151.5 -63.5q-78 0 -128 50t-50 128zM793 1647q0 -52 31 -84.5t81 -32.5q60 0 104 41.5 t44 101.5q0 53 -31.5 85t-83.5 32q-59 0 -102 -42t-43 -101z" />
<glyph unicode="&#xc6;" horiz-adv-x="1923" d="M-82 0l1163 1366h910l-23 -106h-747l-113 -506h733l-24 -107h-734l-118 -541h747l-22 -106h-867l74 336h-557l-283 -336h-139zM422 442h500l176 801z" />
<glyph unicode="&#xc7;" horiz-adv-x="1374" d="M137 567q0 145 41.5 276t114.5 229t168.5 170.5t206 109.5t225.5 37q181 0 321 -76t218 -217l-113 -52q-68 122 -180.5 180t-251.5 58q-117 0 -228.5 -50.5t-199.5 -140.5t-141.5 -226t-53.5 -294q0 -221 134 -355t360 -134q207 0 385 156l84 -72q-101 -95 -224.5 -143 t-252.5 -48q-38 0 -56 2l-55 -92q33 23 70 23q53 0 85.5 -31t32.5 -86q0 -79 -59.5 -128.5t-155.5 -49.5q-133 0 -213 76l47 63q65 -71 170 -71q66 0 101 29.5t35 74.5q0 31 -22 49.5t-60 18.5q-48 0 -76 -35l-49 32l80 136q-221 37 -354.5 193t-133.5 388z" />
<glyph unicode="&#xc8;" horiz-adv-x="1155" d="M59 0l301 1366h867l-25 -106h-747l-113 -506h735l-24 -107h-734l-120 -541h747l-20 -106h-867zM498 1776h127l247 -295h-88z" />
<glyph unicode="&#xc9;" horiz-adv-x="1155" d="M59 0l301 1366h867l-25 -106h-747l-113 -506h735l-24 -107h-734l-120 -541h747l-20 -106h-867zM780 1481l381 295h131l-418 -295h-94z" />
<glyph unicode="&#xca;" horiz-adv-x="1155" d="M59 0l301 1366h867l-25 -106h-747l-113 -506h735l-24 -107h-734l-120 -541h747l-20 -106h-867zM575 1481l265 295h110l137 -295h-77l-127 231l-224 -231h-84z" />
<glyph unicode="&#xcb;" horiz-adv-x="1155" d="M59 0l301 1366h867l-25 -106h-747l-113 -506h735l-24 -107h-734l-120 -541h747l-20 -106h-867zM571 1573q0 35 26 59.5t60 24.5q29 0 48.5 -19.5t19.5 -48.5q0 -34 -25 -59t-59 -25q-29 0 -49.5 20t-20.5 48zM989 1573q0 35 26 59.5t60 24.5q29 0 48.5 -19.5t19.5 -48.5 q0 -34 -25 -59t-59 -25q-29 0 -49.5 20t-20.5 48z" />
<glyph unicode="&#xcc;" horiz-adv-x="456" d="M59 0l301 1366h117l-301 -1366h-117zM115 1776h125l249 -295h-88z" />
<glyph unicode="&#xcd;" horiz-adv-x="456" d="M59 0l301 1366h117l-301 -1366h-117zM397 1481l381 295h129l-418 -295h-92z" />
<glyph unicode="&#xce;" horiz-adv-x="456" d="M59 0l301 1366h117l-301 -1366h-117zM193 1481l262 295h112l138 -295h-78l-127 231l-224 -231h-83z" />
<glyph unicode="&#xcf;" horiz-adv-x="456" d="M59 0l301 1366h117l-301 -1366h-117zM188 1573q0 35 26 59.5t60 24.5q29 0 48.5 -19.5t19.5 -48.5q0 -34 -25.5 -59t-60.5 -25q-28 0 -48 20t-20 48zM606 1573q0 35 26 59.5t60 24.5q29 0 48.5 -19.5t19.5 -48.5q0 -34 -25 -59t-59 -25q-29 0 -49.5 20t-20.5 48z" />
<glyph unicode="&#xd0;" horiz-adv-x="1476" d="M51 633l23 102h209l137 631h426q113 0 215.5 -44t177.5 -120t119.5 -185t44.5 -233q0 -115 -32.5 -226.5t-102 -212.5t-168 -177.5t-240 -122t-307.5 -45.5h-434l139 633h-207zM260 106h313q158 0 292 54.5t223.5 147t139.5 214.5t50 258q0 207 -129.5 343.5 t-323.5 136.5h-309l-117 -525h365l-23 -102h-364z" />
<glyph unicode="&#xd1;" horiz-adv-x="1431" d="M59 0l301 1366h119l592 -1186l264 1186h117l-301 -1366h-115l-594 1202l-266 -1202h-117zM621 1489q25 125 79.5 199.5t141.5 74.5q55 0 87 -30.5t58 -83.5q15 -31 25.5 -48.5t31 -33t46.5 -15.5q94 0 141 199h76q-59 -274 -224 -274q-55 0 -87 30.5t-58 83.5 q-14 31 -24.5 48t-31 32t-46.5 15q-95 0 -142 -197h-73z" />
<glyph unicode="&#xd2;" horiz-adv-x="1564" d="M137 567q0 170 60 323t161.5 262t241 173t293.5 64q128 0 239.5 -39.5t195 -113t131.5 -187t48 -252.5q0 -170 -60 -323t-161.5 -262t-241.5 -173t-294 -64q-127 0 -238.5 39.5t-195 113t-131.5 187t-48 252.5zM264 571q0 -116 39 -210t107 -154.5t157 -92.5t191 -32 q123 0 236.5 53.5t198.5 146t136 226.5t51 285q0 116 -39 210t-107 154.5t-157.5 92.5t-191.5 32q-123 0 -236.5 -53.5t-198.5 -146t-135.5 -226t-50.5 -285.5zM666 1776h127l247 -295h-88z" />
<glyph unicode="&#xd3;" horiz-adv-x="1564" d="M137 567q0 170 60 323t161.5 262t241 173t293.5 64q128 0 239.5 -39.5t195 -113t131.5 -187t48 -252.5q0 -170 -60 -323t-161.5 -262t-241.5 -173t-294 -64q-127 0 -238.5 39.5t-195 113t-131.5 187t-48 252.5zM264 571q0 -116 39 -210t107 -154.5t157 -92.5t191 -32 q123 0 236.5 53.5t198.5 146t136 226.5t51 285q0 116 -39 210t-107 154.5t-157.5 92.5t-191.5 32q-123 0 -236.5 -53.5t-198.5 -146t-135.5 -226t-50.5 -285.5zM950 1481l381 295h131l-418 -295h-94z" />
<glyph unicode="&#xd4;" horiz-adv-x="1564" d="M137 567q0 170 60 323t161.5 262t241 173t293.5 64q128 0 239.5 -39.5t195 -113t131.5 -187t48 -252.5q0 -170 -60 -323t-161.5 -262t-241.5 -173t-294 -64q-127 0 -238.5 39.5t-195 113t-131.5 187t-48 252.5zM264 571q0 -116 39 -210t107 -154.5t157 -92.5t191 -32 q123 0 236.5 53.5t198.5 146t136 226.5t51 285q0 116 -39 210t-107 154.5t-157.5 92.5t-191.5 32q-123 0 -236.5 -53.5t-198.5 -146t-135.5 -226t-50.5 -285.5zM745 1481l265 295h110l137 -295h-77l-127 231l-224 -231h-84z" />
<glyph unicode="&#xd5;" horiz-adv-x="1564" d="M137 567q0 170 60 323t161.5 262t241 173t293.5 64q128 0 239.5 -39.5t195 -113t131.5 -187t48 -252.5q0 -170 -60 -323t-161.5 -262t-241.5 -173t-294 -64q-127 0 -238.5 39.5t-195 113t-131.5 187t-48 252.5zM264 571q0 -116 39 -210t107 -154.5t157 -92.5t191 -32 q123 0 236.5 53.5t198.5 146t136 226.5t51 285q0 116 -39 210t-107 154.5t-157.5 92.5t-191.5 32q-123 0 -236.5 -53.5t-198.5 -146t-135.5 -226t-50.5 -285.5zM684 1489q25 125 79.5 199.5t141.5 74.5q55 0 87.5 -31t58.5 -83q11 -23 18.5 -36.5t20 -29.5t28 -23.5 t35.5 -7.5q94 0 141 199h76q-59 -274 -223 -274q-55 0 -87.5 31t-58.5 83q-14 31 -24.5 48t-31 32t-46.5 15q-94 0 -141 -197h-74z" />
<glyph unicode="&#xd6;" horiz-adv-x="1564" d="M137 567q0 170 60 323t161.5 262t241 173t293.5 64q128 0 239.5 -39.5t195 -113t131.5 -187t48 -252.5q0 -170 -60 -323t-161.5 -262t-241.5 -173t-294 -64q-127 0 -238.5 39.5t-195 113t-131.5 187t-48 252.5zM264 571q0 -116 39 -210t107 -154.5t157 -92.5t191 -32 q123 0 236.5 53.5t198.5 146t136 226.5t51 285q0 116 -39 210t-107 154.5t-157.5 92.5t-191.5 32q-123 0 -236.5 -53.5t-198.5 -146t-135.5 -226t-50.5 -285.5zM739 1573q0 35 26 59.5t60 24.5q29 0 48.5 -19.5t19.5 -48.5q0 -34 -25 -59t-59 -25q-29 0 -49.5 20t-20.5 48z M1159 1573q0 35 25 59.5t59 24.5q29 0 48.5 -19.5t19.5 -48.5q0 -34 -25 -59t-59 -25q-29 0 -48.5 20t-19.5 48z" />
<glyph unicode="&#xd8;" horiz-adv-x="1564" d="M84 -53l201 213q-148 158 -148 407q0 170 60 323t161.5 262t241 173t293.5 64q252 0 420 -142l205 217l47 -47l-203 -215q145 -158 145 -405q0 -170 -60 -323t-161.5 -262t-241.5 -173t-294 -64q-249 0 -418 140l-201 -213zM264 571q0 -194 105 -321l862 911 q-136 121 -346 121q-123 0 -236.5 -53.5t-198.5 -146t-135.5 -226t-50.5 -285.5zM416 203q133 -121 342 -121q123 0 236.5 53.5t198.5 146t136 226.5t51 285q0 193 -104 319z" />
<glyph unicode="&#xd9;" horiz-adv-x="1404" d="M166 420q0 64 12 117l182 829h119l-182 -827q-14 -68 -14 -107q0 -159 102.5 -254.5t282.5 -95.5q195 0 300.5 111.5t153.5 332.5l185 840h118l-184 -842q-30 -132 -73 -228.5t-110.5 -171t-165.5 -112t-228 -37.5q-230 0 -364 120.5t-134 324.5zM586 1776h127l248 -295 h-89z" />
<glyph unicode="&#xda;" horiz-adv-x="1404" d="M166 420q0 64 12 117l182 829h119l-182 -827q-14 -68 -14 -107q0 -159 102.5 -254.5t282.5 -95.5q195 0 300.5 111.5t153.5 332.5l185 840h118l-184 -842q-30 -132 -73 -228.5t-110.5 -171t-165.5 -112t-228 -37.5q-230 0 -364 120.5t-134 324.5zM870 1481l381 295h131 l-417 -295h-95z" />
<glyph unicode="&#xdb;" horiz-adv-x="1404" d="M166 420q0 64 12 117l182 829h119l-182 -827q-14 -68 -14 -107q0 -159 102.5 -254.5t282.5 -95.5q195 0 300.5 111.5t153.5 332.5l185 840h118l-184 -842q-30 -132 -73 -228.5t-110.5 -171t-165.5 -112t-228 -37.5q-230 0 -364 120.5t-134 324.5zM666 1481l264 295h110 l138 -295h-78l-127 231l-223 -231h-84z" />
<glyph unicode="&#xdc;" horiz-adv-x="1404" d="M166 420q0 64 12 117l182 829h119l-182 -827q-14 -68 -14 -107q0 -159 102.5 -254.5t282.5 -95.5q195 0 300.5 111.5t153.5 332.5l185 840h118l-184 -842q-30 -132 -73 -228.5t-110.5 -171t-165.5 -112t-228 -37.5q-230 0 -364 120.5t-134 324.5zM659 1573q0 35 26 59.5 t60 24.5q29 0 48.5 -19.5t19.5 -48.5q0 -34 -25 -59t-59 -25q-29 0 -49.5 20t-20.5 48zM1079 1573q0 35 25 59.5t59 24.5q29 0 48.5 -19.5t19.5 -48.5q0 -34 -25 -59t-59 -25q-29 0 -48.5 20t-19.5 48z" />
<glyph unicode="&#xdd;" horiz-adv-x="1265" d="M221 1366h131l314 -672l608 672h151l-714 -782l-129 -584h-119l129 584zM803 1481l381 295h131l-418 -295h-94z" />
<glyph unicode="&#xde;" d="M59 0l301 1366h117l-55 -254h371q146 0 247 -100t101 -242q0 -65 -17.5 -128.5t-57.5 -123.5t-97 -105t-143.5 -72.5t-190.5 -27.5h-389l-70 -313h-117zM270 420h377q91 0 163.5 28.5t116 77.5t66.5 109t23 127q0 102 -74 173t-178 71h-367z" />
<glyph unicode="&#xdf;" horiz-adv-x="1105" d="M20 0l220 983q43 193 158 298t284 105q72 0 136 -25t111.5 -70t67 -116t0.5 -155q-23 -102 -108 -177.5t-205 -101.5q152 -33 229 -153.5t41 -280.5q-32 -148 -153 -240t-285 -92q-86 0 -156.5 25t-111.5 59l59 76q75 -65 209 -65q128 0 215.5 71t114.5 189 q38 170 -62.5 272t-322.5 92l18 88q173 0 278.5 73t129.5 181q13 60 0 109.5t-44.5 80.5t-74.5 47.5t-92 16.5q-119 0 -207.5 -77t-122.5 -230l-219 -983h-107z" />
<glyph unicode="&#xe0;" horiz-adv-x="1167" d="M92 381q0 167 63.5 310.5t184 233t272.5 89.5q118 0 211 -52.5t146 -140.5l35 168h108l-219 -989h-109l33 150q-62 -81 -149.5 -128t-188.5 -47q-173 0 -280 108.5t-107 297.5zM209 399q0 -151 81.5 -239t217.5 -88q100 0 191 54.5t145 135.5l104 475 q-39 78 -125.5 129.5t-201.5 51.5q-90 0 -168.5 -44.5t-131 -117t-82.5 -166t-30 -191.5zM397 1434h125l250 -295h-88z" />
<glyph unicode="&#xe1;" horiz-adv-x="1167" d="M92 381q0 167 63.5 310.5t184 233t272.5 89.5q118 0 211 -52.5t146 -140.5l35 168h108l-219 -989h-109l33 150q-62 -81 -149.5 -128t-188.5 -47q-173 0 -280 108.5t-107 297.5zM209 399q0 -151 81.5 -239t217.5 -88q100 0 191 54.5t145 135.5l104 475 q-39 78 -125.5 129.5t-201.5 51.5q-90 0 -168.5 -44.5t-131 -117t-82.5 -166t-30 -191.5zM682 1139l381 295h131l-418 -295h-94z" />
<glyph unicode="&#xe2;" horiz-adv-x="1167" d="M92 381q0 167 63.5 310.5t184 233t272.5 89.5q118 0 211 -52.5t146 -140.5l35 168h108l-219 -989h-109l33 150q-62 -81 -149.5 -128t-188.5 -47q-173 0 -280 108.5t-107 297.5zM209 399q0 -151 81.5 -239t217.5 -88q100 0 191 54.5t145 135.5l104 475 q-39 78 -125.5 129.5t-201.5 51.5q-90 0 -168.5 -44.5t-131 -117t-82.5 -166t-30 -191.5zM477 1139l264 295h111l137 -295h-78l-127 231l-223 -231h-84z" />
<glyph unicode="&#xe3;" horiz-adv-x="1167" d="M92 381q0 167 63.5 310.5t184 233t272.5 89.5q118 0 211 -52.5t146 -140.5l35 168h108l-219 -989h-109l33 150q-62 -81 -149.5 -128t-188.5 -47q-173 0 -280 108.5t-107 297.5zM209 399q0 -151 81.5 -239t217.5 -88q100 0 191 54.5t145 135.5l104 475 q-39 78 -125.5 129.5t-201.5 51.5q-90 0 -168.5 -44.5t-131 -117t-82.5 -166t-30 -191.5zM416 1147q25 125 79.5 199.5t141.5 74.5q55 0 87 -30.5t58 -83.5q15 -31 25.5 -48.5t31 -33t46.5 -15.5q94 0 141 199h76q-59 -274 -223 -274q-55 0 -87.5 31t-58.5 83 q-14 30 -24.5 47t-31 32t-46.5 15q-98 0 -142 -196h-73z" />
<glyph unicode="&#xe4;" horiz-adv-x="1167" d="M92 381q0 167 63.5 310.5t184 233t272.5 89.5q118 0 211 -52.5t146 -140.5l35 168h108l-219 -989h-109l33 150q-62 -81 -149.5 -128t-188.5 -47q-173 0 -280 108.5t-107 297.5zM209 399q0 -151 81.5 -239t217.5 -88q100 0 191 54.5t145 135.5l104 475 q-39 78 -125.5 129.5t-201.5 51.5q-90 0 -168.5 -44.5t-131 -117t-82.5 -166t-30 -191.5zM471 1231q0 35 26 59.5t60 24.5q29 0 48.5 -19.5t19.5 -48.5q0 -34 -25 -59t-59 -25q-29 0 -49.5 20t-20.5 48zM889 1231q0 35 26 59.5t60 24.5q29 0 48 -19.5t19 -48.5 q0 -34 -25 -59t-59 -25q-29 0 -49 20t-20 48z" />
<glyph unicode="&#xe5;" horiz-adv-x="1167" d="M92 381q0 167 63.5 310.5t184 233t272.5 89.5q118 0 211 -52.5t146 -140.5l35 168h108l-219 -989h-109l33 150q-62 -81 -149.5 -128t-188.5 -47q-173 0 -280 108.5t-107 297.5zM209 399q0 -151 81.5 -239t217.5 -88q100 0 191 54.5t145 135.5l104 475 q-39 78 -125.5 129.5t-201.5 51.5q-90 0 -168.5 -44.5t-131 -117t-82.5 -166t-30 -191.5zM573 1300q0 86 64.5 151t150.5 65q78 0 128.5 -50.5t50.5 -128.5q0 -88 -63.5 -151.5t-151.5 -63.5q-78 0 -128.5 50t-50.5 128zM639 1305q0 -51 32 -84t83 -33q60 0 103.5 41.5 t43.5 101.5q0 53 -31.5 85t-83.5 32q-59 0 -103 -42t-44 -101z" />
<glyph unicode="&#xe6;" horiz-adv-x="1941" d="M92 381q0 167 63.5 310.5t184 233t272.5 89.5q118 0 211 -52.5t146 -140.5l35 168h108l-41 -188q63 88 164 150.5t219 62.5q187 0 288 -117.5t101 -306.5q0 -79 -16 -129h-826q-4 -28 -4 -58q0 -144 95 -239.5t268 -95.5q160 0 289 108l41 -80q-157 -121 -328 -121 q-166 0 -272.5 82t-135.5 219l-61 -276h-109l33 150q-62 -81 -149.5 -128t-188.5 -47q-173 0 -280 108.5t-107 297.5zM209 399q0 -151 81.5 -239t217.5 -88q100 0 191 54.5t145 135.5l104 475q-39 78 -125.5 129.5t-201.5 51.5q-90 0 -168.5 -44.5t-131 -117t-82.5 -166 t-30 -191.5zM1012 545h727q2 10 2 45q0 150 -82.5 241t-237.5 91q-147 0 -264.5 -111t-144.5 -266z" />
<glyph unicode="&#xe7;" horiz-adv-x="1011" d="M94 414q0 161 72 299t198.5 219.5t276.5 81.5q250 0 356 -180l-82 -62q-42 72 -113 109t-155 37q-100 0 -184 -42.5t-139.5 -113t-86 -161.5t-30.5 -189q0 -163 94 -251.5t244 -88.5q81 0 150 34t118 93l61 -74q-143 -150 -339 -150h-33l-56 -90q33 23 70 23q53 0 86 -31 t33 -86q0 -79 -59.5 -128.5t-155.5 -49.5q-133 0 -213 76l47 63q65 -71 170 -71q66 0 100.5 29.5t34.5 74.5q0 31 -22 49.5t-60 18.5q-48 0 -76 -35l-49 32l78 136q-154 29 -245 140t-91 288z" />
<glyph unicode="&#xe8;" horiz-adv-x="1161" d="M94 412q0 122 43 233t116 192t175 129t215 48q193 0 305.5 -120.5t112.5 -307.5q0 -64 -14 -127h-836q-4 -20 -4 -56q0 -144 94 -239.5t268 -95.5q78 0 157.5 27t141.5 79l41 -78q-70 -54 -160.5 -87.5t-183.5 -33.5q-221 0 -346 120t-125 317zM221 545h737q3 15 3 45 q0 149 -87 240.5t-243 91.5q-147 0 -265 -111t-145 -266zM391 1434h125l250 -295h-88z" />
<glyph unicode="&#xe9;" horiz-adv-x="1161" d="M94 412q0 122 43 233t116 192t175 129t215 48q193 0 305.5 -120.5t112.5 -307.5q0 -64 -14 -127h-836q-4 -20 -4 -56q0 -144 94 -239.5t268 -95.5q78 0 157.5 27t141.5 79l41 -78q-70 -54 -160.5 -87.5t-183.5 -33.5q-221 0 -346 120t-125 317zM221 545h737q3 15 3 45 q0 149 -87 240.5t-243 91.5q-147 0 -265 -111t-145 -266zM674 1139l381 295h131l-418 -295h-94z" />
<glyph unicode="&#xea;" horiz-adv-x="1161" d="M94 412q0 122 43 233t116 192t175 129t215 48q193 0 305.5 -120.5t112.5 -307.5q0 -64 -14 -127h-836q-4 -20 -4 -56q0 -144 94 -239.5t268 -95.5q78 0 157.5 27t141.5 79l41 -78q-70 -54 -160.5 -87.5t-183.5 -33.5q-221 0 -346 120t-125 317zM221 545h737q3 15 3 45 q0 149 -87 240.5t-243 91.5q-147 0 -265 -111t-145 -266zM469 1139l264 295h111l137 -295h-78l-127 231l-223 -231h-84z" />
<glyph unicode="&#xeb;" horiz-adv-x="1161" d="M94 412q0 122 43 233t116 192t175 129t215 48q193 0 305.5 -120.5t112.5 -307.5q0 -64 -14 -127h-836q-4 -20 -4 -56q0 -144 94 -239.5t268 -95.5q78 0 157.5 27t141.5 79l41 -78q-70 -54 -160.5 -87.5t-183.5 -33.5q-221 0 -346 120t-125 317zM221 545h737q3 15 3 45 q0 149 -87 240.5t-243 91.5q-147 0 -265 -111t-145 -266zM465 1231q0 35 26 59.5t60 24.5q29 0 48 -19.5t19 -48.5q0 -34 -24.5 -59t-58.5 -25q-29 0 -49.5 20t-20.5 48zM883 1231q0 35 26 59.5t60 24.5q29 0 48 -19.5t19 -48.5q0 -34 -25 -59t-59 -25q-29 0 -49 20t-20 48z " />
<glyph unicode="&#xec;" horiz-adv-x="438" d="M29 1434h125l249 -295h-88zM55 0l219 989h107l-219 -989h-107z" />
<glyph unicode="&#xed;" horiz-adv-x="438" d="M55 0l219 989h107l-219 -989h-107zM311 1139l381 295h129l-418 -295h-92z" />
<glyph unicode="&#xee;" horiz-adv-x="438" d="M55 0l219 989h107l-219 -989h-107zM106 1139l263 295h110l139 -295h-77l-127 231l-224 -231h-84z" />
<glyph unicode="&#xef;" horiz-adv-x="438" d="M55 0l219 989h107l-219 -989h-107zM102 1231q0 35 26 59.5t60 24.5q29 0 48.5 -19.5t19.5 -48.5q0 -34 -25.5 -59t-60.5 -25q-28 0 -48 20t-20 48zM520 1231q0 35 26 59.5t60 24.5q29 0 48.5 -19.5t19.5 -48.5q0 -34 -25 -59t-59 -25q-29 0 -49.5 20t-20.5 48z" />
<glyph unicode="&#xf0;" d="M94 393q0 165 69.5 304t189 219.5t259.5 80.5q105 0 199 -52.5t143 -162.5q-75 208 -247 383l-320 -94l-18 66l282 84q-69 63 -145 118l80 82q104 -75 190 -164l238 72l18 -65l-205 -62q246 -282 246 -586q0 -176 -68.5 -322.5t-192.5 -232.5t-277 -86q-195 0 -318 119 t-123 299zM209 410q0 -150 87.5 -244t240.5 -94q112 0 207.5 67.5t151.5 183t56 250.5q0 60 -19.5 116.5t-57.5 105t-103 77.5t-149 29q-169 0 -291.5 -143t-122.5 -348z" />
<glyph unicode="&#xf1;" horiz-adv-x="1105" d="M55 0l219 989h107l-33 -149q76 75 168.5 124.5t188.5 49.5q131 0 209.5 -62t78.5 -180q0 -38 -12 -84l-152 -688h-106l147 670q13 65 13 73q0 88 -59 131.5t-156 43.5q-91 0 -181 -49.5t-161 -123.5l-164 -745h-107zM383 1147q25 125 79.5 199.5t141.5 74.5 q55 0 87.5 -31t58.5 -83q11 -23 18.5 -36.5t20 -29.5t28 -23.5t35.5 -7.5q94 0 141 199h76q-59 -274 -223 -274q-55 0 -87.5 31t-58.5 83q-14 30 -24.5 47t-31 32t-46.5 15q-97 0 -141 -196h-74z" />
<glyph unicode="&#xf2;" d="M92 410q0 156 70 294.5t196 224t277 85.5q200 0 319 -118.5t119 -315.5q0 -157 -70 -295.5t-196.5 -224t-278.5 -85.5q-199 0 -317.5 119t-118.5 316zM209 414q0 -157 85 -249.5t236 -92.5q120 0 219 72.5t153 187.5t54 243q0 157 -85 250t-236 93q-120 0 -219 -72.5 t-153 -188t-54 -243.5zM393 1434h125l250 -295h-88z" />
<glyph unicode="&#xf3;" d="M92 410q0 156 70 294.5t196 224t277 85.5q200 0 319 -118.5t119 -315.5q0 -157 -70 -295.5t-196.5 -224t-278.5 -85.5q-199 0 -317.5 119t-118.5 316zM209 414q0 -157 85 -249.5t236 -92.5q120 0 219 72.5t153 187.5t54 243q0 157 -85 250t-236 93q-120 0 -219 -72.5 t-153 -188t-54 -243.5zM678 1139l381 295h131l-418 -295h-94z" />
<glyph unicode="&#xf4;" d="M92 410q0 156 70 294.5t196 224t277 85.5q200 0 319 -118.5t119 -315.5q0 -157 -70 -295.5t-196.5 -224t-278.5 -85.5q-199 0 -317.5 119t-118.5 316zM209 414q0 -157 85 -249.5t236 -92.5q120 0 219 72.5t153 187.5t54 243q0 157 -85 250t-236 93q-120 0 -219 -72.5 t-153 -188t-54 -243.5zM473 1139l264 295h111l137 -295h-78l-127 231l-223 -231h-84z" />
<glyph unicode="&#xf5;" d="M92 410q0 156 70 294.5t196 224t277 85.5q200 0 319 -118.5t119 -315.5q0 -157 -70 -295.5t-196.5 -224t-278.5 -85.5q-199 0 -317.5 119t-118.5 316zM209 414q0 -157 85 -249.5t236 -92.5q120 0 219 72.5t153 187.5t54 243q0 157 -85 250t-236 93q-120 0 -219 -72.5 t-153 -188t-54 -243.5zM412 1147q25 125 79.5 199.5t141.5 74.5q55 0 87 -30.5t58 -83.5q15 -31 25.5 -48.5t31 -33t46.5 -15.5q94 0 141 199h76q-59 -274 -224 -274q-55 0 -87 30.5t-58 83.5q-14 30 -24.5 47t-31 32t-46.5 15q-98 0 -142 -196h-73z" />
<glyph unicode="&#xf6;" d="M92 410q0 156 70 294.5t196 224t277 85.5q200 0 319 -118.5t119 -315.5q0 -157 -70 -295.5t-196.5 -224t-278.5 -85.5q-199 0 -317.5 119t-118.5 316zM209 414q0 -157 85 -249.5t236 -92.5q120 0 219 72.5t153 187.5t54 243q0 157 -85 250t-236 93q-120 0 -219 -72.5 t-153 -188t-54 -243.5zM467 1231q0 35 26 59.5t60 24.5q29 0 48.5 -19.5t19.5 -48.5q0 -34 -25 -59t-59 -25q-29 0 -49.5 20t-20.5 48zM885 1231q0 35 26 59.5t60 24.5q29 0 48 -19.5t19 -48.5q0 -34 -25 -59t-59 -25q-29 0 -49 20t-20 48z" />
<glyph unicode="&#xf7;" horiz-adv-x="1046" d="M92 647l19 86h927l-18 -86h-928zM395 279q0 35 25.5 60.5t60.5 25.5q32 0 54 -21.5t22 -52.5q0 -36 -26.5 -61t-63.5 -25q-31 0 -51.5 21.5t-20.5 52.5zM571 1081q0 35 26.5 60.5t61.5 25.5q31 0 52.5 -21t21.5 -52q0 -37 -25.5 -61.5t-62.5 -24.5q-31 0 -52.5 21 t-21.5 52z" />
<glyph unicode="&#xf8;" d="M92 410q0 156 70 294.5t196 224t277 85.5q161 0 274 -80l125 153l45 -36l-125 -154q119 -119 119 -317q0 -157 -70 -295.5t-196.5 -224t-278.5 -85.5q-154 0 -264 74l-121 -147l-49 39l121 147q-123 123 -123 322zM209 414q0 -148 76 -240l557 678q-81 66 -207 66 q-120 0 -219 -72.5t-153 -188t-54 -243.5zM330 131q80 -59 200 -59t219 72.5t153 187.5t54 243q0 148 -73 236z" />
<glyph unicode="&#xf9;" horiz-adv-x="1105" d="M111 217q0 38 12 84l151 688h107l-150 -670q-10 -50 -10 -73q0 -88 59.5 -131t159.5 -43q88 0 177.5 50t158.5 124l166 743h107l-220 -989h-106l33 150q-183 -175 -357 -175q-131 0 -209.5 62t-78.5 180zM365 1434h124l250 -295h-88z" />
<glyph unicode="&#xfa;" horiz-adv-x="1105" d="M111 217q0 38 12 84l151 688h107l-150 -670q-10 -50 -10 -73q0 -88 59.5 -131t159.5 -43q88 0 177.5 50t158.5 124l166 743h107l-220 -989h-106l33 150q-183 -175 -357 -175q-131 0 -209.5 62t-78.5 180zM647 1139l381 295h131l-418 -295h-94z" />
<glyph unicode="&#xfb;" horiz-adv-x="1105" d="M111 217q0 38 12 84l151 688h107l-150 -670q-10 -50 -10 -73q0 -88 59.5 -131t159.5 -43q88 0 177.5 50t158.5 124l166 743h107l-220 -989h-106l33 150q-183 -175 -357 -175q-131 0 -209.5 62t-78.5 180zM442 1139l265 295h110l137 -295h-77l-127 231l-224 -231h-84z" />
<glyph unicode="&#xfc;" horiz-adv-x="1105" d="M111 217q0 38 12 84l151 688h107l-150 -670q-10 -50 -10 -73q0 -88 59.5 -131t159.5 -43q88 0 177.5 50t158.5 124l166 743h107l-220 -989h-106l33 150q-183 -175 -357 -175q-131 0 -209.5 62t-78.5 180zM438 1231q0 35 26 59.5t60 24.5q29 0 48.5 -19.5t19.5 -48.5 q0 -34 -25.5 -59t-60.5 -25q-28 0 -48 20t-20 48zM856 1231q0 35 26 59.5t60 24.5q29 0 48.5 -19.5t19.5 -48.5q0 -34 -25 -59t-59 -25q-29 0 -49.5 20t-20.5 48z" />
<glyph unicode="&#xfd;" horiz-adv-x="985" d="M-94 -381l41 102q36 -18 96 -18q42 0 77.5 24.5t78.5 88.5l116 178l-192 995h115l165 -864l551 864h123l-778 -1206q-59 -94 -125.5 -139t-150.5 -45q-62 0 -117 20zM588 1139l381 295h129l-418 -295h-92z" />
<glyph unicode="&#xfe;" horiz-adv-x="1161" d="M-29 -377l385 1743h107l-115 -526q62 81 149.5 127.5t190.5 46.5q172 0 278.5 -109.5t106.5 -298.5q0 -98 -23.5 -192t-69.5 -173t-108 -139t-144 -93.5t-173 -33.5q-119 0 -211 52.5t-145 140.5l-121 -545h-107zM217 252q39 -78 126 -129t202 -51q91 0 169.5 44 t130.5 116.5t81.5 165t29.5 190.5q0 151 -81.5 240.5t-217.5 89.5q-99 0 -189 -54.5t-146 -136.5z" />
<glyph unicode="&#xff;" horiz-adv-x="985" d="M-94 -381l41 102q36 -18 96 -18q42 0 77.5 24.5t78.5 88.5l116 178l-192 995h115l165 -864l551 864h123l-778 -1206q-59 -94 -125.5 -139t-150.5 -45q-62 0 -117 20zM377 1231q0 35 26 59.5t60 24.5q29 0 48 -19.5t19 -48.5q0 -34 -25.5 -59t-60.5 -25q-28 0 -47.5 20 t-19.5 48zM795 1231q0 35 26 59.5t60 24.5q29 0 48 -19.5t19 -48.5q0 -34 -25 -59t-59 -25q-29 0 -49 20t-20 48z" />
<glyph unicode="&#x100;" horiz-adv-x="1325" d="M-80 0l860 1366h146l258 -1366h-125l-64 336h-727l-209 -336h-139zM330 442h651l-147 807zM592 1522l18 77h604l-18 -77h-604z" />
<glyph unicode="&#x101;" horiz-adv-x="1167" d="M92 381q0 167 63.5 310.5t184 233t272.5 89.5q118 0 211 -52.5t146 -140.5l35 168h108l-219 -989h-109l33 150q-62 -81 -149.5 -128t-188.5 -47q-173 0 -280 108.5t-107 297.5zM209 399q0 -151 81.5 -239t217.5 -88q100 0 191 54.5t145 135.5l104 475 q-39 78 -125.5 129.5t-201.5 51.5q-90 0 -168.5 -44.5t-131 -117t-82.5 -166t-30 -191.5zM440 1180l19 77h604l-19 -77h-604z" />
<glyph unicode="&#x102;" horiz-adv-x="1325" d="M-80 0l860 1366h146l258 -1366h-125l-64 336h-727l-209 -336h-139zM330 442h651l-147 807zM561 1642l68 52q36 -73 104.5 -114.5t161.5 -41.5q92 0 179 42t155 114l51 -52q-81 -84 -184.5 -132t-212.5 -48q-108 0 -192.5 48t-129.5 132z" />
<glyph unicode="&#x103;" horiz-adv-x="1167" d="M92 381q0 167 63.5 310.5t184 233t272.5 89.5q118 0 211 -52.5t146 -140.5l35 168h108l-219 -989h-109l33 150q-62 -81 -149.5 -128t-188.5 -47q-173 0 -280 108.5t-107 297.5zM209 399q0 -151 81.5 -239t217.5 -88q100 0 191 54.5t145 135.5l104 475 q-39 78 -125.5 129.5t-201.5 51.5q-90 0 -168.5 -44.5t-131 -117t-82.5 -166t-30 -191.5zM410 1300l65 52q38 -73 106.5 -114.5t161.5 -41.5q92 0 179 42t155 114l51 -52q-81 -84 -184.5 -132t-212.5 -48q-108 0 -192 48t-129 132z" />
<glyph unicode="&#x104;" horiz-adv-x="1325" d="M-80 0l860 1366h146l258 -1366h-17q-249 -112 -249 -233q0 -27 19 -46.5t60 -19.5q37 0 76 20l17 -69q-60 -33 -127 -33q-72 0 -116 32.5t-44 86.5q0 77 76.5 146.5t187.5 115.5h-8l-64 336h-727l-209 -336h-139zM330 442h651l-147 807z" />
<glyph unicode="&#x105;" horiz-adv-x="1167" d="M92 381q0 167 63.5 310.5t184 233t272.5 89.5q118 0 211 -52.5t146 -140.5l35 168h108l-219 -989q-250 -113 -250 -233q0 -27 19.5 -46.5t58.5 -19.5q40 0 76 20l18 -69q-60 -33 -127 -33q-72 0 -116 32.5t-44 86.5q0 77 77 146t188 116h-9l33 150q-62 -81 -149.5 -128 t-188.5 -47q-173 0 -280 108.5t-107 297.5zM209 399q0 -151 81.5 -239t217.5 -88q100 0 191 54.5t145 135.5l104 475q-39 78 -125.5 129.5t-201.5 51.5q-90 0 -168.5 -44.5t-131 -117t-82.5 -166t-30 -191.5z" />
<glyph unicode="&#x106;" horiz-adv-x="1374" d="M137 567q0 145 41.5 276t114.5 229t168.5 170.5t206 109.5t225.5 37q181 0 321 -76t218 -217l-113 -52q-68 122 -180.5 180t-251.5 58q-117 0 -228.5 -50.5t-199.5 -140.5t-141.5 -226t-53.5 -294q0 -221 134 -355t360 -134q207 0 385 156l84 -72q-101 -95 -224.5 -143 t-252.5 -48q-177 0 -316 73t-218 208.5t-79 310.5zM956 1481l381 295h131l-417 -295h-95z" />
<glyph unicode="&#x107;" horiz-adv-x="1011" d="M94 414q0 161 72 299t198.5 219.5t276.5 81.5q250 0 356 -180l-82 -62q-42 72 -113 109t-155 37q-100 0 -184 -42.5t-139.5 -113t-86 -161.5t-30.5 -189q0 -163 94 -251.5t244 -88.5q81 0 150 34t118 93l61 -74q-143 -150 -339 -150t-318.5 116.5t-122.5 322.5zM676 1139 l381 295h131l-418 -295h-94z" />
<glyph unicode="&#x108;" horiz-adv-x="1374" d="M137 567q0 145 41.5 276t114.5 229t168.5 170.5t206 109.5t225.5 37q181 0 321 -76t218 -217l-113 -52q-68 122 -180.5 180t-251.5 58q-117 0 -228.5 -50.5t-199.5 -140.5t-141.5 -226t-53.5 -294q0 -221 134 -355t360 -134q207 0 385 156l84 -72q-101 -95 -224.5 -143 t-252.5 -48q-177 0 -316 73t-218 208.5t-79 310.5zM752 1481l264 295h110l138 -295h-78l-127 231l-223 -231h-84z" />
<glyph unicode="&#x109;" horiz-adv-x="1011" d="M94 414q0 161 72 299t198.5 219.5t276.5 81.5q250 0 356 -180l-82 -62q-42 72 -113 109t-155 37q-100 0 -184 -42.5t-139.5 -113t-86 -161.5t-30.5 -189q0 -163 94 -251.5t244 -88.5q81 0 150 34t118 93l61 -74q-143 -150 -339 -150t-318.5 116.5t-122.5 322.5zM471 1139 l264 295h111l137 -295h-78l-127 231l-223 -231h-84z" />
<glyph unicode="&#x10a;" horiz-adv-x="1374" d="M137 567q0 145 41.5 276t114.5 229t168.5 170.5t206 109.5t225.5 37q181 0 321 -76t218 -217l-113 -52q-68 122 -180.5 180t-251.5 58q-117 0 -228.5 -50.5t-199.5 -140.5t-141.5 -226t-53.5 -294q0 -221 134 -355t360 -134q207 0 385 156l84 -72q-101 -95 -224.5 -143 t-252.5 -48q-177 0 -316 73t-218 208.5t-79 310.5zM946 1569q0 34 26 60t62 26q29 0 49.5 -20.5t20.5 -49.5q0 -35 -26.5 -60.5t-61.5 -25.5q-30 0 -50 20t-20 50z" />
<glyph unicode="&#x10b;" horiz-adv-x="1011" d="M94 414q0 161 72 299t198.5 219.5t276.5 81.5q250 0 356 -180l-82 -62q-42 72 -113 109t-155 37q-100 0 -184 -42.5t-139.5 -113t-86 -161.5t-30.5 -189q0 -163 94 -251.5t244 -88.5q81 0 150 34t118 93l61 -74q-143 -150 -339 -150t-318.5 116.5t-122.5 322.5zM666 1227 q0 34 26 60t62 26q29 0 49 -20.5t20 -49.5q0 -35 -26.5 -60.5t-61.5 -25.5q-29 0 -49 19.5t-20 50.5z" />
<glyph unicode="&#x10c;" horiz-adv-x="1374" d="M137 567q0 145 41.5 276t114.5 229t168.5 170.5t206 109.5t225.5 37q181 0 321 -76t218 -217l-113 -52q-68 122 -180.5 180t-251.5 58q-117 0 -228.5 -50.5t-199.5 -140.5t-141.5 -226t-53.5 -294q0 -221 134 -355t360 -134q207 0 385 156l84 -72q-101 -95 -224.5 -143 t-252.5 -48q-177 0 -316 73t-218 208.5t-79 310.5zM811 1776h76l127 -232l223 232h86l-262 -295h-113z" />
<glyph unicode="&#x10d;" horiz-adv-x="1011" d="M94 414q0 161 72 299t198.5 219.5t276.5 81.5q250 0 356 -180l-82 -62q-42 72 -113 109t-155 37q-100 0 -184 -42.5t-139.5 -113t-86 -161.5t-30.5 -189q0 -163 94 -251.5t244 -88.5q81 0 150 34t118 93l61 -74q-143 -150 -339 -150t-318.5 116.5t-122.5 322.5zM530 1434 h76l127 -232l223 232h86l-264 -295h-110z" />
<glyph unicode="&#x10e;" horiz-adv-x="1417" d="M59 0l301 1366h426q151 0 278 -74.5t202 -209t75 -298.5q0 -115 -32.5 -226.5t-102 -212.5t-167 -177.5t-238.5 -122t-307 -45.5h-435zM199 106h315q158 0 292 54.5t223.5 147t139.5 214.5t50 258q0 207 -130 343.5t-325 136.5h-309zM737 1776h76l127 -232l223 232h86 l-264 -295h-111z" />
<glyph unicode="&#x10f;" horiz-adv-x="1277" d="M92 381q0 167 63.5 310.5t184 233t272.5 89.5q118 0 211 -52.5t146 -140.5l118 545h109l-303 -1366h-109l33 150q-62 -81 -149.5 -128t-188.5 -47q-173 0 -280 108.5t-107 297.5zM209 399q0 -151 81.5 -239t217.5 -88q100 0 191 54.5t145 135.5l104 475 q-39 78 -125.5 129.5t-201.5 51.5q-90 0 -168.5 -44.5t-131 -117t-82.5 -166t-30 -191.5zM1212 1069q56 30 98 75.5t54 90.5h-14q-25 0 -44.5 20.5t-19.5 47.5q0 37 26.5 63.5t61.5 26.5t57.5 -23.5t22.5 -66.5q0 -80 -59 -160.5t-138 -122.5z" />
<glyph unicode="&#x110;" horiz-adv-x="1476" d="M51 633l23 102h207l139 631h426q151 0 278.5 -74.5t203 -209t75.5 -298.5q0 -115 -32.5 -226.5t-102 -212.5t-168 -177.5t-240 -122t-307.5 -45.5h-434l139 633h-207zM260 106h313q158 0 292 54.5t223.5 147t139.5 214.5t50 258q0 207 -129.5 343.5t-323.5 136.5h-309 l-117 -525h365l-23 -102h-366z" />
<glyph unicode="&#x111;" horiz-adv-x="1175" d="M92 381q0 167 63.5 310.5t184 233t272.5 89.5q118 0 211 -52.5t146 -140.5l61 281h-362l14 78h365l40 186h109l-41 -186h111l-15 -78h-114l-244 -1102h-109l33 150q-62 -81 -149.5 -128t-188.5 -47q-173 0 -280 108.5t-107 297.5zM209 399q0 -151 81.5 -239t217.5 -88 q100 0 191 54.5t145 135.5l104 475q-39 78 -125.5 129.5t-201.5 51.5q-90 0 -168.5 -44.5t-131 -117t-82.5 -166t-30 -191.5z" />
<glyph unicode="&#x112;" horiz-adv-x="1155" d="M59 0l301 1366h867l-25 -106h-747l-113 -506h735l-24 -107h-734l-120 -541h747l-20 -106h-867zM541 1522l18 77h604l-18 -77h-604z" />
<glyph unicode="&#x113;" horiz-adv-x="1161" d="M94 412q0 122 43 233t116 192t175 129t215 48q193 0 305.5 -120.5t112.5 -307.5q0 -64 -14 -127h-836q-4 -20 -4 -56q0 -144 94 -239.5t268 -95.5q78 0 157.5 27t141.5 79l41 -78q-70 -54 -160.5 -87.5t-183.5 -33.5q-221 0 -346 120t-125 317zM221 545h737q3 15 3 45 q0 149 -87 240.5t-243 91.5q-147 0 -265 -111t-145 -266zM434 1180l19 77h604l-19 -77h-604z" />
<glyph unicode="&#x114;" horiz-adv-x="1155" d="M59 0l301 1366h867l-25 -106h-747l-113 -506h735l-24 -107h-734l-120 -541h747l-20 -106h-867zM510 1642l68 52q36 -73 104.5 -114.5t161.5 -41.5q92 0 179 42t155 114l51 -52q-81 -84 -185 -132t-213 -48q-108 0 -192 48t-129 132z" />
<glyph unicode="&#x115;" horiz-adv-x="1161" d="M94 412q0 122 43 233t116 192t175 129t215 48q193 0 305.5 -120.5t112.5 -307.5q0 -64 -14 -127h-836q-4 -20 -4 -56q0 -144 94 -239.5t268 -95.5q78 0 157.5 27t141.5 79l41 -78q-70 -54 -160.5 -87.5t-183.5 -33.5q-221 0 -346 120t-125 317zM221 545h737q3 15 3 45 q0 149 -87 240.5t-243 91.5q-147 0 -265 -111t-145 -266zM403 1300l66 52q38 -73 106.5 -114.5t161.5 -41.5q92 0 179 42t155 114l51 -52q-81 -84 -184.5 -132t-212.5 -48q-108 0 -192.5 48t-129.5 132z" />
<glyph unicode="&#x116;" horiz-adv-x="1155" d="M59 0l301 1366h867l-25 -106h-747l-113 -506h735l-24 -107h-734l-120 -541h747l-20 -106h-867zM770 1569q0 34 26 60t62 26q29 0 49.5 -20.5t20.5 -49.5q0 -35 -26.5 -60.5t-61.5 -25.5q-30 0 -50 20t-20 50z" />
<glyph unicode="&#x117;" horiz-adv-x="1161" d="M94 412q0 122 43 233t116 192t175 129t215 48q193 0 305.5 -120.5t112.5 -307.5q0 -64 -14 -127h-836q-4 -20 -4 -56q0 -144 94 -239.5t268 -95.5q78 0 157.5 27t141.5 79l41 -78q-70 -54 -160.5 -87.5t-183.5 -33.5q-221 0 -346 120t-125 317zM221 545h737q3 15 3 45 q0 149 -87 240.5t-243 91.5q-147 0 -265 -111t-145 -266zM664 1227q0 34 26 60t62 26q29 0 49 -20.5t20 -49.5q0 -35 -26.5 -60.5t-61.5 -25.5q-29 0 -49 19.5t-20 50.5z" />
<glyph unicode="&#x118;" horiz-adv-x="1155" d="M59 0l301 1366h867l-25 -106h-747l-113 -506h735l-24 -107h-734l-120 -541h747l-20 -106q-252 -114 -252 -233q0 -26 20 -46t60 -20q39 0 75 20l19 -69q-60 -33 -129 -33q-71 0 -114.5 32.5t-43.5 86.5q0 77 76 146.5t186 115.5h-764z" />
<glyph unicode="&#x119;" horiz-adv-x="1161" d="M94 412q0 122 43 233t116 192t175 129t215 48q193 0 306.5 -121t113.5 -307q0 -58 -16 -125h-836q-4 -24 -4 -58q0 -144 94 -239.5t268 -95.5q78 0 157.5 27t141.5 79l41 -78q-207 -134 -276 -198.5t-72 -124.5q-2 -30 18 -51t60 -21t76 20l18 -69q-60 -33 -129 -33 q-73 0 -117.5 34.5t-40.5 94.5q4 66 64.5 129t144.5 107q-65 -9 -90 -9q-219 0 -345 120t-126 317zM221 545h737q3 15 3 45q0 149 -87 240.5t-243 91.5q-147 0 -265 -111t-145 -266z" />
<glyph unicode="&#x11a;" horiz-adv-x="1155" d="M59 0l301 1366h867l-25 -106h-747l-113 -506h735l-24 -107h-734l-120 -541h747l-20 -106h-867zM635 1776h76l127 -232l223 232h86l-264 -295h-111z" />
<glyph unicode="&#x11b;" horiz-adv-x="1161" d="M94 412q0 122 43 233t116 192t175 129t215 48q193 0 305.5 -120.5t112.5 -307.5q0 -64 -14 -127h-836q-4 -20 -4 -56q0 -144 94 -239.5t268 -95.5q78 0 157.5 27t141.5 79l41 -78q-70 -54 -160.5 -87.5t-183.5 -33.5q-221 0 -346 120t-125 317zM221 545h737q3 15 3 45 q0 149 -87 240.5t-243 91.5q-147 0 -265 -111t-145 -266zM528 1434h76l127 -232l223 232h86l-264 -295h-110z" />
<glyph unicode="&#x11c;" horiz-adv-x="1456" d="M137 567q0 175 61.5 329t165.5 261.5t243.5 169.5t291.5 62q180 0 315.5 -75t212.5 -206l-104 -53q-61 111 -177 169t-259 58q-121 0 -234 -53.5t-199 -145.5t-138 -226t-52 -286q0 -224 134.5 -356.5t359.5 -132.5q220 0 397 162l72 327h-516l22 107h635l-108 -488 q-221 -215 -510 -215q-138 0 -253 44.5t-194 122.5t-122.5 187.5t-43.5 237.5zM752 1481l264 295h110l138 -295h-78l-127 231l-223 -231h-84z" />
<glyph unicode="&#x11d;" horiz-adv-x="1167" d="M6 -233l78 75q100 -151 348 -151q130 0 223 76t131 243l31 148q-62 -81 -152.5 -127.5t-197.5 -46.5q-165 0 -270 105t-105 306q0 119 36.5 230.5t101 198t163 138.5t213.5 52q104 0 204 -55t155 -138l39 168h108l-219 -979q-24 -111 -69 -191.5t-106 -128t-131 -69.5 t-153 -22q-148 0 -251.5 37.5t-176.5 130.5zM205 408q0 -153 81 -241.5t220 -88.5q91 0 182 51.5t152 126.5l108 479q-46 83 -139 133t-199 50q-120 0 -214.5 -76.5t-142.5 -191.5t-48 -242zM477 1139l264 295h111l137 -295h-78l-127 231l-223 -231h-84z" />
<glyph unicode="&#x11e;" horiz-adv-x="1456" d="M137 567q0 175 61.5 329t165.5 261.5t243.5 169.5t291.5 62q180 0 315.5 -75t212.5 -206l-104 -53q-61 111 -177 169t-259 58q-121 0 -234 -53.5t-199 -145.5t-138 -226t-52 -286q0 -224 134.5 -356.5t359.5 -132.5q220 0 397 162l72 327h-516l22 107h635l-108 -488 q-221 -215 -510 -215q-138 0 -253 44.5t-194 122.5t-122.5 187.5t-43.5 237.5zM684 1642l68 52q36 -73 104.5 -114.5t161.5 -41.5q92 0 179 42t155 114l51 -52q-81 -84 -184.5 -132t-212.5 -48q-108 0 -192.5 48t-129.5 132z" />
<glyph unicode="&#x11f;" horiz-adv-x="1167" d="M6 -233l78 75q100 -151 348 -151q130 0 223 76t131 243l31 148q-62 -81 -152.5 -127.5t-197.5 -46.5q-165 0 -270 105t-105 306q0 119 36.5 230.5t101 198t163 138.5t213.5 52q104 0 204 -55t155 -138l39 168h108l-219 -979q-24 -111 -69 -191.5t-106 -128t-131 -69.5 t-153 -22q-148 0 -251.5 37.5t-176.5 130.5zM205 408q0 -153 81 -241.5t220 -88.5q91 0 182 51.5t152 126.5l108 479q-46 83 -139 133t-199 50q-120 0 -214.5 -76.5t-142.5 -191.5t-48 -242zM410 1300l65 52q38 -73 106.5 -114.5t161.5 -41.5q92 0 179 42t155 114l51 -52 q-81 -84 -184.5 -132t-212.5 -48q-108 0 -192 48t-129 132z" />
<glyph unicode="&#x120;" horiz-adv-x="1456" d="M137 567q0 175 61.5 329t165.5 261.5t243.5 169.5t291.5 62q180 0 315.5 -75t212.5 -206l-104 -53q-61 111 -177 169t-259 58q-121 0 -234 -53.5t-199 -145.5t-138 -226t-52 -286q0 -224 134.5 -356.5t359.5 -132.5q220 0 397 162l72 327h-516l22 107h635l-108 -488 q-221 -215 -510 -215q-138 0 -253 44.5t-194 122.5t-122.5 187.5t-43.5 237.5zM946 1569q0 34 26 60t62 26q29 0 49.5 -20.5t20.5 -49.5q0 -35 -26.5 -60.5t-61.5 -25.5q-30 0 -50 20t-20 50z" />
<glyph unicode="&#x121;" horiz-adv-x="1167" d="M6 -233l78 75q100 -151 348 -151q130 0 223 76t131 243l31 148q-62 -81 -152.5 -127.5t-197.5 -46.5q-165 0 -270 105t-105 306q0 119 36.5 230.5t101 198t163 138.5t213.5 52q104 0 204 -55t155 -138l39 168h108l-219 -979q-24 -111 -69 -191.5t-106 -128t-131 -69.5 t-153 -22q-148 0 -251.5 37.5t-176.5 130.5zM205 408q0 -153 81 -241.5t220 -88.5q91 0 182 51.5t152 126.5l108 479q-46 83 -139 133t-199 50q-120 0 -214.5 -76.5t-142.5 -191.5t-48 -242zM672 1227q0 34 26 60t62 26q29 0 49 -20.5t20 -49.5q0 -35 -26.5 -60.5 t-61.5 -25.5q-29 0 -49 19.5t-20 50.5z" />
<glyph unicode="&#x122;" horiz-adv-x="1456" d="M137 567q0 175 61.5 329t165.5 261.5t243.5 169.5t291.5 62q180 0 315.5 -75t212.5 -206l-104 -53q-61 111 -177 169t-259 58q-121 0 -234 -53.5t-199 -145.5t-138 -226t-52 -286q0 -224 134.5 -356.5t359.5 -132.5q220 0 397 162l72 327h-516l22 107h635l-108 -488 q-221 -215 -510 -215q-138 0 -253 44.5t-194 122.5t-122.5 187.5t-43.5 237.5zM469 -481q56 30 98 75.5t54 90.5h-15q-25 0 -44 20t-19 47q0 36 26 62t62 26q35 0 57.5 -23.5t22.5 -66.5q0 -78 -59 -158t-138 -122z" />
<glyph unicode="&#x123;" horiz-adv-x="1167" d="M6 -233l78 75q100 -151 348 -151q130 0 223 76t131 243l31 148q-62 -81 -152.5 -127.5t-197.5 -46.5q-165 0 -270 105t-105 306q0 119 36.5 230.5t101 198t163 138.5t213.5 52q104 0 204 -55t155 -138l39 168h108l-219 -979q-24 -111 -69 -191.5t-106 -128t-131 -69.5 t-153 -22q-148 0 -251.5 37.5t-176.5 130.5zM205 408q0 -153 81 -241.5t220 -88.5q91 0 182 51.5t152 126.5l108 479q-46 83 -139 133t-199 50q-120 0 -214.5 -76.5t-142.5 -191.5t-48 -242zM649 1247q0 78 59 158.5t138 124.5l45 -51q-54 -28 -96 -74t-56 -92h15 q26 0 44.5 -20t18.5 -48q0 -37 -26.5 -63.5t-61.5 -26.5t-57.5 24.5t-22.5 67.5z" />
<glyph unicode="&#x124;" horiz-adv-x="1439" d="M59 0l301 1366h117l-133 -610h864l135 610h117l-301 -1366h-117l144 649h-867l-143 -649h-117zM686 1481l264 295h111l137 -295h-78l-127 231l-223 -231h-84z" />
<glyph unicode="&#x125;" horiz-adv-x="1105" d="M55 0l301 1366h107l-115 -526q76 75 168.5 124.5t188.5 49.5q131 0 209.5 -62t78.5 -180q0 -44 -12 -84l-152 -688h-106l147 672q13 58 13 71q0 88 -60 131.5t-161 43.5q-87 0 -176 -50.5t-160 -124.5l-164 -743h-107zM514 1481l264 295h111l137 -295h-78l-127 231 l-223 -231h-84z" />
<glyph unicode="&#x126;" horiz-adv-x="1482" d="M82 0l225 1026h-168l17 78h168l59 262h119l-60 -262h865l59 262h119l-60 -262h164l-16 -78h-164l-225 -1026h-119l143 649h-866l-141 -649h-119zM367 756h866l57 270h-864z" />
<glyph unicode="&#x127;" horiz-adv-x="1107" d="M57 0l244 1102h-147l16 78h147l41 186h107l-41 -186h332l-19 -78h-329l-58 -262q182 174 357 174q131 0 209.5 -62t78.5 -180q0 -44 -12 -84l-149 -688h-109l149 672q11 49 11 71q0 88 -60 131.5t-159 43.5q-87 0 -176 -50.5t-160 -124.5l-166 -743h-107z" />
<glyph unicode="&#x128;" horiz-adv-x="456" d="M59 0l301 1366h117l-301 -1366h-117zM133 1489q25 125 79.5 199.5t141.5 74.5q55 0 87.5 -31t58.5 -83q11 -23 18.5 -36.5t20 -29.5t28 -23.5t35.5 -7.5q94 0 141 199h76q-59 -274 -223 -274q-55 0 -87 30.5t-58 83.5q-14 30 -25 47.5t-31.5 32.5t-46.5 15 q-96 0 -141 -197h-74z" />
<glyph unicode="&#x129;" horiz-adv-x="438" d="M47 1147q25 125 79.5 199.5t141.5 74.5q55 0 87.5 -31t58.5 -83q11 -23 18.5 -36.5t20 -29.5t28 -23.5t35.5 -7.5q94 0 141 199h76q-59 -274 -223 -274q-55 0 -87 30.5t-58 83.5q-14 30 -25 47.5t-31.5 32t-46.5 14.5q-97 0 -141 -196h-74zM55 0l219 989h107l-219 -989 h-107z" />
<glyph unicode="&#x12a;" horiz-adv-x="456" d="M59 0l301 1366h117l-301 -1366h-117zM158 1522l18 77h604l-18 -77h-604z" />
<glyph unicode="&#x12b;" horiz-adv-x="438" d="M55 0l219 989h107l-219 -989h-107zM70 1180l18 77h604l-18 -77h-604z" />
<glyph unicode="&#x12c;" horiz-adv-x="456" d="M59 0l301 1366h117l-301 -1366h-117zM127 1642l66 52q38 -73 106.5 -114.5t161.5 -41.5q92 0 179 42t155 114l51 -52q-81 -84 -184.5 -132t-212.5 -48q-108 0 -192.5 48t-129.5 132z" />
<glyph unicode="&#x12d;" horiz-adv-x="438" d="M39 1300l65 52q38 -73 107 -114.5t162 -41.5q92 0 179 42t155 114l51 -52q-81 -84 -185 -132t-213 -48q-108 0 -192 48t-129 132zM55 0l219 989h107l-219 -989h-107z" />
<glyph unicode="&#x12e;" horiz-adv-x="456" d="M-188 -262q0 77 76.5 146.5t187.5 115.5h-17l301 1366h117l-301 -1366q-250 -113 -250 -233q0 -27 19.5 -46.5t60.5 -19.5q37 0 76 20l16 -69q-60 -33 -127 -33q-71 0 -115 32.5t-44 86.5z" />
<glyph unicode="&#x12f;" horiz-adv-x="438" d="M-203 -262q0 77 76.5 146.5t187.5 115.5h-6l219 989h107l-219 -989q-250 -113 -250 -233q0 -27 19.5 -46.5t60.5 -19.5q37 0 76 20l16 -69q-60 -33 -127 -33q-72 0 -116 32.5t-44 86.5zM297 1229q0 39 29.5 65.5t62.5 26.5q32 0 54 -22t22 -50q0 -40 -29 -66t-63 -26 q-32 0 -54 21t-22 51z" />
<glyph unicode="&#x130;" horiz-adv-x="456" d="M59 0l301 1366h117l-301 -1366h-117zM387 1569q0 34 25.5 60t60.5 26q31 0 51.5 -20.5t20.5 -49.5q0 -35 -27 -60.5t-61 -25.5q-30 0 -50 20t-20 50z" />
<glyph unicode="&#x131;" horiz-adv-x="438" d="M55 0l219 989h107l-219 -989h-107z" />
<glyph unicode="&#x132;" horiz-adv-x="1419" d="M59 0l301 1366h117l-301 -1366h-117zM418 156l78 82q84 -156 274 -156q134 0 220 84.5t118 228.5l213 971h119l-213 -971q-46 -210 -162.5 -315t-288.5 -105q-119 0 -213.5 46.5t-144.5 134.5z" />
<glyph unicode="&#x133;" horiz-adv-x="874" d="M55 0l219 989h107l-219 -989h-107zM162 -377l31 88q37 -18 88 -18q141 0 184 180l248 1116h106l-248 -1116q-31 -139 -99 -206.5t-185 -67.5q-73 0 -125 24zM297 1229q0 39 29.5 65.5t62.5 26.5q32 0 54 -22t22 -50q0 -40 -29 -66t-63 -26q-32 0 -54 21t-22 51zM735 1229 q0 39 29.5 65.5t62.5 26.5q32 0 54 -22t22 -50q0 -40 -29 -66t-63 -26q-32 0 -54 21t-22 51z" />
<glyph unicode="&#x134;" horiz-adv-x="962" d="M-39 156l78 82q84 -156 274 -156q134 0 220 84.5t118 228.5l213 971h119l-213 -971q-49 -210 -164 -315t-287 -105q-119 0 -213.5 46.5t-144.5 134.5zM696 1481l265 295h110l137 -295h-78l-126 231l-224 -231h-84z" />
<glyph unicode="&#x135;" horiz-adv-x="438" d="M-276 -377l30 88q38 -18 88 -18q142 0 185 180l247 1116h107l-248 -1116q-31 -139 -99.5 -206.5t-185.5 -67.5q-72 0 -124 24zM106 1139l263 295h110l139 -295h-77l-127 231l-224 -231h-84z" />
<glyph unicode="&#x136;" horiz-adv-x="1200" d="M59 0l301 1366h117l-162 -733l811 733h160l-725 -651l479 -715h-139l-426 649l-192 -172l-107 -477h-117zM307 -481q56 30 98 75.5t54 90.5h-15q-25 0 -44 20t-19 47q0 36 26 62t62 26q35 0 57.5 -23.5t22.5 -66.5q0 -78 -59 -158t-138 -122z" />
<glyph unicode="&#x137;" horiz-adv-x="1034" d="M55 0l301 1366h107l-207 -934l700 557h150l-561 -446l340 -543h-131l-297 477l-230 -180l-65 -297h-107zM205 -481q56 29 97.5 75t53.5 91h-14q-25 0 -44 20t-19 47q0 36 26 62t62 26q35 0 57 -23.5t22 -66.5q0 -79 -58.5 -158.5t-137.5 -121.5z" />
<glyph unicode="&#x138;" horiz-adv-x="1034" d="M55 0l219 989h107l-125 -557l700 557h150l-561 -446l340 -543h-131l-297 477l-230 -180l-65 -297h-107z" />
<glyph unicode="&#x139;" horiz-adv-x="1058" d="M59 0l301 1366h117l-278 -1260h661l-22 -106h-779zM395 1481l381 295h129l-418 -295h-92z" />
<glyph unicode="&#x13a;" horiz-adv-x="438" d="M55 0l301 1366h107l-301 -1366h-107zM389 1481l381 295h129l-418 -295h-92z" />
<glyph unicode="&#x13b;" horiz-adv-x="1058" d="M59 0l301 1366h117l-278 -1260h661l-22 -106h-779zM240 -481q56 29 97.5 75t53.5 91h-14q-25 0 -44.5 20t-19.5 47q0 36 26 62t62 26q35 0 57.5 -23.5t22.5 -66.5q0 -79 -58.5 -158.5t-137.5 -121.5z" />
<glyph unicode="&#x13c;" horiz-adv-x="438" d="M-102 -481q56 29 97.5 75t53.5 91h-14q-25 0 -44.5 20t-19.5 47q0 36 26 62t62 26q35 0 57.5 -23.5t22.5 -66.5q0 -79 -58.5 -158.5t-137.5 -121.5zM55 0l301 1366h107l-301 -1366h-107z" />
<glyph unicode="&#x13d;" horiz-adv-x="1058" d="M59 0l301 1366h117l-278 -1260h661l-22 -106h-779zM594 1069q54 29 96 75t55 91h-14q-26 0 -44.5 20t-18.5 48q0 36 26 62t62 26q35 0 57.5 -24t22.5 -67q0 -78 -59 -158t-138 -122z" />
<glyph unicode="&#x13e;" horiz-adv-x="540" d="M55 0l301 1366h107l-301 -1366h-107zM510 1069q56 30 98 75.5t54 90.5h-13q-26 0 -45.5 20t-19.5 48q0 36 27 62t63 26q35 0 56.5 -24t21.5 -67q0 -79 -58 -158.5t-137 -121.5z" />
<glyph unicode="&#x13f;" horiz-adv-x="1058" d="M59 0l301 1366h117l-278 -1260h661l-22 -106h-779zM686 692q0 41 29 68.5t69 27.5q35 0 58.5 -23t23.5 -58q0 -40 -29 -68.5t-69 -28.5q-35 0 -58.5 24t-23.5 58z" />
<glyph unicode="&#x140;" horiz-adv-x="559" d="M55 0l301 1366h107l-301 -1366h-107zM408 494q0 41 29 68.5t69 27.5q35 0 58.5 -23.5t23.5 -58.5q0 -40 -29 -68t-70 -28q-34 0 -57.5 24t-23.5 58z" />
<glyph unicode="&#x141;" horiz-adv-x="1130" d="M45 477l25 109l215 110l147 670h119l-133 -602l244 127l-25 -109l-244 -125l-123 -551h662l-23 -106h-778l129 588z" />
<glyph unicode="&#x142;" horiz-adv-x="567" d="M18 487l23 95l231 118l148 666h108l-133 -604l234 119l-21 -95l-233 -118l-148 -668h-108l133 606z" />
<glyph unicode="&#x143;" horiz-adv-x="1431" d="M59 0l301 1366h119l592 -1186l264 1186h117l-301 -1366h-115l-594 1202l-266 -1202h-117zM885 1481l381 295h131l-418 -295h-94z" />
<glyph unicode="&#x144;" horiz-adv-x="1105" d="M55 0l219 989h107l-33 -149q76 75 168.5 124.5t188.5 49.5q131 0 209.5 -62t78.5 -180q0 -38 -12 -84l-152 -688h-106l147 670q13 65 13 73q0 88 -59 131.5t-156 43.5q-91 0 -181 -49.5t-161 -123.5l-164 -745h-107zM647 1139l381 295h131l-418 -295h-94z" />
<glyph unicode="&#x145;" horiz-adv-x="1431" d="M59 0l301 1366h119l592 -1186l264 1186h117l-301 -1366h-115l-594 1202l-266 -1202h-117zM377 -481q56 29 97.5 75t53.5 91h-14q-25 0 -44 20t-19 47q0 36 26 62t62 26q35 0 57 -23.5t22 -66.5q0 -79 -58.5 -158.5t-137.5 -121.5z" />
<glyph unicode="&#x146;" horiz-adv-x="1105" d="M55 0l219 989h107l-33 -149q76 75 168.5 124.5t188.5 49.5q131 0 209.5 -62t78.5 -180q0 -38 -12 -84l-152 -688h-106l147 670q13 65 13 73q0 88 -59 131.5t-156 43.5q-91 0 -181 -49.5t-161 -123.5l-164 -745h-107zM231 -481q56 30 98 75.5t54 90.5h-14q-25 0 -44.5 20 t-19.5 47q0 36 26 62t62 26q35 0 57.5 -23.5t22.5 -66.5q0 -78 -59 -158t-138 -122z" />
<glyph unicode="&#x147;" horiz-adv-x="1431" d="M59 0l301 1366h119l592 -1186l264 1186h117l-301 -1366h-115l-594 1202l-266 -1202h-117zM739 1776h76l127 -232l223 232h86l-264 -295h-110z" />
<glyph unicode="&#x148;" horiz-adv-x="1105" d="M55 0l219 989h107l-33 -149q76 75 168.5 124.5t188.5 49.5q131 0 209.5 -62t78.5 -180q0 -38 -12 -84l-152 -688h-106l147 670q13 65 13 73q0 88 -59 131.5t-156 43.5q-91 0 -181 -49.5t-161 -123.5l-164 -745h-107zM502 1434h76l127 -232l223 232h86l-264 -295h-111z " />
<glyph unicode="&#x149;" horiz-adv-x="1105" d="M55 0l219 989h107l-33 -149q76 75 168.5 124.5t188.5 49.5q131 0 209.5 -62t78.5 -180q0 -38 -12 -84l-152 -688h-106l147 670q13 65 13 73q0 88 -59 131.5t-156 43.5q-91 0 -181 -49.5t-161 -123.5l-164 -745h-107zM268 1182q55 28 97.5 73.5t54.5 90.5h-14 q-25 0 -44.5 20t-19.5 49q0 36 26 62t62 26q35 0 57.5 -23.5t22.5 -66.5q0 -78 -59 -158t-138 -122z" />
<glyph unicode="&#x14a;" horiz-adv-x="1431" d="M59 0l301 1366h119l592 -1186l264 1186h117l-299 -1356q-101 -411 -448 -411q-123 0 -216 47t-143 133l78 76q36 -73 106.5 -114.5t167.5 -41.5q130 0 217.5 80t118.5 225l-592 1198l-266 -1202h-117z" />
<glyph unicode="&#x14b;" horiz-adv-x="1105" d="M55 0l219 989h107l-33 -149q76 75 168.5 124.5t188.5 49.5q128 0 208 -61t80 -181q0 -26 -12 -84l-180 -815q-30 -138 -99 -206t-186 -68q-70 0 -125 24l31 88q40 -18 88 -18q144 0 184 180l176 797q13 63 13 75q0 88 -60.5 130.5t-154.5 42.5q-90 0 -180 -49.5 t-162 -123.5l-164 -745h-107z" />
<glyph unicode="&#x14c;" horiz-adv-x="1564" d="M137 567q0 170 60 323t161.5 262t241 173t293.5 64q128 0 239.5 -39.5t195 -113t131.5 -187t48 -252.5q0 -170 -60 -323t-161.5 -262t-241.5 -173t-294 -64q-127 0 -238.5 39.5t-195 113t-131.5 187t-48 252.5zM264 571q0 -116 39 -210t107 -154.5t157 -92.5t191 -32 q123 0 236.5 53.5t198.5 146t136 226.5t51 285q0 116 -39 210t-107 154.5t-157.5 92.5t-191.5 32q-123 0 -236.5 -53.5t-198.5 -146t-135.5 -226t-50.5 -285.5zM709 1522l18 77h604l-18 -77h-604z" />
<glyph unicode="&#x14d;" d="M92 410q0 156 70 294.5t196 224t277 85.5q200 0 319 -118.5t119 -315.5q0 -157 -70 -295.5t-196.5 -224t-278.5 -85.5q-199 0 -317.5 119t-118.5 316zM209 414q0 -157 85 -249.5t236 -92.5q120 0 219 72.5t153 187.5t54 243q0 157 -85 250t-236 93q-120 0 -219 -72.5 t-153 -188t-54 -243.5zM436 1180l19 77h604l-19 -77h-604z" />
<glyph unicode="&#x14e;" horiz-adv-x="1564" d="M137 567q0 170 60 323t161.5 262t241 173t293.5 64q128 0 239.5 -39.5t195 -113t131.5 -187t48 -252.5q0 -170 -60 -323t-161.5 -262t-241.5 -173t-294 -64q-127 0 -238.5 39.5t-195 113t-131.5 187t-48 252.5zM264 571q0 -116 39 -210t107 -154.5t157 -92.5t191 -32 q123 0 236.5 53.5t198.5 146t136 226.5t51 285q0 116 -39 210t-107 154.5t-157.5 92.5t-191.5 32q-123 0 -236.5 -53.5t-198.5 -146t-135.5 -226t-50.5 -285.5zM678 1642l67 52q36 -73 105 -114.5t162 -41.5q92 0 179 42t155 114l51 -52q-81 -84 -185 -132t-213 -48 q-108 0 -192 48t-129 132z" />
<glyph unicode="&#x14f;" d="M92 410q0 156 70 294.5t196 224t277 85.5q200 0 319 -118.5t119 -315.5q0 -157 -70 -295.5t-196.5 -224t-278.5 -85.5q-199 0 -317.5 119t-118.5 316zM209 414q0 -157 85 -249.5t236 -92.5q120 0 219 72.5t153 187.5t54 243q0 157 -85 250t-236 93q-120 0 -219 -72.5 t-153 -188t-54 -243.5zM406 1300l65 52q38 -73 106.5 -114.5t161.5 -41.5q92 0 179 42t155 114l51 -52q-81 -84 -184.5 -132t-212.5 -48q-108 0 -192 48t-129 132z" />
<glyph unicode="&#x150;" horiz-adv-x="1564" d="M137 567q0 170 60 323t161.5 262t241 173t293.5 64q128 0 239.5 -39.5t195 -113t131.5 -187t48 -252.5q0 -170 -60 -323t-161.5 -262t-241.5 -173t-294 -64q-127 0 -238.5 39.5t-195 113t-131.5 187t-48 252.5zM264 571q0 -116 39 -210t107 -154.5t157 -92.5t191 -32 q123 0 236.5 53.5t198.5 146t136 226.5t51 285q0 116 -39 210t-107 154.5t-157.5 92.5t-191.5 32q-123 0 -236.5 -53.5t-198.5 -146t-135.5 -226t-50.5 -285.5zM811 1481l264 295h117l-301 -295h-80zM1096 1481l264 295h117l-301 -295h-80z" />
<glyph unicode="&#x151;" d="M92 410q0 156 70 294.5t196 224t277 85.5q200 0 319 -118.5t119 -315.5q0 -157 -70 -295.5t-196.5 -224t-278.5 -85.5q-199 0 -317.5 119t-118.5 316zM209 414q0 -157 85 -249.5t236 -92.5q120 0 219 72.5t153 187.5t54 243q0 157 -85 250t-236 93q-120 0 -219 -72.5 t-153 -188t-54 -243.5zM537 1139l264 295h117l-302 -295h-79zM821 1139l264 295h117l-301 -295h-80z" />
<glyph unicode="&#x152;" horiz-adv-x="2283" d="M137 567q0 177 62 331t167 260t245.5 167t293.5 61q116 0 211.5 -32t176.5 -113t120 -207l72 332h866l-22 -106h-748l-113 -506h734l-25 -107h-733l-119 -541h748l-23 -106h-866l51 233q-89 -122 -221 -190t-301 -68q-257 0 -416.5 165.5t-159.5 426.5zM264 571 q0 -224 132.5 -356.5t348.5 -132.5q157 0 299.5 83.5t227.5 229.5l104 475q-28 195 -155 302.5t-322 107.5q-128 0 -244.5 -54t-202.5 -147t-137 -225.5t-51 -282.5z" />
<glyph unicode="&#x153;" horiz-adv-x="1996" d="M92 410q0 155 68.5 293.5t193.5 224.5t277 86q93 0 170.5 -32.5t123.5 -82t72 -100t31 -94.5q22 40 47.5 76t68 81t90 76.5t113.5 53.5t138 22q185 0 300.5 -116t115.5 -312q0 -55 -17 -125h-827q-4 -20 -4 -58q0 -144 93.5 -239.5t264.5 -95.5q79 0 157.5 28t137.5 78 l41 -78q-68 -55 -157.5 -88t-182.5 -33q-96 0 -178 30.5t-134 78.5t-83 100t-37 101q-26 -46 -47 -78t-63.5 -79.5t-87 -77.5t-111.5 -52.5t-142 -22.5q-193 0 -312.5 117t-119.5 318zM209 414q0 -156 83.5 -249t233.5 -93q117 0 214.5 69.5t152.5 185t55 248.5 q0 88 -26 155.5t-71 107.5t-101 60t-119 20q-116 0 -214 -70.5t-153 -186t-55 -247.5zM1067 545h729q4 24 4 45q0 145 -85.5 238.5t-239.5 93.5q-79 0 -153 -35.5t-126 -91t-86 -121.5t-43 -129z" />
<glyph unicode="&#x154;" horiz-adv-x="1216" d="M59 0l301 1366h469q70 0 136 -23.5t118.5 -66t84.5 -109t32 -145.5q0 -192 -128.5 -319t-338.5 -134l268 -569h-133l-258 565h-309l-125 -565h-117zM324 672h383q171 0 268.5 99.5t97.5 244.5q0 104 -78 174t-180 70h-360zM782 1481l381 295h131l-417 -295h-95z" />
<glyph unicode="&#x155;" horiz-adv-x="649" d="M55 0l219 989h107l-37 -160q81 95 165 138t210 43l-25 -115q-24 4 -71 4q-86 0 -168 -52.5t-133 -127.5l-160 -719h-107zM479 1139l381 295h129l-416 -295h-94z" />
<glyph unicode="&#x156;" horiz-adv-x="1216" d="M59 0l301 1366h469q70 0 136 -23.5t118.5 -66t84.5 -109t32 -145.5q0 -192 -128.5 -319t-338.5 -134l268 -569h-133l-258 565h-309l-125 -565h-117zM293 -481q56 29 97.5 75t53.5 91h-14q-25 0 -44 20t-19 47q0 36 26 62t62 26q35 0 57.5 -23.5t22.5 -66.5 q0 -78 -59 -158t-138 -122zM324 672h383q171 0 268.5 99.5t97.5 244.5q0 104 -78 174t-180 70h-360z" />
<glyph unicode="&#x157;" horiz-adv-x="649" d="M-100 -481q56 29 97.5 75t53.5 91h-14q-25 0 -44.5 20t-19.5 47q0 36 26 62t62 26q35 0 57.5 -23.5t22.5 -66.5q0 -79 -58.5 -158.5t-137.5 -121.5zM55 0l219 989h107l-37 -160q81 95 165 138t210 43l-25 -115q-24 4 -71 4q-86 0 -168 -52.5t-133 -127.5l-160 -719h-107z " />
<glyph unicode="&#x158;" horiz-adv-x="1216" d="M59 0l301 1366h469q70 0 136 -23.5t118.5 -66t84.5 -109t32 -145.5q0 -192 -128.5 -319t-338.5 -134l268 -569h-133l-258 565h-309l-125 -565h-117zM324 672h383q171 0 268.5 99.5t97.5 244.5q0 104 -78 174t-180 70h-360zM637 1776h76l127 -232l223 232h86l-264 -295 h-111z" />
<glyph unicode="&#x159;" horiz-adv-x="649" d="M55 0l219 989h107l-37 -160q81 95 165 138t210 43l-25 -115q-24 4 -71 4q-86 0 -168 -52.5t-133 -127.5l-160 -719h-107zM334 1434h76l127 -232l223 232h86l-264 -295h-111z" />
<glyph unicode="&#x15a;" horiz-adv-x="1189" d="M47 215l88 84q72 -103 187.5 -160t259.5 -57q71 0 129.5 18t97.5 47.5t66 68.5t39 80t12 83q0 40 -19 76t-38.5 58.5t-71 51.5t-76 40.5t-92.5 40.5q-7 3 -11 5q-44 18 -69 28.5t-65.5 29.5t-64.5 34.5t-55.5 37.5t-50 45t-36 51t-25.5 61t-8 70q0 157 134 269t327 112 q155 0 281 -58.5t190 -156.5l-89 -80q-62 92 -167.5 140t-225.5 48q-134 0 -228.5 -79.5t-94.5 -182.5q0 -37 17 -69.5t41 -55.5t68 -48t79 -40.5t92 -38.5q41 -17 62.5 -26.5t60 -28t60 -31t54 -33.5t50.5 -39t40 -43.5t33 -51t19 -57.5t8 -67q0 -78 -32 -151t-90.5 -133 t-153 -96t-208.5 -36q-172 0 -314.5 68t-209.5 172zM750 1481l380 295h132l-418 -295h-94z" />
<glyph unicode="&#x15b;" horiz-adv-x="940" d="M16 150l74 69q41 -64 129.5 -108.5t196.5 -44.5q118 0 190 60.5t72 143.5q0 28 -14 53.5t-33 43t-55 37t-62.5 31t-73.5 30.5q-56 23 -85 36t-75 39t-69.5 50t-42 60.5t-18.5 78.5q0 119 97.5 202t262.5 83q121 0 218.5 -47t141.5 -115l-67 -68q-33 58 -119 99t-182 41 q-110 0 -177 -51t-67 -128q0 -32 17 -58.5t54 -49.5t68.5 -37.5t87.5 -36.5q43 -17 62.5 -25t58.5 -26.5t58.5 -31.5t47 -35.5t41 -44t23.5 -51t10 -62.5q0 -126 -100.5 -219t-271.5 -93q-273 0 -398 175zM549 1139l381 295h131l-418 -295h-94z" />
<glyph unicode="&#x15c;" horiz-adv-x="1189" d="M47 215l88 84q72 -103 187.5 -160t259.5 -57q71 0 129.5 18t97.5 47.5t66 68.5t39 80t12 83q0 40 -19 76t-38.5 58.5t-71 51.5t-76 40.5t-92.5 40.5q-7 3 -11 5q-44 18 -69 28.5t-65.5 29.5t-64.5 34.5t-55.5 37.5t-50 45t-36 51t-25.5 61t-8 70q0 157 134 269t327 112 q155 0 281 -58.5t190 -156.5l-89 -80q-62 92 -167.5 140t-225.5 48q-134 0 -228.5 -79.5t-94.5 -182.5q0 -37 17 -69.5t41 -55.5t68 -48t79 -40.5t92 -38.5q41 -17 62.5 -26.5t60 -28t60 -31t54 -33.5t50.5 -39t40 -43.5t33 -51t19 -57.5t8 -67q0 -78 -32 -151t-90.5 -133 t-153 -96t-208.5 -36q-172 0 -314.5 68t-209.5 172zM545 1481l264 295h111l137 -295h-78l-127 231l-223 -231h-84z" />
<glyph unicode="&#x15d;" horiz-adv-x="940" d="M16 150l74 69q41 -64 129.5 -108.5t196.5 -44.5q118 0 190 60.5t72 143.5q0 28 -14 53.5t-33 43t-55 37t-62.5 31t-73.5 30.5q-56 23 -85 36t-75 39t-69.5 50t-42 60.5t-18.5 78.5q0 119 97.5 202t262.5 83q121 0 218.5 -47t141.5 -115l-67 -68q-33 58 -119 99t-182 41 q-110 0 -177 -51t-67 -128q0 -32 17 -58.5t54 -49.5t68.5 -37.5t87.5 -36.5q43 -17 62.5 -25t58.5 -26.5t58.5 -31.5t47 -35.5t41 -44t23.5 -51t10 -62.5q0 -126 -100.5 -219t-271.5 -93q-273 0 -398 175zM344 1139l264 295h111l137 -295h-78l-127 231l-223 -231h-84z" />
<glyph unicode="&#x15e;" horiz-adv-x="1189" d="M47 215l88 84q72 -103 187.5 -160t259.5 -57q71 0 129.5 18t97.5 47.5t66 68.5t39 80t12 83q0 40 -19 76t-38.5 58.5t-71 51.5t-76 40.5t-92.5 40.5q-7 3 -11 5q-44 18 -69 28.5t-65.5 29.5t-64.5 34.5t-55.5 37.5t-50 45t-36 51t-25.5 61t-8 70q0 157 134 269t327 112 q155 0 281 -58.5t190 -156.5l-89 -80q-62 92 -167.5 140t-225.5 48q-134 0 -228.5 -79.5t-94.5 -182.5q0 -37 17 -69.5t41 -55.5t68 -48t79 -40.5t92 -38.5q41 -17 62.5 -26.5t60 -28t60 -31t54 -33.5t50.5 -39t40 -43.5t33 -51t19 -57.5t8 -67q0 -78 -32 -151t-90.5 -133 t-153 -96t-208.5 -36q-44 0 -67 2l-58 -92q33 23 70 23q53 0 86 -31t33 -86q0 -79 -59.5 -128.5t-155.5 -49.5q-133 0 -213 76l47 63q65 -71 170 -71q66 0 100.5 29.5t34.5 74.5q0 31 -22 49.5t-60 18.5q-48 0 -76 -35l-49 32l80 138q-129 23 -231.5 83.5t-153.5 143.5z" />
<glyph unicode="&#x15f;" horiz-adv-x="940" d="M16 150l74 69q41 -64 129.5 -108.5t196.5 -44.5q118 0 190 60.5t72 143.5q0 28 -14 53.5t-33 43t-55 37t-62.5 31t-73.5 30.5q-56 23 -85 36t-75 39t-69.5 50t-42 60.5t-18.5 78.5q0 119 97.5 202t262.5 83q121 0 218.5 -47t141.5 -115l-67 -68q-33 58 -119 99t-182 41 q-110 0 -177 -51t-67 -128q0 -32 17 -58.5t54 -49.5t68.5 -37.5t87.5 -36.5q43 -17 62.5 -25t58.5 -26.5t58.5 -31.5t47 -35.5t41 -44t23.5 -51t10 -62.5q0 -126 -100.5 -219t-271.5 -93h-39l-56 -90q33 23 70 23q53 0 86 -31t33 -86q0 -79 -59.5 -128.5t-155.5 -49.5 q-133 0 -213 76l47 63q65 -71 170 -71q66 0 100.5 29.5t34.5 74.5q0 31 -22 49.5t-60 18.5q-48 0 -76 -35l-49 32l78 134q-192 31 -287 166z" />
<glyph unicode="&#x160;" horiz-adv-x="1189" d="M47 215l88 84q72 -103 187.5 -160t259.5 -57q71 0 129.5 18t97.5 47.5t66 68.5t39 80t12 83q0 40 -19 76t-38.5 58.5t-71 51.5t-76 40.5t-92.5 40.5q-7 3 -11 5q-44 18 -69 28.5t-65.5 29.5t-64.5 34.5t-55.5 37.5t-50 45t-36 51t-25.5 61t-8 70q0 157 134 269t327 112 q155 0 281 -58.5t190 -156.5l-89 -80q-62 92 -167.5 140t-225.5 48q-134 0 -228.5 -79.5t-94.5 -182.5q0 -37 17 -69.5t41 -55.5t68 -48t79 -40.5t92 -38.5q41 -17 62.5 -26.5t60 -28t60 -31t54 -33.5t50.5 -39t40 -43.5t33 -51t19 -57.5t8 -67q0 -78 -32 -151t-90.5 -133 t-153 -96t-208.5 -36q-172 0 -314.5 68t-209.5 172zM604 1776h76l127 -232l223 232h86l-264 -295h-111z" />
<glyph unicode="&#x161;" horiz-adv-x="940" d="M16 150l74 69q41 -64 129.5 -108.5t196.5 -44.5q118 0 190 60.5t72 143.5q0 28 -14 53.5t-33 43t-55 37t-62.5 31t-73.5 30.5q-56 23 -85 36t-75 39t-69.5 50t-42 60.5t-18.5 78.5q0 119 97.5 202t262.5 83q121 0 218.5 -47t141.5 -115l-67 -68q-33 58 -119 99t-182 41 q-110 0 -177 -51t-67 -128q0 -32 17 -58.5t54 -49.5t68.5 -37.5t87.5 -36.5q43 -17 62.5 -25t58.5 -26.5t58.5 -31.5t47 -35.5t41 -44t23.5 -51t10 -62.5q0 -126 -100.5 -219t-271.5 -93q-273 0 -398 175zM403 1434h76l127 -232l223 232h86l-264 -295h-110z" />
<glyph unicode="&#x162;" horiz-adv-x="1155" d="M240 1260l22 106h1012l-23 -106h-448l-277 -1260h-118l278 1260h-446zM258 -481q56 30 98 75.5t54 90.5h-15q-25 0 -44 20t-19 47q0 36 26 62t62 26q35 0 57.5 -23.5t22.5 -66.5q0 -78 -59 -158t-138 -122z" />
<glyph unicode="&#x163;" horiz-adv-x="563" d="M-6 -481q56 29 97.5 75t53.5 91h-14q-25 0 -44 20t-19 47q0 36 26 62t62 26q35 0 57.5 -23.5t22.5 -66.5q0 -78 -59 -158t-138 -122zM111 139q0 26 6 56l157 700h-163l20 94h164l59 271h109l-60 -271h201l-22 -94h-201l-152 -686q-4 -20 -4 -43q0 -94 101 -94 q53 0 104 37l21 -86q-61 -48 -142 -48q-95 0 -146.5 40.5t-51.5 123.5z" />
<glyph unicode="&#x164;" horiz-adv-x="1155" d="M240 1260l22 106h1012l-23 -106h-448l-277 -1260h-118l278 1260h-446zM602 1776h76l127 -232l223 232h86l-264 -295h-111z" />
<glyph unicode="&#x165;" horiz-adv-x="583" d="M111 139q0 26 6 56l157 700h-163l20 94h164l59 271h109l-60 -271h201l-22 -94h-201l-152 -686q-4 -20 -4 -43q0 -94 101 -94q53 0 104 37l21 -86q-61 -48 -142 -48q-95 0 -146.5 40.5t-51.5 123.5zM551 1182q53 27 95 73t56 91h-14q-26 0 -44.5 20t-18.5 49q0 36 26 62 t62 26q35 0 57.5 -23.5t22.5 -66.5q0 -78 -59 -158t-138 -122z" />
<glyph unicode="&#x166;" horiz-adv-x="1155" d="M223 631l19 76h321l123 553h-446l22 106h1012l-23 -106h-448l-121 -553h322l-17 -76h-321l-140 -631h-118l139 631h-324z" />
<glyph unicode="&#x167;" horiz-adv-x="563" d="M18 479l17 78h164l75 338h-163l20 94h164l59 271h109l-60 -271h201l-22 -94h-201l-74 -338h144l-17 -78h-145l-60 -270q-4 -20 -4 -43q0 -94 101 -94q53 0 104 37l21 -86q-61 -48 -142 -48q-95 0 -146.5 40.5t-51.5 123.5q0 26 6 56l63 284h-162z" />
<glyph unicode="&#x168;" horiz-adv-x="1404" d="M166 420q0 64 12 117l182 829h119l-182 -827q-14 -68 -14 -107q0 -159 102.5 -254.5t282.5 -95.5q195 0 300.5 111.5t153.5 332.5l185 840h118l-184 -842q-30 -132 -73 -228.5t-110.5 -171t-165.5 -112t-228 -37.5q-230 0 -364 120.5t-134 324.5zM604 1489 q25 125 79.5 199.5t141.5 74.5q55 0 87.5 -31t58.5 -83q11 -23 18.5 -36.5t20 -29.5t28 -23.5t35.5 -7.5q94 0 141 199h76q-59 -274 -223 -274q-55 0 -87 30.5t-58 83.5q-14 30 -25 47.5t-31.5 32.5t-46.5 15q-94 0 -141 -197h-74z" />
<glyph unicode="&#x169;" horiz-adv-x="1105" d="M111 217q0 38 12 84l151 688h107l-150 -670q-10 -50 -10 -73q0 -88 59.5 -131t159.5 -43q88 0 177.5 50t158.5 124l166 743h107l-220 -989h-106l33 150q-183 -175 -357 -175q-131 0 -209.5 62t-78.5 180zM383 1147q25 125 79.5 199.5t141.5 74.5q55 0 87.5 -31t58.5 -83 q11 -23 18.5 -36.5t20 -29.5t28 -23.5t35.5 -7.5q94 0 141 199h76q-59 -274 -223 -274q-55 0 -87.5 31t-58.5 83q-14 30 -24.5 47t-31 32t-46.5 15q-97 0 -141 -196h-74z" />
<glyph unicode="&#x16a;" horiz-adv-x="1404" d="M166 420q0 64 12 117l182 829h119l-182 -827q-14 -68 -14 -107q0 -159 102.5 -254.5t282.5 -95.5q195 0 300.5 111.5t153.5 332.5l185 840h118l-184 -842q-30 -132 -73 -228.5t-110.5 -171t-165.5 -112t-228 -37.5q-230 0 -364 120.5t-134 324.5zM629 1522l18 77h604 l-18 -77h-604z" />
<glyph unicode="&#x16b;" horiz-adv-x="1105" d="M111 217q0 38 12 84l151 688h107l-150 -670q-10 -50 -10 -73q0 -88 59.5 -131t159.5 -43q88 0 177.5 50t158.5 124l166 743h107l-220 -989h-106l33 150q-183 -175 -357 -175q-131 0 -209.5 62t-78.5 180zM406 1180l18 77h604l-18 -77h-604z" />
<glyph unicode="&#x16c;" horiz-adv-x="1404" d="M166 420q0 64 12 117l182 829h119l-182 -827q-14 -68 -14 -107q0 -159 102.5 -254.5t282.5 -95.5q195 0 300.5 111.5t153.5 332.5l185 840h118l-184 -842q-30 -132 -73 -228.5t-110.5 -171t-165.5 -112t-228 -37.5q-230 0 -364 120.5t-134 324.5zM598 1642l68 52 q36 -73 104.5 -114.5t161.5 -41.5q92 0 179 42t155 114l51 -52q-81 -84 -184.5 -132t-212.5 -48q-108 0 -192.5 48t-129.5 132z" />
<glyph unicode="&#x16d;" horiz-adv-x="1105" d="M111 217q0 38 12 84l151 688h107l-150 -670q-10 -50 -10 -73q0 -88 59.5 -131t159.5 -43q88 0 177.5 50t158.5 124l166 743h107l-220 -989h-106l33 150q-183 -175 -357 -175q-131 0 -209.5 62t-78.5 180zM375 1300l65 52q38 -73 107 -114.5t162 -41.5q92 0 178.5 42 t154.5 114l52 -52q-81 -84 -185 -132t-213 -48q-108 0 -192 48t-129 132z" />
<glyph unicode="&#x16e;" horiz-adv-x="1404" d="M166 420q0 64 12 117l182 829h119l-182 -827q-14 -68 -14 -107q0 -159 102.5 -254.5t282.5 -95.5q195 0 300.5 111.5t153.5 332.5l185 840h118l-184 -842q-30 -132 -73 -228.5t-110.5 -171t-165.5 -112t-228 -37.5q-230 0 -364 120.5t-134 324.5zM762 1642q0 86 64.5 151 t150.5 65q78 0 128 -50.5t50 -128.5q0 -88 -63.5 -151.5t-151.5 -63.5q-78 0 -128 50t-50 128zM829 1647q0 -51 31 -84t82 -33q60 0 104 41.5t44 101.5q0 53 -31.5 85t-83.5 32q-59 0 -102.5 -42t-43.5 -101z" />
<glyph unicode="&#x16f;" horiz-adv-x="1105" d="M111 217q0 38 12 84l151 688h107l-150 -670q-10 -50 -10 -73q0 -88 59.5 -131t159.5 -43q88 0 177.5 50t158.5 124l166 743h107l-220 -989h-106l33 150q-183 -175 -357 -175q-131 0 -209.5 62t-78.5 180zM539 1300q0 86 64.5 151t150.5 65q78 0 128 -50.5t50 -128.5 q0 -88 -63.5 -151.5t-151.5 -63.5q-78 0 -128 50t-50 128zM606 1305q0 -51 31 -84t82 -33q60 0 103.5 41.5t43.5 101.5q0 53 -31 85t-83 32q-59 0 -102.5 -42t-43.5 -101z" />
<glyph unicode="&#x170;" horiz-adv-x="1404" d="M166 420q0 64 12 117l182 829h119l-182 -827q-14 -68 -14 -107q0 -159 102.5 -254.5t282.5 -95.5q195 0 300.5 111.5t153.5 332.5l185 840h118l-184 -842q-30 -132 -73 -228.5t-110.5 -171t-165.5 -112t-228 -37.5q-230 0 -364 120.5t-134 324.5zM729 1481l264 295h117 l-301 -295h-80zM1014 1481l264 295h117l-301 -295h-80z" />
<glyph unicode="&#x171;" horiz-adv-x="1105" d="M111 217q0 38 12 84l151 688h107l-150 -670q-10 -50 -10 -73q0 -88 59.5 -131t159.5 -43q88 0 177.5 50t158.5 124l166 743h107l-220 -989h-106l33 150q-183 -175 -357 -175q-131 0 -209.5 62t-78.5 180zM508 1139l264 295h117l-301 -295h-80zM793 1139l264 295h117 l-302 -295h-79z" />
<glyph unicode="&#x172;" horiz-adv-x="1404" d="M164 420q0 32 10 104l186 842h119l-184 -840q-12 -48 -12 -94q0 -157 103 -253.5t284 -96.5q99 0 175.5 30t129.5 89.5t88 138t59 186.5l185 840h118l-184 -842q-45 -205 -129.5 -335t-224.5 -179q-124 -44 -201 -107.5t-80 -131.5q-2 -29 18 -49.5t60 -20.5t76 20 l18 -69q-60 -33 -127 -33q-73 0 -118 35t-41 92q4 67 63.5 126.5t146.5 104.5q-14 -2 -45 -2q-228 3 -360.5 123t-132.5 322z" />
<glyph unicode="&#x173;" horiz-adv-x="1105" d="M111 217q0 38 12 84l151 688h107l-150 -670q-10 -50 -10 -73q0 -88 59.5 -131t159.5 -43q88 0 177.5 50t158.5 124l166 743h107l-220 -989q-249 -112 -249 -233q0 -27 19 -46.5t60 -19.5q38 0 74 20l19 -69q-60 -33 -127 -33q-72 0 -116 32.5t-44 86.5q0 77 76.5 146.5 t187.5 115.5h-6l33 150q-183 -175 -357 -175q-131 0 -209.5 62t-78.5 180z" />
<glyph unicode="&#x174;" horiz-adv-x="1775" d="M229 1366h127l64 -1204l602 1204h106l70 -1204l594 1204h135l-690 -1366h-131l-70 1171l-585 -1171h-132zM850 1481l264 295h111l137 -295h-78l-127 231l-223 -231h-84z" />
<glyph unicode="&#x175;" horiz-adv-x="1472" d="M143 989h109l76 -842l467 842h90l92 -842l450 842h119l-540 -989h-103l-90 846l-465 -846h-102zM618 1139l265 295h110l137 -295h-77l-127 231l-224 -231h-84z" />
<glyph unicode="&#x176;" horiz-adv-x="1265" d="M221 1366h131l314 -672l608 672h151l-714 -782l-129 -584h-119l129 584zM598 1481l264 295h111l137 -295h-78l-127 231l-223 -231h-84z" />
<glyph unicode="&#x177;" horiz-adv-x="985" d="M-94 -381l41 102q36 -18 96 -18q42 0 77.5 24.5t78.5 88.5l116 178l-192 995h115l165 -864l551 864h123l-778 -1206q-59 -94 -125.5 -139t-150.5 -45q-62 0 -117 20zM383 1139l262 295h111l139 -295h-78l-127 231l-223 -231h-84z" />
<glyph unicode="&#x178;" horiz-adv-x="1265" d="M221 1366h131l314 -672l608 672h151l-714 -782l-129 -584h-119l129 584zM592 1573q0 35 26 59.5t60 24.5q29 0 48 -19.5t19 -48.5q0 -34 -24.5 -59t-58.5 -25q-29 0 -49.5 20t-20.5 48zM1010 1573q0 35 26 59.5t60 24.5q29 0 48 -19.5t19 -48.5q0 -34 -25 -59t-59 -25 q-29 0 -49 20t-20 48z" />
<glyph unicode="&#x179;" horiz-adv-x="1189" d="M-8 0l22 100l1067 1160h-811l23 106h971l-23 -102l-1071 -1158h829l-22 -106h-985zM764 1481l381 295h131l-418 -295h-94z" />
<glyph unicode="&#x17a;" horiz-adv-x="960" d="M4 0l16 88l760 805h-577l20 96h723l-18 -86l-764 -809h590l-19 -94h-731zM575 1139l381 295h129l-417 -295h-93z" />
<glyph unicode="&#x17b;" horiz-adv-x="1189" d="M-8 0l22 100l1067 1160h-811l23 106h971l-23 -102l-1071 -1158h829l-22 -106h-985zM754 1569q0 34 26 60t62 26q29 0 49 -20.5t20 -49.5q0 -35 -26.5 -60.5t-61.5 -25.5q-29 0 -49 19.5t-20 50.5z" />
<glyph unicode="&#x17c;" horiz-adv-x="960" d="M4 0l16 88l760 805h-577l20 96h723l-18 -86l-764 -809h590l-19 -94h-731zM565 1227q0 34 26 60t62 26q29 0 49.5 -20.5t20.5 -49.5q0 -35 -26.5 -60.5t-61.5 -25.5q-30 0 -50 20t-20 50z" />
<glyph unicode="&#x17d;" horiz-adv-x="1189" d="M-8 0l22 100l1067 1160h-811l23 106h971l-23 -102l-1071 -1158h829l-22 -106h-985zM618 1776h76l127 -232l223 232h86l-264 -295h-110z" />
<glyph unicode="&#x17e;" horiz-adv-x="960" d="M4 0l16 88l760 805h-577l20 96h723l-18 -86l-764 -809h590l-19 -94h-731zM430 1434h76l127 -232l223 232h86l-264 -295h-111z" />
<glyph unicode="&#x17f;" horiz-adv-x="542" d="M90 0l199 893h-164l20 96h164l19 90q68 307 307 307q92 0 156 -43l-46 -77q-38 28 -108 28q-82 0 -129.5 -54t-71.5 -161l-239 -1079h-107z" />
<glyph unicode="&#x18f;" horiz-adv-x="1531" d="M134.5 418q-31.5 135 0.5 295h1208q5 67 5 80q0 221 -134.5 355t-361.5 134q-204 0 -385 -156l-84 70q101 97 225 145t252 48q270 0 441.5 -163.5t171.5 -428.5q0 -145 -41.5 -276t-114.5 -229t-168.5 -170.5t-206 -109.5t-225.5 -37q-152 0 -275.5 55.5t-199.5 154 t-107.5 233.5zM242 606q-14 -140 41 -259.5t172 -192t270 -72.5q203 0 375.5 143.5t226.5 380.5h-1085z" />
<glyph unicode="&#x192;" horiz-adv-x="864" d="M125 -330l192 862h-174l23 101h172l100 452q70 301 305 301q126 0 203 -77l-59 -82q-45 53 -125 53t-132.5 -55t-74.5 -154l-98 -438h309l-23 -101h-307l-190 -862h-121z" />
<glyph unicode="&#x19d;" horiz-adv-x="1431" d="M-430 -377l33 105q61 -23 123 -23q134 0 219.5 84.5t117.5 228.5l297 1348h119l592 -1186l264 1186h117l-301 -1366h-115l-594 1202l-262 -1184q-46 -211 -161 -315t-289 -104q-84 0 -160 24z" />
<glyph unicode="&#x1a0;" horiz-adv-x="1564" d="M137 567q0 170 60 323t161.5 262t241 173t293.5 64q155 0 284 -57t212 -163q50 27 87.5 70.5t49.5 87.5h-15q-25 0 -42 19t-17 47q0 35 25 59.5t59 24.5t55 -22.5t21 -63.5q0 -77 -56 -155t-131 -118q82 -141 82 -321q0 -170 -60 -323t-161.5 -262t-241.5 -173t-294 -64 q-127 0 -238.5 39.5t-195 113t-131.5 187t-48 252.5zM264 571q0 -116 39 -210t107 -154.5t157 -92.5t191 -32q123 0 236.5 53.5t198.5 146t136 226.5t51 285q0 116 -39 210t-107 154.5t-157.5 92.5t-191.5 32q-123 0 -236.5 -53.5t-198.5 -146t-135.5 -226t-50.5 -285.5z " />
<glyph unicode="&#x1a1;" d="M92 410q0 156 70 294.5t196 224t277 85.5q194 0 311 -111q45 30 79 70.5t44 79.5h-14q-25 0 -43.5 19t-18.5 46q0 35 26 59.5t60 24.5t55 -22.5t21 -63.5q0 -71 -48.5 -144t-117.5 -116q84 -114 84 -276q0 -157 -70 -295.5t-196.5 -224t-278.5 -85.5q-199 0 -317.5 119 t-118.5 316zM209 414q0 -157 85 -249.5t236 -92.5q120 0 219 72.5t153 187.5t54 243q0 157 -85 250t-236 93q-120 0 -219 -72.5t-153 -188t-54 -243.5z" />
<glyph unicode="&#x1af;" horiz-adv-x="1404" d="M166 420q0 59 12 117l182 829h119l-182 -827q-12 -58 -12 -107q0 -159 101.5 -254.5t281.5 -95.5q100 0 176.5 30t130 89.5t88.5 138t59 186.5l185 840h118l-22 -100q174 83 203 194h-15q-25 0 -43 20t-18 46q0 35 26 60.5t60 25.5q33 0 54.5 -23.5t21.5 -64.5 q0 -101 -85 -189.5t-218 -140.5l-148 -670q-30 -132 -73 -228.5t-110.5 -171t-165.5 -112t-228 -37.5q-230 0 -364 120.5t-134 324.5z" />
<glyph unicode="&#x1b0;" horiz-adv-x="1105" d="M111 215q0 40 12 86l149 688h109l-150 -672q-10 -45 -10 -71q0 -88 59.5 -131t159.5 -43q88 0 177 49.5t159 122.5l166 745h107l-27 -115q158 81 180 183h-12q-25 0 -43.5 19t-18.5 46q0 35 25 60.5t59 25.5q33 0 54.5 -23.5t21.5 -64.5q0 -97 -78.5 -183.5 t-203.5 -137.5l-177 -799h-106l33 150q-179 -175 -357 -175q-131 0 -209.5 62t-78.5 178z" />
<glyph unicode="&#x1e6;" horiz-adv-x="1456" d="M137 567q0 175 61.5 329t165.5 261.5t243.5 169.5t291.5 62q180 0 315.5 -75t212.5 -206l-104 -53q-61 111 -177 169t-259 58q-121 0 -234 -53.5t-199 -145.5t-138 -226t-52 -286q0 -224 134.5 -356.5t359.5 -132.5q220 0 397 162l72 327h-516l22 107h635l-108 -488 q-221 -215 -510 -215q-138 0 -253 44.5t-194 122.5t-122.5 187.5t-43.5 237.5zM811 1776h76l127 -232l223 232h86l-262 -295h-113z" />
<glyph unicode="&#x1e7;" horiz-adv-x="1167" d="M6 -233l78 75q100 -151 348 -151q130 0 223 76t131 243l31 148q-62 -81 -152.5 -127.5t-197.5 -46.5q-165 0 -270 105t-105 306q0 119 36.5 230.5t101 198t163 138.5t213.5 52q104 0 204 -55t155 -138l39 168h108l-219 -979q-24 -111 -69 -191.5t-106 -128t-131 -69.5 t-153 -22q-148 0 -251.5 37.5t-176.5 130.5zM205 408q0 -153 81 -241.5t220 -88.5q91 0 182 51.5t152 126.5l108 479q-46 83 -139 133t-199 50q-120 0 -214.5 -76.5t-142.5 -191.5t-48 -242zM537 1434h75l127 -232l224 232h86l-265 -295h-110z" />
<glyph unicode="&#x1ea;" horiz-adv-x="1564" d="M137 567q0 170 60 323t161.5 262t241 173t293.5 64q128 0 239.5 -39.5t195 -113t131.5 -187t48 -252.5q0 -201 -81 -374t-221 -285.5t-314 -147.5q-227 -109 -227 -223q0 -27 19 -46.5t58 -19.5q40 0 76 20l19 -69q-60 -33 -127 -33q-72 0 -116 32.5t-44 86.5 q0 67 59 128t152 109h-10q-127 0 -238.5 39.5t-195 113t-131.5 187t-48 252.5zM264 571q0 -116 39 -210t107 -154.5t157 -92.5t191 -32q123 0 236.5 53.5t198.5 146t136 226.5t51 285q0 116 -39 210t-107 154.5t-157.5 92.5t-191.5 32q-123 0 -236.5 -53.5t-198.5 -146 t-135.5 -226t-50.5 -285.5z" />
<glyph unicode="&#x1eb;" d="M92 410q0 156 70 294.5t196 224t277 85.5q200 0 319 -118.5t119 -315.5q0 -208 -121 -377t-309 -213q-225 -110 -225 -223q0 -27 19.5 -46.5t58.5 -19.5t75 20l19 -69q-60 -33 -127 -33q-72 0 -116 32.5t-44 86.5q0 67 59 128t152 109q-193 4 -307.5 122.5t-114.5 312.5z M209 414q0 -157 85 -249.5t236 -92.5q120 0 219 72.5t153 187.5t54 243q0 157 -85 250t-236 93q-120 0 -219 -72.5t-153 -188t-54 -243.5z" />
<glyph unicode="&#x1fa;" horiz-adv-x="1325" d="M-80 0l860 1366h146l258 -1366h-125l-64 336h-727l-209 -336h-139zM330 442h651l-147 807zM725 1642q0 86 64.5 151t150.5 65q78 0 128 -50.5t50 -128.5q0 -88 -63.5 -151.5t-151.5 -63.5q-78 0 -128 50t-50 128zM793 1647q0 -52 31 -84.5t81 -32.5q60 0 104 41.5 t44 101.5q0 53 -31.5 85t-83.5 32q-59 0 -102 -42t-43 -101zM928 1915l381 295h131l-418 -295h-94z" />
<glyph unicode="&#x1fb;" horiz-adv-x="1167" d="M92 381q0 167 63.5 310.5t184 233t272.5 89.5q118 0 211 -52.5t146 -140.5l35 168h108l-219 -989h-109l33 150q-62 -81 -149.5 -128t-188.5 -47q-173 0 -280 108.5t-107 297.5zM209 399q0 -151 81.5 -239t217.5 -88q100 0 191 54.5t145 135.5l104 475 q-39 78 -125.5 129.5t-201.5 51.5q-90 0 -168.5 -44.5t-131 -117t-82.5 -166t-30 -191.5zM573 1300q0 86 64.5 151t150.5 65q78 0 128.5 -50.5t50.5 -128.5q0 -88 -63.5 -151.5t-151.5 -63.5q-78 0 -128.5 50t-50.5 128zM639 1305q0 -51 32 -84t83 -33q60 0 103.5 41.5 t43.5 101.5q0 53 -31.5 85t-83.5 32q-59 0 -103 -42t-44 -101zM776 1573l381 295h131l-418 -295h-94z" />
<glyph unicode="&#x1fc;" horiz-adv-x="1923" d="M-82 0l1163 1366h910l-23 -106h-747l-113 -506h733l-24 -107h-734l-118 -541h747l-22 -106h-867l74 336h-557l-283 -336h-139zM422 442h500l176 801zM1159 1481l381 295h131l-418 -295h-94z" />
<glyph unicode="&#x1fd;" horiz-adv-x="1941" d="M92 381q0 167 63.5 310.5t184 233t272.5 89.5q118 0 211 -52.5t146 -140.5l35 168h108l-41 -188q63 88 164 150.5t219 62.5q187 0 288 -117.5t101 -306.5q0 -77 -16 -131h-826q-4 -24 -4 -56q0 -144 94.5 -239.5t268.5 -95.5q159 0 289 106l41 -78q-157 -121 -328 -121 q-166 0 -272.5 82t-135.5 219l-61 -276h-109l33 150q-62 -81 -149.5 -128t-188.5 -47q-173 0 -280 108.5t-107 297.5zM209 399q0 -151 81.5 -239t217.5 -88q100 0 191 54.5t145 135.5l104 475q-39 78 -125.5 129.5t-201.5 51.5q-90 0 -168.5 -44.5t-131 -117t-82.5 -166 t-30 -191.5zM1012 545h727q2 10 2 45q0 150 -82.5 241t-237.5 91q-147 0 -264.5 -111t-144.5 -266zM1044 1139l381 295h131l-417 -295h-95z" />
<glyph unicode="&#x1fe;" horiz-adv-x="1564" d="M84 -53l201 213q-148 158 -148 407q0 170 60 323t161.5 262t241 173t293.5 64q252 0 420 -142l205 217l47 -47l-203 -215q145 -158 145 -405q0 -170 -60 -323t-161.5 -262t-241.5 -173t-294 -64q-249 0 -418 140l-201 -213zM264 571q0 -194 105 -321l862 911 q-136 121 -346 121q-123 0 -236.5 -53.5t-198.5 -146t-135.5 -226t-50.5 -285.5zM416 203q133 -121 342 -121q123 0 236.5 53.5t198.5 146t136 226.5t51 285q0 193 -104 319zM950 1481l381 295h131l-418 -295h-94z" />
<glyph unicode="&#x1ff;" d="M92 410q0 156 70 294.5t196 224t277 85.5q161 0 274 -80l125 153l45 -36l-127 -154q121 -118 121 -317q0 -157 -70 -295.5t-196.5 -224t-278.5 -85.5q-154 0 -266 76l-121 -149l-47 39l121 147q-123 123 -123 322zM209 414q0 -148 76 -240l557 678q-81 66 -207 66 q-120 0 -219 -72.5t-153 -188t-54 -243.5zM330 133q80 -61 200 -61t219 72.5t153 187.5t54 243q0 148 -73 236zM678 1139l381 295h131l-418 -295h-94z" />
<glyph unicode="&#x218;" horiz-adv-x="1189" d="M47 215l88 84q72 -103 187.5 -160t259.5 -57q71 0 129.5 18t97.5 47.5t66 68.5t39 80t12 83q0 40 -19 76t-38.5 58.5t-71 51.5t-76 40.5t-92.5 40.5q-7 3 -11 5q-44 18 -69 28.5t-65.5 29.5t-64.5 34.5t-55.5 37.5t-50 45t-36 51t-25.5 61t-8 70q0 157 134 269t327 112 q155 0 281 -58.5t190 -156.5l-89 -80q-62 92 -167.5 140t-225.5 48q-134 0 -228.5 -79.5t-94.5 -182.5q0 -37 17 -69.5t41 -55.5t68 -48t79 -40.5t92 -38.5q41 -17 62.5 -26.5t60 -28t60 -31t54 -33.5t50.5 -39t40 -43.5t33 -51t19 -57.5t8 -67q0 -78 -32 -151t-90.5 -133 t-153 -96t-208.5 -36q-172 0 -314.5 68t-209.5 172zM260 -481q56 30 98 75.5t54 90.5h-15q-25 0 -44 20t-19 47q0 36 26 62t62 26q35 0 57.5 -23.5t22.5 -66.5q0 -78 -59 -158t-138 -122z" />
<glyph unicode="&#x219;" horiz-adv-x="940" d="M16 150l74 69q41 -64 129.5 -108.5t196.5 -44.5q118 0 190 60.5t72 143.5q0 28 -14 53.5t-33 43t-55 37t-62.5 31t-73.5 30.5q-56 23 -85 36t-75 39t-69.5 50t-42 60.5t-18.5 78.5q0 119 97.5 202t262.5 83q121 0 218.5 -47t141.5 -115l-67 -68q-33 58 -119 99t-182 41 q-110 0 -177 -51t-67 -128q0 -32 17 -58.5t54 -49.5t68.5 -37.5t87.5 -36.5q43 -17 62.5 -25t58.5 -26.5t58.5 -31.5t47 -35.5t41 -44t23.5 -51t10 -62.5q0 -126 -100.5 -219t-271.5 -93q-273 0 -398 175zM133 -481q56 30 98 75.5t54 90.5h-15q-25 0 -44 20t-19 47 q0 36 26 62t62 26q35 0 57.5 -23.5t22.5 -66.5q0 -78 -59 -158t-138 -122z" />
<glyph unicode="&#x21a;" horiz-adv-x="1155" d="M240 1260l22 106h1012l-23 -106h-448l-277 -1260h-118l278 1260h-446zM258 -481q56 30 98 75.5t54 90.5h-15q-25 0 -44 20t-19 47q0 36 26 62t62 26q35 0 57.5 -23.5t22.5 -66.5q0 -78 -59 -158t-138 -122z" />
<glyph unicode="&#x21b;" horiz-adv-x="563" d="M-6 -481q56 29 97.5 75t53.5 91h-14q-25 0 -44 20t-19 47q0 36 26 62t62 26q35 0 57.5 -23.5t22.5 -66.5q0 -78 -59 -158t-138 -122zM111 139q0 26 6 56l157 700h-163l20 94h164l59 271h109l-60 -271h201l-22 -94h-201l-152 -686q-4 -20 -4 -43q0 -94 101 -94 q53 0 104 37l21 -86q-61 -48 -142 -48q-95 0 -146.5 40.5t-51.5 123.5z" />
<glyph unicode="&#x232;" horiz-adv-x="1265" d="M221 1366h131l314 -672l608 672h151l-714 -782l-129 -584h-119l129 584zM561 1522l19 77h604l-19 -77h-604z" />
<glyph unicode="&#x233;" horiz-adv-x="985" d="M-94 -381l41 102q36 -18 96 -18q42 0 77.5 24.5t78.5 88.5l116 178l-192 995h115l165 -864l551 864h123l-778 -1206q-59 -94 -125.5 -139t-150.5 -45q-62 0 -117 20zM346 1180l19 77h604l-19 -77h-604z" />
<glyph unicode="&#x237;" horiz-adv-x="438" d="M-276 -377l30 88q38 -18 88 -18q142 0 185 180l247 1116h107l-248 -1116q-31 -139 -99.5 -206.5t-185.5 -67.5q-72 0 -124 24z" />
<glyph unicode="&#x259;" horiz-adv-x="1161" d="M96 403q0 59 15 127h835q4 20 4 56q0 93 -39 168t-122.5 121.5t-200.5 46.5q-78 0 -157.5 -27.5t-141.5 -79.5l-41 78q70 54 161 87.5t185 33.5q220 0 345.5 -119.5t125.5 -316.5q0 -163 -73 -301.5t-200 -220t-278 -81.5q-193 0 -305.5 120.5t-112.5 307.5zM197 399 q0 -149 86.5 -240t242.5 -91q147 0 265 110.5t145 265.5h-735q-4 -20 -4 -45z" />
<glyph unicode="&#x272;" horiz-adv-x="1105" d="M-276 -377l30 88q38 -18 88 -18q142 0 185 180l247 1116h107l-33 -149q76 75 168.5 124.5t188.5 49.5q131 0 209.5 -62t78.5 -180q0 -38 -12 -84l-152 -688h-106l147 670q13 65 13 73q0 88 -59 131.5t-156 43.5q-90 0 -180 -49.5t-162 -123.5l-193 -872 q-30 -138 -99 -206t-186 -68q-72 0 -124 24z" />
<glyph unicode="&#x2b0;" horiz-adv-x="802" d="M166 668l196 888h89l-76 -342q45 48 107.5 80.5t127.5 32.5q94 0 146.5 -42t52.5 -118q0 -25 -8 -65l-96 -434h-89l95 424q4 20 4 41q0 59 -38 89.5t-108 30.5q-105 0 -213 -112l-102 -473h-88z" />
<glyph unicode="&#x2bb;" horiz-adv-x="448" d="M238 1087q0 84 62.5 169t148.5 130l49 -53q-57 -29 -102 -77t-58 -95h14q28 0 49 -22t21 -54q0 -39 -28.5 -67.5t-67.5 -28.5t-63.5 25t-24.5 73z" />
<glyph unicode="&#x2bc;" horiz-adv-x="448" d="M236 1042q57 29 101.5 77t57.5 95h-14q-28 0 -49 22t-21 52q0 41 29 69.5t68 28.5q38 0 63 -26t25 -72q0 -85 -63 -170.5t-148 -128.5z" />
<glyph unicode="&#x2c6;" horiz-adv-x="512" d="M141 1139l265 295h110l137 -295h-78l-126 231l-224 -231h-84z" />
<glyph unicode="&#x2c7;" horiz-adv-x="512" d="M207 1434h76l127 -232l223 232h86l-264 -295h-111z" />
<glyph unicode="&#x2c9;" horiz-adv-x="743" d="M221 1182l17 75h602l-17 -75h-602z" />
<glyph unicode="&#x2cb;" horiz-adv-x="442" d="M207 1434h127l250 -295h-90z" />
<glyph unicode="&#x2d8;" horiz-adv-x="718" d="M176 1300l66 52q38 -72 106.5 -113t161.5 -41q92 0 179.5 41t154.5 113l51 -52q-81 -84 -184.5 -132t-212.5 -48q-108 0 -192.5 48t-129.5 132z" />
<glyph unicode="&#x2d9;" horiz-adv-x="231" d="M201 1227q0 34 26 60t62 26q29 0 49 -19.5t20 -50.5q0 -35 -26.5 -60.5t-61.5 -25.5q-30 0 -49.5 19.5t-19.5 50.5z" />
<glyph unicode="&#x2da;" horiz-adv-x="477" d="M223 1300q0 86 64.5 151t150.5 65q78 0 128 -50.5t50 -128.5q0 -88 -63.5 -151.5t-151.5 -63.5q-78 0 -128 50t-50 128zM291 1305q0 -52 31 -84.5t81 -32.5q60 0 104 41.5t44 101.5q0 53 -31.5 85t-83.5 32q-59 0 -102 -42t-43 -101z" />
<glyph unicode="&#x2db;" horiz-adv-x="380" d="M-129 -262q0 81 84 153t201 117l80 -8q-250 -113 -250 -233q0 -27 19.5 -46.5t60.5 -19.5q37 0 73 20l19 -69q-60 -33 -127 -33q-72 0 -116 32.5t-44 86.5z" />
<glyph unicode="&#x2dc;" horiz-adv-x="628" d="M143 1147q25 125 80 199.5t142 74.5q55 0 87 -30.5t58 -83.5q14 -31 24.5 -48t31 -32t46.5 -15q95 0 142 197h75q-59 -274 -223 -274q-55 0 -87 30.5t-58 83.5q-15 31 -25.5 48.5t-31 33t-46.5 15.5q-96 0 -141 -199h-74z" />
<glyph unicode="&#x2dd;" horiz-adv-x="595" d="M137 1139l264 295h117l-301 -295h-80zM422 1139l264 295h117l-301 -295h-80z" />
<glyph unicode="&#x300;" horiz-adv-x="0" d="M-236 1434h127l252 -295h-90z" />
<glyph unicode="&#x301;" horiz-adv-x="0" d="M-305 1139l383 295h131l-422 -295h-92z" />
<glyph unicode="&#x302;" horiz-adv-x="0" d="M-371 1139l265 295h110l137 -295h-78l-126 231l-224 -231h-84z" />
<glyph unicode="&#x303;" horiz-adv-x="0" d="M-485 1147q25 125 79.5 199.5t141.5 74.5q55 0 87 -30.5t58 -83.5q14 -30 25 -47.5t31.5 -32.5t46.5 -15q94 0 141 197h76q-59 -274 -224 -274q-55 0 -87 30.5t-58 83.5q-11 23 -18.5 36.5t-20 29.5t-28 23.5t-35.5 7.5q-97 0 -142 -199h-73z" />
<glyph unicode="&#x304;" horiz-adv-x="0" d="M-522 1182l18 75h604l-18 -75h-604z" />
<glyph unicode="&#x306;" horiz-adv-x="0" d="M-543 1300l66 52q38 -72 106.5 -113t161.5 -41q92 0 179.5 41t154.5 113l51 -52q-81 -84 -184.5 -132t-212.5 -48q-108 0 -192.5 48t-129.5 132z" />
<glyph unicode="&#x307;" horiz-adv-x="0" d="M-31 1227q0 34 26 60t62 26q30 0 50 -20t20 -50q0 -35 -26.5 -60.5t-61.5 -25.5q-30 0 -50 20t-20 50z" />
<glyph unicode="&#x308;" horiz-adv-x="0" d="M-541 1231q0 35 26 59.5t60 24.5q29 0 48.5 -19.5t19.5 -48.5q0 -34 -25 -59t-59 -25q-29 0 -49.5 20t-20.5 48zM-121 1231q0 35 25 59.5t59 24.5q31 0 50.5 -19.5t19.5 -48.5q0 -34 -26 -59t-60 -25q-29 0 -48.5 20t-19.5 48z" />
<glyph unicode="&#x309;" horiz-adv-x="0" d="M-184 1346q30 55 79.5 87.5t108.5 32.5q70 0 119 -41.5t49 -111.5q0 -95 -80 -172h-96q50 42 73 80.5t23 87.5q0 40 -27.5 64t-64.5 24q-72 0 -121 -86z" />
<glyph unicode="&#x30a;" horiz-adv-x="0" d="M-254 1300q0 86 64.5 151t150.5 65q78 0 128 -50.5t50 -128.5q0 -88 -63.5 -151.5t-151.5 -63.5q-78 0 -128 50t-50 128zM-186 1305q0 -52 31 -84.5t81 -32.5q60 0 104 41.5t44 101.5q0 53 -31.5 85t-83.5 32q-59 0 -102 -42t-43 -101z" />
<glyph unicode="&#x30b;" horiz-adv-x="0" d="M-459 1139l264 295h117l-301 -295h-80zM-174 1139l264 295h117l-301 -295h-80z" />
<glyph unicode="&#x30c;" horiz-adv-x="0" d="M-305 1434h76l127 -232l223 232h86l-264 -295h-111z" />
<glyph unicode="&#x30f;" horiz-adv-x="0" d="M-387 1434h113l133 -295h-76zM-102 1434h112l133 -295h-75z" />
<glyph unicode="&#x311;" horiz-adv-x="0" d="M-569 1171q81 85 184.5 133t212.5 48q108 0 192.5 -48.5t129.5 -132.5l-66 -51q-38 73 -106.5 114.5t-161.5 41.5q-92 0 -179.5 -41.5t-154.5 -114.5z" />
<glyph unicode="&#x323;" horiz-adv-x="0" d="M-356 -252q0 34 25.5 60t60.5 26q31 0 51 -19.5t20 -50.5q0 -35 -27 -60.5t-61 -25.5q-30 0 -49.5 20t-19.5 50z" />
<glyph unicode="&#x326;" horiz-adv-x="0" d="M-547 -481q55 28 97.5 74t54.5 92h-15q-25 0 -44 20t-19 47q0 36 26 62t62 26q35 0 57.5 -23.5t22.5 -66.5q0 -78 -59 -158t-138 -122z" />
<glyph unicode="&#x327;" horiz-adv-x="0" d="M-588 -311l47 63q65 -71 170 -71q66 0 100.5 29.5t34.5 74.5q0 31 -21.5 49.5t-59.5 18.5q-48 0 -76 -35l-49 32l100 173h78l-84 -140q32 25 69 25q53 0 86 -31t33 -86q0 -79 -59.5 -128.5t-155.5 -49.5q-133 0 -213 76z" />
<glyph unicode="&#x328;" horiz-adv-x="0" d="M-510 -262q0 81 84 153t201 117l80 -8q-250 -113 -250 -233q0 -28 19.5 -47t60.5 -19q37 0 73 20l19 -69q-60 -33 -127 -33q-72 0 -116 32.5t-44 86.5z" />
<glyph unicode="&#x32e;" horiz-adv-x="0" d="M-872 -197l67 52q36 -73 104.5 -114.5t161.5 -41.5q92 0 179 42t155 114l51 -52q-81 -84 -184.5 -132t-212.5 -48q-108 0 -192 48t-129 132z" />
<glyph unicode="&#x331;" horiz-adv-x="0" d="M-846 -281l17 76h604l-17 -76h-604z" />
<glyph unicode="&#x374;" horiz-adv-x="278" d="M127 819l158 547h131l-228 -547h-61z" />
<glyph unicode="&#x375;" horiz-adv-x="278" d="M-113 -266l158 547h131l-227 -547h-62z" />
<glyph unicode="&#x37e;" horiz-adv-x="448" d="M-37 -184q57 29 102 77t58 95h-14q-28 0 -49 21.5t-21 51.5q0 40 29 69.5t67 29.5t62 -26.5t24 -72.5q0 -85 -62 -170.5t-147 -128.5zM225 907q0 40 29.5 68.5t69.5 28.5q35 0 58.5 -24t23.5 -58q0 -41 -29.5 -70t-69.5 -29q-35 0 -58.5 24.5t-23.5 59.5z" />
<glyph unicode="&#x384;" horiz-adv-x="239" d="M186 1176l127 399h131l-196 -399h-62z" />
<glyph unicode="&#x385;" horiz-adv-x="743" d="M199 1231q0 35 26 59.5t60 24.5q29 0 48 -19.5t19 -48.5q0 -34 -25 -59t-59 -25q-29 0 -49 20t-20 48zM467 1176l127 399h131l-197 -399h-61zM721 1231q0 35 25 59.5t59 24.5q29 0 49 -19.5t20 -48.5q0 -34 -26 -59t-60 -25q-29 0 -48 20t-19 48z" />
<glyph unicode="&#x386;" horiz-adv-x="1325" d="M-80 0l860 1366h146l258 -1366h-125l-64 336h-727l-209 -336h-139zM311 967l127 399h131l-196 -399h-62zM330 442h651l-147 807z" />
<glyph unicode="&#x387;" horiz-adv-x="448" d="M133 494q0 41 29 68.5t71 27.5q34 0 57 -23.5t23 -58.5q0 -40 -28.5 -68t-69.5 -28q-34 0 -58 24t-24 58z" />
<glyph unicode="&#x388;" horiz-adv-x="1253" d="M84 967l127 399h131l-197 -399h-61zM158 0l301 1366h866l-25 -106h-747l-113 -506h736l-25 -107h-733l-121 -541h747l-20 -106h-866z" />
<glyph unicode="&#x389;" horiz-adv-x="1538" d="M84 967l127 399h131l-197 -399h-61zM158 0l301 1366h116l-133 -610h865l135 610h117l-302 -1366h-116l143 649h-866l-144 -649h-116z" />
<glyph unicode="&#x38a;" horiz-adv-x="555" d="M84 967l127 399h131l-197 -399h-61zM158 0l301 1366h116l-301 -1366h-116z" />
<glyph unicode="&#x38c;" horiz-adv-x="1636" d="M84 967l127 399h131l-197 -399h-61zM207 567q0 170 60.5 323t162.5 262t241.5 173t293.5 64q127 0 238 -39.5t194.5 -113t131.5 -187t48 -252.5q0 -170 -60 -323t-161.5 -262t-241 -173t-293.5 -64q-128 0 -239.5 39.5t-195 113t-131.5 187t-48 252.5zM334 571 q0 -154 67.5 -267t178 -167.5t247.5 -54.5q123 0 236.5 53.5t199 146t136.5 226.5t51 285q0 116 -39.5 210.5t-107.5 154.5t-157 92t-190 32q-124 0 -238 -53.5t-198.5 -146t-135 -226t-50.5 -285.5z" />
<glyph unicode="&#x38e;" horiz-adv-x="1433" d="M84 967l127 399h131l-197 -399h-61zM389 1366h131l314 -672l608 672h151l-714 -782l-129 -584h-119l129 584z" />
<glyph unicode="&#x38f;" horiz-adv-x="1636" d="M84 967l127 399h131l-197 -399h-61zM117 0l22 106h324q-113 81 -180.5 203.5t-67.5 282.5q0 123 35 241t102 218t157.5 176t208.5 119t249 43q273 0 440.5 -160t167.5 -434q0 -128 -37 -241t-102 -197t-142.5 -146t-167.5 -105h267l-23 -106h-467l25 106 q219 44 369.5 235.5t150.5 449.5q0 224 -133.5 356.5t-351.5 132.5q-135 0 -252.5 -57t-199 -153t-128.5 -226t-47 -273q0 -167 75.5 -284.5t192.5 -180.5l-20 -106h-467z" />
<glyph unicode="&#x390;" horiz-adv-x="464" d="M76 1231q0 35 26 59.5t60 24.5q28 0 47.5 -19.5t19.5 -48.5q0 -34 -25 -59t-59 -25q-29 0 -49 20t-20 48zM96 190l178 799h107l-176 -786q-13 -61 4.5 -96t66.5 -35q27 0 43 4l-12 -94q-28 -7 -65 -7q-97 0 -133.5 56t-12.5 159zM344 1176l127 399h131l-196 -399h-62z M598 1231q0 35 25 59.5t59 24.5q29 0 49.5 -19.5t20.5 -48.5q0 -34 -26 -59t-60 -25q-29 0 -48.5 20t-19.5 48z" />
<glyph unicode="&#x391;" horiz-adv-x="1325" d="M-80 0l860 1366h146l258 -1366h-125l-64 336h-727l-209 -336h-139zM330 442h651l-147 807z" />
<glyph unicode="&#x392;" horiz-adv-x="1257" d="M59 0l301 1366h527q142 0 240 -85.5t98 -223.5q0 -145 -94 -250t-224 -119q85 -23 142 -104t57 -178q0 -79 -28.5 -151t-84 -129.5t-146 -91.5t-204.5 -34h-584zM199 106h450q156 0 245 91t89 215q0 103 -66.5 169t-181.5 66h-416zM342 754h449q81 0 142.5 25.5 t95.5 68.5t50.5 92.5t16.5 103.5q0 92 -69 154t-169 62h-403z" />
<glyph unicode="&#x393;" horiz-adv-x="1110" d="M59 0l301 1366h867l-23 -106h-749l-279 -1260h-117z" />
<glyph unicode="&#x394;" horiz-adv-x="1325" d="M-80 0l860 1366h146l258 -1366h-1264zM121 106h919l-209 1135z" />
<glyph unicode="&#x395;" horiz-adv-x="1155" d="M59 0l301 1366h867l-25 -106h-747l-113 -506h735l-24 -107h-734l-120 -541h747l-20 -106h-867z" />
<glyph unicode="&#x396;" horiz-adv-x="1189" d="M-8 0l22 100l1067 1160h-811l23 106h971l-23 -102l-1071 -1158h829l-22 -106h-985z" />
<glyph unicode="&#x397;" horiz-adv-x="1439" d="M59 0l301 1366h117l-133 -610h864l135 610h117l-301 -1366h-117l144 649h-867l-143 -649h-117z" />
<glyph unicode="&#x398;" horiz-adv-x="1564" d="M137 567q0 170 60 323t161.5 262t241 173t293.5 64q128 0 239.5 -39.5t195 -113t131.5 -187t48 -252.5q0 -170 -60 -323t-161.5 -262t-241.5 -173t-294 -64q-127 0 -238.5 39.5t-195 113t-131.5 187t-48 252.5zM264 571q0 -116 39 -210t107 -154.5t157 -92.5t191 -32 q123 0 236.5 53.5t198.5 146t136 226.5t51 285q0 116 -39 210t-107 154.5t-157.5 92.5t-191.5 32q-123 0 -236.5 -53.5t-198.5 -146t-135.5 -226t-50.5 -285.5zM395 647l23 107h821l-22 -107h-822z" />
<glyph unicode="&#x399;" horiz-adv-x="456" d="M59 0l301 1366h117l-301 -1366h-117z" />
<glyph unicode="&#x39a;" horiz-adv-x="1200" d="M59 0l301 1366h117l-162 -733l811 733h160l-725 -651l479 -715h-139l-426 649l-192 -172l-107 -477h-117z" />
<glyph unicode="&#x39b;" horiz-adv-x="1325" d="M-80 0l860 1366h146l258 -1366h-129l-224 1241l-770 -1241h-141z" />
<glyph unicode="&#x39c;" horiz-adv-x="1615" d="M59 0l301 1366h168l211 -1145l717 1145h182l-301 -1366h-118l270 1225l-768 -1225h-45l-230 1225l-270 -1225h-117z" />
<glyph unicode="&#x39d;" horiz-adv-x="1431" d="M59 0l301 1366h119l592 -1186l264 1186h117l-301 -1366h-115l-594 1202l-266 -1202h-117z" />
<glyph unicode="&#x39e;" horiz-adv-x="1251" d="M10 0l23 106h1011l-22 -106h-1012zM166 647l22 107h988l-25 -107h-985zM289 1260l22 106h1012l-23 -106h-1011z" />
<glyph unicode="&#x39f;" horiz-adv-x="1564" d="M137 567q0 170 60 323t161.5 262t241 173t293.5 64q128 0 239.5 -39.5t195 -113t131.5 -187t48 -252.5q0 -170 -60 -323t-161.5 -262t-241.5 -173t-294 -64q-127 0 -238.5 39.5t-195 113t-131.5 187t-48 252.5zM264 571q0 -116 39 -210t107 -154.5t157 -92.5t191 -32 q123 0 236.5 53.5t198.5 146t136 226.5t51 285q0 116 -39 210t-107 154.5t-157.5 92.5t-191.5 32q-123 0 -236.5 -53.5t-198.5 -146t-135.5 -226t-50.5 -285.5z" />
<glyph unicode="&#x3a0;" horiz-adv-x="1439" d="M59 0l301 1366h1100l-299 -1366h-119l277 1260h-864l-279 -1260h-117z" />
<glyph unicode="&#x3a1;" d="M59 0l301 1366h480q157 0 257.5 -100.5t100.5 -241.5q0 -65 -17.5 -128.5t-57 -123.5t-96.5 -105t-143.5 -72.5t-191.5 -27.5h-389l-127 -567h-117zM324 674h383q174 0 270 99t96 243q0 99 -72.5 171.5t-179.5 72.5h-366z" />
<glyph unicode="&#x3a3;" horiz-adv-x="1093" d="M14 0l23 113l631 596l-371 557l20 100h865l-23 -106h-729l377 -568l-621 -586h717l-22 -106h-867z" />
<glyph unicode="&#x3a4;" horiz-adv-x="1155" d="M240 1260l22 106h1012l-23 -106h-448l-277 -1260h-118l278 1260h-446z" />
<glyph unicode="&#x3a5;" horiz-adv-x="1265" d="M221 1366h131l314 -672l608 672h151l-714 -782l-129 -584h-119l129 584z" />
<glyph unicode="&#x3a6;" horiz-adv-x="1607" d="M150 602q0 167 98.5 309.5t274.5 229t392 92.5l31 133h117l-31 -137q247 -17 380.5 -142.5t133.5 -324.5q0 -124 -58.5 -238t-159 -199t-243 -137.5t-303.5 -56.5l-30 -131h-117l31 135q-249 17 -382.5 142.5t-133.5 324.5zM274 602q0 -153 109.5 -251.5t304.5 -110.5 l201 884q-272 -15 -443.5 -162t-171.5 -360zM807 240q269 15 441.5 162t172.5 360q0 155 -109 252.5t-304 109.5z" />
<glyph unicode="&#x3a7;" horiz-adv-x="1320" d="M-74 0l703 709l-371 657h137l322 -580l565 580h160l-664 -674l393 -692h-133l-348 616l-604 -616h-160z" />
<glyph unicode="&#x3a8;" horiz-adv-x="1568" d="M225 664q0 68 21 161l125 541h118l-129 -561q-14 -54 -14 -133q0 -133 86.5 -215.5t265.5 -94.5l228 1004h118l-229 -1004q215 13 354.5 129t182.5 314l129 561h118l-135 -590q-52 -230 -229 -371t-444 -151l-58 -254h-119l60 256q-227 15 -338 120t-111 288z" />
<glyph unicode="&#x3a9;" horiz-adv-x="1564" d="M45 0l25 106h321q-112 82 -180 204.5t-68 281.5q0 123 35 241t102 218t157.5 176t208.5 119t249 43q274 0 441 -160t167 -434q0 -128 -37 -241t-101 -197t-141 -146t-167 -105h264l-21 -106h-466l22 106q219 44 369.5 235.5t150.5 449.5q0 224 -133 356.5t-350 132.5 q-135 0 -253 -57t-200 -153t-129 -226t-47 -273q0 -167 76 -284.5t195 -180.5l-23 -106h-467z" />
<glyph unicode="&#x3aa;" horiz-adv-x="456" d="M59 0l301 1366h117l-301 -1366h-117zM188 1573q0 35 26 59.5t60 24.5q29 0 48.5 -19.5t19.5 -48.5q0 -34 -25.5 -59t-60.5 -25q-28 0 -48 20t-20 48zM606 1573q0 35 26 59.5t60 24.5q29 0 48.5 -19.5t19.5 -48.5q0 -34 -25 -59t-59 -25q-29 0 -49.5 20t-20.5 48z" />
<glyph unicode="&#x3ab;" horiz-adv-x="1265" d="M221 1366h131l314 -672l608 672h151l-714 -782l-129 -584h-119l129 584zM592 1573q0 35 26 59.5t60 24.5q29 0 48 -19.5t19 -48.5q0 -34 -24.5 -59t-58.5 -25q-29 0 -49.5 20t-20.5 48zM1010 1573q0 35 26 59.5t60 24.5q29 0 48 -19.5t19 -48.5q0 -34 -25 -59t-59 -25 q-29 0 -49 20t-20 48z" />
<glyph unicode="&#x3ac;" horiz-adv-x="1196" d="M92 381q0 167 63.5 310.5t184 233t272.5 89.5q118 0 211 -52.5t146 -140.5l35 168h108l-174 -786q-14 -60 4 -95.5t68 -35.5q25 0 41 4l-13 -94q-28 -7 -65 -7q-88 0 -124 49t-24 138q-141 -187 -346 -187q-173 0 -280 108.5t-107 297.5zM209 399q0 -151 81.5 -239 t217.5 -88q99 0 190 55t146 135l104 475q-39 78 -125.5 129.5t-201.5 51.5q-90 0 -168.5 -44.5t-131 -117t-82.5 -166t-30 -191.5zM709 1176l127 399h131l-197 -399h-61z" />
<glyph unicode="&#x3ad;" horiz-adv-x="995" d="M53 250q0 111 84 187.5t228 80.5q-44 9 -84 32.5t-70.5 72t-30.5 110.5q0 53 21.5 101t66 89.5t122 66t179.5 24.5q145 0 250.5 -56.5t157.5 -140.5l-74 -65q-46 78 -132.5 124t-203.5 46q-125 0 -200.5 -53t-75.5 -142q0 -85 76 -132.5t200 -47.5h144l-21 -90h-205 q-313 0 -313 -189q0 -88 82.5 -145t224.5 -57q89 0 162 24t150 84l47 -80q-81 -66 -166 -92.5t-191 -26.5q-203 0 -315.5 81t-112.5 194zM647 1176l127 399h131l-196 -399h-62z" />
<glyph unicode="&#x3ae;" horiz-adv-x="1105" d="M55 0l219 989h107l-33 -149q76 75 168.5 124.5t188.5 49.5q131 0 209.5 -62t78.5 -180q0 -38 -12 -84l-238 -1065h-106l233 1047q13 65 13 73q0 88 -60 131.5t-161 43.5q-87 0 -176.5 -49.5t-159.5 -123.5l-164 -745h-107zM674 1176l127 399h131l-197 -399h-61z" />
<glyph unicode="&#x3af;" horiz-adv-x="464" d="M96 190l178 799h107l-176 -786q-13 -61 4.5 -96t66.5 -35q27 0 43 4l-12 -94q-28 -7 -65 -7q-97 0 -133.5 56t-12.5 159zM338 1176l127 399h131l-197 -399h-61z" />
<glyph unicode="&#x3b0;" horiz-adv-x="1136" d="M138 252q-10 85 16 186l127 551h106l-127 -559q-39 -169 15.5 -263.5t201.5 -94.5q131 0 238.5 80.5t167 213.5t59.5 289q0 193 -78 314l99 45q43 -67 66.5 -163.5t23.5 -195.5q0 -184 -74.5 -339.5t-207.5 -248t-294 -92.5q-103 0 -177.5 34.5t-113 96t-48.5 146.5z M410 1231q0 35 26 59.5t60 24.5q29 0 48 -19.5t19 -48.5q0 -34 -25 -59t-59 -25q-29 0 -49 20t-20 48zM678 1176l127 399h131l-197 -399h-61zM932 1231q0 35 25 59.5t59 24.5q29 0 49 -19.5t20 -48.5q0 -34 -26 -59t-60 -25q-29 0 -48 20t-19 48z" />
<glyph unicode="&#x3b1;" horiz-adv-x="1196" d="M92 381q0 167 63.5 310.5t184 233t272.5 89.5q118 0 211 -52.5t146 -140.5l35 168h108l-174 -786q-14 -60 4 -95.5t68 -35.5q25 0 41 4l-13 -94q-28 -7 -65 -7q-88 0 -124 49t-24 138q-141 -187 -346 -187q-173 0 -280 108.5t-107 297.5zM209 399q0 -151 81.5 -239 t217.5 -88q99 0 190 55t146 135l104 475q-39 78 -125.5 129.5t-201.5 51.5q-90 0 -168.5 -44.5t-131 -117t-82.5 -166t-30 -191.5z" />
<glyph unicode="&#x3b2;" d="M-31 -377l299 1315q26 115 81.5 203.5t128 140.5t152.5 78t165 26q167 0 266.5 -78.5t99.5 -224.5q0 -87 -36.5 -158t-94.5 -114.5t-117 -68.5t-118 -35q41 -5 81.5 -23.5t78 -51.5t60.5 -87t23 -121q0 -127 -69.5 -230.5t-185.5 -161t-251 -57.5q-123 0 -208.5 49.5 t-126.5 129.5l-121 -531h-107zM217 248q31 -75 111.5 -125.5t193.5 -50.5q183 0 294.5 100.5t111.5 253.5q0 113 -84 171t-219 58h-66l21 95h65q78 0 148 20.5t125.5 59t88.5 101t33 140.5q0 101 -70 160t-186 59q-64 0 -127 -22t-119.5 -63.5t-100 -110.5t-62.5 -156z" />
<glyph unicode="&#x3b3;" horiz-adv-x="985" d="M109 989h131q114 -141 172 -385.5t30 -460.5q168 174 302.5 402.5t183.5 443.5h106q-55 -236 -215.5 -498.5t-380.5 -482.5l-88 -385h-108l69 301q48 210 33.5 409t-76 367t-159.5 289z" />
<glyph unicode="&#x3b4;" d="M88 373q0 175 116.5 312t305.5 204q-69 37 -106 85t-37 118q0 118 116 208.5t289 90.5q239 0 336 -146l-72 -63q-34 55 -103.5 86.5t-164.5 31.5q-128 0 -210.5 -60t-82.5 -144q0 -27 12.5 -50.5t29.5 -40t50.5 -35t58.5 -30t70 -29.5q39 -17 57 -24.5t56 -25.5 t57.5 -30.5t51 -34.5t49 -41.5t39 -48t32.5 -58t19 -67t8 -79.5q0 -78 -24 -154.5t-71.5 -143.5t-112 -118.5t-151 -81t-182.5 -29.5q-107 0 -192.5 33.5t-137.5 90t-79 126.5t-27 148zM205 381q0 -59 19.5 -113t58 -98.5t102.5 -71t145 -26.5q90 0 170 36.5t135.5 95.5 t88 136t32.5 156q0 41 -10 77.5t-23.5 63t-41 52.5t-48 42t-59 36t-61 30t-65.5 29q-5 2 -7 3t-27 11q-195 -55 -302 -178t-107 -281z" />
<glyph unicode="&#x3b5;" horiz-adv-x="995" d="M53 250q0 111 84 187.5t228 80.5q-71 14 -128 69.5t-57 145.5q0 53 21.5 101t66 89.5t122 66t179.5 24.5q145 0 250.5 -56.5t157.5 -140.5l-74 -65q-46 78 -132.5 124t-203.5 46q-124 0 -200 -53t-76 -142q0 -85 76 -132.5t200 -47.5h144l-21 -90h-205q-313 0 -313 -189 q0 -88 82.5 -145t224.5 -57q90 0 163.5 24.5t148.5 83.5l47 -80q-81 -66 -166 -92.5t-191 -26.5q-203 0 -315.5 81t-112.5 194z" />
<glyph unicode="&#x3b6;" horiz-adv-x="1005" d="M84 346q0 502 860 924h-625l23 96h768l-20 -86q-218 -112 -378 -218.5t-276.5 -219.5t-174.5 -232t-58 -245q0 -134 102 -201.5t283 -67.5q108 0 157.5 -28.5t49.5 -96.5q0 -110 -146 -293h-129q156 167 156 259q0 36 -28.5 49.5t-92.5 13.5q-219 0 -345 89t-126 257z " />
<glyph unicode="&#x3b7;" horiz-adv-x="1105" d="M55 0l219 989h107l-33 -149q76 75 168.5 124.5t188.5 49.5q131 0 209.5 -62t78.5 -180q0 -38 -12 -84l-238 -1065h-106l233 1047q13 65 13 73q0 88 -60 131.5t-161 43.5q-86 0 -175 -49.5t-161 -123.5l-164 -745h-107z" />
<glyph unicode="&#x3b8;" d="M121 500q0 120 26 245t79 240.5t125 206t172 145t212 54.5q200 0 303 -142t103 -385q0 -152 -42.5 -307.5t-118 -286t-194 -213t-256.5 -82.5q-202 0 -305.5 140.5t-103.5 384.5zM233 485q0 -90 17 -162.5t52 -130t95 -89t140 -31.5q84 0 161 48t135 129t100.5 180.5 t65.5 209.5h-755q-11 -73 -11 -154zM264 735h754q10 82 10 144q0 90 -16.5 163t-51 130.5t-94.5 89.5t-141 32q-83 0 -159.5 -47t-134.5 -126.5t-101 -178.5t-66 -207z" />
<glyph unicode="&#x3b9;" horiz-adv-x="464" d="M96 190l178 799h107l-174 -786q-14 -61 3 -96t66 -35q27 0 43 4l-12 -94q-28 -7 -65 -7q-97 0 -133.5 56t-12.5 159z" />
<glyph unicode="&#x3ba;" horiz-adv-x="1034" d="M55 0l219 989h107l-125 -557l700 557h150l-561 -446l340 -543h-131l-297 477l-230 -180l-65 -297h-107z" />
<glyph unicode="&#x3bb;" horiz-adv-x="985" d="M-96 0l645 995l-37 176q-14 68 -43.5 94.5t-81.5 26.5q-48 0 -88 -16l4 98q54 15 107 15q180 -3 213 -185l235 -1204h-113l-165 862l-551 -862h-125z" />
<glyph unicode="&#x3bc;" horiz-adv-x="1132" d="M-33 -377l309 1366h109l-152 -672q-29 -124 26 -186.5t159 -62.5q90 0 190 49t166 119l166 753h109l-177 -786q-12 -61 5.5 -96t66.5 -35q27 0 43 4l-12 -94q-28 -7 -66 -7q-168 0 -151 177q-79 -77 -178.5 -127t-192.5 -50q-153 0 -207 115l-104 -467h-109z" />
<glyph unicode="&#x3bd;" horiz-adv-x="985" d="M129 989h119l164 -878q190 198 328 429t188 449h106q-55 -238 -218 -502.5t-386 -486.5h-108z" />
<glyph unicode="&#x3be;" horiz-adv-x="1005" d="M70 301q0 91 36.5 164.5t95.5 119.5t123 73t130 36q-37 7 -73.5 23.5t-70 44.5t-54.5 74t-21 102q0 100 90.5 196.5t212.5 135.5h-217l24 96h744l-25 -96h-383q-131 -28 -229.5 -121.5t-98.5 -194.5q0 -97 82.5 -149.5t210.5 -52.5h289l-23 -95h-276q-92 0 -172 -21 t-142.5 -62t-98.5 -107.5t-36 -151.5q0 -219 400 -219q108 0 157.5 -28.5t49.5 -96.5q0 -110 -146 -293h-119q146 173 146 259q0 35 -26.5 49t-80.5 14q-499 0 -499 301z" />
<glyph unicode="&#x3bf;" d="M92 410q0 156 70 294.5t196 224t277 85.5q200 0 319 -118.5t119 -315.5q0 -157 -70 -295.5t-196.5 -224t-278.5 -85.5q-199 0 -317.5 119t-118.5 316zM209 414q0 -157 85 -249.5t236 -92.5q120 0 219 72.5t153 187.5t54 243q0 157 -85 250t-236 93q-120 0 -219 -72.5 t-153 -188t-54 -243.5z" />
<glyph unicode="&#x3c0;" horiz-adv-x="1148" d="M76 0l205 893h-164l20 96h1104l-22 -96h-164l-203 -893h-109l205 893h-561l-203 -893h-108z" />
<glyph unicode="&#x3c1;" horiz-adv-x="1161" d="M-31 -377l197 873q52 235 193.5 376.5t340.5 141.5q180 0 276.5 -116t96.5 -298q0 -163 -63.5 -305t-184 -231t-270.5 -89q-118 0 -210.5 52.5t-145.5 140.5l-123 -545h-107zM217 252q39 -78 126 -129t202 -51q91 0 169.5 44t130.5 116.5t81.5 165t29.5 190.5 q0 91 -27 163.5t-88.5 119.5t-150.5 47q-156 0 -266 -118t-152 -304z" />
<glyph unicode="&#x3c2;" horiz-adv-x="980" d="M94 414q0 161 72 299t198.5 219.5t276.5 81.5q250 0 356 -180l-82 -62q-42 72 -113 109t-155 37q-131 0 -233.5 -73t-154.5 -187t-52 -246q0 -316 383 -316q101 0 151 -30t50 -97q0 -108 -146 -291h-121q156 172 156 254q0 38 -32 53t-97 15q-213 0 -335 104t-122 310z " />
<glyph unicode="&#x3c3;" d="M96 410q0 114 45 219t125.5 185t200.5 127.5t260 47.5h500l-21 -96h-264q127 -118 127 -320q0 -154 -69 -291t-194.5 -222t-277.5 -85q-198 0 -315 118.5t-117 316.5zM211 414q0 -157 84.5 -249.5t234.5 -92.5q120 0 219.5 72.5t154 186.5t54.5 240q0 114 -40.5 198.5 t-110.5 123.5h-96q-115 0 -212 -42t-158.5 -110.5t-95.5 -153t-34 -173.5z" />
<glyph unicode="&#x3c4;" horiz-adv-x="948" d="M152 893l22 96h830l-21 -96h-362l-156 -690q-14 -66 15.5 -98.5t82.5 -32.5q54 0 105 37l20 -86q-62 -48 -141 -48q-103 0 -160 54t-31 164l156 700h-360z" />
<glyph unicode="&#x3c5;" horiz-adv-x="1136" d="M138 252q-10 85 16 186l127 551h106l-127 -559q-39 -169 15.5 -263.5t201.5 -94.5q131 0 238.5 80.5t167 213.5t59.5 289q0 193 -78 314l99 45q43 -67 66.5 -163.5t23.5 -195.5q0 -184 -74.5 -339.5t-207.5 -248t-294 -92.5q-103 0 -177.5 34.5t-113 96t-48.5 146.5z" />
<glyph unicode="&#x3c6;" horiz-adv-x="1394" d="M98 432q0 208 117 357t344 225l31 -90q-185 -64 -280 -189t-95 -301q0 -154 95.5 -244.5t242.5 -109.5l205 934h43q137 0 249.5 -55.5t179 -160.5t66.5 -241q0 -89 -22.5 -171.5t-73.5 -158t-126 -131t-187.5 -88.5t-249.5 -33l-76 -352h-106l77 363q-87 10 -163 42.5 t-138 85.5t-97.5 135t-35.5 183zM657 72q129 0 231.5 39.5t165.5 107t95.5 153t32.5 181.5q0 158 -101.5 255t-240.5 99z" />
<glyph unicode="&#x3c7;" horiz-adv-x="980" d="M-162 -377l551 703l-217 663h115l182 -563l442 563h127l-520 -663l232 -703h-115l-197 602l-473 -602h-127z" />
<glyph unicode="&#x3c8;" horiz-adv-x="1441" d="M154 358q0 78 22 183l100 448h107l-100 -459q-23 -100 -23 -168q0 -104 87.5 -184t230.5 -98l280 1286h109l-285 -1294q192 1 316.5 100t160.5 268l119 549h106l-124 -571q-43 -201 -197.5 -321.5t-400.5 -121.5l-76 -352h-109l80 363q-178 24 -290.5 125.5t-112.5 246.5 z" />
<glyph unicode="&#x3c9;" horiz-adv-x="1579" d="M92 354q0 105 33.5 223t112 240t188.5 197l94 -49q-149 -103 -232 -268t-83 -337q0 -288 205 -288q80 0 146.5 60t109.5 151.5t71 212.5l58 252h106l-57 -252q-19 -86 -19 -160t20 -134.5t68.5 -95t122.5 -34.5q94 0 174.5 84t125 216t44.5 275q0 198 -90 322l99 45 q102 -147 102 -365q0 -177 -62.5 -333t-167.5 -248.5t-225 -92.5q-67 0 -118 19.5t-81 49.5t-49.5 72.5t-27 82.5t-8.5 86q-50 -130 -142.5 -220t-214.5 -90q-149 0 -226 104.5t-77 274.5z" />
<glyph unicode="&#x3ca;" horiz-adv-x="464" d="M96 190l178 799h107l-176 -786q-13 -61 4.5 -96t66.5 -35q27 0 43 4l-12 -94q-28 -7 -65 -7q-97 0 -133.5 56t-12.5 159zM104 1231q0 35 26 59.5t60 24.5q29 0 48.5 -19.5t19.5 -48.5q0 -34 -25.5 -59t-60.5 -25q-28 0 -48 20t-20 48zM522 1231q0 35 26 59.5t60 24.5 q29 0 48.5 -19.5t19.5 -48.5q0 -34 -25 -59t-59 -25q-29 0 -49.5 20t-20.5 48z" />
<glyph unicode="&#x3cb;" horiz-adv-x="1136" d="M138 252q-10 85 16 186l127 551h106l-127 -559q-39 -169 15.5 -263.5t201.5 -94.5q131 0 238.5 80.5t167 213.5t59.5 289q0 193 -78 314l99 45q43 -67 66.5 -163.5t23.5 -195.5q0 -184 -74.5 -339.5t-207.5 -248t-294 -92.5q-103 0 -177.5 34.5t-113 96t-48.5 146.5z M438 1231q0 35 26 59.5t60 24.5q29 0 48.5 -19.5t19.5 -48.5q0 -34 -25.5 -59t-60.5 -25q-28 0 -48 20t-20 48zM856 1231q0 35 26 59.5t60 24.5q29 0 48.5 -19.5t19.5 -48.5q0 -34 -25 -59t-59 -25q-29 0 -49.5 20t-20.5 48z" />
<glyph unicode="&#x3cc;" d="M92 410q0 156 70 294.5t196 224t277 85.5q200 0 319 -118.5t119 -315.5q0 -157 -70 -295.5t-196.5 -224t-278.5 -85.5q-199 0 -317.5 119t-118.5 316zM209 414q0 -157 85 -249.5t236 -92.5q120 0 219 72.5t153 187.5t54 243q0 157 -85 250t-236 93q-120 0 -219 -72.5 t-153 -188t-54 -243.5zM702 1176l127 399h132l-197 -399h-62z" />
<glyph unicode="&#x3cd;" horiz-adv-x="1136" d="M138 252q-10 85 16 186l127 551h106l-127 -559q-39 -169 15.5 -263.5t201.5 -94.5q131 0 238.5 80.5t167 213.5t59.5 289q0 193 -78 314l99 45q43 -67 66.5 -163.5t23.5 -195.5q0 -184 -74.5 -339.5t-207.5 -248t-294 -92.5q-103 0 -177.5 34.5t-113 96t-48.5 146.5z M672 1176l127 399h131l-197 -399h-61z" />
<glyph unicode="&#x3ce;" horiz-adv-x="1579" d="M92 354q0 77 19.5 165t58 178.5t105 175t151.5 141.5l92 -49q-148 -103 -230.5 -268.5t-82.5 -336.5q0 -288 205 -288q80 0 146.5 60t109.5 151.5t71 212.5l58 252h106l-57 -252q-20 -85 -20 -159.5t20.5 -134.5t69 -95t122.5 -35q94 0 174.5 84t125 216t44.5 275 q0 198 -90 320l99 47q100 -144 100 -365q0 -177 -62 -333t-166.5 -248.5t-224.5 -92.5q-67 0 -118 19.5t-81 49.5t-49.5 72.5t-27 82.5t-8.5 86q-50 -130 -142.5 -220t-214.5 -90q-149 0 -226 104.5t-77 274.5zM903 1176l127 399h131l-196 -399h-62z" />
<glyph unicode="&#x3d7;" horiz-adv-x="1034" d="M55 0l219 989h107l-125 -557l700 557h150l-561 -446l250 -393q18 -31 44 -41.5t72 -10.5l-30 -139q-38 -175 -168 -267.5t-330 -92.5q-95 0 -168 18l37 92q62 -16 131 -16q152 0 258 74.5t135 199.5l4 33q-39 20 -84 94l-239 383l-230 -180l-65 -297h-107z" />
<glyph unicode="&#x400;" horiz-adv-x="1155" d="M59 0l301 1366h867l-25 -106h-747l-113 -506h735l-24 -107h-734l-120 -541h747l-20 -106h-867zM496 1776h131l250 -295h-97z" />
<glyph unicode="&#x401;" horiz-adv-x="1155" d="M59 0l301 1366h867l-25 -106h-747l-113 -506h735l-24 -107h-734l-120 -541h747l-20 -106h-867zM571 1573q0 35 26 59.5t60 24.5q29 0 48.5 -19.5t19.5 -48.5q0 -34 -25 -59t-59 -25q-29 0 -49.5 20t-20.5 48zM989 1573q0 35 26 59.5t60 24.5q29 0 48.5 -19.5t19.5 -48.5 q0 -34 -25 -59t-59 -25q-29 0 -49.5 20t-20.5 48z" />
<glyph unicode="&#x402;" horiz-adv-x="1583" d="M238 1260l22 106h1012l-21 -106h-448l-115 -519q150 82 326 82q217 0 329 -124t72 -316l-2 -12q-23 -112 -71.5 -191.5t-118 -123t-146.5 -62.5t-172 -19l23 107q308 0 366 289l2 12q32 155 -54 244.5t-261 89.5q-157 0 -315 -72l-140 -645h-118l276 1260h-446z" />
<glyph unicode="&#x403;" horiz-adv-x="1110" d="M59 0l301 1366h867l-25 -106h-747l-279 -1260h-117zM770 1481l381 295h141l-418 -295h-104z" />
<glyph unicode="&#x404;" horiz-adv-x="1376" d="M137 567q0 145 41.5 276t114.5 229t168.5 170.5t206 109.5t225.5 37q181 0 321 -76t218 -217l-113 -52q-68 122 -180.5 180t-251.5 58q-206 0 -378 -144t-226 -384h845l-24 -107h-836q-4 -50 -4 -76q0 -221 134 -355t360 -134q207 0 385 156l84 -70q-101 -97 -224.5 -145 t-252.5 -48q-177 0 -316 73t-218 208.5t-79 310.5z" />
<glyph unicode="&#x405;" horiz-adv-x="1189" d="M47 215l88 84q72 -103 187.5 -160t259.5 -57q71 0 129.5 18t97.5 47.5t66 68.5t39 80t12 83q0 40 -19 76t-38.5 58.5t-71 51.5t-76 40.5t-92.5 40.5q-7 3 -11 5q-44 18 -69 28.5t-65.5 29.5t-64.5 34.5t-55.5 37.5t-50 45t-36 51t-25.5 61t-8 70q0 157 134 269t327 112 q155 0 281 -58.5t190 -156.5l-89 -80q-62 92 -167.5 140t-225.5 48q-134 0 -228.5 -79.5t-94.5 -182.5q0 -37 17 -69.5t41 -55.5t68 -48t79 -40.5t92 -38.5q41 -17 62.5 -26.5t60 -28t60 -31t54 -33.5t50.5 -39t40 -43.5t33 -51t19 -57.5t8 -67q0 -78 -32 -151t-90.5 -133 t-153 -96t-208.5 -36q-172 0 -314.5 68t-209.5 172z" />
<glyph unicode="&#x406;" horiz-adv-x="456" d="M59 0l301 1366h117l-301 -1366h-117z" />
<glyph unicode="&#x407;" horiz-adv-x="456" d="M59 0l301 1366h117l-301 -1366h-117zM188 1573q0 35 26 59.5t60 24.5q29 0 48.5 -19.5t19.5 -48.5q0 -34 -25.5 -59t-60.5 -25q-28 0 -48 20t-20 48zM606 1573q0 35 26 59.5t60 24.5q29 0 48.5 -19.5t19.5 -48.5q0 -34 -25 -59t-59 -25q-29 0 -49.5 20t-20.5 48z" />
<glyph unicode="&#x408;" horiz-adv-x="962" d="M-39 156l78 82q84 -156 274 -156q134 0 220 84.5t118 228.5l213 971h119l-213 -971q-49 -210 -164 -315t-287 -105q-119 0 -213.5 46.5t-144.5 134.5z" />
<glyph unicode="&#x409;" horiz-adv-x="2152" d="M-45 -25l27 115q58 0 105 18t106 74.5t116 155t126 266.5t143 402l114 360h768l-125 -567h379q184 0 275 -109.5t65 -271.5q-12 -81 -50 -154t-99 -133t-152.5 -95.5t-200.5 -35.5h-510l277 1260h-551l-82 -263q-61 -196 -120 -350t-111 -260.5t-107 -183t-100.5 -120 t-99 -68.5t-96 -32.5t-97.5 -7.5zM1182 106h381q143 0 243.5 86t122.5 218q22 124 -43 203t-196 79h-379z" />
<glyph unicode="&#x40a;" horiz-adv-x="2152" d="M59 0l299 1366h117l-133 -610h864l135 610h119l-135 -610h401q174 0 261 -104.5t63 -256.5q-12 -77 -48 -146t-93.5 -125.5t-144 -90t-189.5 -33.5h-533l142 649h-865l-143 -649h-117zM1182 106h405q132 0 224.5 79t113.5 202q22 114 -38.5 188t-180.5 74h-403z" />
<glyph unicode="&#x40b;" horiz-adv-x="1599" d="M238 1260l22 106h1012l-21 -106h-448l-115 -519q150 82 326 82q87 0 156.5 -15t125.5 -48t87 -85.5t41 -127t-13 -172.5l-80 -375h-119l84 375q39 183 -45 262.5t-270 79.5q-157 0 -315 -72l-140 -645h-118l276 1260h-446z" />
<glyph unicode="&#x40c;" horiz-adv-x="1200" d="M59 0l301 1366h117l-162 -733l811 733h160l-725 -651l479 -715h-139l-426 649l-192 -172l-107 -477h-117zM791 1481l380 295h142l-418 -295h-104z" />
<glyph unicode="&#x40d;" horiz-adv-x="1431" d="M59 0l301 1366h119l-262 -1180l1116 1180h119l-301 -1366h-119l264 1196l-1122 -1196h-115zM602 1776h131l250 -295h-96z" />
<glyph unicode="&#x40e;" horiz-adv-x="1265" d="M94 4l56 102q43 -24 96 -24q74 0 127.5 42t140.5 161l72 96l-367 985h127l320 -883l614 883h143l-807 -1135q-95 -133 -183 -194.5t-206 -61.5q-80 0 -133 29zM551 1622l70 51q37 -62 103 -94.5t144 -32.5q145 0 260 129l58 -55q-139 -158 -326 -158q-99 0 -179 42 t-130 118z" />
<glyph unicode="&#x40f;" horiz-adv-x="1413" d="M59 0l299 1366h117l-276 -1260h839l277 1260h119l-299 -1366h-486l-57 -260h-107l58 260h-484z" />
<glyph unicode="&#x410;" horiz-adv-x="1325" d="M-80 0l860 1366h146l258 -1366h-125l-64 336h-727l-209 -336h-139zM330 442h651l-147 807z" />
<glyph unicode="&#x411;" d="M59 0l299 1366h852l-22 -106h-733l-103 -461h363q156 0 257 -101t101 -241q0 -65 -17.5 -128.5t-56.5 -123.5t-96 -105t-142.5 -72.5t-189.5 -27.5h-512zM199 106h383q174 0 270 99.5t96 243.5q0 99 -72.5 171t-179.5 72h-368z" />
<glyph unicode="&#x412;" horiz-adv-x="1257" d="M59 0l301 1366h527q142 0 240 -85.5t98 -223.5q0 -145 -94 -250t-224 -119q85 -23 142 -104t57 -178q0 -79 -28.5 -151t-84 -129.5t-146 -91.5t-204.5 -34h-584zM199 106h450q156 0 245 91t89 215q0 103 -66.5 169t-181.5 66h-416zM342 754h449q81 0 142.5 25.5 t95.5 68.5t50.5 92.5t16.5 103.5q0 92 -69 154t-169 62h-403z" />
<glyph unicode="&#x413;" horiz-adv-x="1110" d="M59 0l301 1366h867l-25 -106h-747l-279 -1260h-117z" />
<glyph unicode="&#x414;" horiz-adv-x="1468" d="M-94 -252l78 358h104q36 28 70.5 67t80 111t93 170.5t108 248.5t127.5 341l111 322h756l-279 -1260h150l-78 -358h-107l56 252h-1108l-56 -252h-106zM227 106h811l254 1154h-544l-76 -226q-78 -231 -145.5 -400.5t-122 -271.5t-95 -158.5t-82.5 -97.5z" />
<glyph unicode="&#x415;" horiz-adv-x="1155" d="M59 0l301 1366h867l-25 -106h-747l-113 -506h735l-24 -107h-734l-120 -541h747l-20 -106h-867z" />
<glyph unicode="&#x416;" horiz-adv-x="1826" d="M-61 0l784 725l-430 641h133l405 -616h76l135 616h119l-135 -616h82l641 616h162l-717 -674l473 -692h-135l-438 655h-88l-144 -655h-119l144 655h-86l-701 -655h-161z" />
<glyph unicode="&#x417;" horiz-adv-x="1173" d="M10 260l94 62q47 -110 159 -175t257 -65q176 0 279.5 92t103.5 236q0 108 -93.5 173.5t-256.5 65.5h-203l25 107h270q70 0 136 17.5t121 51t88.5 88.5t33.5 123q0 104 -96.5 174t-255.5 70q-218 0 -371 -143l-57 82q77 77 192.5 122t241.5 45q205 0 335 -90t130 -249 q0 -78 -36.5 -145t-94 -110t-125.5 -68.5t-135 -29.5q111 -18 189.5 -98t78.5 -195q0 -86 -36 -163.5t-99.5 -135.5t-158 -92.5t-204.5 -34.5q-181 0 -323 79.5t-189 205.5z" />
<glyph unicode="&#x418;" horiz-adv-x="1431" d="M59 0l301 1366h119l-260 -1180l1114 1180h119l-301 -1366h-119l264 1196l-1122 -1196h-115z" />
<glyph unicode="&#x419;" horiz-adv-x="1431" d="M59 0l301 1366h119l-262 -1180l1116 1180h119l-301 -1366h-119l264 1196l-1122 -1196h-115zM641 1622l70 51q37 -62 103 -94.5t144 -32.5q146 0 261 129l57 -55q-139 -158 -326 -158q-99 0 -179 42t-130 118z" />
<glyph unicode="&#x41a;" horiz-adv-x="1200" d="M59 0l301 1366h117l-162 -733l811 733h160l-725 -651l479 -715h-139l-426 649l-192 -172l-107 -477h-117z" />
<glyph unicode="&#x41b;" horiz-adv-x="1439" d="M-43 -25l25 115q58 0 105 18t106 74.5t116 155t126 266.5t143 402l114 360h768l-299 -1366h-119l277 1260h-551l-82 -263q-61 -196 -120 -350t-111 -260.5t-106.5 -183t-100 -120t-98.5 -68.5t-95.5 -32.5t-97.5 -7.5z" />
<glyph unicode="&#x41c;" horiz-adv-x="1615" d="M59 0l301 1366h168l211 -1145l717 1145h182l-301 -1366h-118l270 1225l-768 -1225h-45l-230 1225l-270 -1225h-117z" />
<glyph unicode="&#x41d;" horiz-adv-x="1439" d="M59 0l301 1366h117l-133 -610h864l135 610h117l-301 -1366h-117l144 649h-867l-143 -649h-117z" />
<glyph unicode="&#x41e;" horiz-adv-x="1564" d="M137 567q0 170 60 323t161.5 262t241 173t293.5 64q128 0 239.5 -39.5t195 -113t131.5 -187t48 -252.5q0 -170 -60 -323t-161.5 -262t-241.5 -173t-294 -64q-127 0 -238.5 39.5t-195 113t-131.5 187t-48 252.5zM264 571q0 -116 39 -210t107 -154.5t157 -92.5t191 -32 q123 0 236.5 53.5t198.5 146t136 226.5t51 285q0 116 -39 210t-107 154.5t-157.5 92.5t-191.5 32q-123 0 -236.5 -53.5t-198.5 -146t-135.5 -226t-50.5 -285.5z" />
<glyph unicode="&#x41f;" horiz-adv-x="1439" d="M59 0l301 1366h1100l-301 -1366h-117l277 1260h-864l-279 -1260h-117z" />
<glyph unicode="&#x420;" d="M59 0l301 1366h480q157 0 257.5 -100.5t100.5 -241.5q0 -65 -17.5 -128.5t-57 -123.5t-96.5 -105t-143.5 -72.5t-191.5 -27.5h-389l-127 -567h-117zM324 674h383q174 0 270 99t96 243q0 99 -72.5 171.5t-179.5 72.5h-366z" />
<glyph unicode="&#x421;" horiz-adv-x="1374" d="M137 567q0 145 41.5 276t114.5 229t168.5 170.5t206 109.5t225.5 37q181 0 321 -76t218 -217l-113 -52q-68 122 -180.5 180t-251.5 58q-117 0 -228.5 -50.5t-199.5 -140.5t-141.5 -226t-53.5 -294q0 -221 134 -355t360 -134q207 0 385 156l84 -72q-101 -95 -224.5 -143 t-252.5 -48q-177 0 -316 73t-218 208.5t-79 310.5z" />
<glyph unicode="&#x422;" horiz-adv-x="1155" d="M240 1260l22 106h1012l-23 -106h-448l-277 -1260h-118l278 1260h-446z" />
<glyph unicode="&#x423;" horiz-adv-x="1265" d="M94 4l56 102q43 -24 96 -24q74 0 127.5 42t140.5 161l72 96l-367 985h127l322 -881l612 881h143l-807 -1135q-95 -133 -182.5 -194.5t-204.5 -61.5q-82 0 -135 29z" />
<glyph unicode="&#x424;" horiz-adv-x="1607" d="M150 600q0 126 58 240.5t159 199.5t243.5 137t304.5 56l31 133h117l-31 -137q247 -17 380.5 -142.5t133.5 -324.5q0 -124 -58.5 -238t-159 -199t-243 -137.5t-303.5 -56.5l-30 -131h-117l31 135q-248 15 -382 141t-134 324zM274 600q0 -152 109.5 -250t304.5 -110 l201 884q-272 -15 -443.5 -162t-171.5 -362zM805 240q270 13 443 161t173 361q0 155 -109 252.5t-304 109.5z" />
<glyph unicode="&#x425;" horiz-adv-x="1320" d="M-74 0l703 709l-371 657h137l322 -580l565 580h160l-664 -674l393 -692h-133l-348 616l-604 -616h-160z" />
<glyph unicode="&#x426;" horiz-adv-x="1468" d="M59 0l299 1366h117l-274 -1260h839l275 1260h119l-277 -1260h150l-80 -358h-107l58 252h-1119z" />
<glyph unicode="&#x427;" horiz-adv-x="1218" d="M220 818.5q-10 74.5 13 172.5l82 375h117l-82 -375q-38 -183 45.5 -262.5t268.5 -79.5q74 0 159.5 20t155.5 52l141 645h117l-299 -1366h-117l137 625q-150 -82 -327 -82q-87 0 -156.5 15t-126 48t-87.5 85.5t-41 127z" />
<glyph unicode="&#x428;" horiz-adv-x="1970" d="M59 0l299 1366h117l-276 -1260h639l276 1260h119l-277 -1260h639l277 1260h117l-299 -1366h-1631z" />
<glyph unicode="&#x429;" horiz-adv-x="2023" d="M59 0l299 1366h117l-274 -1260h639l274 1260h119l-275 -1260h637l277 1260h117l-275 -1260h150l-80 -358h-107l56 252h-1674z" />
<glyph unicode="&#x42a;" horiz-adv-x="1517" d="M238 1260l22 106h565l-125 -567h363q157 0 257.5 -100.5t100.5 -241.5q0 -65 -17.5 -128.5t-56.5 -123.5t-96 -105t-143 -72.5t-190 -27.5h-510l276 1260h-446zM547 106h381q118 0 203.5 49t125 125t39.5 169q0 99 -73 171t-181 72h-364z" />
<glyph unicode="&#x42b;" horiz-adv-x="1544" d="M59 0l299 1366h117l-123 -567h361q158 0 259 -100.5t101 -241.5q0 -65 -17.5 -128.5t-57 -123.5t-96.5 -105t-143 -72.5t-190 -27.5h-510zM199 106h381q118 0 203.5 49t125 125t39.5 169q0 99 -73 171t-183 72h-364zM1147 0l299 1366h117l-299 -1366h-117z" />
<glyph unicode="&#x42c;" d="M59 0l299 1366h117l-123 -567h361q158 0 259 -100.5t101 -241.5q0 -65 -17.5 -128.5t-57 -123.5t-96.5 -105t-143 -72.5t-190 -27.5h-510zM199 106h381q118 0 203.5 49t125 125t39.5 169q0 99 -73 171t-183 72h-364z" />
<glyph unicode="&#x42d;" horiz-adv-x="1376" d="M23 268l112 51q67 -122 180 -179.5t254 -57.5q117 0 230 52t202 147q138 147 177 366h-826l23 107h813q2 25 -2 77q-12 206 -143.5 328.5t-346.5 122.5q-207 0 -385 -156l-84 70q101 96 225.5 144.5t252.5 48.5q269 0 440.5 -163.5t171.5 -428.5q0 -178 -60.5 -329.5 t-166.5 -260.5q-106 -110 -245 -171t-284 -61q-181 0 -320.5 76t-217.5 217z" />
<glyph unicode="&#x42e;" horiz-adv-x="1994" d="M59 0l299 1366h117l-133 -610h242q39 183 145.5 327t261.5 225t332 81q127 0 238 -39.5t194.5 -113t131.5 -187t48 -252.5q0 -170 -60 -323t-161 -262t-240.5 -173t-293.5 -64q-128 0 -239.5 39.5t-195.5 113t-132 187t-48 252.5q0 28 4 82h-250l-143 -649h-117zM692 571 q0 -116 39 -210t107 -154.5t157 -92.5t191 -32q123 0 236.5 53.5t198.5 146t136 226.5t51 285q0 116 -39 210t-107 154.5t-157.5 92.5t-191.5 32q-123 0 -236.5 -53.5t-198.5 -146t-135.5 -226t-50.5 -285.5z" />
<glyph unicode="&#x42f;" horiz-adv-x="1216" d="M-8 0l524 573q-72 11 -137.5 50t-112.5 114.5t-47 171.5q0 91 33 172.5t95.5 145.5t161 101.5t220.5 37.5h508l-303 -1366h-117l125 565h-287l-510 -565h-153zM346 915q0 -104 78 -173.5t190 -69.5h351l129 588h-381q-171 0 -269 -100t-98 -245z" />
<glyph unicode="&#x430;" horiz-adv-x="1167" d="M92 381q0 167 63.5 310.5t184 233t272.5 89.5q118 0 211 -52.5t146 -140.5l35 168h108l-219 -989h-109l33 150q-62 -81 -149.5 -128t-188.5 -47q-173 0 -280 108.5t-107 297.5zM209 399q0 -151 81.5 -239t217.5 -88q100 0 191 54.5t145 135.5l104 475 q-39 78 -125.5 129.5t-201.5 51.5q-90 0 -168.5 -44.5t-131 -117t-82.5 -166t-30 -191.5z" />
<glyph unicode="&#x431;" horiz-adv-x="1179" d="M96 410q0 86 22.5 183t45.5 157q90 256 273 402.5t468 193.5l266 45l-22 -101l-256 -45q-245 -41 -412 -172t-241 -317q70 111 177.5 178t241.5 67q188 0 301 -113t113 -308q0 -157 -70 -295.5t-196.5 -224t-278.5 -85.5q-198 0 -315 118.5t-117 316.5zM209 414 q0 -157 85 -249.5t236 -92.5q120 0 219 72.5t153 187.5t54 243q0 157 -85 250t-236 93q-120 0 -219 -72.5t-153 -188t-54 -243.5z" />
<glyph unicode="&#x432;" horiz-adv-x="1091" d="M55 0l217 989h447q117 0 193.5 -57t76.5 -162q0 -97 -59.5 -171t-163.5 -95q61 -24 101 -81t40 -128q0 -129 -90.5 -212t-245.5 -83h-516zM182 96h389q98 0 162 58.5t64 146.5q0 70 -48 115t-133 45h-354zM283 557h391q93 0 146.5 57.5t53.5 137.5q0 68 -52.5 104.5 t-135.5 36.5h-328z" />
<glyph unicode="&#x433;" horiz-adv-x="870" d="M55 0l217 989h650l-23 -96h-541l-196 -893h-107z" />
<glyph unicode="&#x434;" horiz-adv-x="1132" d="M-129 -252l76 348h88q144 151 315 670l72 223h625l-195 -893h117l-76 -348h-98l57 252h-829l-56 -252h-96zM143 96h600l175 797h-429l-49 -152q-169 -517 -297 -645z" />
<glyph unicode="&#x435;" horiz-adv-x="1161" d="M94 412q0 122 43 233t116 192t175 129t215 48q193 0 305.5 -120.5t112.5 -307.5q0 -64 -14 -127h-836q-4 -20 -4 -56q0 -144 94 -239.5t268 -95.5q78 0 157.5 27t141.5 79l41 -78q-70 -54 -160.5 -87.5t-183.5 -33.5q-221 0 -346 120t-125 317zM221 545h737q3 15 3 45 q0 149 -87 240.5t-243 91.5q-147 0 -265 -111t-145 -266z" />
<glyph unicode="&#x436;" horiz-adv-x="1423" d="M-72 0l572 514l-357 475h127l326 -444h70l98 444h108l-98 -444h66l508 444h145l-569 -493l350 -496h-127l-320 461h-71l-101 -461h-108l100 461h-59l-510 -461h-150z" />
<glyph unicode="&#x437;" horiz-adv-x="995" d="M0 182l76 64q54 -85 146.5 -132.5t215.5 -47.5q52 0 99.5 11t90.5 34.5t69 66.5t26 101q0 81 -67 129.5t-203 48.5h-170l20 90h170q334 0 334 192q0 74 -65 128.5t-197 54.5q-94 0 -169.5 -25.5t-148.5 -85.5l-49 74q84 69 172 98t203 31q177 0 272 -76.5t95 -183.5 q0 -54 -20.5 -98t-51 -71.5t-71.5 -48t-75.5 -30t-68.5 -14.5q79 -10 141 -71t62 -147q0 -145 -111.5 -222t-292.5 -77q-284 0 -432 207z" />
<glyph unicode="&#x438;" horiz-adv-x="1105" d="M55 0l217 989h107l-182 -829l745 829h105l-218 -989h-106l184 842l-749 -842h-103z" />
<glyph unicode="&#x439;" horiz-adv-x="1105" d="M55 0l217 989h107l-182 -829l745 829h105l-218 -989h-106l184 840l-751 -840h-101zM403 1280l70 51q37 -62 103 -94.5t145 -32.5q145 0 260 129l57 -55q-139 -158 -325 -158q-99 0 -179.5 42t-130.5 118z" />
<glyph unicode="&#x43a;" horiz-adv-x="1034" d="M55 0l219 989h107l-125 -557l700 557h150l-561 -446l340 -543h-131l-297 477l-230 -180l-65 -297h-107z" />
<glyph unicode="&#x43b;" horiz-adv-x="1105" d="M-78 -25l21 103q42 0 82 28.5t89.5 100.5t108.5 212t125 345l72 225h627l-218 -989h-106l195 893h-429l-43 -133q-74 -239 -142.5 -398t-133 -241.5t-122 -114t-126.5 -31.5z" />
<glyph unicode="&#x43c;" horiz-adv-x="1335" d="M55 0l217 989h140l180 -809l532 809h152l-217 -989h-109l187 850l-559 -850h-39l-193 850l-184 -850h-107z" />
<glyph unicode="&#x43d;" horiz-adv-x="1105" d="M55 0l226 989h106l-96 -426h559l98 426h107l-226 -989h-106l106 467h-561l-106 -467h-107z" />
<glyph unicode="&#x43e;" d="M92 410q0 156 70 294.5t196 224t277 85.5q200 0 319 -118.5t119 -315.5q0 -157 -70 -295.5t-196.5 -224t-278.5 -85.5q-199 0 -317.5 119t-118.5 316zM209 414q0 -157 85 -249.5t236 -92.5q120 0 219 72.5t153 187.5t54 243q0 157 -85 250t-236 93q-120 0 -219 -72.5 t-153 -188t-54 -243.5z" />
<glyph unicode="&#x43f;" horiz-adv-x="1105" d="M55 0l226 989h774l-226 -989h-106l203 893h-559l-205 -893h-107z" />
<glyph unicode="&#x440;" horiz-adv-x="1161" d="M-29 -377l303 1366h107l-33 -149q62 81 149.5 127.5t190.5 46.5q172 0 278.5 -109.5t106.5 -298.5q0 -167 -63.5 -310t-183.5 -232t-271 -89q-119 0 -211 52.5t-145 140.5l-121 -545h-107zM217 252q39 -78 126 -129t202 -51q91 0 169.5 44t130.5 116.5t81.5 165 t29.5 190.5q0 151 -81.5 240.5t-217.5 89.5q-99 0 -189 -54.5t-146 -136.5z" />
<glyph unicode="&#x441;" horiz-adv-x="1011" d="M94 414q0 161 72 299t198.5 219.5t276.5 81.5q250 0 356 -180l-82 -62q-42 72 -113 109t-155 37q-100 0 -184 -42.5t-139.5 -113t-86 -161.5t-30.5 -189q0 -163 94 -251.5t244 -88.5q81 0 150 34t118 93l61 -74q-143 -150 -339 -150t-318.5 116.5t-122.5 322.5z" />
<glyph unicode="&#x442;" horiz-adv-x="800" d="M141 893l21 96h690l-23 -96h-290l-197 -893h-106l194 893h-289z" />
<glyph unicode="&#x443;" horiz-adv-x="985" d="M-94 -381l41 102q36 -18 96 -18q42 0 77.5 24.5t78.5 88.5l116 178l-192 995h115l165 -864l551 864h123l-778 -1206q-59 -94 -125.5 -139t-150.5 -45q-62 0 -117 20z" />
<glyph unicode="&#x444;" horiz-adv-x="1394" d="M98 432q0 114 37.5 214.5t114 184.5t207 133.5t301.5 49.5h2l74 352h108l-80 -362q87 -10 163 -42.5t138 -86t97.5 -135.5t35.5 -183q0 -89 -22.5 -171.5t-73.5 -158t-125.5 -131t-186.5 -88.5t-249 -33l-78 -352h-106l77 363q-87 10 -163 42.5t-138 85.5t-97.5 135 t-35.5 183zM215 434q0 -154 96 -244.5t242 -109.5l184 838q-129 0 -231 -39.5t-164.5 -107.5t-94.5 -154t-32 -183zM659 72q128 0 230 39.5t165 107t95.5 153t32.5 181.5q0 156 -96 247t-244 107z" />
<glyph unicode="&#x445;" horiz-adv-x="980" d="M-76 0l502 508l-260 481h121l215 -407l395 407h135l-477 -481l281 -508h-121l-232 436l-424 -436h-135z" />
<glyph unicode="&#x446;" horiz-adv-x="1118" d="M55 0l217 989h107l-197 -893h547l197 893h108l-198 -893h118l-75 -348h-97l56 252h-783z" />
<glyph unicode="&#x447;" horiz-adv-x="1095" d="M207 731l57 258h109l-60 -268q-36 -158 35 -220.5t236 -62.5q136 0 237 45l111 506h108l-221 -989h-108l90 399q-117 -57 -256 -57q-210 0 -297.5 88.5t-40.5 300.5z" />
<glyph unicode="&#x448;" horiz-adv-x="1591" d="M55 0l217 989h107l-197 -893h467l199 893h106l-196 -893h469l198 893h107l-217 -989h-1260z" />
<glyph unicode="&#x449;" horiz-adv-x="1624" d="M55 0l217 989h107l-197 -893h467l199 893h106l-196 -893h469l198 893h107l-197 -893h125l-76 -348h-98l57 252h-1288z" />
<glyph unicode="&#x44a;" horiz-adv-x="1222" d="M141 893l21 96h397l-82 -368h314q148 0 226.5 -74.5t78.5 -192.5q0 -147 -99.5 -250.5t-265.5 -103.5h-495l194 893h-289zM362 96h379q111 0 177.5 72t66.5 178q0 81 -53 130.5t-162 49.5h-315z" />
<glyph unicode="&#x44b;" horiz-adv-x="1398" d="M55 0l217 989h107l-82 -368h313q148 0 226.5 -74.5t78.5 -192.5q0 -147 -99 -250.5t-265 -103.5h-496zM182 96h379q111 0 177.5 72t66.5 178q0 81 -53 130.5t-162 49.5h-316zM1016 0l217 989h108l-217 -989h-108z" />
<glyph unicode="&#x44c;" horiz-adv-x="1042" d="M55 0l217 989h107l-82 -368h313q148 0 226.5 -74.5t78.5 -192.5q0 -147 -99 -250.5t-265 -103.5h-496zM182 96h379q111 0 177.5 72t66.5 178q0 81 -53 130.5t-162 49.5h-316z" />
<glyph unicode="&#x44d;" horiz-adv-x="1062" d="M20 166l70 59q48 -73 131.5 -115t186.5 -42q171 0 288 109.5t152 277.5h-584l21 96h575v24q0 155 -95 251t-271 96q-78 0 -157 -27.5t-140 -79.5l-43 78q70 54 161.5 87.5t184.5 33.5q219 0 345 -121t126 -318q0 -161 -73 -299t-202.5 -219.5t-285.5 -81.5 q-132 0 -232.5 53.5t-157.5 137.5z" />
<glyph unicode="&#x44e;" horiz-adv-x="1536" d="M55 0l217 989h107l-94 -430h192q46 194 190 324.5t334 130.5q200 0 318.5 -118.5t118.5 -315.5q0 -157 -69.5 -295.5t-195.5 -224t-278 -85.5q-199 0 -317.5 119t-118.5 316q0 37 2 55h-197l-102 -465h-107zM575 414q0 -157 85.5 -249.5t236.5 -92.5q120 0 219 72.5 t153 187.5t54 243q0 157 -85.5 250t-236.5 93q-120 0 -219 -72.5t-153 -188t-54 -243.5z" />
<glyph unicode="&#x44f;" horiz-adv-x="1099" d="M25 0l368 412q-95 14 -153 77t-58 164q0 139 95 237.5t251 98.5h514l-217 -989h-108l88 403h-297l-350 -403h-133zM293 659q0 -74 46 -117.5t120 -43.5h366l88 395h-395q-101 0 -163 -67t-62 -167z" />
<glyph unicode="&#x450;" horiz-adv-x="1161" d="M94 412q0 122 43 233t116 192t175 129t215 48q193 0 305.5 -120.5t112.5 -307.5q0 -64 -14 -127h-836q-4 -20 -4 -56q0 -144 94 -239.5t268 -95.5q78 0 157.5 27t141.5 79l41 -78q-70 -54 -160.5 -87.5t-183.5 -33.5q-221 0 -346 120t-125 317zM221 545h737q3 15 3 45 q0 149 -87 240.5t-243 91.5q-147 0 -265 -111t-145 -266zM389 1434h131l250 -295h-96z" />
<glyph unicode="&#x451;" horiz-adv-x="1161" d="M94 412q0 122 43 233t116 192t175 129t215 48q193 0 305.5 -120.5t112.5 -307.5q0 -64 -14 -127h-836q-4 -20 -4 -56q0 -144 94 -239.5t268 -95.5q78 0 157.5 27t141.5 79l41 -78q-70 -54 -160.5 -87.5t-183.5 -33.5q-221 0 -346 120t-125 317zM221 545h737q3 15 3 45 q0 149 -87 240.5t-243 91.5q-147 0 -265 -111t-145 -266zM465 1231q0 35 26 59.5t60 24.5q29 0 48 -19.5t19 -48.5q0 -34 -24.5 -59t-58.5 -25q-29 0 -49.5 20t-20.5 48zM883 1231q0 35 26 59.5t60 24.5q29 0 48 -19.5t19 -48.5q0 -34 -25 -59t-59 -25q-29 0 -49 20t-20 48z " />
<glyph unicode="&#x452;" horiz-adv-x="1107" d="M55 0l244 1102h-147l16 78h147l41 186h109l-41 -186h330l-17 -78h-331l-56 -262q76 75 168.5 124.5t188.5 49.5q128 0 208 -61t80 -181q0 -26 -12 -84l-180 -815q-30 -138 -99 -206t-186 -68q-70 0 -125 24l31 88q40 -18 88 -18q141 0 184 180l176 797q13 59 13 75 q0 88 -60.5 130.5t-154.5 42.5q-91 0 -181 -49.5t-161 -123.5l-164 -745h-109z" />
<glyph unicode="&#x453;" horiz-adv-x="870" d="M55 0l217 989h650l-23 -96h-541l-196 -893h-107zM590 1139l381 295h141l-418 -295h-104z" />
<glyph unicode="&#x454;" horiz-adv-x="1062" d="M94 414q0 162 72.5 299.5t201.5 219t285 81.5q132 0 233 -53.5t156 -137.5l-67 -59q-51 73 -134.5 115.5t-185.5 42.5q-167 0 -282 -105t-152 -266h582l-21 -96h-575q-2 -14 -2 -41q0 -155 94 -250.5t270 -95.5q78 0 157.5 27t141.5 79l41 -78q-70 -54 -160.5 -87.5 t-183.5 -33.5q-219 0 -345 121t-126 318z" />
<glyph unicode="&#x455;" horiz-adv-x="940" d="M16 150l74 69q41 -64 129.5 -108.5t196.5 -44.5q118 0 190 60.5t72 143.5q0 28 -14 53.5t-33 43t-55 37t-62.5 31t-73.5 30.5q-56 23 -85 36t-75 39t-69.5 50t-42 60.5t-18.5 78.5q0 119 97.5 202t262.5 83q121 0 218.5 -47t141.5 -115l-67 -68q-33 58 -119 99t-182 41 q-110 0 -177 -51t-67 -128q0 -32 17 -58.5t54 -49.5t68.5 -37.5t87.5 -36.5q43 -17 62.5 -25t58.5 -26.5t58.5 -31.5t47 -35.5t41 -44t23.5 -51t10 -62.5q0 -126 -100.5 -219t-271.5 -93q-273 0 -398 175z" />
<glyph unicode="&#x456;" horiz-adv-x="438" d="M55 0l219 989h107l-219 -989h-107zM297 1229q0 39 29.5 65.5t62.5 26.5q32 0 54 -22t22 -50q0 -40 -29 -66t-63 -26q-32 0 -54 21t-22 51z" />
<glyph unicode="&#x457;" horiz-adv-x="438" d="M55 0l219 989h107l-219 -989h-107zM102 1231q0 35 26 59.5t60 24.5q29 0 48.5 -19.5t19.5 -48.5q0 -34 -25.5 -59t-60.5 -25q-28 0 -48 20t-20 48zM520 1231q0 35 26 59.5t60 24.5q29 0 48.5 -19.5t19.5 -48.5q0 -34 -25 -59t-59 -25q-29 0 -49.5 20t-20.5 48z" />
<glyph unicode="&#x458;" horiz-adv-x="438" d="M-276 -377l30 88q38 -18 88 -18q142 0 185 180l247 1116h107l-248 -1116q-31 -139 -99.5 -206.5t-185.5 -67.5q-72 0 -124 24zM297 1229q0 39 29.5 65.5t62.5 26.5q32 0 54 -22t22 -50q0 -40 -29 -66t-63 -26q-32 0 -54 21t-22 51z" />
<glyph unicode="&#x459;" horiz-adv-x="1710" d="M-78 -25l21 103q42 0 82 28.5t89.5 100.5t108.5 212t125 345l72 225h627l-89 -403h342q131 0 206 -68t75 -182q0 -139 -95.5 -237.5t-250.5 -98.5h-512l195 893h-429l-43 -133q-74 -239 -142.5 -398t-133 -241.5t-122 -114t-126.5 -31.5zM852 96h391q102 0 163.5 66.5 t61.5 167.5q0 76 -48.5 119t-139.5 43h-342z" />
<glyph unicode="&#x45a;" horiz-adv-x="1710" d="M55 0l217 989h107l-94 -430h561l94 430h107l-95 -430h361q124 0 195 -65t71 -172q0 -133 -90.5 -227.5t-239.5 -94.5h-526l100 465h-559l-102 -465h-107zM850 96h407q95 0 153 62t58 155q0 71 -45.5 111.5t-130.5 40.5h-360z" />
<glyph unicode="&#x45b;" horiz-adv-x="1107" d="M55 0l244 1102h-160l15 78h161l41 186h109l-41 -186h311l-12 -78h-315l-58 -262q76 75 168.5 124.5t188.5 49.5q131 0 209.5 -62t78.5 -180q0 -44 -12 -84l-152 -688h-106l147 672q13 58 13 71q0 88 -60 131.5t-161 43.5q-87 0 -176 -50.5t-160 -124.5l-164 -743h-109z " />
<glyph unicode="&#x45c;" horiz-adv-x="1034" d="M55 0l219 989h107l-125 -557l700 557h150l-561 -446l340 -543h-131l-297 477l-230 -180l-65 -297h-107zM641 1139l381 295h141l-418 -295h-104z" />
<glyph unicode="&#x45d;" horiz-adv-x="1105" d="M111 217q0 38 12 84l151 688h107l-150 -670q-10 -50 -10 -73q0 -88 59.5 -131t159.5 -43q88 0 177.5 50t158.5 124l166 743h107l-220 -989h-106l33 150q-183 -175 -357 -175q-131 0 -209.5 62t-78.5 180zM362 1434h132l249 -295h-96z" />
<glyph unicode="&#x45e;" horiz-adv-x="985" d="M-94 -381l41 102q36 -18 96 -18q42 0 77.5 24.5t78.5 88.5l116 178l-192 995h115l165 -864l551 864h123l-778 -1206q-59 -94 -125.5 -139t-150.5 -45q-62 0 -117 20zM342 1280l70 51q37 -62 103 -94.5t144 -32.5q146 0 261 129l57 -55q-139 -158 -326 -158q-99 0 -179 42 t-130 118z" />
<glyph unicode="&#x45f;" horiz-adv-x="1091" d="M55 0l217 989h107l-197 -893h545l199 893h106l-217 -989h-332l-57 -258h-96l55 258h-330z" />
<glyph unicode="&#x472;" horiz-adv-x="1564" d="M137 567q0 170 60 323t161.5 262t241 173t293.5 64q128 0 239.5 -39.5t195 -113t131.5 -187t48 -252.5q0 -170 -60 -323t-161.5 -262t-241.5 -173t-294 -64q-127 0 -238.5 39.5t-195 113t-131.5 187t-48 252.5zM264 571q0 -116 39 -210t107 -154.5t157 -92.5t191 -32 q222 0 396 160.5t216 412.5q-151 -90 -317 -90q-53 0 -105 11.5t-79 22t-74 32.5q-57 29 -105 44t-110 15q-77 0 -163 -27.5t-153 -80.5v-11zM274 707q143 92 324 92q128 0 256 -64q57 -29 105 -44t112 -15q74 0 157 26.5t152 77.5v13q0 116 -39 210t-107 154.5t-157.5 92.5 t-191.5 32q-224 0 -397 -160.5t-214 -414.5z" />
<glyph unicode="&#x473;" d="M92 410q0 156 70 294.5t196 224t277 85.5q200 0 319 -118.5t119 -315.5q0 -157 -70 -295.5t-196.5 -224t-278.5 -85.5q-199 0 -317.5 119t-118.5 316zM209 414q0 -157 85 -249.5t236 -92.5q154 0 268 114t148 281q-97 -70 -217 -70q-77 0 -166 52q-84 45 -145 45 q-111 0 -209 -76v-4zM219 522q99 72 221 72q76 0 168 -51q27 -15 43 -22.5t44 -15t57 -7.5q104 0 204 71v6q0 157 -85 250t-236 93q-154 0 -268 -114.5t-148 -281.5z" />
<glyph unicode="&#x474;" horiz-adv-x="1581" d="M223 1366h127l223 -1235l615 987q86 132 196.5 199t229.5 67q87 0 158 -32l-54 -105q-61 23 -110 23q-88 0 -167 -51.5t-136 -141.5l-680 -1077h-146z" />
<glyph unicode="&#x475;" horiz-adv-x="1208" d="M125 989h113l165 -864l453 709q116 180 272 180q126 0 203 -86l-74 -78q-48 63 -131 63q-97 0 -172 -118l-512 -795h-120z" />
<glyph unicode="&#x48a;" horiz-adv-x="1513" d="M59 0l301 1366h119l-260 -1180l1114 1180h119l-276 -1260h210l-202 -358h-107l144 252h-189l264 1196l-1122 -1196h-115zM641 1622l72 51q36 -61 102 -94t143 -33q146 0 261 129l59 -55q-142 -158 -328 -158q-99 0 -179 42t-130 118z" />
<glyph unicode="&#x48b;" horiz-adv-x="1132" d="M55 0l217 989h107l-182 -829l745 829h105l-195 -893h178l-199 -348h-94l144 252h-158l184 842l-749 -842h-103zM403 1280l70 51q37 -61 103 -94t143 -33q147 0 260 129l59 -55q-70 -79 -154 -118.5t-171 -39.5q-99 0 -181 42.5t-129 117.5z" />
<glyph unicode="&#x48c;" d="M59 0l226 1028h-144l21 90h143l53 248h117l-53 -248h414l-21 -90h-414l-49 -229h361q158 0 259 -100.5t101 -241.5q0 -65 -17.5 -128.5t-57 -123.5t-96.5 -105t-143 -72.5t-190 -27.5h-510zM199 106h381q118 0 203.5 49t125 125t39.5 169q0 99 -74 171t-182 72h-364z" />
<glyph unicode="&#x48d;" horiz-adv-x="1044" d="M55 0l203 911h-145l18 78h143l84 377h109l-82 -377h332l-19 -78h-331l-64 -290h309q148 0 227 -74.5t79 -192.5q0 -147 -99.5 -250.5t-265.5 -103.5h-498zM186 96h377q111 0 177.5 72t66.5 178q0 81 -53 130.5t-162 49.5h-311z" />
<glyph unicode="&#x48e;" d="M59 0l301 1366h480q157 0 257.5 -100.5t100.5 -241.5q0 -82 -26.5 -158.5t-88 -146t-151.5 -107.5l104 -141l-92 -70l-129 177q-72 -11 -123 -11h-389l-127 -567h-117zM324 674h383q26 0 38 2l-133 176l93 70l159 -222q101 40 155 125.5t54 190.5q0 99 -72.5 171.5 t-179.5 72.5h-366z" />
<glyph unicode="&#x48f;" horiz-adv-x="1167" d="M-29 -377l303 1366h107l-33 -149q62 81 149.5 127.5t190.5 46.5q172 0 278.5 -109.5t106.5 -298.5q0 -161 -62 -303.5t-171 -228.5l67 -92l-82 -62l-73 100q-92 -45 -197 -45q-119 0 -211 52.5t-145 140.5l-121 -545h-107zM217 252q39 -78 126 -129t202 -51q70 0 145 30 l-160 217l82 62l164 -221q85 71 132.5 186t47.5 242q0 151 -81.5 240.5t-217.5 89.5q-99 0 -189 -54.5t-146 -136.5z" />
<glyph unicode="&#x490;" horiz-adv-x="1110" d="M59 0l299 1366h760l56 254h106l-78 -360h-747l-279 -1260h-117z" />
<glyph unicode="&#x491;" horiz-adv-x="870" d="M55 0l217 989h551l56 258h98l-78 -354h-541l-196 -893h-107z" />
<glyph unicode="&#x492;" horiz-adv-x="1110" d="M51 633l23 102h147l139 631h867l-23 -106h-749l-115 -525h424l-23 -102h-424l-141 -633h-117l140 633h-148z" />
<glyph unicode="&#x493;" horiz-adv-x="870" d="M18 461l21 84h135l98 444h650l-23 -96h-541l-75 -348h295l-19 -84h-297l-100 -461h-107l101 461h-138z" />
<glyph unicode="&#x494;" horiz-adv-x="1220" d="M59 0l303 1366h867l-25 -106h-747l-117 -525q152 76 297 76q123 0 221 -43t157 -120t80.5 -184.5t-8.5 -236.5q-19 -87 -54.5 -160t-92.5 -136.5t-131.5 -108t-176.5 -69.5t-224 -25l24 108q445 0 535 412q46 205 -52.5 331t-302.5 126q-131 0 -290 -62l-146 -643h-117z " />
<glyph unicode="&#x495;" horiz-adv-x="1167" d="M55 0l221 989h650l-23 -96h-541l-92 -410q151 154 332 154q99 0 178.5 -38t131 -110.5t67 -179t-13.5 -243.5q-23 -102 -67 -185t-112 -147t-166.5 -99.5t-220.5 -35.5l23 98q89 0 163 30t126.5 83.5t88 122t54.5 151.5q45 210 -37.5 333.5t-251.5 123.5 q-172 0 -315 -152l-88 -389h-107z" />
<glyph unicode="&#x496;" horiz-adv-x="1851" d="M-61 0l784 725l-430 641h133l405 -616h76l135 616h119l-135 -616h82l641 616h162l-717 -674l403 -586h125l-80 -358h-106l55 252h-59l-438 655h-88l-144 -655h-119l144 655h-86l-701 -655h-161z" />
<glyph unicode="&#x497;" horiz-adv-x="1452" d="M-72 0l572 514l-357 475h127l326 -444h70l98 444h108l-98 -444h66l508 444h145l-569 -493l288 -400h113l-76 -348h-96l55 252h-61l-320 461h-71l-101 -461h-108l100 461h-59l-510 -461h-150z" />
<glyph unicode="&#x498;" horiz-adv-x="1173" d="M10 260l94 62q47 -110 159 -175t257 -65q175 0 279 92t104 236q0 108 -93.5 173.5t-256.5 65.5h-203l25 107h270q70 0 136 17.5t121 51t88.5 88.5t33.5 123q0 104 -96.5 174t-255.5 70q-217 0 -373 -143l-55 82q77 77 192.5 122t241.5 45q205 0 335 -90t130 -249 q0 -78 -36.5 -145t-94.5 -110t-126 -68.5t-136 -29.5q113 -18 191.5 -98t78.5 -195q0 -172 -130.5 -294.5t-340.5 -131.5l-51 -227h-107l51 232q-156 17 -272.5 92.5t-159.5 187.5z" />
<glyph unicode="&#x499;" horiz-adv-x="995" d="M0 182l76 64q54 -85 146.5 -132.5t215.5 -47.5q52 0 99.5 10.5t90.5 34t69 66.5t26 102q0 81 -67 129.5t-203 48.5h-170l20 90h170q334 0 334 192q0 74 -65 128.5t-197 54.5q-94 0 -169.5 -25.5t-148.5 -85.5l-49 72q84 70 171.5 99.5t201.5 31.5q178 0 273.5 -77 t95.5 -185q0 -53 -20.5 -97t-51 -71t-71.5 -47.5t-75.5 -30t-68.5 -14.5q79 -10 141 -71t62 -147q0 -138 -101 -214.5t-268 -84.5l-51 -227h-97l52 229q-239 20 -371 205z" />
<glyph unicode="&#x49a;" horiz-adv-x="1222" d="M59 0l301 1366h117l-162 -733l811 733h160l-725 -651l412 -609h108l-77 -358h-107l55 252h-51l-426 651l-192 -174l-107 -477h-117z" />
<glyph unicode="&#x49b;" horiz-adv-x="1060" d="M55 0l219 989h107l-125 -557l700 557h150l-561 -446l282 -447h105l-76 -348h-96l55 252h-61l-297 477l-230 -180l-65 -297h-107z" />
<glyph unicode="&#x49c;" horiz-adv-x="1265" d="M59 0l303 1366h117l-137 -616h133l82 376h82l-82 -376h45l598 616h154l-654 -668l406 -698h-137l-373 655h-61l-82 -376h-82l82 376h-131l-146 -655h-117z" />
<glyph unicode="&#x49d;" horiz-adv-x="1101" d="M55 0l221 989h107l-100 -444h106l60 264h73l-59 -264h59l506 444h148l-566 -489l342 -500h-127l-313 461h-68l-63 -291h-74l64 291h-107l-102 -461h-107z" />
<glyph unicode="&#x49e;" horiz-adv-x="1200" d="M59 0l240 1083h-145l20 97h145l41 186h117l-41 -186h250l-22 -97h-248l-101 -450l811 733h160l-725 -651l479 -715h-139l-426 649l-192 -172l-107 -477h-117z" />
<glyph unicode="&#x49f;" horiz-adv-x="1036" d="M55 0l244 1102h-145l16 78h145l41 186h109l-41 -186h332l-17 -78h-333l-148 -670l700 557h148l-559 -446l340 -543h-131l-297 477l-232 -180l-63 -297h-109z" />
<glyph unicode="&#x4a0;" horiz-adv-x="1851" d="M244 1260l22 106h864l-161 -733l811 733h159l-725 -651l480 -715h-142l-424 651l-194 -174l-105 -477h-118l280 1260h-747z" />
<glyph unicode="&#x4a1;" horiz-adv-x="1466" d="M145 893l21 96h647l-125 -557l701 557h149l-561 -446l340 -543h-131l-297 477l-230 -180l-65 -297h-107l197 893h-539z" />
<glyph unicode="&#x4a2;" horiz-adv-x="1495" d="M59 0l301 1366h117l-133 -610h864l135 610h117l-276 -1260h149l-80 -358h-106l57 252h-162l144 649h-867l-143 -649h-117z" />
<glyph unicode="&#x4a3;" horiz-adv-x="1132" d="M55 0l226 989h106l-96 -426h559l98 426h107l-203 -893h119l-78 -348h-94l55 252h-131l106 467h-561l-106 -467h-107z" />
<glyph unicode="&#x4a4;" horiz-adv-x="2093" d="M59 0l303 1366h117l-133 -610h864l136 610h866l-23 -106h-749l-279 -1260h-119l146 649h-866l-146 -649h-117z" />
<glyph unicode="&#x4a5;" horiz-adv-x="1538" d="M55 0l221 989h107l-96 -430h561l96 430h649l-22 -96h-541l-201 -893h-106l102 465h-559l-104 -465h-107z" />
<glyph unicode="&#x4a6;" horiz-adv-x="2203" d="M59 0l303 1366h1100l-139 -631q152 76 297 76q123 0 221 -43t157.5 -120t81 -184.5t-8.5 -236.5q-24 -109 -74.5 -197t-131.5 -157t-201.5 -107t-272.5 -38l24 108q448 0 535 412q46 205 -52.5 331t-302.5 126q-128 0 -290 -62l-144 -643h-119l281 1260h-866l-281 -1260 h-117z" />
<glyph unicode="&#x4a7;" horiz-adv-x="1835" d="M55 0l221 989h775l-113 -506q151 154 334 154q98 0 177 -38t130.5 -110.5t66.5 -179t-14 -243.5q-22 -102 -66 -185t-112 -147t-166.5 -99.5t-220.5 -35.5l23 98q118 0 209.5 53t145.5 138t77 196q45 210 -36.5 333.5t-252.5 123.5q-172 0 -315 -152l-89 -389h-106 l199 893h-560l-200 -893h-107z" />
<glyph unicode="&#x4a8;" horiz-adv-x="1771" d="M160 600.5q1 89.5 22 185.5q62 277 269.5 440t527.5 163l-25 -109q-252 0 -425 -134.5t-226 -379.5q-18 -81 -20 -157t13.5 -144.5t47 -127t81.5 -105.5t116 -80.5t151.5 -51.5t186.5 -18q71 0 133 12q-148 107 -210.5 291t-10.5 414q51 231 192 379.5t326 148.5 q146 0 241 -86.5t121 -237.5t-16 -354q-40 -175 -132.5 -321.5t-230.5 -235.5q58 -10 115 -10q118 0 217 51l25 -100q-99 -58 -244 -58q-135 0 -256 45q-127 -45 -270 -45q-119 0 -221.5 21.5t-181 61.5t-139.5 96t-100 125.5t-58.5 150.5t-18.5 170.5zM913 776 q-47 -207 16 -382t222 -257q148 69 244 207.5t137 327.5q27 108 23 207.5t-30 176t-84.5 122t-140.5 45.5q-98 0 -179.5 -66.5t-131 -164t-76.5 -216.5z" />
<glyph unicode="&#x4a9;" horiz-adv-x="1384" d="M110 384q-2 88 17 185q18 81 65 158t121.5 142.5t184.5 105t239 39.5l-20 -96q-180 0 -313 -106.5t-168 -262.5q-47 -214 51 -345.5t321 -131.5q60 0 101 8q-88 78 -117.5 205t2.5 268q23 103 75.5 191.5t137 148t182.5 59.5q76 0 132 -27.5t86.5 -73t44 -107t11 -126 t-17.5 -133.5q-27 -119 -101.5 -227.5t-185.5 -179.5q40 -6 82 -6q97 0 177 41l20 -88q-86 -50 -217 -50q-112 0 -199 35q-100 -35 -215 -35q-119 0 -212.5 31t-152 85.5t-94 129.5t-37.5 163zM707 535q-72 -308 129 -418q117 52 193.5 154t107.5 241q15 68 15.5 127.5 t-15 109t-54.5 78.5t-98 29q-100 0 -174.5 -95t-103.5 -226z" />
<glyph unicode="&#x4aa;" horiz-adv-x="1374" d="M137 567q0 145 41.5 276t114.5 229t168.5 170.5t206 109.5t225.5 37q181 0 321 -76t218 -217l-113 -52q-68 122 -180.5 180t-251.5 58q-117 0 -228.5 -50.5t-199.5 -140.5t-141.5 -226t-53.5 -294q0 -221 134 -355t360 -134q207 0 385 156l84 -72q-101 -95 -224.5 -143 t-252.5 -48q-38 0 -56 2l-55 -92q33 23 70 23q53 0 85.5 -31t32.5 -86q0 -79 -59.5 -128.5t-155.5 -49.5q-133 0 -213 76l47 63q65 -71 170 -71q66 0 101 29.5t35 74.5q0 31 -22 49.5t-60 18.5q-48 0 -76 -35l-49 32l80 136q-221 37 -354.5 193t-133.5 388z" />
<glyph unicode="&#x4ab;" horiz-adv-x="1011" d="M94 414q0 161 72 299t198.5 219.5t276.5 81.5q250 0 356 -180l-82 -62q-42 72 -113 109t-155 37q-100 0 -184 -42.5t-139.5 -113t-86 -161.5t-30.5 -189q0 -163 94 -251.5t244 -88.5q81 0 150 34t118 93l61 -74q-143 -150 -339 -150h-33l-56 -90q33 23 70 23q53 0 86 -31 t33 -86q0 -79 -59.5 -128.5t-155.5 -49.5q-133 0 -213 76l47 63q65 -71 170 -71q66 0 100.5 29.5t34.5 74.5q0 31 -22 49.5t-60 18.5q-48 0 -76 -35l-49 32l78 136q-154 29 -245 140t-91 288z" />
<glyph unicode="&#x4ac;" horiz-adv-x="1155" d="M240 1260l22 106h1012l-23 -106h-448l-254 -1154h149l-77 -358h-107l55 252h-161l278 1260h-446z" />
<glyph unicode="&#x4ad;" horiz-adv-x="800" d="M141 893l21 96h690l-23 -96h-290l-177 -797h119l-75 -348h-97l56 252h-129l194 893h-289z" />
<glyph unicode="&#x4ae;" horiz-adv-x="1265" d="M221 1366h131l314 -672l608 672h151l-714 -782l-129 -584h-119l129 584z" />
<glyph unicode="&#x4af;" horiz-adv-x="985" d="M125 989h113l165 -864l551 864h125l-643 -989l-82 -377h-108l82 377z" />
<glyph unicode="&#x4b0;" horiz-adv-x="1265" d="M117 537l22 96h430l-348 733h131l314 -672l608 672h151l-669 -733h432l-23 -96h-465l-118 -537h-119l119 537h-465z" />
<glyph unicode="&#x4b1;" horiz-adv-x="985" d="M-25 0l19 82h313l-184 907h115l168 -858l548 858h125l-587 -907h315l-19 -82h-354l-84 -377h-106l84 377h-353z" />
<glyph unicode="&#x4b2;" horiz-adv-x="1361" d="M-74 0l703 709l-371 657h137l322 -580l565 580h160l-664 -674l336 -586h107l-78 -358h-107l56 252h-54l-348 618l-604 -618h-160z" />
<glyph unicode="&#x4b3;" horiz-adv-x="1019" d="M-76 0l502 508l-260 481h121l215 -407l395 407h135l-477 -481l229 -412h107l-76 -348h-98l57 252h-59l-232 436l-424 -436h-135z" />
<glyph unicode="&#x4b4;" horiz-adv-x="1816" d="M242 1260l22 106h1012l-23 -106h-446l-258 -1154h840l278 1260h119l-281 -1260h150l-78 -358h-107l56 252h-1118l280 1260h-446z" />
<glyph unicode="&#x4b5;" horiz-adv-x="1298" d="M145 893l21 96h690l-22 -96h-291l-178 -797h544l201 893h107l-199 -893h119l-78 -348h-94l55 252h-784l198 893h-289z" />
<glyph unicode="&#x4b6;" horiz-adv-x="1271" d="M220 818.5q-10 74.5 13 172.5l82 375h117l-82 -375q-38 -183 45.5 -262.5t268.5 -79.5q74 0 159.5 20t155.5 52l141 645h117l-274 -1260h149l-80 -358h-106l55 252h-160l137 625q-150 -82 -327 -82q-87 0 -156.5 15t-126 48t-87.5 85.5t-41 127z" />
<glyph unicode="&#x4b7;" horiz-adv-x="1120" d="M207 731l57 258h109l-60 -268q-36 -158 35 -220.5t236 -62.5q136 0 237 45l111 506h108l-198 -893h116l-75 -348h-97l56 252h-131l90 399q-117 -57 -256 -57q-210 0 -297.5 88.5t-40.5 300.5z" />
<glyph unicode="&#x4b8;" horiz-adv-x="1218" d="M233 991l82 375h117l-82 -375q-34 -162 27.5 -242t204.5 -96l104 473h82l-104 -477q74 0 159.5 20t155.5 52l141 645h117l-299 -1366h-117l137 625q-148 -79 -319 -82l-57 -264h-82l59 266q-192 16 -282.5 124.5t-43.5 321.5z" />
<glyph unicode="&#x4b9;" horiz-adv-x="1095" d="M207 731l57 258h109l-60 -268q-31 -134 17 -199.5t164 -79.5l79 367h76l-82 -371h17q136 0 237 45l111 506h108l-221 -989h-108l90 399q-117 -57 -254 -57l-39 -172h-76l39 174q-169 14 -238 104.5t-26 282.5z" />
<glyph unicode="&#x4ba;" horiz-adv-x="1218" d="M59 0l303 1366h117l-137 -625q154 82 324 82q87 0 156.5 -15t126 -48t88 -85.5t41.5 -127t-13 -172.5l-82 -375h-119l84 375q19 76 11.5 133.5t-30.5 97.5t-68 64.5t-100.5 35.5t-127.5 11q-156 0 -314 -72l-143 -645h-117z" />
<glyph unicode="&#x4bb;" horiz-adv-x="1105" d="M55 0l301 1366h107l-115 -526q76 75 168.5 124.5t188.5 49.5q131 0 209.5 -62t78.5 -180q0 -44 -12 -84l-152 -688h-106l147 672q13 58 13 71q0 88 -60 131.5t-161 43.5q-87 0 -176 -50.5t-160 -124.5l-164 -743h-107z" />
<glyph unicode="&#x4bc;" horiz-adv-x="1837" d="M135 911q8 55 41 113l96 -23q-24 -39 -32 -81q-16 -76 14 -120t113 -44h71q39 190 152 336.5t266 222.5t320 76q202 0 349 -96t209 -266t23 -380h-1206q-4 -50 -4 -76q0 -221 133 -355t360 -134q207 0 385 156l84 -72q-101 -96 -224.5 -143.5t-252.5 -47.5 q-271 0 -441.5 163t-170.5 429q0 28 4 78h-72q-123 0 -183 74t-34 190zM565 756h1086q14 141 -41.5 261t-172.5 192.5t-270 72.5q-133 0 -256 -62t-216.5 -183.5t-129.5 -280.5z" />
<glyph unicode="&#x4bd;" horiz-adv-x="1402" d="M102 713q10 52 41 112l80 -22q-25 -41 -33 -82q-38 -176 121 -176h39q42 202 191.5 335.5t343.5 133.5q193 0 306.5 -121t113.5 -307q0 -72 -17 -125h-835q-4 -24 -4 -58q0 -144 94.5 -239.5t267.5 -95.5q79 0 158.5 27t140.5 79l43 -78q-70 -54 -161.5 -87.5 t-184.5 -33.5q-219 0 -345 120t-126 317q0 33 2 49h-29q-124 0 -178 68.5t-29 183.5zM463 545h737q4 20 4 45q0 148 -88 240t-244 92q-147 0 -264 -111t-145 -266z" />
<glyph unicode="&#x4be;" horiz-adv-x="1837" d="M133 911q12 59 43 111l96 -21q-24 -39 -32 -81q-16 -76 14 -120t113 -44h71q39 190 152 336.5t266 222.5t320 76q202 0 349 -96t209 -266t23 -380h-1208q-4 -50 -4 -76q0 -222 133.5 -355.5t361.5 -133.5q207 0 385 156l84 -72q-193 -184 -462 -191l-52 -229h-106l53 236 q-236 27 -379 184.5t-143 400.5q0 28 4 78h-72q-122 0 -183 74t-36 190zM565 756h1086q14 141 -41.5 261t-172.5 192.5t-270 72.5q-133 0 -256.5 -62t-217 -183.5t-128.5 -280.5zM1055 1573q0 35 26 59.5t60 24.5q29 0 48 -19.5t19 -48.5q0 -34 -25 -59t-59 -25 q-29 0 -49 20t-20 48zM1475 1573q0 35 25 59.5t59 24.5q29 0 48 -19.5t19 -48.5q0 -34 -25 -59t-59 -25q-29 0 -48 20t-19 48z" />
<glyph unicode="&#x4bf;" horiz-adv-x="1402" d="M102 713q10 52 41 112l80 -22q-24 -34 -33 -82q-38 -176 121 -176h39q42 202 191.5 335.5t343.5 133.5q193 0 306.5 -121t113.5 -307q0 -70 -17 -127h-835q-4 -20 -4 -56q0 -144 94.5 -239.5t267.5 -95.5q78 0 157.5 27t141.5 79l43 -78q-70 -54 -161.5 -87.5 t-184.5 -33.5h-25l-51 -227h-96l53 238q-167 32 -259.5 145.5t-92.5 280.5q0 31 2 47h-29q-124 0 -178 69.5t-29 184.5zM463 545h737q4 20 4 45q0 148 -88 240t-244 92q-147 0 -264 -111t-145 -266zM711 1231q0 35 26 59.5t60 24.5q29 0 48 -19.5t19 -48.5q0 -34 -25 -59 t-59 -25q-29 0 -49 20t-20 48zM1130 1231q0 35 25 59.5t59 24.5q29 0 48.5 -19.5t19.5 -48.5q0 -34 -25 -59t-59 -25q-29 0 -48.5 20t-19.5 48z" />
<glyph unicode="&#x4c0;" horiz-adv-x="456" d="M59 0l301 1366h117l-301 -1366h-117z" />
<glyph unicode="&#x4c1;" horiz-adv-x="1826" d="M-61 0l784 725l-430 641h133l403 -616h78l135 616h119l-135 -616h82l641 616h162l-717 -676l473 -690h-135l-438 655h-88l-144 -655h-119l144 655h-86l-701 -655h-161zM838 1622l69 51q37 -61 104 -94t144 -33q145 0 260 129l58 -55q-139 -158 -326 -158q-99 0 -179 42 t-130 118z" />
<glyph unicode="&#x4c2;" horiz-adv-x="1423" d="M-72 0l572 514l-357 475h125l326 -444h72l98 444h108l-98 -444h66l508 444h145l-569 -493l350 -496h-127l-318 459h-73l-101 -459h-108l100 459h-61l-510 -459h-148zM561 1280l70 51q37 -62 103 -94.5t145 -32.5q145 0 260 129l57 -55q-139 -158 -326 -158q-99 0 -179 42 t-130 118z" />
<glyph unicode="&#x4c3;" horiz-adv-x="1191" d="M59 0l303 1366h117l-131 -594h127l653 594h160l-663 -594h6q261 0 371 -154.5t53 -410.5q-21 -95 -75 -180t-137.5 -152.5t-203.5 -107t-260 -39.5l24 108q210 0 351.5 109.5t181.5 281.5q46 209 -32 324t-288 115h-292l-148 -666h-117z" />
<glyph unicode="&#x4c4;" horiz-adv-x="1034" d="M55 0l221 989h107l-98 -440h123l546 440h154l-547 -442q193 -19 277.5 -154t35.5 -352q-44 -199 -192 -320.5t-365 -121.5l23 98q159 0 275 104.5t151 261.5q38 173 -30 282.5t-230 109.5h-242l-102 -455h-107z" />
<glyph unicode="&#x4c5;" horiz-adv-x="1521" d="M-43 -25l25 115q58 0 105 18t106 74.5t116 155t126 266.5t143 402l114 360h768l-276 -1260h211l-203 -358h-107l144 252h-187l277 1260h-551l-82 -263q-61 -196 -120 -350t-111 -260.5t-106.5 -183t-100 -120t-98.5 -68.5t-95.5 -32.5t-97.5 -7.5z" />
<glyph unicode="&#x4c6;" horiz-adv-x="1107" d="M-78 -25l21 103q42 0 82 28.5t89.5 100.5t108.5 212t125 345l72 225h627l-195 -893h178l-199 -348h-94l144 252h-158l195 893h-429l-43 -133q-74 -239 -142.5 -398t-133 -241.5t-122 -114t-126.5 -31.5z" />
<glyph unicode="&#x4c7;" horiz-adv-x="1439" d="M59 0l303 1366h117l-133 -610h864l136 610h116l-301 -1366q-45 -202 -160 -301.5t-286 -99.5q-101 0 -166 26l35 105q65 -25 127 -25q127 0 214 78t119 221l144 645h-866l-146 -649h-117z" />
<glyph unicode="&#x4c8;" horiz-adv-x="1105" d="M55 0l221 989h107l-96 -430h561l96 430h107l-248 -1116q-30 -138 -99 -206t-186 -68q-70 0 -125 24l31 88q40 -18 88 -18q141 0 184 180l129 592h-559l-104 -465h-107z" />
<glyph unicode="&#x4c9;" horiz-adv-x="1523" d="M59 0l301 1366h117l-133 -610h864l135 610h117l-276 -1260h211l-203 -358h-105l142 252h-187l144 649h-867l-143 -649h-117z" />
<glyph unicode="&#x4ca;" horiz-adv-x="1132" d="M55 0l226 989h106l-96 -426h559l98 426h107l-203 -893h178l-199 -348h-94l144 252h-158l106 467h-561l-106 -467h-107z" />
<glyph unicode="&#x4cb;" horiz-adv-x="1218" d="M220 818.5q-10 74.5 13 172.5l82 375h117l-82 -375q-38 -183 45.5 -262.5t268.5 -79.5q74 0 159.5 20t155.5 52l141 645h117l-299 -1366h-160l-55 -252h-107l80 358h150l112 519q-150 -82 -327 -82q-87 0 -156.5 15t-126 48t-87.5 85.5t-41 127z" />
<glyph unicode="&#x4cc;" horiz-adv-x="1095" d="M207 731l57 258h109l-60 -268q-36 -158 35 -220.5t236 -62.5q136 0 237 45l111 506h108l-221 -989h-131l-55 -252h-94l75 348h119l68 303q-117 -57 -256 -57q-210 0 -297.5 88.5t-40.5 300.5z" />
<glyph unicode="&#x4cd;" horiz-adv-x="1699" d="M59 0l301 1366h168l211 -1145l717 1145h182l-278 -1260h211l-203 -358h-104l141 252h-186l270 1225l-768 -1225h-45l-230 1225l-270 -1225h-117z" />
<glyph unicode="&#x4ce;" horiz-adv-x="1359" d="M55 0l217 989h140l180 -809l532 809h152l-197 -893h178l-196 -348h-96l145 252h-160l187 850l-559 -850h-39l-193 850l-184 -850h-107z" />
<glyph unicode="&#x4cf;" horiz-adv-x="438" d="M55 0l301 1366h107l-301 -1366h-107z" />
<glyph unicode="&#x4d0;" horiz-adv-x="1325" d="M-80 0l860 1366h146l258 -1366h-125l-64 336h-727l-209 -336h-139zM330 442h651l-147 807zM588 1622l69 51q37 -62 103 -94.5t145 -32.5q145 0 260 129l58 -55q-139 -158 -326 -158q-99 0 -179 42t-130 118z" />
<glyph unicode="&#x4d1;" horiz-adv-x="1167" d="M92 381q0 167 63.5 310.5t184 233t272.5 89.5q118 0 211 -52.5t146 -140.5l35 168h108l-219 -989h-109l33 150q-62 -81 -149.5 -128t-188.5 -47q-173 0 -280 108.5t-107 297.5zM209 399q0 -151 81.5 -239t217.5 -88q100 0 191 54.5t145 135.5l104 475 q-39 78 -125.5 129.5t-201.5 51.5q-90 0 -168.5 -44.5t-131 -117t-82.5 -166t-30 -191.5zM436 1280l70 51q37 -62 103 -94.5t145 -32.5q145 0 260 129l57 -55q-139 -158 -326 -158q-99 0 -179 42t-130 118z" />
<glyph unicode="&#x4d2;" horiz-adv-x="1325" d="M-80 0l860 1366h146l258 -1366h-125l-64 336h-727l-209 -336h-139zM330 442h651l-147 807zM623 1573q0 35 26 59.5t60 24.5q29 0 48 -19.5t19 -48.5q0 -34 -25.5 -59t-60.5 -25q-28 0 -47.5 20t-19.5 48zM1040 1573q0 35 26 59.5t60 24.5q29 0 48.5 -19.5t19.5 -48.5 q0 -34 -25 -59t-59 -25q-29 0 -49.5 20t-20.5 48z" />
<glyph unicode="&#x4d3;" horiz-adv-x="1167" d="M92 381q0 167 63.5 310.5t184 233t272.5 89.5q118 0 211 -52.5t146 -140.5l35 168h108l-219 -989h-109l33 150q-62 -81 -149.5 -128t-188.5 -47q-173 0 -280 108.5t-107 297.5zM209 399q0 -151 81.5 -239t217.5 -88q100 0 191 54.5t145 135.5l104 475 q-39 78 -125.5 129.5t-201.5 51.5q-90 0 -168.5 -44.5t-131 -117t-82.5 -166t-30 -191.5zM471 1231q0 35 26 59.5t60 24.5q29 0 48.5 -19.5t19.5 -48.5q0 -34 -25 -59t-59 -25q-29 0 -49.5 20t-20.5 48zM889 1231q0 35 26 59.5t60 24.5q29 0 48 -19.5t19 -48.5 q0 -34 -25 -59t-59 -25q-29 0 -49 20t-20 48z" />
<glyph unicode="&#x4d4;" horiz-adv-x="1923" d="M-82 0l1163 1366h910l-23 -106h-747l-113 -506h733l-24 -107h-734l-118 -541h747l-22 -106h-867l74 336h-557l-283 -336h-139zM422 442h500l176 801z" />
<glyph unicode="&#x4d5;" horiz-adv-x="1941" d="M92 381q0 167 63.5 310.5t184 233t272.5 89.5q118 0 211 -52.5t146 -140.5l35 168h108l-41 -188q63 88 164 150.5t219 62.5q187 0 288 -117.5t101 -306.5q0 -77 -16 -131h-826q-4 -24 -4 -56q0 -144 94.5 -239.5t268.5 -95.5q159 0 289 106l41 -78q-157 -121 -328 -121 q-166 0 -272.5 82t-135.5 219l-61 -276h-109l33 150q-62 -81 -149.5 -128t-188.5 -47q-173 0 -280 108.5t-107 297.5zM209 399q0 -151 81.5 -239t217.5 -88q100 0 191 54.5t145 135.5l104 475q-39 78 -125.5 129.5t-201.5 51.5q-90 0 -168.5 -44.5t-131 -117t-82.5 -166 t-30 -191.5zM1012 545h727q2 10 2 45q0 150 -82.5 241t-237.5 91q-147 0 -264.5 -111t-144.5 -266z" />
<glyph unicode="&#x4d6;" horiz-adv-x="1155" d="M59 0l301 1366h867l-25 -106h-747l-113 -506h735l-24 -107h-734l-120 -541h747l-20 -106h-867zM510 1642l68 52q36 -73 104.5 -114.5t161.5 -41.5q92 0 179 42t155 114l51 -52q-81 -84 -185 -132t-213 -48q-108 0 -192 48t-129 132z" />
<glyph unicode="&#x4d7;" horiz-adv-x="1161" d="M94 412q0 122 43 233t116 192t175 129t215 48q193 0 305.5 -120.5t112.5 -307.5q0 -64 -14 -127h-836q-4 -20 -4 -56q0 -144 94 -239.5t268 -95.5q78 0 157.5 27t141.5 79l41 -78q-70 -54 -160.5 -87.5t-183.5 -33.5q-221 0 -346 120t-125 317zM221 545h737q3 15 3 45 q0 149 -87 240.5t-243 91.5q-147 0 -265 -111t-145 -266zM430 1280l70 51q37 -62 103 -94.5t145 -32.5q145 0 260 129l57 -55q-139 -158 -326 -158q-99 0 -179 42t-130 118z" />
<glyph unicode="&#x4d8;" horiz-adv-x="1531" d="M134.5 418q-31.5 135 0.5 295h1208q5 67 5 80q0 221 -134.5 355t-361.5 134q-207 0 -385 -156l-84 70q101 97 225 145t252 48q270 0 441.5 -163.5t171.5 -428.5q0 -145 -41.5 -276t-114.5 -229t-168.5 -170.5t-206 -109.5t-225.5 -37q-152 0 -275.5 55.5t-199.5 154 t-107.5 233.5zM242 606q-14 -141 41 -260.5t171.5 -191.5t270.5 -72q203 0 375.5 143.5t226.5 380.5h-1085z" />
<glyph unicode="&#x4d9;" horiz-adv-x="1161" d="M96 403q0 63 15 125h835q4 24 4 58q0 93 -39 168t-122.5 121.5t-200.5 46.5q-78 0 -157.5 -27.5t-141.5 -79.5l-41 78q70 54 160.5 87.5t183.5 33.5q221 0 346 -119.5t125 -316.5q0 -163 -72.5 -301.5t-199 -220t-277.5 -81.5q-193 0 -305.5 120.5t-112.5 307.5zM197 399 q0 -149 86.5 -240t242.5 -91q147 0 265 110.5t145 265.5h-737q-2 -10 -2 -45z" />
<glyph unicode="&#x4da;" horiz-adv-x="1531" d="M134.5 418q-31.5 135 0.5 295h1208q5 67 5 80q0 221 -134.5 355t-361.5 134q-207 0 -385 -156l-84 70q101 97 225 145t252 48q270 0 441.5 -163.5t171.5 -428.5q0 -145 -41.5 -276t-114.5 -229t-168.5 -170.5t-206 -109.5t-225.5 -37q-152 0 -275.5 55.5t-199.5 154 t-107.5 233.5zM242 606q-14 -141 41 -260.5t171.5 -191.5t270.5 -72q203 0 375.5 143.5t226.5 380.5h-1085zM631 1573q0 35 26 59.5t60 24.5q29 0 48 -19.5t19 -48.5q0 -34 -25.5 -59t-60.5 -25q-28 0 -47.5 20t-19.5 48zM1049 1573q0 35 26 59.5t60 24.5q29 0 48 -19.5 t19 -48.5q0 -34 -25.5 -59t-60.5 -25q-28 0 -47.5 20t-19.5 48z" />
<glyph unicode="&#x4db;" horiz-adv-x="1161" d="M96 403q0 63 15 125h835q4 24 4 58q0 93 -39 168t-122.5 121.5t-200.5 46.5q-78 0 -157.5 -27.5t-141.5 -79.5l-41 78q70 54 160.5 87.5t183.5 33.5q221 0 346 -119.5t125 -316.5q0 -163 -72.5 -301.5t-199 -220t-277.5 -81.5q-193 0 -305.5 120.5t-112.5 307.5zM197 399 q0 -149 86.5 -240t242.5 -91q147 0 265 110.5t145 265.5h-737q-2 -10 -2 -45zM459 1231q0 35 25 59.5t59 24.5q29 0 48 -19.5t19 -48.5q0 -34 -25 -59t-59 -25q-29 0 -48 20t-19 48zM877 1231q0 35 25 59.5t59 24.5q29 0 49 -19.5t20 -48.5q0 -34 -26 -59t-60 -25 q-28 0 -47.5 20t-19.5 48z" />
<glyph unicode="&#x4dc;" horiz-adv-x="1826" d="M-61 0l784 725l-430 641h133l403 -616h78l135 616h119l-135 -616h82l641 616h162l-717 -676l473 -690h-135l-438 655h-88l-144 -655h-119l144 655h-86l-701 -655h-161zM874 1573q0 35 26.5 59.5t60.5 24.5q29 0 48 -19.5t19 -48.5q0 -34 -25 -59t-59 -25q-29 0 -49.5 20 t-20.5 48zM1294 1573q0 35 25 59.5t59 24.5q29 0 48.5 -19.5t19.5 -48.5q0 -34 -25 -59t-59 -25q-29 0 -48.5 20t-19.5 48z" />
<glyph unicode="&#x4dd;" horiz-adv-x="1423" d="M-72 0l572 514l-357 475h125l326 -444h72l98 444h108l-98 -444h66l508 444h145l-569 -493l350 -496h-127l-318 459h-73l-101 -459h-108l100 459h-61l-510 -459h-148zM596 1231q0 35 26 59.5t60 24.5q29 0 48.5 -19.5t19.5 -48.5q0 -34 -25 -59t-59 -25q-29 0 -49.5 20 t-20.5 48zM1014 1231q0 35 26 59.5t60 24.5q29 0 48 -19.5t19 -48.5q0 -34 -25 -59t-59 -25q-29 0 -49 20t-20 48z" />
<glyph unicode="&#x4de;" horiz-adv-x="1173" d="M10 260l94 62q47 -110 159 -175t257 -65q175 0 279 92t104 236q0 108 -93.5 173.5t-256.5 65.5h-203l25 107h270q70 0 136 17.5t121 51t88.5 88.5t33.5 123q0 104 -96.5 174t-255.5 70q-217 0 -373 -143l-55 82q77 77 192.5 122t241.5 45q205 0 335 -90t130 -249 q0 -78 -36.5 -145t-94.5 -110t-126 -68.5t-136 -29.5q113 -18 191.5 -98t78.5 -195q0 -86 -36 -163.5t-99.5 -135.5t-158 -92.5t-204.5 -34.5q-181 0 -323 79.5t-189 205.5zM494 1573q0 35 26 59.5t60 24.5q29 0 48 -19.5t19 -48.5q0 -34 -25 -59t-59 -25q-29 0 -49 20 t-20 48zM911 1573q0 35 26 59.5t60 24.5q29 0 48.5 -19.5t19.5 -48.5q0 -34 -25 -59t-59 -25q-29 0 -49.5 20t-20.5 48z" />
<glyph unicode="&#x4df;" horiz-adv-x="995" d="M0 182l76 64q54 -85 146.5 -132.5t215.5 -47.5q52 0 99.5 10.5t90.5 34t69 66.5t26 102q0 81 -67 129.5t-203 48.5h-170l20 90h170q334 0 334 192q0 74 -65 128.5t-197 54.5q-94 0 -169.5 -25.5t-148.5 -85.5l-49 72q84 70 171.5 99.5t201.5 31.5q178 0 273.5 -77 t95.5 -185q0 -53 -20.5 -97t-51 -71t-71.5 -47.5t-75.5 -30t-68.5 -14.5q79 -10 141 -71t62 -147q0 -145 -111.5 -222t-292.5 -77q-284 0 -432 207zM383 1231q0 35 26 59.5t60 24.5q29 0 48.5 -19.5t19.5 -48.5q0 -34 -25.5 -59t-60.5 -25q-28 0 -48 20t-20 48zM801 1231 q0 35 26 59.5t60 24.5q29 0 48 -19.5t19 -48.5q0 -34 -25 -59t-59 -25q-29 0 -49 20t-20 48z" />
<glyph unicode="&#x4e0;" horiz-adv-x="1173" d="M10 260l94 62q47 -110 159 -175t257 -65q176 0 279.5 92t103.5 236q0 109 -94 174t-258 65h-201l17 80l616 531h-704l22 106h893l-18 -82l-615 -528q217 -1 339 -94t122 -244q0 -188 -139 -315.5t-361 -127.5q-181 0 -323 79.5t-189 205.5z" />
<glyph unicode="&#x4e1;" horiz-adv-x="878" d="M-127 -156l84 60q43 -101 121 -155t209 -54q109 0 193 68t110 180q33 151 -44.5 239t-238.5 88h-125l17 74l520 549h-578l21 96h733l-16 -65l-525 -557q132 -5 220 -65t120 -157.5t6 -216.5q-32 -142 -143 -235.5t-272 -93.5q-306 0 -412 245z" />
<glyph unicode="&#x4e2;" horiz-adv-x="1431" d="M59 0l301 1366h119l-262 -1180l1116 1180h119l-301 -1366h-119l264 1196l-1122 -1196h-115zM645 1522l19 84h604l-19 -84h-604z" />
<glyph unicode="&#x4e3;" horiz-adv-x="1105" d="M55 0l217 989h107l-182 -829l745 829h105l-218 -989h-106l184 840l-751 -840h-101zM408 1180l18 84h604l-18 -84h-604z" />
<glyph unicode="&#x4e4;" horiz-adv-x="1431" d="M59 0l301 1366h119l-262 -1180l1116 1180h119l-301 -1366h-119l264 1196l-1122 -1196h-115zM676 1573q0 35 26 59.5t60 24.5q29 0 48 -19.5t19 -48.5q0 -34 -25 -59t-59 -25q-29 0 -49 20t-20 48zM1096 1573q0 35 25 59.5t59 24.5q29 0 48 -19.5t19 -48.5q0 -34 -25 -59 t-59 -25q-29 0 -48 20t-19 48z" />
<glyph unicode="&#x4e5;" horiz-adv-x="1105" d="M55 0l217 989h107l-182 -829l745 829h105l-218 -989h-106l184 840l-751 -840h-101zM438 1231q0 35 26 59.5t60 24.5q29 0 48.5 -19.5t19.5 -48.5q0 -34 -25.5 -59t-60.5 -25q-28 0 -48 20t-20 48zM856 1231q0 35 26 59.5t60 24.5q29 0 48.5 -19.5t19.5 -48.5 q0 -34 -25 -59t-59 -25q-29 0 -49.5 20t-20.5 48z" />
<glyph unicode="&#x4e6;" horiz-adv-x="1564" d="M137 567q0 170 60 323t161.5 262t241 173t293.5 64q128 0 239.5 -39.5t195 -113t131.5 -187t48 -252.5q0 -170 -60 -323t-161.5 -262t-241.5 -173t-294 -64q-127 0 -238.5 39.5t-195 113t-131.5 187t-48 252.5zM264 571q0 -116 39 -210t107 -154.5t157 -92.5t191 -32 q123 0 236.5 53.5t198.5 146t136 226.5t51 285q0 116 -39 210t-107 154.5t-157.5 92.5t-191.5 32q-123 0 -236.5 -53.5t-198.5 -146t-135.5 -226t-50.5 -285.5zM739 1573q0 35 26 59.5t60 24.5q29 0 48.5 -19.5t19.5 -48.5q0 -34 -25 -59t-59 -25q-29 0 -49.5 20t-20.5 48z M1159 1573q0 35 25 59.5t59 24.5q29 0 48.5 -19.5t19.5 -48.5q0 -34 -25 -59t-59 -25q-29 0 -48.5 20t-19.5 48z" />
<glyph unicode="&#x4e7;" d="M92 410q0 156 70 294.5t196 224t277 85.5q200 0 319 -118.5t119 -315.5q0 -157 -70 -295.5t-196.5 -224t-278.5 -85.5q-199 0 -317.5 119t-118.5 316zM209 414q0 -157 85 -249.5t236 -92.5q120 0 219 72.5t153 187.5t54 243q0 157 -85 250t-236 93q-120 0 -219 -72.5 t-153 -188t-54 -243.5zM467 1231q0 35 26 59.5t60 24.5q29 0 48.5 -19.5t19.5 -48.5q0 -34 -25 -59t-59 -25q-29 0 -49.5 20t-20.5 48zM885 1231q0 35 26 59.5t60 24.5q29 0 48 -19.5t19 -48.5q0 -34 -25 -59t-59 -25q-29 0 -49 20t-20 48z" />
<glyph unicode="&#x4e8;" horiz-adv-x="1564" d="M137 567q0 170 60 323t161.5 262t241 173t293.5 64q128 0 239.5 -39.5t195 -113t131.5 -187t48 -252.5q0 -170 -60 -323t-161.5 -262t-241.5 -173t-294 -64q-127 0 -238.5 39.5t-195 113t-131.5 187t-48 252.5zM264 571q0 -116 39 -210t107 -154.5t157 -92.5t191 -32 q219 0 392.5 158t217.5 407h-1100q-4 -50 -4 -76zM285 754h1095v39q0 116 -39 210t-107 154.5t-157.5 92.5t-191.5 32q-212 0 -380 -146.5t-220 -381.5z" />
<glyph unicode="&#x4e9;" d="M92 410q0 156 70 294.5t196 224t277 85.5q200 0 319 -118.5t119 -315.5q0 -157 -70 -295.5t-196.5 -224t-278.5 -85.5q-199 0 -317.5 119t-118.5 316zM209 414q0 -157 85 -249.5t236 -92.5q153 0 266.5 112.5t147.5 276.5h-733q-2 -16 -2 -47zM225 545h731v30 q0 157 -85 250t-236 93q-149 0 -261 -107.5t-149 -265.5z" />
<glyph unicode="&#x4ea;" horiz-adv-x="1564" d="M137 567q0 170 60 323t161.5 262t241 173t293.5 64q128 0 239.5 -39.5t195 -113t131.5 -187t48 -252.5q0 -170 -60 -323t-161.5 -262t-241.5 -173t-294 -64q-127 0 -238.5 39.5t-195 113t-131.5 187t-48 252.5zM264 571q0 -116 39 -210t107 -154.5t157 -92.5t191 -32 q219 0 392.5 158t217.5 407h-1100q-4 -50 -4 -76zM285 754h1095v39q0 116 -39 210t-107 154.5t-157.5 92.5t-191.5 32q-212 0 -380 -146.5t-220 -381.5zM739 1573q0 35 26 59.5t60 24.5q29 0 48.5 -19.5t19.5 -48.5q0 -34 -25 -59t-59 -25q-29 0 -49.5 20t-20.5 48z M1159 1573q0 35 25 59.5t59 24.5q29 0 48.5 -19.5t19.5 -48.5q0 -34 -25 -59t-59 -25q-29 0 -48.5 20t-19.5 48z" />
<glyph unicode="&#x4eb;" d="M92 410q0 156 70 294.5t196 224t277 85.5q200 0 319 -118.5t119 -315.5q0 -157 -70 -295.5t-196.5 -224t-278.5 -85.5q-199 0 -317.5 119t-118.5 316zM209 414q0 -157 85 -249.5t236 -92.5q152 0 265.5 112t148.5 275h-733q-2 -14 -2 -45zM225 545h731v30q0 157 -85 250 t-236 93q-149 0 -261 -107.5t-149 -265.5zM467 1231q0 35 26 59.5t60 24.5q29 0 48.5 -19.5t19.5 -48.5q0 -34 -25 -59t-59 -25q-29 0 -49.5 20t-20.5 48zM885 1231q0 35 26 59.5t60 24.5q29 0 48 -19.5t19 -48.5q0 -34 -25 -59t-59 -25q-29 0 -49 20t-20 48z" />
<glyph unicode="&#x4ec;" horiz-adv-x="1374" d="M23 268l112 51q67 -122 180 -179.5t254 -57.5q117 0 230 52t202 147q138 152 177 366h-826l23 107h813q2 25 -2 77q-12 206 -143.5 328.5t-346.5 122.5q-207 0 -385 -156l-84 70q101 96 225.5 144.5t252.5 48.5q269 0 440.5 -163.5t171.5 -428.5q0 -177 -61 -328.5 t-166 -261.5q-106 -110 -245 -171t-284 -61q-181 0 -320.5 76t-217.5 217zM547 1573q0 35 26 59.5t60 24.5q29 0 48 -19.5t19 -48.5q0 -34 -25 -59t-59 -25q-29 0 -49 20t-20 48zM965 1573q0 35 26 59.5t60 24.5q29 0 48 -19.5t19 -48.5q0 -34 -25 -59t-59 -25q-29 0 -49 20 t-20 48z" />
<glyph unicode="&#x4ed;" horiz-adv-x="1062" d="M20 166l70 59q48 -73 131.5 -115t186.5 -42q171 0 288 109.5t152 277.5h-584l21 96h575v24q0 155 -95 251t-271 96q-78 0 -157 -27.5t-140 -79.5l-43 78q70 54 161.5 87.5t184.5 33.5q219 0 345 -121t126 -318q0 -161 -73 -299t-202.5 -219.5t-285.5 -81.5 q-132 0 -232.5 53.5t-157.5 137.5zM324 1231q0 35 26 59.5t60 24.5q29 0 48 -19.5t19 -48.5q0 -34 -25.5 -59t-60.5 -25q-28 0 -47.5 20t-19.5 48zM741 1231q0 35 26 59.5t60 24.5q29 0 48.5 -19.5t19.5 -48.5q0 -34 -25 -59t-59 -25q-29 0 -49.5 20t-20.5 48z" />
<glyph unicode="&#x4ee;" horiz-adv-x="1265" d="M94 4l56 102q43 -24 96 -24q74 0 127.5 42t140.5 161l72 96l-367 985h127l320 -883l614 883h143l-807 -1135q-95 -133 -183 -194.5t-206 -61.5q-80 0 -133 29zM555 1522l18 84h605l-19 -84h-604z" />
<glyph unicode="&#x4ef;" horiz-adv-x="985" d="M-94 -381l41 102q36 -18 96 -18q42 0 77.5 24.5t78.5 88.5l116 178l-192 995h115l165 -864l551 864h123l-778 -1206q-59 -94 -125.5 -139t-150.5 -45q-62 0 -117 20zM346 1180l19 84h604l-19 -84h-604z" />
<glyph unicode="&#x4f0;" horiz-adv-x="1265" d="M94 4l56 102q43 -24 96 -24q74 0 127.5 42t140.5 161l72 96l-367 985h127l320 -883l614 883h143l-807 -1135q-95 -133 -183 -194.5t-206 -61.5q-80 0 -133 29zM586 1573q0 35 26 59.5t60 24.5q29 0 48 -19.5t19 -48.5q0 -34 -25 -59t-59 -25q-29 0 -49 20t-20 48z M1004 1573q0 35 26 59.5t60 24.5q29 0 48 -19.5t19 -48.5q0 -34 -25 -59t-59 -25q-29 0 -49 20t-20 48z" />
<glyph unicode="&#x4f1;" horiz-adv-x="985" d="M-94 -381l41 102q36 -18 96 -18q42 0 77.5 24.5t78.5 88.5l116 178l-192 995h115l165 -864l551 864h123l-778 -1206q-59 -94 -125.5 -139t-150.5 -45q-62 0 -117 20zM377 1231q0 35 26 59.5t60 24.5q29 0 48 -19.5t19 -48.5q0 -34 -25.5 -59t-60.5 -25q-28 0 -47.5 20 t-19.5 48zM795 1231q0 35 26 59.5t60 24.5q29 0 48 -19.5t19 -48.5q0 -34 -25 -59t-59 -25q-29 0 -49 20t-20 48z" />
<glyph unicode="&#x4f2;" horiz-adv-x="1265" d="M94 4l56 102q43 -24 96 -24q74 0 127.5 42t140.5 161l72 96l-367 985h127l320 -883l614 883h143l-807 -1135q-95 -133 -183 -194.5t-206 -61.5q-80 0 -133 29zM651 1481l264 295h125l-301 -295h-88zM936 1481l264 295h125l-301 -295h-88z" />
<glyph unicode="&#x4f3;" horiz-adv-x="985" d="M-94 -381l41 102q36 -18 96 -18q42 0 77.5 24.5t78.5 88.5l116 178l-192 995h115l165 -864l551 864h123l-778 -1206q-59 -94 -125.5 -139t-150.5 -45q-62 0 -117 20zM444 1139l265 295h125l-302 -295h-88zM729 1139l264 295h125l-301 -295h-88z" />
<glyph unicode="&#x4f4;" horiz-adv-x="1218" d="M220 818.5q-10 74.5 13 172.5l82 375h117l-82 -375q-38 -183 45.5 -262.5t268.5 -79.5q74 0 159.5 20t155.5 52l141 645h117l-299 -1366h-117l137 625q-150 -82 -327 -82q-87 0 -156.5 15t-126 48t-87.5 85.5t-41 127zM543 1573q0 35 26 59.5t60 24.5q29 0 48 -19.5 t19 -48.5q0 -34 -25.5 -59t-60.5 -25q-28 0 -47.5 20t-19.5 48zM961 1573q0 35 26 59.5t60 24.5q29 0 48 -19.5t19 -48.5q0 -34 -25 -59t-59 -25q-29 0 -49 20t-20 48z" />
<glyph unicode="&#x4f5;" horiz-adv-x="1095" d="M207 731l57 258h109l-62 -268q-17 -66 -10 -115t26.5 -81t59 -51.5t86.5 -27.5t111 -8q136 0 237 45l111 506h108l-221 -989h-108l90 399q-117 -57 -256 -57q-210 0 -297.5 88.5t-40.5 300.5zM426 1231q0 35 26 59.5t60 24.5q29 0 48.5 -19.5t19.5 -48.5q0 -34 -25.5 -59 t-60.5 -25q-28 0 -48 20t-20 48zM844 1231q0 35 26 59.5t60 24.5q29 0 48 -19.5t19 -48.5q0 -34 -25 -59t-59 -25q-29 0 -49 20t-20 48z" />
<glyph unicode="&#x4f6;" horiz-adv-x="1110" d="M59 0l301 1366h867l-23 -106h-749l-254 -1154h149l-80 -358h-106l55 252h-160z" />
<glyph unicode="&#x4f7;" horiz-adv-x="870" d="M55 0l217 989h650l-23 -96h-541l-176 -797h121l-78 -348h-96l55 252h-129z" />
<glyph unicode="&#x4f8;" horiz-adv-x="1544" d="M59 0l299 1366h117l-123 -567h361q158 0 259 -100.5t101 -241.5q0 -65 -17.5 -128.5t-57 -123.5t-96.5 -105t-143 -72.5t-190 -27.5h-510zM199 106h381q118 0 203.5 49t125 125t39.5 169q0 99 -74 171t-182 72h-364zM727 1573q0 35 26 59.5t60 24.5q29 0 48.5 -19.5 t19.5 -48.5q0 -34 -25 -59t-59 -25q-29 0 -49.5 20t-20.5 48zM1147 0l299 1366h117l-299 -1366h-117zM1147 1573q0 35 25 59.5t59 24.5q29 0 48 -19.5t19 -48.5q0 -34 -25 -59t-59 -25q-29 0 -48 20t-19 48z" />
<glyph unicode="&#x4f9;" horiz-adv-x="1398" d="M55 0l217 989h107l-82 -368h313q148 0 226.5 -74.5t78.5 -192.5q0 -147 -99 -250.5t-265 -103.5h-496zM182 94h379q111 0 177.5 72t66.5 180q0 81 -53 130.5t-162 49.5h-316zM582 1231q0 35 26 59.5t60 24.5q29 0 48 -19.5t19 -48.5q0 -34 -25 -59t-59 -25q-29 0 -49 20 t-20 48zM999 1231q0 35 26 59.5t60 24.5q29 0 48.5 -19.5t19.5 -48.5q0 -34 -25 -59t-59 -25q-29 0 -49.5 20t-20.5 48zM1016 0l217 989h108l-217 -989h-108z" />
<glyph unicode="&#x4fa;" horiz-adv-x="1110" d="M-434 -375l35 105q65 -25 127 -25q127 0 213.5 78t117.5 221l142 627h-148l23 96h145l141 639h867l-25 -106h-747l-117 -533h426l-21 -96h-428l-139 -631q-45 -202 -160 -301.5t-286 -99.5q-101 0 -166 26z" />
<glyph unicode="&#x4fb;" horiz-adv-x="870" d="M-274 -377l30 88q37 -18 88 -18q142 0 185 180l129 588h-142l19 84h141l100 444h650l-23 -96h-541l-77 -348h290l-18 -84h-291l-131 -588q-30 -138 -99 -206t-186 -68q-72 0 -124 24z" />
<glyph unicode="&#x4fc;" horiz-adv-x="1320" d="M-74 0l703 709l-371 657h137l322 -580l565 580h160l-664 -674l221 -387q101 -177 60 -352q-36 -165 -155.5 -259.5t-278.5 -94.5q-104 0 -166 26l35 105q65 -25 127 -25q128 0 213.5 76t113.5 196q27 132 -43 263l-215 378l-604 -618h-160z" />
<glyph unicode="&#x4fd;" horiz-adv-x="980" d="M-76 0l502 508l-260 481h121l215 -407l395 407h135l-477 -481l184 -334q98 -171 62 -336q-25 -107 -98 -173t-193 -66q-72 0 -125 24l31 88q38 -18 88 -18q75 0 127 45.5t67 118.5q25 128 -51 270l-164 309l-424 -436h-135z" />
<glyph unicode="&#x4fe;" horiz-adv-x="1320" d="M-74 0l649 655h-321l20 95h332l-348 616h137l322 -580l565 580h160l-606 -616h311l-21 -95h-327l372 -655h-133l-348 616l-604 -616h-160z" />
<glyph unicode="&#x4ff;" horiz-adv-x="980" d="M-76 0l461 467h-233l18 84h233l-237 438h121l215 -407l395 407h135l-434 -438h240l-19 -84h-241l258 -467h-121l-232 436l-424 -436h-135z" />
<glyph unicode="&#x510;" horiz-adv-x="1173" d="M111 430q27 122 131.5 200.5t242.5 90.5q-45 8 -87.5 33.5t-79 71.5t-48.5 110.5t4 150.5q21 90 88.5 159t161 104.5t197.5 35.5q167 0 292 -67t185 -164l-84 -72q-63 91 -164 144t-233 53q-120 0 -212 -59t-114 -168q-30 -126 54.5 -211.5t242.5 -85.5h227l-22 -107 h-293q-147 0 -246.5 -59t-126.5 -174q-33 -148 65.5 -241t301.5 -93q104 0 205.5 36.5t175.5 110.5l63 -77q-80 -86 -203 -131.5t-251 -45.5q-267 0 -392 129t-81 326z" />
<glyph unicode="&#x511;" horiz-adv-x="995" d="M53 250q0 111 84 187.5t228 80.5q-44 9 -84 32.5t-70.5 72t-30.5 110.5q0 53 21.5 101t66 89.5t122 66t179.5 24.5q145 0 250.5 -56.5t157.5 -140.5l-74 -65q-46 78 -132.5 124t-203.5 46q-125 0 -200.5 -53t-75.5 -142q0 -85 76 -132.5t200 -47.5h144l-21 -90h-205 q-313 0 -313 -189q0 -88 82.5 -145t224.5 -57q89 0 162 24t150 84l47 -80q-81 -66 -166 -92.5t-191 -26.5q-203 0 -315.5 81t-112.5 194z" />
<glyph unicode="&#x512;" horiz-adv-x="1439" d="M-43 -25l25 115q58 0 105 18t106 74.5t116 155t126 266.5t143 402l114 360h768l-299 -1366q-45 -200 -160.5 -300.5t-285.5 -100.5q-101 0 -166 26l35 105q65 -25 127 -25q127 0 214 78t119 221l275 1256h-551l-82 -263q-61 -196 -120 -350t-111 -260.5t-107 -183 t-100.5 -120t-98.5 -68.5t-95.5 -32.5t-96.5 -7.5z" />
<glyph unicode="&#x513;" horiz-adv-x="1105" d="M-78 -25l21 103q42 0 82 28.5t89.5 100.5t108.5 212t125 345l72 225h631l-248 -1116q-30 -138 -99 -206t-186 -68q-70 0 -125 24l31 88q40 -18 88 -18q141 0 184 180l226 1020h-433l-43 -133q-74 -239 -142.5 -398t-133 -241.5t-122 -114t-126.5 -31.5z" />
<glyph unicode="&#x51c;" horiz-adv-x="1775" d="M229 1366h127l64 -1204l602 1204h106l70 -1204l594 1204h135l-690 -1366h-131l-70 1171l-585 -1171h-132z" />
<glyph unicode="&#x51d;" horiz-adv-x="1472" d="M143 989h109l76 -842l467 842h90l92 -842l450 842h119l-540 -989h-103l-90 846l-465 -846h-102z" />
<glyph unicode="&#x524;" horiz-adv-x="1495" d="M59 0l301 1366h1100l-276 -1260h149l-80 -358h-106l57 252h-162l277 1260h-864l-279 -1260h-117z" />
<glyph unicode="&#x525;" horiz-adv-x="1132" d="M55 0l226 989h774l-203 -893h119l-78 -348h-94l55 252h-131l203 893h-559l-205 -893h-107z" />
<glyph unicode="&#x526;" horiz-adv-x="1314" d="M59 0l303 1366h117l-137 -625q154 82 324 82q87 0 156.5 -15t126 -48t88 -85.5t41.5 -127t-13 -172.5l-59 -266h149l-80 -359h-106l55 250h-160l84 375q19 76 11.5 133.5t-30.5 97.5t-68 64.5t-100.5 35.5t-127.5 11q-156 0 -314 -72l-143 -645h-117z" />
<glyph unicode="&#x527;" horiz-adv-x="1132" d="M55 0l301 1366h107l-115 -526q76 75 168.5 124.5t188.5 49.5q131 0 209.5 -62t78.5 -180q0 -44 -12 -84l-129 -592h119l-78 -348h-94l55 252h-131l147 672q13 58 13 71q0 88 -60 131.5t-161 43.5q-86 0 -174.5 -50.5t-161.5 -124.5l-164 -743h-107z" />
<glyph unicode="&#x52e;" horiz-adv-x="1495" d="M-43 -25l25 115q58 0 105 18t106 74.5t116 155t126 266.5t143 402l114 360h768l-276 -1260h149l-80 -358h-106l57 252h-162l277 1260h-551l-82 -263q-61 -196 -120 -350t-111 -260.5t-106.5 -183t-100 -120t-98.5 -68.5t-95.5 -32.5t-97.5 -7.5z" />
<glyph unicode="&#x52f;" horiz-adv-x="1132" d="M-78 -25l21 103q42 0 82 28.5t89.5 100.5t108.5 212t125 345l72 225h627l-195 -893h119l-78 -348h-94l55 252h-131l195 893h-429l-43 -133q-74 -239 -142.5 -398t-133 -241.5t-122 -114t-126.5 -31.5z" />
<glyph unicode="&#x1e02;" horiz-adv-x="1257" d="M59 0l301 1366h527q142 0 240 -85.5t98 -223.5q0 -145 -94 -250t-224 -119q85 -23 142 -104t57 -178q0 -79 -28.5 -151t-84 -129.5t-146 -91.5t-204.5 -34h-584zM199 106h450q156 0 245 91t89 215q0 103 -66.5 169t-181.5 66h-416zM342 754h449q81 0 142.5 25.5 t95.5 68.5t50.5 92.5t16.5 103.5q0 92 -69 154t-169 62h-403zM780 1569q0 34 26 60t62 26q29 0 49.5 -20.5t20.5 -49.5q0 -35 -26.5 -60.5t-61.5 -25.5q-30 0 -50 20t-20 50z" />
<glyph unicode="&#x1e03;" horiz-adv-x="1167" d="M55 0l301 1366h107l-115 -526q62 81 149.5 127.5t190.5 46.5q172 0 278.5 -109.5t106.5 -298.5q0 -167 -63.5 -310t-183.5 -232t-271 -89q-119 0 -211 52.5t-145 140.5l-37 -168h-107zM217 252q39 -78 126 -129t202 -51q91 0 169.5 44t130.5 116.5t81.5 165t29.5 190.5 q0 151 -81.5 240.5t-217.5 89.5q-99 0 -189 -54.5t-146 -136.5zM756 1569q0 34 26 60t62 26q29 0 49 -20.5t20 -49.5q0 -35 -26.5 -60.5t-61.5 -25.5q-29 0 -49 19.5t-20 50.5z" />
<glyph unicode="&#x1e0a;" horiz-adv-x="1417" d="M59 0l301 1366h426q151 0 278 -74.5t202 -209t75 -298.5q0 -115 -32.5 -226.5t-102 -212.5t-167 -177.5t-238.5 -122t-307 -45.5h-435zM199 106h315q158 0 292 54.5t223.5 147t139.5 214.5t50 258q0 207 -130 343.5t-325 136.5h-309zM872 1569q0 34 26.5 60t62.5 26 q29 0 49 -20.5t20 -49.5q0 -35 -26.5 -60.5t-61.5 -25.5q-30 0 -50 20t-20 50z" />
<glyph unicode="&#x1e0b;" horiz-adv-x="1167" d="M92 381q0 167 63.5 310.5t184 233t272.5 89.5q118 0 211 -52.5t146 -140.5l118 545h109l-303 -1366h-109l33 150q-62 -81 -149.5 -128t-188.5 -47q-173 0 -280 108.5t-107 297.5zM209 399q0 -151 81.5 -239t217.5 -88q100 0 191 54.5t145 135.5l104 475 q-39 78 -125.5 129.5t-201.5 51.5q-90 0 -168.5 -44.5t-131 -117t-82.5 -166t-30 -191.5zM748 1569q0 34 26 60t62 26q29 0 49 -20.5t20 -49.5q0 -35 -26.5 -60.5t-61.5 -25.5q-29 0 -49 19.5t-20 50.5z" />
<glyph unicode="&#x1e1e;" horiz-adv-x="1110" d="M59 0l301 1366h867l-25 -106h-747l-113 -506h735l-24 -107h-734l-143 -647h-117zM772 1569q0 34 26 60t62 26q29 0 49.5 -20.5t20.5 -49.5q0 -35 -26.5 -60.5t-61.5 -25.5q-30 0 -50 20t-20 50z" />
<glyph unicode="&#x1e1f;" horiz-adv-x="542" d="M90 0l199 893h-164l20 96h164l19 90q68 307 307 307q92 0 156 -43l-46 -77q-38 28 -108 28q-82 0 -129.5 -54t-71.5 -161l-20 -90h200l-20 -96h-201l-198 -893h-107zM573 1569q0 34 25.5 60t60.5 26q31 0 51.5 -20.5t20.5 -49.5q0 -35 -27 -60.5t-61 -25.5q-30 0 -50 20 t-20 50z" />
<glyph unicode="&#x1e22;" horiz-adv-x="1439" d="M59 0l301 1366h117l-133 -610h864l135 610h117l-301 -1366h-117l144 649h-867l-143 -649h-117zM881 1569q0 34 26 60t62 26q29 0 49 -20.5t20 -49.5q0 -35 -26.5 -60.5t-61.5 -25.5q-30 0 -49.5 19.5t-19.5 50.5z" />
</font>
</defs>
</svg>
