<?xml version="1.0" standalone="no"?>
<!DOCTYPE svg PUBLIC "-//W3C//DTD SVG 1.1//EN" "http://www.w3.org/Graphics/SVG/1.1/DTD/svg11.dtd" >
<svg xmlns="http://www.w3.org/2000/svg">
<metadata>Generated by IcoMoon</metadata>
<defs>
<font id="icomoon" horiz-adv-x="1024">
<font-face units-per-em="1024" ascent="1024" descent="0" />
<missing-glyph horiz-adv-x="1024" />
<glyph unicode="&#x20;" horiz-adv-x="0" d="" />
<glyph unicode="&#xe9f1;" glyph-name="3d-29" d="M512 816c-8.848 0-16 7.152-16 16v160c0 8.848 7.152 16 16 16s16-7.152 16-16v-160c0-8.848-7.152-16-16-16zM32.016 176c-5.872 0-11.52 3.232-14.336 8.848-3.952 7.904-0.752 17.52 7.152 21.472l256 128c7.888 3.92 17.504 0.752 21.472-7.152 3.952-7.904 0.752-17.52-7.152-21.472l-256-128c-2.288-1.152-4.736-1.696-7.136-1.696zM991.984 176c-2.4 0-4.848 0.544-7.136 1.68l-256 128c-7.904 3.952-11.104 13.568-7.152 21.472s13.568 11.072 21.472 7.152l256-128c7.904-3.952 11.104-13.568 7.152-21.472-2.816-5.6-8.464-8.832-14.336-8.832zM528 533.696v-412.864l310.624 141.184c5.712 2.608 9.376 8.304 9.376 14.576v402.56l-320-145.456zM185.376 262.032l310.624-141.184v412.848l-320 145.456v-402.56c0-6.272 3.664-11.968 9.376-14.56zM198.672 704l313.328-142.416 313.328 142.416-306.704 139.408c-4.208 1.92-9.040 1.92-13.248 0l-306.704-139.408z" />
<glyph unicode="&#xe9f2;" glyph-name="3d-model" d="M496 965.248l-444.88-603.76c-2.592-3.504-3.632-7.904-2.896-12.192s3.184-8.096 6.784-10.528l440.992-299.248v925.728zM972.88 361.488l-444.88 603.76v-925.728l440.992 299.232c3.6 2.432 6.048 6.256 6.784 10.528s-0.304 8.704-2.896 12.208z" />
<glyph unicode="&#xe9f3;" glyph-name="album" d="M624 464h-224c-8.848 0-16 7.168-16 16s7.152 16 16 16h224c8.848 0 16-7.168 16-16s-7.152-16-16-16zM528 368h-128c-8.848 0-16 7.168-16 16s7.152 16 16 16h128c8.848 0 16-7.168 16-16s-7.152-16-16-16zM848 912h-160v80c0 8.832-7.152 16-16 16s-16-7.168-16-16v-80h-128v80c0 8.832-7.152 16-16 16s-16-7.168-16-16v-80h-128v80c0 8.832-7.152 16-16 16s-16-7.168-16-16v-80h-160c-17.68 0-32-14.32-32-32v-832c0-17.68 14.32-32 32-32h672c17.68 0 32 14.32 32 32v832c0 17.68-14.32 32-32 32zM672 832c17.648 0 32-14.352 32-32s-14.352-32-32-32-32 14.352-32 32 14.352 32 32 32zM512 832c17.648 0 32-14.352 32-32s-14.352-32-32-32-32 14.352-32 32 14.352 32 32 32zM352 832c17.648 0 32-14.352 32-32s-14.352-32-32-32-32 14.352-32 32 14.352 32 32 32zM720 288c0-8.832-7.152-16-16-16h-384c-8.848 0-16 7.168-16 16v288c0 8.832 7.152 16 16 16h384c8.848 0 16-7.168 16-16v-288z" />
<glyph unicode="&#xe9f4;" glyph-name="album-2" d="M288 816c8.832 0 16 7.152 16 16v160c0 8.848-7.168 16-16 16s-16-7.152-16-16v-160c0-8.848 7.168-16 16-16zM512 816c8.832 0 16 7.152 16 16v160c0 8.848-7.168 16-16 16s-16-7.152-16-16v-160c0-8.848 7.168-16 16-16zM992 928h-208v-96c0-26.464-21.536-48-48-48s-48 21.536-48 48v96h-128v-96c0-26.464-21.536-48-48-48s-48 21.536-48 48v96h-128v-96c0-26.464-21.536-48-48-48s-48 21.536-48 48v96h-208c-8.832 0-16-7.152-16-16v-880c0-8.848 7.168-16 16-16h960c8.832 0 16 7.152 16 16v880c0 8.848-7.168 16-16 16zM976 64c0-8.832-7.168-16-16-16h-896c-8.832 0-16 7.168-16 16v640c0 8.832 7.168 16 16 16h896c8.832 0 16-7.168 16-16v-640zM736 816c8.832 0 16 7.152 16 16v160c0 8.848-7.168 16-16 16s-16-7.152-16-16v-160c0-8.848 7.168-16 16-16zM685.776 504.144c-2.56 4.336-7.024 7.216-12.032 7.76-4.992 0.496-10-1.312-13.424-4.992l-213.36-228.576-132.336 117.632c-3.456 3.088-8.080 4.448-12.672 3.92-4.592-0.592-8.688-3.136-11.264-7.008l-160-240c-3.28-4.912-3.584-11.216-0.8-16.416 2.784-5.216 8.208-8.464 14.112-8.464h736c5.744 0 11.040 3.072 13.904 8.064 2.848 4.992 2.8 11.12-0.128 16.080l-208 352zM496 560c0-44.183-35.817-80-80-80s-80 35.817-80 80c0 44.183 35.817 80 80 80s80-35.817 80-80z" />
<glyph unicode="&#xe9f5;" glyph-name="align-bottom" d="M16 112c0-8.832 7.152-16 16-16h960c8.848 0 16 7.168 16 16s-7.152 16-16 16h-960c-8.848 0-16-7.168-16-16zM176 896v-640c0-17.68 14.32-32 32-32h192c17.68 0 32 14.32 32 32v640c0 17.68-14.32 32-32 32h-192c-17.68 0-32-14.32-32-32zM592 608v-352c0-17.68 14.32-32 32-32h192c17.68 0 32 14.32 32 32v352c0 17.68-14.32 32-32 32h-192c-17.68 0-32-14.32-32-32z" />
<glyph unicode="&#xe9f6;" glyph-name="align-center-horizontal" d="M512 1008c-8.832 0-16-7.152-16-16v-960c0-8.848 7.168-16 16-16s16 7.152 16 16v960c0 8.848-7.168 16-16 16zM832 432h-640c-17.68 0-32-14.32-32-32v-192c0-17.68 14.32-32 32-32h640c17.68 0 32 14.32 32 32v192c0 17.68-14.32 32-32 32zM688 848h-352c-17.68 0-32-14.32-32-32v-192c0-17.68 14.32-32 32-32h352c17.68 0 32 14.32 32 32v192c0 17.68-14.32 32-32 32z" />
<glyph unicode="&#xe9f7;" glyph-name="align-center-vertical" d="M1008 512c0 8.832-7.152 16-16 16h-960c-8.848 0-16-7.168-16-16s7.152-16 16-16h960c8.848 0 16 7.168 16 16zM432 192v640c0 17.68-14.32 32-32 32h-192c-17.68 0-32-14.32-32-32v-640c0-17.68 14.32-32 32-32h192c17.68 0 32 14.32 32 32zM848 336v352c0 17.68-14.32 32-32 32h-192c-17.68 0-32-14.32-32-32v-352c0-17.68 14.32-32 32-32h192c17.68 0 32 14.32 32 32z" />
<glyph unicode="&#xe9f8;" glyph-name="align-left" d="M112 1008c-8.832 0-16-7.152-16-16v-960c0-8.848 7.168-16 16-16s16 7.152 16 16v960c0 8.848-7.168 16-16 16zM896 848h-640c-17.68 0-32-14.32-32-32v-192c0-17.68 14.32-32 32-32h640c17.68 0 32 14.32 32 32v192c0 17.68-14.32 32-32 32zM608 432h-352c-17.68 0-32-14.32-32-32v-192c0-17.68 14.32-32 32-32h352c17.68 0 32 14.32 32 32v192c0 17.68-14.32 32-32 32z" />
<glyph unicode="&#xe9f9;" glyph-name="align-right" d="M912 1008c8.832 0 16-7.152 16-16v-960c0-8.848-7.168-16-16-16s-16 7.152-16 16v960c0 8.848 7.168 16 16 16zM128 848h640c17.68 0 32-14.32 32-32v-192c0-17.68-14.32-32-32-32h-640c-17.68 0-32 14.32-32 32v192c0 17.68 14.32 32 32 32zM416 432h352c17.68 0 32-14.32 32-32v-192c0-17.68-14.32-32-32-32h-352c-17.68 0-32 14.32-32 32v192c0 17.68 14.32 32 32 32z" />
<glyph unicode="&#xe9fa;" glyph-name="align-top" d="M1008 912c0 8.832-7.152 16-16 16h-960c-8.848 0-16-7.168-16-16s7.152-16 16-16h960c8.848 0 16 7.168 16 16zM848 128v640c0 17.68-14.32 32-32 32h-192c-17.68 0-32-14.32-32-32v-640c0-17.68 14.32-32 32-32h192c17.68 0 32 14.32 32 32zM432 416v352c0 17.68-14.32 32-32 32h-192c-17.68 0-32-14.32-32-32v-352c0-17.68 14.32-32 32-32h192c17.68 0 32 14.32 32 32z" />
<glyph unicode="&#xe9fb;" glyph-name="android" d="M152 352v0c-30.928 0-56 25.072-56 56v256c0 30.928 25.072 56 56 56v0c30.928 0 56-25.072 56-56v-256c0-30.928-25.072-56-56-56zM872 352v0c-30.928 0-56 25.072-56 56v256c0 30.928 25.072 56 56 56v0c30.928 0 56-25.072 56-56v-256c0-30.928-25.072-56-56-56zM646.96 924.016l47.696 71.552c2.448 3.664 1.456 8.64-2.224 11.088-3.696 2.464-8.656 1.472-11.088-2.224l-48.576-72.88c-36.4 18.128-77.344 28.448-120.768 28.448v0c-43.424 0-84.368-10.32-120.768-28.432l-48.576 72.88c-2.448 3.68-7.424 4.688-11.088 2.224-3.68-2.448-4.672-7.424-2.224-11.088l47.696-71.552c-68.448-39.328-118.192-107.52-132.56-188.032h535.040c-14.368 80.512-64.112 148.704-132.56 188.016zM400 816c-17.68 0-32 14.32-32 32s14.32 32 32 32c17.68 0 32-14.32 32-32s-14.32-32-32-32zM624 816c-17.68 0-32 14.32-32 32s14.32 32 32 32c17.68 0 32-14.32 32-32s-14.32-32-32-32zM783.2 704h-542.4c-0.304-5.328-0.8-10.592-0.8-16v-448c0-17.68 14.32-32 32-32h64v-136c0-30.928 25.072-56 56-56s56 25.072 56 56v136h128v-136c0-30.928 25.072-56 56-56s56 25.072 56 56v136h64c17.68 0 32 14.32 32 32v448c0 5.408-0.496 10.672-0.8 16z" />
<glyph unicode="&#xe9fc;" glyph-name="angle" d="M992 16h-960c-8.848 0-16 7.168-16 16v960c0 8.832 7.152 16 16 16s16-7.168 16-16v-944h944c8.848 0 16-7.168 16-16s-7.152-16-16-16zM560 112h-448v448h16c238.208 0 432-193.792 432-432v-16z" />
<glyph unicode="&#xe9fd;" glyph-name="animation-14" d="M832 480c-97.040 0-176 78.96-176 176s78.96 176 176 176 176-78.96 176-176-78.96-176-176-176zM568.96 567.392c-4.784 7.424-14.672 9.584-22.112 4.8-107.92-69.408-184.752-173.28-220.384-292.16-21.056 172.192-86.816 418.256-286.432 533.808-7.648 4.416-17.44 1.824-21.856-5.824-4.432-7.648-1.824-17.44 5.824-21.856 65.664-38.032 280-197.856 280-658.16 0-8.832 7.168-16 16-16s16 7.168 16 16c0 169.408 85.296 325.408 228.144 417.28 7.44 4.784 9.584 14.688 4.816 22.112z" />
<glyph unicode="&#xe9fe;" glyph-name="animation-31" d="M896 336v352c0 17.68 14.32 32 32 32h80v160c0 17.68-14.32 32-32 32h-928c-17.68 0-32-14.32-32-32v-160h80c17.68 0 32-14.32 32-32v-352c0-17.68-14.32-32-32-32h-80v-160c0-17.68 14.32-32 32-32h928c17.68 0 32 14.32 32 32v160h-80c-17.68 0-32 14.32-32 32zM704 304h-384c-17.68 0-32 14.32-32 32v352c0 17.68 14.32 32 32 32h384c17.68 0 32-14.32 32-32v-352c0-17.68-14.32-32-32-32z" />
<glyph unicode="&#xe9ff;" glyph-name="animation-32" d="M144 176h-112c-8.832 0-16 7.152-16 16v112c0 8.848 7.168 16 16 16s16-7.152 16-16v-96h96c8.832 0 16-7.152 16-16s-7.168-16-16-16zM384 176h-112c-8.832 0-16 7.152-16 16s7.168 16 16 16h96v96c0 8.848 7.168 16 16 16s16-7.152 16-16v-112c0-8.848-7.168-16-16-16zM384 672c-8.832 0-16 7.152-16 16v96h-96c-8.832 0-16 7.152-16 16s7.168 16 16 16h112c8.832 0 16-7.152 16-16v-112c0-8.848-7.168-16-16-16zM32 672c-8.832 0-16 7.152-16 16v112c0 8.848 7.168 16 16 16h112c8.832 0 16-7.152 16-16s-7.168-16-16-16h-96v-96c0-8.848-7.168-16-16-16zM976 16h-416c-17.68 0-32 14.32-32 32v928c0 17.68 14.32 32 32 32h416c17.68 0 32-14.32 32-32v-928c0-17.68-14.32-32-32-32zM32 432c-8.832 0-16 7.152-16 16v112c0 8.848 7.168 16 16 16s16-7.152 16-16v-112c0-8.848-7.168-16-16-16zM384 432c-8.832 0-16 7.152-16 16v112c0 8.848 7.168 16 16 16s16-7.152 16-16v-112c0-8.848-7.168-16-16-16z" />
<glyph unicode="&#xea00;" glyph-name="app" d="M496 660.736l-448 160v-596.736c0-6.768 4.256-12.8 10.624-15.056l437.376-156.208v608zM512 688.992l447.472 159.808-443.088 126.592c-2.88 0.816-5.904 0.816-8.784 0l-443.072-126.592 447.472-159.808zM528 660.736v-608l437.376 156.208c6.368 2.256 10.624 8.288 10.624 15.056v596.736l-448-160z" />
<glyph unicode="&#xeaf2;" glyph-name="3d-29-line" d="M505.764 1002.332c-6.956-5.076-7.972-12.24-9.764-68.76l-2-63.092-168.972-76.728c-92.936-42.2-171.688-78.98-175-81.732-5.236-4.344-6.028-34.176-6.028-227.568v-222.572l-61.908-30.876c-65.368-32.604-72.588-39.392-62.316-58.584 9.016-16.844 20.040-14.568 83.632 17.284 33.268 16.664 62.256 30.296 64.408 30.296 2.156 0 81.024-35.1 175.272-78 94.244-42.9 173.856-78 176.912-78s82.668 35.1 176.912 78c94.248 42.9 173.116 78 175.272 78 2.152 0 31.14-13.632 64.408-30.296 63.592-31.852 74.616-34.128 83.632-17.284 10.272 19.192 3.052 25.98-62.316 58.584l-61.908 30.876v222.572c0 193.392-0.792 223.224-6.028 227.568-3.312 2.752-82.064 39.532-175 81.732l-168.972 76.728-2 63.092c-1.792 56.52-2.808 63.684-9.764 68.76-4.272 3.116-10.676 5.668-14.236 5.668s-9.964-2.552-14.236-5.668M665.756 763.384c78.232-35.54 142.244-65.86 142.244-67.384 0-4.72-285.24-132.612-291.808-130.836-13.604 3.676-284.192 128.248-284.192 130.836 0 3.072 279.172 131.328 286.756 131.74 2.616 0.144 68.764-28.816 147-64.356M346.12 588.7l147.88-67.296 1.036-196.704c0.572-108.184-0.38-196.7-2.116-196.7s-69.704 30.284-151.040 67.3l-147.88 67.296-1.036 196.704c-0.572 108.184 0.38 196.7 2.116 196.7s69.704-30.284 151.040-67.3M847.036 459.3l-1.036-196.704-147.88-67.296c-81.336-37.016-149.304-67.3-151.040-67.3s-2.688 88.52-2.116 196.708l1.036 196.708 146 66.9c80.3 36.792 148.268 67.072 151.036 67.288 4 0.316 4.824-40.112 4-196.304" />
<glyph unicode="&#xeaf3;" glyph-name="3d-model-line" d="M480.932 939.236c-247-334.656-423.696-575.448-428.684-584.188-5.576-9.776-5.604-12.040-0.248-21.048 7.332-12.328 457.184-318 468-318 9.068 0 459.508 304.496 467.448 315.992 3.064 4.436 4.364 11.852 2.972 16.948-1.364 4.984-104.716 147.66-229.676 317.060-210.244 285.016-228.136 308.092-239.764 309.236-11.676 1.152-14.508-1.392-40.048-36M494.452 89.12c-1.816-1.816-386.452 258.46-386.452 261.504 0 1.1 86.852 119.856 193 263.908l193 261.904 1.020-392.864c0.56-216.076 0.304-393.58-0.568-394.452M741.544 611.332c104.752-142.268 190.456-259.58 190.456-260.688 0-2.168-382.9-262.644-386.088-262.644-1.052 0-1.912 177.66-1.912 394.8 0 229.388 1.484 393.208 3.544 391 1.948-2.088 89.248-120.2 194-262.468" />
<glyph unicode="&#xeaf4;" glyph-name="album-line" d="M344 1000c-6.932-6.932-8-13.332-8-48v-40h-96c-90.668 0-96.444-0.444-104-8-7.904-7.904-8-13.332-8-448s0.096-440.096 8-448c7.888-7.888 13.332-8 384-8s376.112 0.112 384 8c7.904 7.904 8 13.332 8 448s-0.096 440.096-8 448c-7.556 7.556-13.332 8-104 8h-96v40c0 34.668-1.068 41.068-8 48-4.4 4.4-11.6 8-16 8s-11.6-3.6-16-8c-6.932-6.932-8-13.332-8-48v-40h-112v40c0 34.668-1.068 41.068-8 48-4.4 4.4-11.6 8-16 8s-11.6-3.6-16-8c-6.932-6.932-8-13.332-8-48v-40h-112v40c0 34.668-1.068 41.068-8 48-10.184 10.184-21.816 10.184-32 0M336 824c0-34.668 1.068-41.068 8-48 4.4-4.4 11.6-8 16-8s11.6 3.6 16 8c6.932 6.932 8 13.332 8 48v40h112v-40c0-34.668 1.068-41.068 8-48 10.184-10.184 21.816-10.184 32 0 6.932 6.932 8 13.332 8 48v40h112v-40c0-34.668 1.068-41.068 8-48 10.184-10.184 21.816-10.184 32 0 6.932 6.932 8 13.332 8 48v40h160v-816h-688v816h160v-40M296 600c-7.748-7.748-8-13.332-8-176s0.252-168.252 8-176c7.804-7.804 13.332-8 224-8s216.196 0.196 224 8c7.748 7.748 8 13.332 8 176s-0.252 168.252-8 176c-7.804 7.804-13.332 8-224 8s-216.196-0.196-224-8M704 424v-136h-368v272h368v-136M408 488c-4.4-4.4-8-11.6-8-16s3.6-11.6 8-16c7.588-7.588 13.332-8 112-8s104.412 0.412 112 8c4.4 4.4 8 11.6 8 16s-3.6 11.6-8 16c-7.588 7.588-13.332 8-112 8s-104.412-0.412-112-8M408 392c-4.4-4.4-8-11.6-8-16s3.6-11.6 8-16c7.24-7.24 13.332-8 64-8s56.76 0.76 64 8c4.4 4.4 8 11.6 8 16s-3.6 11.6-8 16c-7.24 7.24-13.332 8-64 8s-56.76-0.76-64-8" />
<glyph unicode="&#xeaf5;" glyph-name="album-2-line" d="M280 1000c-6.932-6.932-8-13.332-8-48v-40h-120c-114.668 0-120.356-0.356-128-8-7.904-7.904-8-13.332-8-448s0.096-440.096 8-448c7.912-7.912 13.332-8 496-8s488.088 0.088 496 8c7.904 7.904 8 13.332 8 448s-0.096 440.096-8 448c-7.644 7.644-13.332 8-128 8h-120v40c0 34.668-1.068 41.068-8 48-4.4 4.4-11.6 8-16 8s-11.6-3.6-16-8c-6.932-6.932-8-13.332-8-48v-40h-176v40c0 34.668-1.068 41.068-8 48-10.184 10.184-21.816 10.184-32 0-6.932-6.932-8-13.332-8-48v-40h-176v40c0 34.668-1.068 41.068-8 48-10.184 10.184-21.816 10.184-32 0M272 824c0-34.668 1.068-41.068 8-48 4.4-4.4 11.6-8 16-8s11.6 3.6 16 8c6.932 6.932 8 13.332 8 48v40h176v-40c0-34.668 1.068-41.068 8-48 10.184-10.184 21.816-10.184 32 0 6.932 6.932 8 13.332 8 48v40h176v-40c0-34.668 1.068-41.068 8-48 10.184-10.184 21.816-10.184 32 0 6.932 6.932 8 13.332 8 48v40h208v-816h-912v816h208v-40M398 684.492c-18.728-4.924-34.884-14.624-48.552-29.152-21.42-22.764-27.288-38.108-27.288-71.34 0-33.228 5.864-48.564 27.288-71.352 21.264-22.616 40.468-30.464 74.552-30.464 22.996 0 33.736 2 46 8.56 18.872 10.092 38.192 29.724 48.472 49.256 10.212 19.404 10.212 68.596 0 88-10.204 19.388-29.664 39.256-47.424 48.408-16.788 8.652-54.864 12.868-73.048 8.084M451.036 632.020c7.172-4.372 16.612-13.812 20.984-20.984 28.508-46.756-28.3-103.564-75.056-75.056-16.844 10.268-28.936 30.336-28.936 48.020 0 28.22 27.752 55.972 55.972 55.972 7.7 0 19.868-3.58 27.036-7.952M660.34 517c-6.48-6.048-54.42-56.9-106.532-113s-96.296-102.588-98.188-103.304c-1.896-0.716-31.436 23.54-65.648 53.908-34.216 30.364-64.984 56.764-68.38 58.664-16.040 8.976-23.652 0.060-107.712-126.2-45.796-68.788-84.028-128.94-84.964-133.676-1.024-5.192 1.632-11.94 6.692-17l8.392-8.392h755.548l6.224 8.892c3.424 4.888 6.228 11.748 6.228 15.248 0 8.204-210.172 364.244-218.916 370.86-10.256 7.756-19.9 5.988-32.744-6M761.724 318.7c45.252-76.616 82.276-140.064 82.276-141s-145.82-1.7-324.044-1.7h-324.044l120.552 180.564 32.768-29.4c91.228-81.852 97.748-87.164 107.060-87.164 10.236 0 8.232-2.004 142.728 142.632 41.24 44.348 76.204 79.448 77.704 78 1.496-1.448 39.748-65.316 85-141.932" />
<glyph unicode="&#xeaf6;" glyph-name="align-bottom-line" d="M184 904c-7.864-7.864-8-13.332-8-320s0.136-312.136 8-320c7.644-7.644 13.332-8 128-8s120.356 0.356 128 8c7.864 7.864 8 13.332 8 320s-0.136 312.136-8 320c-7.644 7.644-13.332 8-128 8s-120.356-0.356-128-8M400 584v-280h-176v560h176v-280M600 616c-7.748-7.748-8-13.332-8-176s0.252-168.252 8-176c7.644-7.644 13.332-8 128-8s120.356 0.356 128 8c7.748 7.748 8 13.332 8 176s-0.252 168.252-8 176c-7.644 7.644-13.332 8-128 8s-120.356-0.356-128-8M816 440v-136h-176v272h176v-136M24 136c-4.4-4.4-8-11.6-8-16s3.6-11.6 8-16c7.912-7.912 13.332-8 496-8s488.088 0.088 496 8c4.4 4.4 8 11.6 8 16s-3.6 11.6-8 16c-7.912 7.912-13.332 8-496 8s-488.088-0.088-496-8" />
<glyph unicode="&#xeaf7;" glyph-name="align-center-horizontal-line" d="M504 1000c-7.408-7.408-8-13.332-8-80v-72h-80c-74.668 0-80.532-0.532-88-8-7.644-7.644-8-13.332-8-128s0.356-120.356 8-128c7.468-7.468 13.332-8 88-8h80v-144h-152c-146.668 0-152.28-0.28-160-8-7.644-7.644-8-13.332-8-128s0.356-120.356 8-128c7.72-7.72 13.332-8 160-8h152v-72c0-66.668 0.592-72.592 8-80 10.184-10.184 21.816-10.184 32 0 7.408 7.408 8 13.332 8 80v72h152c146.668 0 152.28 0.28 160 8 7.644 7.644 8 13.332 8 128s-0.356 120.356-8 128c-7.72 7.72-13.332 8-160 8h-152v144h80c74.668 0 80.532 0.532 88 8 7.644 7.644 8 13.332 8 128s-0.356 120.356-8 128c-7.468 7.468-13.332 8-88 8h-80v72c0 66.668-0.592 72.592-8 80-10.184 10.184-21.816 10.184-32 0M672 712v-88h-304v176h304v-88M816 296v-88h-592v176h592v-88" />
<glyph unicode="&#xeaf8;" glyph-name="align-center-vertical-line" d="M184 840c-7.72-7.72-8-13.332-8-160v-152h-72c-66.668 0-72.592-0.592-80-8-4.4-4.4-8-11.6-8-16s3.6-11.6 8-16c7.408-7.408 13.332-8 80-8h72v-152c0-146.668 0.28-152.28 8-160 7.644-7.644 13.332-8 128-8s120.356 0.356 128 8c7.72 7.72 8 13.332 8 160v152h144v-80c0-74.668 0.532-80.532 8-88 7.644-7.644 13.332-8 128-8s120.356 0.356 128 8c7.468 7.468 8 13.332 8 88v80h72c66.668 0 72.592 0.592 80 8 10.184 10.184 10.184 21.816 0 32-7.408 7.408-13.332 8-80 8h-72v80c0 74.668-0.532 80.532-8 88-7.644 7.644-13.332 8-128 8s-120.356-0.356-128-8c-7.468-7.468-8-13.332-8-88v-80h-144v152c0 146.668-0.28 152.28-8 160-7.644 7.644-13.332 8-128 8s-120.356-0.356-128-8M400 504v-296h-176v592h176v-296M816 504v-152h-176v304h176v-152" />
<glyph unicode="&#xeaf9;" glyph-name="align-left-line" d="M120 1000c-7.912-7.912-8-13.332-8-496s0.088-488.088 8-496c10.184-10.184 21.816-10.184 32 0 7.912 7.912 8 13.332 8 496s-0.088 488.088-8 496c-10.184 10.184-21.816 10.184-32 0M280 840c-7.644-7.644-8-13.332-8-128s0.356-120.356 8-128c7.864-7.864 13.332-8 320-8s312.136 0.136 320 8c7.644 7.644 8 13.332 8 128s-0.356 120.356-8 128c-7.864 7.864-13.332 8-320 8s-312.136-0.136-320-8M880 712v-88h-560v176h560v-88M280 424c-7.644-7.644-8-13.332-8-128s0.356-120.356 8-128c7.748-7.748 13.332-8 176-8s168.252 0.252 176 8c7.644 7.644 8 13.332 8 128s-0.356 120.356-8 128c-7.748 7.748-13.332 8-176 8s-168.252-0.252-176-8M592 296v-88h-272v176h272v-88" />
<glyph unicode="&#xeafa;" glyph-name="align-right-line" d="M888 1000c-7.912-7.912-8-13.332-8-496s0.088-488.088 8-496c10.184-10.184 21.816-10.184 32 0 7.912 7.912 8 13.332 8 496s-0.088 488.088-8 496c-10.184 10.184-21.816 10.184-32 0M120 840c-7.644-7.644-8-13.332-8-128s0.356-120.356 8-128c7.864-7.864 13.332-8 320-8s312.136 0.136 320 8c7.644 7.644 8 13.332 8 128s-0.356 120.356-8 128c-7.864 7.864-13.332 8-320 8s-312.136-0.136-320-8M720 712v-88h-560v176h560v-88M408 424c-7.644-7.644-8-13.332-8-128s0.356-120.356 8-128c7.748-7.748 13.332-8 176-8s168.252 0.252 176 8c7.644 7.644 8 13.332 8 128s-0.356 120.356-8 128c-7.748 7.748-13.332 8-176 8s-168.252-0.252-176-8M720 296v-88h-272v176h272v-88" />
<glyph unicode="&#xeafb;" glyph-name="align-top-line" d="M24 904c-4.4-4.4-8-11.6-8-16s3.6-11.6 8-16c7.912-7.912 13.332-8 496-8s488.088 0.088 496 8c4.4 4.4 8 11.6 8 16s-3.6 11.6-8 16c-7.912 7.912-13.332 8-496 8s-488.088-0.088-496-8M184 744c-7.748-7.748-8-13.332-8-176s0.252-168.252 8-176c7.644-7.644 13.332-8 128-8s120.356 0.356 128 8c7.748 7.748 8 13.332 8 176s-0.252 168.252-8 176c-7.644 7.644-13.332 8-128 8s-120.356-0.356-128-8M600 744c-7.864-7.864-8-13.332-8-320s0.136-312.136 8-320c7.644-7.644 13.332-8 128-8s120.356 0.356 128 8c7.864 7.864 8 13.332 8 320s-0.136 312.136-8 320c-7.644 7.644-13.332 8-128 8s-120.356-0.356-128-8M400 568v-136h-176v272h176v-136M816 424v-280h-176v560h176v-280" />
<glyph unicode="&#xeafc;" glyph-name="android-line" d="M328 1000c-4.4-4.4-8-11.388-8-15.528s11.516-25.116 25.588-46.608l25.588-39.080-19.044-15.056c-35.496-28.060-69.648-77.652-85.2-123.728-8.612-25.512-8.8-30.768-10.044-280.808-1.492-299.080-6.336-271.192 47.112-271.192h32v-75.152c0-69.992 0.62-76.376 9-92.968 26.516-52.492 99.484-52.492 126 0 8.38 16.592 9 22.976 9 92.968v75.152h80v-75.152c0-69.992 0.62-76.376 9-92.968 26.516-52.492 99.484-52.492 126 0 8.38 16.592 9 22.976 9 92.968v75.152h32c52.804 0 48-25.592 48 255.648 0 267.372-1.020 280.448-25.796 330.352-17.192 34.636-43.936 68.856-69.756 89.268l-19.624 15.516 25.588 39.080c14.072 21.492 25.588 42.468 25.588 46.608 0 9.132-13.624 23.528-22.264 23.528-12.612 0-20.908-8.348-45.776-46.060-21.56-32.7-26.636-38.116-33.672-35.956-46.62 14.312-55.256 15.688-98.288 15.688s-51.668-1.376-98.288-15.688c-7.036-2.16-12.112 3.256-33.672 35.956-31.704 48.080-42.916 55.184-60.040 38.060M562.264 891.68c80.136-14.588 154.948-88.416 168.9-166.68l3.744-21h-429.816l3.744 21c6.456 36.216 28.968 77.080 59.028 107.136 52.064 52.068 120.432 73.008 194.4 59.544M410 819.168c-11.852-6.796-17.728-15.88-17.872-27.624-0.168-13.836 17.72-31.544 31.872-31.544s32.040 17.708 31.872 31.544c-0.148 12.112-6.24 21.216-18.608 27.804-10.808 5.756-16.988 5.716-27.264-0.18M602 819.168c-11.852-6.796-17.728-15.88-17.872-27.624-0.168-13.836 17.72-31.544 31.872-31.544s32.040 17.708 31.872 31.544c-0.148 12.112-6.24 21.216-18.608 27.804-10.808 5.756-16.988 5.716-27.264-0.18M138 680.476c-19.032-8.74-27.56-17.66-35.848-37.492-5.092-12.188-6.152-36.316-6.152-140.008 0-121.976 0.236-125.752 9-143.096 26.516-52.492 99.484-52.492 126 0 8.772 17.364 8.996 21 8.912 143.968-0.080 113.828-0.804 127.716-7.436 142.152-8.74 19.032-17.66 27.56-37.492 35.848-19.348 8.084-37.336 7.652-56.984-1.372M842 680.476c-19.032-8.74-27.56-17.66-35.848-37.492-5.092-12.188-6.152-36.316-6.152-140.008 0-121.976 0.236-125.752 9-143.096 26.516-52.492 99.484-52.492 126 0 8.772 17.364 8.996 21 8.912 143.968-0.080 113.828-0.804 127.716-7.436 142.152-8.74 19.032-17.66 27.56-37.492 35.848-19.348 8.084-37.336 7.652-56.984-1.372M736 456v-200h-32c-49.516 0-48 3.284-48-104 0-82.668-0.484-88.484-8-96-4.4-4.4-11.6-8-16-8s-11.6 3.6-16 8c-7.516 7.516-8 13.332-8 96s-0.484 88.484-8 96c-7.408 7.408-13.332 8-80 8s-72.592-0.592-80-8c-7.516-7.516-8-13.332-8-96s-0.484-88.484-8-96c-4.4-4.4-11.6-8-16-8s-11.6 3.6-16 8c-7.516 7.516-8 13.332-8 96 0 107.284 1.516 104-48 104h-32v400h432v-200M184 632c7.644-7.644 8-13.332 8-128s-0.356-120.356-8-128c-4.4-4.4-11.6-8-16-8s-11.6 3.6-16 8c-7.644 7.644-8 13.332-8 128s0.356 120.356 8 128c4.4 4.4 11.6 8 16 8s11.6-3.6 16-8M888 632c7.644-7.644 8-13.332 8-128s-0.356-120.356-8-128c-4.4-4.4-11.6-8-16-8s-11.6 3.6-16 8c-7.644 7.644-8 13.332-8 128s0.356 120.356 8 128c4.4 4.4 11.6 8 16 8s11.6-3.6 16-8" />
<glyph unicode="&#xeafd;" glyph-name="angle-line" d="M24 1000c-7.912-7.912-8-13.332-8-496s0.088-488.088 8-496c7.912-7.912 13.332-8 496-8s488.088 0.088 496 8c10.184 10.184 10.184 21.816 0 32-7.908 7.908-13.332 8-480 8h-472v472c0 466.668-0.092 472.092-8 480-10.184 10.184-21.816 10.184-32 0M152 584c-18.256-18.256-3.588-39.992 27-40.012 10.448-0.008 34.892-2.792 54.316-6.192 164.444-28.764 292.080-156.416 320.744-320.776 3.268-18.74 5.94-42.832 5.94-53.544 0-31.056 21.588-45.888 40-27.476 9.908 9.908 10.38 31.116 1.86 83.66-30.772 189.74-173.16 332.66-364.824 366.184-49.62 8.68-75.064 8.128-85.036-1.844" />
<glyph unicode="&#xeafe;" glyph-name="animation-14-line" d="M792.42 825.668c-32.496-8.736-57.756-24.216-83.82-51.356-26.388-27.48-37.868-47.436-46.62-81.032-11.396-43.752-5.148-93.68 16.76-133.932 12.692-23.316 53.188-63.068 76.22-74.816 53.712-27.404 120.852-26.552 173.692 2.208 23.316 12.692 63.068 53.188 74.816 76.22 26.592 52.124 26.592 117.956 0 170.080-11.748 23.032-51.5 63.528-74.816 76.22-40.196 21.876-92.484 28.176-136.232 16.408M24 808c-15.988-15.988-10.048-27.88 25.528-51.14 118.432-77.424 206.036-240.056 238.492-442.74 9.012-56.284 15.88-131.476 15.94-174.5 0.044-33.744 5.732-43.62 25.128-43.62 14.656 0 22.908 13.632 22.936 37.892 0.040 33.144 10.808 94.364 23.648 134.444 31.14 97.2 91.472 181.72 173.364 242.876 40.768 30.44 46.296 40.892 29.348 55.472-5.956 5.124-13.148 9.316-15.98 9.316-10.744 0-65.892-42.876-102.5-79.688-42.556-42.804-80.212-96.152-104.972-148.728l-16.508-35.060-9.032 44.788c-41.324 204.98-129.448 358.044-252.904 439.268-32.632 21.472-40.684 23.224-52.488 11.42M886.748 775.376c29.292-10.96 61.492-40.924 76.232-70.94 14.936-30.412 15.52-79.452 1.324-111.476-13.916-31.404-49.224-62.452-82.808-72.824-33.124-10.232-49.868-10.232-82.992 0-33.456 10.332-68.804 41.368-82.94 72.824-14.152 31.484-13.584 80.76 1.28 111.040 31.992 65.176 104.764 95.748 169.904 71.376" />
<glyph unicode="&#xeaff;" glyph-name="animation-31-line" d="M82.324 903.944c-22.944-8.96-43.476-27.376-55.676-49.944l-8.648-16v-668l8.648-16c11.496-21.264 31.316-39.724 53.352-49.684 17.736-8.020 24.172-8.14 440-8.14s422.264 0.12 440 8.14c22.036 9.96 41.856 28.42 53.352 49.684l8.648 16v668l-8.864 16.572c-4.872 9.112-16.332 22.964-25.464 30.78-32.836 28.108-7.292 26.668-469.384 26.46-400.816-0.18-417.020-0.472-435.964-7.868M947.036 856.020c24.592-14.992 28.932-27.74 28.948-85.020l0.016-51h-72c-66.668 0-72.592-0.592-80-8-7.788-7.788-8-13.332-8-208s0.212-200.212 8-208c7.408-7.408 13.332-8 80-8h72l-0.016-51c-0.016-57.28-4.356-70.028-28.948-85.020-12.788-7.796-20.972-7.952-427.036-7.952s-414.248 0.156-427.036 7.952c-24.592 14.992-28.932 27.74-28.948 85.020l-0.016 51h72c66.668 0 72.592 0.592 80 8 7.788 7.788 8 13.332 8 208s-0.212 200.212-8 208c-7.408 7.408-13.332 8-80 8h-72l0.016 51c0.016 57.28 4.356 70.028 28.948 85.020 12.788 7.796 20.972 7.952 427.036 7.952s414.248-0.156 427.036-7.952M344 712c-7.788-7.788-8-13.332-8-208s0.212-200.212 8-208c7.748-7.748 13.332-8 176-8s168.252 0.252 176 8c7.788 7.788 8 13.332 8 208s-0.212 200.212-8 208c-7.748 7.748-13.332 8-176 8s-168.252-0.252-176-8M176 504v-168h-112v336h112v-168M656 504v-168h-272v336h272v-168M976 504v-168h-112v336h112v-168" />
<glyph unicode="&#xeb00;" glyph-name="animation-32-line" d="M536 1000c-7.912-7.912-8-13.332-8-496s0.088-488.088 8-496c7.816-7.816 13.332-8 240-8s232.184 0.184 240 8c7.912 7.912 8 13.332 8 496s-0.088 488.088-8 496c-7.816 7.816-13.332 8-240 8s-232.184-0.184-240-8M976 504v-456h-400v912h400v-456M24 808c-7.24-7.24-8-13.332-8-64s0.76-56.76 8-64c4.4-4.4 11.6-8 16-8s11.6 3.6 16 8c6.932 6.932 8 13.332 8 48v40h40c34.668 0 41.068 1.068 48 8 4.4 4.4 8 11.6 8 16s-3.6 11.6-8 16c-7.24 7.24-13.332 8-64 8s-56.76-0.76-64-8M280 808c-4.4-4.4-8-11.6-8-16s3.6-11.6 8-16c6.932-6.932 13.332-8 48-8h40v-40c0-34.668 1.068-41.068 8-48 4.4-4.4 11.6-8 16-8s11.6 3.6 16 8c7.24 7.24 8 13.332 8 64 0 74.812 2.812 72-72 72-50.668 0-56.76-0.76-64-8M24 552c-7.24-7.24-8-13.332-8-64s0.76-56.76 8-64c4.4-4.4 11.6-8 16-8s11.6 3.6 16 8c7.24 7.24 8 13.332 8 64s-0.76 56.76-8 64c-4.4 4.4-11.6 8-16 8s-11.6-3.6-16-8M376 552c-7.24-7.24-8-13.332-8-64s0.76-56.76 8-64c4.4-4.4 11.6-8 16-8s11.6 3.6 16 8c7.24 7.24 8 13.332 8 64s-0.76 56.76-8 64c-4.4 4.4-11.6 8-16 8s-11.6-3.6-16-8M24 296c-7.24-7.24-8-13.332-8-64 0-74.812-2.812-72 72-72 50.668 0 56.76 0.76 64 8 10.184 10.184 10.184 21.816 0 32-6.932 6.932-13.332 8-48 8h-40v40c0 34.668-1.068 41.068-8 48-4.4 4.4-11.6 8-16 8s-11.6-3.6-16-8M376 296c-6.932-6.932-8-13.332-8-48v-40h-40c-34.668 0-41.068-1.068-48-8-4.4-4.4-8-11.6-8-16s3.6-11.6 8-16c7.24-7.24 13.332-8 64-8 74.812 0 72-2.812 72 72 0 50.668-0.76 56.76-8 64-4.4 4.4-11.6 8-16 8s-11.6-3.6-16-8" />
<glyph unicode="&#xeb01;" glyph-name="app-line" d="M285.592 910.588c-123.424-35.524-227.372-67.060-231-70.076-6.020-5.016-6.592-32.816-6.592-320.908v-315.42l9.308-6.096c10.824-7.092 453.752-166.052 462.692-166.052s451.868 158.96 462.692 166.052l9.308 6.096v315.288c0 295.332-0.444 315.668-7 321.26-7.404 6.316-455.884 135.56-467.944 134.856-3.88-0.228-108.040-29.48-231.464-65M703.288 874.644l185.288-53.096-181.508-64.772c-99.832-35.628-184.012-64.776-187.068-64.776s-87.244 29.152-187.080 64.78l-181.524 64.78 183.304 52.808c100.816 29.040 183.3 52.932 183.3 53.088s83.38-23.608 185.288-52.812M301 716.044l195-69.364v-277.768c0-220.468-1.032-277.412-5-276.044-2.748 0.948-92.748 32.94-200 71.088l-195 69.364v277.768c0 220.468 1.032 277.412 5 276.044 2.752-0.948 92.752-32.94 200-71.088M944 510.66v-277.34l-195-69.364c-107.248-38.148-197.248-70.14-200-71.088-3.968-1.368-5 55.576-5 276.052v277.772l197 70.464c108.352 38.752 198.352 70.548 200 70.652s3-124.612 3-277.148" />
<glyph unicode="&#xeb02;" glyph-name="apple" d="M553.856 921.68c65.184 85.904 155.792 86.32 155.792 86.32s13.472-80.768-51.28-158.576c-69.136-83.072-147.728-69.488-147.728-69.488s-14.752 65.344 43.216 141.744zM518.944 723.36c33.536 0 95.76 46.096 176.768 46.096 139.44 0 194.288-99.216 194.288-99.216s-107.28-54.848-107.28-187.952c0-150.144 133.648-201.888 133.648-201.888s-93.424-262.96-219.616-262.96c-57.952 0-103.024 39.056-164.080 39.056-62.224 0-123.984-40.512-164.208-40.512-115.232 0-260.8 249.44-260.8 449.936 0 197.264 123.216 300.752 238.8 300.752 75.104 0.016 133.408-43.312 172.48-43.312z" />
<glyph unicode="&#xeb03;" glyph-name="apple-line" d="M678 1002.436c-46.532-11.36-100.672-45.932-130.392-83.252-39.228-49.264-61.728-128.052-47.356-165.844 5.492-14.452 10.26-17.204 29.908-17.28 43.632-0.164 100.58 26.328 137.328 63.888 45.184 46.184 68.236 99.108 68.408 157.052 0.148 50.488-8.716 57.444-57.896 45.436M686.38 936.016c-3.36-25.316-13.816-49.732-34.080-79.572-22.928-33.764-55.248-57.208-93.3-67.672-18.292-5.032-18.852-2.088-6.964 36.408 9.576 30.996 34.136 69.192 57.252 89.032 15.020 12.896 67.384 41.552 76.228 41.72 1.932 0.036 2.32-8.924 0.864-19.916M317.156 713.964c-67.44-14.656-140.756-73.324-172.472-138.012-26.44-53.936-30.748-75.56-30.272-151.952 0.376-60.032 1.524-70.228 12.664-112.76 34.744-132.596 123.376-263.524 203.128-300.052 29.48-13.504 73.912-12.532 113.796 2.484 52.848 19.9 67.836 23 102 21.080 24.784-1.392 40.568-5.2 70-16.892 32.172-12.776 42.908-15.148 70-15.476 26.72-0.32 35.632 1.34 54 10.064 42.452 20.16 81.272 58.944 125.668 125.54 23.288 34.932 62.332 110.772 62.332 121.072 0 9.888-8.092 16.704-39.332 33.108-76.064 39.94-109.22 139.176-72.56 217.168 11.172 23.764 38.728 54.664 61.736 69.22 32.248 20.4 31.304 32.576-5.304 68.284-56.66 55.272-133.024 81.56-202.020 69.544-14.704-2.56-46.632-10.896-70.952-18.52-55.54-17.412-75.588-17.672-125.712-1.616-75.044 24.040-109.616 27.948-156.7 17.716M448 653.584c30.644-9.68 56.836-15.196 78.468-16.532 29.792-1.836 36.832-0.64 85.52 14.496 29.18 9.072 64.976 17.6 79.552 18.956 43.128 4.008 87.972-10.476 129.5-41.832l19.040-14.376-23.596-24.148c-12.98-13.28-28.016-31.348-33.416-40.148-57.868-94.308-29.080-225.004 63.496-288.268l24.568-16.788-17.876-33.452c-37.744-70.644-92.78-134.844-132.076-154.068-27.064-13.24-44.428-11.68-97.144 8.736-31.412 12.164-44.528 15.024-76 16.576-40.704 2.008-63.824-2.572-122.036-24.176-50.816-18.86-76.652-12.036-122.736 32.4-45.732 44.096-94.888 124.008-117.24 190.592-33.444 99.628-33.548 199.208-0.28 269.26 25.56 53.824 89.044 105.628 143.732 117.292 28.18 6.012 69.6 0.936 118.524-14.52" />
<glyph unicode="&#xeb04;" glyph-name="artboard" d="M800 816h-576c-9.6 0-16-6.4-16-16v-576c0-9.6 6.4-16 16-16h576c9.6 0 16 6.4 16 16v576c0 9.6-6.4 16-16 16zM128 816h-96c-9.6 0-16-6.4-16-16s6.4-16 16-16h96c9.6 0 16 6.4 16 16s-6.4 16-16 16zM128 240h-96c-9.6 0-16-6.4-16-16s6.4-16 16-16h96c9.6 0 16 6.4 16 16s-6.4 16-16 16zM896 784h96c9.6 0 16 6.4 16 16s-6.4 16-16 16h-96c-9.6 0-16-6.4-16-16s6.4-16 16-16zM992 240h-96c-9.6 0-16-6.4-16-16s6.4-16 16-16h96c9.6 0 16 6.4 16 16s-6.4 16-16 16zM224 880c9.6 0 16 6.4 16 16v96c0 9.6-6.4 16-16 16s-16-6.4-16-16v-96c0-9.6 6.4-16 16-16zM800 1008c-9.6 0-16-6.4-16-16v-96c0-9.6 6.4-16 16-16s16 6.4 16 16v96c0 9.6-6.4 16-16 16zM224 144c-9.6 0-16-6.4-16-16v-96c0-9.6 6.4-16 16-16s16 6.4 16 16v96c0 9.6-6.4 16-16 16zM800 144c-9.6 0-16-6.4-16-16v-96c0-9.6 6.4-16 16-16s16 6.4 16 16v96c0 9.6-6.4 16-16 16z" />
<glyph unicode="&#xeb05;" glyph-name="artboard-line" d="M216 1000c-6.932-6.932-8-13.332-8-48s1.068-41.068 8-48c4.4-4.4 11.6-8 16-8s11.6 3.6 16 8c6.932 6.932 8 13.332 8 48s-1.068 41.068-8 48c-10.184 10.184-21.816 10.184-32 0M792 1000c-6.932-6.932-8-13.332-8-48s1.068-41.068 8-48c4.4-4.4 11.6-8 16-8s11.6 3.6 16 8c6.932 6.932 8 13.332 8 48s-1.068 41.068-8 48c-10.184 10.184-21.816 10.184-32 0M24 808c-4.4-4.4-8-11.6-8-16s3.6-11.6 8-16c6.932-6.932 13.332-8 48-8s41.068 1.068 48 8c10.184 10.184 10.184 21.816 0 32-6.932 6.932-13.332 8-48 8s-41.068-1.068-48-8M216 808c-7.856-7.856-8-13.332-8-304s0.144-296.144 8-304c7.856-7.856 13.332-8 304-8s296.144 0.144 304 8c7.856 7.856 8 13.332 8 304s-0.144 296.144-8 304c-7.856 7.856-13.332 8-304 8s-296.144-0.144-304-8M920 808c-4.4-4.4-8-11.6-8-16s3.6-11.6 8-16c6.932-6.932 13.332-8 48-8s41.068 1.068 48 8c4.4 4.4 8 11.6 8 16s-3.6 11.6-8 16c-6.932 6.932-13.332 8-48 8s-41.068-1.068-48-8M784 504v-264h-528v528h528v-264M24 232c-4.4-4.4-8-11.6-8-16s3.6-11.6 8-16c6.932-6.932 13.332-8 48-8s41.068 1.068 48 8c10.184 10.184 10.184 21.816 0 32-6.932 6.932-13.332 8-48 8s-41.068-1.068-48-8M920 232c-4.4-4.4-8-11.6-8-16s3.6-11.6 8-16c6.932-6.932 13.332-8 48-8s41.068 1.068 48 8c4.4 4.4 8 11.6 8 16s-3.6 11.6-8 16c-6.932 6.932-13.332 8-48 8s-41.068-1.068-48-8M216 104c-6.932-6.932-8-13.332-8-48s1.068-41.068 8-48c4.4-4.4 11.6-8 16-8s11.6 3.6 16 8c6.932 6.932 8 13.332 8 48s-1.068 41.068-8 48c-4.4 4.4-11.6 8-16 8s-11.6-3.6-16-8M792 104c-6.932-6.932-8-13.332-8-48s1.068-41.068 8-48c4.4-4.4 11.6-8 16-8s11.6 3.6 16 8c6.932 6.932 8 13.332 8 48s-1.068 41.068-8 48c-4.4 4.4-11.6 8-16 8s-11.6-3.6-16-8" />
<glyph unicode="&#xeb06;" glyph-name="ase" d="M672 982.4v-214.4h214.4zM912 560v176h-256c-9.6 0-16 6.4-16 16v256h-512c-9.6 0-16-6.4-16-16v-432h800zM112 128v-96c0-9.6 6.4-16 16-16h768c9.6 0 16 6.4 16 16v96h-800zM392 398.4c-1.6-8-8-30.4-19.2-64h38.4c-9.6 32-16 49.6-17.6 54.4 0 3.2 0 6.4-1.6 9.6zM976 528h-928c-9.6 0-16-6.4-16-16v-336c0-9.6 6.4-16 16-16h928c9.6 0 16 6.4 16 16v336c0 9.6-6.4 16-16 16zM430.4 272l-11.2 35.2h-54.4l-9.6-35.2h-35.2l52.8 148.8h38.4l52.8-148.8h-33.6zM560 281.6c-9.6-8-22.4-11.2-40-11.2-16 0-30.4 3.2-41.6 9.6v28.8c9.6-4.8 19.2-8 25.6-9.6s12.8-3.2 19.2-3.2c6.4 0 12.8 1.6 16 3.2 3.2 3.2 4.8 6.4 4.8 11.2 0 3.2-1.6 4.8-3.2 8s-3.2 4.8-6.4 6.4-9.6 4.8-19.2 9.6c-9.6 4.8-16 8-20.8 12.8-4.8 3.2-8 8-11.2 14.4-1.6 6.4-3.2 11.2-3.2 19.2 0 12.8 4.8 24 12.8 30.4 9.6 8 20.8 11.2 36.8 11.2 8 0 14.4-1.6 22.4-3.2 6.4-1.6 14.4-4.8 22.4-8l-9.6-24c-8 3.2-14.4 4.8-19.2 6.4s-9.6 1.6-16 1.6c-6.4 0-11.2-1.6-14.4-4.8s-4.8-6.4-4.8-11.2c0-3.2 0-4.8 1.6-8s3.2-4.8 6.4-6.4c3.2-1.6 9.6-4.8 19.2-11.2 14.4-6.4 24-12.8 28.8-19.2s8-14.4 8-24c0-11.2-4.8-20.8-14.4-28.8zM691.2 395.2h-54.4v-32h51.2v-27.2h-49.6v-38.4h54.4v-25.6h-84.8v148.8h84.8v-25.6z" />
<glyph unicode="&#xeb07;" glyph-name="ase-line" d="M120 1000c-7.784-7.784-8-13.332-8-207.076v-199.076l-80-79.696v-177.076c0-209.38-4.052-193.076 48-193.076h32v-64c0-58.668 0.668-64.668 8-72 7.892-7.892 13.332-8 400-8s392.108 0.108 400 8c7.332 7.332 8 13.332 8 72v64h32c52.052 0 48-16.304 48 193.076v177.076l-80 79.696v144.196l-270.044 269.956h-264.976c-259.648 0-265.14-0.16-272.98-8M624 840c0-114.668 0.356-120.356 8-128s13.332-8 128-8h120v-176h-720v432h464v-120M760 838l85.932-86h-173.932v86c0 47.3 0.464 86 1.036 86 0.568 0 39.704-38.7 86.964-86M960 336v-144h-880v288h880v-144M376.76 401c-2.212-6.048-14.040-39.352-26.284-74l-22.264-63h17.376c17.176 0 17.428 0.204 22.412 18l5.040 18h54.844l4.532-18c4.504-17.884 4.648-18 21.952-18h17.42l-22.264 63c-12.244 34.648-24.072 67.952-26.284 74-3.628 9.916-5.916 11-23.24 11s-19.612-1.084-23.24-11M501.828 402.868c-7.652-6.584-11.184-14.192-12.66-27.268-2.48-22 6.356-34.304 36.492-50.824 23.752-13.016 30.048-21.488 22.62-30.44-6.604-7.956-22.344-8.076-44.28-0.336-9.352 3.3-17.68 6-18.504 6s-1.496-6.012-1.496-13.356c0-16.832 11.156-22.668 43.188-22.584 28.96 0.072 40.904 6.1 50.348 25.404 6.968 14.236 7.064 16.38 1.312 28.448-4.336 9.092-14.28 17.556-32.772 27.896-23.124 12.932-26.384 16.168-25.312 25.116 1.888 15.712 11.604 19.708 33.608 13.82 10.288-2.748 19.216-4.488 19.84-3.864 0.628 0.624 2.372 6.056 3.88 12.068 2.348 9.348 1.2 11.52-7.932 14.992-5.876 2.232-21.264 4.060-34.196 4.060-18.724 0-25.684-1.864-34.136-9.132M612 338v-74h88v24h-52v40h48v28h-52v32h56v24h-88v-74M409.672 356.968c5.3-15.58 8.592-29.372 7.316-30.648s-10.332-2.32-20.12-2.32c-15.040 0-17.496 1.088-15.828 7 8.068 28.604 17.020 56.272 17.92 55.376 0.592-0.592 5.412-13.824 10.712-29.408M880 96v-48h-720v96h720v-48" />
<glyph unicode="&#xeb08;" glyph-name="asp" d="M672 982.4v-214.4h214.4zM912 560v176h-256c-9.6 0-16 6.4-16 16v256h-512c-9.6 0-16-6.4-16-16v-432h800zM112 128v-96c0-9.6 6.4-16 16-16h768c9.6 0 16 6.4 16 16v96h-800zM385.6 398.4c-1.6-8-8-30.4-19.2-64h38.4c-9.6 32-16 49.6-17.6 54.4 0 3.2-1.6 6.4-1.6 9.6zM644.8 395.2h-14.4v-44.8h9.6c9.6 0 17.6 1.6 22.4 6.4s8 9.6 8 16c0 8-1.6 12.8-6.4 16-4.8 4.8-11.2 6.4-19.2 6.4zM976 528h-928c-9.6 0-16-6.4-16-16v-336c0-9.6 6.4-16 16-16h928c9.6 0 16 6.4 16 16v336c0 9.6-6.4 16-16 16zM422.4 272l-11.2 35.2h-54.4l-9.6-35.2h-33.6l52.8 148.8h38.4l52.8-148.8h-35.2zM553.6 281.6c-9.6-8-22.4-11.2-40-11.2-16 0-30.4 3.2-41.6 9.6v28.8c9.6-4.8 19.2-8 25.6-9.6s12.8-3.2 19.2-3.2c6.4 0 12.8 1.6 16 3.2 3.2 3.2 4.8 6.4 4.8 11.2 0 3.2-1.6 4.8-3.2 8s-4.8 4.8-6.4 6.4c-3.2 1.6-9.6 4.8-19.2 9.6s-16 8-20.8 12.8-8 8-11.2 14.4c-3.2 4.8-4.8 11.2-4.8 17.6 0 12.8 4.8 24 12.8 30.4 9.6 8 20.8 11.2 36.8 11.2 8 0 14.4-1.6 22.4-3.2 6.4-1.6 14.4-4.8 22.4-8l-9.6-24c-8 3.2-14.4 4.8-19.2 6.4s-9.6 1.6-16 1.6c-6.4 0-11.2-1.6-14.4-4.8s-4.8-6.4-4.8-11.2c0-3.2 0-4.8 1.6-8s3.2-4.8 6.4-6.4c3.2-1.6 9.6-4.8 19.2-11.2 14.4-6.4 24-12.8 28.8-19.2s8-14.4 8-24c1.6-9.6-3.2-19.2-12.8-27.2zM686.4 337.6c-9.6-8-24-12.8-43.2-12.8h-12.8v-52.8h-32v148.8h48c17.6 0 32-3.2 41.6-11.2s14.4-19.2 14.4-35.2c-1.6-16-6.4-28.8-16-36.8z" />
<glyph unicode="&#xeb09;" glyph-name="asp-line" d="M120 1000c-7.784-7.784-8-13.332-8-207.076v-199.076l-80-79.696v-177.076c0-209.38-4.052-193.076 48-193.076h32v-64c0-58.668 0.668-64.668 8-72 7.892-7.892 13.332-8 400-8s392.108 0.108 400 8c7.332 7.332 8 13.332 8 72v64h32c52.052 0 48-16.304 48 193.076v177.076l-80 79.696v144.196l-270.044 269.956h-264.976c-259.648 0-265.14-0.16-272.98-8M624 840c0-114.668 0.356-120.356 8-128s13.332-8 128-8h120v-176h-720v432h464v-120M760 838l85.932-86h-173.932v86c0 47.3 0.464 86 1.036 86 0.568 0 39.704-38.7 86.964-86M960 336v-144h-880v288h880v-144M348.92 341.176c-13.768-39.148-25.008-72.528-24.976-74.176s7.024-3 15.536-3c14.932 0 15.66 0.636 20.52 18l5.040 18h54.844l4.532-18c4.508-17.904 4.628-18 22.060-18 9.636 0 17.472 1.352 17.408 3s-11.34 34.5-25.056 73l-24.94 70-39.932 2.352-25.036-71.176M500.44 406.416c-5.256-2.912-11.944-9.6-14.856-14.856-13.52-24.392-1.556-48.064 33.828-66.924 19.744-10.524 24.588-15.016 24.588-22.796 0-13.328-15.14-16.508-42.424-8.916l-21.576 6.008v-13.564c0-16.744 9.664-21.368 44.66-21.368 22.12 0 25.28 1.14 37.74 13.6 24.86 24.86 16.772 42.908-32.024 71.46-16.144 9.448-18.712 12.652-17.636 22 1.24 10.768 1.676 10.932 27.9 10.344 24.124-0.536 26.856 0.22 28.944 8 3.62 13.488 3.284 13.98-12.584 18.384-20.336 5.648-44.976 5.052-56.56-1.372M604 338v-74h36v52h11.92c19.328 0 43.788 11.832 50.232 24.296 12.328 23.84 4.212 57.696-16.040 66.924-5.768 2.628-26.604 4.78-46.3 4.78h-35.812v-74M412 327.22c0-3.66-33.428-4.46-37.004-0.884-1.956 1.956 6.464 31.124 15.492 53.664 1.464 3.648 6.148-4.88 11.96-21.78 5.252-15.276 9.552-29.228 9.552-31M669.672 381.572c7.676-2.944 8.648-26.772 1.328-32.52-2.748-2.16-10.852-5.036-18-6.388l-13-2.464v21.9c0 21.532 0.196 21.9 11.672 21.9 6.42 0 14.52-1.092 18-2.428M880 96v-48h-720v96h720v-48" />
<glyph unicode="&#xeb0a;" glyph-name="aspx" d="M672 982.4v-214.4h214.4zM912 560v176h-256c-9.6 0-16 6.4-16 16v256h-512c-9.6 0-16-6.4-16-16v-432h800zM112 128v-96c0-9.6 6.4-16 16-16h768c9.6 0 16 6.4 16 16v96h-800zM313.6 398.4c-1.6-8-8-30.4-19.2-64h38.4c-9.6 32-16 49.6-17.6 54.4 0 3.2-1.6 6.4-1.6 9.6zM572.8 395.2h-14.4v-44.8h9.6c9.6 0 17.6 1.6 22.4 6.4s8 9.6 8 16c0 8-1.6 12.8-6.4 16-4.8 4.8-11.2 6.4-19.2 6.4zM976 528h-928c-9.6 0-16-6.4-16-16v-336c0-9.6 6.4-16 16-16h928c9.6 0 16 6.4 16 16v336c0 9.6-6.4 16-16 16zM352 272l-11.2 35.2h-54.4l-11.2-35.2h-33.6l52.8 148.8h38.4l52.8-148.8h-33.6zM481.6 281.6c-9.6-8-22.4-11.2-40-11.2-16 0-30.4 3.2-41.6 9.6v28.8c9.6-4.8 19.2-8 25.6-9.6s12.8-3.2 19.2-3.2c6.4 0 12.8 1.6 16 3.2 3.2 3.2 4.8 6.4 4.8 11.2 0 3.2-1.6 4.8-3.2 8s-4.8 4.8-6.4 6.4c-3.2 1.6-9.6 4.8-19.2 9.6s-16 8-20.8 12.8-8 8-11.2 14.4c-3.2 4.8-4.8 11.2-4.8 17.6 0 12.8 4.8 24 12.8 30.4 9.6 8 20.8 11.2 36.8 11.2 8 0 14.4-1.6 22.4-3.2 6.4-1.6 14.4-4.8 22.4-8l-9.6-24c-8 3.2-14.4 4.8-19.2 6.4s-9.6 1.6-16 1.6c-6.4 0-11.2-1.6-14.4-4.8s-3.2-3.2-3.2-8c0-3.2 0-4.8 1.6-8s3.2-4.8 6.4-6.4c3.2-1.6 9.6-4.8 19.2-11.2 14.4-6.4 24-12.8 28.8-19.2s8-14.4 8-24c0-12.8-4.8-22.4-14.4-30.4zM614.4 337.6c-9.6-8-24-12.8-43.2-12.8h-12.8v-52.8h-32v148.8h48c17.6 0 32-3.2 41.6-11.2s14.4-19.2 14.4-35.2c0-16-6.4-28.8-16-36.8zM745.6 272l-35.2 56-33.6-56h-33.6l49.6 76.8-46.4 72h35.2l32-52.8 32 52.8h33.6l-46.4-73.6 49.6-75.2h-36.8z" />
<glyph unicode="&#xeb0b;" glyph-name="aspx-line" d="M120 1000c-7.784-7.784-8-13.332-8-207.076v-199.076l-80-79.696v-177.076c0-209.38-4.052-193.076 48-193.076h32v-64c0-58.668 0.668-64.668 8-72 7.892-7.892 13.332-8 400-8s392.108 0.108 400 8c7.332 7.332 8 13.332 8 72v64h32c52.052 0 48-16.304 48 193.076v177.076l-80 79.696v144.196l-270.044 269.956h-264.976c-259.648 0-265.14-0.16-272.98-8M624 840c0-114.668 0.356-120.356 8-128s13.332-8 128-8h120v-176h-720v432h464v-120M760 838l85.932-86h-173.932v86c0 47.3 0.464 86 1.036 86 0.568 0 39.704-38.7 86.964-86M960 336v-144h-880v288h880v-144M276.92 341.176c-13.768-39.148-25.008-72.528-24.976-74.176s7.108-3 15.724-3c14.876 0 15.952 0.86 21.332 17l5.668 17h54.664l5.668-17c5.38-16.14 6.456-17 21.332-17 8.616 0 15.616 1.352 15.552 3s-11.34 34.5-25.056 73l-24.94 70-39.932 2.352-25.036-71.176M428.44 406.416c-5.256-2.912-11.944-9.6-14.856-14.856-13.52-24.392-1.556-48.064 33.828-66.924 19.744-10.524 24.588-15.016 24.588-22.796 0-13.328-15.14-16.508-42.424-8.916l-21.576 6.008v-13.564c0-16.744 9.664-21.368 44.66-21.368 22.12 0 25.28 1.14 37.74 13.6 24.112 24.112 17.416 45.376-21.676 68.84-21.284 12.772-26.724 18.024-26.724 25.8 0 9.428 0.904 9.74 26.64 9.164 24.124-0.536 26.856 0.22 28.944 8 3.62 13.488 3.284 13.98-12.584 18.384-20.336 5.648-44.976 5.052-56.56-1.372M536 338.376v-74.376h32v50.884l20.504 2.432c25.648 3.036 38.48 11.28 46.152 29.64 7.448 17.82 4.292 37.168-8.48 52.028-8.988 10.452-11.536 11.088-49.824 12.392l-40.352 1.372v-74.372M660.912 403c3.208-4.952 13.4-21.032 22.652-35.736l16.82-26.74-21.396-33.26c-11.768-18.296-22.76-35.516-24.428-38.264-2.244-3.7 1.452-4.98 14.204-4.932 16.932 0.072 17.508 0.528 32.672 26 8.492 14.264 16.844 25.932 18.564 25.932s10.072-11.668 18.564-25.932c15.112-25.384 15.792-25.928 32.436-26 9.352-0.036 17 0.9 17 2.084s-10.672 18.028-23.716 37.424l-23.716 35.272 21.612 33.576c11.888 18.468 21.66 34.928 21.716 36.576s-6.996 3-15.676 3c-15.136 0-16.404-1.044-31.16-25.688l-15.388-25.688-15.708 25.688c-15.48 25.308-15.972 25.688-33.296 25.688-17.3 0-17.492-0.148-11.756-9M340 327.22c0-3.66-33.428-4.46-37.004-0.884-1.956 1.956 6.464 31.124 15.492 53.664 1.464 3.648 6.148-4.88 11.96-21.78 5.252-15.276 9.552-29.228 9.552-31M597.672 381.572c7.676-2.944 8.648-26.772 1.328-32.52-2.748-2.16-10.852-5.036-18-6.388l-13-2.464v21.9c0 21.532 0.196 21.9 11.672 21.9 6.42 0 14.52-1.092 18-2.428M880 96v-48h-720v96h720v-48" />
<glyph unicode="&#xeb0c;" glyph-name="blend" d="M480.736 656h260.016c-17.216 119.232-50.048 229.968-69.088 288h-307.952c41.44-67.456 92.144-168.336 117.024-288zM744.912 624h-258.24c5.872-35.968 9.328-73.392 9.328-112 0-38.672-3.408-76.080-9.184-112h258.176c4.352 37.28 7.008 75.024 7.008 112 0 36.88-2.688 74.656-7.088 112zM464 512c0 38.544-3.728 75.984-9.968 112h-438.032v-224h438.16c6.16 35.968 9.84 73.392 9.84 112zM480.928 368c-24.704-120.112-75.28-220.752-116.768-288h307.584c19.072 57.92 51.936 168.416 69.104 288h-259.92zM773.216 656h234.784v256c0 17.68-14.32 32-32 32h-270.544c20.112-62.048 51.392-170.544 67.76-288zM447.952 368h-431.952v-256c0-17.68 14.32-32 32-32h277.728c40.656 63.312 95.456 165.424 122.224 288zM1008 400v224h-230.752c4.208-37.184 6.752-74.896 6.752-112 0-37.184-2.512-74.88-6.688-112h230.688zM447.776 656c-26.896 122.128-81.776 224.496-122.384 288h-277.392c-17.68 0-32-14.32-32-32v-256h431.776zM773.296 368c-16.304-117.792-47.6-226.064-67.744-288h270.448c17.68 0 32 14.32 32 32v256h-234.704z" />
<glyph unicode="&#xeb0d;" glyph-name="blend-line" d="M24 936c-7.9-7.9-8-13.332-8-432s0.1-424.1 8-432c7.912-7.912 13.332-8 496-8s488.088 0.088 496 8c7.9 7.9 8 13.332 8 432s-0.1 424.1-8 432c-7.912 7.912-13.332 8-496 8s-488.088-0.088-496-8M303.080 875c46.060-60.256 96.14-156.9 106.748-206l2.808-13h-348.636v240h223.028l16.052-21M675.428 873c16.588-45.404 42.276-146.92 50.608-200l2.668-17h-263.86l-12.868 40.076c-15.66 48.772-51.956 123.428-81.372 167.38l-21.784 32.544h318.204l8.404-23M976 776v-120h-198.904l-4.868 31c-6.46 41.156-29.504 135.636-42.12 172.7-5.56 16.336-10.108 31.184-10.108 33s57.6 3.3 128 3.3h128v-120M429.392 588c4.68-23.328 4.68-144.672 0-168l-3.612-18-361.78-2.080v208.16l361.78-2.080 3.612-18M737.432 583.412c3.312-31.704 3.312-127.12 0-158.824l-2.572-24.588h-259.048l3.096 33c3.948 42.128 3.948 99.872 0 142l-3.096 33h259.048l2.572-24.588M976 504v-104h-190v208h190v-104M404.188 319c-21.812-63.672-53.332-122.968-94.62-178l-21.76-29h-223.808v240h351.492l-11.304-33M727.996 349c-0.044-22.552-29.6-145.572-47.92-199.432-6.64-19.528-12.076-35.968-12.076-36.536s-71.1-1.032-158-1.032c-86.9 0-158 0.96-158 2.136s8.976 15.308 19.948 31.408c28.608 41.98 61.416 109.376 78.596 161.456l14.844 45h131.308c72.216 0 131.3-1.352 131.3-3M976 232v-120h-128c-70.4 0-128 1.484-128 3.3s4.548 16.664 10.108 33c12.616 37.064 35.66 131.544 42.12 172.7l4.868 31h198.904v-120" />
<glyph unicode="&#xeb0e;" glyph-name="book-bookmark" d="M912 192h-720c-44.183 0-80-35.817-80-80v0 0c0-44.183 35.817-80 80-80v0h720s-32 44-32 80 32 80 32 80zM832 992h-304v-320l-128 96-128-96v320h-80c-44.161-0.055-79.945-35.839-80-79.995v-721.781c20.292 20.845 48.623 33.776 79.974 33.776 0.009 0 0.018 0 0.028 0h719.998v688c-0.055 44.161-35.839 79.945-79.995 80h-0.005z" />
<glyph unicode="&#xeb0f;" glyph-name="book-bookmark-line" d="M162.324 999.944c-22.944-8.96-43.476-27.376-55.676-49.944l-8.648-16v-860l8.648-16c11.496-21.264 31.316-39.724 53.352-49.684 17.652-7.984 24.624-8.14 360-8.14s342.348 0.156 360 8.14c22.036 9.96 41.856 28.42 53.352 49.684l8.648 16v860l-8.864 16.572c-4.872 9.112-16.332 22.964-25.464 30.78-32.464 27.788-15.98 26.668-389.384 26.46-321.916-0.18-337.128-0.516-355.964-7.868M256 792c0-162.668 0.252-168.252 8-176 4.4-4.4 11.212-8 15.14-8s30.928 13.484 60 29.96l52.86 29.96 52.86-29.96c29.072-16.476 56.072-29.96 60-29.96s10.74 3.6 15.14 8c7.748 7.748 8 13.332 8 176v168l163-0.016c155.592-0.012 163.592-0.376 176.036-7.964 7.172-4.372 16.612-13.812 20.984-20.984 7.764-12.732 7.952-20.796 7.952-347.036s-0.188-334.304-7.952-347.036c-4.372-7.172-13.812-16.612-20.984-20.984-12.732-7.764-20.812-7.952-347.992-7.964-319.62-0.016-335.876-0.364-355-7.632l-20.044-7.616 0.016 362.616c0.012 354.78 0.184 362.896 7.964 375.652 13.672 22.424 29.184 28.932 69.020 28.948l35 0.016v-168M480 818c0-78.1-0.864-142-1.92-142-1.060 0-19.496 9.9-40.976 22-21.476 12.1-41.776 22-45.104 22s-23.628-9.9-45.104-22c-21.48-12.1-39.916-22-40.976-22-1.056 0-1.92 63.9-1.92 142v142h176v-142M888.924 78.62c-4.048-6.924-13.376-16.648-20.732-21.608l-13.376-9.012-334.408 0.016c-326.632 0.012-334.712 0.2-347.444 7.964-37.736 23.008-37.736 73.032 0 96.040 12.732 7.764 20.916 7.952 351.036 8.068 316.616 0.116 339.012 0.576 354 7.316l16 7.192 1.14-41.688c0.944-34.636-0.108-43.824-6.216-54.288" />
<glyph unicode="&#xeb10;" glyph-name="book-bookmark-2" d="M864 144h-624c-8.848 0-16-7.168-16-16s7.152-16 16-16h624v32zM912 1008h-112v-320c0-5.824-3.152-11.168-8.256-14-2.4-1.328-5.072-2-7.744-2-2.96 0-5.888 0.816-8.48 2.432l-119.52 74.704-119.52-74.704c-4.944-3.088-11.168-3.248-16.24-0.416-5.088 2.816-8.24 8.16-8.24 13.984v320h-304c-61.744 0-112-50.24-112-112v-768c0-61.76 50.256-112 112-112h704c8.848 0 16 7.168 16 16v960c0 8.832-7.152 16-16 16zM896 48h-688c-44.112 0-80 35.888-80 80s35.888 80 80 80h688v-160z" />
<glyph unicode="&#xeb11;" glyph-name="book-bookmark-2-line" d="M172.252 999.232c-29.312-11.252-56.548-38.868-67.68-68.62-8.556-22.868-8.572-23.712-8.572-426.612s0.016-403.744 8.572-426.612c11.404-30.48 38.336-57.412 68.816-68.816 22.808-8.532 24.556-8.572 388.764-8.572 360.516 0 365.964 0.116 373.848 8 7.912 7.912 8 13.332 8 496s-0.088 488.088-8 496c-7.888 7.888-13.192 7.996-375 7.792-362.272-0.208-367.28-0.316-388.748-8.56M512 800c0-154.668 0.268-160.268 8-168 4.4-4.4 11.22-8 15.156-8 3.94 0 34.54 17.096 68 37.992l60.844 37.996 60.844-37.996c33.46-20.896 64.060-37.992 68-37.992 3.936 0 10.756 3.6 15.156 8 7.732 7.732 8 13.332 8 168v160h80v-720h-624v312c0 306.668-0.136 312.136-8 320-4.4 4.4-11.6 8-16 8s-11.6-3.6-16-8c-7.864-7.864-8-13.332-8-319.492v-311.492l-19.804-1.9c-10.896-1.048-28.896-6.4-40-11.9l-20.196-9.992v341.516c0 298.284 0.78 343.38 6.152 356.244 8.288 19.832 16.816 28.752 35.848 37.492 14.64 6.724 29.176 7.356 171 7.436l155 0.088v-160M768 825.672v-134.324l-15 9.192c-8.248 5.056-30.204 18.7-48.788 30.324s-36.68 21.136-40.212 21.136c-3.532 0-21.628-9.512-40.212-21.136s-40.536-25.268-48.788-30.324l-15-9.192v268.652h208v-134.328M896 168v-24h-328c-322.668 0-328.132-0.132-336-8-4.4-4.4-8-11.6-8-16s3.6-11.6 8-16c7.868-7.868 13.332-8 336-8h328v-48h-694.304l-17.816 9c-52.492 26.516-52.492 99.484 0 126l17.816 9h694.304v-24" />
<glyph unicode="&#xeb12;" glyph-name="book-open" d="M976 896v-640h-48c-116.624 0-281.2-24.848-400-123.792-118.080 98.32-282.448 123.792-400 123.792h-48v640h-32c-17.68 0-32-14.32-32-32v-768c0-17.68 14.32-32 32-32h928c17.68 0 32 14.32 32 32v768c0 17.68-14.32 32-32 32zM512 866.88c-86.672 53.84-262.288 93.12-384 93.12h-16v-672h16c110.56 0 282.336-28.8 384-101.968v680.848zM928 960c-122.656 0-297.824-39.616-384-93.12v-680.848c100.384 72.16 271.232 101.968 384 101.968h16v672h-16z" />
<glyph unicode="&#xeb13;" glyph-name="book-open-line" d="M120.588 968.588c-7.64-7.64-8.588-13.012-8.588-48.588v-40h-40c-63.112 0-56 51.804-56-408 0-386.668 0.108-392.108 8-400 7.912-7.912 13.332-8 496-8s488.088 0.088 496 8c7.892 7.892 8 13.332 8 400 0 459.804 7.112 408-56 408h-40v40c0 35.576-0.948 40.948-8.588 48.588-8.176 8.176-10.984 8.46-59 6-130.736-6.704-234.352-37.604-331.412-98.836-7.772-4.904-10.228-4.904-18 0-97.060 61.232-200.676 92.132-331.412 98.836-48.016 2.46-50.824 2.176-59-6M263.244 917.544c73.644-10.616 152.756-38.596 207.756-73.484l25-15.856v-214.104c0-208.768 0.2-214.3 8-222.1 10.184-10.184 21.816-10.184 32 0 7.8 7.8 8 13.332 8 222.1v214.104l25 15.856c71.508 45.36 161.332 71.716 280 82.152l31 2.728v-607.716l-50.572-4.652c-112.752-10.372-202.864-37.876-282.912-86.352-12.916-7.82-24.848-14.22-26.516-14.22s-13.6 6.4-26.516 14.22c-80.048 48.476-170.16 75.98-282.912 86.352l-50.572 4.652v607.716l31-2.728c17.052-1.5 49.56-5.4 72.244-8.668M112 560c0-258.696 0.36-272.36 7.352-279.352 5.932-5.932 16.216-7.828 53.216-9.812 126.704-6.792 218.924-33.2 305.504-87.492 20.476-12.84 39.344-23.344 41.928-23.344s21.452 10.504 41.928 23.344c86.58 54.292 178.8 80.7 305.504 87.492 37 1.984 47.284 3.88 53.216 9.812 6.992 6.992 7.352 20.656 7.352 279.352v272h48v-720h-912v720h48v-272" />
<glyph unicode="&#xeb14;" glyph-name="book-open-2" d="M1001.6 972.8c-4.8 3.2-9.6 3.2-14.4 1.6l-475.2-156.8-475.2 156.8c-4.8 1.6-9.6 1.6-14.4-1.6-3.2-3.2-6.4-8-6.4-12.8v-736c0-6.4 4.8-12.8 11.2-14.4l480-160c1.6 0 3.2-1.6 4.8-1.6s3.2 0 4.8 1.6l480 160c6.4 1.6 11.2 8 11.2 14.4v736c0 4.8-3.2 9.6-6.4 12.8zM430.4 262.4c-1.6-6.4-8-11.2-14.4-11.2-1.6 0-3.2 0-4.8 1.6l-256 84.8c-8 3.2-12.8 11.2-9.6 20.8 3.2 8 11.2 12.8 20.8 9.6l256-84.8c6.4-4.8 11.2-12.8 8-20.8zM430.4 464c-1.6-6.4-8-11.2-14.4-11.2-1.6 0-3.2 0-4.8 1.6l-256 84.8c-8 3.2-12.8 11.2-9.6 20.8 3.2 8 11.2 12.8 20.8 9.6l256-84.8c6.4-3.2 11.2-12.8 8-20.8zM430.4 646.4c-1.6-6.4-8-11.2-14.4-11.2-1.6 0-3.2 0-4.8 1.6l-256 84.8c-8 3.2-12.8 11.2-9.6 20.8 3.2 8 11.2 12.8 20.8 9.6l256-84.8c6.4-4.8 11.2-12.8 8-20.8zM868.8 337.6l-256-84.8c-1.6 0-3.2-1.6-4.8-1.6-6.4 0-12.8 4.8-14.4 11.2-3.2 8 1.6 17.6 9.6 20.8l256 84.8c8 3.2 17.6-1.6 20.8-9.6 1.6-9.6-3.2-19.2-11.2-20.8zM868.8 539.2l-256-84.8c-1.6 0-3.2-1.6-4.8-1.6-6.4 0-12.8 4.8-14.4 11.2-3.2 8 1.6 17.6 9.6 20.8l256 84.8c8 3.2 17.6-1.6 20.8-9.6 1.6-8-3.2-17.6-11.2-20.8zM868.8 721.6l-256-84.8c-1.6 0-3.2-1.6-4.8-1.6-6.4 0-12.8 4.8-14.4 11.2-3.2 8 1.6 17.6 9.6 20.8l256 84.8c8 3.2 17.6-1.6 20.8-9.6 1.6-9.6-3.2-19.2-11.2-20.8z" />
<glyph unicode="&#xeb15;" glyph-name="book-open-2-line" d="M24 968c-7.888-7.888-8-13.332-8-385.772v-377.776l8.824-6.18c4.852-3.396 118.252-42.64 252-87.2l243.176-81.024 244.48 81.46c144.612 48.18 247.556 84.528 252 88.972 7.252 7.252 7.52 20.88 7.52 383.52 0 370.668-0.112 376.112-8 384-4.4 4.4-11.132 8-14.964 8-3.828 0-113.628-35.54-244-78.976l-237.036-78.972-237.036 78.972c-130.372 43.436-240.172 78.976-244 78.976-3.832 0-10.564-3.6-14.964-8M294.96 841.028l225.040-74.976 225.040 74.976c123.772 41.232 226.372 74.972 228 74.972s2.96-153.468 2.96-341.040v-341.040l-456-151.84-456 151.84v341.040c0 187.572 1.332 341.040 2.96 341.040s104.228-33.74 228-74.972M152 744c-10.112-10.112-10.2-21.8-0.232-31.768 9.204-9.204 264.3-93.364 277.3-91.484 12.86 1.86 21.756 19.876 16.024 32.452-3.976 8.728-20.86 15.388-137.812 54.372-73.304 24.436-136.432 44.428-140.28 44.428-3.852 0-10.6-3.6-15-8M730.72 707.256c-114.928-38.616-131.844-45.348-135.812-54.056-5.732-12.576 3.164-30.596 16.024-32.452 13-1.88 268.096 82.28 277.3 91.484 4.272 4.272 7.768 11.368 7.768 15.768 0 10.844-13.964 24.072-25 23.684-4.952-0.172-68.076-20.164-140.28-44.428M157.12 567.92c-11.728-4.72-15.728-21.344-7.984-33.164 4.776-7.288 33.828-18.548 140.668-54.512 145.276-48.904 150.64-49.804 156.528-26.352 5.568 22.192-0.66 25.388-142.836 73.284-73.424 24.732-134.396 44.824-135.496 44.644s-5.996-1.936-10.88-3.9M734.152 526.848c-115.86-39.408-132.572-46.136-137.812-55.476-7.472-13.316-1.216-29.996 12.544-33.448 13.14-3.3 270.824 83.876 280.116 94.76 12.588 14.748 6.172 32.984-13 36.944-6.504 1.344-56.096-13.612-141.848-42.78M152 360c-10.112-10.112-10.2-21.8-0.232-31.768 9.204-9.204 264.3-93.364 277.3-91.484 12.86 1.86 21.756 19.876 16.024 32.452-3.976 8.728-20.86 15.388-137.812 54.372-73.304 24.436-136.432 44.428-140.28 44.428-3.852 0-10.6-3.6-15-8M730.72 323.256c-114.928-38.616-131.844-45.348-135.812-54.056-5.732-12.576 3.164-30.596 16.024-32.452 13-1.88 268.096 82.28 277.3 91.484 4.272 4.272 7.768 11.368 7.768 15.768 0 10.844-13.964 24.072-25 23.684-4.952-0.172-68.076-20.164-140.28-44.428" />
<glyph unicode="&#xeb16;" glyph-name="border" d="M976 1008h-928c-17.673 0-32-14.327-32-32v0-928c0-17.673 14.327-32 32-32v0h928c17.673 0 32 14.327 32 32v0 928c0 17.673-14.327 32-32 32v0zM944 80h-864v864h864zM512 736c8.837 0 16 7.163 16 16v0 112c0 8.837-7.163 16-16 16s-16-7.163-16-16v0-112c0-8.837 7.163-16 16-16v0zM752 496h112c8.837 0 16 7.163 16 16s-7.163 16-16 16v0h-112c-8.837 0-16-7.163-16-16s7.163-16 16-16v0zM512 144c8.837 0 16 7.163 16 16v0 112c0 8.837-7.163 16-16 16s-16-7.163-16-16v0-112c0-8.837 7.163-16 16-16v0zM160 496h112c8.837 0 16 7.163 16 16s-7.163 16-16 16v0h-112c-8.837 0-16-7.163-16-16s7.163-16 16-16v0z" />
<glyph unicode="&#xeb17;" glyph-name="border-line" d="M24 1000c-7.912-7.912-8-13.332-8-496s0.088-488.088 8-496c7.912-7.912 13.332-8 496-8s488.088 0.088 496 8c7.912 7.912 8 13.332 8 496s-0.088 488.088-8 496c-7.912 7.912-13.332 8-496 8s-488.088-0.088-496-8M976 504v-456h-912v912h912v-456M504 888c-7.408-7.408-8-13.332-8-80s0.592-72.592 8-80c4.4-4.4 11.6-8 16-8s11.6 3.6 16 8c7.408 7.408 8 13.332 8 80s-0.592 72.592-8 80c-4.4 4.4-11.6 8-16 8s-11.6-3.6-16-8M136 520c-4.4-4.4-8-11.6-8-16s3.6-11.6 8-16c7.408-7.408 13.332-8 80-8s72.592 0.592 80 8c4.4 4.4 8 11.6 8 16s-3.6 11.6-8 16c-7.408 7.408-13.332 8-80 8s-72.592-0.592-80-8M744 520c-4.4-4.4-8-11.6-8-16s3.6-11.6 8-16c7.408-7.408 13.332-8 80-8s72.592 0.592 80 8c4.4 4.4 8 11.6 8 16s-3.6 11.6-8 16c-7.408 7.408-13.332 8-80 8s-72.592-0.592-80-8M504 280c-7.408-7.408-8-13.332-8-80s0.592-72.592 8-80c4.4-4.4 11.6-8 16-8s11.6 3.6 16 8c7.408 7.408 8 13.332 8 80s-0.592 72.592-8 80c-4.4 4.4-11.6 8-16 8s-11.6-3.6-16-8" />
<glyph unicode="&#xeb18;" glyph-name="border-radius" d="M80 688h-64v192c0.082 70.659 57.34 127.918 127.992 128h192.008v-64h-192c-35.346 0-64-28.654-64-64v0zM1008 688h-64v192c0 35.346-28.654 64-64 64v0h-192v64h192c70.659-0.082 127.918-57.34 128-127.992v-0.008zM336 16h-192c-70.659 0.082-127.918 57.34-128 127.992v192.008h64v-192c0-35.346 28.654-64 64-64v0h192zM880 16h-192v64h192c35.346 0 64 28.654 64 64v0 192h64v-192c-0.082-70.659-57.34-127.918-127.992-128h-0.008z" />
<glyph unicode="&#xeb19;" glyph-name="border-radius-line" d="M92.252 999.232c-29.312-11.252-56.548-38.868-67.68-68.62-7.868-21.032-8.572-30.616-8.572-116.764 0-88.516 0.456-94.304 8-101.848 4.4-4.4 11.6-8 16-8s11.6 3.6 16 8c7.524 7.524 8.004 13.396 8.088 99 0.076 79.712 1 92.984 7.436 107 17.448 38.004 30.996 42 142.348 42 84.796 0 90.6 0.472 98.128 8 4.4 4.4 8 11.6 8 16s-3.6 11.6-8 16c-7.564 7.564-13.184 7.988-103 7.792-86.42-0.192-96.964-0.964-116.748-8.56M728 1000c-4.4-4.4-8-11.6-8-16s3.6-11.6 8-16c7.524-7.524 13.396-8.004 99-8.088 79.712-0.076 92.984-1 107-7.436 38.004-17.448 42-30.996 42-142.348 0-84.796 0.472-90.6 8-98.128 4.4-4.4 11.6-8 16-8s11.6 3.6 16 8c7.544 7.544 8 13.332 8 101.848 0 111.46-3.452 126.452-36.56 158.696-33.124 32.264-47.312 35.456-157.592 35.456-88.516 0-94.304-0.456-101.848-8M24 296c-7.544-7.544-8-13.332-8-101.848 0-110.636 3.476-126.008 35.808-158.344 32.336-32.332 47.708-35.808 158.344-35.808 88.516 0 94.304 0.456 101.848 8 10.184 10.184 10.184 21.816 0 32-7.528 7.528-13.332 8-98.128 8-111.352 0-124.9 3.996-142.348 42-6.436 14.016-7.36 27.288-7.436 107-0.084 85.604-0.564 91.476-8.088 99-4.4 4.4-11.6 8-16 8s-11.6-3.6-16-8M984 296c-7.524-7.524-8.004-13.396-8.088-99-0.076-79.712-1-92.984-7.436-107-17.448-38.004-30.996-42-142.348-42-84.796 0-90.6-0.472-98.128-8-4.4-4.4-8-11.6-8-16s3.6-11.6 8-16c7.544-7.544 13.332-8 101.848-8 84.184 0 96.064 0.828 115.32 8.032 29.112 10.892 52.092 31.588 65.588 59.072l11.244 22.896 1.252 98.748c1.208 95.284 0.96 99.040-7 107-10.424 10.424-21.992 10.512-32.252 0.252" />
<glyph unicode="&#xeb1a;" glyph-name="browser-chrome" d="M512 688c-97.040 0-176-78.96-176-176s78.96-176 176-176 176 78.96 176 176-78.96 176-176 176zM304.384 519.6c4.048 111.152 95.488 200.4 207.616 200.4h450.112c-78.8 169.856-250.864 288-450.112 288-154.736 0-293.12-71.264-384.144-182.64l176.528-305.76zM622.336 688c58.544-36.848 97.664-101.872 97.664-176 0-37.456-10.096-72.544-27.504-102.944-0.16-0.336-0.16-0.72-0.352-1.056l-225.088-389.872c14.816-1.328 29.776-2.128 44.944-2.128 273.504 0 496 222.496 496 496 0 61.968-11.52 121.264-32.368 176h-353.296zM609.12 328.208c-29.024-15.408-62.048-24.208-97.12-24.208-76.064 0-142.528 41.168-178.8 102.256-0.448 0.576-0.96 1.088-1.344 1.744l-224.96 389.648c-57.168-80.816-90.896-179.344-90.896-285.648 0-246.464 180.72-451.424 416.576-489.568l176.544 305.776z" />
<glyph unicode="&#xeb1b;" glyph-name="browser-chrome-line" d="M442 1001.78c-96.4-16.288-185.964-58.228-251.832-117.92-95.864-86.876-149.368-184.76-168.284-307.86-21.748-141.56 24.212-297.752 118.448-402.528 173.24-192.616 447.052-228.82 659.988-87.26 109.596 72.86 185.716 187.132 214.344 321.788 9.984 46.952 10 144.9 0.036 192-24.172 114.244-76.008 203.328-165.496 284.428-104.060 94.304-266.52 141.124-407.204 117.352M590.476 953.94c71.092-12.124 139.16-39.828 193.752-78.86 46.788-33.452 109.104-101.872 129.412-142.080l6.564-13h-209.368c-132.024 0-218.136-1.588-233.1-4.304-75.68-13.72-145.128-77.828-165.78-153.024l-6.404-23.328-70.776 122.608c-38.928 67.436-70.776 124-70.776 125.7 0 7.552 73.036 75.156 102 94.416 96.492 64.156 215.352 90.484 324.476 71.872M225.756 581c50.312-87.452 97.836-169.8 105.612-183 49.164-83.468 141.892-124.356 236.632-104.34 14.3 3.020 26.276 5.232 26.616 4.916s-31.192-55.476-70.068-122.576l-70.684-122-13.86 1.4c-41.752 4.212-123.496 37.216-172.004 69.448-48.252 32.060-99.628 83.78-130.26 131.128-73.072 112.96-92.332 251.056-53.272 382.024 8.708 29.2 42.304 102 47.068 102 1.512 0 43.908-71.548 94.22-159M562.16 665.792c82.888-21.584 135.916-101.888 122.88-186.092-20.98-135.544-186.236-190.576-282.444-94.052-64.592 64.796-66.48 168.764-4.232 232.672 45.112 46.316 103.384 63.204 163.796 47.472M952.328 649.144c15.892-46.76 21.5-85.548 21.276-147.144-0.248-69.196-8.404-112.232-32.128-169.54-53.384-128.96-161.24-226.652-293.988-266.272-41.484-12.384-139.488-23.968-139.488-16.488 0 0.936 42.692 75.188 94.868 165 52.18 89.816 101.708 176.984 110.064 193.704 39.36 78.76 26.224 174.456-33.028 240.648l-20.636 23.048 285.972-2.1 7.088-20.856" />
<glyph unicode="&#xeb1c;" glyph-name="browser-edge" d="M54.144 567.408c19.424 243.248 210.032 440.592 466.464 440.592 46.144 0 142.928-8.032 230.112-61.776 111.632-68.832 175.632-160.928 201.024-264.912 16.128-66.032 18.096-145.008 18.096-145.008v-110.56h-625.376c0 0-12.848-202.8 273.68-202.8 98.288 0 188.976 21.12 265.456 73.408v-208.112c0 0-114.448-72.224-291.616-72.224-169.056 0-285.728 67.152-352.368 164.656-56.96 83.328-70.16 140.592-70.16 229.968 0 167.872 104.992 300.208 241.744 355.664-37.568-43.808-60.384-91.216-66.752-146.448h345.040c0 0 15.28 198.576-194.144 198.576-182.032-0.032-351.888-112.816-441.2-251.024z" />
<glyph unicode="&#xeb1d;" glyph-name="browser-edge-line" d="M468.396 1003.808c-166.084-20.832-311.864-131.416-375.84-285.088-26.34-63.272-45.74-153.56-36.644-170.552 10.968-20.5 33.26-18.164 47.564 4.984 12.816 20.736 61.412 73.888 91.664 100.264 31.704 27.636 74.22 57.080 104.72 72.524 24.396 12.352 72.44 31.096 74.476 29.056 0.728-0.728-13.452-10.988-31.508-22.808-18.056-11.816-49.136-37.844-69.068-57.836-51.32-51.484-79.132-100.992-98.872-176.016-11.232-42.684-12.208-149.376-1.752-191.284 38.752-155.308 153.432-262.212 318.864-297.236 42.436-8.984 126.648-11.948 174.372-6.136 99.58 12.132 223.024 54.228 236.568 80.672 3.536 6.908 4.96 38.768 5 112.108 0.056 97.648-0.328 102.956-8.232 113-11.16 14.192-19.528 13.328-50.228-5.192-61.948-37.364-131.78-54.104-225.48-54.056-68.488 0.036-86.72 2.912-136.38 21.516-44.856 16.804-90.884 71.252-98.036 115.968l-2.608 16.304h588.572l6.224 8.892c4.92 7.020 6.228 20.684 6.224 65-0.004 93.224-9.416 168.272-28.416 226.656-46.944 144.228-180.568 261.62-334.024 293.444-38.388 7.96-116.912 10.868-157.16 5.816M618 950.424c117.324-25.248 221.56-105.012 274.34-209.932 29.5-58.632 40.524-114.204 45.932-231.492l2.628-57h-290.712c-291.572 0-302.36-0.472-311.128-13.6-4.924-7.372-3.408-39.372 3.060-64.56 9.436-36.732 24.548-64.124 50.964-92.364 48.648-52.004 109.188-75.436 206.916-80.076 79.464-3.776 153.080 8.14 222.536 36.028l33.464 13.44v-146l-17-6.908c-146.256-59.444-294.052-65.844-413.748-17.916-104.3 41.764-181.916 133.080-205.648 241.956-8.092 37.108-6.968 129.732 2.008 166 15.808 63.852 48.964 119.416 98.776 165.536 15.824 14.648 29.34 26.072 30.032 25.38s-2.2-12.364-6.424-25.936c-11.508-36.98-13.784-61.384-6.62-70.98 5.796-7.764 11.308-8.032 186.18-9.12 212.156-1.316 196.444-4.856 196.444 44.28 0 16.036-2.768 39.888-6.156 53-27.524 106.632-105.42 158.828-227.844 152.672-128.036-6.432-236.66-53.756-337.608-147.076-15.616-14.436-28.392-24.828-28.392-23.092 0 6.22 19.164 53.9 31.1 77.388 30.624 60.244 86.040 122.232 143.384 160.384 53.24 35.424 108.376 56.056 175.516 65.672 32.988 4.728 114.108 1.612 148-5.684M568.056 768.348c23.528-7.032 56.896-29.4 70.444-47.22 15.28-20.092 27.48-51.228 31.4-80.128l2.852-21h-144.376c-79.408 0-144.376 0.62-144.376 1.372 0 0.756 3.38 11.192 7.508 23.196 10.016 29.116 22.26 52.616 42.016 80.656 16.16 22.928 16.28 23.368 9.736 34.776l-6.632 11.556 14.684 1.804c23.612 2.904 101.432-0.436 116.744-5.012" />
<glyph unicode="&#xeb1e;" glyph-name="browser-firefox" d="M1004.688 599.008c-2.176 15.264-10.144 42.256-10.144 42.256s-8.688-22.864-19.536-59.504c17.152 160.88-68.832 257.936-89.392 269.296 0 0 1.024-5.536 2.8-15.296-26.896 42.272-67.824 62.144-67.824 62.144s1.232-7.024 3.232-21.568c-83.952 71.968-192.832 115.664-311.824 115.664-141.104 0-267.968-61.376-355.856-158.64-23.472 30.096-25.376 69.52-25.376 69.52s-61.856-61.68-50-174.656c-23.952-33.952-46.384-74.336-64.768-178.032 0 0 0.048 0.16 0.144 0.432-0.032-0.208-0.080-0.4-0.112-0.592 0 0 0.32 1.008 0.928 2.784-0.144-0.784-0.288-1.52-0.432-2.32 0 0 0.064 0.176 0.144 0.432-0.032-0.192-0.064-0.384-0.112-0.592 0 0 1.008 3.2 3.024 8.592 0.032 0.16 0.064 0.304 0.080 0.464 3.6 9.6 10.304 25.92 20.096 43.776-0.032-0.128-0.080-0.288-0.128-0.432-0.096-0.192-0.208-0.368-0.304-0.56 0.096 0.176 0.208 0.368 0.304 0.544-11.616-36.736-20.528-93.152-15.136-176.912 0 0.048 0.016 0.128 0.016 0.176 0-0.112 0.016-0.224 0.016-0.336 0.048 0.512 0.16 1.68 0.352 3.376 0.048-0.912 0.096-1.808 0.16-2.736 0 0.048 0.016 0.144 0.016 0.192 0-0.128 0.016-0.24 0.016-0.368 0.096 1.232 0.624 5.952 1.696 13.264 0 0.112-0.016 0.208-0.016 0.32 1.424 9.6 3.776 23.616 7.392 40.032 3.968-72.736 23.904-139.216 60.832-202.416 33.696-57.728 115.088-185.632 343.456-241.408-18.192 4.96-37.808 20.752-37.808 20.752 37.312-11.968 104.080-26.512 143.312-24.48-4.944 2.352-22.16 12.496-22.16 12.496 130.896-7.344 281.264 37.344 300 109.136 9.136 4.736 18.496 10.224 28.128 16.768 59.568 40.432 134.672 131.856 110.64 196.768 35.696 71.024 55.792 155.408 44.144 231.664zM842.176 566.16c-18.976 48.416-44.96 68.528-44.96 68.528 8.608-98.384 11.184-133.504-6.768-203.568-5.216 22.576-12.256 35.168-12.256 35.168-7.536-83.248-62.512-180.672-87.072-163.808-0.016 0.032-0.096 0.080-0.096 0.080 0.704 6.064 1.328 12.432-0.288 16.496 0 0-11.424-6.224-18.384-15.488-8.672-11.568-37.312-37.104-43.808-32.592 6.048 1.856 10.88 9.552 12.192 17.12-34.816-24.336-108.816-34.416-188.496 5.44 10.448 1.2 26.096 4.88 38.016-2.176-11.92 13.024-40.72 10.32-61.376 16.832-17.968 5.68-41.408 30.88-54.912 43.648 0.4-0.096 55.44-16.176 118.752 5.040 10.976 3.68 20.752 8.752 29.056 14.496 22.816 15.792 55.648 39.104 70.72 36.64 0.592-0.080 1.184-0.128 1.776-0.272 18.16-4.064 30.272 14.176 16.128 30.384-14.096 16.208-51.488 46.88-94.848 26.336-119.088-56.4-198.544 26.976-184.768 75.856 2.576 9.184 12.4 21.344 16.576 22.144 23.12 3.072 43.376-15.504 43.376-15.504s11.136 34.144 2.4 64.032c20.128 25.312 90.976 47.76 105.552 83.36 3.456 8.432 7.36 28.24-3.936 32.384-18.768 4.496-63.344 4.64-79.824 4.512-31.392-0.256-46.016 27.040-50.848 38.592-0.016-0.048-0.016-0.080-0.032-0.128-0.048 0.112-0.096 0.224-0.144 0.336 9.104 33.024 18.72 54.592 66.848 94.304-82.64 12.048-130.368-53.888-130.4-53.968-44.512 11.056-82.304 8.384-113.888-1.728-0.032 0.032-0.080 0.048-0.128 0.080-2.208 1.056-4.192 2.288-6.224 3.504 81.984 90.608 200.32 147.76 331.888 147.76 74.864 0 145.392-18.624 207.472-51.248 65.072-49.488 92.912-92.688 111.424-131.728-24.432 24.992-66.272 51.072-94.528 53.248 42.112-31.328 112.384-123.904 105.808-264.112z" />
<glyph unicode="&#xeb1f;" glyph-name="browser-firefox-line" d="M442 986.112c-94.052-13.168-175.484-49.712-246.736-110.732-25.14-21.528-25.924-21.292-32.872 9.996-3.428 15.44-7.164 21.872-15.38 26.484-9.812 5.508-11.912 5.452-21.932-0.58-32.556-19.596-60.832-88.216-63.068-153.052-1.104-32.060-3.844-47.248-13.488-74.796-33.728-96.328-34.4-209.392-1.932-325.432 17.756-63.472 38.032-102.088 82.388-156.912 90.604-111.992 225.784-176.876 383.264-183.968 81.816-3.684 151.184 9.704 222.132 42.864 50.104 23.416 79.068 42.916 118.608 79.84 72.74 67.932 123.016 155.628 123.016 214.58 0 9.896 2.704 23.22 6.008 29.608 6.752 13.064 23.716 66.656 27.844 87.988 11.112 57.4 9.324 130.188-4.476 182-9.724 36.508-41.384 99.984-69.24 138.816-26.808 37.372-90.844 102.176-111.56 112.884-9.616 4.976-14.568 5.516-20.66 2.256-6.5-3.48-10.58-2.328-21.612 6.084-11.792 8.996-43.216 23.668-94.304 44.040-27.928 11.136-86.756 25.752-119.896 29.792-42.652 5.196-80.152 4.672-126.104-1.76M592 936.072c37.284-8.28 64-17.5 64-22.080 0-2.608 9.056-12.376 20.128-21.712 42.992-36.252 86.072-108.596 111.74-187.64 15.508-47.76 15.54-52.64 0.36-52.64-19.428 0-24.588-11.904-21.664-49.964 2.996-38.976-4.152-105.312-15.256-141.544-21.16-69.068-71-138.192-113.052-156.792-39.608-17.52-114.52-13.576-166.452 8.764-19.128 8.232-20.216 9.348-11.468 11.788 44.212 12.332 58.544 18.38 85.108 35.892 20.408 13.456 37.3 21.308 51.468 23.928 52.564 9.72 52.632 57.088 0.136 90.744-32.724 20.976-56.364 22.256-104.352 5.64-54.548-18.884-88.712-15.536-117.116 11.484-14.46 13.756-23.444 33.528-17.804 39.172 1.508 1.504 8.172-0.38 14.808-4.188s15.068-6.868 18.74-6.796c17.196 0.328 28.676 23.364 28.676 57.548v20.484l29 17.732c56.648 34.632 75 56.448 75 89.148 0 31.184-22.492 42.192-87.264 42.72-16.092 0.132-32.744 2.104-37 4.38-18.172 9.728-4.78 38.824 33.040 71.784 22.16 19.312 26.2 28.936 17.632 42.016-17.26 26.344-96.656 13.076-141.14-23.584-14.472-11.928-16.336-12.356-53.772-12.356-43.504 0-43.432-0.172-10.256 25.396 49.112 37.844 122.068 69.424 190.76 82.572 32.964 6.312 124.048 5.204 156-1.896M817.524 828c5.504 0 11.22 1.968 12.708 4.376 7.86 12.716 78.896-77.208 106.148-134.376 22.992-48.24 31.62-87.276 31.62-143.096 0-59.020-10.128-107.968-32.464-156.904-5.928-12.992-9.3-28.408-9.624-44-1.6-77.428-95.82-192.876-200.22-245.332-78.528-39.452-158.18-52.176-253.796-40.544-107.148 13.036-197.2 55.056-269.772 125.876-73.644 71.864-102.9 128.208-122.188 235.332-15.844 87.972-8.18 185.572 20.176 256.948 10.212 25.708 11.924 35.416 12.132 68.824 0.156 24.756 2.708 46.752 7.024 60.504l6.78 21.608 12.652-20.352c7.112-11.44 20.084-25.044 29.62-31.064 16.732-10.564 17.368-10.644 46.336-5.688 26.984 4.616 62.224 3.6 83.824-2.412 6.44-1.792 14.516 3.028 33.588 20.048 25.732 22.96 33.172 26.124 22.576 9.6-10.864-16.948-15.12-40.776-9.952-55.76 12.896-37.388 37.212-51.588 88.336-51.588 52.66 0 51.964-2.424-13.028-45.432-20.9-13.828-40.54-28.248-43.64-32.040-3.18-3.884-5.364-14.268-5.004-23.78l0.64-16.884-15.916-0.416c-20.436-0.536-34.488-9.896-42.060-28.016-18.52-44.324 8.48-94.156 65.5-120.892 19.54-9.16 27.448-10.504 60.48-10.272 31.316 0.22 42.832 2.156 65.476 11 31.708 12.384 48.808 13.488 62.32 4.024l9.572-6.704-13.736-4.756c-7.556-2.616-27.596-13.804-44.532-24.86-39.296-25.652-60.544-30.832-113.24-27.608-36.176 2.212-41.488 1.68-47.304-4.752-12.864-14.212-8.308-26.296 19.532-51.808 30.792-28.216 67.728-48.448 111.912-61.3 41.432-12.052 115.532-13.22 150.864-2.376 28.56 8.764 66.68 37.22 92.26 68.872 38.16 47.208 71.212 129.992 80.724 202.184 2.352 17.836 2.648 18.152 15.628 16.636 21.696-2.532 26.524 5.928 26.52 46.464-0.012 79.356-32.168 182.744-82.332 264.716l-11.016 18 22.436-21c14.696-13.756 25.888-21 32.44-21" />
<glyph unicode="&#xeb20;" glyph-name="browser-ie" d="M955.024 786.24c91.776 238.16-86.496 221.504-86.496 221.504-114.384 0-257.36-104.16-257.36-104.16s-170.544 45.952-341.104-57.184c-185.856-118.48-179.728-328.848-179.728-328.848 151.152 216.512 361.52 304.336 361.52 304.336v-14.304c-310.464-212.304-384-522.88-402.368-586.192-18.4-63.328-6.144-205.392 124.576-205.392s263.488 105.296 263.488 105.296 28.592-6.128 106.208-6.128c326.8 0 404.416 289.008 404.416 289.008h-290.032c0 0-20.432-94.96-124.592-94.96-142.976 0-134.8 149.104-134.8 149.104h553.52c26.544 383.984-308.416 439.136-308.416 439.136s118.368 83.744 220.592 83.744c162 0 85.408-189.776 85.408-189.776l5.168-5.184zM421.344 125.552c0 0-199.488-121.072-289.040-37.184-47.968 83.888 29.984 202.688 29.984 202.688s65.968-122.336 259.056-165.504zM661.296 588.992h-263.248c0 0-3.328 128.288 134.96 128.288 133.536 0 128.288-128.288 128.288-128.288z" />
<glyph unicode="&#xeb21;" glyph-name="browser-ie-line" d="M812 1002.008c-45.632-10.288-100.384-31.084-159.212-60.476l-57.212-28.584-50.788 1.996c-212.096 8.34-385.020-106.52-438.036-290.944-20.492-71.28-22.264-113.92-8.080-194.396l6.412-36.396-16.432-43.604c-37.764-100.22-50.216-157.184-44.592-204.012 14.256-118.752 96.948-167.848 226.012-134.188 34.396 8.972 44.636 14.224 47.928 24.592 7.348 23.152-12.468 35.7-41.592 26.336-92.568-29.768-152.596-12.212-176.12 51.5-13.712 37.136-12.184 76.664 5.256 136.336 61.144 209.156 169.088 366.384 350.456 510.476 97.048 77.096 223.396 148.46 322 181.868 38.72 13.12 48.8 14.944 84 15.196 33.152 0.244 42.324-1.076 53.58-7.708 38.804-22.856 43.852-66.052 17.704-151.524l-10.868-35.528 11.016-9.472c13.368-11.5 20.156-11.888 30.312-1.732 10.148 10.148 27.024 64.104 31.592 101.012 11.748 94.936-32.356 150.040-123.044 153.72-20.756 0.844-44.552-0.92-60.292-4.468M517.8 864.544c-2.088-1.9-17.448-12.552-34.132-23.668-121.472-80.964-246.016-211.316-318.036-332.872l-23.632-39.884-3.216 16.94c-7.168 37.796 8.524 123.124 32.288 175.536 47.4 104.536 147.756 178.58 272.732 201.216 34.54 6.256 79.708 7.924 73.996 2.732M726.62 852.684c-14.216-15.708-7.676-26.728 31.38-52.872 59.5-39.832 109.020-104.352 132.148-172.172 11.412-33.46 21.852-88.004 21.852-114.164v-17.476h-248c-242.668 0-248.172-0.172-256-8-15.264-15.264-8.168-76.372 14.24-122.64 13.5-27.88 37.828-51.988 65.14-64.564 19.22-8.852 28.368-10.444 60.876-10.608 34.896-0.172 40.34 0.876 62 11.932 16.044 8.188 28.28 18.24 37.736 31l13.992 18.88h115.008c63.256 0 115.008-0.96 115.008-2.132 0-5.76-23.080-46.656-38.732-68.636-30.152-42.34-79.408-82.236-128.12-103.78-12.54-5.544-39.976-14.82-60.972-20.616-35.056-9.676-44.388-10.536-114.176-10.524-85.412 0.016-131.916 7.408-188.852 30.028-53.048 21.072-79.86 38.664-125.688 82.468-16.8 16.056-33.448 29.192-37 29.192-9.544 0-22.46-14.62-22.46-25.42 0-21.82 71.52-84.3 130-113.568 134.172-67.152 329.564-69.968 454.948-6.552 75.92 38.396 142.496 109.956 175.044 188.14 17.352 41.68 18.604 50.804 8.376 61.032-8.36 8.36-10.312 8.452-161.272 7.416l-152.812-1.048-12.14-21.616c-15.86-28.228-28.536-37.26-55.412-39.488-42.248-3.504-80.436 15.604-97.644 48.86-6.356 12.284-16.952 47.88-17.040 57.244-0.036 3.948 52.016 5 247.060 5 217.18 0 248.188 0.756 256 6.228 8.1 5.672 8.892 9.524 8.892 43.292 0 68.068-19.82 150.152-48.892 202.48-31.6 56.88-86.9 116.716-134.7 145.752-26.156 15.888-39.944 17.808-49.788 6.932M505.536 714.608c-25.948-6.62-53.532-22.716-67.752-39.528-18.048-21.34-33.724-59.208-36.408-87.948-2.16-23.128-1.472-27.036 6.096-34.604 8.368-8.368 11.048-8.528 144.528-8.528 130.668 0 136.312 0.312 144 8 8.904 8.904 10.032 24.34 3.76 51.54-10.82 46.94-48.148 92.78-86.616 106.376-25.24 8.92-81.428 11.368-107.608 4.692M602 661c21.62-11.172 36.444-27.588 43.844-48.56 3.388-9.596 6.156-18.12 6.156-18.944s-45-1.496-100-1.496c-112.296 0-106.572-1.892-91.464 30.252 15.92 33.864 49.728 50.636 97.464 48.352 18.276-0.876 33.556-4.212 44-9.604" />
<glyph unicode="&#xeb22;" glyph-name="browser-opera" d="M1008 512v0 0c0-146.928-63.904-278.928-165.408-369.744-127.216-61.984-245.792-18.592-285.040 8.48 124.96 27.424 219.376 178.512 219.376 361.264s-94.416 333.84-219.392 361.264c39.248 27.072 157.824 70.464 285.040 8.48 101.52-90.816 165.424-222.816 165.424-369.744v0 0zM348.736 791.504c-54.832-64.736-90.352-160.432-92.768-267.824 0-0.272 0-23.088 0-23.36 2.416-107.392 37.936-203.104 92.768-267.84 71.152-92.4 176.928-150.992 295.040-150.992 72.656 0 140.624 22.176 198.752 60.736-87.728-78.48-203.536-126.224-330.528-126.224-7.92 0-15.792 0.208-23.616 0.576-262.96 12.336-472.384 229.424-472.384 495.424 0 273.936 222.064 496 496 496 0.624 0 1.248-0.016 1.872-0.016 126.272-0.464 241.392-48.112 328.704-126.24-58.144 38.576-126.128 60.768-198.8 60.768-118.096-0.016-223.872-58.592-295.040-151.008z" />
<glyph unicode="&#xeb23;" glyph-name="browser-opera-line" d="M460 1003.576c-121.256-13.684-236.196-74.644-320.232-169.84-146.092-165.492-163.988-416.98-42.872-602.52 161.84-247.92 495.296-305.64 729.744-126.316 32.784 25.076 86.56 81.516 108.54 113.92 165.508 243.976 89.012 577.808-165.496 722.212-94.604 53.68-199.864 74.94-309.684 62.544M608 951.42l26-4.808-35.86-5.264c-80.992-11.896-147.744-44.78-209.788-103.348-55.176-52.080-93.648-112.216-116.048-181.384-17.908-55.3-22.304-85.372-22.304-152.616s4.396-97.316 22.304-152.616c27.352-84.464 82.504-160.792 155.696-215.488 48.584-36.304 122.348-64.696 184-70.82l26-2.58-24-5.268c-37.368-8.196-107.568-10.856-148-5.608-305.416 39.648-484.568 354.272-362.28 636.228 61.408 141.58 195.72 243.792 350.28 266.564 40.296 5.936 113.4 4.516 154-2.992M724.184 886.080c42.864-10.892 98.628-40.152 121.848-63.94 65.264-66.844 110.004-156.988 124.148-250.14 13.46-88.608-0.408-182.792-38.736-263.152-18.264-38.292-56.644-93.316-84.472-121.116-27.7-27.664-76.044-53.608-122.972-65.996-32.864-8.676-112.352-9.844-146-2.148-26.052 5.96-26.432 5.464 14 18.46 79.98 25.716 156.348 113.496 187.712 215.768 14.148 46.124 20.568 93.008 20.568 150.184 0 85.264-14 148.664-46.988 212.808-42.556 82.74-98.216 134.032-168.504 155.272-16.068 4.856-28.448 9.596-27.508 10.532 0.936 0.94 14.084 4.288 29.212 7.448 34.144 7.128 101.664 5.176 137.692-3.98M598.316 816.256c50.232-24.524 99.576-84.188 127.536-154.204 35.792-89.624 35.792-226.48 0-316.104-28.016-70.16-77.288-129.672-127.768-154.316-26.636-13.008-29.944-13.632-72.208-13.632-43.132 0-45.088 0.392-74.692 15.024-60.844 30.072-117.764 108.912-139.32 192.976-35.852 139.808-4.968 292.328 76.964 380.056 47.26 50.608 83.104 66.824 143.488 64.924 34.064-1.072 41.388-2.708 66-14.724" />
<glyph unicode="&#xeb24;" glyph-name="browser-safari" d="M512 16c-273.504 0-496 222.496-496 496s222.496 496 496 496 496-222.496 496-496-222.496-496-496-496zM512 976c-255.84 0-464-208.16-464-464s208.16-464 464-464 464 208.16 464 464-208.16 464-464 464zM512.768 944c-3.424 0-6.096-2.672-6.096-5.712v-79.616c0-3.040 2.672-5.712 6.096-5.712 3.040 0 6.096 2.672 6.096 5.712v79.616c0 3.040-2.672 5.712-6.096 5.712zM550.864 895.616c3.424-0.384 6.096 1.904 6.48 5.328l2.656 35.44c0 3.040-2.288 5.712-5.712 6.096s-6.096-2.288-6.48-5.328l-2.672-35.424c0-3.056 2.288-5.728 5.728-6.112zM579.424 846.096c3.424-0.384 6.48 1.52 7.232 4.576l15.616 78.096c0.384 3.040-1.52 6.096-4.96 6.864-3.424 0.768-6.48-1.52-7.232-4.576l-15.616-78.096c-0.368-3.056 1.536-6.096 4.96-6.864zM601.408 930.896c0.176-0.656 0.224-1.376 0.128-2.144 0.080 0.752 0.032 1.472-0.128 2.144zM625.136 880.384c3.424-0.768 6.48 1.136 7.232 4.192l9.52 34.288c1.136 3.040-1.136 6.48-4.192 7.232-2.288 0.576-4.8-0.368-6.224-2.16-0.048-0.048-0.064-0.112-0.112-0.176-0.4-0.56-0.736-1.168-0.896-1.856l-9.504-34.288c-1.152-3.040 1.136-6.48 4.176-7.232zM678.864 910.864c-3.424 1.136-6.864 0-8-3.040l-30.48-73.52c-1.136-3.040 0.384-6.48 3.424-7.616 3.040-1.52 6.48 0 8 3.040l30.48 73.52c1.136 3.040-0.384 6.464-3.424 7.616zM695.232 851.040c3.040-1.52 6.48-0.384 8 2.672l16 31.616c1.52 3.040 0.384 6.48-2.672 8-3.040 1.52-6.48 0.384-8-2.672l-16-31.616c-1.52-3.040-0.368-6.464 2.672-8zM700.272 799.792c0-0.048 0-0.096 0-0.144 0.112-1.904 0.928-3.808 2.576-4.976 2.672-1.904 6.48-1.136 8.384 1.52l44.192 65.904c1.52 2.672 0.768 6.48-1.904 8.384-3.040 1.904-6.48 1.136-8.384-1.52l-44.176-65.92c-0.576-0.976-0.72-2.112-0.688-3.248zM758.096 808.768c2.672-2.288 6.48-1.904 8.384 0.768l22.096 27.808c1.904 2.672 1.52 6.48-1.136 8.384-2.672 2.272-6.48 1.888-8.4-0.768l-22.096-27.808c-1.904-2.672-1.52-6.48 1.152-8.384zM758.48 809.136c1.104-0.912 2.464-1.28 3.808-1.184-1.312-0.144-2.656 0.224-3.808 1.184zM811.424 754.672c2.288-2.672 6.096-3.040 8.384-0.768l27.040 22.864c2.288 1.904 2.672 5.712 0.384 8.384s-6.096 3.040-8.384 0.768l-27.040-22.864c-2.288-1.92-2.672-5.728-0.384-8.384zM796.192 700.192c1.904-3.040 5.712-3.808 8.384-1.904l66.288 44.192c2.672 1.904 3.424 5.712 1.52 8.384-1.904 3.040-5.712 3.808-8.384 1.904l-66.288-44.192c-2.672-1.904-3.424-5.712-1.52-8.384zM802.304 697.936c0.672 0.112 1.312 0.352 1.888 0.72-0.592-0.384-1.232-0.608-1.888-0.72zM852.96 691.808c1.52-2.672 5.328-3.808 8-2.288l30.864 17.52c2.016 1.152 2.928 3.376 2.608 5.712-0.080 0.784-0.288 1.568-0.704 2.288-1.152 2-3.36 3.152-5.536 2.944-0.864-0.032-1.712-0.224-2.464-0.656l-30.864-17.52c-2.672-1.52-3.44-4.944-1.904-8zM827.424 641.136c1.136-3.040 4.576-4.576 7.616-3.424l73.52 30.48c2.304 1.152 3.504 3.376 3.472 5.712 0 0.736-0.144 1.52-0.432 2.288-1.136 3.040-4.576 4.576-7.616 3.424l-73.52-30.48c-3.040-1.52-4.176-4.944-3.040-8zM881.136 622.096c1.136-3.040 4.576-4.576 7.616-3.808l33.52 11.040c3.424 1.136 4.96 4.576 3.808 7.616-0.88 2.336-3.104 4-5.472 4.128-0.72 0.064-1.456-0.016-2.144-0.304l-33.52-11.040c-3.424-1.152-4.944-4.592-3.808-7.632zM922.288 630.096l-33.52-11.040c-0.176-0.048-0.352-0.016-0.512-0.048 0.048 0.016 0.096 0.016 0.128 0.048l33.52 11.040c1.104 0.416 2 1.088 2.656 1.904-0.56-0.784-1.264-1.472-2.272-1.904zM925.136 632.896c-0.096-0.224-0.256-0.432-0.4-0.64 0.144 0.208 0.288 0.416 0.4 0.64zM846.48 577.136c0.768-3.424 3.808-5.712 6.864-4.96l78.096 15.232c0.736 0.176 1.408 0.496 2.032 0.928 1.76 0.928 2.832 2.864 2.688 4.96 0 0.448-0.032 0.896-0.144 1.344-0.768 3.424-3.808 5.712-6.864 4.96l-78.096-15.232c-3.056-0.752-5.344-3.792-4.576-7.232zM900.576 554.672c-3.040-0.384-5.328-3.424-4.96-6.864 0.384-3.424 3.424-5.712 6.48-5.328l35.040 4.192c3.040 0.384 5.328 3.424 4.96 6.864-0.384 3.424-3.424 5.712-6.48 5.328l-35.040-4.192zM938.288 516.96h-79.616c-3.040 0-5.712-2.672-5.712-6.096s2.672-6.096 5.712-6.096h79.616c3.040 0 5.712 2.672 5.712 6.096s-2.672 6.096-5.712 6.096zM936.768 475.424l-35.424 2.672c-3.040 0-5.712-2.288-6.096-5.712 0-3.040 2.288-6.096 5.328-6.48l35.424-2.672c3.040 0 5.712 2.288 6.096 5.712 0.384 3.44-2.288 6.096-5.328 6.48zM941.712 468.96c0.048 0.336 0.048 0.672 0.016 1.008 0.032-0.336 0.032-0.672-0.016-1.008zM931.040 433.904l-78.096 15.616c-3.040 0.384-6.096-1.52-6.864-4.96-0.384-3.424 1.52-6.48 4.576-7.232l78.096-15.616c3.040-0.384 6.096 1.52 6.864 4.96 0.768 3.424-1.52 6.464-4.576 7.232zM930.896 422.592c-0.656-0.176-1.376-0.224-2.144-0.128 0.752-0.080 1.472-0.032 2.144 0.128zM923.936 392.512c-0.048 0.048-0.112 0.064-0.176 0.112-0.56 0.4-1.168 0.736-1.856 0.896l-34.288 9.52c-3.040 1.136-6.48-1.136-7.232-4.192-0.768-3.424 1.136-6.48 4.192-7.232l34.288-9.52c3.040-1.136 6.48 1.136 7.232 4.192 0.576 2.288-0.368 4.8-2.16 6.224zM907.808 353.904l-73.52 30.48c-3.040 1.136-6.48-0.384-7.616-3.424s0-6.48 3.040-8l73.52-30.48c3.040-1.136 6.48 0.384 7.616 3.424 0.288 0.688 0.4 1.424 0.368 2.16 0.16 2.624-1.008 4.944-3.408 5.84zM830.832 383.808c0.304 0.096 0.624 0.16 0.944 0.176-0.32-0.032-0.624-0.112-0.944-0.176zM832.752 383.936c0.128-0.016 0.24-0.048 0.368-0.080-0.128 0.032-0.24 0.064-0.368 0.080zM891.040 316.192l-31.616 16c-3.040 1.52-6.48 0.384-8-2.672-1.52-3.040-0.384-6.864 2.672-8l31.616-16c3.040-1.52 6.48-0.384 8 2.672 1.52 3.040 0.384 6.48-2.672 8zM870.096 280l-66.288 44.192c-2.672 1.52-6.48 0.768-8.384-1.904s-1.52-6.48 1.52-8.384l66.288-44.192c1.008-0.576 2.192-0.736 3.376-0.672 0.112 0 0.208 0.016 0.304 0.016 0.464 0.048 0.912 0.128 1.36 0.272 0.208 0.080 0.416 0.144 0.608 0.256 1.040 0.448 2.032 1.072 2.72 2.032 1.92 3.056 1.168 6.48-1.504 8.384zM817.904 268.192c-2.672 1.904-6.48 1.52-8.384-1.136-1.904-2.672-1.52-6.48 1.136-8.384l27.808-21.712c2.672-1.904 6.48-1.52 8.384 1.136 1.904 2.672 1.52 6.48-1.136 8.384l-27.808 21.712zM846.096 238.48c0.912 1.104 1.28 2.464 1.184 3.808 0.144-1.312-0.224-2.656-1.184-3.808zM761.52 270.864c-2.288 2.288-6.096 2.288-8.384 0-2.672-2.288-2.672-6.096 0-8.384l56.384-56c2.288-2.288 6.096-2.288 8.384 0s2.288 6.096 0 8.384l-56.384 56zM764.576 213.328c-2.288 2.288-5.712 2.672-8.384 0.384-2.672-1.904-2.672-5.712-0.768-8.384l23.232-26.672c2.288-2.288 5.712-2.672 8.384-0.384s3.040 6.096 0.768 8.384l-23.232 26.672zM782.832 177.68c1.344-0.016 2.72 0.432 3.84 1.36-1.168-0.96-2.528-1.424-3.84-1.36zM710.096 227.040c-1.904 2.672-5.712 3.424-8.384 1.52-3.040-1.904-3.808-5.328-1.904-8.384l44.192-65.904c1.904-2.672 5.712-3.424 8.384-1.52 3.040 1.904 3.808 5.712 1.904 8.384l-44.192 65.904zM754.224 157.776c0 0.272 0.064 0.528 0.016 0.784 0.048-0.256-0.016-0.512-0.016-0.784zM701.712 170.288c-1.52 2.672-4.96 3.424-8 1.904-3.040-1.904-3.808-5.328-2.288-8l17.52-30.864c1.152-2 3.376-2.928 5.536-2.624 0.816 0.096 1.648 0.304 2.464 0.72 3.040 1.52 3.808 5.328 2.288 8l-17.52 30.864zM651.040 194.288c-1.52 3.040-4.96 4.192-8 3.040-3.040-1.52-4.576-4.96-3.424-7.616l30.864-73.52c1.52-3.040 4.96-4.192 8-3.040 3.040 1.136 4.576 4.576 3.424 7.616l-30.864 73.52zM641.12 195.504c-0.16-0.192-0.336-0.384-0.464-0.592 0.144 0.208 0.272 0.416 0.464 0.592zM640.576 194.8c-0.608-0.96-0.944-2.080-0.944-3.184-0.096 1.104 0.256 2.224 0.944 3.184zM642.672 106.288l-11.040 33.52c-1.136 3.040-4.576 4.576-7.616 3.424-3.040-1.136-4.576-4.576-3.808-7.616l11.040-33.52c1.136-3.040 4.576-4.576 7.616-3.424 0.816 0.304 1.536 0.784 2.16 1.36 1.184 1.024 1.952 2.592 1.968 4.144 0.016 0.704-0.064 1.408-0.32 2.112zM586.672 173.328c-0.768 3.040-3.808 5.328-7.232 4.576-3.424-0.768-5.328-3.808-4.576-6.864l16-78.096c0.208-1.696 1.264-3.024 2.672-3.744 1.28-0.832 2.88-1.2 4.56-0.832 3.040 0.384 5.328 3.808 4.576 6.864l-16 78.096zM557.328 123.424c-0.384 3.040-3.424 5.328-6.864 4.96-3.424-0.384-5.696-3.424-5.328-6.48l4.576-35.040c0.384-3.040 3.424-5.328 6.864-4.96 3.424 0.384 5.712 3.424 5.328 6.48l-4.576 35.040zM511.232 171.040c-3.040 0-6.096-2.672-6.096-5.712v-79.616c0-3.040 2.672-5.712 6.096-5.712s6.096 2.672 6.096 5.712v79.616c0 3.056-2.656 5.712-6.096 5.712zM473.136 128.384c-3.424 0.384-6.096-1.904-6.48-5.328l-2.656-35.44c0-3.040 2.288-5.712 5.712-6.096s6.096 2.288 6.48 5.328l2.672 35.424c0 3.056-2.288 5.728-5.728 6.112zM444.576 177.904c-3.424 0.384-6.48-1.52-7.232-4.576l-15.616-78.096c-0.384-3.040 1.52-6.096 4.96-6.864 3.424-0.768 6.48 1.52 7.232 4.576l15.616 78.096c0.368 3.056-1.536 6.096-4.96 6.864zM422.592 93.104c-0.16 0.656-0.224 1.376-0.128 2.144-0.080-0.752-0.032-1.472 0.128-2.144zM398.864 143.616c-3.424 0.768-6.48-1.136-7.232-4.192l-9.52-34.288c-1.136-3.040 1.136-6.48 4.192-7.232 2.288-0.576 4.8 0.368 6.224 2.16 0.048 0.048 0.064 0.112 0.112 0.176 0.4 0.56 0.736 1.168 0.896 1.856l9.52 34.288c1.136 3.040-1.152 6.48-4.192 7.232zM380.192 197.328c-3.040 1.52-6.48 0-8-3.040l-30.48-73.52c-1.136-3.040 0.384-6.48 3.424-7.616 3.424-1.136 6.864 0 8 3.040l30.48 73.52c1.152 3.056-0.384 6.48-3.424 7.616zM328.768 172.96c-3.040 1.52-6.48 0.384-8-2.672l-16-31.616c-1.52-3.040-0.384-6.48 2.672-8 3.040-1.52 6.48-0.384 8 2.672l16 31.616c1.52 3.040 0.368 6.464-2.672 8zM323.728 224.208c0 0.048 0 0.096 0 0.144-0.112 1.904-0.928 3.808-2.576 4.976-2.672 1.904-6.48 1.136-8.384-1.52l-44.192-65.904c-1.52-2.672-0.768-6.48 1.904-8.384 3.040-1.904 6.48-1.136 8.384 1.52l44.192 65.904c0.56 0.992 0.704 2.128 0.672 3.264zM265.904 215.232c-2.672 2.288-6.48 1.904-8.384-0.768l-22.096-27.808c-1.904-2.672-1.52-6.48 1.136-8.384 2.672-2.272 6.48-1.888 8.4 0.768l22.096 27.808c1.904 2.672 1.52 6.48-1.152 8.384zM265.52 214.864c-1.104 0.912-2.464 1.28-3.808 1.184 1.312 0.144 2.656-0.224 3.808-1.184zM212.576 269.328c-2.288 2.672-6.096 3.040-8.384 0.768l-27.040-22.864c-2.288-1.904-2.672-5.712-0.384-8.384s6.096-3.040 8.384-0.768l27.040 22.864c2.288 1.92 2.672 5.728 0.384 8.384zM227.808 323.808c-1.904 3.040-5.712 3.808-8.384 1.904l-66.288-44.192c-2.672-1.904-3.424-5.712-1.52-8.384 1.904-3.040 5.712-3.808 8.384-1.904l66.288 44.192c2.672 1.904 3.424 5.712 1.52 8.384zM221.696 326.064c-0.672-0.112-1.312-0.352-1.888-0.72 0.592 0.384 1.232 0.608 1.888 0.72zM171.040 332.192c-1.52 2.672-5.328 3.808-8 2.288l-30.848-17.52c-2.016-1.152-2.928-3.376-2.608-5.712 0.080-0.784 0.304-1.568 0.704-2.288 1.152-2 3.36-3.152 5.536-2.944 0.864 0.032 1.712 0.224 2.464 0.656l30.864 17.52c2.656 1.52 3.424 4.944 1.888 8zM196.576 382.864c-1.136 3.040-4.576 4.576-7.616 3.424l-73.52-30.48c-2.304-1.152-3.504-3.376-3.472-5.712 0-0.736 0.144-1.52 0.432-2.288 1.136-3.040 4.576-4.576 7.616-3.424l73.52 30.48c3.040 1.52 4.176 4.944 3.040 8zM142.864 401.904c-1.136 3.040-4.576 4.576-7.616 3.808l-33.52-11.040c-3.424-1.136-4.96-4.576-3.808-7.616 0.88-2.336 3.104-4 5.472-4.128 0.72-0.064 1.456 0.016 2.144 0.304l33.52 11.040c3.424 1.152 4.944 4.592 3.808 7.632zM101.712 393.904l33.52 11.040c0.176 0.048 0.352 0.016 0.512 0.048-0.048-0.016-0.096-0.016-0.128-0.048l-33.52-11.040c-1.104-0.416-2-1.088-2.656-1.904 0.56 0.784 1.264 1.472 2.272 1.904zM98.864 391.104c0.096 0.24 0.256 0.432 0.4 0.64-0.144-0.208-0.288-0.416-0.4-0.64zM177.52 446.864c-0.768 3.424-3.808 5.712-6.864 4.96l-78.096-15.232c-0.736-0.176-1.408-0.512-2.032-0.928-1.76-0.928-2.832-2.864-2.688-4.96 0-0.448 0.032-0.896 0.144-1.344 0.768-3.424 3.808-5.712 6.864-4.96l78.096 15.232c3.056 0.752 5.344 3.792 4.576 7.232zM123.424 469.328c3.040 0.384 5.328 3.424 4.96 6.864-0.384 3.424-3.424 5.712-6.48 5.328l-35.040-4.192c-3.040-0.384-5.328-3.424-4.96-6.864 0.384-3.424 3.424-5.712 6.48-5.328l35.040 4.192zM165.328 507.040c3.040 0 5.712 2.672 5.712 6.096s-2.672 6.096-5.712 6.096h-79.616c-3.040 0-5.712-2.656-5.712-6.096 0-3.424 2.672-6.096 5.712-6.096h79.616zM87.232 548.576l35.424-2.672c3.040 0 5.712 2.288 6.096 5.712 0 3.040-2.288 6.096-5.328 6.48l-35.424 2.672c-3.040 0-5.712-2.288-6.096-5.712-0.384-3.44 2.288-6.096 5.328-6.48zM82.288 555.040c-0.048-0.336-0.048-0.672-0.016-1.008-0.032 0.336-0.032 0.672 0.016 1.008zM92.96 590.096l78.096-15.616c3.040-0.384 6.096 1.52 6.864 4.96 0.384 3.424-1.52 6.48-4.576 7.232l-78.096 15.616c-3.040 0.384-6.096-1.52-6.864-4.96-0.768-3.424 1.52-6.464 4.576-7.232zM100.064 631.488c0.048-0.048 0.112-0.064 0.176-0.112 0.56-0.4 1.168-0.736 1.856-0.896l34.288-9.52c3.040-1.136 6.48 1.136 7.232 4.192 0.768 3.424-1.136 6.48-4.192 7.232l-34.288 9.52c-3.040 1.136-6.48-1.136-7.232-4.192-0.576-2.288 0.368-4.8 2.16-6.224zM116.192 670.096l73.52-30.48c3.040-1.136 6.48 0.384 7.616 3.424s0 6.48-3.040 8l-73.52 30.48c-3.040 1.136-6.48-0.384-7.616-3.424-0.288-0.688-0.4-1.424-0.368-2.16-0.16-2.624 1.008-4.944 3.408-5.84zM193.168 640.192c-0.304-0.096-0.624-0.16-0.944-0.176 0.32 0.032 0.624 0.112 0.944 0.176zM191.248 640.064c-0.128 0.016-0.24 0.048-0.368 0.080 0.128-0.032 0.24-0.064 0.368-0.080zM132.96 707.808l31.616-16c3.040-1.52 6.48-0.384 8 2.672 1.52 3.040 0.384 6.864-2.672 8l-31.616 16c-3.040 1.52-6.48 0.384-8-2.672-1.52-3.040-0.384-6.48 2.672-8zM154.288 744l65.904-44.192c2.672-1.52 6.48-0.768 8.384 1.904s1.52 6.48-1.52 8.384l-65.904 44.192c-2.672 1.52-6.48 0.768-8.384-1.904-1.904-3.056-1.152-6.48 1.52-8.384zM206.096 755.808c2.672-1.904 6.48-1.52 8.384 1.136 1.904 2.672 1.52 6.48-1.136 8.384l-27.808 21.712c-2.672 1.904-6.48 1.52-8.384-1.136-1.904-2.672-1.52-6.48 1.136-8.384l27.808-21.712zM177.904 785.52c-0.912-1.104-1.28-2.464-1.184-3.808-0.144 1.312 0.224 2.656 1.184 3.808zM262.48 753.136c2.288-2.288 6.096-2.288 8.384 0 2.672 2.288 2.672 6.096 0 8.384l-56.384 56c-2.288 2.288-6.096 2.288-8.384 0s-2.288-6.096 0-8.384l56.384-56zM259.424 810.672c2.288-2.288 5.712-2.672 8.384-0.384 2.672 1.904 2.672 5.712 0.768 8.384l-23.232 26.672c-2.304 2.272-5.728 2.656-8.384 0.368-2.672-2.288-3.040-6.096-0.768-8.384l23.232-26.656zM241.168 846.32c-1.344 0.016-2.72-0.432-3.84-1.36 1.168 0.96 2.528 1.424 3.84 1.36zM313.904 796.96c1.904-2.672 5.712-3.424 8.384-1.52 3.040 1.904 3.808 5.328 1.904 8.384l-44.192 65.888c-1.904 2.672-5.712 3.424-8.384 1.52-3.040-1.904-3.808-5.712-1.904-8.384l44.192-65.888zM315.040 890.672c-1.136 2-3.36 2.928-5.536 2.608-0.816-0.096-1.648-0.304-2.464-0.72-3.040-1.52-3.808-5.328-2.288-8l17.52-30.864c1.52-2.672 4.96-3.424 8-1.904 3.040 1.904 3.808 5.328 2.288 8l-17.52 30.88zM372.96 829.712c1.52-3.040 4.96-4.192 8-3.040 3.040 1.52 4.576 4.96 3.424 7.616l-30.864 73.52c-1.52 3.056-4.944 4.192-8 3.056-3.040-1.136-4.576-4.576-3.424-7.616l30.864-73.536zM382.88 828.496c0.16 0.192 0.336 0.384 0.464 0.592-0.144-0.208-0.272-0.416-0.464-0.592zM383.424 829.2c0.608 0.96 0.944 2.080 0.944 3.184 0.096-1.104-0.256-2.224-0.944-3.184zM392.768 921.904c-1.136 3.040-4.576 4.576-7.616 3.424-0.816-0.304-1.536-0.784-2.16-1.36-1.184-1.024-1.952-2.592-1.968-4.144-0.032-0.704 0.048-1.424 0.304-2.112l11.040-33.52c1.152-3.056 4.592-4.576 7.632-3.424 3.040 1.136 4.576 4.576 3.808 7.616l-11.040 33.52zM444.576 846.096c3.424 0.768 5.328 3.808 4.576 6.864l-16 78.096c-0.208 1.696-1.264 3.024-2.672 3.744-1.28 0.832-2.88 1.2-4.56 0.832-3.040-0.384-5.328-3.808-4.576-6.864l16-78.096c0.752-3.056 3.792-5.344 7.232-4.576zM474.288 937.136c-0.384 3.040-3.424 5.328-6.864 4.96-3.424-0.384-5.712-3.424-5.328-6.48l4.576-35.040c0.384-3.040 3.424-5.328 6.864-4.96 3.424 0.384 5.696 3.424 5.328 6.48l-4.576 35.040zM824.832 826.992l-367.296-260.896-258.368-369.088 367.296 260.912z" />
<glyph unicode="&#xeb25;" glyph-name="browser-safari-line" d="M444 1002.116c-83.82-14.156-161.072-46.224-224-92.992-9.9-7.36-34.624-29.808-54.94-49.888-206.928-204.5-196.624-537.668 22.656-732.588 150.34-133.64 372.292-164.452 549.46-76.276 147.56 73.436 243.3 196.828 277.488 357.628 10.004 47.052 10.004 144.948 0 192-24.42 114.852-75.536 202.592-165.872 284.728-102.596 93.28-266.34 140.764-404.792 117.388M590.476 953.94c50.796-8.66 86.056-19.952 129.752-41.544 127.188-62.848 215.936-177.068 246.348-317.052 10.728-49.376 9.764-140.78-2.012-190.884-33.844-143.992-128.804-258.528-263.404-317.712-41.124-18.080-66.396-25.548-111.16-32.844-198.064-32.296-400.172 76.424-483.988 260.352-80.78 177.256-42.592 378.216 98.248 517.060 99.956 98.54 249.344 145.968 386.216 122.624M595.888 660.544l-141.432-91.452-91.228-141.068c-50.176-77.588-91.228-144.432-91.228-148.544 0-9.58 13.816-23.48 23.34-23.48 4.040 0 70.988 41.156 148.772 91.456l141.432 91.452 91.228 141.068c50.176 77.588 91.228 144.432 91.228 148.544 0 9.58-13.816 23.48-23.34 23.48-4.040 0-70.988-41.156-148.772-91.456M657.448 639c-6.288-10.392-90.6-141.080-92.136-142.816-0.884-0.996-13.608 10.188-28.276 24.852-14.664 14.668-25.848 27.428-24.852 28.356 2.94 2.732 145.696 94.552 147.052 94.584 0.68 0.012-0.124-2.228-1.788-4.976M503.892 486.108c14.112-14.24 24.86-26.624 23.884-27.528-1.82-1.676-133.060-86.3-143.668-92.636-4.064-2.428-3.444 0.296 2 8.784 4.34 6.768 25.892 40.396 47.892 74.728 22 34.336 40.952 62.452 42.116 62.484s13.664-11.592 27.776-25.832" />
<glyph unicode="&#xeb26;" glyph-name="brush" d="M952.576 952.576c-31.248 31.248-81.888 31.248-113.136 0l-557.92-490.512c45.68-5.872 87.968-26.336 121.088-59.44s53.568-75.392 59.44-121.088l490.512 557.904c31.248 31.232 31.248 81.888 0.016 113.136zM379.984 379.984c-33.536 33.536-78.128 52.016-125.568 52.016s-92.032-18.48-125.568-52.016c-66.672-66.656-80.288-305.008-80.832-315.12-0.24-4.544 1.456-8.976 4.672-12.176 3.008-3.008 7.072-4.688 11.312-4.688 0.288 0 0.576 0 0.864 0.016 10.112 0.544 248.464 14.16 315.12 80.832 33.536 33.536 52.016 78.144 52.016 125.568s-18.48 92.032-52.016 125.568z" />
<glyph unicode="&#xeb27;" glyph-name="brush-line" d="M874.976 970.528c-18.392-6.856 4.416 11.804-331.204-270.968l-278.26-234.44-25.364-4.468c-58.164-10.244-109.472-47.672-135.1-98.548-23.764-47.18-43.456-138.744-52.924-246.104-5.544-62.9-5.324-66.8 4.388-76.512 7.924-7.924 11.164-8.324 47-5.84 130.32 9.040 235.972 31.292 286.488 60.332 40.964 23.552 76.2 76.084 86.052 128.304l5.184 27.464 247.788 294.112c136.284 161.76 250.4 299.16 253.596 305.34 21.060 40.724 2.464 95.556-39.828 117.424-16.712 8.644-49.964 10.556-67.816 3.904M927.556 917.76c15.992-13.456 19.996-33.428 9.876-49.272-4.088-6.404-109.884-133.24-235.1-281.864l-227.668-270.224-15.004 30.832c-20.24 41.596-54.816 76.18-96.384 96.408l-30.784 14.98 270.26 227.688c148.64 125.232 274.98 230.832 280.752 234.664 14.776 9.82 29.876 8.716 44.052-3.212M312.588 410.56c78.584-18.5 130.5-97.892 115.884-177.216-9.272-50.324-36.052-86.324-78.472-105.488-41.704-18.84-140.96-37.924-233-44.796l-17-1.272v20.272c0 51.788 22.172 175.908 39.748 222.528 25.248 66.952 98.608 103.444 172.84 85.972" />
<glyph unicode="&#xeb28;" glyph-name="bucket" d="M512 16c-153.92 0-317.424 38.64-319.968 110.304l-140.624 718.752c-2.24 6.112-3.408 12.432-3.408 18.944 0 93.536 239.056 144 464 144s464-50.464 464-144c0-6.512-1.168-12.832-3.408-18.944l-140.624-718.768c-2.544-71.648-166.048-110.288-319.968-110.288zM82.352 853.536c22.16-49.904 198.624-101.536 429.648-101.536s407.488 51.632 429.648 101.536l2.32 11.808c-3.104 52.528-186.816 110.656-431.968 110.656s-428.864-58.128-431.952-110.656l2.304-11.808z" />
<glyph unicode="&#xeb29;" glyph-name="bucket-line" d="M416 1005.676c-7.7-0.848-32.9-3.536-56-5.968-55.348-5.832-137.352-21.74-177.652-34.464-92.368-29.16-138.964-69.22-133.2-114.516 4.752-37.332 143.492-737.964 149.232-753.616 7.644-20.836 23.32-34.428 59.656-51.732 125.028-59.544 398.9-59.544 523.928 0 36.336 17.304 52.012 30.896 59.656 51.732 5.672 15.468 144.42 715.912 149.164 753.032 8.72 68.228-94.932 120.62-292.784 148-45.256 6.264-245.144 11.604-282 7.532M694 950.488c120.248-16.164 226.42-52.276 245.16-83.38 6.2-10.292 6.108-11.504-1.664-22-18.228-24.612-62.172-45.216-133.496-62.6-219.1-53.396-566.252-31.504-680.868 42.936-37.192 24.156-33.664 43.828 12.18 67.916 50.86 26.728 140.292 49.744 226.688 58.34 24.2 2.408 50.3 5.092 58 5.968 32.224 3.656 232.428-1.588 274-7.18M198.864 741.84c200.952-58.364 550.212-47.468 703.288 21.936 25.376 11.508 25.84 11.568 23.86 2.98-1.112-4.816-29.896-151.856-63.968-326.756s-63.568-321.692-65.548-326.204c-5.352-12.196-46.468-32.384-88.972-43.684-107.304-28.524-267.744-28.524-375.048 0-42.504 11.3-83.62 31.488-88.972 43.684-1.98 4.512-31.476 151.304-65.548 326.204s-62.856 321.94-63.968 326.756c-1.98 8.588-1.516 8.528 23.86-2.98 14.232-6.452 41.692-16.324 61.016-21.936" />
<glyph unicode="&#xeb2a;" glyph-name="bug" d="M496 768.72c-69.824 5.584-149.2 45.104-170.784 64.272-21.488-15.136-41.392-32.592-59.536-52.048l-94.368 94.368c-6.256 6.256-16.368 6.256-22.624 0s-6.256-16.368 0-22.624l95.984-95.984c-56.048-70.432-91.168-161.76-98.88-260.704h-113.792c-8.848 0-16-7.152-16-16s7.152-16 16-16h112.256c-0.048-3.056-0.256-6.080-0.256-9.136 0-102.88 29.92-197.52 79.808-272.432l-107.12-107.12c-6.256-6.256-6.256-16.368 0-22.624 3.12-3.12 7.216-4.688 11.312-4.688s8.192 1.568 11.312 4.688l103.44 103.44c63.84-81.776 153.44-134.496 253.248-139.616v752.208zM360 624c30.928 0 56-25.072 56-56s-25.072-56-56-56-56 25.072-56 56 25.072 56 56 56zM336 256c-44.176 0-80 35.824-80 80s35.824 80 80 80 80-35.824 80-80-35.824-80-80-80zM992 496h-113.792c-7.696 99.008-42.816 190.336-98.848 260.736l95.952 95.952c6.256 6.256 6.256 16.368 0 22.624s-16.368 6.256-22.624 0l-94.336-94.336c-18.16 19.44-38.048 36.912-59.552 52.048-21.568-19.168-100.944-58.72-170.8-64.288v-752.208c99.808 5.136 189.408 57.856 253.248 139.616l103.44-103.44c3.12-3.136 7.216-4.704 11.312-4.704s8.192 1.568 11.312 4.688c6.256 6.256 6.256 16.368 0 22.624l-107.12 107.12c49.888 74.912 79.808 169.552 79.808 272.432 0 3.072-0.208 6.080-0.272 9.136h112.272c8.848 0 16 7.152 16 16s-7.152 16-16 16zM664 624c30.928 0 56-25.072 56-56s-25.072-56-56-56-56 25.072-56 56 25.072 56 56 56zM688 256c-44.176 0-80 35.824-80 80s35.824 80 80 80 80-35.824 80-80-35.824-80-80-80zM699.312 1003.312c-6.256 6.256-16.368 6.256-22.624 0l-61.984-61.984c-28.224 21.712-64.112 34.672-102.704 34.672s-74.48-12.96-102.704-34.672l-61.984 61.984c-6.256 6.256-16.368 6.256-22.624 0s-6.256-16.368 0-22.624l61.376-61.376c-16.464-18.976-28.368-41.68-33.712-66.8 22.704-13.84 92.352-52.512 159.648-52.512s136.944 38.672 159.648 52.496c-5.344 25.12-17.248 47.84-33.712 66.8l61.376 61.376c6.256 6.272 6.256 16.384 0 22.64z" />
</font>
</defs>
</svg>
