<?xml version="1.0" standalone="no"?>
<!DOCTYPE svg PUBLIC "-//W3C//DTD SVG 1.1//EN" "http://www.w3.org/Graphics/SVG/1.1/DTD/svg11.dtd" >
<svg xmlns="http://www.w3.org/2000/svg">
<metadata>Generated by IcoMoon</metadata>
<defs>
<font id="icomoon" horiz-adv-x="1024">
<font-face units-per-em="1024" ascent="1024" descent="0" />
<missing-glyph horiz-adv-x="1024" />
<glyph unicode="&#x20;" horiz-adv-x="0" d="" />
<glyph unicode="&#xf5f4;" glyph-name="abc" d="M631.888 572.256l-16.016 60.944c-21.36-26.832-42.656-44.992-63.872-54.496-21.232-9.504-47.728-14.256-79.488-14.256-42.448 0-75.712 10.944-99.808 32.816s-36.128 52.992-36.128 93.36c0 86.448 69.136 131.76 207.424 135.936l72.656 2.336v26.56c0 33.6-7.232 58.384-21.68 74.416-14.448 16-37.568 24.016-69.328 24.016-35.68 0-76.048-10.944-121.088-32.816l-19.92 49.616c41.472 22.512 93.568 36.72 144.928 36.72 51.040 0 88.864-11.328 113.472-33.984s36.912-58.992 36.912-108.992v-292.192h-48.064zM485.408 617.968c40.352 0 72.064 11.056 95.12 33.2 23.040 22.128 34.576 53.12 34.576 92.976v38.672l-64.848-2.736c-51.568-1.824-88.736-9.824-111.52-24.032-22.784-14.192-34.176-36.272-34.176-66.208-0.016-49.424 32.688-71.872 80.848-71.872zM215.216 467.344c56.256 0 99.936-19.2 131.056-57.632 31.12-38.4 46.672-92.768 46.672-163.072s-15.696-124.944-47.072-163.856c-31.376-38.944-74.944-58.4-130.672-58.4-54.288 0-102.448 19.248-134.368 62.896l-18.352-55.072-46.48-0.208v608h64v-236.72c30.208 42.704 75.84 64.064 135.216 64.064zM205.84 413.040c-44.272 0-76.176-12.704-95.696-38.080-19.536-25.408-29.296-68.176-29.296-128.336s10.016-103.184 30.080-129.104c20.048-25.904 52.208-38.864 96.48-38.864 39.84 0 69.536 14.512 89.056 43.552 19.536 29.040 29.296 70.768 29.296 125.2 0 55.712-9.76 97.264-29.296 124.608s-49.744 41.024-90.624 41.024zM898.928 32c-61.984 0-109.968 19.072-143.952 57.216-33.984 38.16-50.976 92.128-50.976 161.92 0 71.616 17.248 126.96 51.76 166.016 34.496 39.056 83.664 58.592 147.456 58.592 20.576 0 41.136-2.224 61.712-6.64 20.576-4.432 36.72-9.648 48.432-15.632l-19.904-55.072c-14.336 5.712-29.952 10.48-46.88 14.256s-31.904 5.664-44.928 5.664c-86.992 0-130.464-55.472-130.464-166.4 0-52.608 10.608-92.976 31.84-121.088 21.216-28.128 52.672-42.192 94.336-42.192 35.664 0 72.272 7.664 109.76 23.040v-57.424c-28.64-14.832-64.72-22.256-108.192-22.256z" />
<glyph unicode="&#xf5f5;" glyph-name="abc-line" d="M440 984c-4.4-4.4-8-11.6-8-16s3.6-11.6 8-16c7.268-7.268 13.4-8.008 67-8.088 62.516-0.092 81.916-4.552 97.848-22.492 9.244-10.412 19.152-34.876 19.152-47.292v-10.128h-73.804c-101.376 0-124.26-5.604-163.26-39.984-66.7-58.804-67.476-162.256-1.676-222.908 39.476-36.388 59.604-41 179.12-41.060 86.388-0.044 94.94 0.572 101 7.268 5.924 6.548 6.62 23.944 6.62 165.848 0 152.456-0.328 159.416-8.604 181.536-11.184 29.884-39.136 57.636-69.5 68.996-18.952 7.092-31.232 8.304-84.048 8.304-56.516 0-62.536-0.688-69.848-8M624 711.712v-104.292l-83 1.292c-92.344 1.432-100.884 3.572-127.552 31.936-21.424 22.788-27.288 38.124-27.288 71.352 0 33.232 5.868 48.576 27.288 71.34 27.036 28.74 40.1 31.9 133.552 32.316l77 0.344v-104.288M40 648c-7.84-7.84-8-13.332-8-273.38 0-256.488 0.256-265.612 7.668-272.32 6.932-6.272 16.868-6.8 103-5.468 87.272 1.352 97.232 2.228 117.78 10.4 42.78 17.016 79.472 53.744 96.224 96.32 12.54 31.88 12.496 89.12-0.096 121.144-11.732 29.832-35.524 59.172-62.524 77.096-37.568 24.932-47.752 27.14-135.052 29.24l-79 1.904v103.532c0 98.2-0.412 103.944-8 111.532-4.4 4.4-11.6 8-16 8s-11.6-3.6-16-8M248.596 373.324c23.852-10.924 49.908-37.032 60.608-60.728 11.7-25.9 11.64-71.42-0.124-97.476-11.752-26.028-40.432-52.808-67.348-62.876-19.16-7.168-31.136-8.244-91.884-8.244h-69.848v240.748l75-1.452c66.144-1.28 77.196-2.46 93.596-9.972M840.42 377.668c-32.496-8.736-57.756-24.216-83.82-51.356-35.568-37.044-52.6-77.94-52.6-126.312 0-50.268 19.532-94.76 57.688-131.4 44.892-43.104 75.064-52.6 167.152-52.6 57.828 0 63.836 0.676 71.16 8 4.4 4.4 8 11.6 8 16s-3.6 11.6-8 16c-7.284 7.284-13.332 8-67.58 8-78.084 0-101.896 6.68-135.828 38.092-32.412 30.012-42.476 53.184-42.516 97.908-0.028 29.020 1.576 37.288 10.964 56.436 14.708 30.008 46.904 59.976 76.212 70.94 20.068 7.508 31.304 8.624 86.9 8.624 58.516 0 64.516 0.668 71.848 8 4.4 4.4 8 11.6 8 16s-3.6 11.6-8 16c-7.368 7.368-13.136 7.98-73 7.736-43.444-0.176-72.156-2.188-86.58-6.068" />
<glyph unicode="&#xf5f6;" glyph-name="agenda" d="M800 416h128v-208h-128v208zM800 448h128v480c0 44.112-37.184 80-82.912 80h-45.088v-560zM96 416h672v-208h-672v208zM768 448v560h-208v-352c0-6.064-3.424-11.6-8.848-14.32-2.256-1.12-4.72-1.68-7.152-1.68-3.392 0-6.784 1.072-9.6 3.2l-118.4 88.8-118.4-88.8c-4.832-3.664-11.328-4.224-16.752-1.52-5.424 2.72-8.848 8.256-8.848 14.32v352h-144c-17.68 0-32-14.32-32-32v-528h672zM800 176v-160h45.088c45.728 0 82.912 35.888 82.912 80v80h-128zM768 176h-672v-128c0-17.68 14.32-32 32-32h640v160z" />
<glyph unicode="&#xf5f7;" glyph-name="agenda-line" d="M120 1000c-7.912-7.912-8-13.332-8-496s0.088-488.088 8-496c7.88-7.88 13.332-8 369.288-8 407.032 0 385.18-1.576 414.172 29.876 8.764 9.508 17.86 24.224 20.216 32.704 2.92 10.524 4.26 151.992 4.212 445.42-0.060 407.372-0.448 430.84-7.352 446-9.368 20.576-35.728 44.288-55.252 49.712-10.252 2.848-134.124 4.252-376.284 4.264-355.68 0.024-361.116-0.092-369-7.976M272 792c0-162.668 0.252-168.252 8-176 4.4-4.4 11.484-8 15.748-8 4.26 0 34.364 19.836 66.9 44.080 32.54 24.244 61.276 43.272 63.86 42.28 2.588-0.996 30.176-20.832 61.308-44.084s60.112-42.276 64.396-42.276c4.284 0 11.388 3.6 15.788 8 7.748 7.748 8 13.332 8 176v168h144v-512h-560v512h112v-168M528 819.876v-140.124l-47.836 36.124c-26.312 19.868-51.584 36.124-56.164 36.124s-29.852-16.256-56.164-36.124l-47.836-36.124v280.248h208v-140.124M864.936 948.328l13.064-11.668 1.092-244.332 1.088-244.328h-112.18v512h41.936c40.684 0 42.328-0.348 55-11.672M720 304v-96h-560v192h560v-96M880 304v-96h-112v192h112v-96M720 104v-56h-560v112h560v-56M880 118.064c0-40.676-0.352-42.332-11.664-55l-11.664-13.064-88.672-2.708v112.708h112v-41.936" />
<glyph unicode="&#xf5f8;" glyph-name="agenda-bookmark" d="M736 1008h-176v-336c0-6.064-3.424-11.6-8.848-14.32-2.256-1.12-4.72-1.68-7.152-1.68-3.392 0-6.784 1.088-9.6 3.2l-118.4 88.8-118.4-88.8c-4.832-3.648-11.312-4.24-16.752-1.52-5.424 2.72-8.848 8.256-8.848 14.32v336h-144c-8.848 0-16-7.168-16-16v-960c0-8.832 7.152-16 16-16h608v992zM800 1008h-32v-992h32c61.744 0 112 50.24 112 112v768c0 61.76-50.256 112-112 112z" />
<glyph unicode="&#xf5f9;" glyph-name="agenda-bookmark-line" d="M120 1000c-7.912-7.912-8-13.332-8-496s0.088-488.088 8-496c7.88-7.88 13.332-8 357.848-8 340.524 0 350.424 0.216 371.32 8.032 29.112 10.892 52.092 31.588 65.588 59.072l11.244 22.896 1.072 408.652 1.076 408.656-8.68 23.196c-11.256 30.088-39.12 57.796-69.572 69.192-21.848 8.172-27.712 8.304-372.048 8.304-344.516 0-349.968-0.12-357.848-8M272 784c0-170.668 0.244-176.244 8-184 4.4-4.4 11.504-8 15.788-8s33.264 19.024 64.396 42.276c31.132 23.252 58.72 43.088 61.308 44.084 2.584 0.992 31.32-18.036 63.86-42.28 32.536-24.244 62.64-44.080 66.9-44.080 4.264 0 11.348 3.6 15.748 8 7.756 7.756 8 13.332 8 184v176h144v-912h-560v912h112v-176M528 811.876v-148.124l-47.836 36.124c-26.312 19.868-51.584 36.124-56.164 36.124s-29.852-16.256-56.164-36.124l-47.836-36.124v296.248h208v-148.124M834.984 953.848c19.832-8.288 28.752-16.816 37.492-35.848 6.976-15.184 7.348-36.26 7.348-414s-0.372-398.816-7.348-414c-13.456-29.304-37.14-42-78.348-42h-26.128v912h26.128c14.464 0 32.704-2.748 40.856-6.152" />
<glyph unicode="&#xf5fa;" glyph-name="album" d="M624 464h-224c-8.848 0-16 7.168-16 16s7.152 16 16 16h224c8.848 0 16-7.168 16-16s-7.152-16-16-16zM528 368h-128c-8.848 0-16 7.168-16 16s7.152 16 16 16h128c8.848 0 16-7.168 16-16s-7.152-16-16-16zM848 912h-160v80c0 8.832-7.152 16-16 16s-16-7.168-16-16v-80h-128v80c0 8.832-7.152 16-16 16s-16-7.168-16-16v-80h-128v80c0 8.832-7.152 16-16 16s-16-7.168-16-16v-80h-160c-17.68 0-32-14.32-32-32v-832c0-17.68 14.32-32 32-32h672c17.68 0 32 14.32 32 32v832c0 17.68-14.32 32-32 32zM672 832c17.648 0 32-14.352 32-32s-14.352-32-32-32-32 14.352-32 32 14.352 32 32 32zM512 832c17.648 0 32-14.352 32-32s-14.352-32-32-32-32 14.352-32 32 14.352 32 32 32zM352 832c17.648 0 32-14.352 32-32s-14.352-32-32-32-32 14.352-32 32 14.352 32 32 32zM720 288c0-8.832-7.152-16-16-16h-384c-8.848 0-16 7.168-16 16v288c0 8.832 7.152 16 16 16h384c8.848 0 16-7.168 16-16v-288z" />
<glyph unicode="&#xf5fb;" glyph-name="album-line" d="M344 1000c-6.932-6.932-8-13.332-8-48v-40h-96c-90.668 0-96.444-0.444-104-8-7.904-7.904-8-13.332-8-448s0.096-440.096 8-448c7.888-7.888 13.332-8 384-8s376.112 0.112 384 8c7.904 7.904 8 13.332 8 448s-0.096 440.096-8 448c-7.556 7.556-13.332 8-104 8h-96v40c0 34.668-1.068 41.068-8 48-4.4 4.4-11.6 8-16 8s-11.6-3.6-16-8c-6.932-6.932-8-13.332-8-48v-40h-112v40c0 34.668-1.068 41.068-8 48-4.4 4.4-11.6 8-16 8s-11.6-3.6-16-8c-6.932-6.932-8-13.332-8-48v-40h-112v40c0 34.668-1.068 41.068-8 48-10.184 10.184-21.816 10.184-32 0M336 824c0-34.668 1.068-41.068 8-48 4.4-4.4 11.6-8 16-8s11.6 3.6 16 8c6.932 6.932 8 13.332 8 48v40h112v-40c0-34.668 1.068-41.068 8-48 10.184-10.184 21.816-10.184 32 0 6.932 6.932 8 13.332 8 48v40h112v-40c0-34.668 1.068-41.068 8-48 10.184-10.184 21.816-10.184 32 0 6.932 6.932 8 13.332 8 48v40h160v-816h-688v816h160v-40M296 600c-7.748-7.748-8-13.332-8-176s0.252-168.252 8-176c7.804-7.804 13.332-8 224-8s216.196 0.196 224 8c7.748 7.748 8 13.332 8 176s-0.252 168.252-8 176c-7.804 7.804-13.332 8-224 8s-216.196-0.196-224-8M704 424v-136h-368v272h368v-136M408 488c-4.4-4.4-8-11.6-8-16s3.6-11.6 8-16c7.588-7.588 13.332-8 112-8s104.412 0.412 112 8c4.4 4.4 8 11.6 8 16s-3.6 11.6-8 16c-7.588 7.588-13.332 8-112 8s-104.412-0.412-112-8M408 392c-4.4-4.4-8-11.6-8-16s3.6-11.6 8-16c7.24-7.24 13.332-8 64-8s56.76 0.76 64 8c4.4 4.4 8 11.6 8 16s-3.6 11.6-8 16c-7.24 7.24-13.332 8-64 8s-56.76-0.76-64-8" />
<glyph unicode="&#xf5fc;" glyph-name="atom" d="M512 592c-44.8 0-80-35.2-80-80s35.2-80 80-80 80 35.2 80 80-35.2 80-80 80zM832 512c17.6 17.6 33.6 35.2 48 51.2 67.2 80 88 148.8 60.8 196.8-19.2 33.6-62.4 52.8-124.8 52.8-41.6 0-91.2-8-144-22.4-33.6 131.2-92.8 217.6-160 217.6s-126.4-86.4-160-219.2c-52.8 14.4-102.4 22.4-144 22.4-62.4 0-105.6-17.6-124.8-52.8-27.2-44.8-6.4-115.2 60.8-195.2 14.4-17.6 30.4-35.2 48-51.2-17.6-17.6-33.6-35.2-48-51.2-67.2-80-88-148.8-60.8-196.8 19.2-33.6 62.4-52.8 124.8-52.8 0 0 0 0 0 0 41.6 0 91.2 8 144 22.4 33.6-131.2 92.8-217.6 160-217.6s126.4 86.4 160 219.2c52.8-14.4 102.4-22.4 144-22.4 62.4 0 105.6 17.6 124.8 52.8 27.2 46.4 4.8 116.8-60.8 196.8-14.4 14.4-30.4 32-48 49.6zM816 780.8c35.2 0 80-6.4 97.6-36.8 19.2-33.6-1.6-92.8-57.6-160-14.4-16-30.4-33.6-46.4-49.6-32 28.8-68.8 59.2-108.8 86.4-4.8 49.6-11.2 96-20.8 137.6 49.6 14.4 96 22.4 136 22.4zM592 372.8c-27.2-16-52.8-30.4-80-43.2-27.2 12.8-52.8 27.2-80 43.2s-52.8 32-76.8 48c-1.6 30.4-3.2 59.2-3.2 91.2s1.6 60.8 3.2 91.2c24 16 49.6 32 76.8 48s52.8 30.4 80 43.2c27.2-12.8 52.8-27.2 80-43.2s52.8-32 76.8-48c1.6-30.4 3.2-59.2 3.2-91.2s-1.6-60.8-3.2-91.2c-24-16-49.6-32-76.8-48zM665.6 380.8c-3.2-38.4-9.6-73.6-16-105.6-32 11.2-65.6 24-100.8 38.4 19.2 9.6 40 20.8 59.2 32s38.4 24 57.6 35.2zM475.2 313.6c-33.6-16-67.2-28.8-100.8-38.4-6.4 32-12.8 68.8-16 105.6 19.2-12.8 38.4-24 57.6-35.2s40-22.4 59.2-32zM321.6 444.8c-30.4 22.4-57.6 44.8-83.2 67.2 25.6 22.4 52.8 44.8 83.2 67.2-1.6-22.4-1.6-44.8-1.6-67.2s0-44.8 1.6-67.2zM358.4 643.2c3.2 38.4 9.6 73.6 16 105.6 32-11.2 65.6-24 100.8-38.4-19.2-9.6-40-20.8-59.2-32s-38.4-24-57.6-35.2zM548.8 710.4c33.6 16 67.2 28.8 100.8 38.4 6.4-32 12.8-68.8 16-105.6-19.2 12.8-38.4 24-57.6 35.2s-40 22.4-59.2 32zM702.4 579.2c30.4-22.4 57.6-44.8 83.2-67.2-25.6-22.4-52.8-44.8-83.2-67.2 1.6 22.4 1.6 44.8 1.6 67.2s0 44.8-1.6 67.2zM512 976c48 0 99.2-73.6 129.6-195.2-41.6-12.8-84.8-30.4-129.6-51.2-44.8 20.8-88 38.4-129.6 51.2 30.4 121.6 81.6 195.2 129.6 195.2zM110.4 744c17.6 30.4 62.4 36.8 97.6 36.8 40 0 86.4-8 136-22.4-9.6-41.6-16-88-20.8-137.6-40-27.2-76.8-56-108.8-86.4-17.6 16-33.6 33.6-46.4 49.6-56 67.2-76.8 126.4-57.6 160zM208 243.2c-35.2 0-80 6.4-97.6 36.8-19.2 33.6 1.6 92.8 57.6 160 14.4 16 30.4 33.6 46.4 49.6 32-28.8 68.8-59.2 108.8-86.4 4.8-49.6 11.2-96 20.8-137.6-49.6-14.4-96-22.4-136-22.4zM512 48c-48 0-99.2 73.6-129.6 195.2 41.6 12.8 84.8 30.4 129.6 51.2 44.8-20.8 88-38.4 129.6-51.2-30.4-121.6-81.6-195.2-129.6-195.2zM913.6 280c-17.6-30.4-62.4-36.8-97.6-36.8-40 0-86.4 8-136 22.4 9.6 41.6 16 88 20.8 137.6 40 27.2 76.8 56 108.8 86.4 17.6-16 33.6-33.6 46.4-49.6 56-67.2 76.8-126.4 57.6-160z" />
<glyph unicode="&#xf5fd;" glyph-name="atom-line" d="M490 1003.304c-20.68-7.74-45.628-27.068-62.7-48.584-20.884-26.32-48.604-82.892-62.088-126.72-5.752-18.7-10.78-34.452-11.176-35.004-0.392-0.552-18.56 2.912-40.376 7.704-46.768 10.272-136.808 12.6-164.288 4.244-29.244-8.888-54.22-28.708-66.712-52.944-10.36-20.096-11.18-24.768-9.5-54 1.404-24.42 4.68-38.16 13.832-58 14.908-32.316 45.436-75.612 77.432-109.816l24.408-26.092-26.892-29.048c-35.248-38.064-71.416-93.424-82.188-125.784-24.872-74.752 10.132-134.896 86.948-149.392 33.728-6.364 98.308-2.88 148.956 8.036 20.712 4.464 37.98 7.66 38.376 7.108 0.396-0.556 5.52-16.636 11.388-35.736 14.512-47.244 46.62-110.004 69.020-134.92 29.004-32.26 49.4-42.356 85.56-42.356s56.556 10.096 85.56 42.356c22.4 24.916 54.508 87.676 69.020 134.92 5.868 19.1 10.992 35.18 11.388 35.736 0.396 0.552 17.664-2.644 38.376-7.108 146.828-31.648 238.084 1.508 242.988 88.284 1.832 32.42-5.504 57.872-27.748 96.292-18.372 31.736-41.524 62.14-68.736 90.264l-20.072 20.744 26.86 29.012c30.272 32.696 65.528 83.688 78.5 113.544 5.508 12.672 9.38 31.636 10.608 51.956 1.772 29.324 0.988 33.84-9.404 54-12.216 23.696-37.296 43.964-64.632 52.232-29.988 9.072-91.624 9.196-142.708 0.288-26.4-4.604-51.68-9.42-56.18-10.696-7.296-2.076-9.216 1.244-17.696 30.6-14.86 51.428-49.224 116.448-75.732 143.288-12.316 12.472-29.592 26.076-38.392 30.232-18.984 8.96-55.18 11.656-72 5.36M542.528 953.48c18.528-8.792 37.844-32.22 57.14-69.308 14.416-27.712 42.772-103.544 39.604-105.916-0.7-0.524-13.872-5.604-29.272-11.292s-41.952-16.232-59-23.428l-31-13.088-31 13.084c-17.052 7.196-43.6 17.656-59 23.244-15.4 5.592-28.572 10.672-29.272 11.296-2.932 2.62 24.212 75.964 38.768 104.74 18.368 36.324 38.692 61.328 57.304 70.5 16.82 8.292 28.524 8.332 45.728 0.168M309.94 752.916c17.568-3.804 31.728-8.3 31.468-9.988-2.464-15.916-13.476-92.996-15.372-107.588-2.332-17.952-3.812-19.72-39.228-46.824-20.244-15.492-43.28-33.6-51.192-40.236l-14.384-12.068-24.896 28.896c-62.24 72.224-87.428 130.168-71.648 164.804 5.604 12.3 24.196 24.472 45.668 29.9 21.46 5.424 100.788 1.508 139.584-6.896M889.532 752.228c24.352-11.792 32.18-26.48 29.248-54.884-3.604-34.932-30.532-81.284-80.228-138.104l-19.908-22.76-12.32 10.056c-6.78 5.528-29.8 23.66-51.16 40.288-37.336 29.068-38.924 30.948-41.228 48.704-2.232 17.216-14.212 100.676-15.4 107.308-0.296 1.636 9.364 5.252 21.464 8.032 67.692 15.56 139.016 16.132 169.532 1.36M451.348 707.46l13.348-5.512-29.348-16.468c-16.14-9.056-36.308-20.592-44.812-25.64l-15.464-9.18 2.244 11.672c1.236 6.416 4.296 24.644 6.8 40.508l4.552 28.84 24.668-9.352c13.564-5.144 30.672-11.832 38.012-14.868M657.776 692.076c3.34-20.656 5.644-37.988 5.12-38.516-0.796-0.792-82.54 45.116-85.996 48.292-0.604 0.556 15.596 7.408 36 15.228 20.404 7.816 37.484 13.84 37.952 13.384 0.468-0.46 3.584-17.732 6.924-38.388M563.664 653.444c23.284-12.408 56.068-31.34 72.852-42.076 36.5-23.344 35.484-20.272 35.484-107.368 0-88.696 1.756-83.956-40.828-110.296-19.684-12.176-52.748-31.2-73.472-42.276l-37.68-20.132-42.232 22.352c-23.228 12.296-56.316 31.388-73.524 42.428-37.388 23.98-36.264 20.64-36.264 107.924 0 84.016 0.060 84.244 27.444 102.468 20.728 13.788 120.284 69.532 124.188 69.532 0.932 0 20.744-10.152 44.032-22.556M490.736 586.444c-60.648-22.58-77.708-98.62-32.308-144.016 43.904-43.904 115.656-29.976 142.056 27.572 18.416 40.14-0.612 91.384-41.852 112.708-16.672 8.62-49.868 10.448-67.896 3.736M320 504c0-26.4-0.996-48-2.212-48-5.168 0-57.964 45.472-56.812 48.932 1.516 4.548 51.736 46.552 56.024 46.856 1.648 0.116 3-21.388 3-47.788M752.212 529.548c15.284-12.348 27.788-23.688 27.788-25.2 0-3.048-54.072-48.348-57.712-48.348-1.26 0-2.288 21.6-2.288 48s0.996 48 2.212 48c1.22 0 14.72-10.104 30-22.452M547.908 529.904c15.248-15.24 13.9-39.16-3.064-54.312-20.764-18.556-47.204-13.552-58.928 11.148-10.184 21.464-0.324 45.836 22.084 54.584 10.7 4.176 29.76-1.28 39.908-11.42M284.836 421.176c37.336-29.068 38.924-30.948 41.228-48.704 1.316-10.16 5.2-37.788 8.632-61.4 3.428-23.612 6.136-44.312 6.012-46-0.564-7.736-64.616-17.864-116.708-18.456-49.52-0.564-55.588 0.172-73.164 8.904-10.988 5.456-21.656 14.332-25 20.8-17.676 34.176 5.848 90.884 67.708 163.204l27.544 32.204 12.456-10.16c6.852-5.588 29.932-23.764 51.292-40.392M874.92 404.396c32.588-43.128 50.288-91.104 43.536-118-3.124-12.456-15.856-24.86-34.456-33.588-20.028-9.392-110.372-8.328-153.244 1.808-17.18 4.060-31.34 8.768-31.464 10.456s2.584 22.388 6.012 46c3.432 23.612 7.328 51.324 8.66 61.588 2.276 17.528 4.176 19.984 31.232 40.42 15.84 11.964 38.704 30.064 50.804 40.22l22 18.464 20-22.488c11-12.368 27.616-32.564 36.92-44.88M435.056 322.68c33.028-18.528 33.628-17.152-15.136-34.948l-31.252-11.404-4.552 28.836c-2.504 15.86-5.564 34.088-6.8 40.504l-2.244 11.672 15.464-9.18c8.504-5.048 28.54-16.512 44.52-25.48M662.536 345c-1.152-6.048-4.148-23.976-6.652-39.836l-4.552-28.836-31.252 11.404c-49.12 17.928-48.608 16.224-11.156 37.188 18.192 10.18 36.676 21.284 41.076 24.668 11.672 8.984 14.9 7.8 12.536-4.588M561.204 260.528c20.236-8.508 45.796-18.728 56.796-22.708 11-3.984 20.572-7.64 21.272-8.132 0.696-0.492-4.204-17.224-10.888-37.18-30.040-89.668-71.3-144.508-108.712-144.508-37.064 0-77.968 54.7-108.056 144.508-6.684 19.956-11.584 36.704-10.888 37.22 0.7 0.512 12.972 5.192 27.272 10.396 14.3 5.208 39.5 15.36 56 22.564 16.5 7.208 32.34 13.148 35.204 13.208 2.864 0.056 21.764-6.86 42-15.368" />
<glyph unicode="&#xf5fe;" glyph-name="award-49" d="M80 944h688v-272h64v320c0 8.832-7.168 16-16 16h-784c-8.832 0-16-7.168-16-16v-832c0-8.832 7.168-16 16-16h608v64h-560v736zM656 768c0 8.832-7.152 16-16 16h-448c-8.848 0-16-7.168-16-16s7.152-16 16-16h448c8.848 0 16 7.168 16 16zM448 592h-256c-8.848 0-16-7.168-16-16s7.152-16 16-16h256c8.848 0 16 7.168 16 16s-7.152 16-16 16zM448 400h-256c-8.848 0-16-7.168-16-16s7.152-16 16-16h256c8.848 0 16 7.168 16 16s-7.152 16-16 16zM672 229.328v-197.328c0-5.696 3.024-10.976 7.968-13.84s11.024-2.896 15.968-0.048l104.064 59.456 104.064-59.456c2.448-1.408 5.2-2.112 7.936-2.112 2.784 0 5.552 0.72 8.032 2.16 4.944 2.864 7.968 8.144 7.968 13.84v197.328c-37.104-23.504-80.912-37.328-128-37.328s-90.896 13.824-128 37.328zM800 640c-114.688 0-208-93.312-208-208s93.312-208 208-208 208 93.312 208 208-93.312 208-208 208z" />
<glyph unicode="&#xf5ff;" glyph-name="award-49-line" d="M24 1000c-7.9-7.9-8-13.332-8-432s0.1-424.1 8-432c7.852-7.852 13.332-8 296-8s288.148 0.148 296 8c4.4 4.4 8 11.6 8 16s-3.6 11.6-8 16c-7.844 7.844-13.332 8-280 8h-272v784h720.096l-2.096-305.816-20-3.324c-56.712-9.432-119.628-58.556-147.488-115.156-39.372-79.996-25.532-175.22 35.228-242.364l22.26-24.6v-110.368c0-105.040 0.388-110.76 8-118.372 4.4-4.4 11.212-8 15.14-8s30.928 13.484 60 29.96l52.86 29.96 52.86-29.96c29.072-16.476 56.072-29.96 60-29.96s10.74 3.6 15.14 8c7.612 7.612 8 13.332 8 118.372v110.368l22.312 24.632c60.344 66.604 74.152 160.924 35.364 241.568-27.356 56.876-90.456 106.404-147.676 115.916l-20 3.324-2 171.236c-1.912 163.648-2.344 171.484-9.764 176.908-6.58 4.808-67.512 5.676-399 5.676-385.904 0-391.344-0.108-399.236-8M184 776c-4.4-4.4-8-11.6-8-16s3.6-11.6 8-16c7.816-7.816 13.332-8 240-8s232.184 0.184 240 8c4.4 4.4 8 11.6 8 16s-3.6 11.6-8 16c-7.816 7.816-13.332 8-240 8s-232.184-0.184-240-8M850.16 601.792c124.804-32.5 167.036-188.424 75.752-279.704-65.556-65.56-170.268-65.56-235.824 0-64.168 64.164-65.84 168.46-3.724 232.232 45.112 46.316 103.384 63.204 163.796 47.472M184 584c-4.4-4.4-8-11.6-8-16s3.6-11.6 8-16c7.688-7.688 13.332-8 144-8s136.312 0.312 144 8c4.4 4.4 8 11.6 8 16s-3.6 11.6-8 16c-7.688 7.688-13.332 8-144 8s-136.312-0.312-144-8M184 392c-4.4-4.4-8-11.6-8-16s3.6-11.6 8-16c7.688-7.688 13.332-8 144-8s136.312 0.312 144 8c4.4 4.4 8 11.6 8 16s-3.6 11.6-8 16c-7.688 7.688-13.332 8-144 8s-136.312-0.312-144-8M760 229.728c41.248-8.868 81.028-6.252 127 8.348l9 2.856v-70.464c0-38.76-1.080-70.468-2.4-70.468s-19.884 9.9-41.256 22c-21.368 12.1-41.324 22-44.344 22s-22.976-9.9-44.344-22c-21.372-12.1-39.936-22-41.256-22s-2.4 31.692-2.4 70.428c0 65.464 0.492 70.232 7 67.66 3.852-1.524 18.7-5.288 33-8.36" />
<glyph unicode="&#xf600;" glyph-name="backpack-57" d="M688 464v-160h48c8.848 0 16-7.152 16-16s-7.152-16-16-16h-48v-48c0-8.848-7.152-16-16-16s-16 7.152-16 16v48h-48c-8.848 0-16 7.152-16 16s7.152 16 16 16h48v160h-288v-160h48c8.848 0 16-7.152 16-16s-7.152-16-16-16h-48v-48c0-8.848-7.152-16-16-16s-16 7.152-16 16v48h-48c-8.848 0-16 7.152-16 16s7.152 16 16 16h48v160h-192v-432c0-8.848 7.152-16 16-16h704c8.848 0 16 7.152 16 16v432h-192zM336 496v48c0 8.848 7.152 16 16 16s16-7.152 16-16v-48h288v48c0 8.848 7.152 16 16 16s16-7.152 16-16v-48h192v144c0 109.552-85.2 199.376-192.768 207.232-7.76 89.92-83.328 160.768-175.232 160.768s-167.472-70.848-175.232-160.768c-107.568-7.856-192.768-97.68-192.768-207.232v-144h192zM512 976c74 0 135.072-56.112 143.056-128h-286.112c7.984 71.888 69.056 128 143.056 128zM112 359.6c-55.84-19.824-96-73.040-96-135.6v-192c0-8.848 7.152-16 16-16h80v343.6zM912 359.6c55.84-19.824 96-73.040 96-135.6v-192c0-8.848-7.152-16-16-16h-80v343.6z" />
<glyph unicode="&#xf601;" glyph-name="backpack-57-line" d="M473.004 1001.82c-32.072-8.636-52.448-20.62-79.932-47.012-26.516-25.46-47.38-60.82-51.652-87.532-2.952-18.464-6.456-21.432-29.42-24.912-9.9-1.496-31.308-9.284-47.576-17.304-58.516-28.852-104.944-89.14-116.12-150.796-2.548-14.048-4.304-82.016-4.304-166.552v-142.82l-14.86-2.788c-45.556-8.548-94.044-56.708-107.32-106.592-4.292-16.136-5.736-48.76-5.772-130.512-0.044-103.7 0.34-109.388 7.952-117 7.912-7.912 13.332-8 496-8s488.088 0.088 496 8c7.612 7.612 7.996 13.3 7.952 117-0.036 81.752-1.48 114.376-5.772 130.512-13.276 49.884-61.764 98.044-107.32 106.592l-14.86 2.788v142.82c0 84.536-1.756 152.504-4.304 166.552-13.964 77.040-82.16 148.876-157.696 166.112-29.112 6.644-30.66 7.948-36.508 30.796-2.928 11.452-9.212 28.436-13.96 37.744-11.804 23.14-51.516 63.628-74.88 76.344-39.992 21.768-92.508 28.176-135.648 16.56M566.748 951.376c28.464-10.648 61.080-40.444 75.124-68.62 18.684-37.5 28.308-34.756-121.872-34.756-150.016 0-140.516-2.664-122.128 34.24 31.46 63.136 104.736 93.136 168.876 69.136M656 776c0-26.084 8.348-40 24-40 15.292 0 24 13.976 24 38.524v22.524l14.656-2.38c23.68-3.844 57.48-23.112 80.116-45.68 41.288-41.156 49.228-69.52 49.228-175.828v-77.16h-144v24c0 26.084-8.348 40-24 40s-24-13.916-24-40v-24h-272v24c0 26.084-8.348 40-24 40s-24-13.916-24-40v-24h-144v77.16c0 106.308 7.94 134.672 49.228 175.828 22.636 22.568 56.436 41.836 80.116 45.68l14.656 2.38v-22.524c0-24.548 8.708-38.524 24-38.524 15.652 0 24 13.916 24 40v24h272v-24M336 376v-72h-24c-26.084 0-40-8.348-40-24s13.916-24 40-24h24v-24c0-26.084 8.348-40 24-40s24 13.916 24 40v24h24c26.084 0 40 8.348 40 24s-13.916 24-40 24h-24v144h272v-144h-24c-26.084 0-40-8.348-40-24s13.916-24 40-24h24v-24c0-26.084 8.348-40 24-40s24 13.916 24 40v24h24c26.084 0 40 8.348 40 24s-13.916 24-40 24h-24v144h144v-400h-656v400h144v-72M144 182v-134h-80v91.848c0 107.020 3.712 124.12 32.592 150.212 14.324 12.94 35.656 25.328 44.408 25.784 1.652 0.084 3-60.144 3-133.844M928.676 301.768c8.072-5.2 19.288-15.496 24.92-22.884 20.16-26.432 22.404-40.388 22.404-139.388v-91.496h-80v268.54l9-2.66c4.952-1.46 15.604-6.912 23.676-12.112" />
<glyph unicode="&#xf602;" glyph-name="backpack-58" d="M688 896h-32v80h-288v-80h-32v96c0 8.848 7.152 16 16 16h320c8.848 0 16-7.152 16-16v-96zM992 864h-960c-8.848 0-16-7.152-16-16v-464c0-52.944 43.056-96 96-96h160v112h-48c-8.848 0-16 7.152-16 16s7.152 16 16 16h128c8.848 0 16-7.152 16-16s-7.152-16-16-16h-48v-112h416v112h-48c-8.848 0-16 7.152-16 16s7.152 16 16 16h128c8.848 0 16-7.152 16-16s-7.152-16-16-16h-48v-112h160c52.944 0 96 43.056 96 96v464c0 8.848-7.152 16-16 16zM688 576c0-8.848-7.152-16-16-16h-320c-8.848 0-16 7.152-16 16v144c0 8.848 7.152 16 16 16h320c8.848 0 16-7.152 16-16v-144zM752 256v-96c0-8.848-7.152-16-16-16s-16 7.152-16 16v96h-416v-96c0-8.848-7.152-16-16-16s-16 7.152-16 16v96h-176v-176c0-17.68 14.32-32 32-32h768c17.68 0 32 14.32 32 32v176h-176z" />
<glyph unicode="&#xf603;" glyph-name="backpack-58-line" d="M344 984c-7.24-7.24-8-13.332-8-64v-56h-152c-147.384 0-152.248-0.248-160.116-8.116-8.004-8.004-8.1-11.508-7-259 1.108-249.004 1.18-251.004 9.828-267.156 10.932-20.424 35.936-43.276 54.828-50.108l14.46-5.228v-113.196c0-107.864 0.376-113.572 8-121.196 7.896-7.896 13.332-8 416-8s408.104 0.104 416 8c7.624 7.624 8 13.332 8 121.196v113.196l14.46 5.228c18.892 6.832 43.896 29.684 54.828 50.108 8.648 16.152 8.72 18.152 9.828 267.156 1.1 247.492 1.004 250.996-7 259-7.868 7.868-12.732 8.116-160.116 8.116h-152v56c0 50.668-0.76 56.76-8 64-7.748 7.748-13.332 8-176 8s-168.252-0.252-176-8M656 904v-40h-272v80h272v-40M975.984 589c-0.012-219.456-0.28-227.432-7.964-240.036-16.444-26.972-24.372-28.932-117.020-28.948l-83-0.016v80h24c18.668 0 25.776 1.776 32 8 10.184 10.184 10.184 21.816 0 32-7.408 7.408-13.332 8-80 8s-72.592-0.592-80-8c-10.184-10.184-10.184-21.816 0-32 6.224-6.224 13.332-8 32-8h24v-80h-400v80h24c26.084 0 40 8.348 40 24 0 4.4-3.6 11.6-8 16-7.408 7.408-13.332 8-80 8s-72.592-0.592-80-8c-10.184-10.184-10.184-21.816 0-32 6.224-6.224 13.332-8 32-8h24v-80l-83 0.016c-92.648 0.016-100.576 1.976-117.020 28.948-7.684 12.604-7.952 20.58-7.964 240.036l-0.016 227h912l-0.016-227M344 728c-7.516-7.516-8-13.332-8-96s0.484-88.484 8-96c7.748-7.748 13.332-8 176-8s168.252 0.252 176 8c7.516 7.516 8 13.332 8 96s-0.484 88.484-8 96c-7.748 7.748-13.332 8-176 8s-168.252-0.252-176-8M656 632v-56h-272v112h272v-56M272 216c0-50.668 0.76-56.76 8-64 4.4-4.4 11.6-8 16-8s11.6 3.6 16 8c7.24 7.24 8 13.332 8 64v56h400v-56c0-50.668 0.76-56.76 8-64 4.4-4.4 11.6-8 16-8s11.6 3.6 16 8c7.24 7.24 8 13.332 8 64v56h128v-192h-752v192h128v-56" />
<glyph unicode="&#xf604;" glyph-name="basketball" d="M351.6 528h144.4v463.6c-117.417-3.928-223.461-49.613-304.427-122.587l0.427 0.379c94.466-84.656 154.983-205.53 159.578-340.593l0.022-0.799zM528 528h144.4c4.617 135.863 65.135 256.737 159.148 340.994l0.452 0.398c-80.539 72.595-186.583 118.28-303.213 122.187l-0.787 0.021zM32.4 496c4.208-124.659 55.482-236.583 136.509-319.23l-0.077 0.078c88.967 78.869 146.116 191.908 150.745 318.354l0.023 0.798zM704.4 528h287.2c-4.208 124.659-55.482 236.583-136.509 319.23l0.077-0.078c-88.967-78.869-146.116-191.908-150.745-318.354l-0.023-0.798zM672.4 496h-144.4v-463.6c117.417 3.928 223.461 49.613 304.427 122.587l-0.427-0.379c-94.466 84.656-154.983 205.53-159.578 340.593l-0.022 0.799zM704.4 496c4.652-127.245 61.801-240.284 150.303-318.747l0.465-0.405c80.95 82.569 132.224 194.493 136.411 318.358l0.021 0.794zM319.6 528c-4.652 127.245-61.801 240.284-150.303 318.747l-0.465 0.405c-80.95-82.569-132.224-194.493-136.411-318.358l-0.021-0.794zM496 496h-144.4c-4.617-135.863-65.135-256.737-159.148-340.994l-0.452-0.398c80.539-72.595 186.583-118.28 303.213-122.187l0.787-0.021z" />
<glyph unicode="&#xf605;" glyph-name="basketball-line" d="M448 986.364c-151.868-27.056-270.924-106.892-346.508-232.372-98.38-163.312-90.188-375.144 20.588-532.22 26.068-36.964 85.328-95.064 121.952-119.568 171.048-114.444 380.532-114.444 552.012 0 38.488 25.684 100.596 87.736 125.912 125.796 41.708 62.7 65.652 122.52 78.216 195.396 9.46 54.856 9.884 95.736 1.576 151.68-26.704 179.84-150.636 330.020-321.548 389.652-65.932 23.004-170.064 32.704-232.2 21.636M496 736v-208h-127.172l-4.656 35c-12.2 91.74-48.516 175.712-108.912 251.852l-19.716 24.856 27.228 20.028c33.344 24.528 89.408 52.66 128.144 64.3 25.86 7.776 79.492 18.464 98.084 19.552 6.584 0.388 7-12.004 7-207.588M586.688 938.016c47.624-7.724 91.544-21.828 131.044-42.084 30.016-15.396 79.368-48 84.004-55.504 1.172-1.9-4.78-11.32-13.224-20.94-61.468-69.996-101.5-164.44-114.656-270.488l-2.608-21h-127.248v208c0 114.4 1.352 207.992 3 207.984s19.508-2.692 39.688-5.968M227.476 772.052c52.444-69.596 77.456-131.884 90.38-225.052l2.636-19h-120.248c-93.536 0-120.24 1.112-120.232 5 0.032 12.84 13.128 77.868 20.548 102.036 10.632 34.624 34.652 85.084 53.812 113.040 18.608 27.152 42.368 55.924 46.176 55.924 1.572 0 13.688-14.376 26.928-31.948M856.452 787c36.332-43.656 66.948-99.716 82.988-151.964 7.42-24.168 20.516-89.196 20.548-102.036 0.008-3.888-26.676-5-120.124-5h-120.14l2.512 21c8.74 73.1 38.972 153.84 77.552 207.096 17.088 23.592 37.408 47.904 40.036 47.904 1.364 0 8.848-7.652 16.628-17M317.856 461c-9.832-70.88-28.612-128.344-57.844-176.98-19.268-32.060-55.632-79.976-60.712-80.004-4.088-0.024-48.34 59.84-62.388 84.388-25.928 45.32-47.892 113.852-54.676 170.596l-2.512 21h240.768l-2.636-19M496 272c0-114.4-1.352-207.992-3-207.984s-19.304 2.66-39.232 5.892c-67.4 10.932-121.544 31.9-176.076 68.18-17.844 11.876-34.456 24.012-36.912 26.972-3.46 4.168-0.376 10.292 13.668 27.16 55.796 67.016 95.492 156.128 107.704 241.78 3.136 22 5.736 41.352 5.776 43s28.872 3 64.072 3h64v-208M673.432 469c1.14-6.048 3.248-21.648 4.688-34.66 8.568-77.376 47.864-168.040 102.784-237.156l23.176-29.164-27.040-20.016c-32.136-23.788-88.228-51.984-126.808-63.752-22.46-6.848-90.404-20.168-103.232-20.236-1.648-0.008-3 93.584-3 207.984v208h127.364l2.068-11M959.984 477c-0.068-12.8-13.352-80.584-20.024-102.184-16.856-54.576-51.632-117.18-88.22-158.816l-12.304-14-12.172 14c-22.628 26.028-58.148 83.108-71.152 114.348-14.932 35.872-30.064 93.42-33.296 126.652l-2.236 23h119.708c65.844 0 119.704-1.352 119.696-3" />
<glyph unicode="&#xf606;" glyph-name="bell-54" d="M512 368c196.336 0 394.432-33.856 481.76-99.312-22.928 65.328-74.96 122.816-145.76 157.456v213.856c0 185.264-150.72 336-336 336s-336-150.736-336-336v-213.84c-70.8-34.64-122.832-92.128-145.76-157.456 87.328 65.44 285.424 99.296 481.76 99.296zM654.144 329.968c-10.64-69.040-70.128-121.968-142.144-121.968s-131.504 52.928-142.144 121.968c-204.64-17.744-353.856-72.784-353.856-137.968 0-79.536 222.064-144 496-144s496 64.464 496 144c0 65.184-149.216 120.224-353.856 137.968z" />
<glyph unicode="&#xf607;" glyph-name="bell-54-line" d="M459.524 970.040c-130.344-24.776-230.84-115.596-270.040-244.040-10.872-35.632-11-37.372-12.556-170.412l-1.568-134.412-13.912-6.632c-24.072-11.48-58.096-39.592-79.928-66.032-36.684-44.436-56.316-90.24-63.264-147.596-4.768-39.36 16.308-69.704 65.744-94.66 172.376-87.028 583.812-98.964 814-23.608 89.648 29.344 129.86 67.776 123.744 118.268-6.948 57.356-26.58 103.16-63.264 147.596-21.832 26.44-55.856 54.552-79.928 66.032l-13.912 6.632-1.568 134.412c-1.556 133.156-1.672 134.748-12.584 170.412-36.236 118.44-129.080 208.932-244.488 238.288-42.16 10.728-106.932 13.272-146.476 5.752M600 917.848c78.872-23.92 150.244-83.876 185.52-155.848 26.588-54.24 27.508-61.004 30.116-221.328 2.656-163.2-0.6-147.524 34.364-165.544 38.596-19.896 81.476-62.252 99.932-98.712 6.624-13.080 6.604-13.46-0.528-10.284-27.112 12.076-105.032 35.836-144.496 44.064-85.32 17.788-156.112 23.668-284.908 23.668s-199.588-5.88-284.908-23.668c-39.464-8.228-117.384-31.988-144.496-44.064-7.132-3.176-7.152-2.796-0.528 10.284 18.732 37.008 61.696 79.16 101.096 99.188 34.98 17.78 32.836 7.696 32.836 154.564 0 139.636 2.832 167.424 21.808 214.128 35.624 87.672 127.664 163.172 218.8 179.488 30.636 5.48 109.076 2.044 135.392-5.936M615.376 284.468c4.424-2.804 4.168-5.804-1.44-16.936-17.080-33.9-57.528-59.532-93.936-59.532s-76.856 25.632-93.936 59.532c-5.608 11.132-5.864 14.132-1.44 16.936 2.956 1.876 45.876 3.408 95.376 3.408s92.42-1.532 95.376-3.408M379.48 256.544c25.384-69.62 110.924-112.108 182.184-90.492 27.776 8.424 50.088 22.444 69.852 43.888 15.936 17.288 36.356 53.74 36.444 65.060 0.056 7.1 19.872 6.32 79.108-3.108 68.84-10.96 136.264-29.332 174.932-47.66 66.916-31.72 66.78-48.784-0.64-80.788-43.232-20.52-123.708-40.7-207.36-52-58.832-7.944-84.992-9.184-194-9.184s-135.168 1.24-194 9.184c-140.44 18.972-258 61.144-258 92.556 0 27.608 93.744 65.368 214 86.204 28.6 4.952 60.308 9.184 70.464 9.4l18.464 0.396 8.552-23.456" />
<glyph unicode="&#xf608;" glyph-name="board-27" d="M112 336h800v592c0 8.832-7.168 16-16 16h-352v48c0 8.832-7.168 16-16 16h-32c-8.832 0-16-7.168-16-16v-48h-352c-8.832 0-16-7.168-16-16v-592zM992 304h-960c-8.848 0-16-7.168-16-16v-32c0-8.832 7.152-16 16-16h349.216l-169.36-197.584c-5.76-6.704-4.992-16.816 1.728-22.56 3.024-2.592 6.736-3.856 10.416-3.856 4.496 0 8.992 1.904 12.144 5.584l187.216 218.416h72.64v-176c0-8.832 7.152-16 16-16s16 7.168 16 16v176h72.64l187.216-218.416c3.152-3.68 7.648-5.584 12.144-5.584 3.68 0 7.392 1.264 10.4 3.856 6.72 5.744 7.504 15.856 1.728 22.56l-169.344 197.584h349.216c8.848 0 16 7.168 16 16v32c0 8.832-7.152 16-16 16z" />
<glyph unicode="&#xf609;" glyph-name="board-27-line" d="M504 1000c-6.668-6.668-8-13.332-8-40v-32h-184c-178.668 0-184.232-0.232-192-8-7.852-7.852-8-13.332-8-296s0.148-288.148 8-296c10.184-10.184 21.816-10.184 32 0 7.844 7.844 8 13.332 8 280v272h720v-272c0-266.668 0.156-272.156 8-280 10.184-10.184 21.816-10.184 32 0 7.852 7.852 8 13.332 8 296s-0.148 288.148-8 296c-7.768 7.768-13.332 8-192 8h-184v32c0 26.668-1.332 33.332-8 40-10.184 10.184-21.816 10.184-32 0M24 264c-4.4-4.4-8-11.6-8-16s3.6-11.6 8-16c7.748-7.748 13.332-8 176-8 92.4 0 168-0.976 168-2.168s-31.992-39.444-71.096-85c-100.1-116.62-97.404-112.332-80.904-128.832 17.964-17.964 21.328-15.124 122.7 103.748l95.3 111.748 62 0.504v-88c0-82.668 0.484-88.484 8-96 4.4-4.4 11.6-8 16-8s11.6 3.6 16 8c7.516 7.516 8 13.332 8 96v88l62-0.504 95.3-111.748c101.372-118.872 104.736-121.712 122.7-103.748 16.5 16.5 19.196 12.212-80.904 128.832-39.104 45.556-71.096 83.808-71.096 85s75.6 2.168 168 2.168c162.668 0 168.252 0.252 176 8 4.4 4.4 8 11.6 8 16s-3.6 11.6-8 16c-7.912 7.912-13.332 8-496 8s-488.088-0.088-496-8" />
<glyph unicode="&#xf60a;" glyph-name="board-51" d="M976 288h-928c-8.832 0-16-7.168-16-16v-32c0-8.832 7.168-16 16-16h319.504l-155.648-181.6c-5.744-6.704-4.976-16.8 1.728-22.544 3.024-2.592 6.72-3.856 10.416-3.856 4.512 0 8.992 1.888 12.16 5.6l173.472 202.4h86.368v-160c0-8.848 7.168-16 16-16s16 7.152 16 16v160h86.368l173.488-202.4c3.152-3.712 7.648-5.6 12.144-5.6 3.68 0 7.392 1.264 10.4 3.856 6.704 5.744 7.488 15.84 1.728 22.544l-155.632 181.6h319.504c8.832 0 16 7.168 16 16v32c0 8.832-7.168 16-16 16zM880 828.128v-492.128h32v524.128zM896 928h-352v64c0 8.832-7.168 16-16 16h-32c-8.832 0-16-7.168-16-16v-64h-352c-8.832 0-16-7.168-16-16v-576h32v560h736l27.312 27.312c-2.896 2.896-6.896 4.688-11.312 4.688zM576 672h-256c-8.832 0-16 7.152-16 16s7.168 16 16 16h256c8.832 0 16-7.152 16-16s-7.168-16-16-16zM704 480h-384c-8.832 0-16 7.152-16 16s7.168 16 16 16h384c8.832 0 16-7.152 16-16s-7.168-16-16-16zM704 704c-4.096 0-8.192 1.568-11.312 4.688-6.256 6.256-6.256 16.368 0 22.624l256 256c6.256 6.256 16.368 6.256 22.624 0s6.256-16.368 0-22.624l-256-256c-3.12-3.12-7.216-4.688-11.312-4.688z" />
<glyph unicode="&#xf60b;" glyph-name="board-51-line" d="M504 1000c-6.668-6.668-8-13.332-8-40v-32h-184c-178.668 0-184.232-0.232-192-8-7.852-7.852-8-13.332-8-296s0.148-288.148 8-296c10.184-10.184 21.816-10.184 32 0 7.844 7.844 8 13.332 8 280v272h685.736l-78.868-79.228c-82.448-82.824-86.632-89.008-70.868-104.772s21.948-11.58 104.772 70.868l79.228 78.868v-254.868c0-249.536 0.168-255.036 8-262.868 10.184-10.184 21.816-10.184 32 0 7.848 7.848 8 13.332 8 286.728v278.724l32 32.788c33.884 34.712 37.748 44.012 24 57.76s-23.048 9.884-57.76-24l-32.788-32h-349.452v32c0 26.668-1.332 33.332-8 40-10.184 10.184-21.816 10.184-32 0M312 696c-4.4-4.4-8-11.6-8-16s3.6-11.6 8-16c7.688-7.688 13.332-8 144-8s136.312 0.312 144 8c4.4 4.4 8 11.6 8 16s-3.6 11.6-8 16c-7.688 7.688-13.332 8-144 8s-136.312-0.312-144-8M312 504c-4.4-4.4-8-11.6-8-16s3.6-11.6 8-16c7.788-7.788 13.332-8 208-8s200.212 0.212 208 8c10.184 10.184 10.184 21.816 0 32-7.788 7.788-13.332 8-208 8s-200.212-0.212-208-8M24 264c-4.4-4.4-8-11.6-8-16s3.6-11.6 8-16c7.748-7.748 13.332-8 176-8 92.4 0 168-0.976 168-2.168s-31.992-39.444-71.096-85c-100.1-116.62-97.404-112.332-80.904-128.832 17.964-17.964 21.328-15.124 122.7 103.748l95.3 111.748 62 0.504v-88c0-82.668 0.484-88.484 8-96 4.4-4.4 11.6-8 16-8s11.6 3.6 16 8c7.516 7.516 8 13.332 8 96v88l62-0.504 95.3-111.748c101.372-118.872 104.736-121.712 122.7-103.748 16.5 16.5 19.196 12.212-80.904 128.832-39.104 45.556-71.096 83.808-71.096 85s75.6 2.168 168 2.168c162.668 0 168.252 0.252 176 8 4.4 4.4 8 11.6 8 16s-3.6 11.6-8 16c-7.912 7.912-13.332 8-496 8s-488.088-0.088-496-8" />
<glyph unicode="&#xf60c;" glyph-name="book" d="M496 875.84c-42.512 41.744-124 68.16-224 68.16-148.336 0-256-58.112-256-138.192v-741.808c0-8.848 7.152-16 16-16s16 7.152 16 16c0 61.744 100.48 112 224 112 85.168 0 159.392-23.888 197.264-58.976 10.224-9.472 26.736-2.192 26.736 11.744v747.072zM752 944c-100 0-181.488-26.416-224-68.16v-747.072c0-13.936 16.512-21.216 26.736-11.744 37.872 35.088 112.096 58.976 197.264 58.976 123.52 0 224-50.256 224-112 0-8.848 7.152-16 16-16s16 7.152 16 16v741.808c0 80.080-107.664 138.192-256 138.192z" />
<glyph unicode="&#xf60d;" glyph-name="book-line" d="M200 938.076c-85.284-14.512-151.96-51.308-174.092-96.076-7.692-15.56-7.936-26.668-8.968-404.94-1.048-385.26-0.98-389.020 7-397 16.948-16.948 36.92-5.312 41.648 24.256 2.204 13.788 6.832 21.416 21.688 35.736 81.284 78.348 298.664 79.716 383.124 2.412 14.096-12.904 19.22-21.22 23.688-38.44 3.136-12.088 8.796-24.24 12.572-27 17.032-12.456 34.532-0.184 38.928 27.292 2.204 13.788 6.832 21.416 21.688 35.736 81.284 78.348 298.664 79.716 383.124 2.412 14.096-12.904 19.22-21.22 23.688-38.44 8.16-31.44 24.932-41.004 41.988-23.948 8.008 8.008 8.068 11.452 7 397-1.032 372.552-1.396 389.568-8.66 404.192-42.904 86.384-231.096 128.972-380.416 86.088-36.352-10.44-79.976-31.656-99.448-48.36l-15.448-13.256-14.552 13.408c-27.824 25.636-93.788 51.352-155.32 60.552-37.564 5.616-111.404 4.812-149.232-1.624M351.296 889.92c67.436-10.936 122.62-38.816 138.808-70.124 5.056-9.772 5.896-58.524 5.896-341.596 0-203.66-1.444-330.2-3.764-330.2-2.072 0-4.904 1.844-6.296 4.1-1.396 2.256-15.324 10.54-30.96 18.412-80.28 40.428-200.628 48.832-296.98 20.732-29.088-8.484-79.524-32.004-83.94-39.144-1.392-2.256-4.224-4.1-6.296-4.1-2.32 0-3.764 126.54-3.764 330.2 0 283.072 0.84 331.824 5.896 341.596 29.072 56.224 162.336 89.432 281.4 70.124M831.296 889.92c67.436-10.936 122.62-38.816 138.808-70.124 5.056-9.772 5.896-58.524 5.896-341.596 0-203.66-1.444-330.2-3.764-330.2-2.072 0-4.904 1.844-6.296 4.1-1.396 2.256-15.324 10.54-30.96 18.412-80.28 40.428-200.628 48.832-296.98 20.732-29.088-8.484-79.524-32.004-83.94-39.144-1.392-2.256-4.224-4.1-6.296-4.1-2.32 0-3.764 126.54-3.764 330.2 0 283.072 0.84 331.824 5.896 341.596 29.072 56.224 162.336 89.432 281.4 70.124" />
<glyph unicode="&#xf60e;" glyph-name="book-07" d="M496 822.208l-458.944 152.976c-4.88 1.616-10.224 0.816-14.416-2.208-4.176-3.008-6.64-7.84-6.64-12.976v-736c0-6.896 4.4-13.008 10.944-15.184l469.056-156.352v769.744zM1001.36 972.976c-4.208 3.024-9.552 3.824-14.416 2.208l-458.944-152.976v-769.728l469.056 156.352c6.544 2.16 10.944 8.272 10.944 15.168v736c0 5.136-2.464 9.968-6.64 12.976z" />
<glyph unicode="&#xf60f;" glyph-name="book-07-line" d="M24 968c-7.888-7.888-8-13.332-8-385.772v-377.776l8.824-6.18c4.852-3.396 118.252-42.64 252-87.2l243.176-81.024 244.48 81.46c144.612 48.18 247.556 84.528 252 88.972 7.252 7.252 7.52 20.88 7.52 383.52 0 370.668-0.112 376.112-8 384-4.4 4.4-11.132 8-14.964 8-3.828 0-113.628-35.54-244-78.976l-237.036-78.972-237.036 78.972c-130.372 43.436-240.172 78.976-244 78.976-3.832 0-10.564-3.6-14.964-8M282.96 845.028l213.040-70.972v-341.028c0-187.564-1.332-341.028-2.96-341.028s-98.828 31.936-216 70.972l-213.040 70.972v341.028c0 187.564 1.332 341.028 2.96 341.028s98.828-31.936 216-70.972M976 574.972v-341.028l-213.040-70.972c-117.172-39.036-214.372-70.972-216-70.972s-2.96 153.464-2.96 341.028v341.028l211 70.648c116.048 38.86 213.252 70.796 216 70.972 3.964 0.256 5-70.376 5-340.704" />
<glyph unicode="&#xf610;" glyph-name="book-08" d="M992 816h-48v-496c0-22.064-14.96-41.216-36.352-46.576l-384-96c-3.744-0.928-7.68-1.424-11.648-1.424s-7.904 0.496-11.712 1.456l-383.936 95.968c-21.392 5.36-36.352 24.512-36.352 46.576v496h-48c-8.848 0-16-7.168-16-16v-704c0-8.832 7.152-16 16-16h960c8.848 0 16 7.168 16 16v704c0 8.832-7.152 16-16 16zM496 852.496l-364.128 91.024c-4.752 1.168-9.824 0.128-13.712-2.912s-6.16-7.68-6.16-12.608v-608c0-7.344 4.992-13.744 12.128-15.52l371.872-92.976v640.992zM905.84 940.608c-3.888 3.040-8.976 4.112-13.712 2.912l-364.128-91.024v-640.992l371.872 92.976c7.136 1.776 12.128 8.176 12.128 15.52v608c0 4.928-2.272 9.584-6.16 12.608z" />
<glyph unicode="&#xf611;" glyph-name="book-08-line" d="M120 936c-7.864-7.864-8-13.332-8-319.236 0-246.3 1.068-312.692 5.112-318.224 3.684-5.040 60.66-20.92 204-56.856l198.888-49.868 198.888 49.868c143.34 35.936 200.316 51.816 204 56.856 4.044 5.532 5.112 71.924 5.112 318.224 0 305.904-0.136 311.372-8 319.236-4.4 4.4-9.828 8-12.064 8-2.232 0-90.432-21.608-196-48.016l-191.936-48.016-191.936 48.016c-105.568 26.408-193.768 48.016-196 48.016-2.236 0-7.664-3.6-12.064-8M331 847.156l165-41.060v-279.048c0-153.476-1.352-279.096-3-279.156s-77.248 18.368-168 40.952l-165 41.060v279.048c0 153.476 1.348 279.096 3 279.156s77.252-18.368 168-40.952M880 608.952v-279.048l-165-41.060c-90.748-22.584-166.352-41.012-168-40.952s-3 125.68-3 279.156v279.052l161 40.572c88.548 22.316 164.148 40.74 168 40.948 6.604 0.36 7-15.432 7-278.668M24 808c-7.88-7.88-8-13.332-8-368s0.12-360.12 8-368c7.912-7.912 13.332-8 496-8s488.088 0.088 496 8c7.88 7.88 8 13.332 8 368s-0.12 360.12-8 368c-10.184 10.184-21.816 10.184-32 0-7.876-7.876-8-13.332-8-352v-344h-912v344c0 338.668-0.124 344.124-8 352-4.4 4.4-11.6 8-16 8s-11.6-3.6-16-8" />
<glyph unicode="&#xf612;" glyph-name="book-39" d="M912 1008h-704c-61.744 0-112-50.24-112-112v-768c0-61.76 50.256-112 112-112h704c8.848 0 16 7.168 16 16v960c0 8.832-7.152 16-16 16zM304 784c0 8.832 7.152 16 16 16h416c8.848 0 16-7.168 16-16v-224c0-8.832-7.152-16-16-16h-416c-8.848 0-16 7.168-16 16v224zM896 48h-688c-44.112 0-80 35.888-80 80s35.888 80 80 80h688v-160zM864 144h-624c-8.848 0-16-7.168-16-16s7.152-16 16-16h624v32z" />
<glyph unicode="&#xf613;" glyph-name="book-39-line" d="M172.252 999.232c-29.312-11.252-56.548-38.868-67.68-68.62-8.556-22.868-8.572-23.712-8.572-426.612s0.016-403.744 8.572-426.612c11.404-30.48 38.336-57.412 68.816-68.816 22.808-8.532 24.556-8.572 388.764-8.572 360.516 0 365.964 0.116 373.848 8 7.912 7.912 8 13.332 8 496s-0.088 488.088-8 496c-7.888 7.888-13.192 7.996-375 7.792-362.272-0.208-367.28-0.316-388.748-8.56M896 600v-360h-624v312c0 306.668-0.136 312.136-8 320-4.4 4.4-11.6 8-16 8s-11.6-3.6-16-8c-7.864-7.864-8-13.332-8-319.492v-311.492l-19.804-1.9c-10.896-1.048-28.896-6.4-40-11.9l-20.196-9.992v341.516c0 298.284 0.78 343.38 6.152 356.244 8.288 19.832 16.816 28.752 35.848 37.492 15.132 6.948 34.856 7.352 363 7.436l347 0.088v-360M392 792c-7.644-7.644-8-13.332-8-128s0.356-120.356 8-128c7.768-7.768 13.332-8 192-8s184.232 0.232 192 8c7.644 7.644 8 13.332 8 128s-0.356 120.356-8 128c-7.768 7.768-13.332 8-192 8s-184.232-0.232-192-8M736 664v-88h-304v176h304v-88M896 168v-24h-328c-322.668 0-328.132-0.132-336-8-4.4-4.4-8-11.6-8-16s3.6-11.6 8-16c7.868-7.868 13.332-8 336-8h328v-48h-694.304l-17.816 9c-52.492 26.516-52.492 99.484 0 126l17.816 9h694.304v-24" />
<glyph unicode="&#xf614;" glyph-name="book-bookmark" d="M912 192h-720c-44.183 0-80-35.817-80-80v0 0c0-44.183 35.817-80 80-80v0h720s-32 44-32 80 32 80 32 80zM832 992h-304v-320l-128 96-128-96v320h-80c-44.161-0.055-79.945-35.839-80-79.995v-721.781c20.292 20.845 48.623 33.776 79.974 33.776 0.009 0 0.018 0 0.028 0h719.998v688c-0.055 44.161-35.839 79.945-79.995 80h-0.005z" />
<glyph unicode="&#xf615;" glyph-name="book-bookmark-line" d="M162.324 999.944c-22.944-8.96-43.476-27.376-55.676-49.944l-8.648-16v-860l8.648-16c11.496-21.264 31.316-39.724 53.352-49.684 17.652-7.984 24.624-8.14 360-8.14s342.348 0.156 360 8.14c22.036 9.96 41.856 28.42 53.352 49.684l8.648 16v860l-8.864 16.572c-4.872 9.112-16.332 22.964-25.464 30.78-32.464 27.788-15.98 26.668-389.384 26.46-321.916-0.18-337.128-0.516-355.964-7.868M256 792c0-162.668 0.252-168.252 8-176 4.4-4.4 11.212-8 15.14-8s30.928 13.484 60 29.96l52.86 29.96 52.86-29.96c29.072-16.476 56.072-29.96 60-29.96s10.74 3.6 15.14 8c7.748 7.748 8 13.332 8 176v168l163-0.016c155.592-0.012 163.592-0.376 176.036-7.964 7.172-4.372 16.612-13.812 20.984-20.984 7.764-12.732 7.952-20.796 7.952-347.036s-0.188-334.304-7.952-347.036c-4.372-7.172-13.812-16.612-20.984-20.984-12.732-7.764-20.812-7.952-347.992-7.964-319.62-0.016-335.876-0.364-355-7.632l-20.044-7.616 0.016 362.616c0.012 354.78 0.184 362.896 7.964 375.652 13.672 22.424 29.184 28.932 69.020 28.948l35 0.016v-168M480 818c0-78.1-0.864-142-1.92-142-1.060 0-19.496 9.9-40.976 22-21.476 12.1-41.776 22-45.104 22s-23.628-9.9-45.104-22c-21.48-12.1-39.916-22-40.976-22-1.056 0-1.92 63.9-1.92 142v142h176v-142M888.924 78.62c-4.048-6.924-13.376-16.648-20.732-21.608l-13.376-9.012-334.408 0.016c-326.632 0.012-334.712 0.2-347.444 7.964-37.736 23.008-37.736 73.032 0 96.040 12.732 7.764 20.916 7.952 351.036 8.068 316.616 0.116 339.012 0.576 354 7.316l16 7.192 1.14-41.688c0.944-34.636-0.108-43.824-6.216-54.288" />
<glyph unicode="&#xf616;" glyph-name="book-bookmark-2" d="M864 144h-624c-8.848 0-16-7.168-16-16s7.152-16 16-16h624v32zM912 1008h-112v-320c0-5.824-3.152-11.168-8.256-14-2.4-1.328-5.072-2-7.744-2-2.96 0-5.888 0.816-8.48 2.432l-119.52 74.704-119.52-74.704c-4.944-3.088-11.168-3.248-16.24-0.416-5.088 2.816-8.24 8.16-8.24 13.984v320h-304c-61.744 0-112-50.24-112-112v-768c0-61.76 50.256-112 112-112h704c8.848 0 16 7.168 16 16v960c0 8.832-7.152 16-16 16zM896 48h-688c-44.112 0-80 35.888-80 80s35.888 80 80 80h688v-160z" />
<glyph unicode="&#xf617;" glyph-name="book-bookmark-2-line" d="M172.252 999.232c-29.312-11.252-56.548-38.868-67.68-68.62-8.556-22.868-8.572-23.712-8.572-426.612s0.016-403.744 8.572-426.612c11.404-30.48 38.336-57.412 68.816-68.816 22.808-8.532 24.556-8.572 388.764-8.572 360.516 0 365.964 0.116 373.848 8 7.912 7.912 8 13.332 8 496s-0.088 488.088-8 496c-7.888 7.888-13.192 7.996-375 7.792-362.272-0.208-367.28-0.316-388.748-8.56M512 800c0-154.668 0.268-160.268 8-168 4.4-4.4 11.22-8 15.156-8 3.94 0 34.54 17.096 68 37.992l60.844 37.996 60.844-37.996c33.46-20.896 64.060-37.992 68-37.992 3.936 0 10.756 3.6 15.156 8 7.732 7.732 8 13.332 8 168v160h80v-720h-624v312c0 306.668-0.136 312.136-8 320-4.4 4.4-11.6 8-16 8s-11.6-3.6-16-8c-7.864-7.864-8-13.332-8-319.492v-311.492l-19.804-1.9c-10.896-1.048-28.896-6.4-40-11.9l-20.196-9.992v341.516c0 298.284 0.78 343.38 6.152 356.244 8.288 19.832 16.816 28.752 35.848 37.492 14.64 6.724 29.176 7.356 171 7.436l155 0.088v-160M768 825.672v-134.324l-15 9.192c-8.248 5.056-30.204 18.7-48.788 30.324s-36.68 21.136-40.212 21.136c-3.532 0-21.628-9.512-40.212-21.136s-40.536-25.268-48.788-30.324l-15-9.192v268.652h208v-134.328M896 168v-24h-328c-322.668 0-328.132-0.132-336-8-4.4-4.4-8-11.6-8-16s3.6-11.6 8-16c7.868-7.868 13.332-8 336-8h328v-48h-694.304l-17.816 9c-52.492 26.516-52.492 99.484 0 126l17.816 9h694.304v-24" />
<glyph unicode="&#xf618;" glyph-name="book-open" d="M976 896v-640h-48c-116.624 0-281.2-24.848-400-123.792-118.080 98.32-282.448 123.792-400 123.792h-48v640h-32c-17.68 0-32-14.32-32-32v-768c0-17.68 14.32-32 32-32h928c17.68 0 32 14.32 32 32v768c0 17.68-14.32 32-32 32zM512 866.88c-86.672 53.84-262.288 93.12-384 93.12h-16v-672h16c110.56 0 282.336-28.8 384-101.968v680.848zM928 960c-122.656 0-297.824-39.616-384-93.12v-680.848c100.384 72.16 271.232 101.968 384 101.968h16v672h-16z" />
<glyph unicode="&#xf619;" glyph-name="book-open-line" d="M120.588 968.588c-7.64-7.64-8.588-13.012-8.588-48.588v-40h-40c-63.112 0-56 51.804-56-408 0-386.668 0.108-392.108 8-400 7.912-7.912 13.332-8 496-8s488.088 0.088 496 8c7.892 7.892 8 13.332 8 400 0 459.804 7.112 408-56 408h-40v40c0 35.576-0.948 40.948-8.588 48.588-8.176 8.176-10.984 8.46-59 6-130.736-6.704-234.352-37.604-331.412-98.836-7.772-4.904-10.228-4.904-18 0-97.060 61.232-200.676 92.132-331.412 98.836-48.016 2.46-50.824 2.176-59-6M263.244 917.544c73.644-10.616 152.756-38.596 207.756-73.484l25-15.856v-214.104c0-208.768 0.2-214.3 8-222.1 10.184-10.184 21.816-10.184 32 0 7.8 7.8 8 13.332 8 222.1v214.104l25 15.856c71.508 45.36 161.332 71.716 280 82.152l31 2.728v-607.716l-50.572-4.652c-112.752-10.372-202.864-37.876-282.912-86.352-12.916-7.82-24.848-14.22-26.516-14.22s-13.6 6.4-26.516 14.22c-80.048 48.476-170.16 75.98-282.912 86.352l-50.572 4.652v607.716l31-2.728c17.052-1.5 49.56-5.4 72.244-8.668M112 560c0-258.696 0.36-272.36 7.352-279.352 5.932-5.932 16.216-7.828 53.216-9.812 126.704-6.792 218.924-33.2 305.504-87.492 20.476-12.84 39.344-23.344 41.928-23.344s21.452 10.504 41.928 23.344c86.58 54.292 178.8 80.7 305.504 87.492 37 1.984 47.284 3.88 53.216 9.812 6.992 6.992 7.352 20.656 7.352 279.352v272h48v-720h-912v720h48v-272" />
<glyph unicode="&#xf61a;" glyph-name="book-open-2" d="M1001.6 972.8c-4.8 3.2-9.6 3.2-14.4 1.6l-475.2-156.8-475.2 156.8c-4.8 1.6-9.6 1.6-14.4-1.6-3.2-3.2-6.4-8-6.4-12.8v-736c0-6.4 4.8-12.8 11.2-14.4l480-160c1.6 0 3.2-1.6 4.8-1.6s3.2 0 4.8 1.6l480 160c6.4 1.6 11.2 8 11.2 14.4v736c0 4.8-3.2 9.6-6.4 12.8zM430.4 262.4c-1.6-6.4-8-11.2-14.4-11.2-1.6 0-3.2 0-4.8 1.6l-256 84.8c-8 3.2-12.8 11.2-9.6 20.8 3.2 8 11.2 12.8 20.8 9.6l256-84.8c6.4-4.8 11.2-12.8 8-20.8zM430.4 464c-1.6-6.4-8-11.2-14.4-11.2-1.6 0-3.2 0-4.8 1.6l-256 84.8c-8 3.2-12.8 11.2-9.6 20.8 3.2 8 11.2 12.8 20.8 9.6l256-84.8c6.4-3.2 11.2-12.8 8-20.8zM430.4 646.4c-1.6-6.4-8-11.2-14.4-11.2-1.6 0-3.2 0-4.8 1.6l-256 84.8c-8 3.2-12.8 11.2-9.6 20.8 3.2 8 11.2 12.8 20.8 9.6l256-84.8c6.4-4.8 11.2-12.8 8-20.8zM868.8 337.6l-256-84.8c-1.6 0-3.2-1.6-4.8-1.6-6.4 0-12.8 4.8-14.4 11.2-3.2 8 1.6 17.6 9.6 20.8l256 84.8c8 3.2 17.6-1.6 20.8-9.6 1.6-9.6-3.2-19.2-11.2-20.8zM868.8 539.2l-256-84.8c-1.6 0-3.2-1.6-4.8-1.6-6.4 0-12.8 4.8-14.4 11.2-3.2 8 1.6 17.6 9.6 20.8l256 84.8c8 3.2 17.6-1.6 20.8-9.6 1.6-8-3.2-17.6-11.2-20.8zM868.8 721.6l-256-84.8c-1.6 0-3.2-1.6-4.8-1.6-6.4 0-12.8 4.8-14.4 11.2-3.2 8 1.6 17.6 9.6 20.8l256 84.8c8 3.2 17.6-1.6 20.8-9.6 1.6-9.6-3.2-19.2-11.2-20.8z" />
<glyph unicode="&#xf61b;" glyph-name="book-open-2-line" d="M24 968c-7.888-7.888-8-13.332-8-385.772v-377.776l8.824-6.18c4.852-3.396 118.252-42.64 252-87.2l243.176-81.024 244.48 81.46c144.612 48.18 247.556 84.528 252 88.972 7.252 7.252 7.52 20.88 7.52 383.52 0 370.668-0.112 376.112-8 384-4.4 4.4-11.132 8-14.964 8-3.828 0-113.628-35.54-244-78.976l-237.036-78.972-237.036 78.972c-130.372 43.436-240.172 78.976-244 78.976-3.832 0-10.564-3.6-14.964-8M294.96 841.028l225.040-74.976 225.040 74.976c123.772 41.232 226.372 74.972 228 74.972s2.96-153.468 2.96-341.040v-341.040l-456-151.84-456 151.84v341.040c0 187.572 1.332 341.040 2.96 341.040s104.228-33.74 228-74.972M152 744c-10.112-10.112-10.2-21.8-0.232-31.768 9.204-9.204 264.3-93.364 277.3-91.484 12.86 1.86 21.756 19.876 16.024 32.452-3.976 8.728-20.86 15.388-137.812 54.372-73.304 24.436-136.432 44.428-140.28 44.428-3.852 0-10.6-3.6-15-8M730.72 707.256c-114.928-38.616-131.844-45.348-135.812-54.056-5.732-12.576 3.164-30.596 16.024-32.452 13-1.88 268.096 82.28 277.3 91.484 4.272 4.272 7.768 11.368 7.768 15.768 0 10.844-13.964 24.072-25 23.684-4.952-0.172-68.076-20.164-140.28-44.428M157.12 567.92c-11.728-4.72-15.728-21.344-7.984-33.164 4.776-7.288 33.828-18.548 140.668-54.512 145.276-48.904 150.64-49.804 156.528-26.352 5.568 22.192-0.66 25.388-142.836 73.284-73.424 24.732-134.396 44.824-135.496 44.644s-5.996-1.936-10.88-3.9M734.152 526.848c-115.86-39.408-132.572-46.136-137.812-55.476-7.472-13.316-1.216-29.996 12.544-33.448 13.14-3.3 270.824 83.876 280.116 94.76 12.588 14.748 6.172 32.984-13 36.944-6.504 1.344-56.096-13.612-141.848-42.78M152 360c-10.112-10.112-10.2-21.8-0.232-31.768 9.204-9.204 264.3-93.364 277.3-91.484 12.86 1.86 21.756 19.876 16.024 32.452-3.976 8.728-20.86 15.388-137.812 54.372-73.304 24.436-136.432 44.428-140.28 44.428-3.852 0-10.6-3.6-15-8M730.72 323.256c-114.928-38.616-131.844-45.348-135.812-54.056-5.732-12.576 3.164-30.596 16.024-32.452 13-1.88 268.096 82.28 277.3 91.484 4.272 4.272 7.768 11.368 7.768 15.768 0 10.844-13.964 24.072-25 23.684-4.952-0.172-68.076-20.164-140.28-44.428" />
<glyph unicode="&#xf61c;" glyph-name="bookmark-2" d="M800 1008h-576c-35.344 0-64-28.656-64-64v-880c0-5.696 3.024-10.976 7.968-13.84 4.928-2.864 11.008-2.896 15.968-0.048l328.064 187.456 328.064-187.456c2.448-1.408 5.2-2.112 7.936-2.112 2.784 0 5.552 0.72 8.032 2.16 4.944 2.864 7.968 8.144 7.968 13.84v880c0 35.344-28.656 64-64 64z" />
<glyph unicode="&#xf61d;" glyph-name="bookmark-2-line" d="M218.736 1002.256c-23.656-8.516-38.56-22.656-50.868-48.256-7.448-15.488-7.696-30.236-7.78-461-0.088-439.728 0.008-445.096 7.912-453 4.4-4.4 11.32-8 15.376-8 4.060 0 81.46 42.292 172 93.984l164.624 93.98 164.624-93.98c90.54-51.692 167.94-93.984 172-93.984 4.056 0 10.976 3.6 15.376 8 7.904 7.904 8 13.272 7.912 453-0.084 423.068-0.448 445.788-7.428 461-8.332 18.168-24.664 35.64-42.4 45.372-10.896 5.976-40.792 6.716-304.084 7.504-239.272 0.72-294.756-0.116-307.264-4.62M816.936 948.328l13.064-11.672 1.056-418.328c0.58-230.080 0.144-418.328-0.968-418.328s-69.824 38.7-152.688 86c-82.868 47.3-153.696 86-157.4 86s-74.532-38.7-157.4-86c-82.864-47.3-151.576-86-152.688-86s-1.548 188.248-0.968 418.328l1.056 418.328 26.128 23.344h567.744l13.064-11.672" />
<glyph unicode="&#xf61e;" glyph-name="books2" d="M288 336v608c0 8.848-7.168 16-16 16h-224c-8.832 0-16-7.152-16-16v-608h256zM144 768c0 8.848 7.168 16 16 16s16-7.152 16-16v-192c0-8.848-7.168-16-16-16s-16 7.152-16 16v192zM32 304v-256c0-8.848 7.168-16 16-16h224c8.832 0 16 7.152 16 16v256h-256zM592 336v608c0 8.848-7.168 16-16 16h-224c-8.832 0-16-7.152-16-16v-608h256zM448 768c0 8.848 7.168 16 16 16s16-7.152 16-16v-192c0-8.848-7.168-16-16-16s-16 7.152-16 16v192zM336 304v-256c0-8.848 7.168-16 16-16h224c8.832 0 16 7.152 16 16v256h-256zM927.056 376.32l-115.408 596.944c-0.8 4.176-3.232 7.84-6.752 10.224s-7.856 3.296-12 2.448l-219.936-42.528c-8.672-1.664-14.336-10.064-12.672-18.736l115.424-596.96 251.344 48.608zM716.336 791.872c8.624 1.76 17.056-3.984 18.752-12.672l36.448-188.512c1.664-8.672-4-17.056-12.672-18.736-1.024-0.208-2.048-0.304-3.056-0.304-7.52 0-14.208 5.312-15.696 12.976l-36.448 188.512c-1.664 8.672 4 17.072 12.672 18.736zM681.776 296.304l48.592-251.344c1.488-7.648 8.192-12.96 15.696-12.96 1.008 0 2.016 0.096 3.056 0.304l219.936 42.512c4.16 0.8 7.84 3.232 10.224 6.752s3.264 7.824 2.448 11.984l-48.592 251.36-251.36-48.608z" />
<glyph unicode="&#xf61f;" glyph-name="books-line" d="M684 969.568c-98.896-20.364-106.712-21.416-116.616-15.696-9.244 5.336-44.612 6.128-273 6.128-257.052 0-262.548-0.164-270.384-8-7.908-7.908-8-13.332-8-464s0.092-456.092 8-464c7.84-7.84 13.332-8 272-8s264.16 0.16 272 8c7.86 7.86 8.008 13.604 8.396 325l0.392 317 35.56-176c19.556-96.8 48.5-240.516 64.316-319.372 26.1-130.136 29.628-143.944 38.204-149.564 8.776-5.748 18.828-4.312 141.768 20.284 72.78 14.56 134.812 28.532 137.844 31.052 3.036 2.52 5.52 11.108 5.524 19.088 0.004 19.652-170.716 875.896-177.152 888.512-3.816 7.48-8.6 10.176-18.976 10.696-7.632 0.384-61.576-9.124-119.876-21.128M785.496 933c8.968-30.836 110.372-554.648 107.812-556.924-3.956-3.508-197.596-41.12-199.896-38.824-1.976 1.98-112.856 560.344-111.564 561.808 1.020 1.152 189.168 39.9 196.884 40.544 2.6 0.216 5.644-2.756 6.764-6.604M272 624v-288h-208v576h208v-288M528 624v-288h-208v576h208v-288M696 788c-4.4-4.4-8-11.396-8-15.548s8.892-51.344 19.76-104.876c20.548-101.22 23.056-107.576 42.384-107.576 11.108 0 21.856 11.956 21.86 24.316 0 5.324-8.428 51.86-18.732 103.412-19.32 96.68-23.74 108.272-41.272 108.272-4.4 0-11.6-3.6-16-8M152 776c-7.588-7.588-8-13.332-8-112s0.412-104.412 8-112c4.4-4.4 11.6-8 16-8s11.6 3.6 16 8c7.588 7.588 8 13.332 8 112s-0.412 104.412-8 112c-4.4 4.4-11.6 8-16 8s-11.6-3.6-16-8M408 776c-7.588-7.588-8-13.332-8-112s0.412-104.412 8-112c4.4-4.4 11.6-8 16-8s11.6 3.6 16 8c7.588 7.588 8 13.332 8 112s-0.412 104.412-8 112c-4.4 4.4-11.6 8-16 8s-11.6-3.6-16-8M927.892 219.808c11.58-59.508 20.392-108.832 19.58-109.608-3.296-3.16-199.8-40.908-201.184-38.648-3.464 5.652-43.296 212.772-41.304 214.768 1.844 1.84 184.356 39.976 197.432 41.248 2.668 0.26 12.76-42.424 25.476-107.76M272 176v-112h-208v224h208v-112M528 176v-112h-208v224h208v-112" />
<glyph unicode="&#xf620;" glyph-name="books-46" d="M624 928h-592c-9.6 0-16-6.4-16-16v-224c0-9.6 6.4-16 16-16h592v256zM320 784h-160c-9.6 0-16 6.4-16 16s6.4 16 16 16h160c9.6 0 16-6.4 16-16s-6.4-16-16-16zM464 784h-48c-9.6 0-16 6.4-16 16s6.4 16 16 16h48c9.6 0 16-6.4 16-16s-6.4-16-16-16zM832 928h-176v-256h176c9.6 0 16 6.4 16 16v224c0 9.6-6.4 16-16 16zM784 640h-592c-9.6 0-16-6.4-16-16v-224c0-9.6 6.4-16 16-16h592v256zM480 496h-160c-9.6 0-16 6.4-16 16s6.4 16 16 16h160c9.6 0 16-6.4 16-16s-6.4-16-16-16zM624 496h-48c-9.6 0-16 6.4-16 16s6.4 16 16 16h48c9.6 0 16-6.4 16-16s-6.4-16-16-16zM992 640h-176v-256h176c9.6 0 16 6.4 16 16v224c0 9.6-6.4 16-16 16zM624 352h-592c-9.6 0-16-6.4-16-16v-224c0-9.6 6.4-16 16-16h592v256zM320 208h-160c-9.6 0-16 6.4-16 16s6.4 16 16 16h160c9.6 0 16-6.4 16-16s-6.4-16-16-16zM464 208h-48c-9.6 0-16 6.4-16 16s6.4 16 16 16h48c9.6 0 16-6.4 16-16s-6.4-16-16-16zM832 352h-176v-256h176c9.6 0 16 6.4 16 16v224c0 9.6-6.4 16-16 16z" />
<glyph unicode="&#xf621;" glyph-name="books-46-line" d="M24 904c-7.688-7.688-8-13.332-8-144s0.312-136.312 8-144c7.408-7.408 13.332-8 80-8h72v-208h-72c-66.668 0-72.592-0.592-80-8-7.688-7.688-8-13.332-8-144s0.312-136.312 8-144c7.896-7.896 13.332-8 416-8s408.104 0.104 416 8c7.644 7.644 8 13.332 8 128v120h72c66.668 0 72.592 0.592 80 8 7.688 7.688 8 13.332 8 144s-0.312 136.312-8 144c-7.408 7.408-13.332 8-80 8h-72v120c0 114.668-0.356 120.356-8 128-7.896 7.896-13.332 8-416 8s-408.104-0.104-416-8M624 760v-104h-560v208h560v-104M816 760v-104h-144v208h144v-104M152 776c-4.4-4.4-8-11.6-8-16s3.6-11.6 8-16c7.516-7.516 13.332-8 96-8s88.484 0.484 96 8c4.4 4.4 8 11.6 8 16s-3.6 11.6-8 16c-7.516 7.516-13.332 8-96 8s-88.484-0.484-96-8M408 776c-4.4-4.4-8-11.6-8-16s3.6-11.6 8-16c6.668-6.668 13.332-8 40-8s33.332 1.332 40 8c4.4 4.4 8 11.6 8 16s-3.6 11.6-8 16c-6.668 6.668-13.332 8-40 8s-33.332-1.332-40-8M784 504v-104h-560v208h560v-104M976 504v-104h-144v208h144v-104M312 520c-4.4-4.4-8-11.6-8-16s3.6-11.6 8-16c7.516-7.516 13.332-8 96-8s88.484 0.484 96 8c4.4 4.4 8 11.6 8 16s-3.6 11.6-8 16c-7.516 7.516-13.332 8-96 8s-88.484-0.484-96-8M568 520c-4.4-4.4-8-11.6-8-16s3.6-11.6 8-16c6.668-6.668 13.332-8 40-8s33.332 1.332 40 8c4.4 4.4 8 11.6 8 16s-3.6 11.6-8 16c-6.668 6.668-13.332 8-40 8s-33.332-1.332-40-8M624 248v-104h-560v208h560v-104M816 248v-104h-144v208h144v-104M152 264c-4.4-4.4-8-11.6-8-16s3.6-11.6 8-16c7.516-7.516 13.332-8 96-8s88.484 0.484 96 8c4.4 4.4 8 11.6 8 16s-3.6 11.6-8 16c-7.516 7.516-13.332 8-96 8s-88.484-0.484-96-8M408 264c-4.4-4.4-8-11.6-8-16s3.6-11.6 8-16c6.668-6.668 13.332-8 40-8s33.332 1.332 40 8c4.4 4.4 8 11.6 8 16s-3.6 11.6-8 16c-6.668 6.668-13.332 8-40 8s-33.332-1.332-40-8" />
<glyph unicode="&#xf622;" glyph-name="brush" d="M952.576 952.576c-31.248 31.248-81.888 31.248-113.136 0l-557.92-490.512c45.68-5.872 87.968-26.336 121.088-59.44s53.568-75.392 59.44-121.088l490.512 557.904c31.248 31.232 31.248 81.888 0.016 113.136zM379.984 379.984c-33.536 33.536-78.128 52.016-125.568 52.016s-92.032-18.48-125.568-52.016c-66.672-66.656-80.288-305.008-80.832-315.12-0.24-4.544 1.456-8.976 4.672-12.176 3.008-3.008 7.072-4.688 11.312-4.688 0.288 0 0.576 0 0.864 0.016 10.112 0.544 248.464 14.16 315.12 80.832 33.536 33.536 52.016 78.144 52.016 125.568s-18.48 92.032-52.016 125.568z" />
<glyph unicode="&#xf623;" glyph-name="brush-line" d="M874.976 970.528c-18.392-6.856 4.416 11.804-331.204-270.968l-278.26-234.44-25.364-4.468c-58.164-10.244-109.472-47.672-135.1-98.548-23.764-47.18-43.456-138.744-52.924-246.104-5.544-62.9-5.324-66.8 4.388-76.512 7.924-7.924 11.164-8.324 47-5.84 130.32 9.040 235.972 31.292 286.488 60.332 40.964 23.552 76.2 76.084 86.052 128.304l5.184 27.464 247.788 294.112c136.284 161.76 250.4 299.16 253.596 305.34 21.060 40.724 2.464 95.556-39.828 117.424-16.712 8.644-49.964 10.556-67.816 3.904M927.556 917.76c15.992-13.456 19.996-33.428 9.876-49.272-4.088-6.404-109.884-133.24-235.1-281.864l-227.668-270.224-15.004 30.832c-20.24 41.596-54.816 76.18-96.384 96.408l-30.784 14.98 270.26 227.688c148.64 125.232 274.98 230.832 280.752 234.664 14.776 9.82 29.876 8.716 44.052-3.212M312.588 410.56c78.584-18.5 130.5-97.892 115.884-177.216-9.272-50.324-36.052-86.324-78.472-105.488-41.704-18.84-140.96-37.924-233-44.796l-17-1.272v20.272c0 51.788 22.172 175.908 39.748 222.528 25.248 66.952 98.608 103.444 172.84 85.972" />
<glyph unicode="&#xf624;" glyph-name="bus" d="M320 288c0-53.019-42.981-96-96-96s-96 42.981-96 96c0 53.019 42.981 96 96 96s96-42.981 96-96zM928 832h-832c-44.112 0-80-35.888-80-80v-448c0-8.848 7.168-16 16-16h64c0 70.688 57.312 128 128 128s128-57.312 128-128h320c0 70.688 57.312 128 128 128s128-57.312 128-128h64c8.832 0 16 7.152 16 16v448c0 44.112-35.888 80-80 80zM256 576h-208v176c0 26.464 21.536 48 48 48h160v-224zM496 576h-208v224h208v-224zM736 576h-208v224h208v-224zM976 576h-208v224h160c26.464 0 48-21.536 48-48v-176zM896 288c0-53.019-42.981-96-96-96s-96 42.981-96 96c0 53.019 42.981 96 96 96s96-42.981 96-96z" />
<glyph unicode="&#xf625;" glyph-name="bus-line" d="M74.736 826.24c-23.64-8.488-38.556-22.632-50.868-48.24-7.32-15.224-7.696-27.468-7.78-253-0.104-281.22-6.46-253 56.972-253h41.064l7.088-19.96c14.824-41.736 64.8-76.040 110.788-76.040s95.964 34.304 110.788 76.040l7.088 19.96h340.248l7.088-19.96c14.824-41.736 64.8-76.040 110.788-76.040s95.964 34.304 110.788 76.040l7.088 19.96h41.064c63.432 0 57.076-28.22 56.972 253-0.080 221.304-0.572 238.060-7.428 253-8.332 18.168-24.664 35.64-42.4 45.372-11.016 6.040-50.688 6.704-448.084 7.488-360.716 0.712-438.636-0.084-451.264-4.62M256 680v-104h-192.42l1.212 92.336 1.208 92.336 26.128 23.328h163.872v-104M496 680v-104h-192v208h192v-104M736 680v-104h-192v208h192v-104M960.936 772.336l13.064-11.664 1.208-92.336 1.212-92.336h-192.42v208h163.872l13.064-11.664M976 424v-104h-50.124l-6.992 19.688c-8.688 24.464-36.636 53.94-62.004 65.392-26.148 11.808-71.572 11.824-97.664 0.044-26.256-11.856-53.016-39.856-61.84-64.704l-7.252-20.42h-340.248l-6.992 19.688c-8.688 24.464-36.636 53.94-62.004 65.392-26.192 11.828-71.568 11.828-97.76 0-25.368-11.452-53.316-40.928-62.004-65.392l-6.992-19.688h-50.124v208h912v-104M264.12 359c52.492-26.516 52.492-99.484 0-126-9.8-4.952-24.252-9-32.12-9s-22.32 4.048-32.12 9c-52.492 26.516-52.492 99.484 0 126 9.8 4.952 24.252 9 32.12 9s22.32-4.048 32.12-9M840.12 359c52.492-26.516 52.492-99.484 0-126-9.8-4.952-24.252-9-32.12-9s-22.32 4.048-32.12 9c-52.492 26.516-52.492 99.484 0 126 9.8 4.952 24.252 9 32.12 9s22.32-4.048 32.12-9" />
<glyph unicode="&#xf626;" glyph-name="bus-front-12" d="M832 1008h-640c-44.112 0-80-35.888-80-80v-800c0-8.832 7.152-16 16-16h768c8.848 0 16 7.168 16 16v800c0 44.112-35.888 80-80 80zM448 944h128c8.848 0 16-7.168 16-16s-7.152-16-16-16h-128c-8.848 0-16 7.168-16 16s7.152 16 16 16zM240 208c-35.296 0-64 28.704-64 64s28.704 64 64 64 64-28.704 64-64-28.704-64-64-64zM784 208c-35.296 0-64 28.704-64 64s28.704 64 64 64 64-28.704 64-64-28.704-64-64-64zM880 448c0-8.832-7.168-16-16-16h-313.376l132.688 132.688c6.256 6.256 6.256 16.368 0 22.624s-16.368 6.256-22.624 0l-155.312-155.312h-345.376c-8.832 0-16 7.168-16 16v384c0 8.832 7.168 16 16 16h704c8.832 0 16-7.168 16-16v-384zM144 80v-48c0-8.832 7.168-16 16-16h160c8.832 0 16 7.168 16 16v48h-192zM688 80v-48c0-8.832 7.168-16 16-16h160c8.832 0 16 7.168 16 16v48h-192zM80 432h-16c-26.512 0-48 21.488-48 48v96c0 8.832 7.168 16 16 16h48v-160zM944 432h16c26.512 0 48 21.488 48 48v96c0 8.832-7.168 16-16 16h-48v-160z" />
<glyph unicode="&#xf627;" glyph-name="bus-front-12-line" d="M154.736 1002.248c-23.648-8.5-38.556-22.644-50.868-48.248-7.436-15.464-7.696-29.808-7.78-429-0.088-407.728 0.016-413.104 7.912-421 6.224-6.224 13.332-8 32-8h24v-40c0-58.8-5.2-56 104-56s104-2.8 104 56v40h304v-40c0-58.8-5.2-56 104-56s104-2.8 104 56v40h24c18.668 0 25.776 1.776 32 8 7.896 7.896 8 13.272 7.912 421-0.084 392.028-0.46 413.812-7.428 429-8.332 18.168-24.664 35.64-42.4 45.372-10.96 6.012-45.188 6.708-368.084 7.496-293.244 0.716-358.692-0.1-371.264-4.62M880.936 948.34l13.064-11.664 1.288-60.336 1.288-60.34h-753.152l1.288 60.34 1.288 60.336 26.128 23.324h695.744l13.064-11.66M440 904c-4.4-4.4-8-11.6-8-16s3.6-11.6 8-16c7.408-7.408 13.332-8 80-8s72.592 0.592 80 8c4.4 4.4 8 11.6 8 16s-3.6 11.6-8 16c-7.408 7.408-13.332 8-80 8s-72.592-0.592-80-8M896 600v-168h-317.676l62.84 63.284c65.78 66.244 70.184 73.368 54.836 88.716-15.792 15.792-21.908 11.628-105.904-72l-80.344-80h-365.752v336h752v-168M24 600c-7.408-7.408-8-13.332-8-80s0.592-72.592 8-80c4.4-4.4 11.6-8 16-8s11.6 3.6 16 8c7.408 7.408 8 13.332 8 80s-0.592 72.592-8 80c-4.4 4.4-11.6 8-16 8s-11.6-3.6-16-8M984 600c-7.408-7.408-8-13.332-8-80s0.592-72.592 8-80c4.4-4.4 11.6-8 16-8s11.6 3.6 16 8c7.408 7.408 8 13.332 8 80s-0.592 72.592-8 80c-4.4 4.4-11.6 8-16 8s-11.6-3.6-16-8M896 264v-120h-752v240h752v-120M231.88 327c-52.492-26.516-52.492-99.484 0-126 9.8-4.952 24.252-9 32.12-9s22.32 4.048 32.12 9c52.492 26.516 52.492 99.484 0 126-9.8 4.952-24.252 9-32.12 9s-22.32-4.048-32.12-9M743.88 327c-52.492-26.516-52.492-99.484 0-126 9.8-4.952 24.252-9 32.12-9s22.32 4.048 32.12 9c52.492 26.516 52.492 99.484 0 126-9.8 4.952-24.252 9-32.12 9s-22.32-4.048-32.12-9M280 280c4.4-4.4 8-11.6 8-16s-3.6-11.6-8-16c-4.4-4.4-11.6-8-16-8s-11.6 3.6-16 8c-4.4 4.4-8 11.6-8 16s3.6 11.6 8 16c4.4 4.4 11.6 8 16 8s11.6-3.6 16-8M792 280c4.4-4.4 8-11.6 8-16s-3.6-11.6-8-16c-4.4-4.4-11.6-8-16-8s-11.6 3.6-16 8c-4.4 4.4-8 11.6-8 16s3.6 11.6 8 16c4.4 4.4 11.6 8 16 8s11.6-3.6 16-8M320 72v-24h-112v48h112v-24M832 72v-24h-112v48h112v-24" />
<glyph unicode="&#xf628;" glyph-name="calculator" d="M880 1008h-736c-35.344 0-64-28.656-64-64v-864c0-35.344 28.656-64 64-64h736c35.344 0 64 28.656 64 64v864c0 35.344-28.656 64-64 64zM336 160c0-8.832-7.152-16-16-16h-96c-8.848 0-16 7.168-16 16v80c0 8.832 7.152 16 16 16h96c8.848 0 16-7.168 16-16v-80zM336 352c0-8.832-7.152-16-16-16h-96c-8.848 0-16 7.168-16 16v80c0 8.832 7.152 16 16 16h96c8.848 0 16-7.168 16-16v-80zM336 544c0-8.832-7.152-16-16-16h-96c-8.848 0-16 7.168-16 16v80c0 8.832 7.152 16 16 16h96c8.848 0 16-7.168 16-16v-80zM576 160c0-8.832-7.152-16-16-16h-96c-8.848 0-16 7.168-16 16v80c0 8.832 7.152 16 16 16h96c8.848 0 16-7.168 16-16v-80zM576 352c0-8.832-7.152-16-16-16h-96c-8.848 0-16 7.168-16 16v80c0 8.832 7.152 16 16 16h96c8.848 0 16-7.168 16-16v-80zM576 544c0-8.832-7.152-16-16-16h-96c-8.848 0-16 7.168-16 16v80c0 8.832 7.152 16 16 16h96c8.848 0 16-7.168 16-16v-80zM816 160c0-8.832-7.152-16-16-16h-96c-8.848 0-16 7.168-16 16v272c0 8.832 7.152 16 16 16h96c8.848 0 16-7.168 16-16v-272zM816 544c0-8.832-7.152-16-16-16h-96c-8.848 0-16 7.168-16 16v80c0 8.832 7.152 16 16 16h96c8.848 0 16-7.168 16-16v-80zM816 736c0-8.832-7.152-16-16-16h-576c-8.848 0-16 7.168-16 16v128c0 8.832 7.152 16 16 16h576c8.848 0 16-7.168 16-16v-128z" />
<glyph unicode="&#xf629;" glyph-name="calculator-line" d="M138.736 1002.248c-23.644-8.5-38.556-22.64-50.868-48.248-7.444-15.484-7.692-29.992-7.692-450 0-411.796 0.372-434.82 7.308-450 4.020-8.8 13.24-21.768 20.488-28.82 26.836-26.104 11.716-25.18 412.028-25.18 408.472 0 386.46-1.584 415.46 29.876 8.764 9.508 17.86 24.224 20.216 32.704 2.92 10.524 4.26 151.992 4.212 445.42-0.060 408.548-0.428 430.8-7.404 446-8.332 18.168-24.664 35.64-42.4 45.372-10.972 6.020-46.288 6.708-384.084 7.496-306.74 0.712-374.676-0.096-387.264-4.62M896.936 948.328l13.064-11.672 1.052-430.204 1.056-430.208-23.452-26.244h-737.312l-23.452 26.244 1.056 430.208 1.052 430.204 26.128 23.344h727.744l13.064-11.672M216 872c-7.408-7.408-8-13.332-8-80s0.592-72.592 8-80c7.856-7.856 13.332-8 304-8s296.144 0.144 304 8c7.408 7.408 8 13.332 8 80s-0.592 72.592-8 80c-7.856 7.856-13.332 8-304 8s-296.144-0.144-304-8M784 792v-40h-528v80h528v-40M216 648c-7.24-7.24-8-13.332-8-64 0-76.332-5.296-72 88-72s88-4.332 88 72c0 76.332 5.296 72-88 72-66.668 0-72.592-0.592-80-8M440 648c-7.24-7.24-8-13.332-8-64 0-76.332-5.296-72 88-72s88-4.332 88 72c0 76.332 5.296 72-88 72-66.668 0-72.592-0.592-80-8M664 648c-7.24-7.24-8-13.332-8-64 0-76.332-5.296-72 88-72s88-4.332 88 72c0 76.332 5.296 72-88 72-66.668 0-72.592-0.592-80-8M336 584v-24h-80v48h80v-24M560 584v-24h-80v48h80v-24M784 584v-24h-80v48h80v-24M216 456c-7.24-7.24-8-13.332-8-64 0-76.332-5.296-72 88-72s88-4.332 88 72c0 76.332 5.296 72-88 72-66.668 0-72.592-0.592-80-8M440 456c-7.24-7.24-8-13.332-8-64 0-76.332-5.296-72 88-72s88-4.332 88 72c0 76.332 5.296 72-88 72-66.668 0-72.592-0.592-80-8M664 456c-7.72-7.72-8-13.332-8-160s0.28-152.28 8-160c7.408-7.408 13.332-8 80-8s72.592 0.592 80 8c7.72 7.72 8 13.332 8 160s-0.28 152.28-8 160c-7.408 7.408-13.332 8-80 8s-72.592-0.592-80-8M336 392v-24h-80v48h80v-24M560 392v-24h-80v48h80v-24M784 296v-120h-80v240h80v-120M216 264c-7.24-7.24-8-13.332-8-64 0-76.332-5.296-72 88-72s88-4.332 88 72c0 76.332 5.296 72-88 72-66.668 0-72.592-0.592-80-8M440 264c-7.24-7.24-8-13.332-8-64 0-76.332-5.296-72 88-72s88-4.332 88 72c0 76.332 5.296 72-88 72-66.668 0-72.592-0.592-80-8M336 200v-24h-80v48h80v-24M560 200v-24h-80v48h80v-24" />
<glyph unicode="&#xf62a;" glyph-name="certificate" d="M576 624c0 8.848-7.168 16-16 16h-352c-8.832 0-16-7.152-16-16s7.168-16 16-16h352c8.832 0 16 7.152 16 16zM464 512h-256c-8.832 0-16-7.152-16-16s7.168-16 16-16h256c8.832 0 16 7.152 16 16s-7.168 16-16 16zM464 384h-256c-8.832 0-16-7.152-16-16s7.168-16 16-16h256c8.832 0 16 7.152 16 16s-7.168 16-16 16zM672 229.328v-197.328c0-5.696 3.024-10.976 7.968-13.84s11.024-2.896 15.968-0.048l104.064 59.456 104.064-59.456c2.448-1.408 5.2-2.112 7.936-2.112 2.784 0 5.552 0.72 8.032 2.16 4.944 2.864 7.968 8.144 7.968 13.84v197.328c-37.104-23.504-80.912-37.328-128-37.328s-90.896 13.824-128 37.328zM80 784h784v-120.928c22.896-6.352 44.384-15.984 64-28.416v197.344c0 8.832-7.168 16-16 16h-880c-8.832 0-16-7.168-16-16v-672c0-8.832 7.168-16 16-16h608v64h-560v576zM800 640c-114.688 0-208-93.312-208-208s93.312-208 208-208 208 93.312 208 208-93.312 208-208 208zM464 972.944l143.632-92.944h58.928l-193.872 125.44c-5.296 3.408-12.096 3.408-17.392 0l-193.856-125.44h58.928l143.632 92.944z" />
<glyph unicode="&#xf62b;" glyph-name="certificate-line" d="M329.636 920.26l-136.364-88.26h-80.636c-75.304 0-81.164-0.528-88.636-8-7.868-7.868-8-13.332-8-336s0.132-328.132 8-336c7.852-7.852 13.332-8 296-8s288.148 0.148 296 8c10.184 10.184 10.184 21.816 0 32-7.844 7.844-13.332 8-280 8h-272v592h816v-40c0-34.668 1.068-41.068 8-48 10.184-10.184 21.816-10.184 32 0 7.24 7.24 8 13.332 8 64 0 76.952 6.652 72-96.668 72h-80.668l-133.796 86.644c-73.584 47.652-137.632 87.372-142.328 88.26-5.976 1.132-49.508-24.896-144.904-86.644M567.4 894l92.572-60-93.984-1.072c-51.696-0.592-136.256-0.592-187.916 0l-93.928 1.072 92.928 60.656c51.112 33.36 94.016 60.36 95.344 60s44.072-27.656 94.984-60.656M120 728c-7.816-7.816-8-13.332-8-240s0.184-232.184 8-240c7.804-7.804 13.332-8 224-8s216.196 0.196 224 8c4.4 4.4 8 11.6 8 16s-3.6 11.6-8 16c-7.788 7.788-13.332 8-208 8h-200v400h328c322.668 0 328.132 0.132 336 8 10.184 10.184 10.184 21.816 0 32-7.876 7.876-13.332 8-352 8s-344.124-0.124-352-8M762 635.32c-58.18-11.016-119.764-59.292-147.488-115.616-39.372-79.996-25.532-175.22 35.228-242.364l22.26-24.6v-110.368c0-105.040 0.388-110.76 8-118.372 4.4-4.4 11.212-8 15.14-8s30.928 13.484 60 29.96l52.86 29.96 52.86-29.96c29.072-16.476 56.072-29.96 60-29.96s10.74 3.6 15.14 8c7.612 7.612 8 13.332 8 118.372v110.368l22.312 24.632c78.736 86.904 76.056 216.536-6.176 298.764-52.316 52.32-122.948 73.416-198.136 59.184M850.16 585.792c124.804-32.5 167.036-188.424 75.752-279.704-65.556-65.56-170.268-65.56-235.824 0-64.168 64.164-65.84 168.46-3.724 232.232 45.112 46.316 103.384 63.204 163.796 47.472M248 568c-4.4-4.4-8-11.6-8-16s3.6-11.6 8-16c7.668-7.668 13.332-8 136-8s128.332 0.332 136 8c4.4 4.4 8 11.6 8 16s-3.6 11.6-8 16c-7.668 7.668-13.332 8-136 8s-128.332-0.332-136-8M248 440c-4.4-4.4-8-11.6-8-16s3.6-11.6 8-16c7.556-7.556 13.332-8 104-8s96.444 0.444 104 8c4.4 4.4 8 11.6 8 16s-3.6 11.6-8 16c-7.556 7.556-13.332 8-104 8s-96.444-0.444-104-8M760 213.728c41.248-8.868 81.028-6.252 127 8.348l9 2.856v-70.464c0-38.76-1.080-70.468-2.4-70.468s-19.884 9.9-41.256 22c-21.368 12.1-41.324 22-44.344 22s-22.976-9.9-44.344-22c-21.372-12.1-39.936-22-41.256-22s-2.4 31.692-2.4 70.428c0 65.464 0.492 70.232 7 67.66 3.852-1.524 18.7-5.288 33-8.36" />
<glyph unicode="&#xf62c;" glyph-name="chalkboard" d="M729.104 813.152l-157.248 108.864c2.544 6.88 4.144 14.224 4.144 21.984 0 35.296-28.704 64-64 64s-64-28.704-64-64c0-7.76 1.6-15.104 4.128-21.984l-157.248-108.864 18.224-26.32 157.312 108.912c11.216-9.68 25.648-15.744 41.584-15.744 15.952 0 30.368 6.064 41.584 15.744l157.312-108.912 18.208 26.32zM816 336h-256c-8.832 0-16-7.168-16-16v-112c0-8.832 7.168-16 16-16h256c8.832 0 16 7.168 16 16v112c0 8.832-7.168 16-16 16zM144 166.624v498.752l-128 128v-754.752zM38.624 816l128-128h690.752l128 128zM880 665.376v-498.752l128-128v754.752zM857.376 144h-690.752l-128-128h946.752z" />
<glyph unicode="&#xf62d;" glyph-name="chalkboard-line" d="M490 1000.476c-8.8-4.040-19.080-10.816-22.848-15.056-11.212-12.628-19.764-37.404-18.58-53.82l1.112-15.372-145.456-100.228h-137.492c-128.124 0-137.948-0.5-144.116-7.316-6.064-6.7-6.62-40.312-6.62-401.38 0-376.684 0.324-394.356 7.316-400.684 6.72-6.084 46.98-6.62 497.38-6.62 469.688 0 490.34 0.304 496.684 7.316 6.064 6.7 6.62 40.312 6.62 401.38 0 376.684-0.324 394.356-7.316 400.684-6.504 5.888-22.432 6.62-144.112 6.62h-136.8l-145.456 100.228 1.112 15.372c1.184 16.416-7.368 41.192-18.58 53.82-9.84 11.080-36.548 22.404-52.848 22.404-7.7 0-21.2-3.304-30-7.348M536 952c4.4-4.4 8-11.6 8-16 0-10.304-13.696-24-24-24-4.4 0-11.6 3.6-16 8s-8 11.6-8 16c0 4.4 3.6 11.6 8 16s11.6 8 16 8c4.4 0 11.6-3.6 16-8M493.384 870c18.4-7.688 34.46-7.6 54.212 0.304l15.752 6.304 85.168-58.608-64.26-1.1c-35.34-0.604-93.168-0.604-128.508 0l-64.248 1.1 41.248 28.76c22.688 15.816 42.384 28.864 43.764 29 1.38 0.132 8.972-2.46 16.872-5.76M902 728l-39.848-40h-684.304l-79.696 80h843.696l-39.848-40M144 408v-246.152l-80-79.696v651.696l80-79.696v-246.152M976 407.076v-324.924l-80 79.696v492.008l38.924 39.072c21.408 21.488 39.408 39.072 40 39.072s1.076-146.216 1.076-324.924M848 408v-232h-64v48c0 69.94 14.104 64-152 64s-152 5.94-152-64v-48h-288v464h656v-232M736 208v-32h-208v64h208v-32M902 88l39.848-40h-843.696l79.696 80h684.304l39.848-40" />
<glyph unicode="&#xf62e;" glyph-name="cockade" d="M222.016 445.84l-140.464-294.96c-2.48-5.248-1.952-11.424 1.424-16.144 3.344-4.72 8.928-7.28 14.8-6.624l134 14.88 74.672-119.456c2.912-4.704 8.048-7.536 13.552-7.536 0.256 0 0.496 0 0.768 0.016 5.776 0.272 10.96 3.664 13.552 8.832l140.512 281.024c-102.48 10.32-192.592 62.928-252.816 139.968zM801.984 445.84l140.464-294.976c2.48-5.248 1.952-11.424-1.424-16.144-3.344-4.72-8.928-7.28-14.8-6.624l-134 14.88-74.672-119.456c-2.912-4.688-8.048-7.52-13.552-7.52-0.256 0-0.496 0-0.768 0.016-5.776 0.272-10.96 3.664-13.552 8.832l-140.512 281.024c102.48 10.32 192.592 62.928 252.816 139.968zM512 1008c-185.264 0-336-150.72-336-336s150.736-336 336-336 336 150.72 336 336-150.736 336-336 336zM683.072 695.552l-74.512-71.552 16.688-101.952c0.992-6.016-1.536-12.064-6.48-15.6-2.784-1.984-6.032-2.992-9.312-2.992-2.592 0-5.184 0.624-7.552 1.904l-91.072 48.768-91.792-47.376c-5.392-2.8-11.952-2.272-16.848 1.344-4.912 3.616-7.328 9.696-6.256 15.696l18.24 101.696-73.424 72.672c-4.336 4.288-5.856 10.656-3.92 16.432 1.92 5.776 6.96 9.968 12.992 10.784l102.336 14.064 46.416 92.304c2.736 5.456 8.032 9.2 14.416 8.816 6.096-0.048 11.632-3.552 14.288-9.024l45.008-92.992 102.128-15.632c6.016-0.912 11.008-5.184 12.832-10.992 1.84-5.808 0.224-12.16-4.176-16.368z" />
<glyph unicode="&#xf62f;" glyph-name="cockade-line" d="M469.26 1004.248c-133.908-21.384-239.804-114.616-279.7-246.248-9.724-32.084-10.912-42.308-10.912-94 0-51.756 1.176-61.872 10.936-93.956 9.752-32.064 26.044-67.2 48.5-104.584l7.532-12.536-67.196-140.64c-70.932-148.46-73.212-155.54-53.016-164.74 6.608-3.012 24.46-2.412 63.7 2.136 87.096 10.096 75.104 15.468 116.828-52.32 20.868-33.908 39.732-60.112 45-62.512 20.204-9.208 23.972-3.336 92.864 144.712 62.364 134.024 65.848 140.44 76.204 140.44s13.84-6.416 76.204-140.44c68.892-148.048 72.66-153.92 92.864-144.712 5.268 2.4 24.132 28.604 45 62.512 41.724 67.788 28.796 62.164 119.588 52.036l59.652-6.652 7.348 9.072c4.040 4.988 7.344 11.856 7.344 15.26 0 3.408-30.064 69.116-66.808 146.020l-66.808 139.828 7.532 12.536c22.456 37.384 38.748 72.52 48.5 104.584 9.76 32.084 10.936 42.2 10.936 93.956 0 51.692-1.188 61.916-10.912 94-44.304 146.168-167.288 242.54-316.44 247.964-24.2 0.88-53.332 0.108-64.74-1.716M610.040 946.192c129.212-43.068 212.924-164.976 204.66-298.044-2.824-45.492-10.592-76.34-28.744-114.148-34.976-72.86-110.424-134.808-190.5-156.412-35.216-9.504-115.968-9.428-151.456 0.14-100.156 27-183.44 110.136-210.772 210.4-10.84 39.772-9.772 116.212 2.224 158.56 23.92 84.472 94.736 161.272 178.804 193.916 40.384 15.68 64.14 19.236 117.784 17.624 36.612-1.1 52.584-3.568 78-12.036M508.288 836.264c-3.144-1.988-16.644-24.912-30-50.94l-24.288-47.324-51.568-6.892c-55.532-7.424-66.396-12.444-66.48-30.728-0.036-7.952 9.004-18.984 38.68-47.184l38.732-36.804-9.208-53.48c-7.28-42.296-8.236-55.288-4.564-62.148 9.172-17.144 21.040-15.256 71.2 11.316l46.996 24.896 46.536-24.488c25.596-13.468 50.116-24.488 54.488-24.488 11.768 0 21.22 12.784 20.94 28.316-0.136 7.524-3.44 31.684-7.336 53.684l-7.088 40 39.336 40.42c57.184 58.76 55.016 65.72-24.536 78.772l-53.696 8.808-21.576 44c-11.864 24.2-24.388 47.152-27.832 51-6.78 7.576-19.616 9.036-28.736 3.264M553.176 699.396c3.92-3.92 20.364-8.58 41.188-11.68l34.668-5.156-54.004-51.668 2.62-22.448c1.44-12.344 3.716-29.384 5.064-37.864l2.444-15.42-29.92 16.42c-16.456 9.032-33 16.42-36.764 16.42-3.768 0-20.536-7.512-37.268-16.696-29.424-16.148-30.344-16.376-28.048-7 1.308 5.332 4.452 21.776 6.992 36.54 4.312 25.064 4.048 27.644-3.96 38.892-4.72 6.628-16.636 18.652-26.484 26.72-9.848 8.072-17.14 15.444-16.2 16.384 0.94 0.936 14.936 3.512 31.104 5.716 16.164 2.208 33.44 6.624 38.388 9.816 4.944 3.192 15.548 18.816 23.564 34.716l14.568 28.912 12.764-28.040c7.020-15.424 15.696-30.98 19.284-34.564M356.384 362.42c27.668-15.18 79.524-34.42 92.784-34.42 5.436 0 7.208-2.1 5.912-7-3.872-14.612-96.952-212.316-99.284-210.876-1.344 0.832-14.836 21.608-29.976 46.172-15.144 24.56-31.32 46.38-35.948 48.488-5.592 2.552-25.744 1.836-60.14-2.128-28.452-3.28-52.024-5.672-52.384-5.312s22.804 49.568 51.476 109.348l52.132 108.692 24.524-19.24c13.484-10.584 36.392-25.76 50.904-33.724M844.508 236.692l19.392-41.304-10.952 2.1c-34.388 6.596-96.82 10.864-103.856 7.096-4.22-2.256-19.992-24.092-35.056-48.524s-28.488-45.104-29.832-45.936c-2.332-1.44-95.412 196.264-99.284 210.876-1.32 4.988 0.496 7 6.324 7 13.476 0 68.956 21.148 96.756 36.884 14.3 8.092 35.9 22.72 48 32.504l22 17.788 33.556-68.588c18.456-37.724 42.284-87.176 52.952-109.896" />
<glyph unicode="&#xf630;" glyph-name="collection" d="M880 1008h-768c-17.68 0-32-14.32-32-32v-928c0-17.68 14.32-32 32-32h768c17.68 0 32 14.32 32 32v928c0 17.68-14.32 32-32 32zM224 272c-26.464 0-48 21.536-48 48s21.536 48 48 48 48-21.536 48-48-21.536-48-48-48zM224 464c-26.464 0-48 21.536-48 48s21.536 48 48 48 48-21.536 48-48-21.536-48-48-48zM224 656c-26.464 0-48 21.536-48 48s21.536 48 48 48 48-21.536 48-48-21.536-48-48-48zM784 352c0-8.832-7.152-16-16-16h-352c-8.848 0-16 7.168-16 16v288c0 8.832 7.152 16 16 16h352c8.848 0 16-7.168 16-16v-288zM688 528h-192c-8.848 0-16 7.168-16 16s7.152 16 16 16h192c8.848 0 16-7.168 16-16s-7.152-16-16-16zM608 432h-112c-8.848 0-16 7.168-16 16s7.152 16 16 16h112c8.848 0 16-7.168 16-16s-7.152-16-16-16z" />
<glyph unicode="&#xf631;" glyph-name="collection-line" d="M88 1000c-7.912-7.912-8-13.332-8-496s0.088-488.088 8-496c7.896-7.896 13.332-8 416-8s408.104 0.104 416 8c7.912 7.912 8 13.332 8 496s-0.088 488.088-8 496c-7.896 7.896-13.332 8-416 8s-408.104-0.104-416-8M880 504v-456h-752v912h752v-456M204.964 744.020c-27.268-16.624-36.496-49.62-20.984-75.056 23.008-37.736 73.032-37.736 96.040 0 21.16 34.7-6.788 83.008-48.020 83.008-7.7 0-19.868-3.58-27.036-7.952M238.216 699.652c4.12-6.672-5.148-14.32-10.668-8.8-4.616 4.616-1.728 13.148 4.452 13.148 1.94 0 4.736-1.956 6.216-4.348M408 648c-7.72-7.72-8-13.332-8-160s0.28-152.28 8-160c7.768-7.768 13.332-8 192-8s184.232 0.232 192 8c7.72 7.72 8 13.332 8 160s-0.28 152.28-8 160c-7.768 7.768-13.332 8-192 8s-184.232-0.232-192-8M752 488v-120h-304v240h304v-120M204.964 552.020c-27.268-16.624-36.496-49.62-20.984-75.056 23.008-37.736 73.032-37.736 96.040 0 21.16 34.7-6.788 83.008-48.020 83.008-7.7 0-19.868-3.58-27.036-7.952M504 552c-4.4-4.4-8-11.6-8-16s3.6-11.6 8-16c7.516-7.516 13.332-8 96-8s88.484 0.484 96 8c4.4 4.4 8 11.6 8 16s-3.6 11.6-8 16c-7.516 7.516-13.332 8-96 8s-88.484-0.484-96-8M238.216 507.652c4.12-6.672-5.148-14.32-10.668-8.8-4.616 4.616-1.728 13.148 4.452 13.148 1.94 0 4.736-1.956 6.216-4.348M504 456c-4.4-4.4-8-11.6-8-16s3.6-11.6 8-16c7.112-7.112 13.332-8 56-8s48.888 0.888 56 8c4.4 4.4 8 11.6 8 16s-3.6 11.6-8 16c-7.112 7.112-13.332 8-56 8s-48.888-0.888-56-8M204.964 360.020c-27.268-16.624-36.496-49.62-20.984-75.056 23.008-37.736 73.032-37.736 96.040 0 28.508 46.756-28.3 103.564-75.056 75.056M238.216 315.652c4.12-6.672-5.148-14.32-10.668-8.8-4.616 4.616-1.728 13.148 4.452 13.148 1.94 0 4.736-1.956 6.216-4.348" />
<glyph unicode="&#xf632;" glyph-name="compass" d="M974.304 55.168l-140.832 280.832h94.528c8.832 0 16 7.168 16 16s-7.168 16-16 16h-110.56l-142.16 283.488c-29.104-47.088-77.856-80.624-134.832-89.136l97.168-194.352h-109.616v64c0 8.832-7.168 16-16 16s-16-7.168-16-16v-64h-109.616l97.168 194.352c-56.96 8.528-105.728 42.048-134.832 89.136l-142.16-283.488h-110.56c-8.832 0-16-7.168-16-16s7.168-16 16-16h94.528l-140.832-280.832c-2.48-4.96-2.224-10.848 0.688-15.584 2.912-4.704 8.064-7.584 13.616-7.584 80.192 0 160.064 11.376 201.328 93.872l105.056 210.128h125.616v-64c0-8.832 7.168-16 16-16s16 7.168 16 16v64h125.616l105.056-210.128c41.264-82.496 121.136-93.872 201.328-93.872 5.552 0 10.704 2.88 13.616 7.6s3.168 10.608 0.688 15.568zM528 911.184v64.816c0 8.832-7.168 16-16 16s-16-7.168-16-16v-64.816c-80.736-8.048-144-76.368-144-159.184 0-88.224 71.776-160 160-160s160 71.776 160 160c0 82.832-63.264 151.136-144 159.184z" />
<glyph unicode="&#xf633;" glyph-name="compass-line" d="M504 984c-6.972-6.972-8-13.332-8-49.556v-41.552l-14.812-2.78c-31.856-5.976-73.008-36.732-91.6-68.452-18.988-32.4-26.508-78.556-17.768-109.032 3.584-12.492-1.584-24.136-82.98-186.976l-86.796-173.652h-53.024c-47.688 0-53.824-0.804-61.020-8-10.184-10.184-10.184-21.816 0-32 6.932-6.932 13.332-8 48-8 22 0 40-1.060 40-2.356s-28.996-59.8-64.432-130.008c-67.768-134.26-70.244-141.64-51.012-151.932 12.756-6.828 66.952-9.328 90.892-4.196 31.468 6.748 63.32 23.852 89.532 48.076 21.64 20 27.376 29.616 78.188 130.992l54.832 109.404 122 0.020v-24c0-26.084 8.348-40 24-40s24 13.916 24 40v24h119.72l52.856-105c49.032-97.4 54.76-106.888 79.14-131.072 28.324-28.096 58.272-45.008 92.836-52.42 23.94-5.132 78.136-2.632 90.892 4.196 18.548 9.924 16.020 17.416-51.152 151.712-35.36 70.692-64.292 129.448-64.292 130.56s18 2.024 40 2.024c34.668 0 41.068 1.068 48 8 10.184 10.184 10.184 21.816 0 32-7.196 7.196-13.332 8-61.020 8h-53.024l-86.796 173.652c-81.396 162.84-86.564 174.484-82.98 186.976 8.74 30.476 1.22 76.632-17.768 109.032-18.592 31.72-59.744 62.476-91.6 68.452l-14.812 2.78v41.552c0 36.224-1.028 42.584-8 49.556-4.4 4.4-11.6 8-16 8s-11.6-3.6-16-8M566.116 836.88c45.48-23.424 66.572-72.952 52.168-122.5-7.648-26.296-27.692-50.756-52.012-63.46-22.888-11.956-69.656-11.956-92.544 0-22.852 11.936-43.508 36.328-51.728 61.084-18.468 55.596 12.124 113.516 69.976 132.5 16.496 5.412 56.9 1.26 74.14-7.624M416.304 633.548c5.332-5.748 19.080-15.78 30.552-22.3l20.856-11.848-119.492-238.964c-65.724-131.428-124.364-244.748-130.32-251.824-16.444-19.544-42.684-35.876-68.408-42.576-46.54-12.124-55.676-36.736 106.112 285.908 80.52 160.568 147.432 291.968 148.7 292 1.264 0.032 6.664-4.648 12-10.396M783.232 353.552c79.864-159.744 144.252-291.4 143.084-292.572-3.768-3.768-46.76 6.68-65.024 15.804-37.684 18.82-44.448 30.004-170.864 282.56-65.136 130.132-118.428 237.344-118.428 238.248s9.452 7.012 21 13.576c11.548 6.56 25.364 16.632 30.696 22.38 5.336 5.748 10.74 10.452 12.016 10.452 1.272 0 67.656-130.7 147.52-290.448M579.98 475c31.696-64.352 58.272-118.352 59.060-120s-20.276-3-46.804-3h-48.236v24c0 26.084-8.348 40-24 40s-24-13.916-24-40v-24h-48c-26.4 0-48 0.892-48 1.984 0 4.152 118.044 238.016 120.144 238.016 1.212 0 28.136-52.648 59.836-117" />
<glyph unicode="&#xf634;" glyph-name="design" d="M944.976 250.512l-171.648-171.648 183.872-30.64c0.896-0.16 1.76-0.224 2.64-0.224 0.080 0 0.176 0 0.32 0 8.832 0 16 7.168 16 16 0 2.016-0.368 3.952-1.056 5.712l-30.128 180.8zM319.84 886.624l-84.688 84.688c-6.256 6.256-16.368 6.256-22.624 0l-160-160c-6.256-6.256-6.256-16.368 0-22.624l84.688-84.688 182.624 182.624zM971.312 779.312l-192 192c-6.256 6.256-16.368 6.256-22.624 0l-148.688-148.688 59.312-59.312c6.256-6.256 6.256-16.368 0-22.624s-16.368-6.256-22.624 0l-59.312 59.312-73.376-73.376 27.312-27.312c6.256-6.256 6.256-16.368 0-22.624s-16.368-6.256-22.624 0l-27.312 27.312-73.376-73.376 59.312-59.312c6.256-6.256 6.256-16.368 0-22.624s-16.368-6.256-22.624 0l-59.312 59.312-73.376-73.376 27.312-27.312c6.256-6.256 6.256-16.368 0-22.624s-16.368-6.256-22.624 0l-27.312 27.312-73.376-73.376 59.312-59.312c6.256-6.256 6.256-16.368 0-22.624s-16.368-6.256-22.624 0l-59.312 59.312-148.688-148.688c-6.256-6.256-6.256-16.368 0-22.624l192-192c3.12-3.12 7.216-4.688 11.312-4.688s8.192 1.568 11.312 4.688l704 704c6.256 6.256 6.256 16.368 0 22.624zM808 704c-22.048 0-40 17.952-40 40s17.952 40 40 40 40-17.952 40-40-17.952-40-40-40zM550.539 290.677l182.624 182.624 194.673-194.673-182.624-182.624-194.673 194.673zM159.848 681.376l182.624 182.624 130.83-130.83-182.624-182.624-130.83 130.83z" />
<glyph unicode="&#xf635;" glyph-name="design-line" d="M135.084 888.916c-78.476-78.48-103.084-105.42-103.084-112.852 0-7.472 28.892-38.712 122.912-132.916l122.916-123.148-122.916-123.148c-94.1-94.284-122.912-125.444-122.912-132.928 0-14.16 233.764-247.924 247.924-247.924 7.488 0 38.652 28.82 132.952 122.94l123.176 122.94 181.948-181.084 117.216-16.6c64.472-9.128 120.724-15.484 125.004-14.124 17.384 5.516 17.372 12.72-0.24 137.352l-16.76 118.576-181.1 181.948 122.94 123.176c94.12 94.3 122.94 125.464 122.94 132.952 0 14.16-233.764 247.924-247.924 247.924-7.484 0-38.644-28.812-132.928-122.912l-123.148-122.916-123.148 122.916c-94.204 94.020-125.444 122.912-132.916 122.912-7.432 0-34.372-24.608-112.852-103.084M288.032 893.968l37.876-38.036-157.896-157.892-77.948 77.948 77.928 78.004c42.864 42.904 78.884 78.008 80.048 78.008s19.16-17.116 39.992-38.032M856.016 837.984l93.948-94.012-669.956-669.96-189.98 189.984 125.756 125.756 43.512-42.876c45.756-45.092 54.2-49.38 68.704-34.876 14.5 14.5 10.216 22.948-34.868 68.696l-42.868 43.504 61.42 61.42 27.768-26.812c29.568-28.544 39.32-32.036 52.548-18.808s9.736 22.98-18.808 52.548l-26.812 27.768 61.42 61.42 43.504-42.868c45.748-45.084 54.196-49.368 68.696-34.868s10.216 22.948-34.868 68.696l-42.868 43.504 61.42 61.42 27.768-26.812c29.568-28.544 39.32-32.036 52.548-18.808s9.736 22.98-18.808 52.548l-26.812 27.768 61.42 61.42 43.504-42.868c45.748-45.084 54.196-49.368 68.696-34.868s10.216 22.948-34.86 68.688l-42.86 43.496 61.812 61.908c33.996 34.048 62.748 61.908 63.892 61.908s44.356-42.308 96.032-94.016M416.020 765.98l53.912-54.024-157.928-157.924-109.948 109.948 77.932 78.008c42.864 42.908 78.876 78.012 80.028 78.012s26.356-24.308 56.004-54.020M808.012 373.988l77.936-78.012-157.948-157.952-157.948 157.952 77.936 78.012c42.864 42.908 78.868 78.012 80.012 78.012s37.148-35.104 80.012-78.012M913.732 170.112c5.404-37.34 9.424-68.288 8.936-68.776s-30.536 3.464-66.776 8.784c-36.24 5.32-68.572 9.72-71.844 9.776s21.92 28.020 55.988 62.14c34.068 34.12 62.376 60.672 62.904 59 0.532-1.668 5.388-33.584 10.792-70.924" />
<glyph unicode="&#xf636;" glyph-name="eraser-32" d="M240 816h544v144c0 17.68-14.32 32-32 32h-480c-17.68 0-32-14.32-32-32v-144zM784 208h-544v-144c0-17.68 14.32-32 32-32h480c17.68 0 32 14.32 32 32v144zM800 784h-576c-8.832 0-16-7.168-16-16v-512c0-8.832 7.168-16 16-16h576c8.832 0 16 7.168 16 16v512c0 8.832-7.168 16-16 16zM368 384c0-8.832-7.168-16-16-16s-16 7.168-16 16v160c0 8.832 7.168 16 16 16s16-7.168 16-16v-160z" />
<glyph unicode="&#xf637;" glyph-name="eraser-32-line" d="M232 984c-7.468-7.468-8-13.332-8-88 0-77.332-0.268-80-8-80-4.4 0-11.6-3.6-16-8-7.856-7.856-8-13.332-8-304s0.144-296.144 8-304c4.4-4.4 11.6-8 16-8 7.732 0 8-2.668 8-80 0-74.668 0.532-80.532 8-88 7.848-7.848 13.332-8 288-8s280.152 0.152 288 8c7.468 7.468 8 13.332 8 88 0 77.332 0.268 80 8 80 4.4 0 11.6 3.6 16 8 7.856 7.856 8 13.332 8 304s-0.144 296.144-8 304c-4.4 4.4-11.6 8-16 8-7.732 0-8 2.668-8 80 0 74.668-0.532 80.532-8 88-7.848 7.848-13.332 8-288 8s-280.152-0.152-288-8M768 880v-64h-496v128h496v-64M800 504v-264h-560v528h560v-264M328 504c-7.468-7.468-8-13.332-8-88s0.532-80.532 8-88c4.4-4.4 11.6-8 16-8s11.6 3.6 16 8c7.468 7.468 8 13.332 8 88s-0.532 80.532-8 88c-4.4 4.4-11.6 8-16 8s-11.6-3.6-16-8M768 128v-64h-496v128h496v-64" />
<glyph unicode="&#xf638;" glyph-name="eraser-33" d="M960 32h-896c-8.832 0-16 7.168-16 16s7.168 16 16 16h896c8.832 0 16-7.168 16-16s-7.168-16-16-16zM967.424 744.576l-222.848 222.848c-31.248 31.248-81.888 31.248-113.136 0l-574.864-574.848c-31.248-31.248-31.248-81.888 0-113.136l183.424-183.44h192l535.424 535.424c31.248 31.248 31.248 81.904 0 113.152z" />
<glyph unicode="&#xf639;" glyph-name="eraser-33-line" d="M674 972.436c-6.6-1.716-19.2-6.888-28-11.492-9.724-5.084-127.636-120.296-300.544-293.656-232.040-232.644-285.524-288.24-289.836-301.288-7.356-22.252-6.084-61.5 2.608-80.404 4.46-9.704 45.756-54.512 109.3-118.596l102.128-103h-102.828c-97.496 0-103.244-0.416-110.828-8-10.184-10.184-10.184-21.816 0-32 7.908-7.908 13.332-8 464-8s456.092 0.092 464 8c4.4 4.4 8 11.6 8 16s-3.6 11.6-8 16c-7.848 7.848-13.332 8-286.932 8h-278.936l278.312 279c188.8 189.268 280.592 284.016 285.404 294.596 8.636 18.988 9.844 58.356 2.468 80.404-7.128 21.304-212.7 229.736-240.768 244.124-20.528 10.52-51.252 15.076-69.548 10.312M714.74 923.812c6.192-2.304 58.548-51.356 116.344-109 84.308-84.088 105.892-107.776 109.156-119.812 8.612-31.744 6.684-34.252-136.164-176.984l-132.092-131.984-269.952 269.952 129.984 130.404c71.492 71.72 135.384 132.852 141.984 135.852 14.64 6.648 25.928 7.080 40.74 1.572M504.024 485.964l133.976-134.036-132-131.62c-142.7-142.288-145.184-144.192-177-135.624-22.116 5.956-223.356 206.404-229.28 228.38-8.488 31.48-6.372 34.236 135.184 175.84 72.080 72.104 131.972 131.096 133.096 131.096s62.336-60.316 136.024-134.036" />
<glyph unicode="&#xf63a;" glyph-name="flask" d="M768 1008h-512c-8.832 0-16-7.168-16-16v-128c0-8.832 7.168-16 16-16h80v-208h144c8.832 0 16-7.168 16-16s-7.168-16-16-16h-144v-128h144c8.832 0 16-7.168 16-16s-7.168-16-16-16h-144v-128h144c8.832 0 16-7.168 16-16s-7.168-16-16-16h-144v-96c0-97.040 78.96-176 176-176s176 78.96 176 176v656h80c8.832 0 16 7.168 16 16v128c0 8.832-7.168 16-16 16z" />
<glyph unicode="&#xf63b;" glyph-name="flask-line" d="M248 1000c-7.408-7.408-8-13.332-8-80 0-90.824-1.796-88 56-88h40v-335.16c0-364.968-0.332-359.1 22.74-401.492 12.692-23.316 53.188-63.068 76.22-74.816 52.124-26.592 117.956-26.592 170.080 0 23.032 11.748 63.528 51.5 76.22 74.816 23.072 42.392 22.74 36.524 22.74 401.492v335.16h40c57.796 0 56-2.824 56 88 0 66.668-0.592 72.592-8 80-7.84 7.84-13.332 8-272 8s-264.16-0.16-272-8M752 920v-40h-39.236c-27.564 0-41.544-1.688-47-5.676-7.56-5.528-7.816-15.136-9.764-365l-2-359.324-9.512-21.040c-14.224-31.48-49.588-62.508-82.992-72.824-33.124-10.232-49.868-10.232-82.992 0-33.504 10.348-68.836 41.388-82.892 72.824-8.26 18.46-9.592 28.52-10.872 82.040l-1.456 61h64.356c59.028 0 65.024 0.664 72.36 8 10.184 10.184 10.184 21.816 0 32-7.332 7.332-13.332 8-72 8h-64v112h64c58.668 0 64.668 0.668 72 8 4.4 4.4 8 11.6 8 16s-3.6 11.6-8 16c-7.332 7.332-13.332 8-72 8h-64v112h64c58.668 0 64.668 0.668 72 8 10.184 10.184 10.184 21.816 0 32-7.332 7.332-13.332 8-72 8h-64v112c0 136.804 3.852 128-56 128h-40v80h464v-40" />
<glyph unicode="&#xf63c;" glyph-name="glasses" d="M216 496l52.8 320h99.2c9.6 0 16 6.4 16 16v64c0 9.6-6.4 16-16 16h-176c-6.4 0-12.8-4.8-14.4-11.2l-145.6-404.8h184zM656 816h99.2l52.8-320h184l-144 404.8c-3.2 6.4-9.6 11.2-16 11.2h-176c-9.6 0-16-6.4-16-16v-64c0-9.6 6.4-16 16-16zM1008 464h-992v-272c0-44.8 35.2-80 80-80h288c44.8 0 80 35.2 80 80v128c0 27.2 20.8 48 48 48s48-20.8 48-48v-128c0-44.8 35.2-80 80-80h288c44.8 0 80 35.2 80 80v272z" />
<glyph unicode="&#xf63d;" glyph-name="glasses-line" d="M186.496 906.856c-4.292-3.136-38.924-94.456-88.764-234.052l-81.732-228.908 0.088-138.948c0.096-154.948 0.444-157.18 28.44-183.776 25.664-24.388 32.008-25.172 203.472-25.172 171.492 0 177.956 0.8 203.328 25.172 24.34 23.38 26.196 30.256 28.536 105.744 2.128 68.612 2.184 68.964 13.136 79.908 15.348 15.34 38.648 15.34 54 0.004 10.96-10.952 11.008-11.24 13.040-79.908 2.236-75.528 4.016-82.104 28.632-105.748 25.368-24.368 31.856-25.172 203.12-25.172 176.916 0 180.62 0.532 207.668 29.876 8.764 9.508 17.86 24.224 20.216 32.704 2.648 9.544 4.288 66.832 4.3 150.368l0.024 134.948-81.732 228.908c-49.84 139.596-84.472 230.916-88.764 234.052-5.264 3.852-30.976 5.144-102.268 5.144-120.18 0-111.236 5.788-111.236-72 0-74.028-1.848-72 65.716-72h49.716l4.212-21c2.316-11.552 14.24-76.8 26.504-145 12.26-68.2 23.216-127.148 24.344-131 1.936-6.62-13.768-7-290.492-7s-292.428 0.38-290.492 7c1.128 3.852 12.084 62.8 24.344 131 12.264 68.2 24.188 133.448 26.504 145l4.212 21h49.716c67.564 0 65.716-2.028 65.716 72 0 77.788 8.944 72-111.236 72-71.292 0-97.004-1.292-102.268-5.144M352 840v-24h-49.908c-47.372 0-50.2-0.456-55.696-9-3.184-4.948-17.66-74.7-32.164-155s-28.268-155.452-30.584-167l-4.216-21h-52.184c-47.752 0-52.020 0.596-50.288 7 1.040 3.852 31.192 88.9 67 189s66.84 186.948 68.964 193l3.86 11h135.216v-24M827.076 853c2.124-6.052 33.156-92.9 68.964-193s65.96-185.148 67-189c1.732-6.404-2.536-7-50.288-7h-52.184l-4.216 21c-2.316 11.548-16.080 86.7-30.584 167s-28.98 150.052-32.164 155c-5.496 8.544-8.324 9-55.696 9h-49.908v48h135.216l3.86-11M432 294.064v-121.936l-23.344-26.128h-321.312l-23.344 26.128v243.872h368v-121.936M560 387.924v-28.076l-11 3.076c-6.048 1.692-19.1 3.076-29 3.076s-22.948-1.384-29-3.076l-11-3.076v56.152h80v-28.076M976 294.064v-121.936l-23.344-26.128h-321.312l-23.344 26.128v243.872h368v-121.936" />
<glyph unicode="&#xf63e;" glyph-name="glasses-2" d="M80 463.552v352.448c0 53.024 42.976 96 96 96h32c8.832 0 16 7.168 16 16v32c0 8.832-7.168 16-16 16h-32c-88.368 0-160-71.632-160-160v-424.768c16.256 28.24 38.096 52.784 64 72.32zM816 912h32c53.024 0 96-42.976 96-96v-352.448c25.904-19.52 47.744-44.080 64-72.32v424.768c0 88.368-71.632 160-160 160h-32c-8.832 0-16-7.168-16-16v-32c0-8.832 7.168-16 16-16zM800 480c-71.376 0-134.448-36.176-171.936-91.12-26.224 35.76-68.416 59.12-116.064 59.12s-89.84-23.36-116.064-59.12c-37.488 54.944-100.56 91.12-171.936 91.12-114.688 0-208-93.312-208-208s93.312-208 208-208 208 93.312 208 208v32c0 44.112 35.888 80 80 80s80-35.888 80-80v-32c0-114.688 93.312-208 208-208s208 93.312 208 208-93.312 208-208 208z" />
<glyph unicode="&#xf63f;" glyph-name="glasses-2-line" d="M92.252 951.232c-29.312-11.252-56.548-38.868-67.68-68.62-8.488-22.692-8.572-25.864-8.572-330.028 0-201.776 1.476-315.256 4.304-330.848 11.172-61.624 58.004-122.68 115.992-151.224 83.18-40.94 182.044-24.448 247.84 41.352 44.584 44.58 63.864 94.7 63.864 166.024 0 25.672 1.872 36.124 9 50.232 26.516 52.492 99.484 52.492 126 0 7.216-14.28 9.012-24.588 9.068-51.968 0.144-70.708 19.064-119.184 64.228-164.584 65.172-65.516 162.384-81.772 246.644-41.244 58.264 28.024 105.492 89.268 116.756 151.412 2.828 15.592 4.304 129.072 4.304 330.848 0 304.164-0.084 307.336-8.572 330.028-11.404 30.48-38.336 57.412-68.816 68.816-32.264 12.072-94.776 12.408-106.612 0.572-4.4-4.4-8-11.6-8-16s3.6-11.6 8-16c6.764-6.764 13.404-8.012 43-8.088 50.764-0.128 72.916-11.588 86.848-44.928 5.288-12.66 6.152-46.24 6.152-239.176v-224.448l-23 20.588c-94.676 84.752-243 70.312-317.692-30.924-9.34-12.664-17.232-23.496-17.532-24.076s-7.568 5.568-16.148 13.66c-23.788 22.44-46.328 30.996-81.628 30.996s-57.84-8.556-81.628-30.996c-8.58-8.092-15.848-14.24-16.148-13.66s-8.192 11.412-17.532 24.076c-74.692 101.236-223.016 115.676-317.692 30.924l-23-20.588 0.088 225.32c0.080 210.064 0.584 226.404 7.436 241.32 14.32 31.188 36.548 42 86.348 42 28.796 0 35.38 1.252 42.128 8 4.4 4.4 8 11.6 8 16s-3.6 11.6-8 16c-11.664 11.664-76.572 11.204-107.748-0.768M274.16 425.792c82.884-21.584 135.916-101.888 122.88-186.084-17.444-112.704-137.632-175.496-240.020-125.404-98.78 48.328-123.036 185.6-46.656 264.016 45.112 46.316 103.384 63.204 163.796 47.472M850.16 425.792c124.804-32.5 167.036-188.424 75.752-279.704-65.556-65.56-170.268-65.56-235.824 0-64.168 64.164-65.84 168.46-3.724 232.232 45.112 46.316 103.384 63.204 163.796 47.472" />
<glyph unicode="&#xf640;" glyph-name="globe" d="M512 1008c-273.504 0-496-222.512-496-496s222.496-496 496-496 496 222.512 496 496-222.496 496-496 496zM894.464 311.472h-129.12c15.168 56.496 24.112 118.848 25.376 184.528h152.896c-2.448-66.4-19.92-129.008-49.152-184.528zM590.352 87.248c-20.336-3.744-41.136-6.064-62.352-6.848v199.072h194.992c-30.080-89.488-76.976-158.336-132.64-192.224zM301.008 279.472h194.992v-199.056c-21.216 0.784-42.016 3.104-62.352 6.848-55.664 33.872-102.56 102.72-132.64 192.208zM80.4 496h152.896c1.264-65.68 10.208-128.048 25.376-184.528h-129.12c-29.248 55.52-46.72 118.128-49.152 184.528zM129.536 712.528h129.12c-15.152-56.48-24.096-118.848-25.36-184.528h-152.896c2.432 66.4 19.904 129.008 49.136 184.528zM433.648 936.752c20.336 3.744 41.136 6.064 62.352 6.848v-199.056h-194.992c30.080 89.472 76.976 158.32 132.64 192.208zM722.992 744.528h-194.992v199.072c21.216-0.784 42.016-3.104 62.352-6.848 55.664-33.888 102.56-102.736 132.64-192.224zM732.72 712.528c15.488-55.888 24.704-118.384 26-184.528h-230.72v184.528h204.72zM496 712.528v-184.528h-230.72c1.296 66.144 10.512 128.64 26 184.528h204.72zM265.28 496h230.72v-184.528h-204.72c-15.488 55.888-24.704 118.384-26 184.528zM528 311.472v184.528h230.72c-1.296-66.144-10.512-128.64-26-184.528h-204.72zM790.704 528c-1.264 65.68-10.208 128.048-25.376 184.528h129.12c29.232-55.52 46.704-118.128 49.136-184.528h-152.88zM875.792 744.528h-119.872c-22.752 70.416-55.52 129.936-94.944 172.976 89.040-32.816 164.304-94.224 214.816-172.976zM363.040 917.504c-39.424-43.040-72.176-102.576-94.944-172.976h-119.888c50.512 78.752 125.776 140.16 214.832 172.976zM148.208 279.472h119.872c22.752-70.416 55.52-129.936 94.944-172.976-89.040 32.816-164.304 94.224-214.816 172.976zM660.96 106.496c39.424 43.040 72.176 102.576 94.944 172.976h119.872c-50.496-78.752-125.76-140.16-214.816-172.976z" />
</font>
</defs>
</svg>
