<?xml version="1.0" encoding="utf-8"?>
<svg class="ucws-icon" xmlns="http://www.w3.org/2000/svg" xmlns:xlink="http://www.w3.org/1999/xlink"
     x="0px" y="0px" width="32px" height="32px" viewBox="0 0 32 32" xml:space="preserve">
  <path class="background" fill="#ffffff" d="M16,0C7.2,0,0,7.2,0,16c0,8.8,7.2,16,16,16s16-7.2,16-16C32,7.2,24.8,0,16,0z M15.4,24c-0.9,0-1.7-0.7-1.7-1.7
    s0.8-1.7,1.7-1.7s1.7,0.7,1.7,1.7C17.1,23.3,16.4,24,15.4,24z M16.6,18.4C16.4,18.8,16,19,15.4,19c-0.6,0-1-0.2-1.1-0.6h0l-0.5-9.5
    c0.1-0.9,0.6-1.3,1.7-1.3c1.1,0,1.6,0.4,1.8,1.3L16.6,18.4z"/>
  <!-- 'icon' is transparent so we can have a background color show through 'background' hole if necessary -->
  <g>
    <path class="icon" fill="none" d="M14.2,18.4l-0.5-9.5c0.1-0.9,0.6-1.3,1.7-1.3S17,8,17.1,8.9l-0.6,9.5C16.4,18.8,16,19,15.4,19
      C14.7,19,14.4,18.8,14.2,18.4L14.2,18.4z"/>
    <path class="icon" fill="none" d="M17.1,22.3c0,0.9-0.8,1.7-1.7,1.7s-1.7-0.7-1.7-1.7s0.8-1.7,1.7-1.7C16.4,20.7,17.1,21.4,17.1,22.3z"/>
  </g>
</svg>
