<?xml version="1.0" encoding="utf-8"?>
<svg class="ucws-icon" xmlns="http://www.w3.org/2000/svg" xmlns:xlink="http://www.w3.org/1999/xlink"
     x="0px" y="0px" width="32px" height="32px" viewBox="0 0 32 32" xml:space="preserve">
  <path class="background" fill="#ffffff" d="M16,0C7.2,0,0,7.2,0,16s7.2,16,16,16s16-7.2,16-16S24.8,0,16,0z M23,10.4l-7.3,11.8c-0.1,0.4-0.4,0.5-0.8,0.6
    c-0.4,0-0.7-0.2-0.9-0.5L9.4,16c-0.4-0.5-0.2-1.2,0.2-1.5c0.5-0.4,1.2-0.2,1.5,0.2l3.6,5l6.4-10.4c0.3-0.5,1-0.7,1.5-0.4
    C23.1,9.2,23.3,9.9,23,10.4z"/>
  <!-- 'icon' is transparent so we can have a background color show through 'background' hole if necessary -->
  <path class="icon" fill="none" d="M14.9,22.8c-0.4,0-0.7-0.2-0.9-0.5L9.4,16c-0.4-0.5-0.2-1.2,0.2-1.5c0.5-0.4,1.2-0.2,1.5,0.2l3.6,5l6.4-10.4
    c0.3-0.5,1-0.7,1.5-0.4s0.7,1,0.4,1.5l-7.3,11.8C15.6,22.6,15.3,22.7,14.9,22.8L14.9,22.8z"/>
</svg>
