<?xml version="1.0" encoding="utf-8"?>
<svg class="ucws-icon" xmlns="http://www.w3.org/2000/svg" xmlns:xlink="http://www.w3.org/1999/xlink"
     x="0px" y="0px" width="32px" height="32px" viewBox="0 0 32 32" xml:space="preserve">
  <path class="icon" fill="#ffffff" d="M30.2,24.9L24,21.2C23.8,21,23.7,21,23.5,21c0.9-1.7,1.4-3.6,1.4-5.7c0-6.5-5.3-11.8-11.8-11.8S1,8.8,1,15.3
    s5.3,11.8,11.8,11.8c3.3,0,6.2-1.4,8.4-3.4c0.2,0.3,0.3,0.5,0.7,0.7l6.2,3.8c0.3,0.2,0.7,0.3,1,0.3c0.7,0,1.2-0.3,1.5-0.9
    C31.2,26.6,31.1,25.4,30.2,24.9z M12.8,23.4c-4.5,0-8.1-3.6-8.1-8.1s3.6-8.1,8.1-8.1s8.1,3.6,8.1,8.1S17.5,23.4,12.8,23.4z"/>
  <path class="icon" fill="#ffffff" d="M17.7,14.8c-0.3,0-4.2,0-4.2,0s0-4,0-4.2c0-0.4-0.3-0.7-0.7-0.7c-0.4,0-0.7,0.3-0.7,0.7c0,0.2,0,4.2,0,4.2
    s-3.9,0-4.2,0c-0.4,0-0.7,0.3-0.7,0.7c0,0.4,0.3,0.7,0.7,0.7c0.3,0,4.2,0,4.2,0s0,4,0,4.2c0,0.4,0.3,0.7,0.7,0.7
    c0.4,0,0.7-0.3,0.7-0.7c0-0.3,0-4.2,0-4.2s3.9,0,4.2,0c0.4,0,0.7-0.3,0.7-0.7C18.4,15.1,18.1,14.8,17.7,14.8z"/>
</svg>
