<?xml version="1.0" standalone="no"?>
<!DOCTYPE svg PUBLIC "-//W3C//DTD SVG 1.1//EN" "http://www.w3.org/Graphics/SVG/1.1/DTD/svg11.dtd" >
<svg xmlns="http://www.w3.org/2000/svg">
<metadata>Generated by IcoMoon</metadata>
<defs>
<font id="icomoon" horiz-adv-x="1024">
<font-face units-per-em="1024" ascent="1024" descent="0" />
<missing-glyph horiz-adv-x="1024" />
<glyph unicode="&#x20;" horiz-adv-x="0" d="" />
<glyph unicode="&#xe949;" glyph-name="bat" d="M544 704h-64l-96 64v-160c0-70.692 57.307-128 128-128v0c70.692 0 128 57.307 128 128v160l-96-64zM839.438 845.859l-22.703 13.094-1.266-26.188c-4.193-87.437-62.59-161.661-143.469-187.865v-36.9c0-88.219-71.781-160-160-160s-160 71.781-160 160v36.9c-80.879 26.204-139.275 100.428-143.469 187.865l-1.266 26.188-22.703-13.094c-103.969-59.937-168.562-171.453-168.562-291.031 0-56.672 14.484-112.797 41.875-162.344l8.375-15.156 14.453 9.562c23.672 15.656 51.094 23.938 79.297 23.938 71.141 0 130.75-51.266 141.719-121.891l2.812-18.125 17.578 5.25c15.031 4.484 30.469 6.766 45.891 6.766 51.953 0 100.891-25.5 130.906-68.203l13.094-18.625 13.094 18.625c30.016 42.703 78.953 68.203 130.906 68.203 15.422 0 30.859-2.281 45.891-6.766l17.578-5.25 2.812 18.125c10.969 70.625 70.578 121.891 141.719 121.891 28.203 0 55.625-8.281 79.297-23.938l14.453-9.562 8.375 15.156c27.391 49.547 41.875 105.672 41.875 162.344 0 119.578-64.594 231.094-168.562 291.031z" />
<glyph unicode="&#xe94a;" glyph-name="bear-2" d="M1008 816c0 105.872-86.128 192-192 192-76.496 0-145.248-45.552-175.648-114.832-40.688 12.192-83.76 18.832-128.352 18.832s-87.664-6.64-128.352-18.832c-30.4 69.28-99.152 114.832-175.648 114.832-105.872 0-192-86.128-192-192 0-66.64 34.192-127.584 90.144-162.576-26.976-57.584-42.144-121.744-42.144-189.424 0-247.024 200.976-448 448-448s448 200.976 448 448c0 67.68-15.168 131.84-42.144 189.424 55.952 34.992 90.144 95.936 90.144 162.576zM816 912c53.024 0 96-42.976 96-96 0-33.808-17.712-63.2-44.128-80.304-37.504 49.008-84.864 90.064-139.12 120.192 15.168 33.088 48.48 56.112 87.248 56.112zM112 816c0 53.024 42.976 96 96 96 38.768 0 72.080-23.024 87.232-56.096-54.256-30.128-101.616-71.184-139.12-120.192-26.4 17.088-44.112 46.48-44.112 80.288zM320 544c0 26.512 21.488 48 48 48s48-21.488 48-48-21.488-48-48-48-48 21.488-48 48zM624 176h-224c-8.832 0-16 7.168-16 16s7.168 16 16 16h96v75.152l-61.312 91.968c-3.28 4.912-3.584 11.216-0.8 16.416 2.784 5.216 8.208 8.464 14.112 8.464h128c5.904 0 11.328-3.248 14.112-8.448s2.48-11.52-0.8-16.416l-61.312-91.984v-75.152h96c8.832 0 16-7.168 16-16s-7.168-16-16-16zM656 496c-26.512 0-48 21.488-48 48s21.488 48 48 48 48-21.488 48-48-21.488-48-48-48z" />
<glyph unicode="&#xe94b;" glyph-name="bear" d="M1008 864c0 79.398-64.602 144-144 144-59.857 0-111.823-36.145-133.367-90.23-62.48 36.907-137.331 58.23-218.633 58.23-81.299 0-156.148-21.321-218.625-58.227-21.55 54.076-73.523 90.227-133.375 90.227-79.398 0-144-64.602-144-144 0-69.438 49.198-127.305 115.443-140.562-12.582-36.18-19.443-74.928-19.443-115.438 0-115.797 43.258-260.875 112.891-378.641 81.352-137.594 183.32-213.359 287.109-213.359 220.805 0 400 358.219 400 592 0 40.508-6.86 79.253-19.44 115.431 66.245 13.258 115.44 71.125 115.44 140.569zM160 800c-35.346 0-64 28.654-64 64s28.654 64 64 64c34.839 0 63.044-27.874 63.851-62.519-20.563-19.491-38.793-41.080-54.197-64.509-3.172-0.483-6.347-0.973-9.653-0.973zM304 672c0 26.51 21.49 48 48 48s48-21.49 48-48-21.49-48-48-48-48 21.49-48 48zM576 224c-26.261 0-49.404 12.892-64 32.495-14.596-19.603-37.739-32.495-64-32.495-44.109 0-80 35.891-80 80 0 8.844 7.164 16 16 16s16-7.156 16-16c0-26.469 21.531-48 48-48s48 21.531 48 48v54.259c-8.3 2.948-15.812 7.896-21.484 14.991l-61.414 76.766c-11.633 14.547-13.852 34-5.789 50.773 8.070 16.789 24.648 27.211 43.266 27.211h122.844c18.617 0 35.195-10.422 43.266-27.211 8.063-16.773 5.844-36.227-5.789-50.773l-61.422-76.781c-5.668-7.086-13.177-12.029-21.476-14.977v-54.258c0-26.469 21.531-48 48-48s48 21.531 48 48c0 8.844 7.164 16 16 16s16-7.156 16-16c0-44.109-35.891-80-80-80zM672 624c-26.51 0-48 21.49-48 48s21.49 48 48 48 48-21.49 48-48-21.49-48-48-48zM864 800c-3.307 0-6.481 0.489-9.653 0.973-15.404 23.429-33.635 45.018-54.197 64.509 0.807 34.644 29.012 62.519 63.851 62.519 35.347 0 64-28.653 64-64s-28.653-64-64-64z" />
<glyph unicode="&#xe94c;" glyph-name="bee" d="M564.196 416c-4.119 9.396-7.736 19.079-10.642 29.109-11.875 41-26.711 92.453-41.555 144.578-14.844-52.125-29.68-103.578-41.555-144.578-2.905-10.030-6.522-19.714-10.642-29.109h104.393zM685.878 224c7.385 19.977 14.26 40.446 20.438 61.129-23.507 8.129-45.305 20.159-65.098 34.871h-258.439c-19.782-14.704-41.567-26.728-65.060-34.857 6.175-20.687 13.046-41.161 20.429-61.143h347.73zM381.301 128c36.463-65.946 80.805-112 130.699-112 49.885 0 94.23 46.054 130.706 112h-261.405zM594.856 776.815c33.397 18.772 61.144 46.994 61.144 80.778 0 100.141-92.32 150.406-144 150.406s-144-50.266-144-150.406c0-33.784 27.747-62.007 61.144-80.778-241.301-41.668-413.144-259.694-413.144-456.815 0-8.844 7.164-16 16-16h207.953c92.031 0 174.172 61.688 199.758 150.016 21.743 75.078 49.942 173.232 72.289 253.606 22.347-80.374 50.546-178.528 72.289-253.606 25.586-88.328 107.727-150.016 199.758-150.016h207.953c8.836 0 16 7.156 16 16 0 197.121-171.844 415.148-413.144 456.815z" />
<glyph unicode="&#xe94d;" glyph-name="bones" d="M879 879c-7.352 54.688-54.328 97-111 97-61.758 0-112-50.25-112-112 0-24.516 7.82-47.828 22.281-67.078l-451.195-451.203c-19.266 14.453-42.578 22.281-67.086 22.281-61.758 0-112-50.25-112-112 0-56.672 42.312-103.641 97-111 7.352-54.688 54.328-97 111-97 61.758 0 112 50.25 112 112 0 24.516-7.82 47.828-22.289 67.094l451.203 451.203c19.258-14.469 42.578-22.297 67.086-22.297 61.758 0 112 50.25 112 112 0 56.672-42.312 103.641-97 111zM864 368c-24.508 0-47.82-7.828-67.086-22.281l-143.659 143.661-118.626-118.626 143.66-143.66c-14.469-19.266-22.289-42.578-22.289-67.094 0-61.75 50.242-112 112-112 56.672 0 103.648 42.312 111 97 54.688 7.359 97 54.328 97 111 0 61.75-50.242 112-112 112zM160 656c24.516 0 47.828 7.828 67.086 22.297l143.661-143.661 118.626 118.63-143.654 143.656c14.461 19.25 22.281 42.562 22.281 67.078 0 61.75-50.242 112-112 112-56.672 0-103.648-42.312-111-97-54.688-7.359-97-54.328-97-111 0-61.75 50.242-112 112-112z" />
<glyph unicode="&#xe94e;" glyph-name="bug" d="M496 768.72c-69.824 5.584-149.2 45.104-170.784 64.272-21.488-15.136-41.392-32.592-59.536-52.048l-94.368 94.368c-6.256 6.256-16.368 6.256-22.624 0s-6.256-16.368 0-22.624l95.984-95.984c-56.048-70.432-91.168-161.76-98.88-260.704h-113.792c-8.848 0-16-7.152-16-16s7.152-16 16-16h112.256c-0.048-3.056-0.256-6.080-0.256-9.136 0-102.88 29.92-197.52 79.808-272.432l-107.12-107.12c-6.256-6.256-6.256-16.368 0-22.624 3.12-3.12 7.216-4.688 11.312-4.688s8.192 1.568 11.312 4.688l103.44 103.44c63.84-81.776 153.44-134.496 253.248-139.616v752.208zM360 624c30.928 0 56-25.072 56-56s-25.072-56-56-56-56 25.072-56 56 25.072 56 56 56zM336 256c-44.176 0-80 35.824-80 80s35.824 80 80 80 80-35.824 80-80-35.824-80-80-80zM992 496h-113.792c-7.696 99.008-42.816 190.336-98.848 260.736l95.952 95.952c6.256 6.256 6.256 16.368 0 22.624s-16.368 6.256-22.624 0l-94.336-94.336c-18.16 19.44-38.048 36.912-59.552 52.048-21.568-19.168-100.944-58.72-170.8-64.288v-752.208c99.808 5.136 189.408 57.856 253.248 139.616l103.44-103.44c3.12-3.136 7.216-4.704 11.312-4.704s8.192 1.568 11.312 4.688c6.256 6.256 6.256 16.368 0 22.624l-107.12 107.12c49.888 74.912 79.808 169.552 79.808 272.432 0 3.072-0.208 6.080-0.272 9.136h112.272c8.848 0 16 7.152 16 16s-7.152 16-16 16zM664 624c30.928 0 56-25.072 56-56s-25.072-56-56-56-56 25.072-56 56 25.072 56 56 56zM688 256c-44.176 0-80 35.824-80 80s35.824 80 80 80 80-35.824 80-80-35.824-80-80-80zM699.312 1003.312c-6.256 6.256-16.368 6.256-22.624 0l-61.984-61.984c-28.224 21.712-64.112 34.672-102.704 34.672s-74.48-12.96-102.704-34.672l-61.984 61.984c-6.256 6.256-16.368 6.256-22.624 0s-6.256-16.368 0-22.624l61.376-61.376c-16.464-18.976-28.368-41.68-33.712-66.8 22.704-13.84 92.352-52.512 159.648-52.512s136.944 38.672 159.648 52.496c-5.344 25.12-17.248 47.84-33.712 66.8l61.376 61.376c6.256 6.272 6.256 16.384 0 22.64z" />
<glyph unicode="&#xe94f;" glyph-name="butterfly" d="M992 912c-197.951 0-365.116-133.883-416-315.817v68.406c19.598 17.576 32 43.014 32 71.411 0 28.241-12.268 53.554-31.68 71.12 9.489 68.274 52.281 141.802 101.828 171.114 7.602 4.5 10.125 14.312 5.625 21.906-4.492 7.609-14.273 10.125-21.922 5.625-54.564-32.272-100.642-106.745-114.927-180.416-23.87 9.339-49.379 8.595-71.711-0.681-14.131 73.893-60.333 148.725-115.065 181.097-7.625 4.5-17.414 1.969-21.922-5.625-4.5-7.594-1.977-17.406 5.625-21.906 49.936-29.544 93.022-104.003 102.054-172.728-18.386-17.488-29.905-42.128-29.905-69.507 0-28.396 12.402-53.834 32-71.41v-68.407c-50.884 181.934-218.049 315.817-416 315.817-8.836 0-16-7.156-16-16v-306.75c0-115.234 88.584-210.059 201.213-220.234-61.871-27.31-105.213-89.155-105.213-161.016 0-97.047 78.953-176 176-176 71.030 0 132.218 42.379 160 103.107v-39.107c0-35.346 28.653-64 64-64s64 28.654 64 64v39.107c27.782-60.728 88.97-103.107 160-103.107 97.047 0 176 78.953 176 176 0 71.86-43.342 133.705-105.213 161.016 112.629 10.176 201.213 105 201.213 220.234v306.75c0 8.844-7.164 16-16 16zM144 584c0 48.602 39.399 88 88 88s88-39.398 88-88c0-48.601-39.399-88-88-88s-88 39.399-88 88zM288 160c-26.51 0-48 21.49-48 48s21.49 48 48 48 48-21.49 48-48-21.49-48-48-48zM736 160c-26.51 0-48 21.49-48 48s21.49 48 48 48 48-21.49 48-48-21.49-48-48-48zM792 496c-48.601 0-88 39.399-88 88s39.399 88 88 88 88-39.398 88-88c0-48.601-39.399-88-88-88z" />
<glyph unicode="&#xe950;" glyph-name="cactus" d="M896 416h-768c-9.6 0-16-6.4-16-16v-80c0-9.6 6.4-16 16-16h768c9.6 0 16 6.4 16 16v80c0 9.6-6.4 16-16 16zM192 624h80v-176h480v176h80c9.6 0 16 6.4 16 16s-6.4 16-16 16h-80v16c0 60.8-22.4 115.2-59.2 158.4l57.6 57.6c6.4 6.4 6.4 16 0 22.4s-16 6.4-22.4 0l-57.6-57.6c-38.4 33.6-88 54.4-142.4 59.2v80c0 9.6-6.4 16-16 16s-16-6.4-16-16v-81.6c-54.4-3.2-104-25.6-142.4-59.2l-57.6 57.6c-6.4 6.4-16 6.4-22.4 0s-6.4-16 0-22.4l57.6-57.6c-36.8-41.6-59.2-96-59.2-156.8v-16h-80c-9.6 0-16-6.4-16-16s6.4-16 16-16zM272 28.8c1.6-8 8-12.8 16-12.8h448c8 0 14.4 4.8 16 12.8l43.2 243.2h-566.4l43.2-243.2z" />
<glyph unicode="&#xe951;" glyph-name="cat" d="M926.75 569.062l-79.125 362.344c-1.188 5.469-5.141 9.906-10.438 11.734-5.234 1.781-11.125 0.719-15.438-2.844l-123.422-102.859c-58.734 28.25-121.375 42.563-186.328 42.563s-127.594-14.312-186.328-42.562l-123.422 102.859c-4.297 3.562-10.188 4.625-15.438 2.844-5.297-1.828-9.25-6.266-10.438-11.734l-79.094-362.234c-0.703-3.203-17.281-79-17.281-121.172 0-238.203 193.797-432 432-432s432 193.797 432 432c0 42.062-16.469 117.562-17.25 121.062zM384 576c35.347 0 64-28.653 64-64s-28.653-64-64-64-64 28.654-64 64c0 35.347 28.653 64 64 64zM682.688 172.531c-20.563-18.406-47.078-28.531-74.688-28.531-40.552 0-76.299 21.319-96 54.465-19.701-33.146-55.448-54.465-96-54.465-27.609 0-54.125 10.125-74.688 28.531-6.578 5.891-7.141 16.016-1.25 22.594 5.891 6.594 16.047 7.125 22.594 1.25 14.672-13.141 33.625-20.375 53.344-20.375 33.122 0 62.708 20.969 74.468 51.164-1.443 1.33-2.868 2.693-4.077 4.305l-63.984 85.344c-7.328 9.75-8.484 22.594-3.016 33.5 5.453 10.906 16.406 17.687 28.609 17.687h128c12.203 0 23.156-6.781 28.609-17.688 5.469-10.906 4.312-23.75-3.016-33.5l-64-85.344c-1.204-1.609-2.625-2.969-4.063-4.298 11.757-30.198 41.346-51.171 74.47-51.171 19.719 0 38.672 7.234 53.344 20.375 6.578 5.891 16.703 5.328 22.594-1.25s5.328-16.703-1.25-22.594zM640 448c-35.347 0-64 28.654-64 64s28.653 64 64 64 64-28.653 64-64c0-35.346-28.653-64-64-64z" />
<glyph unicode="&#xe952;" glyph-name="chicken-2" d="M592 784c-194.094 0-352-157.906-352-352v-400c0-8.844 7.164-16 16-16h672c8.836 0 16 7.156 16 16v400c0 194.094-157.906 352-352 352zM456 384c-30.928 0-56 25.072-56 56s25.072 56 56 56 56-25.072 56-56-25.072-56-56-56zM592 816c160.833 0 298.805-99.44 355.89-240.028 33.242 28.775 54.29 69.797 54.29 110.575 0 75.797-57.711 138.375-131.508 146.109-7.773 97.984-89.992 175.344-189.945 175.344-105.070 0-190.547-85.484-190.547-190.547 0-4.812 0.327-9.904 0.796-15.035 32.212 8.796 66.063 13.582 101.024 13.582zM208 408.046l-135.664-73.999c-5.141-2.797-8.336-8.188-8.336-14.047s3.195-11.25 8.336-14.047l135.664-73.999v176.092z" />
<glyph unicode="&#xe953;" glyph-name="clover" d="M512 16c-8.836 0-16 7.156-16 16v224c0 8.844 7.164 16 16 16s16-7.156 16-16v-224c0-8.844-7.164-16-16-16zM864 731.633c0 26.93-11.852 51.195-33.359 68.336-25.336 20.172-59.68 27.211-95.492 18.922l-64.711-20.437 20.789 65.937c7.937 34.57 0.914 68.922-19.258 94.25-17.141 21.508-41.406 33.359-68.336 33.359-42.797 0-75.844-16.992-91.633-27.031-15.789 10.039-48.836 27.031-91.633 27.031-26.93 0-51.195-11.852-68.336-33.359-20.172-25.328-27.195-59.68-18.922-95.492l20.437-64.711-65.937 20.789c-34.578 7.945-68.922 0.914-94.25-19.258-21.508-17.141-33.359-41.406-33.359-68.336 0-42.797 16.992-75.844 27.031-91.633-10.039-15.789-27.031-48.836-27.031-91.633 0-26.93 11.852-51.203 33.367-68.336 25.32-20.172 59.688-27.234 95.484-18.906l64.711 20.422-20.789-65.937c-7.937-34.578-0.914-68.922 19.258-94.25 17.141-21.516 41.406-33.36 68.336-33.36 42.797 0 75.844 16.984 91.633 27.031 15.789-10.047 48.836-27.031 91.633-27.031 26.93 0 51.195 11.844 68.336 33.359 20.172 25.328 27.195 59.672 18.922 95.484l-20.445 64.719 65.945-20.781c34.563-7.953 68.914-0.937 94.242 19.25 21.516 17.133 33.367 41.406 33.367 68.336 0 42.797-16.992 75.844-27.031 91.633 10.039 15.789 27.031 48.836 27.031 91.633z" />
<glyph unicode="&#xe954;" glyph-name="collar" d="M512 896c-166.016 0-480-23.406-480-112v-192c0-88.594 313.984-112 480-112 32.747 0 71.284 0.932 112 3.073v223.753c-34.825-1.796-72.118-2.826-112-2.826-289.875 0-448 52.852-448 80s158.125 80 448 80 448-52.852 448-80c0-21.858-102.574-60.357-293.812-74.54 3.659-11.872 5.812-24.398 5.812-37.46v-185.872c154.304 11.573 320 41.511 320 105.872v192c0 88.594-313.984 112-480 112zM602.018 387.693c23.029 17.552 37.982 45.181 37.982 76.307v208c0 52.937-43.063 96-96 96-40.773 0-76.56-25.93-90.023-63.188 11.316-0.293 23.027-0.436 34.809-0.557 11.156 19.123 31.965 31.744 55.215 31.744 35.297 0 64-28.711 64-64v-208c0-35.297-28.703-64-64-64s-64 28.703-64 64v16.297c-10.311 0.171-21.006 0.436-32 0.78v-17.077c0-31.126 14.953-58.755 37.982-76.307-50.568-22.367-85.982-72.935-85.982-131.693 0-79.406 64.594-144 144-144s144 64.594 144 144c0 58.759-35.414 109.327-85.982 131.693z" />
<glyph unicode="&#xe955;" glyph-name="cow" d="M992 880h-240v80c0 26.469-21.531 48-48 48s-48-21.531-48-48v-80h-288v80c0 26.469-21.531 48-48 48s-48-21.531-48-48v-80h-240c-8.844 0-16-7.156-16-16 0-97.047 78.953-176 176-176h33.285l-17.223-206.672c-0.375-4.453 1.141-8.875 4.156-12.156 3.031-3.297 7.312-5.172 11.781-5.172h576c4.469 0 8.75 1.875 11.781 5.172 3.016 3.281 4.531 7.703 4.156 12.156l-17.223 206.672h33.285c97.047 0 176 78.953 176 176 0 8.844-7.156 16-16 16zM360 592c-22.092 0-40 17.909-40 40s17.908 40 40 40 40-17.908 40-40c0-22.091-17.908-40-40-40zM664 592c-22.092 0-40 17.909-40 40s17.908 40 40 40 40-17.908 40-40c0-22.091-17.908-40-40-40zM800 432h-576c-44.109 0-80-31.781-80-70.859v-137.141c0-114.688 107.656-208 240-208h256c132.344 0 240 93.312 240 208v137.141c0 39.078-35.891 70.859-80 70.859zM352 160c-35.347 0-64 28.654-64 64s28.653 64 64 64 64-28.653 64-64c0-35.346-28.653-64-64-64zM672 160c-35.347 0-64 28.654-64 64s28.653 64 64 64 64-28.653 64-64c0-35.346-28.653-64-64-64z" />
<glyph unicode="&#xe956;" glyph-name="crab" d="M971.776 314.816c-8.576 9.36-213.152 229.184-459.776 229.184s-451.2-219.824-459.776-229.184c-2.61-2.838-4.21-6.64-4.21-10.816s1.6-7.978 4.22-10.827l-0.010 0.011c41.489-43.192 87.138-81.804 136.485-115.388l2.971-1.908c-62.704-42.096-63.68-124-63.68-127.888 0-8.837 7.163-16 16-16v0 0c8.837 0 16 7.163 16 16v0c0 3.344 1.296 79.248 61.936 108.352 79.44-49.024 180.576-92.352 290.064-92.352 108.8 0 209.92 43.472 289.6 92.56 61.088-28.944 62.4-105.248 62.4-108.56 0-8.837 7.163-16 16-16s16 7.163 16 16v0c0 3.888-0.992 86.128-64.096 128.144 52.422 35.522 98.18 74.025 139.608 116.752l0.216 0.224c2.642 2.845 4.263 6.67 4.263 10.874 0 4.179-1.602 7.983-4.225 10.833l0.010-0.011zM344 320c-22.091 0-40 17.909-40 40s17.909 40 40 40c22.091 0 40-17.909 40-40v0c0-22.091-17.909-40-40-40v0zM680 320c-22.091 0-40 17.909-40 40s17.909 40 40 40c22.091 0 40-17.909 40-40v0c0-22.091-17.909-40-40-40v0zM153.216 444.064q13.824 9.936 28.896 19.936c-50.752 28.64-80.848 84.8-80 152 33.827-24.892 76.313-39.837 122.289-39.837 114.663 0 207.616 92.953 207.616 207.616 0 4.886-0.169 9.732-0.501 14.533l0.036-0.648c-0.552 8.387-7.49 14.98-15.967 14.98-3.734 0-7.169-1.279-9.891-3.422l0.034 0.026c-50.592-39.456-167.76-61.68-192.848-36.56-24.512 24.496-1.952 143.456 36.56 192.88 2.103 2.682 3.373 6.106 3.373 9.826 0 8.469-6.581 15.402-14.908 15.963l-0.049 0.003c-4.183 0.3-9.064 0.471-13.985 0.471-114.681 0-207.648-92.967-207.648-207.648 0-54.673 21.13-104.411 55.668-141.493l-0.115 0.125c-9.744-84.816 22-158.448 81.44-198.752zM799.808 576.096c45.921 0.031 88.346 14.972 122.703 40.244l-0.575-0.404c0.8-67.088-29.296-123.296-80-152q15.072-9.984 28.896-19.936c59.44 40.288 91.2 113.936 81.44 198.752 34.463 36.966 55.62 86.732 55.62 141.439 0 114.681-92.967 207.648-207.648 207.648-4.961 0-9.882-0.174-14.756-0.516l0.656 0.037c-8.376-0.564-14.957-7.496-14.957-15.966 0-3.72 1.27-7.144 3.399-9.861l-0.026 0.035c38.512-49.424 61.072-168.384 36.56-192.88-25.12-25.072-142.256-2.896-192.848 36.56-2.688 2.118-6.123 3.396-9.857 3.396-8.478 0-15.416-6.594-15.965-14.932l-0.003-0.048c-0.301-4.188-0.473-9.074-0.473-14 0-114.637 92.931-207.568 207.568-207.568 0.093 0 0.186 0 0.279 0h-0.014z" />
<glyph unicode="&#xe957;" glyph-name="deer" d="M1024 800v192c0 17.672-14.328 32-32 32s-32-14.328-32-32v-192c0-17.648-14.352-32-32-32h-64v128c0 17.672-14.328 32-32 32s-32-14.328-32-32v-128h-149.651c-38.697 10.793-84.616 16-138.349 16s-99.651-5.207-138.349-16h-149.651v128c0 17.672-14.328 32-32 32s-32-14.328-32-32v-128h-64c-17.648 0-32 14.352-32 32v192c0 17.672-14.328 32-32 32s-32-14.328-32-32v-192c0-52.938 43.062-96 96-96h168.961c-19.219-21.801-33.197-48.479-42.557-80h-190.404c-8.836 0-16-7.164-16-16 0-79.398 64.602-144 144-144h49.979c6.864-93.863 32.812-194.179 71.412-271.445 54.355-108.836 128.303-169.271 214.609-175.895v160.617c-54.186 7.805-96 54.411-96 110.723 0 61.758 50.242 112 112 112s112-50.242 112-112c0-56.312-41.814-102.918-96-110.723v-160.617c86.307 6.624 160.254 67.059 214.609 175.895 38.6 77.267 64.548 177.582 71.412 271.445h49.979c79.398 0 144 64.602 144 144 0 8.836-7.164 16-16 16h-190.404c-9.359 31.521-23.338 58.199-42.557 80h168.961c52.938 0 96 43.062 96 96zM448 496c-8.836 0-16 7.164-16 16 0 26.469-21.531 48-48 48s-48-21.531-48-48c0-8.836-7.164-16-16-16s-16 7.164-16 16c0 44.109 35.891 80 80 80s80-35.891 80-80c0-8.836-7.164-16-16-16zM704 496c-8.836 0-16 7.164-16 16 0 26.469-21.531 48-48 48s-48-21.531-48-48c0-8.836-7.164-16-16-16s-16 7.164-16 16c0 44.109 35.891 80 80 80s80-35.891 80-80c0-8.836-7.164-16-16-16z" />
<glyph unicode="&#xe958;" glyph-name="dog-house" d="M991.984 544c-7.016 0-14.078 2.289-19.969 7.016l-460.016 368.008-460.016-368.008c-13.766-11.055-33.937-8.812-44.969 4.992-11.047 13.805-8.812 33.937 5 44.977l480 384c11.688 9.359 28.281 9.359 39.969 0l480-384c13.812-11.039 16.047-31.172 5-44.977-6.312-7.898-15.625-12.008-25-12.008zM880 583.643l-368 294.404-368-294.393v-551.654c0-8.836 7.163-16 16-16h176c8.836 0 16 7.164 16 16v282.52c0 85.219 64.308 159.629 149.349 165.135 93.187 6.034 170.651-67.763 170.651-159.655v-288c0-8.836 7.164-16 16-16h176c8.836 0 16 7.164 16 16v551.643z" />
<glyph unicode="&#xe959;" glyph-name="dog" d="M608 816h-192c-149.984 0-272-122.016-272-272v-202.906c0-79.054 35.045-152.004 96-201.833v-43.261c0-8.844 7.164-16 16-16h120.592c33.572-40.641 82.333-64 135.408-64 53.069 0 101.839 23.357 135.413 64h120.587c8.836 0 16 7.156 16 16v43.262c60.956 49.843 96 122.792 96 201.832v202.906c0 149.984-122.016 272-272 272zM688 592c26.51 0 48-21.49 48-48s-21.49-48-48-48-48 21.49-48 48 21.49 48 48 48zM336 592c26.51 0 48-21.49 48-48s-21.49-48-48-48-48 21.49-48 48 21.49 48 48 48zM496 224c0-61.75-50.242-112-112-112h-112v144c0 61.75 50.242 112 112 112h21.393c1.771-4.949 4.278-9.694 7.709-13.984l61.414-76.766c5.673-7.096 13.185-12.043 21.484-14.991v-38.259zM499.508 297.234l-61.422 76.781c-3.937 4.922-4.656 11.234-1.93 16.922 2.734 5.672 8.125 9.062 14.422 9.062h122.844c6.297 0 11.688-3.391 14.422-9.063 2.727-5.688 2.008-12-1.93-16.922l-61.43-76.797c-6.094-7.625-18.867-7.641-24.976 0.016zM752 112h-112c-61.758 0-112 50.25-112 112v38.258c8.299 2.947 15.809 7.891 21.477 14.977l61.422 76.781c3.431 4.29 5.938 9.035 7.709 13.984h21.392c61.758 0 112-50.25 112-112v-144zM112 544c0 130.105 82.313 241.062 197.473 284.358-48.374 107.804-156.344 179.642-277.473 179.642-8.836 0-16-7.156-16-16v-320c0-62.556 40.164-115.768 96-135.599v7.599zM992 1008c-121.129 0-229.099-71.838-277.473-179.642 115.159-43.297 197.473-154.253 197.473-284.358v-7.599c55.836 19.83 96 73.043 96 135.599v320c0 8.844-7.164 16-16 16zM384 280c0-13.255-10.745-24-24-24s-24 10.745-24 24c0 13.255 10.745 24 24 24s24-10.745 24-24zM368 184c0-13.255-10.745-24-24-24s-24 10.745-24 24c0 13.255 10.745 24 24 24s24-10.745 24-24zM448 216c0-13.255-10.745-24-24-24s-24 10.745-24 24c0 13.255 10.745 24 24 24s24-10.745 24-24zM688 280c0-13.255-10.745-24-24-24s-24 10.745-24 24c0 13.255 10.745 24 24 24s24-10.745 24-24zM704 184c0-13.255-10.745-24-24-24s-24 10.745-24 24c0 13.255 10.745 24 24 24s24-10.745 24-24zM624 216c0-13.255-10.745-24-24-24s-24 10.745-24 24c0 13.255 10.745 24 24 24s24-10.745 24-24z" />
<glyph unicode="&#xe95a;" glyph-name="drop" d="M523.344 971.28c-6 6.048-16.688 6.048-22.688 0-14.56-14.64-356.656-361.28-356.656-587.28 0-239.024 189.6-368 368-368s368 128.976 368 368c0 226-342.096 572.64-356.656 587.28zM512 240c-1.44 0-144 1.648-144 144 0.832 23.504 14.016 56.144 32 90.208 5.344-120.88 48-183.536 160-225.6-26.096-8.368-47.456-8.608-48-8.608z" />
<glyph unicode="&#xe95b;" glyph-name="fire" d="M523.2 966.4c-6.4 6.4-17.6 6.4-24 0-8-11.2-243.2-260.8-243.2-403.2 0-145.6 115.2-265.6 256-265.6s256 118.4 256 265.6c0 142.4-235.2 392-244.8 403.2zM512 432c-62.4 0-112 54.4-112 120 1.6 36.8 52.8 115.2 99.2 176 3.2 3.2 8 6.4 12.8 6.4v0c4.8 0 9.6-1.6 12.8-6.4 22.4-30.4 97.6-129.6 99.2-176 0-67.2-49.6-120-112-120zM932.8 240l-86.4 32-288-105.6 307.2-112c1.6 0 3.2-1.6 4.8-1.6s4.8 0 6.4 1.6c3.2 1.6 6.4 4.8 8 9.6l56 155.2c1.6 3.2 1.6 8 0 12.8 0 3.2-3.2 6.4-8 8zM942.4 356.8l-56 155.2c-1.6 3.2-4.8 8-8 9.6s-8 1.6-12.8 0l-73.6-27.2c-30.4-131.2-144-228.8-280-228.8s-249.6 97.6-280 228.8l-73.6 27.2c-4.8 1.6-8 1.6-12.8 0-3.2-1.6-6.4-4.8-8-9.6l-56-155.2c-1.6-3.2-1.6-8 0-12.8 1.6-3.2 4.8-6.4 9.6-8l132.8-48-132.8-48c-8-3.2-12.8-12.8-9.6-20.8l56-155.2c1.6-3.2 4.8-8 8-9.6 1.6-1.6 4.8-1.6 6.4-1.6s3.2 0 4.8 1.6l776 281.6c3.2 1.6 8 4.8 9.6 8 1.6 4.8 1.6 9.6 0 12.8z" />
<glyph unicode="&#xe95c;" glyph-name="fish" d="M639.552 640.928c73.852-74.864 175.265-122.376 287.764-126.062l0.684-0.018c30.522 61.686 48.378 134.312 48.378 211.11 0 9.561-0.277 19.057-0.823 28.481l0.060-1.302c-2.083 66.177-12.907 129.037-31.357 188.543l1.341-5.023c-1.644 4.852-5.416 8.592-10.175 10.16l-0.113 0.032c-9.488 3.040-226.736 71.184-406.864-11.024 7.408-134.224 41.76-225.568 111.104-294.896zM696 880c22.091 0 40-17.909 40-40s-17.909-40-40-40c-22.091 0-40 17.909-40 40v0c0 22.091 17.909 40 40 40v0zM616.928 618.304c-74.528 74.496-112.784 175.296-120.432 316.848-81.84 25.104-190.896 18.656-253.888-44.272-2.896-2.896-4.688-6.896-4.688-11.315 0-7.158 4.7-13.218 11.182-15.262l0.113-0.031c44.852-17.324 81.403-47.864 105.796-86.798l0.524-0.898c-112.112-181.6-81.504-393.184-69.040-455.536l-216.48-24c-8.059-0.904-14.267-7.68-14.267-15.906 0-4.409 1.783-8.401 4.667-11.295v0l208.224-208.24c2.893-2.884 6.886-4.667 11.294-4.667 8.226 0 15.002 6.208 15.899 14.194l0.007 0.073 24 216.448c42.627-8.762 91.618-13.777 141.781-13.777 0.409 0 0.818 0 1.227 0.001h-0.063c117.248 0 276.528 27.728 400.88 152.080 17.067 17.165 32.365 36.124 45.575 56.558l0.825 1.362c-115.38 7.724-217.798 57.674-293.068 134.362l-0.068 0.070z" />
<glyph unicode="&#xe95d;" glyph-name="fishbone" d="M803.008 402.672c-103.168 5.994-195.517 47.965-265.656 113.429l0.248-0.229 83.632 83.632c-3.92 3.616-8.096 7.040-11.84 10.8s-7.168 7.904-10.784 11.824l-83.648-83.632c-64.544 69.184-106.315 160.357-112.941 261.129l-0.067 1.271c-0.733 8.418-7.748 14.974-16.294 14.974-0.234 0-0.467-0.005-0.699-0.015l0.033 0.001c-8.399-0.538-15.007-7.482-15.007-15.969 0-0.349 0.011-0.695 0.033-1.038l-0.002 0.047c7.127-110.166 52.27-208.6 122.303-283.458l-0.239 0.258-107.472-107.536c-35.189 37.648-63.703 82.067-83.314 131.013l-1.006 2.843c-2.413 5.969-8.161 10.104-14.874 10.104-8.837 0-16-7.163-16-16 0-2.081 0.397-4.069 1.12-5.893l-0.038 0.108c22.316-56.055 53.259-104.116 91.71-145.039l-0.222 0.239-63.056-63.056-228.624-25.408c-8.059-0.904-14.267-7.68-14.267-15.906 0-4.409 1.783-8.401 4.667-11.295v0l208.24-208.192c2.893-2.884 6.886-4.667 11.294-4.667 8.226 0 15.002 6.208 15.899 14.194l0.007 0.073 25.456 228.576 63.248 63.248c32.84-30.937 70.567-57.2 111.795-77.419l2.685-1.189c1.748-0.714 3.776-1.128 5.902-1.128 8.837 0 16 7.163 16 16 0 5.942-3.239 11.127-8.048 13.887l-0.078 0.041c-40.487 19.763-75.279 43.931-105.832 72.568l0.232-0.216 107.2 107.2c75.381-70.568 175.128-115.93 285.337-122.201l1.207-0.055c0.136-0.008 0.296-0.012 0.456-0.012s0.32 0.004 0.478 0.013l-0.022-0.001c0.129-0.004 0.28-0.006 0.432-0.006 8.84 0 16.006 7.166 16.006 16.006 0 8.688-6.922 15.759-15.552 16h-0.022zM945.968 936.72c-1.639 4.868-5.419 8.622-10.191 10.192l-0.113 0.032c-9.76 3.2-241.6 75.792-424.928-19.92-5.168-2.723-8.632-8.058-8.632-14.202 0-1.083 0.108-2.141 0.313-3.164l-0.017 0.102c24.144-123.2 66.528-213.808 129.6-276.8s153.872-105.6 277.2-129.6c0.894-0.183 1.921-0.288 2.973-0.288 0.035 0 0.070 0 0.104 0h-0.005c6.102 0.002 11.405 3.418 14.102 8.443l0.042 0.085c97.312 184.4 22.768 415.392 19.552 425.12zM696 800c-22.091 0-40 17.909-40 40s17.909 40 40 40c22.091 0 40-17.909 40-40v0c0-22.091-17.909-40-40-40v0z" />
<glyph unicode="&#xe95e;" glyph-name="flame" d="M523.2 971.2c-6.4 6.4-16 6.4-22.4 0-14.4-14.4-356.8-361.6-356.8-587.2 0-238.4 190.4-368 368-368s368 129.6 368 368c0 225.6-342.4 572.8-356.8 587.2zM512 240c-1.6 0-144 1.6-144 144 1.6 65.6 100.8 201.6 131.2 243.2 3.2 4.8 8 6.4 12.8 6.4s9.6-1.6 12.8-6.4c30.4-40 129.6-177.6 131.2-241.6 0-144-142.4-145.6-144-145.6z" />
<glyph unicode="&#xe95f;" glyph-name="flower-05" d="M848 672c0 45.859-29.164 86.758-75.617 107.945 17.828 47.82 9.555 97.297-22.797 129.641-32.336 32.336-81.805 40.633-129.641 22.797-21.188 46.453-62.086 75.617-107.945 75.617s-86.758-29.164-107.945-75.617c-47.828 17.836-97.297 9.539-129.641-22.797-32.352-32.344-40.625-81.82-22.797-129.641-46.453-21.188-75.617-62.086-75.617-107.945s29.164-86.758 75.617-107.945c-17.828-47.82-9.555-97.297 22.797-129.641 32.344-32.352 81.812-40.617 129.641-22.797 21.188-46.453 62.086-75.617 107.945-75.617s86.758 29.164 107.945 75.617c47.82-17.812 97.289-9.539 129.641 22.797 32.352 32.344 40.625 81.82 22.797 129.641 46.453 21.188 75.617 62.086 75.617 107.945zM512 576c-53.020 0-96 42.98-96 96s42.98 96 96 96 96-42.98 96-96-42.98-96-96-96zM528 188.629v99.371c0 8.836-7.164 16-16 16s-16-7.164-16-16v-256c0-8.836 7.164-16 16-16s16 7.164 16 16v48.808c98.534 8.149 176 90.556 176 191.192v32c-78.781 0-146.401-47.493-176-115.371z" />
<glyph unicode="&#xe960;" glyph-name="flower-06" d="M528 188.629v99.371c0 8.836-7.156 16-16 16s-16-7.164-16-16v-256c0-8.836 7.156-16 16-16s16 7.164 16 16v48.808c98.534 8.149 176 90.556 176 191.192v32c-78.781 0-146.401-47.493-176-115.371zM848 672c0 40.172-44.672 74.734-115.797 91.203 38.641 61.945 45.797 117.977 17.391 146.383-28.422 28.422-84.453 21.266-146.391-17.391-16.484 71.125-51.047 115.804-91.203 115.804s-74.719-44.68-91.203-115.805c-61.937 38.641-117.969 45.797-146.391 17.391-28.406-28.406-21.25-84.437 17.391-146.383-71.125-16.469-115.797-51.031-115.797-91.203s44.672-74.734 115.812-91.203c-38.641-61.953-45.797-117.984-17.406-146.383 28.406-28.398 84.437-21.258 146.391 17.398 16.484-71.133 51.047-115.812 91.203-115.812s74.719 44.68 91.203 115.812c61.937-38.664 117.984-45.812 146.391-17.398 28.391 28.398 21.234 84.43-17.406 146.383 71.141 16.469 115.812 51.031 115.812 91.203zM512 592c-44.183 0-80 35.817-80 80s35.817 80 80 80 80-35.817 80-80-35.817-80-80-80z" />
<glyph unicode="&#xe961;" glyph-name="flower-07" d="M816 912c-162.766 0-268.125-117.094-304-164.312-35.875 47.219-141.234 164.312-304 164.312-8.844 0-16-7.164-16-16v-224c0-176.445 143.547-320 320-320s320 143.555 320 320v224c0 8.836-7.156 16-16 16zM528 188.629v179.371c0 8.836-7.156 16-16 16s-16-7.164-16-16v-96h-32c-8.844 0-16-7.164-16-16s7.156-16 16-16h32v-208c0-8.836 7.156-16 16-16s16 7.164 16 16v48.808c98.534 8.149 176 90.556 176 191.192v32c-78.781 0-146.401-47.493-176-115.371zM512 797.812c27.859 31.009 69.387 69.347 123.53 99.019-50.941 54.143-112.233 91.060-115.343 92.911-5.031 3.016-11.344 3.016-16.375 0-3.109-1.852-64.401-38.768-115.343-92.911 54.144-29.672 95.671-68.010 123.53-99.019z" />
<glyph unicode="&#xe962;" glyph-name="food-dog" d="M623.602 747.453l-153.126-267.033c13.392-0.258 27.165-0.42 41.524-0.42 70.44 0 128.934 3.325 176.435 8.082l95.827 167.381c29.072-16.648 64.5-22.203 99.385-12.721 69.768 18.963 110.953 90.893 91.99 160.66s-90.893 110.953-160.662 91.992c-18.963 69.768-90.893 110.953-160.66 91.99s-110.955-90.893-91.992-160.662c9.482-34.883 32.205-62.625 61.279-79.27zM1004.688 125.641l-108.719 372.748c-0.47 13.115-8.050 40.577-130.279 60.222l-17.055-29.79c79.222-11.752 108.254-26.31 114.537-32.867-15.719-18.016-140.422-47.953-351.172-47.953-210.953 0-335.688 29.984-351.219 48 14.463 16.776 123.714 43.904 309.007 47.56l18.494 32.248c-86.421-1.224-349.462-10.37-359.789-75.837l-109.181-374.331c-2.203-4.453-3.312-9.031-3.312-13.641 0-94.906 475.75-96 496-96s496 1.094 496 96c0 4.609-1.109 9.188-3.312 13.641z" />
<glyph unicode="&#xe963;" glyph-name="forest" d="M878.437 230.906l-352 736c-2.664 5.555-8.273 9.094-14.437 9.094s-11.773-3.539-14.437-9.094l-352-736c-2.367-4.961-2.031-10.789 0.898-15.437s8.047-7.469 13.539-7.469h704c5.492 0 10.609 2.82 13.539 7.469s3.266 10.476 0.898 15.437zM480 176h64v-128h-64v128zM990.312 423.156l-224 448c-5.422 10.844-23.203 10.844-28.625 0l-66.438-132.876 161.787-338.28h142.964c5.547 0 10.695 2.875 13.609 7.586 2.914 4.719 3.18 10.609 0.703 15.57zM352.75 738.282l-66.437 132.874c-5.422 10.844-23.203 10.844-28.625 0l-224-448c-2.477-4.961-2.211-10.852 0.703-15.57 2.914-4.711 8.062-7.586 13.609-7.586h142.961l161.789 338.282z" />
<glyph unicode="&#xe964;" glyph-name="grain" d="M872.336 663.408c-29.547 29.616-70.402 47.938-115.537 47.938-19.714 0-38.612-3.496-56.108-9.901l1.133 0.363c6.042 16.362 9.538 35.26 9.538 54.975 0 45.135-18.322 85.99-47.935 115.534l-0.003 0.003-2.992 2.976c-2.895 2.894-6.895 4.685-11.312 4.685s-8.417-1.79-11.312-4.685l-29.808-29.824c-29.584-29.65-47.878-70.577-47.878-115.776s18.294-86.126 47.881-115.779l-0.003 0.003 2.992-2.976 2.928-2.944c29.652-29.581 70.578-47.872 115.776-47.872s86.124 18.291 115.779 47.875l29.837 29.837c2.894 2.895 4.685 6.895 4.685 11.312s-1.79 8.417-4.685 11.312v0zM727.504 460.544c-37.095 37.034-88.31 59.936-144.873 59.936-27.874 0-54.45-5.562-78.677-15.636l1.358 0.5c9.574 22.87 15.136 49.445 15.136 77.319 0 56.563-22.902 107.777-59.939 144.875l-3.805 3.805c-2.895 2.894-6.895 4.685-11.312 4.685s-8.417-1.79-11.312-4.685l-38.128-38.128c-37.052-37.060-59.969-88.254-59.969-144.8s22.917-107.74 59.969-144.8v0l3.792-3.824 3.808-3.76c37.060-37.052 88.254-59.969 144.8-59.969s107.74 22.917 144.8 59.969l38.128 38.128c2.894 2.895 4.685 6.895 4.685 11.312s-1.79 8.417-4.685 11.312v0zM535.008 233.472c-41.486 41.36-98.732 66.934-161.951 66.934-33.21 0-64.772-7.057-93.268-19.754l1.459 0.58c12.113 27.035 19.168 58.595 19.168 91.802 0 63.228-25.577 120.482-66.949 161.979l-4.298 4.298c-2.895 2.894-6.895 4.685-11.312 4.685s-8.417-1.79-11.312-4.685l-43.056-43.056c-41.483-41.401-67.147-98.64-67.147-161.872 0-59.847 22.989-114.324 60.617-155.083l-0.142 0.156-88.128-88.144c-3.014-2.914-4.885-6.993-4.885-11.509 0-8.837 7.163-16 16-16 4.516 0 8.595 1.871 11.504 4.88l88.132 88.116c40.604-37.486 95.081-60.475 154.928-60.475 63.233 0 120.472 25.664 161.869 67.143l43.060 43.060c2.894 2.895 4.685 6.895 4.685 11.312s-1.79 8.417-4.685 11.312v0zM955.312 955.312c-3.066 2.828-7.15 4.593-11.645 4.688h-0.019c-3.616-0.096-88.816-2.544-133.872-47.6-46.4-46.4-34.096-120-33.6-123.2 1.197-6.638 6.354-11.795 12.895-12.977l0.097-0.015c7.368-1.204 15.86-1.893 24.513-1.893 0.422 0 0.843 0.002 1.264 0.005h-0.065c1.593-0.066 3.462-0.104 5.339-0.104 35.51 0 67.868 13.492 92.229 35.629l-0.113-0.101c45.12 45.088 47.568 130.288 47.664 133.904 0.002 0.103 0.004 0.224 0.004 0.345 0 4.421-1.793 8.423-4.692 11.319v0z" />
<glyph unicode="&#xe965;" glyph-name="horse" d="M448 880c-11.040 0-22.080-0.464-33.104-1.152-7.579 55.099-54.324 97.092-110.89 97.152h-0.006v-138.8l-227.2-312.496c-8.078-10.908-12.93-24.63-12.93-39.485 0-18.53 7.55-35.296 19.742-47.391l14.772-14.772c14.149-14.173 33.709-22.941 55.316-22.941 14.88 0 28.789 4.158 40.628 11.376l-0.344-0.195 114.528 68.704c84.181 1.988 155.83 53.607 186.972 126.639l0.516 1.361v-128c0-91.008-55.312-135.888-119.36-187.856-63.52-51.552-135.52-109.968-168-223.76-0.389-1.314-0.612-2.823-0.612-4.384 0-8.827 7.148-15.984 15.971-16h552.69c73.945 79.618 119.32 186.662 119.32 304.304 0 247.256-200.44 447.696-447.696 447.696-0.11 0-0.219 0-0.329 0h0.017c-8.837 0-16 7.163-16 16s7.163 16 16 16v0c0.093 0 0.203 0 0.313 0 264.946 0 479.728-214.782 479.728-479.728 0-115.885-41.090-222.173-109.495-305.089l0.654 0.817h52.112c5.47 0.003 10.297 2.749 13.181 6.938l0.035 0.054c57.262 83.18 91.456 186.101 91.456 297.008 0 291.601-236.385 527.991-527.983 528h-0.001zM320 688c-17.673 0-32 14.327-32 32s14.327 32 32 32c17.673 0 32-14.327 32-32v0c0-17.673-14.327-32-32-32v0z" />
<glyph unicode="&#xe966;" glyph-name="jellyfish" d="M512 1008c-256 0-464-208-464-464v-16c0-9.6 6.4-16 16-16h192v-256c0-27.2-20.8-48-48-48s-48 20.8-48 48c0 9.6-6.4 16-16 16s-16-6.4-16-16c0-44.8 35.2-80 80-80s80 35.2 80 80v256h128v-416c0-27.2-20.8-48-48-48s-48 20.8-48 48c0 9.6-6.4 16-16 16s-16-6.4-16-16c0-44.8 35.2-80 80-80s80 35.2 80 80v416h128v-416c0-44.8 35.2-80 80-80s80 35.2 80 80c0 9.6-6.4 16-16 16s-16-6.4-16-16c0-27.2-20.8-48-48-48s-48 20.8-48 48v416h128v-256c0-44.8 35.2-80 80-80s80 35.2 80 80c0 9.6-6.4 16-16 16s-16-6.4-16-16c0-27.2-20.8-48-48-48s-48 20.8-48 48v256h192c9.6 0 16 6.4 16 16v16c0 256-208 464-464 464z" />
<glyph unicode="&#xe967;" glyph-name="leaf-36" d="M904.56 904.576c-46.064 46.064-107.296 71.424-172.448 71.424-65.136 0-126.368-25.36-172.464-71.456l-410.992-413.264c-2.992-2.992-4.656-7.056-4.656-11.28v-313.376l-107.312-107.312c-6.256-6.256-6.256-16.368 0-22.624 3.12-3.12 7.216-4.688 11.312-4.688s8.192 1.568 11.312 4.688l324.88 324.88c9.776 9.776 25.12-3.36 16.96-14.528l-148.368-203.040h227.216c4.24 0 8.288 1.664 11.28 4.656l413.28 411.008c46.064 46.064 71.44 107.312 71.44 172.448s-25.376 126.4-71.44 172.464z" />
<glyph unicode="&#xe968;" glyph-name="leaf-38" d="M488.272 304.416c-100.384-17.584-176.992-102.080-180.192-105.664-5.456-6.096-5.44-15.312 0.032-21.376 4.464-4.944 103.424-113.376 200.752-113.376 7.072 0 14.176 0.576 21.2 1.808 130.448 22.848 209.168 142.4 212.464 147.488 4.688 7.264 2.768 16.944-4.336 21.856-5.328 3.696-131.888 89.968-249.92 69.264zM384.048 370c-2.416 5.264-60.416 129.216-145.84 140.288-106.816 13.888-196.656-59.808-200.448-62.96-6.656-5.536-7.696-15.344-2.352-22.16 3.232-4.128 80.4-101.424 176.992-113.936 8.352-1.088 16.688-1.568 24.912-1.568 72.72 0 137.408 38.096 140.416 39.904 7.008 4.192 9.744 13.008 6.32 20.432zM491.008 544c3.712 0 7.456 1.296 10.464 3.904 4.304 3.712 105.104 92.128 113.44 196.832 7.088 89.104-47.792 172.592-50.144 176.096-4.528 6.8-13.472 9.088-20.72 5.312-5.552-2.896-136-71.984-143.376-164.352-9.2-115.744 74.976-208.736 78.544-212.64 3.168-3.408 7.472-5.152 11.792-5.152zM922.72 420.448c-32.944 114.496-165.184 190.128-170.8 193.296-7.568 4.256-17.088 1.712-21.568-5.664-3.104-5.152-75.712-127.632-39.312-254.24 28.928-100.592 189.632-147.92 196.448-149.888 1.472-0.416 2.96-0.624 4.416-0.624 6.352 0 12.304 3.808 14.816 9.952 1.824 4.432 44.032 109.728 16 207.168zM960 192c-417.2 0-720 316.272-720 752 0 8.832 7.152 16 16 16s16-7.168 16-16c0-417.2 289.344-720 688-720 8.848 0 16-7.168 16-16s-7.152-16-16-16z" />
<glyph unicode="&#xe969;" glyph-name="leaf-80" d="M971.168 971.456c-3.648 3.552-8.768 5.184-13.744 4.336-19.888-3.248-489.232-81.776-680.736-273.28-138.784-138.8-137.936-291.088-115.488-389.984l248.592 163.392c7.504 4.928 15.712-5.152 9.376-11.504l-400.416-400.416 45.248-45.248 168.496 168.496c34.448-14.608 99.392-36.672 177.952-36.672 88.416 0 193.936 27.984 292.064 126.112 205.824 205.84 270.672 661.808 273.328 681.12 0.704 5.040-1.024 10.096-4.672 13.648z" />
<glyph unicode="&#xe96a;" glyph-name="leaf-81" d="M971.168 971.44c-3.648 3.552-8.768 5.184-13.744 4.336-19.888-3.248-489.232-81.776-680.736-273.28-138.784-138.8-137.936-291.088-115.488-389.984l248.592 163.392c7.504 4.928 15.712-5.152 9.376-11.504l-400.416-400.416 45.248-45.248 168.496 168.496c34.448-14.608 99.392-36.672 177.952-36.672 87.792 0 192.416 27.664 289.936 124.096l-53.024 180.256c-2.8 9.536 7.12 17.84 16.016 13.392l133.152-66.576c132.192 224.864 177.12 540.080 179.312 556.064 0.704 5.040-1.024 10.096-4.672 13.648z" />
<glyph unicode="&#xe96b;" glyph-name="lobster" d="M595.52 172.096l51.664 206.672c7.569 29.115 11.915 62.54 11.915 96.98 0 37.449-5.138 73.697-14.747 108.079l0.673-2.819-56.96 208.896c-9.412 33.765-39.893 58.126-76.064 58.126s-66.652-24.361-75.932-57.571l-0.132-0.555-56.96-208.88c-8.937-31.563-14.075-67.812-14.075-105.26 0-34.44 4.346-67.865 12.518-99.756l-0.603 2.776 51.664-206.688c-73.312-16.736-102.912-83.968-108.32-121.824-0.103-0.683-0.162-1.47-0.162-2.272 0-8.837 7.163-16 16-16 0.001 0 0.001 0 0.002 0h352c0.001 0 0.001 0 0.002 0 8.837 0 16 7.163 16 16 0 0.802-0.059 1.589-0.173 2.359l0.011-0.087c-5.408 37.856-35.040 105.088-108.32 121.824zM333.936 504c-25.223 13.253-46.743 29.815-65 49.452l-0.136 0.148c-22.592 29.776-36.256 89.824-41.888 119.376 88.745 9.845 157.138 84.429 157.138 174.986 0 57.404-27.482 108.389-70.006 140.516l-0.444 0.321c-2.644 2.005-5.989 3.213-9.617 3.213-7.708 0-14.143-5.451-15.661-12.709l-0.018-0.104c-17.056-85.408-59.808-147.2-80.304-147.2s-63.248 61.792-80.32 147.2c-1.54 7.356-7.973 12.802-15.677 12.802-3.621 0-6.962-1.203-9.643-3.231l0.040 0.029c-42.935-32.432-70.394-83.383-70.394-140.747 0-92.377 71.208-168.123 161.729-175.341l0.617-0.040c5.296-29.36 20.528-100.96 48.928-138.352 19.056-25.12 59.008-49.824 89.936-66.48-0.24 12.16-0.064 24.176 0.72 36.16zM374.976 254.16l-7.792 31.184c-19.949-7.918-43.129-13.789-67.253-16.553l-1.275-0.119c-37.091 4.752-70.742 13.735-102.413 26.58l2.733-0.98c-1.679 0.654-3.623 1.032-5.656 1.032-8.841 0-16.008-7.167-16.008-16.008 0-6.809 4.251-12.625 10.243-14.939l0.109-0.037c3.008-1.12 73.84-27.696 110.992-27.696 28.112 2.612 53.998 8.822 78.304 18.21l-1.984-0.674zM345.76 371.008c-0.976 3.904-1.68 7.872-2.544 11.824-1.269-0.038-2.762-0.060-4.26-0.060-22.529 0-43.916 4.889-63.157 13.665l0.953-0.389c-37.744 27.072-101.072 86.4-101.712 86.992-2.854 2.681-6.707 4.328-10.944 4.328-8.837 0-16-7.164-16-16 0-4.599 1.941-8.745 5.048-11.664l0.008-0.008c2.656-2.48 65.488-61.36 104.944-89.6 20.048-14.4 60.48-18.608 92.8-19.52zM690.064 504c25.223 13.253 46.743 29.815 65 49.452l0.136 0.148c22.592 29.776 36.256 89.824 41.888 119.376-88.745 9.845-157.138 84.429-157.138 174.986 0 57.404 27.482 108.389 70.006 140.516l0.444 0.321c2.644 2.005 5.989 3.213 9.617 3.213 7.708 0 14.143-5.451 15.661-12.709l0.018-0.104c17.056-85.408 59.808-147.2 80.304-147.2s63.248 61.792 80.32 147.2c1.54 7.356 7.973 12.802 15.677 12.802 3.621 0 6.962-1.203 9.643-3.231l-0.040 0.029c42.935-32.432 70.394-83.383 70.394-140.747 0-92.377-71.208-168.123-161.729-175.341l-0.617-0.040c-5.296-29.36-20.528-100.96-48.928-138.352-19.056-25.12-59.008-49.824-89.936-66.48 0.24 12.16 0.064 24.176-0.72 36.16zM649.024 254.16l7.792 31.184c19.949-7.918 43.129-13.789 67.253-16.553l1.275-0.119c37.091 4.752 70.742 13.735 102.413 26.58l-2.733-0.98c1.679 0.654 3.623 1.032 5.656 1.032 8.841 0 16.008-7.167 16.008-16.008 0-6.809-4.251-12.625-10.243-14.939l-0.109-0.037c-3.008-1.12-73.84-27.696-110.992-27.696-28.112 2.612-53.998 8.822-78.304 18.21l1.984-0.674zM678.24 370.992c0.976 3.92 1.6 7.888 2.544 11.84 1.269-0.038 2.762-0.060 4.26-0.060 22.529 0 43.916 4.889 63.157 13.665l-0.953-0.389c37.744 27.072 101.072 86.4 101.712 86.992 2.854 2.681 6.707 4.328 10.944 4.328 8.837 0 16-7.164 16-16 0-4.599-1.941-8.745-5.048-11.664l-0.008-0.008c-2.656-2.48-65.488-61.36-104.944-89.6-20.048-14.4-60.48-18.608-92.8-19.52z" />
<glyph unicode="&#xe96c;" glyph-name="macro" d="M871.696 414.016c-5.12 2.8-11.344 2.608-16.304-0.528l-311.392-198.16v232.672h-64v-232.672l-311.408 198.176c-4.944 3.136-11.168 3.328-16.304 0.528-5.104-2.816-8.288-8.192-8.288-14.032v-160c0-114.688 93.312-208 208-208h320c114.688 0 208 93.312 208 208v160c0 5.84-3.184 11.216-8.304 14.016zM512 512c149.984 0 272 122.016 272 272v192c0 6.064-3.424 11.6-8.848 14.32s-11.904 2.112-16.752-1.52l-118.4-88.8-118.4 88.8c-5.68 4.272-13.504 4.272-19.184 0l-118.416-88.8-118.4 88.8c-4.848 3.648-11.344 4.24-16.752 1.52-5.424-2.72-8.848-8.256-8.848-14.32v-192c0-149.984 122.016-272 272-272z" />
<glyph unicode="&#xe96d;" glyph-name="mountain" d="M433.188 613.437l78.812 63.055 78.812-63.055 59.961 59.961-124.703 230.219c-5.594 10.328-22.547 10.328-28.141 0l-124.703-230.219 59.961-59.961zM942.070 135.625l-275.398 508.422-73.484-73.484-81.188 64.945-81.188-64.945-73.484 73.484-275.398-508.422c-2.688-4.969-2.563-10.969 0.32-15.812 2.891-4.844 8.109-7.812 13.75-7.812h832c5.641 0 10.859 2.969 13.75 7.812 2.883 4.844 3.008 10.844 0.32 15.812zM373.352 740.82l-88.039 132.055c-3.070 4.594-8.539 7.43-13.789 7.117-5.523-0.164-10.563-3.164-13.344-7.93l-224-384c-2.891-4.953-2.906-11.063-0.055-16.031s8.148-8.031 13.875-8.031h175.407l149.944 276.82zM989.82 488.063l-224 384c-2.781 4.766-7.82 7.766-13.344 7.93-5.258 0.055-10.727-2.531-13.789-7.117l-88.037-132.059 149.942-276.817h175.407c5.727 0 11.023 3.063 13.875 8.031s2.836 11.078-0.055 16.031z" />
<glyph unicode="&#xe96e;" glyph-name="mower" d="M160.24 890.144l102.976-308.592 71.776-12.912-114.032 341.76c-13.082 38.44-48.865 65.6-90.99 65.6-0.029 0-0.057 0-0.086 0h-97.884v-64h97.888c0.001 0 0.002 0 0.002 0 14.044 0 25.975-9.047 30.283-21.631l0.067-0.225zM784 487.824v120.176c0 0.024 0 0.052 0 0.080 0 8.273-6.279 15.080-14.332 15.914l-0.069 0.006-320 32c-0.441 0.042-0.954 0.066-1.472 0.066-4.178 0-7.989-1.567-10.88-4.145l0.016 0.014c-3.239-2.939-5.264-7.165-5.264-11.863 0-0.025 0-0.051 0-0.076v0.004-88.816zM176 384c-88.366 0-160-71.634-160-160s71.634-160 160-160c88.366 0 160 71.634 160 160v0c-0.1 88.325-71.675 159.9-159.99 160h-0.010zM176 112c-61.856 0-112 50.144-112 112s50.144 112 112 112c61.856 0 112-50.144 112-112v0c-0.073-61.827-50.174-111.927-111.993-112h-0.007zM176 416c0.229 0.001 0.5 0.002 0.771 0.002 105.615 0 191.232-85.617 191.232-191.232 0-17.339-2.308-34.139-6.632-50.109l0.309 1.339h359.136c-0.51 4.795-0.801 10.358-0.801 15.989 0 88.366 71.634 160 160 160 17.135 0 33.641-2.694 49.117-7.68l-1.132 0.315v17.856c0 0.005 0 0.012 0 0.018 0 39.172-28.154 71.769-65.331 78.658l-0.493 0.076-634.352 114.176c-5.96 1.125-12.817 1.768-19.824 1.768-61.856 0-112-50.144-112-112 0-0.003 0-0.006 0-0.009v0-46.864c23.455 11.15 50.963 17.671 79.991 17.696h0.009zM880 320c-70.692 0-128-57.308-128-128s57.308-128 128-128c70.692 0 128 57.308 128 128v0c-0.082 70.659-57.34 127.918-127.992 128h-0.008zM880 112c-44.183 0-80 35.817-80 80s35.817 80 80 80c44.183 0 80-35.817 80-80v0c-0.055-44.161-35.839-79.945-79.995-80h-0.005z" />
<glyph unicode="&#xe96f;" glyph-name="mushroom" d="M512 1008c-281.563 0-496-266.594-496-400 0-87.172 250.312-176 496-176 250.312 0 496 87.172 496 176 0 133.406-214.437 400-496 400zM336 576c-44.183 0-80 35.817-80 80s35.817 80 80 80 80-35.817 80-80-35.817-80-80-80zM640 624c-70.692 0-128 57.308-128 128s57.308 128 128 128 128-57.308 128-128-57.308-128-128-128zM758.106 426.358c-77.767-16.956-163.473-26.358-246.106-26.358-82.484 0-168.151 9.792-245.93 27.144l-17.977-66.598c-22.344-82.797-5.25-169.328 46.891-237.406 52.141-68.094 131.235-107.141 217-107.141s164.844 39.047 217 107.141c52.141 68.094 69.219 154.625 46.875 237.437l-17.753 65.78z" />
<glyph unicode="&#xe970;" glyph-name="octopus" d="M512 1008c-238.4 0-432-193.6-432-432v-128c0-9.6 6.4-16 16-16h144v-336c0-27.2-20.8-48-48-48s-48 20.8-48 48c0 9.6-6.4 16-16 16s-16-6.4-16-16c0-44.8 35.2-80 80-80s80 35.2 80 80v336h96v-304c0-9.6 6.4-16 16-16s16 6.4 16 16v304h96v-400c0-9.6 6.4-16 16-16s16 6.4 16 16v400h96v-304c0-9.6 6.4-16 16-16s16 6.4 16 16v304h96v-336c0-44.8 35.2-80 80-80s80 35.2 80 80c0 9.6-6.4 16-16 16s-16-6.4-16-16c0-27.2-20.8-48-48-48s-48 20.8-48 48v336h144c9.6 0 16 6.4 16 16v128c0 238.4-193.6 432-432 432zM416 688h-112c-9.6 0-16 6.4-16 16v0c0 9.6 6.4 16 16 16h112c9.6 0 16-6.4 16-16v0c0-9.6-6.4-16-16-16zM720 688h-112c-9.6 0-16 6.4-16 16v0c0 9.6 6.4 16 16 16h112c9.6 0 16-6.4 16-16v0c0-9.6-6.4-16-16-16z" />
<glyph unicode="&#xe971;" glyph-name="organic-2" d="M512 992c-265.097 0-480-214.903-480-480s214.903-480 480-480c265.097 0 480 214.903 480 480v0c-0.309 264.972-215.027 479.69-479.97 480h-0.030zM512 64c-247.424 0-448 200.576-448 448s200.576 448 448 448c247.424 0 448-200.576 448-448v0c-0.291-247.307-200.694-447.709-447.973-448h-0.027zM496 464v-192c159.058 0 288 128.942 288 288v0 192c-159.058 0-288-128.942-288-288v0zM240 592v-96c0-123.712 100.288-224 224-224v0 96c0 123.712-100.288 224-224 224v0z" />
<glyph unicode="&#xe972;" glyph-name="organic" d="M913.92 817.744c-2.487 5.805-8.152 9.799-14.749 9.799-2.243 0-4.377-0.461-6.315-1.294l0.104 0.040c-62.237-27.977-115.664-59.204-165.316-95.309l2.628 1.821c31.685-64.502 51.242-140.081 53.708-219.964l0.020-0.836c0-138.416-68.128-257.488-165.12-308.896 7.689-5.023 16.549-9.758 25.822-13.713l1.138-0.431c19.687-8.248 42.565-13.040 66.563-13.040 0.123 0 0.245 0 0.368 0h-0.019c39.266 0.594 75.812 11.718 107.094 30.662l-0.95-0.534c58.686 35.862 103.803 88.936 128.862 152.145l0.738 2.111c76.832 188.928-30 446.576-34.576 457.44zM110.080 817.744c2.487 5.805 8.152 9.799 14.749 9.799 2.243 0 4.377-0.461 6.315-1.294l-0.104 0.040c62.237-27.977 115.664-59.204 165.316-95.309l-2.628 1.821c-31.685-64.502-51.242-140.081-53.708-219.964l-0.020-0.836c0-138.416 68.128-257.488 165.12-308.896-7.689-5.023-16.549-9.758-25.822-13.713l-1.138-0.431c-19.687-8.248-42.565-13.040-66.563-13.040-0.123 0-0.245 0-0.368 0h0.019c-39.266 0.594-75.812 11.718-107.094 30.662l0.95-0.534c-58.686 35.862-103.803 88.936-128.862 152.145l-0.738 2.111c-76.832 188.928 30 446.576 34.576 457.44zM512 16c-8.837 0-16 7.163-16 16v0 128c0 8.837 7.163 16 16 16s16-7.163 16-16v0-128c0-8.837-7.163-16-16-16v0zM523.696 986.928c-2.992 2.996-7.127 4.85-11.696 4.85s-8.704-1.854-11.696-4.85v0c-9.312-10-228.304-247.248-228.304-474.928 0-160.784 99.2-292.464 224-302.976v247.632l-106.4 91.2c-3.167 2.932-5.142 7.111-5.142 11.752 0 8.837 7.163 16 16 16 3.772 0 7.239-1.305 9.974-3.489l-0.032 0.025 85.6-73.376v157.232c0 8.837 7.163 16 16 16s16-7.163 16-16v0-253.232l85.6 73.376c2.703 2.159 6.17 3.464 9.942 3.464 8.837 0 16-7.163 16-16 0-4.641-1.976-8.82-5.132-11.742l-0.010-0.010-106.4-91.2v-151.632c124.88 10.512 224 142.192 224 302.976 0 227.68-218.992 464.928-228.304 474.928z" />
<glyph unicode="&#xe973;" glyph-name="owl" d="M368 608c0-26.51-21.49-48-48-48s-48 21.49-48 48c0 26.51 21.49 48 48 48s48-21.49 48-48zM752 608c0-26.51-21.49-48-48-48s-48 21.49-48 48c0 26.51 21.49 48 48 48s48-21.49 48-48zM834.909 816c-16.88 30.929-37.79 59.312-62.69 84.219-69.5 69.5-161.914 107.781-260.219 107.781s-190.719-38.281-260.211-107.781c-24.9-24.894-45.817-53.288-62.699-84.219h-173.090v-16c0-73.762 38.759-138.364 96.851-175.213-0.447-5.553-0.851-11.121-0.851-16.787 0-64.751 29.761-122.664 76.302-160.842-28.074-36.205-44.302-80.784-44.302-127.158 0-45.484 14.609-88.812 42.25-125.312l19.25-25.422 8.875 30.625c11.163 38.517 39.64 70.979 75.688 89.162l123.858-215.084c0.57-0.984 1.258-1.906 2.031-2.734 20.195-34.156 56.688-55.234 96.047-55.234 39.297 0 75.734 21 95.945 55.062 0.812 0.875 1.531 1.844 2.141 2.906l123.854 215.083c36.047-18.183 64.522-50.646 75.686-89.161l8.875-30.625 19.25 25.422c27.641 36.5 42.25 79.828 42.25 125.313 0 46.374-16.228 90.953-44.302 127.158 46.541 38.178 76.302 96.091 76.302 160.842 0 5.666-0.403 11.234-0.851 16.787 58.092 36.849 96.851 101.451 96.851 175.213v16h-173.091zM320 432c-97.047 0-176 78.953-176 176s78.953 176 176 176 176-78.953 176-176-78.953-176-176-176zM512 304c-20.188 0-48 64.891-48 112 0 31.594 25.742 80 48 80s48-48.406 48-80c0-47.109-27.812-112-48-112zM704 432c-97.047 0-176 78.953-176 176s78.953 176 176 176 176-78.953 176-176-78.953-176-176-176z" />
<glyph unicode="&#xe974;" glyph-name="panda" d="M384 576c0-26.51-21.49-48-48-48s-48 21.49-48 48c0 26.51 21.49 48 48 48s48-21.49 48-48zM736 576c0-26.51-21.49-48-48-48s-48 21.49-48 48c0 26.51 21.49 48 48 48s48-21.49 48-48zM959.437 612.078c-14.318 38.232-32.722 77.031-55.094 114.349 60.501 17.467 103.656 72.831 103.656 137.573 0 79.406-64.594 144-144 144-61.543 0-115.203-39.024-135.313-95.49-62.018 39.188-134.346 63.49-216.687 63.49s-154.669-24.303-216.687-63.49c-20.11 56.466-73.77 95.49-135.313 95.49-79.406 0-144-64.594-144-144 0-64.742 43.155-120.106 103.656-137.573-22.372-37.317-40.775-76.116-55.094-114.349-46.938-125.328-83.828-302.219 6.953-433.156 74.953-108.109 223.156-162.922 440.484-162.922s365.531 54.812 440.484 162.922c90.781 130.937 53.891 307.828 6.953 433.156zM268.359 371.016c-22.625 0-44.5 10.078-63.297 29.141-27.875 28.281-44.828 71.891-44.219 113.797 0.922 63.484 80.609 212.859 186.703 212.859 40.563 0 93.422-17.656 114.922-101.781 11.5-44.906 7.578-69.578-39.359-136.359-40.891-58.172-91.235-117.656-154.75-117.656zM576 112c-26.261 0-49.404 12.892-64 32.495-14.596-19.603-37.739-32.495-64-32.495-44.109 0-80 35.891-80 80 0 8.844 7.156 16 16 16s16-7.156 16-16c0-26.469 21.531-48 48-48s48 21.531 48 48v38.261c-8.294 2.947-15.804 7.89-21.484 14.974l-61.422 76.781c-11.625 14.547-13.844 34-5.781 50.781s24.641 27.203 43.266 27.203h122.844c18.625 0 35.203-10.422 43.266-27.203s5.844-36.234-5.781-50.781l-61.422-76.781c-5.68-7.084-13.19-12.026-21.484-14.973v-38.261c0-26.469 21.531-48 48-48s48 21.531 48 48c0 8.844 7.156 16 16 16s16-7.156 16-16c0-44.109-35.891-80-80-80zM818.937 400.156c-18.797-19.063-40.672-29.141-63.297-29.141-63.516 0-113.859 59.484-154.75 117.656-46.937 66.781-50.859 91.453-39.359 136.359 21.5 84.125 74.359 101.781 114.922 101.781 106.094 0 185.781-149.375 186.703-212.859 0.609-41.906-16.344-85.516-44.219-113.797z" />
<glyph unicode="&#xe975;" glyph-name="parrot" d="M640 1008h-272c-167.818-0.191-303.809-136.182-304-303.982v-672.018c0-8.837 7.163-16 16-16v0h272c167.818 0.191 303.809 136.182 304 303.982v672.018c0 8.837-7.163 16-16 16v0zM400 560c-79.529 0-144 64.471-144 144s64.471 144 144 144c79.529 0 144-64.471 144-144v0c0-79.529-64.471-144-144-144v0zM736 1008h-48v-256h304c0 141.385-114.615 256-256 256v0zM448 704c0-26.51-21.49-48-48-48s-48 21.49-48 48c0 26.51 21.49 48 48 48s48-21.49 48-48zM688 560h48c88.366 0 160 71.634 160 160v0h-208z" />
<glyph unicode="&#xe976;" glyph-name="paw" d="M708.328 477.937c-44.234 71.422-117.625 114.063-196.328 114.063s-152.094-42.641-196.328-114.063c-0.188-0.297-0.359-0.609-0.531-0.937l-84.484-159.578c-43.672-82.531-18.156-168.563 26.531-217.203 46.297-50.406 113.063-65.563 174.281-39.516l7.297 3.094c47.25 20.063 99.266 20.047 146.453 0.016l7.328-3.109c19.797-8.422 40.188-12.531 60.266-12.531 42 0 82.703 17.953 114 52.047 44.688 48.641 70.203 134.672 26.531 217.203l-85.016 160.516zM354.922 656.070c1.531 0 3.078 0.039 4.625 0.125 61.656 3.234 108.453 70.375 104.312 149.664-4.172 79.305-57.812 141.414-119.406 137.945-61.656-3.234-108.453-70.375-104.312-149.664 4.063-77.312 55.078-138.070 114.781-138.070zM207.031 585.852c-9.766 31.758-27.984 59.039-51.266 76.82-24.891 19.008-52.656 25.148-78.125 17.289-25.5-7.844-45-28.516-54.906-58.219-9.266-27.797-8.984-60.594 0.781-92.344 9.766-31.758 27.984-59.039 51.266-76.82 17.828-13.609 37.125-20.625 56.016-20.625 7.469 0 14.891 1.109 22.125 3.328 50.594 15.578 74.859 83.125 54.109 150.57zM1001.266 621.742c-9.906 29.703-29.406 50.375-54.906 58.219-25.484 7.844-53.234 1.719-78.125-17.289-23.281-17.781-41.5-45.063-51.266-76.82-20.75-67.445 3.516-134.992 54.109-150.57 7.234-2.219 14.656-3.328 22.125-3.328 18.891 0 38.188 7.016 56.016 20.625 23.281 17.781 41.5 45.063 51.266 76.82 9.765 31.75 10.047 64.547 0.781 92.344zM664.203 656.211c1.594-0.086 3.172-0.133 4.766-0.133 59.641 0 110.672 60.633 114.859 137.859 4.312 79.281-42.359 146.5-104.031 149.852-1.594 0.086-3.172 0.133-4.766 0.133-59.641 0-110.672-60.633-114.859-137.859-4.313-79.281 42.359-146.5 104.031-149.852z" />
<glyph unicode="&#xe977;" glyph-name="penguin" d="M576 640c-26.51 0-48 21.49-48 48s21.49 48 48 48c26.51 0 48-21.49 48-48v0c0-26.51-21.49-48-48-48v0zM576 704c-8.837 0-16-7.163-16-16s7.163-16 16-16c8.837 0 16 7.163 16 16v0c0 8.837-7.163 16-16 16v0zM624 688c0-26.51-21.49-48-48-48s-48 21.49-48 48c0 26.51 21.49 48 48 48s48-21.49 48-48zM968.88 621.312l-138.176 92.112c-13.557 165.391-151.127 294.483-318.848 294.483-176.652 0-319.856-143.204-319.856-319.856 0-0.018 0-0.035 0-0.053v0.002-384c0-120.336-122.72-259.984-123.968-261.376-2.505-2.812-4.036-6.539-4.036-10.624 0-8.837 7.163-16 16-16 0.002 0 0.003 0 0.005 0h416v112c0.191 167.818 136.182 303.809 303.982 304h32.018v71.44l136.88 91.2c4.32 2.91 7.124 7.784 7.124 13.312s-2.804 10.402-7.067 13.276l-0.057 0.036zM576 544c-79.529 0-144 64.471-144 144s64.471 144 144 144c79.529 0 144-64.471 144-144v0c0-79.529-64.471-144-144-144v0zM528 128v-111.184c169.541 8.808 303.712 148.281 304 319.155v64.029h-32c-150.152-0.173-271.827-121.848-272-271.983v-0.017z" />
<glyph unicode="&#xe978;" glyph-name="pet-food" d="M1004.688 301.641l-108.728 372.778c-0.594 14.092-10.757 47.835-181.032 67.101-34.035 44.504-85.049 74.48-138.928 74.48-43.016 0-82.422-15.312-114.703-44.414-24.484 10.992-55.125 12.414-77.297 12.414-39.445 0-75.186-17.526-101.183-45.833-145.459-19.852-154.281-49.95-154.783-63.77l-108.722-372.757c-2.203-4.453-3.313-9.031-3.313-13.641 0-94.906 475.75-96 496-96s496 1.094 496 96c0 4.609-1.109 9.188-3.312 13.641zM512 624c-210.688 0-335.375 29.914-351.156 47.937 5.811 5.979 30.891 18.898 97.22 30.135-4.078-8.106-7.6-16.594-10.348-25.484 57.877-12.459 165.765-20.588 264.284-20.588 98.655 0 182.802 5.281 238.091 15.179-3.364 12.254-8.040 24.071-13.614 35.414 88.167-11.947 120.056-27.593 126.695-34.632-15.672-18.016-140.375-47.961-351.172-47.961z" />
<glyph unicode="&#xe979;" glyph-name="pig-2" d="M1008.003 992c0 8.836-7.164 16-16 16-143.501 0-251.914-30.832-322.705-91.497-49.145 17.765-102.1 27.497-157.298 27.497s-108.151-9.732-157.296-27.496c-70.791 60.666-179.203 91.496-322.704 91.496-8.836 0-16-7.164-16-16 0-193.617 16.411-274.631 68.956-330.601-23.772-55.753-36.956-117.062-36.956-181.399 0-255.844 208.148-464 464-464s464 208.156 464 464c0 64.336-13.183 125.644-36.955 181.397 52.547 55.97 68.958 136.983 68.958 330.603zM117.232 723.479c-21.904 34.352-34.376 91.464-36.795 219.209 87.992-4.932 157.308-24 207.615-56.476-69.934-38.709-128.85-94.933-170.82-162.733zM272 640c0 26.51 21.49 48 48 48s48-21.49 48-48-21.49-48-48-48-48 21.49-48 48zM576 160h-128c-88.365 0-160 71.635-160 160s71.635 160 160 160h128c88.365 0 160-71.634 160-160s-71.635-160-160-160zM704 592c-26.51 0-48 21.49-48 48s21.49 48 48 48 48-21.49 48-48-21.49-48-48-48zM735.948 886.212c50.308 32.476 119.624 51.544 207.617 56.476-2.419-127.748-14.891-184.861-36.797-219.212-41.971 67.801-100.887 124.027-170.82 162.736zM464 320c0-26.51-21.49-48-48-48s-48 21.49-48 48c0 26.51 21.49 48 48 48s48-21.49 48-48zM656 320c0-26.51-21.49-48-48-48s-48 21.49-48 48c0 26.51 21.49 48 48 48s48-21.49 48-48z" />
<glyph unicode="&#xe97a;" glyph-name="plant-ground" d="M672 624c-63.465 0-118.136-37.046-144-90.608v422.468c0 8.836-7.156 16-16 16s-16-7.164-16-16v-262.468c-25.864 53.563-80.535 90.608-144 90.608h-32v-64c0-88.365 71.635-160 160-160h16v-304c0-8.836 7.156-16 16-16s16 7.164 16 16v144h16c88.365 0 160 71.635 160 160v64h-32zM992 80h-304.891c-7.984 71.898-69.109 128-143.109 128-52.219 0-99.391-27.859-124.812-72.367-10.938 5.461-22.969 8.367-35.188 8.367-38.641 0-70.953-27.531-78.391-64h-273.609c-8.844 0-16-7.164-16-16s7.156-16 16-16h960c8.844 0 16 7.164 16 16s-7.156 16-16 16z" />
<glyph unicode="&#xe97b;" glyph-name="plant-vase" d="M672 768c-63.465 0-118.136-37.046-144-90.608v314.608c0 8.836-7.156 16-16 16s-16-7.164-16-16v-154.608c-25.864 53.562-80.535 90.608-144 90.608h-32v-64c0-88.365 71.635-160 160-160h16v-256c0-8.836 7.156-16 16-16s16 7.164 16 16v96h16c88.365 0 160 71.635 160 160v64h-32zM896 400h-768c-8.844 0-16-7.164-16-16v-96c0-8.836 7.156-16 16-16h112v-240c0-8.836 7.156-16 16-16h512c8.844 0 16 7.164 16 16v240h112c8.844 0 16 7.164 16 16v96c0 8.836-7.156 16-16 16z" />
<glyph unicode="&#xe97c;" glyph-name="rabbit" d="M863 590.609c49.907 77.438 107.266 251.016 83.532 346.797-7.016 28.312-20.594 48.297-40.328 59.406-92.344 51.906-267.5-109.453-332.109-214.609-22.266-36.25-43.562-81.453-60.625-128.484-49.547 8.922-98.422 6.203-145.5-8.203-133.969-40.953-223.969-171.766-223.969-325.516v-64c0-130.094 109.906-240 240-240h63.312c162.188 0 299.328 111.688 326.109 265.578 10.641 61.172 3.578 123.219-20.422 180.188 42.422 39.125 82.11 85.578 110 128.844zM384 304c-26.51 0-48 21.49-48 48s21.49 48 48 48 48-21.49 48-48-21.49-48-48-48zM358.609 676.125c31.938 9.766 65.016 14.719 98.297 14.719 11.828 0 23.766-0.625 35.75-1.875 8.021 20.156 16.764 39.84 25.92 58.426-36.56 106.531-97.326 208.957-150.467 245.184-18.781 12.828-36.688 17.641-53.203 14.453-16-3.109-29.578-13.828-40.344-31.859-39.205-65.563-37.633-229.416-11.873-346.805 28.845 20.723 60.965 37.071 95.92 47.758z" />
<glyph unicode="&#xe97d;" glyph-name="rat" d="M514 96c-35.128 0-62.196-14.516-85.362-39.546 27.911-25.455 56.092-40.454 83.362-40.454 28.004 0 56.965 15.893 85.611 42.606-22.931 23.444-49.14 37.394-83.611 37.394zM902.359 327.828l-149.215-22.361c56.393 127.674 94.856 263.848 94.856 331.33 0 151.75-150.734 275.203-336 275.203s-336-123.453-336-275.203c0-67.481 38.463-203.656 94.856-331.33l-149.215 22.361c-8.906 1.172-16.891-4.719-18.203-13.453-1.312-8.75 4.719-16.891 13.453-18.203l169.806-25.447c13.564-28.598 27.996-56.281 42.992-82.346l-169.47-28.863c-8.703-1.469-14.563-9.734-13.078-18.453 1.328-7.797 8.094-13.312 15.75-13.312 0.891 0 1.797 0.078 2.703 0.234l181.765 30.958c18.992-30.286 38.745-57.371 58.803-79.666l2.261 2.442c27.219 29.406 65.703 46.281 105.578 46.281 39.031 0 75.594-15.422 102.953-43.406l2.927-2.992c19.356 21.853 38.415 48.084 56.762 77.341l181.765-30.958c0.906-0.156 1.812-0.234 2.703-0.234 7.656 0 14.422 5.516 15.75 13.312 1.484 8.719-4.375 16.984-13.078 18.453l-169.47 28.863c14.996 26.064 29.429 53.748 42.992 82.346l169.806 25.447c8.734 1.312 14.766 9.453 13.453 18.203-1.297 8.734-9.281 14.625-18.203 13.453zM384 464c-26.51 0-48 21.49-48 48s21.49 48 48 48 48-21.49 48-48-21.49-48-48-48zM640 464c-26.51 0-48 21.49-48 48s21.49 48 48 48 48-21.49 48-48-21.49-48-48-48zM144 636.797c0 151.96 132.884 278.43 306.729 302.864-47.436 43.368-111.32 68.339-178.729 68.339-141.156 0-256-107.656-256-240 0-90.402 55.352-172.655 138.986-213.279-7.072 33.227-10.986 61.58-10.986 82.076zM752 1008c-67.409 0-131.294-24.971-178.729-68.339 173.846-24.435 306.729-150.904 306.729-302.864 0-20.496-3.914-48.85-10.986-82.076 83.634 40.624 138.986 122.877 138.986 213.279 0 132.344-114.844 240-256 240z" />
<glyph unicode="&#xe97e;" glyph-name="shark-2" d="M976 240c-9.6 0-16-6.4-16-16 0-62.4-49.6-112-112-112-40 0-78.4 22.4-97.6 59.2-4.8 9.6-22.4 9.6-28.8 0-19.2-36.8-57.6-59.2-97.6-59.2s-78.4 22.4-97.6 59.2c-4.8 9.6-22.4 9.6-28.8 0-19.2-36.8-57.6-59.2-97.6-59.2s-78.4 22.4-97.6 59.2c-4.8 9.6-22.4 9.6-28.8 0-19.2-36.8-57.6-59.2-97.6-59.2-62.4 0-112 49.6-112 112 0 9.6-6.4 16-16 16s-16-6.4-16-16c0-80 64-144 144-144 43.2 0 84.8 20.8 112 54.4 27.2-33.6 68.8-54.4 112-54.4s84.8 20.8 112 54.4c27.2-33.6 68.8-54.4 112-54.4s84.8 20.8 112 54.4c27.2-33.6 68.8-54.4 112-54.4 80 0 144 64 144 144 0 9.6-6.4 16-16 16zM224 944c-4.8 0-9.6-3.2-12.8-6.4-3.2-4.8-4.8-9.6-1.6-16 1.6-3.2 129.6-348.8 0-595.2-3.2-4.8-1.6-11.2 0-16 3.2-4.8 8-8 14.4-8h576c9.6 0 16 6.4 16 16v32c0 328-265.6 593.6-592 593.6z" />
<glyph unicode="&#xe97f;" glyph-name="shark" d="M512 1008c-238.477-0.273-431.727-193.523-432-431.974v-544.026c0-8.837 7.163-16 16-16v0h832c8.837 0 16 7.163 16 16v0 544c-0.273 238.477-193.523 431.727-431.974 432h-0.026zM208 600c0 30.928 25.072 56 56 56s56-25.072 56-56c0-30.928-25.072-56-56-56v0c-30.928 0-56 25.072-56 56v0zM512 295.376c-96 0-256-96-256-96 0 159.024 96.944 280.624 256 280.624s256-121.6 256-280.624c0 0-160 96-256 96zM760 544c-30.928 0-56 25.072-56 56s25.072 56 56 56c30.928 0 56-25.072 56-56v0c0-30.928-25.072-56-56-56v0z" />
<glyph unicode="&#xe980;" glyph-name="sheep" d="M576 1008c-40.5 0-78.172-16.781-105.437-46.516-16.758 9.539-35.359 14.516-54.563 14.516-61.758 0-112-50.242-112-112s50.242-112 112-112c19.203 0 37.805 4.977 54.563 14.516 27.266-29.734 64.937-46.516 105.437-46.516 79.398 0 144 64.602 144 144s-64.602 144-144 144zM992 848h-240.811c-8.12-89.566-83.543-160-175.189-160-41.578 0-80.523 14.219-111.852 40.453-15.43-5.563-31.742-8.453-48.148-8.453-73.984 0-135.064 56.112-143.056 128h-240.944c-8.836 0-16-7.164-16-16 0-97.245 66.55-180.048 160-202.045v-277.955c0-179.865 142.178-326.754 320-335.189v149.448c-8.3 2.948-15.812 7.896-21.484 14.991l-61.414 76.766c-11.633 14.547-13.852 34-5.789 50.781 8.070 16.781 24.648 27.203 43.266 27.203h122.844c18.617 0 35.195-10.422 43.266-27.203 8.063-16.781 5.844-36.234-5.789-50.781l-61.422-76.781c-5.668-7.086-13.177-12.029-21.476-14.976v-149.447c177.822 8.436 320 155.324 320 335.189v277.955c93.45 21.997 160 104.8 160 202.045 0 8.836-7.164 16-16 16zM448 432c-8.836 0-16 7.156-16 16 0 26.469-21.531 48-48 48s-48-21.531-48-48c0-8.844-7.164-16-16-16s-16 7.156-16 16c0 44.109 35.891 80 80 80s80-35.891 80-80c0-8.844-7.164-16-16-16zM704 432c-8.836 0-16 7.156-16 16 0 26.469-21.531 48-48 48s-48-21.531-48-48c0-8.844-7.164-16-16-16s-16 7.156-16 16c0 44.109 35.891 80 80 80s80-35.891 80-80c0-8.844-7.164-16-16-16z" />
<glyph unicode="&#xe981;" glyph-name="shell" d="M673.376 112h70.128c40.661 0.063 74.217 30.402 79.333 69.677l0.043 0.403 15.68 125.488zM185.44 307.552l15.68-125.472c5.159-39.678 38.715-70.017 79.37-70.080h70.134zM920.688 755.36c-5.731 2.639-12.434 4.178-19.497 4.178-18.693 0-34.869-10.779-42.65-26.461l-0.124-0.277-185.6-371.904c-2.682-5.297-8.085-8.864-14.321-8.864-0.028 0-0.056 0-0.084 0h0.004c-0.056-0.001-0.122-0.001-0.188-0.001-2.523 0-4.908 0.591-7.024 1.642l0.092-0.041c-5.289 2.684-8.851 8.083-8.851 14.314 0 2.603 0.622 5.061 1.725 7.233l-0.042-0.091 204 408.72c3.25 6.245 5.156 13.637 5.156 21.474 0 5.162-0.827 10.13-2.355 14.78l0.095-0.334c-19.723 60.195-75.074 103.040-140.537 103.775l-0.087 0.001c-6.776-0.002-13.432-0.502-19.938-1.466l0.738 0.090c-21.204-3.016-37.827-19.416-41.148-40.252l-0.036-0.276-72.816-483.968c-1.193-7.754-7.814-13.624-15.807-13.632h-0.001c-0.844 0.003-1.67 0.067-2.478 0.187l0.094-0.011c-7.759 1.194-13.632 7.823-13.632 15.824 0 0.836 0.064 1.656 0.188 2.458l-0.011-0.089 74.528 495.36c0.328 2.118 0.515 4.562 0.515 7.049 0 15.281-7.063 28.911-18.101 37.807l-0.093 0.073c-24.407 20.090-55.981 32.271-90.4 32.271s-65.993-12.181-90.646-32.468l0.246 0.197c-11.132-8.968-18.195-22.599-18.195-37.879 0-2.487 0.187-4.93 0.548-7.317l-0.033 0.268 74.48-495.36c0.112-0.712 0.176-1.532 0.176-2.368 0-8.001-5.873-14.63-13.543-15.812l-0.089-0.011c-0.714-0.109-1.54-0.173-2.381-0.176h-0.003c-7.994 0.008-14.615 5.878-15.797 13.543l-0.011 0.089-72.768 483.968c-3.357 21.112-19.98 37.512-40.926 40.498l-0.258 0.030c-5.768 0.874-12.425 1.374-19.198 1.376h-0.002c-65.55-0.736-120.901-43.58-140.324-102.72l-0.3-1.056c-1.433-4.316-2.26-9.284-2.26-14.446 0-7.837 1.906-15.229 5.28-21.737l-0.124 0.263 203.856-408.672c1.061-2.081 1.683-4.539 1.683-7.142 0-6.231-3.561-11.629-8.76-14.272l-0.091-0.042c-2.024-1.010-4.409-1.601-6.932-1.601-0.066 0-0.132 0-0.198 0.001h0.010c-0.024 0-0.051 0-0.079 0-6.236 0-11.639 3.568-14.279 8.773l-0.042 0.091-185.456 371.856c-7.906 15.959-24.082 26.738-42.775 26.738-7.063 0-13.767-1.539-19.794-4.3l0.297 0.122c-52.095-25.604-87.317-78.287-87.317-139.196 0-0.451 0.002-0.902 0.006-1.353v0.069c0.023-39.332 14.565-75.263 38.557-102.728l-0.157 0.184 340.8-403.392c26.459-36.467 68.94-59.909 116.896-59.909s90.437 23.442 116.608 59.493l0.288 0.416 340.608 403.392c23.835 27.281 38.377 63.212 38.4 102.539v0.005c0.003 0.382 0.005 0.832 0.005 1.284 0 60.91-35.222 113.593-86.41 138.793l-0.907 0.404z" />
<glyph unicode="&#xe982;" glyph-name="shovel" d="M480 803.712v-243.712h64v243.712c64.032 14.608 112 71.904 112 140.288v48c0 8.832-7.168 16-16 16h-256c-8.832 0-16-7.168-16-16v-48c0-68.384 47.968-125.68 112-140.288zM400 976h224v-32c0-61.76-50.24-112-112-112s-112 50.24-112 112v32zM784 528h-544c-8.832 0-16-7.168-16-16v-288c0-114.688 93.312-208 208-208h160c114.688 0 208 93.312 208 208v288c0 8.832-7.168 16-16 16z" />
<glyph unicode="&#xe983;" glyph-name="shrimp" d="M871.392 302.192c-2.143 1.149-4.689 1.824-7.392 1.824-3.436 0-6.618-1.091-9.217-2.945l0.048 0.033-272.032-173.104h-22.8c-85.744 0-143.216 46.944-165.52 112h-310.816c67.613-115.51 191.042-191.889 332.32-192h448.016c8.837 0 16 7.163 16 16v0 224c0 0.001 0 0.001 0 0.002 0 6.135-3.453 11.463-8.521 14.148l-0.087 0.042zM132.912 691.2l286.656-285.76c21.756 29.86 54.186 50.812 91.579 57.27l0.853 0.122v353.168h-96c-0.050 0-0.109 0-0.168 0-111.913 0-212.617-47.988-282.659-124.51l-0.262-0.29zM386.576 272c-1.611 9.601-2.547 20.68-2.576 31.972v0.028c0.27 26.913 6.942 52.207 18.561 74.514l-0.433-0.914-289.856 288.944c-50.062-64.073-80.272-145.772-80.272-234.526 0-58.045 12.921-113.072 36.044-162.361l-0.988 2.343zM845.088 976h-445.088c-8.837 0-16-7.163-16-16s7.163-16 16-16v0h445.088c63.435-0.073 114.839-51.477 114.912-114.905v-13.095h-416v-352h112c185.48 0.219 335.782 150.521 336 335.979v29.109c-0.091 81.101-65.811 146.821-146.903 146.912h-0.009zM680 624c-22.091 0-40 17.909-40 40s17.909 40 40 40c22.091 0 40-17.909 40-40v0c0-22.091-17.909-40-40-40v0z" />
<glyph unicode="&#xe984;" glyph-name="sloth" d="M512 1008c-220.812-0.255-399.745-179.189-400-399.976v-576.024c0-8.837 7.163-16 16-16v0h768c8.837 0 16 7.163 16 16v0 576c-0.255 220.812-179.189 399.745-399.976 400h-0.024zM288 560c-8.837 0-16 7.163-16 16v0c0 44.183 35.817 80 80 80s80-35.817 80-80v0c0-8.837-7.163-16-16-16s-16 7.163-16 16v0c0 26.51-21.49 48-48 48s-48-21.49-48-48v0c0-8.837-7.163-16-16-16v0zM608 176c-40.564 0.020-76.083 21.601-95.72 53.904l-0.28 0.496c-19.937-32.764-55.452-54.311-96-54.311-61.825 0-111.949 50.094-112 111.906v0.005c0 8.837 7.163 16 16 16s16-7.163 16-16v0c0-44.183 35.817-80 80-80s80 35.817 80 80v0 49.6c-36.777 7.704-64 39.865-64 78.384 0 44.183 35.817 80 80 80s80-35.817 80-80c0-38.519-27.223-70.68-63.479-78.292l-0.521-0.092v-49.6c0-44.183 35.817-80 80-80s80 35.817 80 80v0c0 8.837 7.163 16 16 16s16-7.163 16-16v0c-0.073-61.827-50.174-111.927-111.993-112h-0.007zM736 560c-8.837 0-16 7.163-16 16v0c0 26.51-21.49 48-48 48s-48-21.49-48-48v0c0-8.837-7.163-16-16-16s-16 7.163-16 16v0c0 44.183 35.817 80 80 80s80-35.817 80-80v0c0-8.837-7.163-16-16-16v0z" />
<glyph unicode="&#xe985;" glyph-name="snake" d="M880 304h-43.62c26.674 23.476 43.62 57.759 43.62 96 0 70.578-57.422 128-128 128h-16v320c0 70.578-57.422 128-128 128h-160c-70.578 0-128-57.422-128-128 0-16.984 3.396-33.173 9.431-48.017-41.352-6.219-60.287-26.612-77.056-45.108-17.648-19.453-31.648-34.891-73.859-34.891-0.82 0-1.625-0.016-2.523 0.016-8.734 0-15.875-7.031-15.992-15.797-0.11-8.828 6.961-16.094 15.797-16.203 0.883-0.016 1.75-0.016 2.617-0.016 56.484 0 78.344 24.094 97.656 45.391 16.605 18.3 31.419 34.077 70.968 36.23 23.44-30.119 59.93-49.605 100.962-49.605h48c40.667 0 82.667 4.667 112 16-16.163-34.774-73.277-43.974-112-46.687v-161.313h-224c-70.578 0-128-57.422-128-128 0-38.241 16.946-72.524 43.62-96h-43.62c-70.578 0-128-57.422-128-128s57.422-128 128-128h736c70.578 0 128 57.422 128 128s-57.422 128-128 128zM464 832c-17.673 0-32 14.327-32 32s14.327 32 32 32c17.674 0 32-14.326 32-32s-14.326-32-32-32z" />
<glyph unicode="&#xe986;" glyph-name="spider" d="M512 624c8.844 0 16 7.156 16 16v320c0 8.844-7.156 16-16 16s-16-7.156-16-16v-320c0-8.844 7.156-16 16-16zM512 272c-61.75 0-112-50.25-112-112s50.25-112 112-112 112 50.25 112 112-50.25 112-112 112zM948.156 360.016c-37.078 64.141-106.125 103.984-180.156 103.984-20.744 0-41.074-3.132-60.705-9.115-8.048 22.095-19.554 42.528-34.16 60.42 24.835 46.755 73.423 76.695 126.865 76.695 20.031 0 39.406-4.031 57.594-11.969 8.125-3.609 17.531 0.156 21.062 8.25 3.547 8.094-0.156 17.531-8.25 21.062-22.25 9.734-45.937 14.656-70.406 14.656-61.829 0-118.62-32.597-150.27-84.559-36.731 32.584-84.887 52.559-137.73 52.559s-100.999-19.975-137.73-52.559c-31.649 51.962-88.44 84.559-150.27 84.559-24.469 0-48.156-4.922-70.406-14.656-8.094-3.531-11.797-12.969-8.25-21.062 3.531-8.094 12.953-11.859 21.062-8.25 18.188 7.937 37.563 11.969 57.594 11.969 53.442 0 102.030-29.94 126.865-76.695-14.606-17.892-26.112-38.325-34.16-60.42-19.631 5.983-39.961 9.115-60.705 9.115-74.031 0-143.078-39.844-180.156-103.984-4.438-7.656-1.812-17.438 5.828-21.859 2.531-1.469 5.281-2.156 8-2.156 5.531 0 10.906 2.859 13.859 7.984 31.406 54.297 89.813 88.016 152.469 88.016 17.764 0 35.173-2.729 51.963-7.9-2.549-12.987-3.963-26.377-3.963-40.1 0-31.716 7.465-62.428 20.872-90.149-68.757-24.742-116.872-91.422-116.872-165.851 0-8.844 7.156-16 16-16s16 7.156 16 16c0 62.963 42.018 119.202 101.289 137.712 11.364-16.425 25.252-31.048 40.925-43.74 23.221 48.428 72.586 82.028 129.786 82.028 57.236 0 106.629-33.644 129.83-82.12 15.705 12.688 29.618 27.33 40.994 43.801 59.213-18.546 101.176-74.758 101.176-137.681 0-8.844 7.156-16 16-16s16 7.156 16 16c0 74.399-48.077 141.056-116.793 165.821 13.357 27.7 20.793 58.416 20.793 90.179 0 13.723-1.414 27.112-3.963 40.1 16.79 5.172 34.199 7.9 51.963 7.9 62.656 0 121.062-33.719 152.469-88.016 2.953-5.125 8.328-7.984 13.859-7.984 2.719 0 5.469 0.688 8 2.156 7.641 4.422 10.266 14.203 5.828 21.859z" />
<glyph unicode="&#xe987;" glyph-name="tree-01" d="M704 48h-160v96h-64v-96h-160c-8.836 0-16-7.164-16-16s7.164-16 16-16h384c8.836 0 16 7.164 16 16s-7.164 16-16 16zM522.688 971.906c-6.047 5.422-15.227 5.461-21.32 0.055-11.977-10.648-293.367-263.406-293.367-491.961 0-167.625 136.375-304 304-304s304 136.375 304 304c0 225.875-281.336 481.148-293.312 491.906zM651.312 484.688l-123.312-123.312v-57.375c0-8.836-7.164-16-16-16s-16 7.164-16 16v153.375l-123.312 123.312c-6.25 6.25-6.25 16.375 0 22.625s16.375 6.25 22.625 0l100.688-100.688v185.375c0 8.836 7.164 16 16 16s16-7.164 16-16v-281.375l100.688 100.688c6.25 6.25 16.375 6.25 22.625 0s6.25-16.375 0-22.625z" />
<glyph unicode="&#xe988;" glyph-name="tree-02" d="M704 48h-160v128h-64v-128h-160c-8.836 0-16-7.164-16-16s7.164-16 16-16h384c8.836 0 16 7.164 16 16s-7.164 16-16 16zM835.078 612.789c8.5 18.617 12.922 38.758 12.922 59.211 0 79.398-64.602 144-144 144h-16.734c0.492 5.328 0.734 10.672 0.734 16 0 97.047-78.953 176-176 176s-176-78.953-176-176c0-5.328 0.242-10.672 0.734-16h-16.734c-79.398 0-144-64.602-144-144 0-20.453 4.422-40.594 12.922-59.211-83.93-28.344-140.922-106.547-140.922-196.789 0-114.695 93.305-208 208-208h512c114.695 0 208 93.305 208 208 0 90.242-56.992 168.445-140.922 196.789zM651.312 484.688l-123.312-123.312v-57.375c0-8.836-7.164-16-16-16s-16 7.164-16 16v153.375l-123.312 123.312c-6.25 6.25-6.25 16.375 0 22.625s16.375 6.25 22.625 0l100.688-100.688v185.375c0 8.836 7.164 16 16 16s16-7.164 16-16v-281.375l100.688 100.688c6.25 6.25 16.375 6.25 22.625 0s6.25-16.375 0-22.625z" />
<glyph unicode="&#xe989;" glyph-name="tree-03" d="M704 48h-160v96h-64v-96h-160c-8.836 0-16-7.164-16-16s7.164-16 16-16h384c8.836 0 16 7.164 16 16s-7.164 16-16 16zM941.93 199.875l-416 736c-5.672 10.047-22.188 10.047-27.859 0l-416-736c-2.797-4.953-2.758-11.023 0.109-15.937s8.133-7.938 13.82-7.938h832c5.688 0 10.953 3.023 13.82 7.937s2.906 10.984 0.109 15.938zM651.312 452.688l-123.312-123.312v-57.375c0-8.836-7.164-16-16-16s-16 7.164-16 16v153.375l-123.312 123.312c-6.25 6.25-6.25 16.375 0 22.625s16.375 6.25 22.625 0l100.688-100.688v185.375c0 8.836 7.164 16 16 16s16-7.164 16-16v-281.375l100.688 100.688c6.25 6.25 16.375 6.25 22.625 0s6.25-16.375 0-22.625z" />
<glyph unicode="&#xe98a;" glyph-name="turtle" d="M368 447.063c0-205.453 75.359-431.063 144-431.063s144 225.609 144 431.063c0 182.641-65.937 336.937-144 336.937s-144-154.297-144-336.937zM336 447.063c0 142.807 36.851 264.228 92.132 325.759-144.742-37.928-252.132-171.073-252.132-329.524 0-166.334 115.979-364.405 264.36-414.967-65.311 85.24-104.36 276.272-104.36 418.732zM595.868 772.821c55.281-61.53 92.132-182.952 92.132-325.759 0-142.461-39.050-333.492-104.36-418.732 148.382 50.562 264.36 248.633 264.36 414.967 0 158.451-107.39 291.597-252.132 329.524zM311.99 755.903c-23.036 7.997-47.104 12.097-71.99 12.097-123.516 0-224-100.484-224-224 0-23.969 3.922-47.859 11.672-71 1.875-5.609 6.703-9.734 12.547-10.703 0.875-0.141 1.75-0.219 2.625-0.219 4.937 0 9.656 2.281 12.719 6.281 25.726 33.669 60.784 56.992 100.083 68.119 23.317 91.415 80.165 169.259 156.345 219.425zM512 816c51.078 0 99.747-10.612 144-29.743v77.743c0 79.406-64.594 144-144 144s-144-64.594-144-144v-77.743c44.253 19.131 92.922 29.743 144 29.743zM784 768c-24.887 0-48.954-4.1-71.99-12.097 76.18-50.166 133.027-128.010 156.345-219.425 39.299-11.127 74.357-34.45 100.083-68.119 3.063-4 7.781-6.281 12.719-6.281 0.875 0 1.75 0.078 2.625 0.219 5.844 0.969 10.672 5.094 12.547 10.703 7.75 23.141 11.672 47.031 11.672 71 0 123.516-100.484 224-224 224zM857.677 304.703c-18.224-58.617-46.987-116.17-84.114-166.25-0.932-1.256-1.908-2.425-2.847-3.667 34.56-7.961 80.076-22.013 113.394-45.458 2.719-1.922 5.953-2.922 9.203-2.922 1.594 0 3.188 0.234 4.75 0.719 4.734 1.469 8.516 5.063 10.25 9.703 8.234 22.188 12.422 44.422 12.422 66.078 0 55.048-23.418 106.161-63.058 141.797zM250.437 138.453c-37.127 50.080-65.891 107.633-84.114 166.25-39.64-35.636-63.058-86.749-63.058-141.797 0-21.656 4.188-43.891 12.422-66.078 1.734-4.641 5.516-8.234 10.25-9.703 1.563-0.484 3.156-0.719 4.75-0.719 3.25 0 6.484 1 9.203 2.922 33.317 23.445 78.833 37.497 113.394 45.458-0.939 1.242-1.915 2.411-2.847 3.667z" />
<glyph unicode="&#xe98b;" glyph-name="virus" d="M383.264 894.048c-29.443-26.759-50.48-62.294-58.978-102.456l-0.222-1.256c52.693 36.109 117.829 57.664 188 57.664s135.307-21.556 189.148-58.406l-1.148 0.742c-8.72 41.418-29.757 76.953-59.043 103.571l-0.157 0.141 75.392 87.52c2.746 2.868 4.436 6.766 4.436 11.058 0 8.837-7.163 16-16 16-5.154 0-9.739-2.437-12.665-6.221l-0.027-0.037-76.672-88.768c-29.189 19.080-64.933 30.431-103.328 30.431s-74.139-11.351-104.060-30.879l0.732 0.448-76.544 88.832c-2.954 3.821-7.538 6.258-12.692 6.258-8.837 0-16-7.163-16-16 0-4.293 1.69-8.19 4.442-11.064l-0.006 0.006zM192.864 247.488l-72.8-41.6c-3.74-2.166-6.482-5.702-7.56-9.905l-0.024-0.111-32-128c-0.302-1.162-0.475-2.495-0.475-3.869 0-7.46 5.105-13.727 12.012-15.499l0.111-0.024c1.161-0.301 2.495-0.476 3.869-0.48h0.003c7.453 0.010 13.711 5.114 15.48 12.017l0.024 0.111 30.4 121.376 62.56 35.744q-6.528 14.752-11.6 30.24zM176 448h-128c-8.837 0-16-7.163-16-16s7.163-16 16-16v0h128zM204.416 646.752l-62.56 35.744-30.4 121.376c-1.92 6.838-8.099 11.769-15.43 11.769-8.837 0-16-7.163-16-16 0-1.245 0.142-2.457 0.411-3.62l-0.021 0.108 32-128c1.102-4.314 3.844-7.85 7.507-9.975l0.077-0.041 72.8-41.6q5.136 15.488 11.616 30.24zM831.136 247.488l72.8-41.6c3.74-2.166 6.482-5.702 7.56-9.905l0.024-0.111 32-128c0.302-1.162 0.475-2.495 0.475-3.869 0-7.46-5.105-13.727-12.012-15.499l-0.111-0.024c-1.161-0.301-2.495-0.476-3.869-0.48h-0.003c-7.453 0.010-13.711 5.114-15.48 12.017l-0.024 0.111-30.4 121.376-62.56 35.744q6.528 14.752 11.6 30.24zM848 448h128c8.837 0 16-7.163 16-16s-7.163-16-16-16v0h-128zM819.584 646.752l62.56 35.744 30.4 121.376c1.662 7.201 8.018 12.487 15.61 12.487 8.837 0 16-7.163 16-16 0-1.506-0.208-2.963-0.597-4.344l0.027 0.113-32-128c-1.102-4.314-3.844-7.85-7.507-9.975l-0.077-0.041-72.8-41.6q-5.12 15.488-11.616 30.24zM512 816c-167.818-0.191-303.809-136.182-304-303.982v-160.018c0-167.895 136.105-304 304-304s304 136.105 304 304v0 160c-0.191 167.818-136.182 303.809-303.982 304h-0.018z" />
<glyph unicode="&#xe98c;" glyph-name="water-surface" d="M32 368c0.020 0 0.043 0 0.066 0 46.315 0 87.971 19.95 116.842 51.726l0.116 0.13c11.347 12.28 27.46 20.012 45.383 20.24h0.041l5.344-0.24c17.185-1.147 32.361-8.916 43.155-20.75l0.045-0.050c28.962-31.395 70.309-50.991 116.232-50.991s87.27 19.596 116.133 50.883l0.099 0.108c11.821 12.782 28.679 20.758 47.4 20.758s35.579-7.976 47.361-20.716l0.039-0.043c29.010-31.403 70.4-51.001 116.367-51.001 42.009 0 80.195 16.368 108.528 43.074l-0.079-0.074c11.456 10.91 26.996 17.623 44.104 17.623s32.648-6.713 44.13-17.648l-0.026 0.025c28.052-26.659 66.076-43.058 107.931-43.058 0.278 0 0.555 0.001 0.832 0.002h-0.043c5.722-0.074 11.221-0.898 16.444-2.38l-0.444 0.108v178.272c0.001 0.052 0.001 0.114 0.001 0.176 0 8.7-7.021 15.761-15.707 15.824h-0.006c-0.337-0.002-0.736-0.003-1.136-0.003-54.581 0-104.168 21.383-140.84 56.23l0.088-0.083c-2.896 2.749-6.82 4.44-11.139 4.44-4.27 0-8.153-1.653-11.046-4.353l0.009 0.009c-36.849-34.828-86.7-56.24-141.551-56.24-60.044 0-114.095 25.657-151.789 66.606l-0.132 0.146c-2.938 3.229-7.157 5.247-11.848 5.247s-8.91-2.018-11.836-5.234l-0.012-0.013c-37.773-41.094-91.782-66.755-151.784-66.755s-114.010 25.661-151.65 66.607l-0.134 0.148c-2.908 3.196-7.071 5.207-11.705 5.248h-0.007c-0.112 0.003-0.244 0.005-0.376 0.005-4.514 0-8.577-1.933-11.405-5.017l-0.010-0.011c-37.577-41.215-91.494-66.977-151.429-66.977-0.195 0-0.391 0-0.586 0.001h0.030c-0.129 0.004-0.28 0.006-0.432 0.006-8.555 0-15.498-6.901-15.567-15.439v-178.839c4.779 1.374 10.278 2.198 15.958 2.272h0.042zM32 608c0.020 0 0.043 0 0.066 0 46.315 0 87.971 19.95 116.842 51.726l0.116 0.13c11.347 12.28 27.46 20.012 45.383 20.24h0.041l5.344-0.24c17.185-1.147 32.361-8.916 43.155-20.75l0.045-0.050c28.962-31.395 70.309-50.991 116.232-50.991s87.27 19.596 116.133 50.883l0.099 0.108c11.821 12.782 28.679 20.758 47.4 20.758s35.579-7.976 47.361-20.716l0.039-0.043c29.010-31.403 70.4-51.001 116.367-51.001 42.009 0 80.195 16.368 108.528 43.074l-0.079-0.074c11.456 10.91 26.996 17.623 44.104 17.623s32.648-6.713 44.13-17.648l-0.026 0.025c28.052-26.659 66.076-43.058 107.931-43.058 0.278 0 0.555 0.001 0.832 0.002h-0.043c5.722-0.074 11.221-0.898 16.444-2.38l-0.444 0.108v178.272c0.001 0.052 0.001 0.114 0.001 0.176 0 8.7-7.021 15.761-15.707 15.824h-0.006c-0.337-0.002-0.736-0.003-1.136-0.003-54.581 0-104.168 21.383-140.84 56.23l0.088-0.083c-2.896 2.749-6.82 4.44-11.139 4.44-4.27 0-8.153-1.653-11.046-4.353l0.009 0.009c-36.575-34.82-86.183-56.242-140.795-56.242-0.311 0-0.622 0.001-0.933 0.002h0.048c-0.112 0-0.245 0-0.377 0-59.887 0-113.779 25.666-151.276 66.599l-0.139 0.153c-2.938 3.229-7.157 5.247-11.848 5.247s-8.91-2.018-11.836-5.234l-0.012-0.013c-37.773-41.094-91.782-66.755-151.784-66.755s-114.010 25.661-151.65 66.607l-0.134 0.148c-2.908 3.196-7.071 5.207-11.705 5.248h-0.007c-0.106 0.003-0.231 0.004-0.356 0.004-4.521 0-8.59-1.933-11.426-5.017l-0.010-0.011c-37.577-41.215-91.494-66.977-151.429-66.977-0.195 0-0.391 0-0.586 0.001h0.030c-0.129 0.004-0.28 0.006-0.432 0.006-8.555 0-15.498-6.901-15.567-15.439v-178.839c4.779 1.374 10.278 2.198 15.958 2.272h0.042zM992 320c-0.26-0.001-0.568-0.002-0.876-0.002-54.619 0-104.235 21.422-140.905 56.322l0.085-0.080c-2.865 2.731-6.752 4.411-11.032 4.411s-8.167-1.68-11.038-4.418l0.006 0.006c-36.852-34.829-86.705-56.241-141.559-56.241-60.047 0-114.101 25.657-151.797 66.607l-0.132 0.146c-3.002 3.096-7.201 5.018-11.848 5.018s-8.846-1.922-11.844-5.014l-0.004-0.004c-37.773-41.094-91.782-66.755-151.784-66.755s-114.010 25.661-151.65 66.607l-0.134 0.148c-2.939 3.234-7.161 5.255-11.855 5.255-4.587 0-8.724-1.931-11.641-5.023l-0.007-0.008c-37.577-41.215-91.494-66.977-151.429-66.977-0.195 0-0.391 0-0.586 0.001h0.030c-8.837 0-16-7.163-16-16v0-160c0-8.837 7.163-16 16-16v0h960c8.837 0 16 7.163 16 16v0 160c0 8.837-7.163 16-16 16v0z" />
<glyph unicode="&#xe98d;" glyph-name="water-wave" d="M32 304c0.020 0 0.043 0 0.066 0 46.315 0 87.971 19.95 116.842 51.726l0.116 0.13c11.653 12.364 28.119 20.081 46.388 20.144h0.012c18.822-0.039 35.75-8.115 47.541-20.976l0.043-0.048c28.962-31.395 70.309-50.991 116.232-50.991s87.27 19.596 116.133 50.883l0.099 0.108c11.821 12.782 28.679 20.758 47.4 20.758s35.579-7.976 47.361-20.716l0.039-0.043c29.010-31.403 70.4-51.001 116.367-51.001 42.009 0 80.195 16.368 108.528 43.074l-0.079-0.074c11.456 10.91 26.996 17.623 44.104 17.623s32.648-6.713 44.13-17.648l-0.026 0.025c28.042-26.612 66.033-42.978 107.847-42.978 0.302 0 0.603 0.001 0.904 0.003h-0.047c5.722-0.074 11.221-0.898 16.444-2.38l-0.444 0.108v162.272c0 8.837-7.163 16-16 16v0h-43.648c-139.488 0-211.728 97.824-219.824 188.8-5.12 57.6 16.624 129.728 94.768 143.744 7.545 1.384 13.188 7.908 13.188 15.751 0 3.788-1.316 7.268-3.516 10.008l0.024-0.031c-3.52 4.416-87.568 108.352-208.416 120.64-65.6 6.656-128.672-14.928-187.6-64.144-68.4-57.104-99.84-134.704-130.224-209.712-44.544-110.064-83.024-205.056-231.104-205.056h-43.648c-8.837 0-16-7.163-16-16v0-162.272c4.779 1.374 10.278 2.198 15.958 2.272h0.042zM992 256c-0.26-0.001-0.568-0.002-0.876-0.002-54.619 0-104.235 21.422-140.905 56.322l0.085-0.080c-2.865 2.731-6.752 4.411-11.032 4.411s-8.167-1.68-11.038-4.418l0.006 0.006c-36.852-34.829-86.705-56.241-141.559-56.241-60.047 0-114.101 25.657-151.797 66.607l-0.132 0.146c-3.002 3.096-7.201 5.018-11.848 5.018s-8.846-1.922-11.844-5.014l-0.004-0.004c-37.773-41.094-91.782-66.755-151.784-66.755s-114.010 25.661-151.65 66.607l-0.134 0.148c-2.939 3.234-7.161 5.255-11.855 5.255-4.587 0-8.724-1.931-11.641-5.023l-0.007-0.008c-37.577-41.215-91.494-66.977-151.429-66.977-0.195 0-0.391 0-0.586 0.001h0.030c-8.837 0-16-7.163-16-16v0-128c0-8.837 7.163-16 16-16v0h960c8.837 0 16 7.163 16 16v0 128c0 8.837-7.163 16-16 16v0z" />
<glyph unicode="&#xe98e;" glyph-name="weed" d="M526.4 968c-6.4 9.6-22.4 9.6-27.2 0-3.2-6.4-91.2-153.6-91.2-339.2s86.4-332.8 91.2-339.2c3.2-4.8 8-8 14.4-8s11.2 3.2 14.4 8c3.2 6.4 91.2 153.6 91.2 339.2-3.2 185.6-89.6 332.8-92.8 339.2zM596.8 241.6c3.2-3.2 6.4-4.8 11.2-4.8 1.6 0 1.6 0 3.2 0 4.8 1.6 121.6 24 209.6 112s110.4 203.2 112 209.6c1.6 4.8 0 11.2-4.8 14.4s-11.2 4.8-16 3.2c-4.8-1.6-121.6-24-209.6-112s-110.4-203.2-112-209.6c1.6-3.2 3.2-9.6 6.4-12.8zM776 208c-97.6 0-174.4-65.6-177.6-67.2-4.8-3.2-6.4-8-6.4-12.8s1.6-9.6 6.4-12.8c3.2-3.2 80-67.2 177.6-67.2s174.4 65.6 177.6 67.2c3.2 3.2 6.4 8 6.4 12.8s-1.6 9.6-6.4 12.8c-3.2 1.6-80 67.2-177.6 67.2zM204.8 352c88-88 203.2-110.4 209.6-112 1.6 0 1.6 0 3.2 0 4.8 0 8 1.6 11.2 4.8s4.8 9.6 4.8 14.4c-1.6 4.8-24 121.6-112 209.6s-203.2 110.4-209.6 112c-4.8 1.6-11.2 0-14.4-4.8-3.2-3.2-4.8-9.6-4.8-14.4 1.6-6.4 24-123.2 112-209.6zM248 208c-97.6 0-174.4-65.6-177.6-67.2-4.8-3.2-6.4-8-6.4-12.8s1.6-9.6 6.4-12.8c3.2-3.2 80-67.2 177.6-67.2s174.4 65.6 177.6 67.2c3.2 3.2 6.4 8 6.4 12.8s-1.6 9.6-6.4 12.8c-3.2 1.6-80 67.2-177.6 67.2z" />
<glyph unicode="&#xe98f;" glyph-name="wolf" d="M911.922 961.594c-0.594 5.891-4.391 10.969-9.859 13.219-5.5 2.219-11.734 1.281-16.312-2.516l-185.156-154.312c-25.438 8.094-102.313 30.016-188.594 30.016s-163.156-21.922-188.594-30.016l-185.156 154.313c-4.578 3.797-10.812 4.734-16.312 2.516-5.469-2.25-9.266-7.328-9.859-13.219l-64-640c-0.234-2.359 0.062-4.75 0.859-6.984 23.141-64.594 96.281-138.406 200.688-202.5 89.163-54.73 181.334-89.924 246.375-95.066v153.634l-92.797 123.729c-3.641 4.844-4.219 11.328-1.516 16.75 2.719 5.422 8.25 8.844 14.313 8.844h192c6.062 0 11.594-3.422 14.312-8.844 2.703-5.422 2.125-11.906-1.516-16.75l-92.797-123.729v-153.634c65.041 5.143 157.212 40.336 246.375 95.066 104.406 64.094 177.547 137.906 200.688 202.5 0.797 2.234 1.094 4.625 0.859 6.984l-64 640zM352 464c-35.347 0-64 28.654-64 64s28.653 64 64 64 64-28.653 64-64c0-35.346-28.653-64-64-64zM672 464c-35.347 0-64 28.654-64 64s28.653 64 64 64 64-28.653 64-64c0-35.346-28.653-64-64-64z" />
<glyph unicode="&#xe990;" glyph-name="wood" d="M960 976h-96c-6.063 0-11.594-3.422-14.312-8.844l-81.688-163.383-81.688 163.383c-2.719 5.422-8.25 8.844-14.312 8.844h-352c-8.844 0-16-7.164-16-16v-418.852l-151.406 96.352c-6.312 4.008-14.594 3.133-19.906-2.188l-80-80c-5.984-5.992-6.281-15.609-0.641-21.945l251.953-283.453v-185.914c0-8.836 7.156-16 16-16h176v256c0 8.836 7.156 16 16 16s16-7.164 16-16v-256h432c8.844 0 16 7.164 16 16v896c0 8.836-7.156 16-16 16zM528 400c0-8.836-7.156-16-16-16s-16 7.164-16 16v32c0 8.836 7.156 16 16 16s16-7.164 16-16v-32z" />
<glyph unicode="&#xe991;" glyph-name="wool-ball" d="M576 976c-238.208 0-432-193.792-432-432s193.792-432 432-432 432 193.792 432 432-193.792 432-432 432zM317.792 238.848c44.96 115.232 122.512 211.504 220.208 279.072-38.992 49.136-69.888 103.808-91.872 161.888-72.224-73.856-166.704-118.608-269.936-127.6 0.224 10.848 0.752 21.632 1.824 32.256 99.056 9.776 189.168 55.28 256.24 129.472-18.096 58-27.552 118.816-27.552 180.384 0 4.080 0.16 8.112 0.336 12.144 10.704 5.008 21.648 9.6 32.832 13.664-0.592-8.544-1.168-17.104-1.168-25.824 0-130.512 44.784-257.36 126.176-358.8 42.256 26.032 87.712 46.944 135.488 62.048-75.568 79.76-118.512 186.432-118.512 296.768 0 15.488 1.072 31.808 3.248 49.456 10.784-0.24 21.488-0.8 32.048-1.888-2.176-17.12-3.296-32.832-3.296-47.568 0-109.44 43.216-210.96 121.712-286.816 47.36 11.872 96.608 18.192 146.928 18.192 28.016 0 56.496-2.272 86.32-6.672 2.080-10.928 3.792-21.984 4.96-33.2-31.824 5.184-61.856 7.872-91.28 7.872-240.208 0-455.152-150.304-538.624-375.152-8.944 6.416-17.664 13.168-26.080 20.304zM953.472 411.856c-23.92 4.368-47.712 6.672-70.928 6.672-169.184 0-321.648-109.504-377.216-268.144-10.624 1.904-21.136 4.16-31.456 6.88 58.944 173.312 224.64 293.248 408.672 293.248 26.352 0 53.344-2.768 80.416-7.936-2.752-10.416-5.952-20.64-9.488-30.72zM288 32h-176c-52.944 0-96 43.056-96 96s43.056 96 96 96h80c8.848 0 16-7.168 16-16s-7.152-16-16-16h-80c-35.296 0-64-28.704-64-64s28.704-64 64-64h176c8.848 0 16-7.168 16-16s-7.152-16-16-16z" />
<glyph unicode="&#xea01;" glyph-name="bat-line" d="M166.636 829.7c-141.796-95.124-190.732-283.62-113.296-436.404 13.916-27.452 20.924-29.124 55.452-13.208 51.676 23.82 108.92 15.644 149.936-21.416 18.468-16.684 34.692-44.812 41.532-72.012 6.32-25.148 14.048-28.796 49.336-23.3 53.916 8.392 98.448-6.908 138.684-47.644 13.632-13.804 26.892-23.716 31.72-23.716s18.088 9.912 31.72 23.716c40.236 40.736 84.768 56.036 138.684 47.644 35.288-5.496 43.016-1.848 49.336 23.3 11.080 44.056 38.74 77.76 78.908 96.152 17.020 7.792 28.292 9.92 53.1 10.028 27.192 0.12 35.312-1.624 59.46-12.752 35.084-16.172 41.504-14.44 56.324 15.212 65.12 130.272 40.004 287.504-62.516 391.4-25.66 26.004-74.652 61.3-85.084 61.3-14.556 0-23.32-11.708-26.22-35.028-6.292-50.564-27.044-90.528-65.488-126.124-20.18-18.68-60.976-42.848-72.332-42.848-2.356 0-3.892 24.496-3.892 62 0 56.668-0.688 62.688-8 70-4.4 4.4-11.448 8-15.66 8-4.216 0-29.456-14.4-56.096-32-46.908-30.992-49.18-32-72.244-32s-25.336 1.008-72.244 32c-26.64 17.6-51.88 32-56.096 32-4.212 0-11.26-3.6-15.66-8-7.312-7.312-8-13.332-8-70 0-37.504-1.536-62-3.892-62-10.976 0-51.568 23.748-71.204 41.656-39.448 35.972-59.952 75.608-66.932 129.384-2.768 21.3-11.932 32.96-25.904 32.96-3.384 0-18.428-8.236-33.432-18.3M185.684 766.28c5.916-31.544 30.62-71.364 65.932-106.28 33.976-33.596 52.844-45.716 93.416-60.004l20.792-7.32 6.428-25.34c8.192-32.284 16.388-47.868 36.856-70.076 48.284-52.38 126.584-63.988 188.18-27.888 19.848 11.632 46.908 39.704 57.032 59.172 3.848 7.4 9.892 24.856 13.428 38.792l6.428 25.34 20.792 7.32c38.024 13.392 58.128 25.74 88.72 54.504 32.944 30.976 56.568 66.664 67.192 101.5 3.688 12.1 7.128 22.632 7.648 23.4 2.768 4.124 37.092-29.152 56.036-54.324 60.252-80.056 76.288-176.984 45.008-272.076-4.524-13.752-9.428-24.98-10.9-24.956-1.468 0.024-11.672 2.84-22.672 6.26-26.016 8.088-79.344 8.2-106.788 0.22-27.040-7.86-64.468-31.888-84.66-54.352-8.496-9.452-20.752-28.528-27.24-42.388l-11.796-25.204-28.964 0.3c-49.796 0.516-84.824-11.052-125.552-41.46l-21-15.68-21 15.68c-40.728 30.408-75.756 41.976-125.552 41.46l-28.964-0.3-11.796 25.204c-6.488 13.86-18.744 32.936-27.24 42.388-20.192 22.464-57.62 46.492-84.66 54.352-27.444 7.98-80.772 7.868-106.788-0.22-11-3.42-21.204-6.236-22.672-6.26-1.472-0.024-6.376 11.204-10.9 24.956-36.532 111.060-7.064 228.908 77.016 308 11.108 10.448 21.428 19 22.932 19s3.892-6.172 5.308-13.72M450.388 692l30.64-20h77.944l30.64 20c16.848 11 31.656 20 32.9 20s1.596-31.948 0.78-71c-1.624-77.824-3.624-85.636-28.74-112.352-21.264-22.616-40.468-30.464-74.552-30.464s-53.288 7.848-74.552 30.464c-25.4 27.016-27.312 34.48-28.768 112.352-0.732 39.052-0.336 71 0.872 71 1.212 0 15.988-9 32.836-20" />
<glyph unicode="&#xea02;" glyph-name="bear-line" d="M132 1002.452c-27.548-6.108-40.968-13.212-65.064-34.444-78.744-69.388-62.896-196.384 30.66-245.684 10.776-5.676 22.236-10.324 25.468-10.324 4.040 0 5.216-2.804 3.776-9-16.464-70.76-18.416-110.7-8.748-179 11.824-83.516 39.952-172.848 79.344-252 96.212-193.336 227.588-291.024 360.884-268.348 39.204 6.668 100.188 37.476 136.872 69.148 110.504 95.396 202.024 277.644 226.736 451.504 8.040 56.564 7.476 98.428-1.928 143.696-9.444 45.456-9.36 44-2.596 44 2.972 0 14.224 4.648 25 10.324 93.556 49.3 109.4 176.272 30.66 245.692-24.952 21.996-41.9 30.328-73.28 36.036-47.564 8.648-92.464-3.82-128.084-35.568-12.068-10.756-25.312-25.82-29.436-33.476l-7.496-13.92-28.384 13.036c-120.312 55.26-252.524 55.228-372.952-0.084l-28.568-13.12-4.248 9.324c-13.096 28.74-56.604 61.688-94.496 71.556-27.748 7.228-43.82 7.368-74.12 0.652M201.008 954.292c20.392-7.276 41.216-23.78 53.58-42.46l10.272-15.524-34.528-32.68c-20.644-19.54-44.312-47.352-58.856-69.156-13.38-20.060-24.916-37.1-25.636-37.872-3.708-3.976-32.868 10.156-46.652 22.608-24.748 22.36-33 41.552-33.016 76.792-0.016 33.232 5.848 48.568 27.276 71.34 27.236 28.952 71.136 39.952 107.56 26.952M918.832 948.516c36.156-18.632 54.712-49.904 54.92-92.548 0.12-25.56-1.464-32.776-10.652-48.452-13.384-22.836-33.844-41.16-53.024-47.492-8.036-2.652-15.2-4.192-15.916-3.424-0.72 0.772-12.256 17.812-25.636 37.872-14.544 21.804-38.212 49.616-58.856 69.156l-34.528 32.68 10.272 15.524c12.244 18.496 32.944 35.004 53.58 42.716 19.572 7.316 59.848 4.272 79.84-6.032M611.020 918.072c66.608-15.944 121.744-46.2 170.332-93.464 96.836-94.196 119.924-207.656 76.372-375.28-36.928-142.132-120.756-285.828-202.664-347.4-93.464-70.256-176.656-70.256-270.12 0-111.964 84.168-215.132 303.648-223.82 476.152-4.848 96.32 27.776 178.772 97.528 246.468 56.96 55.28 124.436 88.548 201.596 99.392 34.592 4.86 119.828 1.544 150.776-5.868M327.88 727c-52.492-26.516-52.492-99.484 0-126 22.576-11.404 41.664-11.404 64.24 0 52.492 26.516 52.492 99.484 0 126-9.8 4.948-24.252 9-32.12 9s-22.32-4.052-32.12-9M647.88 727c-52.492-26.516-52.492-99.484 0-126 22.576-11.404 41.664-11.404 64.24 0 52.492 26.516 52.492 99.484 0 126-9.8 4.948-24.252 9-32.12 9s-22.32-4.052-32.12-9M376 680c4.4-4.4 8-11.6 8-16s-3.6-11.6-8-16c-4.4-4.4-11.6-8-16-8s-11.6 3.6-16 8c-4.4 4.4-8 11.6-8 16s3.6 11.6 8 16c4.4 4.4 11.6 8 16 8s11.6-3.6 16-8M696 680c4.4-4.4 8-11.6 8-16s-3.6-11.6-8-16c-4.4-4.4-11.6-8-16-8s-11.6 3.6-16 8c-4.4 4.4-8 11.6-8 16s3.6 11.6 8 16c4.4 4.4 11.6 8 16 8s11.6-3.6 16-8M433.196 521.504c-23.616-11.644-37.076-44.504-27.548-67.244 6.020-14.368 47.636-68.212 73.276-94.804l17.88-18.548-1.404-38.788c-1.372-38.020-1.656-39.016-14.464-50.452-7.184-6.416-17.448-11.668-22.812-11.668-27.112 0-42.124 20.528-42.124 57.604 0 24.416-8.74 38.396-24 38.396-4.4 0-11.6-3.6-16-8-10.896-10.896-11.176-58.692-0.484-82 25.072-54.656 87.068-69.584 137.484-33.104 5.648 4.084 8.352 4.084 14 0 39.776-28.784 86.436-26.608 118.572 5.532 18.5 18.5 26.24 39.828 26.34 72.572 0.092 30.9-7.16 45-23.148 45-16.548 0-22.372-9.836-25.024-42.264-2.324-28.388-3.656-32.104-15.208-42.424-13.52-12.084-26.052-14.092-42.152-6.756-15.748 7.172-22.38 26.244-22.38 64.352 0 31.32 0.748 34.38 10.572 43.396 17.212 15.784 74.22 88.62 79.784 101.928 9.648 23.096-4.104 55.992-28.196 67.424-19.4 9.204-154.228 9.088-172.964-0.152M588 473.756c0-7.044-62.416-85.756-68-85.756s-68 78.712-68 85.756c0 5.412 9.048 6.244 68 6.244s68-0.832 68-6.244" />
<glyph unicode="&#xea03;" glyph-name="bee-line" d="M490.984 1003.892c-46.044-11.572-95.572-53.78-110.98-94.58-11.284-29.884-14.492-63.648-7.94-83.508 2.788-8.448 13.052-23.892 22.808-34.32l17.736-18.964-28.592-8.516c-39.152-11.66-89.208-33.176-118.016-50.724-132.404-80.664-227.876-216.828-245.804-350.568-6.14-45.792-5.42-57.488 4.136-67.044 8.188-8.188 10.564-8.296 137-6.256 70.768 1.144 133.644 2.644 139.724 3.332 10.84 1.232 11.404 0.212 29.112-52.52 40.964-121.992 90.48-199.42 146.264-228.704 24.428-12.824 62.708-12.824 87.136 0 55.828 29.308 105.444 107.16 146.816 230.36 17.144 51.040 17.736 52.092 28.56 50.864 6.080-0.688 68.956-2.188 139.724-3.332l128.668-2.076 8.84 8.84c8.228 8.228 8.652 11.176 6.104 42.592-11.8 145.42-107.576 289.684-248.512 374.324-29.976 18.004-80.316 39.756-117.936 50.96l-28.44 8.468 17.736 18.964c21.728 23.228 28.564 42.352 25.772 72.1-3.492 37.224-16.872 66.14-42.916 92.756-38.468 39.312-93.616 58.452-137 47.552M556.58 950.416c36.464-17.332 60.48-49.836 65.604-88.784 2.48-18.86 1.768-21.408-9.612-34.368-6.76-7.7-23.604-20.128-37.432-27.62-22.236-12.044-28.604-13.62-55.14-13.62s-32.904 1.576-55.14 13.62c-28.296 15.328-48.908 36.252-48.764 49.496 0.192 17.38 8.18 43.456 18.148 59.244 10.724 16.988 37.828 38.356 59.020 46.528 16.412 6.328 44.784 4.312 63.316-4.496M479.5 703c-40.4-146.632-76.936-266.036-86.316-282.080-17.22-29.46-42.48-52.024-76.36-68.2l-30.824-14.72-222.452-2.468 2.544 15.236c14.92 89.388 53.060 165.652 116.668 233.264 48.384 51.436 110.296 94.584 169.96 118.456 36.040 14.424 94.076 29.084 116.024 29.316l18.748 0.196-7.992-29M618 724.264c91.748-22.012 172.568-69.36 239.060-140.040 63.42-67.412 102.004-144.5 116.848-233.456l2.544-15.236-111.228 1.236c-110.208 1.22-111.44 1.328-134.972 11.768-34.676 15.384-62.964 39.008-79.696 66.548-13.492 22.208-41.672 112.308-90.056 287.916l-7.992 29 16.748-0.028c9.208-0.016 31.144-3.484 48.744-7.708M553.516 552.984c17.336-61.040 32.376-113.236 33.428-115.984 1.484-3.88-13.508-5-66.944-5s-68.428 1.12-66.944 5c1.052 2.748 16.092 54.944 33.428 115.984 17.332 61.040 32.416 110.98 33.516 110.98s16.184-49.94 33.516-110.98M627.4 365c8.876-10.452 25.1-25.3 36.048-33 22.324-15.7 22-12.772 6.832-62l-8.624-28h-283.312l-8.624 28c-15.168 49.228-15.492 46.3 6.832 62 10.948 7.7 27.172 22.548 36.048 33l16.144 19h182.512l16.144-19M640 189.9c0-1.156-6.544-15.104-14.544-31-38.628-76.764-79.756-115.86-114.936-109.26-17.24 3.232-46.412 28.744-66.18 57.88-13.716 20.216-44.34 77.112-44.34 82.38 0 1.156 54 2.1 120 2.1s120-0.944 120-2.1" />
<glyph unicode="&#xea04;" glyph-name="bear-2-line" d="M167.092 1001.78c-67.524-16.368-126.168-74.072-143.76-141.456-18.736-71.78 0.1-139.704 53.66-193.484 26.42-26.524 26.92-27.408 21.472-38-9.556-18.58-22.428-64.824-28.556-102.608-39.876-245.848 131.044-479.968 379.86-520.324 196.68-31.9 395.16 73.3 481.612 255.264 20.264 42.648 30.128 74.884 38.808 126.78 11.792 70.524 2.048 164.636-23.624 228.2l-9.824 24.312 26.632 26.824c40.592 40.884 60.948 89.388 60.396 143.908-1.328 131.572-134.848 228.196-258.136 186.808-48.2-16.18-85.236-43.984-110.012-82.592-10.228-15.94-14.516-19.556-21.22-17.88-73.080 18.252-155.824 18.228-229.056-0.064-7.068-1.764-11.164 1.752-22.348 19.184-45.056 70.244-133.484 105.108-215.904 85.128M278.348 945.66c25.956-12.276 55.12-37.164 64.256-54.824 3.292-6.368 5.404-12.144 4.692-12.836s-11.944-5.96-24.964-11.704c-58.588-25.856-125.52-82.176-171.492-144.296-13.024-17.6-25.060-32.524-26.744-33.16-1.684-0.64-11.3 7.996-21.364 19.192-44.312 49.284-50.432 124.244-14.668 179.584 14.328 22.168 39.228 45.684 59.936 56.6 35.2 18.556 92.832 19.196 130.348 1.444M856.804 955.512c39.48-8.356 71.348-31.1 95.132-67.896 35.764-55.34 29.644-130.3-14.668-179.584-10.064-11.196-19.68-19.832-21.364-19.192-1.684 0.636-13.728 15.56-26.756 33.16-28.42 38.384-69.992 80.108-104.152 104.532-20.808 14.876-76.016 45.808-90.208 50.54-6.42 2.14 7.5 24.332 25.904 41.296 38.256 35.26 84.892 47.988 136.112 37.144M608 853.92c151.824-35.508 270.712-152.7 308.832-304.42 13.396-53.328 12.512-140.312-1.98-194.596-64.108-240.1-320.34-368.44-549.076-275.012-117.736 48.088-207.4 150.568-240.628 275.012-14.492 54.284-15.376 141.268-1.98 194.596 41.604 165.6 173.676 284.368 346.832 311.896 24.664 3.92 108.748-0.636 138-7.476M343.88 599c-52.492-26.516-52.492-99.484 0-126 9.8-4.952 24.252-9 32.12-9s22.32 4.048 32.12 9c52.492 26.516 52.492 99.484 0 126-9.8 4.948-24.252 9-32.12 9s-22.32-4.052-32.12-9M631.88 599c-52.492-26.516-52.492-99.484 0-126 9.8-4.952 24.252-9 32.12-9s22.32 4.048 32.12 9c52.492 26.516 52.492 99.484 0 126-9.8 4.948-24.252 9-32.12 9s-22.32-4.052-32.12-9M392 552c4.4-4.4 8-11.6 8-16s-3.6-11.6-8-16c-4.4-4.4-11.6-8-16-8s-11.6 3.6-16 8c-4.4 4.4-8 11.6-8 16s3.6 11.6 8 16c4.4 4.4 11.6 8 16 8s11.6-3.6 16-8M680 552c4.4-4.4 8-11.6 8-16s-3.6-11.6-8-16c-4.4-4.4-11.6-8-16-8s-11.6 3.6-16 8c-4.4 4.4-8 11.6-8 16s3.6 11.6 8 16c4.4 4.4 11.6 8 16 8s11.6-3.6 16-8M440 392c-4.4-4.4-8-11.448-8-15.66 0-4.216 14.4-29.456 32-56.096l32-48.432v-63.812h-48c-42.668 0-48.888-0.888-56-8-10.184-10.184-10.184-21.816 0-32 7.644-7.644 13.332-8 128-8s120.356 0.356 128 8c4.4 4.4 8 11.6 8 16s-3.6 11.6-8 16c-7.112 7.112-13.332 8-56 8h-48v63.812l32 48.432c17.6 26.64 32 51.88 32 56.096 0 4.212-3.6 11.26-8 15.66-7.408 7.408-13.332 8-80 8s-72.592-0.592-80-8M535.912 349c-0.048-1.648-3.648-7.5-8-13l-7.912-10-7.912 10c-11.144 14.088-10.196 16 7.912 16 8.8 0 15.96-1.352 15.912-3" />
</font>
</defs>
</svg>
