<?xml version="1.0" standalone="no"?>
<!DOCTYPE svg PUBLIC "-//W3C//DTD SVG 1.1//EN" "http://www.w3.org/Graphics/SVG/1.1/DTD/svg11.dtd" >
<svg xmlns="http://www.w3.org/2000/svg">
<metadata>Generated by IcoMoon</metadata>
<defs>
<font id="icomoon" horiz-adv-x="1024">
<font-face units-per-em="1024" ascent="960" descent="-64" />
<missing-glyph horiz-adv-x="1024" />
<glyph unicode="&#x20;" horiz-adv-x="512" d="" />
<glyph unicode="&#xe02a;" glyph-name="telescope" horiz-adv-x="1120" d="M878.848 885.952c-1.696 4.224-5.088 7.52-9.344 9.088-4.256 1.536-8.992 1.248-12.992-0.864l-380.992-201.024c-7.168-3.776-10.368-12.32-7.456-19.872l7.84-20.512-219.936-120.608c-7.2-3.936-10.24-12.64-7.104-20.16l7.296-17.568-233.568-111.616c-7.68-3.68-11.136-12.704-7.872-20.576l47.936-115.52c2.56-6.144 8.48-9.888 14.784-9.888 1.792 0 3.584 0.288 5.344 0.928l244 86.432 7.296-17.568c2.528-6.112 8.448-9.888 14.784-9.888 1.472 0 2.944 0.192 4.448 0.64l232.832 67.104 6.976-18.208c2.368-6.304 8.416-10.272 14.88-10.272 1.568 0 3.136 0.224 4.704 0.704l416 128c4.288 1.312 7.808 4.352 9.728 8.384s2.080 8.704 0.416 12.832l-160 400.032zM86.4 272.992l-36.288 87.488 218.336 104.352 46.048-111.040-228.096-80.8zM358.112 332.064l-7.616 18.368c0 0 0 0 0 0l-58.976 142.24c0 0 0 0 0 0l-7.616 18.336 202.752 111.2 75.968-196.288 12-31.392-216.512-62.464zM617.6 371.68l-6.496 16.992c-0.096 0.352-0.032 0.768-0.192 1.12l-19.776 51.104-88.128 230.592 352.736 186.080 146.944-367.36-385.088-118.528zM926.848 949.952c-3.296 8.224-12.64 12.192-20.8 8.928-8.192-3.296-12.192-12.608-8.928-20.8l192-480c2.528-6.272 8.544-10.080 14.88-10.080 1.984 0 4 0.352 5.952 1.152 8.192 3.296 12.192 12.608 8.928 20.8l-192.032 480zM576 288h-96c-36.48 0-64-27.52-64-64v-42.080l-188.128-219.488c-5.76-6.688-4.992-16.8 1.728-22.56 3.008-2.592 6.72-3.872 10.4-3.872 4.512 0 8.992 1.888 12.128 5.6l187.232 218.4h72.64v-208c0-8.832 7.168-16 16-16s16 7.168 16 16v208h72.64l187.2-218.4c3.168-3.712 7.648-5.6 12.16-5.6 3.68 0 7.392 1.28 10.4 3.872 6.72 5.76 7.488 15.84 1.728 22.56l-188.128 219.488v39.68c0 37.216-28.096 66.4-64 66.4zM608 192h-160v32c0 18.848 13.152 32 32 32h96c18.24 0 32-14.784 32-34.4v-29.6z" />
<glyph unicode="&#xe02b;" glyph-name="gears" horiz-adv-x="1344" d="M118.144 264.96c5.632-1.344 13.28-8.288 15.488-14.624l11.2-27.008c2.528-5.184 2.048-15.456-0.96-20.384l-44.704-73.088c-9.568-15.68-7.584-37.888 5.28-52.288l37.856-37.824c13.184-11.712 36.448-13.824 51.616-4.64l73.088 44.704c4.576 2.816 14.4 3.808 21.28 0.576l26.976-11.136c5.44-1.888 12.384-9.504 13.728-15.136l20.064-83.328c4.256-17.664 21.12-32.192 39.232-33.856 0 0 11.104-1.024 27.744-1.024s27.744 1.024 27.776 1.024c18.080 1.632 34.944 16.192 39.2 33.856l20.096 83.328c1.344 5.6 8.256 13.248 14.592 15.456l27.008 11.2c4.768 2.336 15.808 1.856 20.384-0.96l73.088-44.704c6.432-3.936 14.112-6.016 22.272-6.016 11.040 0 21.728 3.872 30.016 11.264l37.824 37.856c12.224 13.728 14.208 35.936 4.64 51.616l-44.704 73.088c-3.008 4.928-3.488 15.2-0.576 21.28l11.136 26.976c1.888 5.44 9.504 12.384 15.136 13.728l83.328 20.064c17.664 4.256 32.192 21.12 33.856 39.232 0 0 1.024 11.104 1.024 27.744s-1.024 27.744-1.024 27.776c-1.632 18.080-16.192 34.944-33.856 39.232l-83.296 20.032c-5.632 1.344-13.28 8.288-15.488 14.624l-11.2 27.008c-2.528 5.184-2.048 15.456 0.96 20.384l44.704 73.088c9.568 15.68 7.584 37.888-5.28 52.288l-37.856 37.824c-13.216 11.744-36.512 13.856-51.616 4.64l-73.088-44.704c-4.576-2.784-14.432-3.84-21.28-0.576l-26.976 11.136c-5.44 1.888-12.352 9.504-13.696 15.136l-20.096 83.328c-4.256 17.664-21.12 32.192-39.232 33.856-0.064-0.032-11.168 0.992-27.808 0.992s-27.744-1.024-27.776-1.024c-18.080-1.632-34.944-16.192-39.232-33.856l-20.032-83.264c-1.344-5.632-8.288-13.28-14.624-15.488l-27.008-11.2c-4.8-2.336-15.808-1.824-20.384 0.96l-73.056 44.704c-15.136 9.216-37.92 7.616-52.288-5.248l-37.824-37.856c-12.224-13.728-14.208-35.936-4.64-51.616l44.704-73.088c3.008-4.928 3.488-15.2 0.576-21.28l-11.136-26.976c-1.888-5.44-9.504-12.384-15.136-13.728l-83.328-20.064c-17.664-4.256-32.192-21.12-33.856-39.232 0.064 0-0.96-11.104-0.96-27.744s1.024-27.744 1.024-27.776c1.632-18.080 16.192-34.944 33.856-39.232l83.264-20.032zM32 352c0 14.656 0.864 24.544 0.896 24.864 0.384 4.32 5.28 9.984 9.472 11.008l83.328 20.064c16.16 3.904 32.448 18.688 37.504 33.504l10.368 25.184c7.296 14.944 6.272 36.896-2.4 51.104l-44.704 73.056c-2.144 3.552-1.536 10.592 0.576 12.992l36.512 36.544c2.912 2.592 10.336 3.232 13.664 1.216l73.088-44.704c13.856-8.48 37.6-9.056 50.176-2.816l25.216 10.432c15.712 5.408 30.496 21.696 34.4 37.888l20.032 83.296c1.024 4.224 6.688 9.12 11.008 9.504 0.32 0 10.208 0.864 24.864 0.864s24.544-0.864 24.864-0.896c4.32-0.384 9.984-5.28 11.008-9.472l20.064-83.296c3.904-16.16 18.656-32.48 33.504-37.536l25.184-10.368c14.624-7.168 37.28-6.048 51.104 2.4l73.056 44.704c3.328 2.016 11.2 0.96 12.992-0.576l36.544-36.512c2.752-3.104 3.36-10.112 1.216-13.664l-44.704-73.088c-8.672-14.176-9.696-36.16-2.816-50.176l10.432-25.216c5.408-15.712 21.696-30.496 37.888-34.4l83.296-20.032c4.224-1.024 9.12-6.688 9.504-11.008 0-0.32 0.864-10.208 0.864-24.864s-0.864-24.544-0.896-24.864c-0.384-4.32-5.28-9.984-9.472-11.008l-83.328-20.064c-16.16-3.904-32.448-18.688-37.504-33.504l-10.368-25.184c-7.296-14.944-6.272-36.896 2.4-51.104l44.704-73.056c2.144-3.552 1.536-10.592-0.576-12.992l-36.512-36.544c-1.728-1.536-4.864-2.528-8.032-2.528-2.208 0-4.256 0.48-5.6 1.312l-73.088 44.704c-13.824 8.448-37.568 9.056-50.176 2.816l-25.216-10.432c-15.712-5.408-30.496-21.728-34.368-37.888l-20.064-83.296c-1.024-4.224-6.688-9.12-11.008-9.504-0.352 0-10.24-0.864-24.896-0.864s-24.544 0.864-24.864 0.896c-4.32 0.384-9.984 5.28-11.008 9.472l-20.064 83.328c-3.904 16.16-18.688 32.448-33.504 37.504l-25.184 10.368c-6.528 3.2-14.432 4.864-22.88 4.864-10.528 0-20.544-2.592-28.224-7.296l-73.056-44.704c-3.328-2.016-11.232-0.928-12.992 0.576l-36.544 36.544c-2.752 3.104-3.36 10.112-1.216 13.664l44.704 73.088c8.672 14.176 9.696 36.16 2.816 50.176l-10.432 25.216c-5.408 15.712-21.696 30.496-37.888 34.4l-83.296 20.032c-4.224 1.024-9.12 6.688-9.504 11.008 0 0.32-0.864 10.208-0.864 24.864zM416 176c97.056 0 176 78.944 176 176s-78.944 176-176 176-176-78.944-176-176 78.944-176 176-176zM416 496c79.392 0 144-64.608 144-144s-64.608-144-144-144-144 64.608-144 144 64.608 144 144 144zM879.264 789.952c-1.28-1.952-5.92-4.416-8.288-4.416l-59.552 0.576c-14.464 0-28.96-10.272-33.696-23.872 0 0-2.624-7.456-5.504-18.88s-4.096-19.232-4.096-19.232c-2.24-14.432 5.792-30.4 18.688-37.152l52.512-27.52c2.016-1.056 4.992-5.504 5.312-8.736l2.976-20.32c0.48-2.24-1.056-7.36-2.688-8.96l-42.304-41.472c-10.592-10.368-13.376-28.096-6.080-42.016l19.168-32c8.096-11.904 25.632-17.984 39.392-13.696l58.368 17.856c3.168 0 6.336-1.216 8.128-2.656l16.48-12.16c1.92-1.28 4.448-5.984 4.416-8.288l-0.576-59.264c-0.128-14.592 10.112-29.216 23.872-34.016 0 0 7.456-2.624 18.88-5.504s19.232-4.096 19.232-4.096c0.832-0.128 4.16-0.384 4.992-0.384 13.056 0 26.304 7.84 32.16 19.072l27.52 52.512c1.056 2.016 5.504 4.992 8.736 5.312l21.216 3.072c3.2 0 6.976-1.664 8.032-2.752l41.472-42.304c10.080-10.304 27.072-13.984 42.016-6.080l31.968 19.168c12.224 8.32 18.144 25.28 13.728 39.392l-17.664 56.544c-0.672 2.176 0.384 7.424 2.496 9.952l12.16 16.48c1.28 1.952 5.92 4.416 8.288 4.416l59.552-0.576c14.464 0 28.96 10.272 33.696 23.872 0 0 2.624 7.456 5.504 18.88s4.096 19.232 4.096 19.232c2.24 14.432-5.792 30.4-18.688 37.152l-52.512 27.52c-2.016 1.056-4.992 5.504-5.312 8.736l-2.944 20.256c-0.48 2.24 1.056 7.36 2.688 8.96l42.304 41.472c10.592 10.368 13.376 28.096 6.080 42.016l-19.168 32c-8.096 11.872-25.6 18.016-39.392 13.728l-58.4-17.856c-3.168 0-6.336 1.216-8.128 2.656l-16.48 12.16c-1.92 1.28-4.448 5.984-4.416 8.288l0.576 59.264c0.128 14.592-10.112 29.216-23.872 34.016 0 0-7.456 2.624-18.88 5.504s-19.232 4.096-19.232 4.096c-0.832 0.096-4.16 0.352-4.992 0.352-13.056 0-26.304-7.84-32.16-19.072l-27.52-52.512c-1.056-2.016-5.504-4.992-8.736-5.312l-21.216-3.040c-3.2 0-6.976 1.664-8.032 2.752l-41.472 42.304c-10.048 10.272-27.008 13.984-42.016 6.080l-32-19.136c-12.224-8.32-18.144-25.28-13.728-39.392l17.664-56.544c0.672-2.176-0.384-7.424-2.496-9.952l-12.128-16.48zM905.504 771.648l10.976 14.912c8.576 10.144 11.904 26.688 7.936 39.328l-17.632 56.512c-0.16 0.896 0.544 2.912 0.384 2.944l30.336 18.176 3.616-0.544 41.504-42.304c7.36-7.488 19.488-12.352 30.88-12.352 2.624 0 5.152 0.256 6.528 0.608l18.4 2.72c13.184 1.152 27.232 10.496 33.376 22.208l27.488 52.48c0.512 0.8 2.528 1.952 3.84 1.952 0.352-0.032 6.88-1.12 16.416-3.488 9.504-2.4 15.776-4.544 16.064-4.672 0.992-0.416 2.432-2.496 2.496-3.52l-0.576-59.264c-0.128-13.248 7.84-28.128 18.144-34.848l14.88-10.976c9.888-8.352 26.848-11.872 39.328-7.936l56.768 17.664c1.344 0 2.848-0.832 2.656-0.416l18.176-30.336c0.352-0.832 0-2.944-0.544-3.616l-42.304-41.504c-9.44-9.312-14.336-25.44-11.744-37.408l2.688-18.4c1.152-13.184 10.496-27.232 22.24-33.376l52.48-27.488c0.896-0.576 2.016-2.816 1.952-3.84-0.032-0.352-1.12-6.88-3.488-16.416-2.4-9.504-4.544-15.776-4.672-16.064-0.416-0.992-2.496-2.432-3.52-2.496l-59.584 0.576c-13.152 0-27.872-7.968-34.528-18.144l-10.944-14.88c-8.576-10.144-11.904-26.688-7.936-39.328l17.632-56.512c0.16-0.864-0.544-2.912-0.384-2.944l-30.336-18.176-3.616 0.544-41.504 42.304c-7.36 7.488-19.488 12.352-30.88 12.352-2.624 0-5.152-0.256-6.528-0.608l-18.4-2.72c-13.184-1.152-27.232-10.496-33.376-22.208l-27.488-52.48c-0.512-0.8-2.528-1.952-3.84-1.952v0c-0.352 0.032-6.88 1.12-16.416 3.488-9.504 2.4-15.776 4.544-16.064 4.672-0.992 0.416-2.432 2.496-2.496 3.52l0.576 59.264c0.128 13.248-7.84 28.128-18.144 34.848l-14.88 10.976c-7.104 6.016-17.568 9.6-28 9.6-4.032 0-7.872-0.576-11.36-1.664l-56.768-17.664c-1.376 0-2.88 0.736-2.656 0.416l-18.176 30.336c-0.352 0.832 0 2.944 0.544 3.616l42.304 41.504c9.44 9.312 14.336 25.44 11.744 37.408l-2.688 18.368c-1.152 13.184-10.496 27.232-22.24 33.376l-52.48 27.488c-0.896 0.576-2.016 2.816-1.952 3.84 0.032 0.352 1.12 6.88 3.488 16.416 2.4 9.504 4.544 15.776 4.672 16.064 0.416 0.992 2.496 2.432 3.52 2.496l59.584-0.576c13.152 0 27.872 7.968 34.528 18.144zM1056 576c52.928 0 96 43.072 96 96s-43.072 96-96 96-96-43.072-96-96 43.072-96 96-96zM1056 736c35.296 0 64-28.704 64-64s-28.704-64-64-64-64 28.704-64 64 28.704 64 64 64z" />
<glyph unicode="&#xe02c;" glyph-name="key" d="M469.856 489.664c3.744 0 7.52 1.312 10.56 3.968l362.144 317.504-21.12 24.064-362.144-317.472c-6.656-5.824-7.328-15.936-1.472-22.592 3.168-3.616 7.584-5.472 12.032-5.472zM326.016-64c196.544 0 313.984 154.56 313.984 304 0 43.072-10.304 90.528-25.536 121.344l144.704 72.352c5.408 2.72 8.832 8.256 8.832 14.304v128h96c0.352 0 3.264 0.192 3.616 0.192 21.312 1.44 27.68 8.224 28.384 31.808v128h96c4.128 0 6.976-0.448 8.896-0.736 3.872-0.608 11.104-1.728 17.376 3.904 6.464 5.76 6.176 13.056 5.92 19.488-0.064 2.304-0.192 5.344-0.192 9.344v144.992c0 25.92-21.088 47.008-47.008 47.008h-124c-11.328 0-22.336-4.128-31.008-11.648l-421.984-369.92c-20.768 4.16-52.16 9.568-74.016 9.568-179.744 0-325.984-146.24-325.984-325.984s146.24-326.016 326.016-326.016zM326.016 556c16.032 0 43.488-3.84 75.328-10.496 4.96-1.088 10.048 0.32 13.824 3.616l427.872 375.104c2.784 2.432 6.336 3.776 9.952 3.776h124c8.288 0 15.008-6.72 15.008-15.008v-144.992h-112c-8.832 0-16-7.168-16-16v-144h-112c-8.832 0-16-7.168-16-16v-134.112l-151.168-75.584c-4.192-2.080-7.264-5.952-8.384-10.496s-0.192-9.376 2.56-13.184c14.080-19.424 28.992-67.648 28.992-118.624 0-133.696-105.472-272-281.984-272-162.112 0-294.016 131.904-294.016 294.016s131.904 293.984 294.016 293.984zM272 96c61.76 0 112 50.24 112 112s-50.24 112-112 112-112-50.24-112-112 50.24-112 112-112zM272 288c44.096 0 80-35.904 80-80s-35.904-80-80-80-80 35.904-80 80 35.904 80 80 80z" />
<glyph unicode="&#xe032;" glyph-name="pencil2" d="M0-47.328c0-8.832 7.168-16 16-16h995.552c2.144 0 4.224 0.416 6.176 1.248s3.712 2.016 5.184 3.488c0.032 0.032 0.064 0.032 0.096 0.064 0.096 0.096 0.096 0.288 0.224 0.384 1.632 1.76 2.688 3.904 3.424 6.24 0.224 0.736 0.32 1.44 0.448 2.208 0.128 0.8 0.48 1.504 0.48 2.336 0 1.28-0.448 2.4-0.736 3.584-0.096 0.448 0.096 0.896-0.064 1.344l-101.12 310.88c-0.768 2.4-2.112 4.608-3.904 6.368l-547.744 547.776c-0.576 0.896-0.992 1.856-1.76 2.656l-119.648 119.648c-19.424 19.424-51.040 19.424-70.496 0l-167.52-167.52c-9.408-9.408-14.592-21.92-14.592-35.232s5.184-25.856 14.592-35.264l116.992-116.992c0.576-0.864 0.96-1.856 1.728-2.624l546.88-550.56c1.888-1.92 4.192-3.296 6.784-4.064l214.816-64h-885.792c-8.832 0.032-16-7.136-16-15.968zM203.584 634.848l501.984-495.552-18.464-64.064-519.84 523.296 36.32 36.32zM730.112 160l-503.936 497.44 77.984 77.984 499.424-500.736v-74.688h-73.472zM823.52 260l-496.736 498.048 33.248 33.248 518.752-518.752-55.264-12.544zM735.616 128h83.968c8.832 0 16 7.168 16 16v85.92l64.224 14.592 87.136-267.84-271.616 80.928 20.288 70.4zM32 742.144c0 4.768 1.856 9.216 5.216 12.608l167.52 167.52c6.944 6.944 18.24 6.976 25.248 0l107.904-107.904-192.736-192.736-107.904 107.904c-3.392 3.36-5.248 7.84-5.248 12.608z" />
<glyph unicode="&#xe033;" glyph-name="tools" horiz-adv-x="992" d="M6.752 779.328c-27.104-27.136-21.312-65.344 0.256-86.88 0.864-0.832 87.488-83.584 209.312-205.408 3.136-3.136 7.232-4.672 11.328-4.672s8.192 1.568 11.328 4.672c6.24 6.24 6.24 16.384 0 22.624-18.368 18.368-35.84 35.744-52.416 52.192l50.848 50.848c6.24 6.24 6.24 16.384 0 22.624s-16.384 6.24-22.624 0l-50.976-50.976c-28.512 28.16-53.632 52.736-74.080 72.672l115.68 115.68c6.24 6.24 6.24 16.384 0 22.624s-16.384 6.24-22.624 0l-116.032-116.032c-23.552 22.816-37.12 35.776-37.344 36-6.752 6.752-15.616 25.76 0 41.376l160 160c6.176 6.272 22.624 18.72 40.672 0.768 0.8-0.896 81.6-92.672 204.928-216 6.24-6.24 16.384-6.24 22.624 0s6.24 16.384 0 22.624c-122.56 122.528-202.752 213.6-204.224 215.264-29.824 29.76-65.792 20.832-86.624 0l-160.032-160zM685.408 187.328c-6.24 6.24-16.384 6.24-22.624 0l-50.912-50.88c-15.52 15.712-31.808 32.16-48.96 49.312-6.24 6.24-16.384 6.24-22.624 0s-6.24-16.384 0-22.624c118.528-118.496 201.312-207.008 202.496-208.288 10.976-11.008 26.016-17.056 42.336-17.056v0c16.8 0 33.792 6.56 44.32 17.12l159.936 161.824c20.128 20.128 21.28 54.272 2.496 73.12l-214.592 214.56c-6.24 6.24-16.384 6.24-22.624 0s-6.24-16.384 0-22.624l214.592-214.56c6.4-6.4 5.184-20.224-2.528-27.936l-159.968-161.824c-3.68-3.712-12.032-7.68-21.632-7.68 0 0 0 0 0 0-5.504 0-13.376 1.344-19.328 7.328-0.32 0.352-13.728 14.656-36.992 39.008l116.608 116.608c6.24 6.24 6.24 16.384 0 22.624s-16.384 6.24-22.624 0l-116.128-116.128c-19.968 20.768-44.448 46.016-72.32 74.432l51.072 51.072c6.24 6.208 6.24 16.32 0 22.592zM-9.376-58.528c3.072-3.136 7.2-4.8 11.456-4.8 1.536 0 3.072 0.224 4.576 0.672l320 95.328c2.592 0.768 4.896 2.144 6.784 4.064l546.88 550.56c0.768 0.768 1.152 1.76 1.728 2.624l116.992 116.992c9.408 9.44 14.624 21.952 14.624 35.296 0 13.312-5.216 25.824-14.624 35.2l-167.52 167.488c-18.816 18.816-51.68 18.816-70.496 0l-119.648-119.648c-0.768-0.768-1.184-1.76-1.76-2.656l-547.712-547.744c-1.792-1.792-3.136-3.968-3.904-6.368l-101.12-310.88c-1.856-5.664-0.416-11.84 3.744-16.128zM653.6 791.328l33.248-33.248-496.736-498.080-55.264 12.544 518.752 518.784zM210.080 234.688l499.424 500.736 77.952-77.952-503.936-497.472h-73.44v74.688zM846.368 598.528l-519.808-523.328-18.464 64.064 501.984 495.584 36.288-36.32zM113.856 244.512l64.224-14.592v-85.92c0-8.832 7.168-16 16-16h83.968l20.288-70.4-271.616-80.928 87.136 267.84zM783.68 922.272c6.752 6.752 18.496 6.752 25.248 0l167.52-167.52c3.36-3.36 5.216-7.84 5.216-12.608 0-4.736-1.856-9.248-5.248-12.64l-107.872-107.904-192.736 192.736 107.872 107.936z" />
<glyph unicode="&#xe034;" glyph-name="tools-2" d="M907.328 916.672c3.68 3.68 5.344 8.928 4.448 14.048s-4.224 9.504-8.96 11.712c-73.312 34.56-160.32 19.392-217.536-38.112-54.336-54.688-73.312-140.576-47.968-212.384l-369.248-369.248c-20.064 7.168-41.504 10.752-63.872 10.752-54.848 0-108.032-21.824-145.888-59.904-57.024-57.344-73.088-142.080-40.992-215.904 2.112-4.864 6.496-8.384 11.712-9.344 5.248-0.992 10.592 0.672 14.304 4.448l111.712 112.288c7.36 7.424 19.232 8.416 25.376 2.176l48.224-50.464c7.008-7.072 6.688-17.984-0.704-25.44l-111.296-112c-3.68-3.68-5.312-8.928-4.416-14.048s4.224-9.472 8.928-11.68c26.528-12.512 54.432-18.816 82.912-18.816 50.304 0 98.080 20.224 134.624 56.96 54.336 54.656 73.312 140.544 47.936 212.352l369.248 369.28c20.096-7.168 41.536-10.752 63.904-10.752 54.848 0 108.032 21.824 145.888 59.904 57.024 57.344 73.088 142.080 40.992 215.904-2.112 4.864-6.496 8.384-11.712 9.344-5.152 0.896-10.56-0.672-14.304-4.448l-111.712-112.288c-6.88-6.912-18.56-6.848-25.632 0.32l-47.968 47.968c-7.232 7.264-7.2 18.176-0.032 25.408l112.032 111.968zM772.672 756.672l47.968-47.968c19.168-19.264 52-19.36 70.976-0.288l93.76 94.208c15.008-55.712-0.512-115.488-42.368-157.632-31.904-32.096-76.768-50.464-123.2-50.464-21.856 0-42.56 4.096-61.536 12.16-6.016 2.592-12.96 1.184-17.568-3.392l-384-384c-4.608-4.608-5.952-11.52-3.424-17.504 25.696-61.12 10.048-140-37.216-187.552-42.272-42.496-103.808-57.632-159.52-40.256l94.112 94.72c19.872 20 20.192 51.008 0.928 70.336l-48.192 50.464c-18.592 18.72-51.648 17.568-70.976-1.984l-93.76-94.208c-15.008 55.712 0.512 115.488 42.368 157.632 31.904 32.096 76.768 50.464 123.2 50.464 21.856 0 42.56-4.096 61.536-12.16 5.984-2.624 12.96-1.184 17.568 3.392l384 384c4.608 4.608 5.952 11.52 3.424 17.504-25.696 61.12-10.048 140.032 37.216 187.584 42.24 42.496 103.744 57.536 159.424 40.256l-94.72-94.752c-19.712-19.744-19.712-50.72 0-70.56zM934.72-20.704c-7.072-7.104-19.328-7.104-26.464 0.064l-320.96 320c-6.24 6.176-16.384 6.208-22.624-0.064-6.24-6.24-6.208-16.384 0.032-22.624l320.928-319.936c9.6-9.632 22.336-14.944 35.904-14.944 0 0 0 0 0 0 13.568 0 26.304 5.312 36.096 15.168l45.728 47.776c19.68 19.776 19.68 50.784-0.032 70.592l-320 320c-6.24 6.24-16.384 6.24-22.624 0s-6.24-16.384 0-22.624l319.968-319.968c7.328-7.36 7.328-18.048-0.224-25.664l-45.728-47.776zM187.328 859.328l-96 96c-6.24 6.24-16.384 6.24-22.624 0l-64-64c-6.24-6.24-6.24-16.384 0-22.624l96-96c3.104-3.136 7.2-4.704 11.296-4.704s8.192 1.568 11.328 4.672l20.672 20.704 244.672-244.672c3.136-3.136 7.232-4.704 11.328-4.704s8.192 1.568 11.328 4.672c6.24 6.24 6.24 16.384 0 22.624l-244.704 244.704 20.672 20.672c6.272 6.272 6.272 16.384 0.032 22.656zM112 806.624l-73.376 73.376 41.376 41.376 73.376-73.376-41.376-41.376z" />
<glyph unicode="&#xe04e;" glyph-name="target" horiz-adv-x="1344" d="M1336.928 541.12c-7.2 6.048-17.984 5.088-24.064-2.176l-75.744-90.88c-1.632 0.512-3.296 1.024-5.12-0.064h-44.512l56.64 69.056c6.048 7.264 5.056 18.016-2.176 24.064s-18.016 5.088-24.064-2.176l-74.88-90.944h-50.528l56.64 69.056c6.048 7.264 5.056 18.016-2.176 24.064-7.2 6.048-17.984 5.088-24.064-2.176l-74.88-90.944h-24.064c-0.608 282.912-229.984 512-511.936 512-282.304 0-512-229.696-512-512s229.696-512 512-512c271.136 0 493.12 212.032 510.336 480h25.696l74.88-90.944c3.36-4.064 8.256-6.144 13.12-6.144 3.872 0 7.744 1.28 10.944 3.968 7.264 6.016 8.256 16.8 2.176 24.064l-56.672 69.056h50.528l74.88-90.944c3.36-4.064 8.256-6.144 13.12-6.144 3.872 0 7.744 1.28 10.944 3.968 7.264 6.016 8.256 16.8 2.176 24.064l-56.64 69.056h44.512c1.824-1.088 3.488-0.576 5.152-0.064l75.744-90.88c3.36-4.064 8.256-6.144 13.12-6.144 3.872 0 7.744 1.28 10.944 3.968 7.264 6.016 8.256 16.8 2.176 24.064l-70.88 85.056 70.88 85.056c6.048 7.264 5.056 18.048-2.208 24.064zM512-32c-264.672 0-480 215.328-480 480s215.328 480 480 480c264.32 0 479.328-214.72 479.936-480h-96c-0.576 212.32-172.544 384-383.936 384-211.744 0-384-172.256-384-384s172.256-384 384-384c200.576 0 365.472 154.624 382.336 352h96c-17.12-250.336-224.832-448-478.336-448zM767.936 448c-0.576 141.728-115.136 256-255.936 256-141.152 0-256-114.848-256-256s114.848-256 256-256c129.92 0 237.312 97.376 253.6 224h96.704c-16.736-179.712-167.392-320-350.304-320-194.080 0-352 157.92-352 352s157.92 352 352 352c193.728 0 351.36-157.312 351.936-352h-96zM639.904 448c-0.608 71.168-57.664 128-127.904 128-70.592 0-128-57.408-128-128s57.408-128 128-128c59.072 0 108.416 40.416 123.104 96h98.176c-16.096-108.928-109.056-192-221.28-192-123.488 0-224 100.512-224 224s100.512 224 224 224c123.136 0 223.36-99.904 223.936-224h-96.032zM528 416h73.76c-13.536-37.696-48.512-64-89.76-64-52.928 0-96 43.072-96 96s43.072 96 96 96c52.576 0 95.296-42.496 95.904-96h-79.904c-9.44 1.088-17.088-6.56-17.088-16s7.648-17.088 17.088-16z" />
<glyph unicode="&#xe822;" glyph-name="license" d="M947.2 51.2h-870.4c-42.347 0-76.8 34.451-76.8 76.8v665.6c0 42.347 34.453 76.8 76.8 76.8h870.4c42.349 0 76.8-34.453 76.8-76.8v-665.6c0-42.349-34.451-76.8-76.8-76.8zM76.8 819.2c-14.115 0-25.6-11.485-25.6-25.6v-665.6c0-14.115 11.485-25.6 25.6-25.6h870.4c14.115 0 25.6 11.485 25.6 25.6v665.6c0 14.115-11.485 25.6-25.6 25.6h-870.4zM486.4 665.6h-307.2c-14.138 0-25.6 11.462-25.6 25.6s11.462 25.6 25.6 25.6h307.2c14.138 0 25.6-11.462 25.6-25.6s-11.462-25.6-25.6-25.6zM486.4 512h-307.2c-14.138 0-25.6 11.461-25.6 25.6s11.462 25.6 25.6 25.6h307.2c14.138 0 25.6-11.461 25.6-25.6s-11.462-25.6-25.6-25.6zM486.4 409.6h-307.2c-14.138 0-25.6 11.461-25.6 25.6s11.462 25.6 25.6 25.6h307.2c14.138 0 25.6-11.461 25.6-25.6s-11.462-25.6-25.6-25.6zM486.4 307.2h-307.2c-14.138 0-25.6 11.461-25.6 25.6s11.462 25.6 25.6 25.6h307.2c14.138 0 25.6-11.461 25.6-25.6s-11.462-25.6-25.6-25.6zM435.2 204.8h-256c-14.138 0-25.6 11.461-25.6 25.6s11.462 25.6 25.6 25.6h256c14.138 0 25.6-11.461 25.6-25.6s-11.462-25.6-25.6-25.6zM918.677 637.757l-41.646 30.258-15.909 48.957h-51.475l-41.646 30.258-41.645-30.258h-51.475l-15.909-48.957-41.646-30.258 15.909-48.957-15.909-48.957 41.646-30.259 6.752-20.774c-0.077-0.794-0.123-1.597-0.123-2.41v-256c0-10.355 6.237-19.69 15.803-23.651 9.568-3.965 20.578-1.77 27.899 5.55l58.698 58.698 58.699-58.699c4.898-4.899 11.443-7.501 18.107-7.499 3.298 0 6.624 0.637 9.79 1.949 9.566 3.963 15.803 13.298 15.803 23.653v256c0 0.813-0.046 1.616-0.122 2.41l6.752 20.774 41.646 30.259-15.91 48.957 15.91 48.957zM677.514 618.2l25.010 18.17 9.554 29.4h30.912l25.011 18.173 25.011-18.171h30.912l9.554-29.4 25.010-18.17-9.554-29.402 9.554-29.4-25.010-18.171-9.554-29.4h-30.912l-25.011-18.173-25.011 18.171h-30.912l-9.554 29.4-25.010 18.171 9.554 29.402-9.554 29.4zM786.101 325.301c-9.997 9.997-26.206 9.997-36.203 0l-33.098-33.098v168.426h9.555l41.645-30.258 41.645 30.256h9.555v-168.426l-33.099 33.099z" />
<glyph unicode="&#xe900;" glyph-name="picture" d="M896 960h-768c-70.688 0-128-57.312-128-128v-768c0-70.688 57.312-128 128-128h768c70.688 0 128 57.312 128 128v768c0 70.688-57.312 128-128 128zM128 0c-35.328 0-64 28.672-64 64v30.048l254.24 227.68 321.792-321.728h-512.032zM960 64c0-35.328-28.672-64-64-64h-165.376l-235.776 238.88 273.152 273.152 192-192v-256.032zM960 411.904l-192 196.096-318.112-323.552-129.888 131.552-256-234.784v650.784c0 35.328 28.672 64 64 64h768c35.328 0 64-28.672 64-64v-420.096zM256 832c-70.688 0-128-57.312-128-128s57.312-128 128-128 128 57.312 128 128-57.312 128-128 128zM256 640c-35.328 0-64 28.672-64 64s28.672 64 64 64 64-28.672 64-64-28.672-64-64-64z" />
<glyph unicode="&#xe901;" glyph-name="picture2" d="M256 640c35.328 0 64 28.672 64 64s-28.672 64-64 64-64-28.672-64-64 28.672-64 64-64zM896 960h-768c-70.688 0-128-57.312-128-128v-768c0-70.688 57.312-128 128-128h768c70.688 0 128 57.312 128 128v768c0 70.688-57.312 128-128 128zM256 832c70.688 0 128-57.312 128-128s-57.312-128-128-128-128 57.312-128 128 57.312 128 128 128zM128 0c-35.328 0-64 28.672-64 64v30.048l254.24 227.68 321.792-321.728h-512.032zM960 64c0-35.328-28.672-64-64-64h-165.376l-235.776 238.88 273.152 273.152 192-192v-256.032z" />
<glyph unicode="&#xe902;" glyph-name="add" d="M0 832v-736c0-53.024 42.976-96 96-96h832c53.024 0 96 42.976 96 96v736c0 53.024-42.976 96-96 96h-832c-53.024 0-96-42.976-96-96zM928 32h-832c-35.36 0-64 28.64-64 64v736c0 35.36 28.64 64 64 64h832c35.36 0 64-28.64 64-64v-736c0-35.36-28.64-64-64-64zM928 864h-832c-17.664 0-32-14.336-32-32v-736c0-17.664 14.336-32 32-32h832c17.664 0 32 14.336 32 32v736c0 17.664-14.336 32-32 32zM928 832v-128h-32v16c0 26.496-21.504 48-48 48-12.352 0-23.488-4.8-32-12.448-8.512 7.648-19.648 12.448-32 12.448-26.496 0-48-21.504-48-48v-16h-384v16c0 26.496-21.504 48-48 48-12.352 0-23.488-4.8-32-12.448-8.512 7.648-19.648 12.448-32 12.448s-23.488-4.8-32-12.448c-8.512 7.648-19.648 12.448-32 12.448-26.496 0-48-21.504-48-48v-16h-32v128h832zM848 320c-12.352 0-23.488-4.8-32-12.448-8.512 7.648-19.648 12.448-32 12.448s-23.488-4.8-32-12.448c-8.512 7.648-19.648 12.448-32 12.448s-23.488-4.8-32-12.448c-8.512 7.648-19.648 12.448-32 12.448-26.496 0-48-21.504-48-48v-16h-384v16c0 26.496-21.504 48-48 48s-48-21.504-48-48v-16h-32v192h32v-16c0-26.496 21.504-48 48-48 12.352 0 23.488 4.8 32 12.448 8.512-7.648 19.648-12.448 32-12.448s23.488 4.8 32 12.448c8.512-7.648 19.648-12.448 32-12.448 26.496 0 48 21.504 48 48v16h384v-16c0-26.496 21.504-48 48-48 12.352 0 23.488 4.8 32 12.448 8.512-7.648 19.648-12.448 32-12.448 26.496 0 48 21.504 48 48v16h32v-192h-32v16c0 26.496-21.504 48-48 48zM832 272c0 8.832 7.168 16 16 16s16-7.168 16-16v-64c0-8.832-7.168-16-16-16s-16 7.168-16 16v64zM768 272c0 8.832 7.168 16 16 16s16-7.168 16-16v-64c0-8.832-7.168-16-16-16s-16 7.168-16 16v64zM704 272c0 8.832 7.168 16 16 16s16-7.168 16-16v-64c0-8.832-7.168-16-16-16s-16 7.168-16 16v64zM672 208c0-8.832-7.168-16-16-16s-16 7.168-16 16v64c0 8.832 7.168 16 16 16s16-7.168 16-16v-64zM192 272v-64c0-8.832-7.168-16-16-16s-16 7.168-16 16v64c0 8.832 7.168 16 16 16s16-7.168 16-16zM192 432c0-8.832-7.168-16-16-16s-16 7.168-16 16v64c0 8.832 7.168 16 16 16s16-7.168 16-16v-64zM256 432c0-8.832-7.168-16-16-16s-16 7.168-16 16v64c0 8.832 7.168 16 16 16s16-7.168 16-16v-64zM288 496c0 8.832 7.168 16 16 16s16-7.168 16-16v-64c0-8.832-7.168-16-16-16s-16 7.168-16 16v64zM800 432c0-8.832-7.168-16-16-16s-16 7.168-16 16v64c0 8.832 7.168 16 16 16s16-7.168 16-16v-64zM832 496c0 8.832 7.168 16 16 16s16-7.168 16-16v-64c0-8.832-7.168-16-16-16s-16 7.168-16 16v64zM896 480v16c0 26.496-21.504 48-48 48-12.352 0-23.488-4.8-32-12.448-8.512 7.648-19.648 12.448-32 12.448-26.496 0-48-21.504-48-48v-16h-384v16c0 26.496-21.504 48-48 48-12.352 0-23.488-4.8-32-12.448-8.512 7.648-19.648 12.448-32 12.448s-23.488-4.8-32-12.448c-8.512 7.648-19.648 12.448-32 12.448-26.496 0-48-21.504-48-48v-16h-32v192h32v-16c0-26.496 21.504-48 48-48 12.352 0 23.488 4.8 32 12.448 8.512-7.648 19.648-12.448 32-12.448s23.488 4.8 32 12.448c8.512-7.648 19.648-12.448 32-12.448 26.496 0 48 21.504 48 48v16h384v-16c0-26.496 21.504-48 48-48 12.352 0 23.488 4.8 32 12.448 8.512-7.648 19.648-12.448 32-12.448 26.496 0 48 21.504 48 48v16h32v-192h-32zM192 656c0-8.832-7.168-16-16-16s-16 7.168-16 16v64c0 8.832 7.168 16 16 16s16-7.168 16-16v-64zM256 656c0-8.832-7.168-16-16-16s-16 7.168-16 16v64c0 8.832 7.168 16 16 16s16-7.168 16-16v-64zM288 720c0 8.832 7.168 16 16 16s16-7.168 16-16v-64c0-8.832-7.168-16-16-16s-16 7.168-16 16v64zM800 656c0-8.832-7.168-16-16-16s-16 7.168-16 16v64c0 8.832 7.168 16 16 16s16-7.168 16-16v-64zM832 720c0 8.832 7.168 16 16 16s16-7.168 16-16v-64c0-8.832-7.168-16-16-16s-16 7.168-16 16v64zM96 96v128h32v-16c0-26.496 21.504-48 48-48s48 21.504 48 48v16h384v-16c0-26.496 21.504-48 48-48 12.352 0 23.488 4.8 32 12.448 8.512-7.648 19.648-12.448 32-12.448s23.488 4.8 32 12.448c8.512-7.648 19.648-12.448 32-12.448s23.488 4.8 32 12.448c8.512-7.648 19.648-12.448 32-12.448 26.496 0 48 21.504 48 48v16h32v-128h-832z" />
<glyph unicode="&#xe903;" glyph-name="add2" d="M928 928h-832c-53.024 0-96-42.976-96-96v-736c0-53.024 42.976-96 96-96h832c53.024 0 96 42.976 96 96v736c0 53.024-42.976 96-96 96zM96 864h832c17.664 0 32-14.336 32-32v-128h-64v16c0 26.496-21.504 48-48 48-12.352 0-23.488-4.8-32-12.448-8.512 7.648-19.648 12.448-32 12.448-26.496 0-48-21.504-48-48v-16h-384v16c0 26.496-21.504 48-48 48-12.352 0-23.488-4.8-32-12.448-8.512 7.648-19.648 12.448-32 12.448s-23.488-4.8-32-12.448c-8.512 7.648-19.648 12.448-32 12.448-26.496 0-48-21.504-48-48v-16h-64v128c0 17.664 14.336 32 32 32zM848 320c-12.352 0-23.488-4.8-32-12.448-8.512 7.648-19.648 12.448-32 12.448s-23.488-4.8-32-12.448c-8.512 7.648-19.648 12.448-32 12.448s-23.488-4.8-32-12.448c-8.512 7.648-19.648 12.448-32 12.448-26.496 0-48-21.504-48-48v-16h-384v16c0 26.496-21.504 48-48 48s-48-21.504-48-48v-16h-64v192h64v-16c0-26.496 21.504-48 48-48 12.352 0 23.488 4.8 32 12.448 8.512-7.648 19.648-12.448 32-12.448s23.488 4.8 32 12.448c8.512-7.648 19.648-12.448 32-12.448 26.496 0 48 21.504 48 48v16h384v-16c0-26.496 21.504-48 48-48 12.352 0 23.488 4.8 32 12.448 8.512-7.648 19.648-12.448 32-12.448 26.496 0 48 21.504 48 48v16h64v-192h-64v16c0 26.496-21.504 48-48 48zM896 480v16c0 26.496-21.504 48-48 48-12.352 0-23.488-4.8-32-12.448-8.512 7.648-19.648 12.448-32 12.448-26.496 0-48-21.504-48-48v-16h-384v16c0 26.496-21.504 48-48 48-12.352 0-23.488-4.8-32-12.448-8.512 7.648-19.648 12.448-32 12.448s-23.488-4.8-32-12.448c-8.512 7.648-19.648 12.448-32 12.448-26.496 0-48-21.504-48-48v-16h-64v192h64v-16c0-26.496 21.504-48 48-48 12.352 0 23.488 4.8 32 12.448 8.512-7.648 19.648-12.448 32-12.448s23.488 4.8 32 12.448c8.512-7.648 19.648-12.448 32-12.448 26.496 0 48 21.504 48 48v16h384v-16c0-26.496 21.504-48 48-48 12.352 0 23.488 4.8 32 12.448 8.512-7.648 19.648-12.448 32-12.448 26.496 0 48 21.504 48 48v16h64v-192h-64zM928 64h-832c-17.664 0-32 14.336-32 32v128h64v-16c0-26.496 21.504-48 48-48s48 21.504 48 48v16h384v-16c0-26.496 21.504-48 48-48 12.352 0 23.488 4.8 32 12.448 8.512-7.648 19.648-12.448 32-12.448s23.488 4.8 32 12.448c8.512-7.648 19.648-12.448 32-12.448s23.488 4.8 32 12.448c8.512-7.648 19.648-12.448 32-12.448 26.496 0 48 21.504 48 48v16h64v-128c0-17.664-14.336-32-32-32z" />
<glyph unicode="&#xe904;" glyph-name="agree" d="M882.752 562.752l118.624 118.624c12.512 12.512 12.512 32.768 0 45.248l-146.752 146.752c-12.512 12.512-32.768 12.512-45.248 0l-118.624-118.624c-12-12-28.288-18.752-45.248-18.752h-266.976c-16.96 0-33.248 6.752-45.248 18.752l-118.656 118.624c-12.512 12.512-32.768 12.512-45.248 0l-146.752-146.752c-12.512-12.512-12.512-32.768 0-45.248l118.624-118.624c12-12 18.752-28.288 18.752-45.248v-133.504l-18.752-18.752c-24.992-24.992-24.992-65.504 0-90.496l261.504-261.504c12.512-12.512 28.864-18.752 45.248-18.752s32.768 6.24 45.248 18.752l18.752 18.752 18.752-18.752c12.512-12.512 28.864-18.752 45.248-18.752s32.768 6.24 45.248 18.752l261.504 261.504c24.992 24.992 24.992 65.504 0 90.496l-18.752 18.752v133.504c0 16.96 6.752 33.248 18.752 45.248zM163.872 297.376c-6.048 6.048-9.376 14.080-9.376 22.624s3.328 16.576 9.376 22.624l101.504 101.504c6.048 6.048 14.080 9.376 22.624 9.376s16.576-3.328 22.624-9.376l39.424-39.424-146.752-146.752-39.424 39.424zM225.952 235.328l146.752 146.752 57.376-57.376-146.752-146.752-57.376 57.376zM305.952 155.328l146.752 146.752 57.376-57.376-146.752-146.752-57.376 57.376zM470.624 35.872c-6.048-6.048-14.080-9.376-22.624-9.376s-16.576 3.328-22.624 9.376l-39.424 39.424 146.752 146.752 39.424-39.424c6.048-6.048 9.376-14.080 9.376-22.624s-3.328-16.576-9.376-22.624l-101.504-101.504zM598.624 35.872c-6.048-6.048-14.080-9.376-22.624-9.376s-35.648 22.4-35.648 22.4c-1.824 2.464-3.648 4.672-5.344 6.112l59.744 59.744c0.672 0.672 43.328-39.424 43.328-39.424l-39.456-39.456zM860.128 297.376l-39.424-39.424-94.080 94.048c-6.24 6.24-16.384 6.24-22.624 0s-6.24-16.384 0-22.624l94.048-94.048-57.376-57.376-94.048 94.048c-6.24 6.24-16.384 6.24-22.624 0s-6.24-16.384 0-22.624l94.048-94.048-57.376-57.376-48.704 48.704c4.352 20.48-1.312 42.688-17.248 58.624l-261.504 261.504c-12.448 12.448-28.832 18.72-45.216 18.72s-32.768-6.24-45.248-18.752l-50.752-50.752v101.504c0 25.472-10.112 49.888-28.128 67.872l-118.624 118.624 146.752 146.752 118.624-118.624c18.016-18.016 42.432-28.128 67.872-28.128h101.504l-114.752-114.752c-24.992-24.992-24.992-65.504 0-90.496l5.504-5.504c12.512-12.512 28.864-18.752 45.248-18.752s32.768 6.24 45.248 18.752l78.848 78.88c24.992 24.992 65.504 24.992 90.496 0l229.472-229.472c12.544-12.512 12.544-32.8 0.064-45.28zM860.128 585.376c-18.016-18.016-28.128-42.432-28.128-67.872v-101.504l-178.752 178.752c-37.504 37.504-98.272 37.504-135.776 0l-78.848-78.848c-6.048-6.048-14.080-9.376-22.624-9.376s-16.576 3.328-22.624 9.376l-5.504 5.504c-12.48 12.48-12.48 32.768 0 45.248l137.376 137.344h120.224c25.472 0 49.888 10.112 67.872 28.128l118.656 118.624 146.752-146.752-118.624-118.624z" />
<glyph unicode="&#xe905;" glyph-name="agree2" d="M430.048 324.672l-169.376-169.376-57.376 57.376 169.376 169.376 57.376-57.376zM452.672 302.048l-169.376-169.376 57.376-57.376 169.376 169.376-57.376 57.376zM310.624 444.128c-6.048 6.048-14.080 9.376-22.624 9.376s-16.576-3.328-22.624-9.376l-124.128-124.128c-12.512-12.512-12.512-32.768 0-45.248l39.424-39.424 169.376 169.376-39.424 39.424zM581.504 160c0 8.544-3.328 16.576-9.376 22.624l-39.424 39.424-169.376-169.376 39.392-39.392c12.48-12.512 32.736-12.512 45.248 0l124.16 124.096c6.048 6.048 9.376 14.080 9.376 22.624zM1001.376 726.624l-146.752 146.752c-12.512 12.512-32.768 12.512-45.248 0l-137.376-137.376h-74.976c-25.472 0-49.888-10.112-67.872-28.128l-141.248-141.248c-12.48-12.48-12.48-32.768 0-45.248l5.504-5.504c6.048-6.048 14.080-9.376 22.624-9.376s16.576 3.328 22.624 9.376l78.848 78.848c37.504 37.504 98.272 37.504 135.776 0l210.72-210.72v160l137.376 137.376c12.48 12.48 12.48 32.768 0 45.248zM630.656 572.096c-24.992 25.024-65.536 25.024-90.528 0.032l-78.848-78.88c-12.512-12.512-28.864-18.752-45.248-18.752s-32.768 6.24-45.248 18.752l-5.504 5.504c-24.992 24.992-24.992 65.504 0 90.496l146.72 146.752h-160l-137.376 137.376c-12.512 12.512-32.768 12.512-45.248 0l-146.752-146.752c-12.512-12.512-12.512-32.768 0-45.248l137.376-137.376v-160l82.752 82.752c12.48 12.48 28.864 18.752 45.248 18.752s32.768-6.24 45.248-18.752l261.504-261.504c15.904-15.904 21.6-38.112 17.248-58.624l71.328-71.328 57.376 57.376-116.704 116.704c-6.24 6.24-6.24 16.384 0 22.624s16.384 6.24 22.624 0l116.672-116.672 57.376 57.376-116.672 116.672c-6.24 6.24-6.24 16.384 0 22.624s16.384 6.24 22.624 0l116.672-116.672 39.296 39.296c12.48 12.48 12.512 32.736 0 45.248l-251.936 252.224zM535.008 55.008l41.376-41.376c12.512-12.512 32.768-12.512 45.248 0l37.12 37.152-64.032 63.968-59.712-59.744z" />
<glyph unicode="&#xe906;" glyph-name="aid" d="M928 768h-256v32c0 53.024-42.976 96-96 96h-128c-53.024 0-96-42.976-96-96v-32h-256c-53.024 0-96-42.976-96-96v-640c0-17.664 14.336-32 32-32h960c17.664 0 32 14.336 32 32v640c0 53.024-42.976 96-96 96zM448 864h128c35.36 0 64-28.64 64-64v-32h-32v32c0 17.664-14.336 32-32 32h-128c-17.664 0-32-14.336-32-32v-32h-32v32c0 35.36 28.64 64 64 64zM576 800v-32h-128v32h128zM992 32h-960v512h128v-32c0-17.664 14.336-32 32-32h32c17.664 0 32 14.336 32 32v32h512v-32c0-17.664 14.336-32 32-32h32c17.664 0 32 14.336 32 32v32h128v-512zM192 512v96h32v-96h-32zM800 512v96h32v-96h-32zM992 576h-128v32c0 17.664-14.336 32-32 32h-32c-17.664 0-32-14.336-32-32v-32h-512v32c0 17.664-14.336 32-32 32h-32c-17.664 0-32-14.336-32-32v-32h-128v96c0 35.36 28.64 64 64 64h832c35.36 0 64-28.64 64-64v-96zM544 448h-64c-17.664 0-32-14.336-32-32v-64h-64c-17.664 0-32-14.336-32-32v-64c0-17.664 14.336-32 32-32h64v-64c0-17.664 14.336-32 32-32h64c17.664 0 32 14.336 32 32v64h64c17.664 0 32 14.336 32 32v64c0 17.664-14.336 32-32 32h-64v64c0 17.664-14.336 32-32 32zM640 320v-64h-96v-96h-64v96h-96v64h96v96h64v-96h96z" />
<glyph unicode="&#xe907;" glyph-name="aid2" d="M864 512c0-17.664-14.336-32-32-32h-32c-17.664 0-32 14.336-32 32v32h-512v-32c0-17.664-14.336-32-32-32h-32c-17.664 0-32 14.336-32 32v32h-160v-512c0-17.664 14.336-32 32-32h960c17.664 0 32 14.336 32 32v512h-160v-32zM672 256c0-17.664-14.336-32-32-32h-64v-64c0-17.664-14.336-32-32-32h-64c-17.664 0-32 14.336-32 32v64h-64c-17.664 0-32 14.336-32 32v64c0 17.664 14.336 32 32 32h64v64c0 17.664 14.336 32 32 32h64c17.664 0 32-14.336 32-32v-64h64c17.664 0 32-14.336 32-32v-64zM544 320h96v-64h-96v-96h-64v96h-96v64h96v96h64v-96zM928 768h-256v32c0 53.024-42.976 96-96 96h-128c-53.024 0-96-42.976-96-96v-32h-256c-53.024 0-96-42.976-96-96v-96h160v32c0 17.664 14.336 32 32 32h32c17.664 0 32-14.336 32-32v-32h512v32c0 17.664 14.336 32 32 32h32c17.664 0 32-14.336 32-32v-32h160v96c0 53.024-42.976 96-96 96zM576 768h-128v32h128v-32zM832 512h-32v96h32v-96zM224 512h-32v96h32v-96z" />
<glyph unicode="&#xe908;" glyph-name="ask" d="M454.304 892.384c-202.432-25.28-364.832-190.368-387.424-393.12-12.384-111.040 16.064-214.912 71.936-298.944l-65.888-148.224c-5.376-12.096-2.752-26.272 6.624-35.616l0.928-0.928c9.376-9.376 23.52-12 35.616-6.624l148.224 65.888c84.032-55.904 187.904-84.32 298.944-71.936 202.752 22.592 367.84 185.024 393.12 387.456 36.544 292.608-209.44 538.592-502.080 502.048zM512 34.464c-81.632 0-160.672 23.872-228.608 69.056l-15.776 10.496-161.344-71.712 71.712 161.344-10.496 15.776c-45.152 67.904-69.024 146.944-69.024 228.576 0 228.032 185.504 413.536 413.536 413.536s413.536-185.504 413.536-413.536-185.504-413.536-413.536-413.536zM480 272v0c0 8.864 7.168 16 16 16v0c8.832 0 16-7.168 16-16v0c0-8.832-7.168-16-16-16v0c-8.832 0-16 7.168-16 16zM480 336v83.296c0 7.040 5.696 12.736 12.736 12.736h0.032c60.224 0 112.128 46.176 115.104 106.336 3.168 64.288-48.256 117.632-111.872 117.632-51.968 0-95.808-35.616-108.384-83.712-1.856-7.168-8.128-12.288-15.52-12.288v0c-10.496 0-18.144 9.952-15.52 20.096 16.64 64.16 76.48 111.072 146.464 107.712 67.808-3.264 125.312-55.2 135.328-122.336 11.456-76.832-39.904-147.584-113.6-162.592l-12.768-2.592v-64.288c0-8.832-7.168-16-16-16v0c-8.832 0-16 7.168-16 16z" />
<glyph unicode="&#xe909;" glyph-name="ask2" d="M454.304 892.384c-202.432-25.28-364.832-190.368-387.424-393.12-12.384-111.040 16.064-214.912 71.936-298.944l-65.888-148.224c-5.376-12.096-2.752-26.272 6.624-35.616l0.928-0.928c9.376-9.376 23.52-12 35.616-6.624l148.224 65.888c84.032-55.904 187.904-84.32 298.944-71.936 202.752 22.592 367.84 185.024 393.12 387.456 36.544 292.608-209.44 538.592-502.080 502.048zM480 272v0c0 8.864 7.168 16 16 16v0c8.832 0 16-7.168 16-16v0c0-8.832-7.168-16-16-16v0c-8.832 0-16 7.168-16 16zM480 336v83.296c0 7.040 5.696 12.736 12.736 12.736h0.032c60.224 0 112.128 46.176 115.104 106.336 3.168 64.288-48.256 117.632-111.872 117.632-51.968 0-95.808-35.616-108.384-83.712-1.856-7.168-8.128-12.288-15.52-12.288v0c-10.496 0-18.144 9.952-15.52 20.096 16.64 64.16 76.48 111.072 146.464 107.712 67.808-3.264 125.312-55.2 135.328-122.336 11.456-76.832-39.904-147.584-113.6-162.592l-12.768-2.592v-64.288c0-8.832-7.168-16-16-16v0c-8.832 0-16 7.168-16 16z" />
<glyph unicode="&#xe90a;" glyph-name="balance" d="M956.736 448h-14.528l-124.608 224.32c8.064 0.832 14.4 7.392 14.4 15.68 0 8.832-7.168 16-16 16h-288v2.272c27.552 7.136 48 31.936 48 61.728 0 35.36-28.64 64-64 64s-64-28.64-64-64c0-29.792 20.448-54.592 48-61.728v-2.272h-288c-8.832 0-16-7.168-16-16 0-8.288 6.336-14.848 14.4-15.68l-124.608-224.32h-14.528c-19.584 0-35.456-17.632-31.712-36.864 17.184-88.384 95.008-155.136 188.448-155.136s171.264 66.752 188.48 155.136c3.712 19.232-12.128 36.864-31.744 36.864h-14.528l-124.416 224h236.608l-28.8-576h-113.6c-8.832 0-16-7.168-16-16s7.168-16 16-16h352c8.832 0 16 7.168 16 16s-7.168 16-16 16h-113.6l-28.8 576h236.608l-124.448-224h-14.528c-19.584 0-35.456-17.632-31.712-36.864 17.216-88.384 95.040-155.136 188.48-155.136s171.264 66.752 188.48 155.136c3.712 19.232-12.128 36.864-31.744 36.864zM380.704 416c-15.072-74.24-80.704-128-156.704-128-76.448 0-142.496 54.368-156.736 128h313.44zM329.6 448h-211.2l105.6 190.112 105.6-190.112zM480 768c0 17.632 14.368 32 32 32s32-14.368 32-32-14.368-32-32-32-32 14.368-32 32zM481.632 96l28.8 576h3.136l28.8-576h-60.736zM800 638.112l105.6-190.112h-211.2l105.6 190.112zM800 288c-76.448 0-142.496 54.368-156.736 128h313.44c-15.072-74.24-80.704-128-156.704-128z" />
<glyph unicode="&#xe90b;" glyph-name="balance2" d="M956.736 448h-14.528l-124.608 224.32c8.064 0.832 14.4 7.392 14.4 15.68 0 8.832-7.168 16-16 16h-288v2.272c27.552 7.136 48 31.936 48 61.728 0 35.36-28.64 64-64 64s-64-28.64-64-64c0-29.792 20.448-54.592 48-61.728v-2.272h-288c-8.832 0-16-7.168-16-16 0-8.288 6.336-14.848 14.4-15.68l-124.608-224.32h-14.528c-19.584 0-35.456-17.632-31.712-36.864 17.184-88.384 95.008-155.136 188.448-155.136s171.264 66.752 188.48 155.136c3.712 19.232-12.128 36.864-31.744 36.864h-14.528l-124.416 224h236.608l-28.8-576h-113.6c-8.832 0-16-7.168-16-16s7.168-16 16-16h352c8.832 0 16 7.168 16 16s-7.168 16-16 16h-113.6l-28.8 576h236.608l-124.448-224h-14.528c-19.584 0-35.456-17.632-31.712-36.864 17.216-88.384 95.040-155.136 188.48-155.136s171.264 66.752 188.48 155.136c3.712 19.232-12.128 36.864-31.744 36.864zM329.6 448h-211.2l105.6 190.112 105.6-190.112zM480 768c0 17.632 14.368 32 32 32s32-14.368 32-32-14.368-32-32-32-32 14.368-32 32zM800 638.112l105.6-190.112h-211.2l105.6 190.112z" />
<glyph unicode="&#xe90c;" glyph-name="bookmark" d="M384 432c0-8.832-7.168-16-16-16h-160c-8.832 0-16 7.168-16 16s7.168 16 16 16h160c8.832 0 16-7.168 16-16zM368 512h-160c-8.832 0-16-7.168-16-16s7.168-16 16-16h160c8.832 0 16 7.168 16 16s-7.168 16-16 16zM1024 736v-576c0-53.024-42.976-96-96-96h-320c0-17.664-14.336-32-32-32h-128c-17.664 0-32 14.336-32 32h-320c-53.024 0-96 42.976-96 96v576c0 53.024 42.976 96 96 96h544c0 17.664 14.336 32 32 32h128c17.664 0 32-14.336 32-32h96c53.024 0 96-42.976 96-96zM672 429.248l64 64 64-64v402.752h-128v-402.752zM528 139.776l13.408 6.72c17.696 8.832 37.472 13.504 57.248 13.504h329.344v640h-96v-370.752c0-19.296-15.776-32.064-32.224-32.064-7.872 0-15.872 2.912-22.4 9.44l-41.376 41.376-41.376-41.376c-6.528-6.528-14.528-9.44-22.4-9.44-16.448 0-32.224 12.768-32.224 32.064v370.752h-112v-660.224zM96 160h329.344c19.776 0 39.552-4.672 57.248-13.504l13.408-6.72v660.224h-400v-640zM992 736c0 23.584-12.96 44-32 55.104v-631.104c0-17.664-14.336-32-32-32h-329.344c-14.912 0-29.6-3.456-42.944-10.144l-29.408-14.72c-4.512-2.24-9.408-3.392-14.304-3.392s-9.792 1.12-14.304 3.392l-29.408 14.72c-13.344 6.688-28.032 10.144-42.944 10.144h-329.344c-17.664 0-32 14.336-32 32v631.104c-19.040-11.104-32-31.52-32-55.104v-576c0-35.296 28.704-64 64-64h352v-32h128v32h352c35.296 0 64 28.704 64 64v576zM368 576h-160c-8.832 0-16-7.168-16-16s7.168-16 16-16h160c8.832 0 16 7.168 16 16s-7.168 16-16 16z" />
<glyph unicode="&#xe90d;" glyph-name="bookmark2" d="M640 832v-402.752c0-19.296 15.776-32.064 32.224-32.064 7.872 0 15.872 2.912 22.4 9.44l41.376 41.376 41.376-41.376c6.528-6.528 14.528-9.44 22.4-9.44 16.448 0 32.224 12.768 32.224 32.064v402.752h96v-672h-336.896c-14.816 0-29.664-3.488-42.912-10.144l-20.192-10.080v692.224h112zM800 429.248v402.752c0 17.664-14.336 32-32 32h-64c-17.664 0-32-14.336-32-32v-402.752l64 64 64-64zM432.896 160h-336.896v672h400v-692.224l-20.16 10.080c-13.28 6.624-28.128 10.144-42.944 10.144zM384 432c0 8.832-7.168 16-16 16h-160c-8.832 0-16-7.168-16-16s7.168-16 16-16h160c8.832 0 16 7.168 16 16zM384 496c0 8.832-7.168 16-16 16h-160c-8.832 0-16-7.168-16-16s7.168-16 16-16h160c8.832 0 16 7.168 16 16zM384 560c0 8.832-7.168 16-16 16h-160c-8.832 0-16-7.168-16-16s7.168-16 16-16h160c8.832 0 16 7.168 16 16zM960 826.112v-666.112c0-17.664-14.336-32-32-32h-336.896c-9.92 0-19.744-2.304-28.608-6.752l-36.192-18.080c-4.512-2.24-9.408-3.392-14.304-3.392s-9.824 1.12-14.304 3.392l-36.16 18.080c-8.896 4.448-18.72 6.752-28.64 6.752h-336.896c-17.664 0-32 14.336-32 32v666.112c-37.216-13.216-64-48.384-64-90.112v-576c0-53.024 42.976-96 96-96h320c0-17.664 14.336-32 32-32h128c17.664 0 32 14.336 32 32h320c53.024 0 96 42.976 96 96v576c0 41.728-26.784 76.896-64 90.112z" />
<glyph unicode="&#xe90e;" glyph-name="browse" d="M192 736c0-17.664-14.336-32-32-32s-32 14.336-32 32c0 17.664 14.336 32 32 32s32-14.336 32-32zM832 576h-640c-17.664 0-32-14.336-32-32v-64c0-17.664 14.336-32 32-32h640c17.664 0 32 14.336 32 32v64c0 17.664-14.336 32-32 32zM832 480h-640v64h640v-64zM384 736c0-17.664-14.336-32-32-32s-32 14.336-32 32c0 17.664 14.336 32 32 32s32-14.336 32-32zM288 736c0-17.664-14.336-32-32-32s-32 14.336-32 32c0 17.664 14.336 32 32 32s32-14.336 32-32zM864 832h-704c-53.024 0-96-42.976-96-96v-576c0-53.024 42.976-96 96-96h704c53.024 0 96 42.976 96 96v576c0 53.024-42.976 96-96 96zM928 160c0-35.296-28.704-64-64-64h-704c-35.296 0-64 28.704-64 64v480h832v-480zM928 672h-832v64c0 35.296 28.704 64 64 64h704c35.296 0 64-28.704 64-64v-64zM160 368c0 8.832 7.168 16 16 16h448c8.832 0 16-7.168 16-16s-7.168-16-16-16h-448c-8.832 0-16 7.168-16 16zM160 240c0 8.832 7.168 16 16 16h512c8.832 0 16-7.168 16-16s-7.168-16-16-16h-512c-8.832 0-16 7.168-16 16zM160 304c0 8.832 7.168 16 16 16h352c8.832 0 16-7.168 16-16s-7.168-16-16-16h-352c-8.832 0-16 7.168-16 16z" />
<glyph unicode="&#xe90f;" glyph-name="browse2" d="M64 160c0-53.024 42.976-96 96-96h704c53.024 0 96 42.976 96 96v448h-896v-448zM160 512c0 17.664 14.336 32 32 32h640c17.664 0 32-14.336 32-32v-32c0-17.664-14.336-32-32-32h-640c-17.664 0-32 14.336-32 32v32zM176 384h448c8.832 0 16-7.168 16-16s-7.168-16-16-16h-448c-8.832 0-16 7.168-16 16s7.168 16 16 16zM176 320h352c8.832 0 16-7.168 16-16s-7.168-16-16-16h-352c-8.832 0-16 7.168-16 16s7.168 16 16 16zM176 256h512c8.832 0 16-7.168 16-16s-7.168-16-16-16h-512c-8.832 0-16 7.168-16 16s7.168 16 16 16zM864 832h-704c-53.024 0-96-42.976-96-96v-96h896v96c0 53.024-42.976 96-96 96zM160 704c-17.664 0-32 14.336-32 32s14.336 32 32 32 32-14.336 32-32c0-17.664-14.336-32-32-32zM256 704c-17.664 0-32 14.336-32 32s14.336 32 32 32 32-14.336 32-32c0-17.664-14.336-32-32-32zM352 704c-17.664 0-32 14.336-32 32s14.336 32 32 32 32-14.336 32-32c0-17.664-14.336-32-32-32zM832 480h-640v32h640v-32z" />
<glyph unicode="&#xe910;" glyph-name="caffeinate" d="M512 256c88.352 0 160 71.648 160 160s-71.648 160-160 160-160-71.648-160-160 71.648-160 160-160zM512 544c70.592 0 128-57.408 128-128s-57.408-128-128-128-128 57.408-128 128c0 70.592 57.408 128 128 128zM832 832l-24.704 74.112c-4.352 13.088-16.576 21.888-30.368 21.888h-529.856c-13.792 0-26.016-8.8-30.368-21.888l-24.704-74.112c-17.664 0-32-14.336-32-32v-64c0-17.664 14.336-32 32-32h2.656l53.984-647.968c4.16-49.76 45.76-88.032 95.68-88.032h335.36c49.92 0 91.52 38.272 95.68 88.032l53.984 647.968h2.656c17.664 0 32 14.336 32 32v64c0 17.664-14.336 32-32 32zM776.928 896l21.344-64h-572.544l21.344 64h529.856zM743.456 58.688c-2.752-32.896-30.752-58.688-63.776-58.688h-335.36c-33.024 0-61.024 25.792-63.776 58.688l-53.76 645.312h570.432l-53.76-645.312zM832 736h-640v64h640v-64z" />
<glyph unicode="&#xe911;" glyph-name="caffeinate2" d="M160 736v64c0 17.664 14.336 32 32 32l24.704 74.112c4.352 13.088 16.576 21.888 30.368 21.888h529.856c13.76 0 26.016-8.8 30.368-21.888l24.704-74.112c17.664 0 32-14.336 32-32v-64c0-17.664-14.336-32-32-32h-640c-17.664 0-32 14.336-32 32zM512 544c-70.592 0-128-57.408-128-128s57.408-128 128-128 128 57.408 128 128c0 70.592-57.408 128-128 128zM826.656 672l-51.328-615.968c-4.128-49.76-45.728-88.032-95.648-88.032h-335.36c-49.92 0-91.52 38.272-95.68 88.032l-51.296 615.968h629.312zM672 416c0 88.352-71.648 160-160 160s-160-71.648-160-160 71.648-160 160-160 160 71.648 160 160z" />
<glyph unicode="&#xe912;" glyph-name="call" d="M320 160h384c17.664 0 32 14.336 32 32v576c0 17.664-14.336 32-32 32h-384c-17.664 0-32-14.336-32-32v-576c0-17.664 14.336-32 32-32zM320 768h384v-576h-384v576zM704 928h-384c-53.024 0-96-42.976-96-96v-768c0-53.024 42.976-96 96-96h384c53.024 0 96 42.976 96 96v768c0 53.024-42.976 96-96 96zM768 64c0-35.36-28.64-64-64-64h-384c-35.36 0-64 28.64-64 64v768c0 35.36 28.64 64 64 64h384c35.36 0 64-28.64 64-64v-768zM560 80c0-26.496-21.504-48-48-48s-48 21.504-48 48 21.504 48 48 48 48-21.504 48-48zM581.44 510.016v0c20.448 21.504 31.264 52.32 24.576 85.632-7.552 37.728-38.88 68.288-76.768 74.88-60.608 10.528-113.248-35.872-113.248-94.528 0-25.632 10.208-48.768 26.56-65.984v0c-35.872-17.92-58.56-54.592-58.56-94.688v-63.328c0-17.664 14.336-32 32-32h192c17.664 0 32 14.336 32 32v63.296c0 40.128-22.688 76.8-58.56 94.72zM512 640c35.296 0 64-28.704 64-64s-28.704-64-64-64-64 28.704-64 64c0 35.296 28.704 64 64 64zM608 352h-192v50.72c0 31.552 15.36 60.896 41.216 78.848l14.816 7.392c12.192-5.632 25.664-8.96 39.968-8.96s27.776 3.328 39.968 8.96l14.816-7.392c25.856-17.952 41.216-47.296 41.216-78.848v-50.72z" />
<glyph unicode="&#xe913;" glyph-name="call2" d="M320 192h384v576h-384v-576zM384 415.296c0 40.128 22.688 76.768 58.56 94.688-16.352 17.248-26.56 40.384-26.56 66.016 0 58.656 52.64 105.056 113.248 94.496 37.888-6.592 69.216-37.152 76.768-74.88 6.688-33.312-4.128-64.096-24.576-85.632 35.904-17.92 58.56-54.592 58.56-94.688v-63.296c0-17.664-14.336-32-32-32h-192c-17.664 0-32 14.336-32 32v63.296zM608 352h-192v50.72c0 31.552 15.36 60.896 41.216 78.848l14.816 7.392c12.192-5.632 25.664-8.96 39.968-8.96s27.776 3.328 39.968 8.96l14.816-7.392c25.856-17.952 41.216-47.296 41.216-78.848v-50.72zM448 576c0 35.296 28.704 64 64 64s64-28.704 64-64c0-35.296-28.704-64-64-64s-64 28.704-64 64zM704 928h-384c-53.024 0-96-42.976-96-96v-768c0-53.024 42.976-96 96-96h384c53.024 0 96 42.976 96 96v768c0 53.024-42.976 96-96 96zM512 32c-26.496 0-48 21.504-48 48s21.504 48 48 48 48-21.504 48-48-21.504-48-48-48zM736 192c0-17.664-14.336-32-32-32h-384c-17.664 0-32 14.336-32 32v576c0 17.664 14.336 32 32 32h384c17.664 0 32-14.336 32-32v-576z" />
<glyph unicode="&#xe914;" glyph-name="contribute" d="M384 640c53.024 0 96 42.976 96 96s-42.976 96-96 96-96-42.976-96-96 42.976-96 96-96zM384 800c35.296 0 64-28.704 64-64s-28.704-64-64-64-64 28.704-64 64 28.704 64 64 64zM576 768c53.024 0 96 42.976 96 96s-42.976 96-96 96-96-42.976-96-96 42.976-96 96-96zM576 928c35.296 0 64-28.704 64-64s-28.704-64-64-64-64 28.704-64 64 28.704 64 64 64zM934.752 316.608l-42.56 21.28c-21.792 155.168-145.472 244-304.832 264.928-17.6 22.496-44.64 37.184-75.36 37.184-30.656 0-57.6-14.624-75.2-36.96-133.824-17.568-242.464-83.072-286.848-195.424l-62.4-17.12c-13.92-3.84-23.552-16.48-23.552-30.912v-143.2c0-14.4 9.632-27.040 23.52-30.848l62.4-17.12c20.768-52.576 55.52-94.848 100.448-126.784l-16.48-65.856c-4.992-20.224 10.272-39.776 31.104-39.776h126.016c14.688 0 27.488 9.984 31.040 24.256l3.584 14.336c27.808-4.224 56.64-6.592 86.368-6.592 40.8 0 80.096 4.096 116.992 12.064l4.96-19.808c3.552-14.272 16.352-24.256 31.040-24.256h126.016c20.832 0 36.096 19.552 31.040 39.776l-21.792 87.104c48.736 43.552 81.632 102.016 91.904 175.232l42.56 21.28c23.616 11.776 23.616 45.44 0.032 57.216zM576 544c0-13.152-3.968-23.84-8.864-32h-110.272c-4.896 8.16-8.864 18.848-8.864 32 0 35.296 28.704 64 64 64s64-28.704 64-64zM862.848 259.2l-2.336-16.64c-8.832-62.944-36.256-115.36-81.536-155.808l-14.4-12.864 26.432-105.888h-126.016l-12.48 49.888-30.272-6.528c-34.848-7.552-71.936-11.36-110.24-11.36-27.008 0-54.432 2.080-81.536 6.208l-28.8 4.384-10.656-42.592h-126.016l21.76 87.040-17.792 12.64c-41.344 29.376-71.36 67.2-89.248 112.48l-5.888 14.88-77.824 21.376v143.2l77.856 21.344 5.888 14.88c35.648 90.176 122.688 150.624 239.488 171.52-1.92-7.52-3.232-15.264-3.232-23.36 0-11.296 2.208-21.984 5.856-32h-21.856c-8.832 0-16-7.168-16-16v0c0-8.832 7.168-16 16-16h224c8.832 0 16 7.168 16 16v0c0 8.832-7.168 16-16 16h-21.856c3.648 10.016 5.856 20.704 5.856 32 0 8.192-1.344 16-3.264 23.584 122.304-22.112 235.712-91.296 255.776-234.144l2.336-16.64 57.6-28.8-57.6-28.8z" />
<glyph unicode="&#xe915;" glyph-name="contribute2" d="M480 864c0 53.024 42.976 96 96 96s96-42.976 96-96-42.976-96-96-96-96 42.976-96 96zM384 640c53.024 0 96 42.976 96 96s-42.976 96-96 96-96-42.976-96-96 42.976-96 96-96zM416 544c0-11.296 2.272-21.984 5.984-32h180.064c3.68 10.016 5.952 20.704 5.952 32 0 22.592-8.16 43.040-21.216 59.424-17.6 22.112-44.352 36.576-74.784 36.576-30.4 0-57.12-14.432-74.72-36.48-13.088-16.416-21.28-36.896-21.28-59.52zM934.752 316.608l-42.56 21.28c-19.872 141.536-124.672 227.712-263.872 257.664 7.2-15.808 11.68-33.056 11.68-51.552 0-11.136-1.952-21.728-4.672-32h20.672c8.832 0 16-7.168 16-16s-7.168-16-16-16h-288c-8.832 0-16 7.168-16 16s7.168 16 16 16h20.672c-2.72 10.272-4.672 20.864-4.672 32 0 18.496 4.48 35.776 11.712 51.616-114.656-24.704-206.016-87.456-245.76-188.032l-62.4-17.12c-13.92-3.808-23.552-16.448-23.552-30.88v-143.2c0-14.4 9.632-27.040 23.52-30.848l62.4-17.12c20.768-52.576 55.52-94.848 100.448-126.784l-16.48-65.856c-4.992-20.224 10.272-39.776 31.104-39.776h126.016c14.688 0 27.488 9.984 31.040 24.256l3.584 14.336c27.808-4.224 56.64-6.592 86.368-6.592 40.8 0 80.096 4.096 116.992 12.064l4.96-19.808c3.552-14.272 16.352-24.256 31.040-24.256h126.016c20.832 0 36.096 19.552 31.040 39.776l-21.792 87.104c48.736 43.552 81.632 102.016 91.904 175.232l42.56 21.28c23.616 11.776 23.616 45.44 0.032 57.216z" />
<glyph unicode="&#xe916;" glyph-name="dazzle" d="M582.752 483.392c23.584 11.808 23.584 45.44 0 57.248l-134.752 67.36-67.392 134.752c-5.888 11.808-17.248 17.696-28.608 17.696s-22.72-5.888-28.608-17.696l-67.392-134.752-134.752-67.392c-23.584-11.808-23.584-45.44 0-57.248l134.752-67.36 67.392-134.752c5.888-11.808 17.248-17.696 28.608-17.696s22.72 5.888 28.608 17.696l67.392 134.752 134.752 67.392zM424.16 439.84l-72.16-144.288-72.16 144.288-144.288 72.16 144.288 72.16 4.768 9.536 67.2 134.72c0 0 0.096 0.032 0.16 0.032l72.16-144.288 144.32-72.16-144.288-72.16zM885.728 733.696l-85.728 34.304-34.304 85.728c-5.344 13.408-17.536 20.096-29.696 20.096s-24.352-6.72-29.696-20.128l-34.304-85.696-85.728-34.304c-26.816-10.72-26.816-48.704 0-59.424l85.728-34.272 34.304-85.728c5.376-13.408 17.536-20.128 29.696-20.128s24.352 6.72 29.696 20.128l34.304 85.728 85.728 34.304c26.816 10.72 26.816 48.672 0 59.392zM788.128 669.696l-12.736-5.088-5.088-12.736-34.304-85.696-39.392 98.464-98.432 39.36 98.464 39.392 5.088 12.736 34.048 85.696c0.032 0 0.128 0.032 0.256 0.032l39.392-98.464 98.4-39.392-85.696-34.304zM725.728 189.696l-85.728 34.304-34.304 85.728c-5.376 13.408-17.536 20.128-29.696 20.128s-24.352-6.72-29.696-20.128l-34.304-85.728-85.728-34.304c-26.816-10.72-26.816-48.704 0-59.424l85.728-34.272 34.304-85.728c5.376-13.408 17.536-20.128 29.696-20.128s24.352 6.72 29.696 20.128l34.304 85.728 85.728 34.304c26.816 10.72 26.816 48.672 0 59.392zM628.128 125.696l-12.736-5.088-5.088-12.736-34.304-85.696-39.392 98.464-98.432 39.36 98.464 39.392 5.088 12.736 34.048 85.696c0.032 0 0.128 0.032 0.256 0.032l39.392-98.464 98.4-39.392-85.696-34.304zM870.24 396.864l-38.24 19.136-19.136 38.24c-2.624 5.312-7.744 7.968-12.864 7.968s-10.24-2.656-12.896-7.968l-19.104-38.24-38.24-19.136c-10.624-5.312-10.624-20.448 0-25.76l38.24-19.104 19.104-38.24c2.656-5.312 7.776-7.968 12.896-7.968s10.24 2.656 12.864 7.968l19.136 38.24 38.24 19.104c10.624 5.312 10.624 20.48 0 25.76zM808.16 375.84l-8.16-16.288-8.16 16.288-16.288 8.16 16.288 8.16 8.16 16.288 8.16-16.288 16.288-8.16-16.288-8.16zM409.76 819.104l38.24-19.104 19.104-38.24c2.656-5.312 7.776-7.968 12.896-7.968s10.24 2.656 12.864 7.968l19.136 38.24 38.24 19.104c10.624 5.312 10.624 20.448 0 25.76l-38.24 19.136-19.136 38.24c-2.624 5.312-7.744 7.968-12.864 7.968s-10.24-2.656-12.896-7.968l-19.104-38.24-38.24-19.136c-10.624-5.28-10.624-20.448 0-25.76zM471.84 840.16l8.16 16.288 8.16-16.288 16.288-8.16-16.288-8.16-8.16-16.288-8.16 16.288-16.288 8.16 16.288 8.16zM294.24 172.864l-38.24 19.136-19.136 38.24c-2.624 5.312-7.744 7.968-12.864 7.968s-10.24-2.656-12.896-7.968l-19.104-38.24-38.24-19.136c-10.624-5.312-10.624-20.448 0-25.76l38.24-19.104 19.104-38.24c2.656-5.312 7.776-7.968 12.896-7.968s10.24 2.656 12.864 7.968l19.136 38.24 38.24 19.104c10.624 5.312 10.624 20.48 0 25.76zM232.16 151.84l-8.16-16.288-8.16 16.288-16.288 8.16 16.288 8.16 8.16 16.288 8.16-16.288 16.288-8.16-16.288-8.16z" />
<glyph unicode="&#xe917;" glyph-name="dazzle2" d="M582.752 483.392c23.584 11.808 23.584 45.44 0 57.248l-134.752 67.36-67.392 134.752c-5.888 11.808-17.248 17.696-28.608 17.696s-22.72-5.888-28.608-17.696l-67.392-134.752-134.752-67.392c-23.584-11.808-23.584-45.44 0-57.248l134.752-67.36 67.392-134.752c5.888-11.808 17.248-17.696 28.608-17.696s22.72 5.888 28.608 17.696l67.392 134.752 134.752 67.392zM885.728 733.696l-85.728 34.304-34.304 85.728c-5.344 13.408-17.536 20.096-29.696 20.096s-24.352-6.72-29.696-20.128l-34.304-85.696-85.728-34.304c-26.816-10.72-26.816-48.704 0-59.424l85.728-34.272 34.304-85.728c5.376-13.408 17.536-20.128 29.696-20.128s24.352 6.72 29.696 20.128l34.304 85.728 85.728 34.304c26.816 10.72 26.816 48.672 0 59.392zM725.728 189.696l-85.728 34.304-34.304 85.728c-5.376 13.408-17.536 20.128-29.696 20.128s-24.352-6.72-29.696-20.128l-34.304-85.728-85.728-34.304c-26.816-10.72-26.816-48.704 0-59.424l85.728-34.272 34.304-85.728c5.376-13.408 17.536-20.128 29.696-20.128s24.352 6.72 29.696 20.128l34.304 85.728 85.728 34.304c26.816 10.72 26.816 48.672 0 59.392zM870.24 396.864l-38.24 19.136-19.136 38.24c-2.624 5.312-7.744 7.968-12.864 7.968s-10.24-2.656-12.896-7.968l-19.104-38.24-38.24-19.136c-10.624-5.312-10.624-20.448 0-25.76l38.24-19.104 19.104-38.24c2.656-5.312 7.776-7.968 12.896-7.968s10.24 2.656 12.864 7.968l19.136 38.24 38.24 19.104c10.624 5.312 10.624 20.48 0 25.76zM409.76 819.104l38.24-19.104 19.104-38.24c2.656-5.312 7.776-7.968 12.896-7.968s10.24 2.656 12.864 7.968l19.136 38.24 38.24 19.104c10.624 5.312 10.624 20.448 0 25.76l-38.24 19.136-19.136 38.24c-2.624 5.312-7.744 7.968-12.864 7.968s-10.24-2.656-12.896-7.968l-19.104-38.24-38.24-19.136c-10.624-5.28-10.624-20.448 0-25.76zM294.24 172.864l-38.24 19.136-19.136 38.24c-2.624 5.312-7.744 7.968-12.864 7.968s-10.24-2.656-12.896-7.968l-19.104-38.24-38.24-19.136c-10.624-5.312-10.624-20.448 0-25.76l38.24-19.104 19.104-38.24c2.656-5.312 7.776-7.968 12.896-7.968s10.24 2.656 12.864 7.968l19.136 38.24 38.24 19.104c10.624 5.312 10.624 20.48 0 25.76z" />
<glyph unicode="&#xe918;" glyph-name="discuss" d="M528 320h224c8.832 0 16 7.168 16 16v0c0 8.832-7.168 16-16 16h-224c-8.832 0-16-7.168-16-16v0c0-8.832 7.168-16 16-16zM528 256h224c8.832 0 16 7.168 16 16v0c0 8.832-7.168 16-16 16h-224c-8.832 0-16-7.168-16-16v0c0-8.832 7.168-16 16-16zM496 736h-224c-8.832 0-16-7.168-16-16v0c0-8.832 7.168-16 16-16h224c8.832 0 16 7.168 16 16v0c0 8.832-7.168 16-16 16zM496 672h-224c-8.832 0-16-7.168-16-16v0c0-8.832 7.168-16 16-16h224c8.832 0 16 7.168 16 16v0c0 8.832-7.168 16-16 16zM496 608h-224c-8.832 0-16-7.168-16-16v0c0-8.832 7.168-16 16-16h224c8.832 0 16 7.168 16 16v0c0 8.832-7.168 16-16 16zM704 576v224c0 53.024-42.976 96-96 96h-448c-53.024 0-96-42.976-96-96v-288c0-53.024 42.976-96 96-96h128l32-32v-192c0-53.024 42.976-96 96-96h128l73.376-73.376c12.512-12.512 32.768-12.512 45.248 0l73.376 73.376h128c53.024 0 96 42.976 96 96v288c0 53.024-42.976 96-96 96h-160zM301.248 448h-141.248c-35.36 0-64 28.64-64 64v288c0 35.36 28.64 64 64 64h448c35.36 0 64-28.64 64-64v-288c0-35.36-28.64-64-64-64h-141.248l-82.752-82.752-82.752 82.752zM864 128h-141.248l-82.752-82.752-82.752 82.752h-141.248c-35.36 0-64 28.64-64 64v160l9.376-9.376c12.512-12.512 32.768-12.512 45.248 0l73.376 73.376h128c53.024 0 96 42.976 96 96v32h160c35.36 0 64-28.64 64-64v-288c0-35.36-28.64-64-64-64z" />
<glyph unicode="&#xe919;" glyph-name="discuss2" d="M384 320l96 96h128c52.928 0 96 43.072 96 96v288c0 52.928-43.072 96-96 96h-448c-52.928 0-96-43.072-96-96v-288c0-52.928 43.072-96 96-96h128l96-96zM272 736h224c8.832 0 16-7.168 16-16s-7.168-16-16-16h-224c-8.832 0-16 7.168-16 16s7.168 16 16 16zM272 672h224c8.832 0 16-7.168 16-16s-7.168-16-16-16h-224c-8.832 0-16 7.168-16 16s7.168 16 16 16zM272 576c-8.832 0-16 7.168-16 16s7.168 16 16 16h224c8.832 0 16-7.168 16-16s-7.168-16-16-16h-224zM864 576h-128v-64c0-70.592-57.408-128-128-128h-114.752l-86.624-86.624c-6.24-6.24-14.432-9.376-22.624-9.376s-16.384 3.136-22.624 9.376l-41.376 41.376v-146.752c0-53.024 42.976-96 96-96h128l73.376-73.376c12.512-12.512 32.768-12.512 45.248 0l73.376 73.376h128c53.024 0 96 42.976 96 96v288c0 53.024-42.976 96-96 96zM752 256h-224c-8.832 0-16 7.168-16 16s7.168 16 16 16h224c8.832 0 16-7.168 16-16s-7.168-16-16-16zM752 320h-224c-8.832 0-16 7.168-16 16s7.168 16 16 16h224c8.832 0 16-7.168 16-16s-7.168-16-16-16z" />
<glyph unicode="&#xe91a;" glyph-name="edit" d="M608 960h-192c-53.024 0-96-42.976-96-96v-661.344c0-6.912 2.24-13.664 6.4-19.2l160-213.344c12.8-17.056 38.4-17.056 51.2 0l160 213.344c4.16 5.536 6.4 12.288 6.4 19.2v661.344c0 53.024-42.976 96-96 96zM512-10.656l-32 42.656h64l-32-42.656zM568 64h-112l-96 128h304l-96-128zM672 224h-320v384h320v-384zM672 640h-320v96h320v-96zM672 768h-320v96c0 35.296 28.704 64 64 64h192c35.296 0 64-28.704 64-64v-96z" />
<glyph unicode="&#xe91b;" glyph-name="edit2" d="M704 640h-384v96h384v-96zM704 864c0 53.024-42.976 96-96 96h-192c-53.024 0-96-42.976-96-96v-96h384v96zM486.4-29.856c12.8-17.056 38.4-17.056 51.2 0l46.4 61.856h-144l46.4-61.856zM320 192l96-128h192l96 128h-384zM704 224v384h-384v-384h384z" />
<glyph unicode="&#xe91c;" glyph-name="enlarge" d="M608 608c0 17.664 14.336 32 32 32s32-14.336 32-32c0-17.664-14.336-32-32-32s-32 14.336-32 32zM608 176c0 44.192 35.808 80 80 80s80-35.808 80-80c0-44.192-35.808-80-80-80s-80 35.808-80 80zM640 176c0-26.464 21.536-48 48-48s48 21.536 48 48-21.536 48-48 48-48-21.536-48-48zM896 32v-32c0-17.664-14.336-32-32-32h-704c-17.664 0-32 14.336-32 32v32c0 35.36 28.64 64 64 64h376.32c-6.56 9.824-11.488 20.672-15.488 32h-296.832c-17.664 0-32 14.336-32 32v32c0 17.664 14.336 32 32 32h296.832c5.408 15.232 13.28 29.12 23.168 41.504v246.496l-32 32h-64v-64c0-17.664-14.336-32-32-32v-32c0-17.664-14.336-32-32-32h-64c-17.664 0-32 14.336-32 32v32c-17.664 0-32 14.336-32 32v64c-17.664 0-32 14.336-32 32v160c0 17.664 14.336 32 32 32v128c0 17.664 14.336 32 32 32h128c17.664 0 32-14.336 32-32v-128h120.224c25.472 0 49.888-10.112 67.872-28.128l103.776-103.776c18.016-17.984 28.128-42.4 28.128-67.872v-302.752c19.712-24.64 32-55.488 32-89.504 0-29.6-8.992-57.12-24.32-80h24.32c35.36 0.032 64-28.608 64-63.968zM544 176c0 5.472 1.024 10.688 1.6 16h-289.6v-32h289.6c-0.576 5.312-1.6 10.528-1.6 16zM320 768h128v128h-128v-128zM416 448h-64v-32h64v32zM448 544h-128v-64h128v64zM608 512v-216.32c22.88 15.328 50.4 24.32 80 24.32s57.12-8.992 80-24.32v272.544c0 16.96-6.752 33.248-18.752 45.248l-103.776 103.776c-12 12-28.256 18.752-45.248 18.752h-312.224v-160h256c8.48 0 16.64-3.36 22.624-9.376l32-32c6.016-5.984 9.376-14.144 9.376-22.624zM576 176c0-61.76 50.24-112 112-112s112 50.24 112 112c0 61.76-50.24 112-112 112s-112-50.24-112-112zM832 64h-54.496c-24.64-19.712-55.488-32-89.504-32s-64.864 12.288-89.504 32h-406.496c-17.664 0-32-14.336-32-32v-32h704v32c0 17.664-14.336 32-32 32z" />
<glyph unicode="&#xe91d;" glyph-name="enlarge2" d="M288 544h256l32-32v-200.352c30.464 25.184 69.504 40.352 112 40.352s81.536-15.168 112-40.352v256.576c0 25.472-10.112 49.888-28.128 67.872l-103.776 103.776c-17.984 18.016-42.4 28.128-67.872 28.128h-312.224c-17.664 0-32-14.336-32-32v-160c0-17.664 14.336-32 32-32zM640 640c17.664 0 32-14.336 32-32s-14.336-32-32-32-32 14.336-32 32c0 17.664 14.336 32 32 32zM320 416v32c-17.664 0-32 14.336-32 32v32h192v-32c0-17.664-14.336-32-32-32v-32c0-17.664-14.336-32-32-32h-64c-17.664 0-32 14.336-32 32zM480 800h-192v96c0 17.664 14.336 32 32 32h128c17.664 0 32-14.336 32-32v-96zM224 160v32c0 17.664 14.336 32 32 32h262.816c-4.352-15.296-6.816-31.328-6.816-48s2.464-32.704 6.816-48h-262.816c-17.664 0-32 14.336-32 32zM896 32v-32c0-17.664-14.336-32-32-32h-704c-17.664 0-32 14.336-32 32v32c0 35.36 28.64 64 64 64h339.424c29.184-56.896 88.352-96 156.576-96 67.744 0 126.592 38.528 156 94.784 29.6-5.632 52-31.552 52-62.784zM736 176c0-26.464-21.536-48-48-48s-48 21.536-48 48 21.536 48 48 48 48-21.536 48-48zM688 320c-79.52 0-144-64.48-144-144s64.48-144 144-144 144 64.48 144 144-64.48 144-144 144zM688 96c-44.192 0-80 35.808-80 80s35.808 80 80 80 80-35.808 80-80c0-44.192-35.808-80-80-80z" />
<glyph unicode="&#xe91e;" glyph-name="experiment" d="M512 896c-247.424 0-448-200.576-448-448s200.576-448 448-448 448 200.576 448 448-200.576 448-448 448zM512 32c-229.376 0-416 186.624-416 416s186.624 416 416 416 416-186.624 416-416-186.624-416-416-416zM512 832c-211.744 0-384-172.256-384-384s172.256-384 384-384 384 172.256 384 384-172.256 384-384 384zM512 96c-194.4 0-352 157.6-352 352s157.6 352 352 352 352-157.6 352-352-157.6-352-352-352zM512 352c-70.592 0-128 57.408-128 128 0 35.328-28.672 64-64 64s-64-28.672-64-64c0-141.152 114.848-256 256-256 35.328 0 64 28.672 64 64s-28.672 64-64 64zM512 256c-123.52 0-224 100.48-224 224 0 17.632 14.368 32 32 32s32-14.368 32-32c0-88.224 71.776-160 160-160 17.632 0 32-14.368 32-32s-14.368-32-32-32zM736 608c0 35.328-28.672 64-64 64-105.888 0-192-86.112-192-192 0-35.328 28.672-64 64-64s64 28.672 64 64c0 35.296 28.704 64 64 64 35.328 0 64 28.672 64 64zM576 480c0-17.632-14.368-32-32-32s-32 14.368-32 32c0 88.224 71.776 160 160 160 17.632 0 32-14.368 32-32s-14.368-32-32-32c-52.928 0-96-43.072-96-96zM704 448c-35.36 0-64-28.64-64-64s28.64-64 64-64 64 28.64 64 64-28.64 64-64 64zM704 352c-17.632 0-32 14.368-32 32s14.368 32 32 32 32-14.368 32-32-14.368-32-32-32z" />
<glyph unicode="&#xe91f;" glyph-name="experiment2" d="M736 384c0-17.632-14.368-32-32-32s-32 14.368-32 32 14.368 32 32 32 32-14.368 32-32zM704 608c0 17.632-14.368 32-32 32-88.224 0-160-71.776-160-160 0-17.632 14.368-32 32-32s32 14.368 32 32c0 52.928 43.072 96 96 96 17.632 0 32 14.368 32 32zM512 320c-88.224 0-160 71.776-160 160 0 17.632-14.368 32-32 32s-32-14.368-32-32c0-123.52 100.48-224 224-224 17.632 0 32 14.368 32 32s-14.368 32-32 32zM864 448c0-194.4-157.6-352-352-352s-352 157.6-352 352 157.6 352 352 352 352-157.6 352-352zM576 288c0 35.328-28.672 64-64 64-70.592 0-128 57.408-128 128 0 35.328-28.672 64-64 64s-64-28.672-64-64c0-141.152 114.848-256 256-256 35.328 0 64 28.672 64 64zM672 544c35.328 0 64 28.672 64 64s-28.672 64-64 64c-105.888 0-192-86.112-192-192 0-35.328 28.672-64 64-64s64 28.672 64 64c0 35.296 28.704 64 64 64zM768 384c0 35.36-28.64 64-64 64s-64-28.64-64-64 28.64-64 64-64 64 28.64 64 64zM960 448c0-247.424-200.576-448-448-448s-448 200.576-448 448 200.576 448 448 448 448-200.576 448-448zM896 448c0 211.744-172.256 384-384 384s-384-172.256-384-384 172.256-384 384-384 384 172.256 384 384z" />
<glyph unicode="&#xe920;" glyph-name="form" d="M544 256c0-17.664-14.336-32-32-32s-32 14.336-32 32c0 17.664 14.336 32 32 32s32-14.336 32-32zM448 768c17.664 0 32 14.336 32 32s-14.336 32-32 32-32-14.336-32-32c0-17.664 14.336-32 32-32zM576 768c17.664 0 32 14.336 32 32s-14.336 32-32 32-32-14.336-32-32c0-17.664 14.336-32 32-32zM512 384c-17.664 0-32-14.336-32-32s14.336-32 32-32 32 14.336 32 32c0 17.664-14.336 32-32 32zM512 480c-17.664 0-32-14.336-32-32s14.336-32 32-32 32 14.336 32 32c0 17.664-14.336 32-32 32zM960 624c0-8.832-7.168-16-16-16h-57.376l-100.8-100.8c48.64-59.968 78.176-135.872 78.176-219.2 0-194.4-157.6-352-352-352s-352 157.6-352 352c0 83.328 29.44 159.328 78.112 219.264l-100.736 100.736h-57.376c-8.832 0-16 7.168-16 16s7.168 16 16 16h48v48c0 8.832 7.168 16 16 16s16-7.168 16-16v-57.376l99.552-99.552c10.304 10.592 21.056 20.736 32.608 30.016-2.432 4.512-4.16 9.44-4.16 14.912v64c0 10.176 5.024 18.816 12.416 24.672-7.776 22.4-12.416 46.24-12.416 71.328 0 123.712 100.288 224 224 224s224-100.288 224-224c0-25.088-4.64-48.928-12.416-71.328 7.36-5.856 12.416-14.496 12.416-24.672v-82.176c10.048-8.32 19.584-17.216 28.64-26.56l99.36 99.36v57.376c0 8.832 7.168 16 16 16s16-7.168 16-16v-48h48c8.832 0 16-7.168 16-16zM320 736c0-22.016 4.384-43.52 11.744-64h360.512c7.36 20.48 11.744 41.984 11.744 64 0 105.856-86.144 192-192 192s-192-86.144-192-192zM320 576h384v64h-384v-64zM701.6 544h-61.6v-224h64v222.144c-0.8 0.608-1.6 1.248-2.4 1.856zM736 514.464v-274.464c0-8.832-7.168-16-16-16s-16 7.168-16 16v48h-16v-48c0-8.832-7.168-16-16-16s-16 7.168-16 16v48h-16v-48c0-8.832-7.168-16-16-16s-16 7.168-16 16v304h-285.6c-80.8-59.936-130.4-154.336-130.4-256 0-176.448 143.552-320 320-320s320 143.552 320 320c0 86.272-35.872 167.2-96 226.464z" />
<glyph unicode="&#xe921;" glyph-name="form2" d="M726.208 672c6.144 20.32 9.792 41.664 9.792 64 0 123.712-100.288 224-224 224s-224-100.288-224-224c0-22.336 3.648-43.68 9.792-64h428.416zM576 832c17.664 0 32-14.336 32-32s-14.336-32-32-32-32 14.336-32 32c0 17.664 14.336 32 32 32zM448 832c17.664 0 32-14.336 32-32s-14.336-32-32-32-32 14.336-32 32c0 17.664 14.336 32 32 32zM640 320v224h64v-224h-64zM736 640v-64h-448v64h448zM944 640h-48v48c0 8.832-7.168 16-16 16s-16-7.168-16-16v-57.376l-99.008-99.008c-4.16 4.288-8.608 8.256-12.928 12.384h-16.064v-304c0-8.832-7.168-16-16-16s-16 7.168-16 16v48h-16v-48c0-8.832-7.168-16-16-16s-16 7.168-16 16v48h-16v-48c0-8.832-7.168-16-16-16s-16 7.168-16 16v304h-336.064c-4.32-4.128-8.768-8.096-12.928-12.384l-99.008 99.008v57.376c0 8.832-7.168 16-16 16s-16-7.168-16-16v-48h-48c-8.832 0-16-7.168-16-16s7.168-16 16-16h57.376l100.448-100.448c-48.384-60.224-77.824-136.288-77.824-219.552 0-194.4 157.6-352 352-352s352 157.6 352 352c0 83.264-29.44 159.328-77.824 219.552l100.448 100.448h57.376c8.832 0 16 7.168 16 16s-7.168 16-16 16zM512 224c-17.664 0-32 14.336-32 32s14.336 32 32 32 32-14.336 32-32c0-17.664-14.336-32-32-32zM512 320c-17.664 0-32 14.336-32 32s14.336 32 32 32 32-14.336 32-32c0-17.664-14.336-32-32-32zM512 416c-17.664 0-32 14.336-32 32s14.336 32 32 32 32-14.336 32-32c0-17.664-14.336-32-32-32z" />
<glyph unicode="&#xe922;" glyph-name="hear" d="M192 592v-256c0-8.832-7.168-16-16-16s-16 7.168-16 16v256c0 8.832 7.168 16 16 16s16-7.168 16-16zM240 672c-8.832 0-16-7.168-16-16v-384c0-8.832 7.168-16 16-16s16 7.168 16 16v384c0 8.832-7.168 16-16 16zM432 640c-8.832 0-16-7.168-16-16v-320c0-8.832 7.168-16 16-16s16 7.168 16 16v320c0 8.832-7.168 16-16 16zM368 704c-8.832 0-16-7.168-16-16v-448c0-8.832 7.168-16 16-16s16 7.168 16 16v448c0 8.832-7.168 16-16 16zM496 704c-8.832 0-16-7.168-16-16v-448c0-8.832 7.168-16 16-16s16 7.168 16 16v448c0 8.832-7.168 16-16 16zM624 736c-8.832 0-16-7.168-16-16v-512c0-8.832 7.168-16 16-16s16 7.168 16 16v512c0 8.832-7.168 16-16 16zM688 640c-8.832 0-16-7.168-16-16v-320c0-8.832 7.168-16 16-16s16 7.168 16 16v320c0 8.832-7.168 16-16 16zM752 544c-8.832 0-16-7.168-16-16v-128c0-8.832 7.168-16 16-16s16 7.168 16 16v128c0 8.832-7.168 16-16 16zM816 576c-8.832 0-16-7.168-16-16v-192c0-8.832 7.168-16 16-16s16 7.168 16 16v192c0 8.832-7.168 16-16 16zM880 640c-8.832 0-16-7.168-16-16v-320c0-8.832 7.168-16 16-16s16 7.168 16 16v320c0 8.832-7.168 16-16 16zM944 576c-8.832 0-16-7.168-16-16v-192c0-8.832 7.168-16 16-16s16 7.168 16 16v192c0 8.832-7.168 16-16 16zM1008 512c-8.832 0-16-7.168-16-16v-64c0-8.832 7.168-16 16-16s16 7.168 16 16v64c0 8.832-7.168 16-16 16zM304 736c-8.832 0-16-7.168-16-16v-512c0-8.832 7.168-16 16-16s16 7.168 16 16v512c0 8.832-7.168 16-16 16zM560 800c-8.832 0-16-7.168-16-16v-640c0-8.832 7.168-16 16-16s16 7.168 16 16v640c0 8.832-7.168 16-16 16zM112 544c-8.832 0-16-7.168-16-16v-128c0-8.832 7.168-16 16-16s16 7.168 16 16v128c0 8.832-7.168 16-16 16zM48 512c-8.832 0-16-7.168-16-16v-64c0-8.832 7.168-16 16-16s16 7.168 16 16v64c0 8.832-7.168 16-16 16z" />
<glyph unicode="&#xe923;" glyph-name="hear2" d="M560 96c-26.464 0-48 21.536-48 48v640c0 26.464 21.536 48 48 48s48-21.536 48-48v-640c0-26.464-21.536-48-48-48zM304 160c-26.464 0-48 21.536-48 48v512c0 26.464 21.536 48 48 48s48-21.536 48-48v-512c0-26.464-21.536-48-48-48zM688 256c-26.464 0-48 21.536-48 48v320c0 26.464 21.536 48 48 48s48-21.536 48-48v-320c0-26.464-21.536-48-48-48zM432 256c-26.464 0-48 21.536-48 48v320c0 26.464 21.536 48 48 48s48-21.536 48-48v-320c0-26.464-21.536-48-48-48zM176 288c-26.464 0-48 21.536-48 48v256c0 26.464 21.536 48 48 48s48-21.536 48-48v-256c0-26.464-21.536-48-48-48zM944 320c-26.464 0-48 21.536-48 48v192c0 26.464 21.536 48 48 48s48-21.536 48-48v-192c0-26.464-21.536-48-48-48zM816 352c-26.464 0-48 21.536-48 48v128c0 26.464 21.536 48 48 48s48-21.536 48-48v-128c0-26.464-21.536-48-48-48zM48 384c-26.464 0-48 21.536-48 48v64c0 26.464 21.536 48 48 48s48-21.536 48-48v-64c0-26.464-21.536-48-48-48z" />
<glyph unicode="&#xe924;" glyph-name="identify" d="M423.008 477.216l-1.568 0.768c16.352 17.248 26.56 40.384 26.56 66.016 0 53.024-42.976 96-96 96s-96-42.976-96-96c0-25.632 10.208-48.768 26.56-65.984l-1.568-0.768c-35.616-23.776-56.992-63.744-56.992-106.528v-82.72c0-17.664 14.336-32 32-32h192c17.664 0 32 14.336 32 32v82.72c0 42.784-21.376 82.752-56.992 106.496zM352 608c35.296 0 64-28.704 64-64s-28.704-64-64-64-64 28.704-64 64c0 35.296 28.704 64 64 64zM448 288h-192v82.72c0 31.552 15.36 60.896 41.216 78.848l14.816 7.392c12.192-5.632 25.664-8.96 39.968-8.96s27.776 3.328 39.968 8.96l14.816-7.392c25.856-17.952 41.216-47.296 41.216-78.848v-82.72zM896 800h-768c-53.024 0-96-42.976-96-96v-512c0-53.024 42.976-96 96-96h768c53.024 0 96 42.976 96 96v512c0 53.024-42.976 96-96 96zM960 192c0-35.296-28.704-64-64-64h-768c-35.296 0-64 28.704-64 64v512c0 35.296 28.704 64 64 64h768c35.296 0 64-28.704 64-64v-512zM800 432c0-8.832-7.168-16-16-16h-192c-8.832 0-16 7.168-16 16s7.168 16 16 16h192c8.832 0 16-7.168 16-16zM800 368c0-8.832-7.168-16-16-16h-192c-8.832 0-16 7.168-16 16s7.168 16 16 16h192c8.832 0 16-7.168 16-16zM800 496c0-8.832-7.168-16-16-16h-192c-8.832 0-16 7.168-16 16s7.168 16 16 16h192c8.832 0 16-7.168 16-16z" />
<glyph unicode="&#xe925;" glyph-name="identify2" d="M448 370.72v-82.72h-192v82.72c0 31.552 15.36 60.896 41.216 78.848l14.816 7.392c12.192-5.632 25.664-8.96 39.968-8.96s27.776 3.328 39.968 8.96l14.816-7.392c25.856-17.952 41.216-47.296 41.216-78.848zM352 480c35.296 0 64 28.704 64 64s-28.704 64-64 64-64-28.704-64-64c0-35.296 28.704-64 64-64zM992 704v-512c0-53.024-42.976-96-96-96h-768c-53.024 0-96 42.976-96 96v512c0 53.024 42.976 96 96 96h768c53.024 0 96-42.976 96-96zM480 370.72c0 42.784-21.376 82.752-56.992 106.496l-1.568 0.768c16.352 17.248 26.56 40.384 26.56 66.016 0 53.024-42.976 96-96 96s-96-42.976-96-96c0-25.632 10.208-48.768 26.56-65.984l-1.568-0.768c-35.616-23.776-56.992-63.744-56.992-106.528v-82.72c0-17.664 14.336-32 32-32h192c17.664 0 32 14.336 32 32v82.72zM800 368c0 8.832-7.168 16-16 16h-192c-8.832 0-16-7.168-16-16s7.168-16 16-16h192c8.832 0 16 7.168 16 16zM800 432c0 8.832-7.168 16-16 16h-192c-8.832 0-16-7.168-16-16s7.168-16 16-16h192c8.832 0 16 7.168 16 16zM800 496c0 8.832-7.168 16-16 16h-192c-8.832 0-16-7.168-16-16s7.168-16 16-16h192c8.832 0 16 7.168 16 16z" />
<glyph unicode="&#xe926;" glyph-name="inject" d="M969.376 694.624l-210.752 210.752c-12.512 12.512-32.768 12.512-45.248 0l-18.752-18.752c-12.512-12.512-12.512-32.768 0-45.248l9.376-9.376-96-96-41.376 41.376c-12.512 12.512-32.768 12.512-45.248 0l-18.752-18.752c-12.512-12.512-12.512-32.768 0-45.248l9.376-9.376-387.872-387.872c-18.016-18.016-28.128-42.432-28.128-67.904v-184.224l-48-48c-8.832-8.832-8.832-23.168 0-32s23.168-8.832 32 0l48 48h184.224c25.472 0 49.888 10.112 67.872 28.128l387.904 387.872 9.376-9.376c12.512-12.512 32.768-12.512 45.248 0l18.752 18.752c12.512 12.512 12.512 32.768 0 45.248l-41.376 41.376 96 96 9.376-9.376c12.512-12.512 32.768-12.512 45.248 0l18.752 18.752c12.48 12.48 12.48 32.768 0 45.248zM818.752 480l-18.752-18.752-32 32-410.496-410.496c-12.032-12-28.288-18.752-45.28-18.752h-184.224v184.224c0 16.96 6.752 33.248 18.752 45.248l410.496 410.528-32 32 18.752 18.752 274.752-274.752zM928 653.248l-32 32-118.624-118.624-146.752 146.752 118.624 118.624-32 32 18.752 18.752 210.752-210.752-18.752-18.752zM288 256c0-17.664-14.336-32-32-32s-32 14.336-32 32c0 17.664 14.336 32 32 32s32-14.336 32-32zM384 352c0-17.664-14.336-32-32-32s-32 14.336-32 32c0 17.664 14.336 32 32 32s32-14.336 32-32zM480 448c0-17.664-14.336-32-32-32s-32 14.336-32 32c0 17.664 14.336 32 32 32s32-14.336 32-32zM544 576c17.664 0 32-14.336 32-32s-14.336-32-32-32-32 14.336-32 32c0 17.664 14.336 32 32 32z" />
<glyph unicode="&#xe927;" glyph-name="inject2" d="M566.624 777.376c-12.512 12.512-32.768 12.512-45.248 0l-18.752-18.752c-12.512-12.512-12.512-32.768 0-45.248l9.376-9.376-387.872-387.872c-18.016-18.016-28.128-42.432-28.128-67.904v-184.224l-48-48c-8.832-8.832-8.832-23.168 0-32s23.168-8.832 32 0l48 48h184.224c25.472 0 49.888 10.112 67.872 28.128l387.904 387.872 9.376-9.376c12.512-12.512 32.768-12.512 45.248 0l18.752 18.752c12.512 12.512 12.512 32.768 0 45.248l-274.752 274.752zM256 224c-17.664 0-32 14.336-32 32s14.336 32 32 32 32-14.336 32-32c0-17.664-14.336-32-32-32zM352 320c-17.664 0-32 14.336-32 32s14.336 32 32 32 32-14.336 32-32c0-17.664-14.336-32-32-32zM448 416c-17.664 0-32 14.336-32 32s14.336 32 32 32 32-14.336 32-32c0-17.664-14.336-32-32-32zM544 512c-17.664 0-32 14.336-32 32s14.336 32 32 32 32-14.336 32-32c0-17.664-14.336-32-32-32zM969.376 649.376l-18.752-18.752c-12.512-12.512-32.768-12.512-45.248 0l-9.376 9.376-73.376-73.376-192 192 73.376 73.376-9.376 9.376c-12.512 12.512-12.512 32.768 0 45.248l18.752 18.752c12.512 12.512 32.768 12.512 45.248 0l210.752-210.752c12.48-12.48 12.48-32.768 0-45.248z" />
<glyph unicode="&#xe928;" glyph-name="launch" d="M512 704c-53.024 0-96-42.976-96-96s42.976-96 96-96 96 42.976 96 96-42.976 96-96 96zM512 544c-35.296 0-64 28.704-64 64s28.704 64 64 64 64-28.704 64-64c0-35.296-28.704-64-64-64zM747.776 408.16c11.776 51.84 20.224 109.152 20.224 167.84 0 189.312-149.888 313.76-220.288 361.728-21.6 14.752-49.824 14.752-71.424 0-70.4-47.968-220.288-172.416-220.288-361.728 0-64.608 6.624-121.44 16.288-170.464l-66.048-44.032c-8.896-5.952-14.24-15.936-14.24-26.624v-130.464c0-18.24 14.944-32.032 31.936-32.032 3.328 0 6.752 0.544 10.176 1.664l107.072 35.68c6.56-11.52 10.816-17.728 10.816-17.728l-17.952-53.888c-6.912-20.704 8.512-42.112 30.336-42.112h19.040c-2.72-10.272-4.672-20.864-4.672-32 0-39.136 9.824-74.176 18.56-97.664 6.432-17.28 25.952-25.792 42.784-18.336 8.8 3.904 18.944 8.64 29.664 14.112 12.288-7.872 23.712-14.24 32.224-18.72 9.376-4.928 20.384-5.024 29.76-0.128 3.968 2.080 8.544 4.544 13.568 7.392 9.024 5.12 20.096 5.664 29.504 1.312 3.104-1.44 6.080-2.784 8.928-4.032 16.928-7.488 36.352 0.992 42.816 18.336 8.768 23.488 18.56 58.528 18.56 97.664 0 11.136-1.952 21.728-4.672 32h19.040c21.856 0 37.28 21.408 30.368 42.112l-17.856 53.952c0 0 3.36 6.496 8.864 18.368l109.024-36.352c3.392-1.12 6.816-1.664 10.176-1.664 16.992 0 31.936 13.76 31.936 32.032v130.464c0 10.688-5.344 20.704-14.24 26.624l-69.984 46.688zM224 204.384v130.464l55.648 37.088c14.176-58.464 32.096-103.2 46.656-133.472l-102.304-34.080zM596.576-22.624c-6.784 3.008-14.464 6.56-22.528 10.56v0c-9.952 4.96-21.728 4.384-31.168-1.472v0c-9.856-6.112-18.912-11.136-25.824-14.752-7.872 4.128-18.528 10.048-29.984 17.376v0c-9.6 6.144-21.728 6.72-31.872 1.536v0c-9.984-5.12-19.52-9.568-27.776-13.216-7.744 20.8-16.672 52.192-16.672 86.592 0 11.296 2.272 21.984 5.984 32h31.264c0-20.64 21.824-49.92 40-70.72 12.672-14.496 35.328-14.496 48 0 18.176 20.8 40 50.080 40 70.72h31.232c3.712-10.016 5.984-20.704 5.984-32 0-34.528-8.896-65.856-16.64-86.624zM480 96h64c-0.48-8.416-14.208-29.088-32.032-49.664-17.824 20.576-31.552 41.312-31.968 49.664zM364.384 128l21.28 64h252.576l21.344-64h-295.2zM651.84 224h-281.92c-22.304 39.136-81.92 161.6-81.92 352 0 173.344 140.736 290.144 206.272 335.104 10.72 7.36 24.832 7.392 35.584 0.032 65.536-44.8 206.144-161.248 206.144-335.136 0-154.656-61.536-302.816-84.16-352zM800 204.384l-106.24 35.424c13.6 32.544 31.232 79.744 45.92 135.264l60.32-40.192v-130.496zM512 768c-88.224 0-160-71.776-160-160s71.776-160 160-160 160 71.776 160 160-71.776 160-160 160zM512 480c-70.688 0-128 57.312-128 128s57.312 128 128 128c70.688 0 128-57.312 128-128s-57.312-128-128-128z" />
<glyph unicode="&#xe929;" glyph-name="launch2" d="M817.76 361.504l-69.984 46.656c11.776 51.84 20.224 109.152 20.224 167.84 0 189.312-149.888 313.76-220.288 361.728-21.6 14.752-49.824 14.752-71.424 0-70.4-47.968-220.288-172.416-220.288-361.728 0-64.608 6.624-121.44 16.288-170.464l-66.048-44.032c-8.896-5.952-14.24-15.936-14.24-26.624v-130.464c0-18.24 14.944-32.032 31.936-32.032 3.328 0 6.752 0.544 10.176 1.664l107.072 35.68c6.56-11.52 10.816-17.728 10.816-17.728l-17.952-53.888c-6.912-20.704 8.512-42.112 30.368-42.112h295.2c21.856 0 37.248 21.408 30.368 42.112l-17.984 53.888c0 0 3.36 6.496 8.864 18.368l109.024-36.352c3.392-1.12 6.816-1.664 10.176-1.664 16.992 0 31.936 13.76 31.936 32.032v130.464c0 10.72-5.344 20.704-14.24 26.656zM512 448c-88.224 0-160 71.776-160 160s71.776 160 160 160 160-71.776 160-160-71.776-160-160-160zM576 608c0-35.296-28.704-64-64-64s-64 28.704-64 64c0 35.296 28.704 64 64 64s64-28.704 64-64zM512 736c-70.688 0-128-57.312-128-128s57.312-128 128-128c70.688 0 128 57.312 128 128s-57.312 128-128 128zM512 512c-53.024 0-96 42.976-96 96s42.976 96 96 96 96-42.976 96-96-42.976-96-96-96zM378.784 64h266.432c0-39.136-9.824-74.176-18.56-97.664-6.464-17.344-25.92-25.824-42.816-18.336-2.848 1.248-5.824 2.592-8.928 4.032-9.408 4.352-20.512 3.808-29.504-1.312-5.024-2.848-9.6-5.344-13.568-7.392-9.408-4.928-20.384-4.8-29.792 0.128-8.512 4.48-19.936 10.848-32.224 18.72-10.688-5.472-20.864-10.24-29.664-14.112-16.864-7.456-36.352 1.056-42.784 18.336-8.768 23.424-18.592 58.464-18.592 97.6z" />
<glyph unicode="&#xe92a;" glyph-name="locate" d="M512 928c-194.4 0-352-157.6-352-352 0-207.808 183.264-415.616 285.312-515.232 37.088-36.192 96.288-36.192 133.344 0 102.080 99.616 285.344 307.424 285.344 515.232 0 194.4-157.6 352-352 352zM556.544 84.064c-24.8-24.256-64.256-24.256-89.056 0-98.752 96.64-275.488 296.864-275.488 491.936 0 176.448 143.552 320 320 320s320-143.552 320-320c0-195.072-176.736-395.296-275.456-491.936zM512 768c-106.048 0-192-85.952-192-192s85.952-192 192-192 192 85.952 192 192-85.952 192-192 192zM512 416c-88.224 0-160 71.776-160 160s71.776 160 160 160 160-71.776 160-160-71.776-160-160-160z" />
<glyph unicode="&#xe92b;" glyph-name="locate2" d="M512 928c-194.4 0-352-157.6-352-352 0-207.808 183.264-415.616 285.312-515.232 37.088-36.192 96.288-36.192 133.344 0 102.080 99.616 285.344 307.424 285.344 515.232 0 194.4-157.6 352-352 352zM512 384c-106.048 0-192 85.952-192 192s85.952 192 192 192 192-85.952 192-192-85.952-192-192-192zM672 576c0-88.224-71.776-160-160-160s-160 71.776-160 160 71.776 160 160 160 160-71.776 160-160z" />
<glyph unicode="&#xe92c;" glyph-name="lock" d="M736 512v150.592c0 122.656-94.496 229.6-217.12 233.28-126.848 3.84-230.88-97.856-230.88-223.872v-160h-32c-53.024 0-96-42.976-96-96v-320c0-53.024 42.976-96 96-96h512c53.024 0 96 42.976 96 96v320c0 53.024-42.976 96-96 96h-32zM320 672c0 105.856 86.144 192 192 192s192-86.144 192-192v-160h-32v160c0 88.224-71.776 160-160 160s-160-71.776-160-160v-160h-32v160zM640 512h-256v160c0 70.688 57.312 128 128 128s128-57.312 128-128v-160zM768 32h-512c-35.36 0-64 28.64-64 64v320c0 35.36 28.64 64 64 64h512c35.36 0 64-28.64 64-64v-320c0-35.36-28.64-64-64-64zM576 320c0 35.36-28.64 64-64 64s-64-28.64-64-64c0-21.92 11.040-41.216 27.84-52.768l-20.192-100.96c-3.968-19.808 11.2-38.272 31.392-38.272h49.92c20.192 0 35.328 18.464 31.392 38.272l-20.192 100.96c16.8 11.552 27.84 30.848 27.84 52.768zM516.768 260.96l20.192-100.96h-49.92l20.192 100.96 4.128 20.704-17.408 11.936c-8.736 6.016-13.952 15.872-13.952 26.4 0 17.632 14.368 32 32 32s32-14.368 32-32c0-10.528-5.216-20.384-13.952-26.4l-17.408-11.936 4.128-20.704z" />
<glyph unicode="&#xe92d;" glyph-name="lock2" d="M530.048 293.6l-17.408-11.936 24.32-121.664h-49.92l24.32 121.664-17.408 11.936c-8.736 6.016-13.952 15.872-13.952 26.4 0 17.632 14.368 32 32 32s32-14.368 32-32c0-10.528-5.216-20.384-13.952-26.4zM384 544v128c0 70.688 57.312 128 128 128s128-57.312 128-128v-128h96v118.592c0 122.656-94.496 229.6-217.12 233.28-126.848 3.84-230.88-97.856-230.88-223.872v-128h96zM864 416v-320c0-53.024-42.976-96-96-96h-512c-53.024 0-96 42.976-96 96v320c0 53.024 42.976 96 96 96h512c53.024 0 96-42.976 96-96zM548.16 267.232c16.8 11.552 27.84 30.848 27.84 52.768 0 35.36-28.64 64-64 64s-64-28.64-64-64c0-21.92 11.040-41.216 27.84-52.768l-20.192-100.96c-3.968-19.808 11.2-38.272 31.392-38.272h49.92c20.192 0 35.328 18.464 31.392 38.272l-20.192 100.96z" />
<glyph unicode="&#xe92e;" glyph-name="navigate" d="M480 672h-32v128h22.624l73.376-73.376v73.376h32v-128h-22.624l-73.376 73.376v-73.376zM960 448c0-247.424-200.576-448-448-448s-448 200.576-448 448 200.576 448 448 448 448-200.576 448-448zM928 448c0 229.376-186.624 416-416 416s-416-186.624-416-416 186.624-416 416-416 416 186.624 416 416zM588.992 498.976l124-230.304c7.52-13.984-7.712-29.184-21.664-21.664l-230.304 124c-11.040 5.952-20.064 14.976-26.016 26.016l-124 230.304c-7.52 13.952 7.712 29.184 21.664 21.664l230.304-124c11.040-5.952 20.064-14.976 26.016-26.016zM659.52 300.48l-103.264 191.776-191.776 103.264 103.264-191.776 191.776-103.264zM489.376 470.624c-12.512-12.512-12.512-32.768 0-45.248 12.512-12.512 32.768-12.512 45.248 0 12.512 12.512 12.512 32.768 0 45.248-12.48 12.512-32.768 12.512-45.248 0z" />
<glyph unicode="&#xe92f;" glyph-name="navigate2" d="M364.48 595.52l103.264-191.776 191.776-103.264-103.264 191.776-191.776 103.264zM534.624 425.376c-12.512-12.512-32.768-12.512-45.248 0-12.512 12.512-12.512 32.768 0 45.248 12.512 12.512 32.768 12.512 45.248 0 12.512-12.48 12.512-32.768 0-45.248zM512 896c-247.424 0-448-200.576-448-448s200.576-448 448-448 448 200.576 448 448-200.576 448-448 448zM448 800h22.624l73.376-73.376v73.376h32v-128h-22.624l-73.376 73.376v-73.376h-32v128zM691.328 247.008l-230.304 124c-11.040 5.952-20.064 14.976-26.016 26.016l-124 230.304c-7.52 13.952 7.712 29.184 21.664 21.664l230.304-124c11.040-5.952 20.064-14.976 26.016-26.016l124-230.304c7.52-13.952-7.712-29.184-21.664-21.664z" />
<glyph unicode="&#xe930;" glyph-name="report" d="M256 624v0c0 8.832 7.168 16 16 16h96c8.832 0 16-7.168 16-16v0c0-8.832-7.168-16-16-16h-96c-8.832 0-16 7.168-16 16zM272 544h96c8.832 0 16 7.168 16 16v0c0 8.832-7.168 16-16 16h-96c-8.832 0-16-7.168-16-16v0c0-8.832 7.168-16 16-16zM960 704v-576c0-53.024-42.976-96-96-96h-704c-53.024 0-96 42.976-96 96v576c0 53.024 42.976 96 96 96 0 0 14.336 32 32 32h98.944c6.624 18.592 24.224 32 45.056 32s38.432-13.408 45.056-32h66.944c17.664 0 32-14.336 32-32h384c53.024 0 96-42.976 96-96zM192 480h256v320h-64v-80c0-28.544-25.056-51.36-54.304-47.584-24.192 3.104-41.696 24.864-41.696 49.248v6.336c0 8.832 7.168 16 16 16v0c8.832 0 16-7.168 16-16v-8c0-9.696 8.672-17.408 18.688-15.776 7.872 1.28 13.312 8.704 13.312 16.672v79.104h-160v-320zM927.232 120.256c-16.928-14.912-38.912-24.256-63.232-24.256h-704c-24.32 0-46.304 9.344-63.232 24.256 3.872-31.648 30.528-56.256 63.232-56.256h704c32.704 0 59.36 24.608 63.232 56.256zM928 704c0 35.36-28.64 64-64 64h-384v-288c0-17.664-14.336-32-32-32h-256c-17.664 0-32 14.336-32 32v288c-35.36 0-64-28.64-64-64v-512c0-35.36 28.64-64 64-64h704c35.36 0 64 28.64 64 64v512zM854.112 510.784c-1.952 0.8-4.032 1.216-6.112 1.216h-128c-8.832 0-16-7.168-16-16s7.168-16 16-16h89.376l-96-96h-50.752l-59.328 59.328c-6.24 6.24-16.384 6.24-22.624 0l-91.296-91.328h-121.376c-4.256 0-8.32-1.696-11.328-4.672l-91.296-91.328h-89.376c-8.832 0-16-7.168-16-16s7.168-16 16-16h96c4.256 0 8.32 1.696 11.328 4.672l91.296 91.328h121.376c4.256 0 8.32 1.696 11.328 4.672l84.672 84.672 52.672-52.672c3.008-2.976 7.072-4.672 11.328-4.672h64c4.256 0 8.32 1.696 11.328 4.672l100.672 100.704v-89.376c0-8.832 7.168-16 16-16s16 7.168 16 16v128c0 2.080-0.416 4.16-1.216 6.112-1.632 3.904-4.768 7.040-8.672 8.672z" />
<glyph unicode="&#xe931;" glyph-name="report2" d="M480 800v0c0 17.664-14.336 32-32 32h-33.632c1.056-5.184 1.632-10.528 1.632-16v-64c0-44.096-35.872-80-80-80-3.424 0-6.88 0.224-10.4 0.672-39.68 5.088-69.6 39.904-69.6 80.992v4.64c0 24.448 17.568 46.272 41.824 49.312 7.84 0.992 15.36 0.064 22.176-2.368v10.752c0 8.832 7.168 16 16 16s16-7.168 16-16v-63.104c0-8-5.472-15.424-13.376-16.704-0.896-0.128-1.76-0.192-2.624-0.192-8.832 0-16 7.2-16 16v8c0 9.728-8.672 17.408-18.688 15.776-7.872-1.28-13.312-8.672-13.312-16.64v-5.184c0-24.896 18.112-47.104 42.88-49.696 1.728-0.16 3.424-0.256 5.12-0.256 26.464 0 48 21.536 48 48v64c0 26.496-21.504 48-48 48-20.864 0-38.464-13.408-45.056-32h-98.944c-17.664 0-32-14.336-32-32v-320c0-17.664 14.336-32 32-32h256c17.664 0 32 14.336 32 32v320zM368 544h-96c-8.832 0-16 7.168-16 16s7.168 16 16 16h96c8.832 0 16-7.168 16-16s-7.168-16-16-16zM368 608h-96c-8.832 0-16 7.168-16 16s7.168 16 16 16h96c8.832 0 16-7.168 16-16s-7.168-16-16-16zM960 140.224v-12.224c0-53.024-42.976-96-96-96h-704c-53.024 0-96 42.976-96 96v12.224c23.488-26.88 57.6-44.224 96-44.224h704c38.4 0 72.512 17.344 96 44.224zM160 128h704c53.024 0 96 42.976 96 96v480c0 53.024-42.976 96-96 96h-352v-320c0-35.296-28.704-64-64-64h-256c-35.296 0-64 28.704-64 64v314.112c-37.216-13.216-64-48.384-64-90.112v-480c0-53.024 42.976-96 96-96zM176 256h89.376l91.328 91.328c2.976 2.976 7.040 4.672 11.296 4.672h121.376l91.328 91.328c6.24 6.24 16.384 6.24 22.624 0l59.296-59.328h50.752l96 96h-89.376c-8.832 0-16 7.168-16 16s7.168 16 16 16h128c2.080 0 4.16-0.416 6.112-1.216 3.904-1.632 7.040-4.736 8.672-8.672 0.8-1.952 1.216-4.032 1.216-6.112v-128c0-8.832-7.168-16-16-16s-16 7.168-16 16v89.376l-100.672-100.672c-3.008-3.008-7.072-4.704-11.328-4.704h-64c-4.256 0-8.32 1.696-11.328 4.672l-52.672 52.704-84.672-84.672c-3.008-3.008-7.072-4.704-11.328-4.704h-121.376l-91.328-91.328c-2.976-2.976-7.040-4.672-11.296-4.672h-96c-8.832 0-16 7.168-16 16s7.168 16 16 16z" />
<glyph unicode="&#xe932;" glyph-name="return" d="M815.872 905.408c-3.936 0-7.936-1.472-11.2-4.704l-36.672-36.704-41.376 41.376c-6.24 6.24-14.432 9.376-22.624 9.376s-16.384-3.136-22.624-9.376l-41.376-41.376-41.376 41.376c-6.24 6.24-14.432 9.376-22.624 9.376s-16.384-3.136-22.624-9.376l-41.376-41.376-41.376 41.376c-6.24 6.24-14.432 9.376-22.624 9.376s-16.384-3.136-22.624-9.376l-41.376-41.376-41.376 41.376c-6.24 6.24-14.432 9.376-22.624 9.376s-16.384-3.136-22.624-9.376l-41.376-41.376-36.672 36.672c-3.264 3.264-7.264 4.704-11.2 4.704-8.224 0.032-16.128-6.368-16.128-16v-882.752c0-9.632 7.904-16.032 16.128-16.032 3.936 0 7.936 1.472 11.2 4.704l36.672 36.704 41.376-41.376c6.24-6.24 14.432-9.376 22.624-9.376s16.384 3.136 22.624 9.376l41.376 41.376 41.376-41.376c6.24-6.24 14.432-9.376 22.624-9.376s16.384 3.136 22.624 9.376l41.376 41.376 41.376-41.376c6.24-6.24 14.432-9.376 22.624-9.376s16.384 3.136 22.624 9.376l41.376 41.376 41.376-41.376c6.24-6.24 14.432-9.376 22.624-9.376s16.384 3.136 22.624 9.376l41.376 41.376 36.672-36.672c3.264-3.264 7.264-4.704 11.2-4.704 8.224 0 16.128 6.4 16.128 16.032v882.72c0 9.632-7.904 16.032-16.128 16.032zM800 45.248l-9.376 9.376c-6.24 6.24-14.432 9.376-22.624 9.376s-16.384-3.136-22.624-9.376l-41.376-41.376-41.376 41.376c-6.24 6.24-14.432 9.376-22.624 9.376s-16.384-3.136-22.624-9.376l-41.376-41.376-41.376 41.376c-6.24 6.24-14.432 9.376-22.624 9.376s-16.384-3.136-22.624-9.376l-41.376-41.376-41.376 41.376c-6.24 6.24-14.432 9.376-22.624 9.376s-16.384-3.136-22.624-9.376l-41.376-41.376-41.376 41.376c-6.24 6.24-14.432 9.376-22.624 9.376s-16.384-3.136-22.624-9.376l-9.376-9.376v805.504l9.376-9.376c6.24-6.24 14.432-9.376 22.624-9.376s16.384 3.136 22.624 9.376l41.376 41.376 41.376-41.376c6.24-6.24 14.432-9.376 22.624-9.376s16.384 3.136 22.624 9.376l41.376 41.376 41.376-41.376c6.016-6.016 14.144-9.376 22.624-9.376v0c8.48 0 16.64 3.36 22.624 9.376l41.376 41.376 41.376-41.376c6.272-6.24 14.464-9.376 22.624-9.376 8.192 0 16.384 3.136 22.624 9.376l41.376 41.376 41.376-41.376c5.984-6.016 14.144-9.376 22.624-9.376s16.64 3.36 22.624 9.376l9.376 9.376v-805.504zM512 720c0-8.832-7.168-16-16-16h-160c-8.832 0-16 7.168-16 16s7.168 16 16 16h160c8.832 0 16-7.168 16-16zM512 432c0-8.832-7.168-16-16-16h-160c-8.832 0-16 7.168-16 16s7.168 16 16 16h160c8.832 0 16-7.168 16-16zM320 624c0 8.832 7.168 16 16 16h96c8.832 0 16-7.168 16-16s-7.168-16-16-16h-96c-8.832 0-16 7.168-16 16zM704 624c0-8.832-7.168-16-16-16h-32c-8.832 0-16 7.168-16 16s7.168 16 16 16h32c8.832 0 16-7.168 16-16zM704 720c0-8.832-7.168-16-16-16h-32c-8.832 0-16 7.168-16 16s7.168 16 16 16h32c8.832 0 16-7.168 16-16zM704 528c0-8.832-7.168-16-16-16h-32c-8.832 0-16 7.168-16 16s7.168 16 16 16h32c8.832 0 16-7.168 16-16zM704 432c0-8.832-7.168-16-16-16h-32c-8.832 0-16 7.168-16 16s7.168 16 16 16h32c8.832 0 16-7.168 16-16zM704 240c0-8.832-7.168-16-16-16h-32c-8.832 0-16 7.168-16 16s7.168 16 16 16h32c8.832 0 16-7.168 16-16zM448 240c0-8.832-7.168-16-16-16h-96c-8.832 0-16 7.168-16 16s7.168 16 16 16h96c8.832 0 16-7.168 16-16zM320 528c0 8.832 7.168 16 16 16h128c8.832 0 16-7.168 16-16s-7.168-16-16-16h-128c-8.832 0-16 7.168-16 16z" />
<glyph unicode="&#xe933;" glyph-name="return2" d="M815.872 905.408c-3.936 0-7.936-1.472-11.2-4.704l-36.672-36.704-41.376 41.376c-6.24 6.24-14.432 9.376-22.624 9.376s-16.384-3.136-22.624-9.376l-41.376-41.376-41.376 41.376c-6.24 6.24-14.432 9.376-22.624 9.376s-16.384-3.136-22.624-9.376l-41.376-41.376-41.376 41.376c-6.24 6.24-14.432 9.376-22.624 9.376s-16.384-3.136-22.624-9.376l-41.376-41.376-41.376 41.376c-6.24 6.24-14.432 9.376-22.624 9.376s-16.384-3.136-22.624-9.376l-41.376-41.376-36.672 36.672c-3.264 3.264-7.264 4.704-11.2 4.704-8.224 0.032-16.128-6.368-16.128-16v-882.752c0-9.632 7.904-16.032 16.128-16.032 3.936 0 7.936 1.472 11.2 4.704l36.672 36.704 41.376-41.376c6.24-6.24 14.432-9.376 22.624-9.376s16.384 3.136 22.624 9.376l41.376 41.376 41.376-41.376c6.24-6.24 14.432-9.376 22.624-9.376s16.384 3.136 22.624 9.376l41.376 41.376 41.376-41.376c6.24-6.24 14.432-9.376 22.624-9.376s16.384 3.136 22.624 9.376l41.376 41.376 41.376-41.376c6.24-6.24 14.432-9.376 22.624-9.376s16.384 3.136 22.624 9.376l41.376 41.376 36.672-36.672c3.264-3.264 7.264-4.704 11.2-4.704 8.224 0 16.128 6.4 16.128 16.032v882.72c0 9.632-7.904 16.032-16.128 16.032zM512 720c0-8.832-7.168-16-16-16h-160c-8.832 0-16 7.168-16 16s7.168 16 16 16h160c8.832 0 16-7.168 16-16zM512 432c0-8.832-7.168-16-16-16h-160c-8.832 0-16 7.168-16 16s7.168 16 16 16h160c8.832 0 16-7.168 16-16zM320 624c0 8.832 7.168 16 16 16h96c8.832 0 16-7.168 16-16s-7.168-16-16-16h-96c-8.832 0-16 7.168-16 16zM704 624c0-8.832-7.168-16-16-16h-32c-8.832 0-16 7.168-16 16s7.168 16 16 16h32c8.832 0 16-7.168 16-16zM704 720c0-8.832-7.168-16-16-16h-32c-8.832 0-16 7.168-16 16s7.168 16 16 16h32c8.832 0 16-7.168 16-16zM704 528c0-8.832-7.168-16-16-16h-32c-8.832 0-16 7.168-16 16s7.168 16 16 16h32c8.832 0 16-7.168 16-16zM704 432c0-8.832-7.168-16-16-16h-32c-8.832 0-16 7.168-16 16s7.168 16 16 16h32c8.832 0 16-7.168 16-16zM704 240c0-8.832-7.168-16-16-16h-32c-8.832 0-16 7.168-16 16s7.168 16 16 16h32c8.832 0 16-7.168 16-16zM448 240c0-8.832-7.168-16-16-16h-96c-8.832 0-16 7.168-16 16s7.168 16 16 16h96c8.832 0 16-7.168 16-16zM320 528c0 8.832 7.168 16 16 16h128c8.832 0 16-7.168 16-16s-7.168-16-16-16h-128c-8.832 0-16 7.168-16 16z" />
<glyph unicode="&#xe934;" glyph-name="say" d="M640 432c0-8.832-7.168-16-16-16h-224c-8.832 0-16 7.168-16 16s7.168 16 16 16h224c8.832 0 16-7.168 16-16zM624 384h-224c-8.832 0-16-7.168-16-16s7.168-16 16-16h224c8.832 0 16 7.168 16 16s-7.168 16-16 16zM956.384 390.304c-25.28-202.432-190.368-364.832-393.12-387.456-111.040-12.384-214.912 16.064-298.944 71.936l-148.224-65.888c-12.096-5.376-26.272-2.752-35.616 6.624l-0.928 0.928c-9.376 9.376-12 23.52-6.624 35.616l65.888 148.224c-55.904 84.032-84.32 187.904-71.936 298.944 22.592 202.784 184.992 367.872 387.424 393.152 292.64 36.544 538.624-209.44 502.080-502.080zM921.28 508.064c-25.376 179.168-170.048 323.84-349.216 349.216-278.528 39.424-514.464-200.736-467.648-480.352 9.824-58.656 34.144-114.016 67.072-163.552l6.496-9.76-71.712-161.344 161.344 71.712 9.76-6.496c49.536-32.928 104.896-57.248 163.552-67.072 279.616-46.816 519.808 189.12 480.352 467.648zM624 576h-224c-8.832 0-16-7.168-16-16s7.168-16 16-16h224c8.832 0 16 7.168 16 16s-7.168 16-16 16zM624 512h-224c-8.832 0-16-7.168-16-16s7.168-16 16-16h224c8.832 0 16 7.168 16 16s-7.168 16-16 16z" />
<glyph unicode="&#xe935;" glyph-name="say2" d="M454.304 892.384c-202.432-25.28-364.832-190.368-387.424-393.12-12.384-111.040 16.064-214.912 71.936-298.944l-65.888-148.224c-5.376-12.096-2.752-26.272 6.624-35.616l0.928-0.928c9.376-9.376 23.52-12 35.616-6.624l148.224 65.888c84.032-55.904 187.904-84.32 298.944-71.936 202.752 22.592 367.84 185.024 393.12 387.456 36.544 292.608-209.44 538.592-502.080 502.048zM624 352h-224c-8.832 0-16 7.168-16 16s7.168 16 16 16h224c8.832 0 16-7.168 16-16 0-8.864-7.168-16-16-16zM624 416h-224c-8.832 0-16 7.168-16 16s7.168 16 16 16h224c8.832 0 16-7.168 16-16s-7.168-16-16-16zM624 480h-224c-8.832 0-16 7.168-16 16s7.168 16 16 16h224c8.832 0 16-7.168 16-16s-7.168-16-16-16zM624 544h-224c-8.832 0-16 7.168-16 16s7.168 16 16 16h224c8.832 0 16-7.168 16-16s-7.168-16-16-16z" />
<glyph unicode="&#xe936;" glyph-name="snow" d="M916.512 388.384l-118.336-31.712-158.176 91.328 158.176 91.328 118.336-31.712c17.056-4.576 34.624 5.568 39.2 22.624l16.576 61.824c4.576 17.056-5.568 34.624-22.624 39.2l-82.144 21.984 22.016 82.144c4.576 17.056-5.568 34.624-22.624 39.2l-61.824 16.576c-17.056 4.576-34.624-5.568-39.2-22.624l-31.712-118.336-158.176-91.36v182.656l86.624 86.624c12.48 12.512 12.48 32.768 0 45.248l-45.248 45.248c-12.48 12.48-32.768 12.512-45.248 0l-60.128-60.096-60.128 60.096c-12.512 12.48-32.768 12.48-45.248 0l-45.248-45.248c-12.512-12.512-12.512-32.768 0-45.248l86.624-86.624v-182.656l-158.176 91.328-31.712 118.336c-4.576 17.088-22.112 27.2-39.2 22.624l-61.792-16.544c-17.088-4.576-27.2-22.144-22.624-39.2l21.984-82.144-82.112-22.016c-17.056-4.576-27.2-22.112-22.624-39.2l16.576-61.824c4.576-17.056 22.112-27.2 39.2-22.624l118.336 31.712 158.144-91.296-158.176-91.328-118.336 31.712c-17.056 4.576-34.624-5.568-39.2-22.624l-16.576-61.824c-4.576-17.056 5.568-34.624 22.624-39.2l82.112-22.016-22.016-82.144c-4.576-17.056 5.568-34.624 22.624-39.2l61.824-16.576c17.056-4.576 34.624 5.568 39.2 22.624l31.712 118.336 158.208 91.392v-182.656l-86.624-86.624c-12.48-12.512-12.48-32.768 0-45.248l45.248-45.248c12.48-12.48 32.768-12.512 45.248 0l60.128 60.096 60.128-60.096c12.512-12.48 32.768-12.48 45.248 0l45.248 45.248c12.512 12.512 12.512 32.768 0 45.248l-86.624 86.624v182.656l158.176-91.328 31.712-118.336c4.576-17.056 22.112-27.2 39.2-22.624l61.824 16.576c17.056 4.576 27.2 22.112 22.624 39.2l-22.016 82.144 82.112 22.016c17.056 4.576 27.2 22.112 22.624 39.2l-16.576 61.824c-4.544 17.024-22.112 27.136-39.168 22.56zM836.608 234.464l22.016-82.144-61.824-16.544-35.168 131.136-217.632 125.664v-251.328l96-96-45.248-45.248-60.128 60.096c-12.512 12.48-32.768 12.48-45.248 0l-60.128-60.096-45.248 45.248 96 96v251.328l-217.632-125.664-35.168-131.136-61.792 16.544 22.016 82.144c4.576 17.056-5.568 34.624-22.624 39.2l-82.144 22.016 16.544 61.792 131.136-35.136 217.664 125.664-217.664 125.664-131.136-35.136-16.544 61.792 82.112 22.016c17.056 4.576 27.2 22.112 22.624 39.2l-21.984 82.144 61.792 16.544 35.168-131.136 217.632-125.664v251.328l-96 96 45.248 45.248 60.128-60.096c12.512-12.48 32.768-12.48 45.248 0l60.128 60.096 45.248-45.248-96-96v-251.328l217.632 125.664 35.168 131.136 61.824-16.576-22.016-82.144c-4.576-17.056 5.568-34.624 22.624-39.2l82.112-22.016-16.544-61.76-131.136 35.136-217.664-125.664 217.664-125.664 131.136 35.136 16.576-61.824-82.112-22.016c-17.088-4.544-27.232-22.080-22.656-39.168z" />
<glyph unicode="&#xe937;" glyph-name="snow2" d="M916.512 388.384l-118.336-31.712-158.176 91.328 158.176 91.328 118.336-31.712c17.056-4.576 34.624 5.568 39.2 22.624l16.576 61.824c4.576 17.056-5.568 34.624-22.624 39.2l-82.144 21.984 22.016 82.144c4.576 17.056-5.568 34.624-22.624 39.2l-61.824 16.576c-17.056 4.576-34.624-5.568-39.2-22.624l-31.712-118.336-158.176-91.36v182.656l86.624 86.624c12.48 12.512 12.48 32.768 0 45.248l-45.248 45.248c-12.48 12.48-32.768 12.512-45.248 0l-60.128-60.096-60.128 60.096c-12.512 12.48-32.768 12.48-45.248 0l-45.248-45.248c-12.512-12.512-12.512-32.768 0-45.248l86.624-86.624v-182.656l-158.176 91.328-31.712 118.336c-4.576 17.088-22.112 27.2-39.2 22.624l-61.792-16.544c-17.088-4.576-27.2-22.144-22.624-39.2l21.984-82.144-82.112-22.016c-17.056-4.576-27.2-22.112-22.624-39.2l16.576-61.824c4.576-17.056 22.112-27.2 39.2-22.624l118.336 31.712 158.144-91.296-158.176-91.328-118.336 31.712c-17.056 4.576-34.624-5.568-39.2-22.624l-16.576-61.824c-4.576-17.056 5.568-34.624 22.624-39.2l82.112-22.016-22.016-82.144c-4.576-17.056 5.568-34.624 22.624-39.2l61.824-16.576c17.056-4.576 34.624 5.568 39.2 22.624l31.712 118.336 158.208 91.392v-182.656l-86.624-86.624c-12.48-12.512-12.48-32.768 0-45.248l45.248-45.248c12.48-12.48 32.768-12.512 45.248 0l60.128 60.096 60.128-60.096c12.512-12.48 32.768-12.48 45.248 0l45.248 45.248c12.512 12.512 12.512 32.768 0 45.248l-86.624 86.624v182.656l158.176-91.328 31.712-118.336c4.576-17.056 22.112-27.2 39.2-22.624l61.824 16.576c17.056 4.576 27.2 22.112 22.624 39.2l-22.016 82.144 82.112 22.016c17.056 4.576 27.2 22.112 22.624 39.2l-16.576 61.824c-4.544 17.024-22.112 27.136-39.168 22.56z" />
</font>
</defs>
</svg>
