<?xml version="1.0" standalone="no"?>
<!DOCTYPE svg PUBLIC "-//W3C//DTD SVG 1.1//EN" "http://www.w3.org/Graphics/SVG/1.1/DTD/svg11.dtd" >
<svg xmlns="http://www.w3.org/2000/svg">
<metadata>Generated by IcoMoon</metadata>
<defs>
<font id="icomoon" horiz-adv-x="1024">
<font-face units-per-em="1024" ascent="1024" descent="0" />
<missing-glyph horiz-adv-x="1024" />
<glyph unicode="&#x20;" horiz-adv-x="0" d="" />
<glyph unicode="&#xefbe;" glyph-name="a-add" d="M448 496c137.36 0 240 143.6 240 272 0 132.336-107.664 240-240 240s-240-107.664-240-240c0-128.4 102.64-272 240-272zM816 400c-106.032 0-192-85.968-192-192s85.968-192 192-192 192 85.968 192 192-85.968 192-192 192zM896 192h-64v-64c0-8.832-7.168-16-16-16s-16 7.168-16 16v64h-64c-8.832 0-16 7.168-16 16s7.168 16 16 16h64v64c0 8.832 7.168 16 16 16s16-7.168 16-16v-64h64c8.832 0 16-7.168 16-16s-7.168-16-16-16zM592 208c0 68.208 30.592 129.184 78.672 170.272-60.4 12.752-134.272 21.728-222.672 21.728-177.888 0-297.072-36.304-365.728-66.768-40.272-17.84-66.272-58-66.272-102.304v-166.928c0-8.832 7.168-16 16-16h627.376c-41.536 40.656-67.376 97.28-67.376 160z" />
<glyph unicode="&#xefbf;" glyph-name="a-add-line" d="M400 1001.784c-88.436-18.972-167.428-99.36-186.488-189.784-33.26-157.78 93.988-332 242.488-332 123.816 0 238.52 122.54 246.6 263.448 4.428 77.228-17.952 136.056-72.524 190.628-62.7 62.7-143.12 86.368-230.076 67.708M503.836 953.764c67.184-15.28 127.196-73.888 144.832-141.44 17.752-68.008 0.016-144.268-47.2-202.948-47.596-59.152-100.68-85.596-160.612-80-79.648 7.44-159.136 87.864-178.86 180.976-16.252 76.708 4.46 145.164 59.348 196.168 50.164 46.616 113.34 62.972 182.492 47.244M762.848 427.436c-23.976-4.596-57.892-19.444-79.952-35.004l-16.896-11.92-31.476 5.62c-155.976 27.852-359.616 13.368-499.992-35.56-57.592-20.076-77.892-32.384-95.428-57.872-20.92-30.412-23.104-44.516-23.104-149.336 0-90.032 0.448-95.812 8-103.364 7.84-7.84 13.332-8 272-8s264.16 0.16 272 8c4.4 4.4 8 11.6 8 16s-3.6 11.6-8 16c-7.828 7.828-13.332 8-256 8h-248l0.024 75c0.012 41.248 1.788 81.364 3.948 89.14 7.004 25.204 29.74 42.496 78.436 59.648 48.656 17.14 116.184 33 173.592 40.776 76.084 10.304 313.548 4.040 306.976-8.1-30.568-56.456-39.576-99.868-31.844-153.464 9.812-68.032 54.956-129.868 117.164-160.488 130.604-64.284 287.716 17.732 308.612 161.104 21.836 149.8-108.096 272.56-258.060 243.82M850.16 377.792c124.804-32.5 167.036-188.424 75.752-279.704-65.556-65.56-170.268-65.56-235.824 0-64.168 64.164-65.84 168.46-3.724 232.232 45.112 46.316 103.384 63.204 163.796 47.472M792 296c-6.224-6.224-8-13.332-8-32v-24h-24c-26.084 0-40-8.348-40-24s13.916-24 40-24h24v-24c0-26.084 8.348-40 24-40s24 13.916 24 40v24h24c26.084 0 40 8.348 40 24s-13.916 24-40 24h-24v24c0 26.084-8.348 40-24 40-4.4 0-11.6-3.6-16-8" />
<glyph unicode="&#xefc0;" glyph-name="a-check" d="M448 496c137.36 0 240 143.6 240 272 0 132.336-107.664 240-240 240s-240-107.664-240-240c0-128.4 102.64-272 240-272zM592 208c0 68.208 30.592 129.184 78.672 170.272-60.4 12.752-134.272 21.728-222.672 21.728-177.888 0-297.072-36.304-365.728-66.768-40.272-17.84-66.272-58-66.272-102.304v-166.928c0-8.832 7.168-16 16-16h627.376c-41.536 40.656-67.376 97.28-67.376 160zM816 400c-106.032 0-192-85.968-192-192s85.968-192 192-192 192 85.968 192 192-85.968 192-192 192zM923.312 260.688l-128-128c-3.12-3.12-7.216-4.688-11.312-4.688s-8.192 1.568-11.312 4.688l-64 64c-6.256 6.256-6.256 16.368 0 22.624s16.368 6.256 22.624 0l52.688-52.688 116.688 116.688c6.256 6.256 16.368 6.256 22.624 0s6.256-16.368 0-22.624z" />
<glyph unicode="&#xefc1;" glyph-name="a-check-line" d="M400 1001.784c-88.436-18.972-167.428-99.36-186.488-189.784-33.26-157.78 93.988-332 242.488-332 123.816 0 238.52 122.54 246.6 263.448 4.428 77.228-17.952 136.056-72.524 190.628-62.7 62.7-143.12 86.368-230.076 67.708M503.836 953.764c67.184-15.28 127.196-73.888 144.832-141.44 17.752-68.008 0.016-144.268-47.2-202.948-47.596-59.152-100.68-85.596-160.612-80-79.648 7.44-159.136 87.864-178.86 180.976-16.252 76.708 4.46 145.164 59.348 196.168 50.164 46.616 113.34 62.972 182.492 47.244M344 395.304c-92.968-7.932-237.072-46.324-276.536-73.676-8.888-6.16-21.648-19.176-28.36-28.928-20.92-30.412-23.104-44.516-23.104-149.336 0-90.032 0.448-95.812 8-103.364 7.816-7.816 13.332-8 240-8s232.184 0.184 240 8c4.4 4.4 8 11.6 8 16s-3.6 11.6-8 16c-7.804 7.804-13.332 8-224 8h-216l0.024 75c0.012 41.248 1.788 81.364 3.948 89.14 6.752 24.304 29.744 42.332 74.3 58.26 49.804 17.804 106.408 31.612 165.728 40.424 65.496 9.728 236.284 9.456 298-0.472 74.204-11.94 81.248-12.272 90.112-4.252 10.028 9.076 10.096 22.664 0.16 31.652-8.928 8.080-70.54 19.48-140.272 25.952-53.3 4.948-151.528 4.76-212-0.4M851.236 197.164l-107.104-106.836-43.468 42.836c-28.088 27.68-46.512 42.836-52.068 42.836-11.16 0-24.596-13.572-24.596-24.844 0-13.080 106.9-119.156 120.084-119.156 13.416 0 247.916 233.704 247.916 247.076 0 11.436-13.436 24.924-24.828 24.924-6.212 0-40.58-31.668-115.936-106.836" />
<glyph unicode="&#xefc2;" glyph-name="a-delete" d="M448 496c137.36 0 240 143.6 240 272 0 132.336-107.664 240-240 240s-240-107.664-240-240c0-128.4 102.64-272 240-272zM680.24 343.76c-74.976-74.976-74.976-196.56 0-271.536s196.56-74.976 271.536 0c74.976 74.976 74.976 196.56 0 271.536s-196.56 74.976-271.536 0zM883.888 162.752c6.24-6.24 6.24-16.384 0-22.624s-16.384-6.24-22.624 0l-45.264 45.248-45.248-45.248c-6.24-6.24-16.384-6.24-22.624 0s-6.24 16.384 0 22.624l45.248 45.248-45.248 45.248c-6.24 6.24-6.24 16.384 0 22.624s16.384 6.24 22.624 0l45.248-45.248 45.248 45.248c6.24 6.24 16.384 6.24 22.624 0s6.24-16.384 0-22.624l-45.248-45.248 45.264-45.248zM670.672 378.272c-60.4 12.752-134.272 21.728-222.672 21.728-177.888 0-297.072-36.304-365.728-66.768-40.272-17.84-66.272-58-66.272-102.304v-166.928c0-8.832 7.168-16 16-16h627.376c-41.536 40.656-67.376 97.28-67.376 160 0 68.208 30.592 129.184 78.672 170.272z" />
<glyph unicode="&#xefc3;" glyph-name="a-delete-line" d="M400 1001.784c-88.436-18.972-167.428-99.36-186.488-189.784-33.26-157.78 93.988-332 242.488-332 123.816 0 238.52 122.54 246.6 263.448 4.428 77.228-17.952 136.056-72.524 190.628-62.7 62.7-143.12 86.368-230.076 67.708M503.836 953.764c67.184-15.28 127.196-73.888 144.832-141.44 17.752-68.008 0.016-144.268-47.2-202.948-47.596-59.152-100.68-85.596-160.612-80-79.648 7.44-159.136 87.864-178.86 180.976-16.252 76.708 4.46 145.164 59.348 196.168 50.164 46.616 113.34 62.972 182.492 47.244M762.848 427.436c-23.976-4.596-57.892-19.444-79.952-35.004l-16.896-11.92-31.476 5.62c-155.976 27.852-359.616 13.368-499.992-35.56-57.592-20.076-77.892-32.384-95.428-57.872-20.92-30.412-23.104-44.516-23.104-149.336 0-90.032 0.448-95.812 8-103.364 7.84-7.84 13.332-8 272-8s264.16 0.16 272 8c4.4 4.4 8 11.6 8 16s-3.6 11.6-8 16c-7.828 7.828-13.332 8-256 8h-248l0.024 75c0.012 41.248 1.788 81.364 3.948 89.14 7.004 25.204 29.74 42.496 78.436 59.648 48.656 17.14 116.184 33 173.592 40.776 76.084 10.304 313.548 4.040 306.976-8.1-30.568-56.456-39.576-99.868-31.844-153.464 9.812-68.032 54.956-129.868 117.164-160.488 130.604-64.284 287.716 17.732 308.612 161.104 21.836 149.8-108.096 272.56-258.060 243.82M850.16 377.792c124.804-32.5 167.036-188.424 75.752-279.704-65.556-65.56-170.268-65.56-235.824 0-64.168 64.164-65.84 168.46-3.724 232.232 45.112 46.316 103.384 63.204 163.796 47.472M746.284 277.716c-11.132-11.136-7.596-26.076 10.548-44.564l16.832-17.152-16.832-17.152c-18.144-18.488-21.68-33.428-10.548-44.564 11.136-11.132 26.076-7.596 44.564 10.548l17.152 16.832 17.152-16.832c18.488-18.144 33.428-21.68 44.564-10.548 11.132 11.136 7.596 26.076-10.548 44.564l-16.832 17.152 16.832 17.152c18.144 18.488 21.68 33.428 10.548 44.564-10.684 10.68-24.668 7.416-43.804-10.224l-17.912-16.512-17.912 16.512c-19.136 17.64-33.12 20.904-43.804 10.224" />
<glyph unicode="&#xefc4;" glyph-name="a-edit" d="M448 496c137.36 0 240 143.6 240 272 0 132.336-107.664 240-240 240s-240-107.664-240-240c0-128.4 102.64-272 240-272zM611.104 160.352l181.648 181.632c-70.88 28.256-183.68 58.016-344.752 58.016-177.888 0-297.072-36.304-365.728-66.768-40.272-17.84-66.272-58-66.272-102.304v-166.928c0-8.832 7.168-16 16-16h551.008l28.096 112.352zM988.112 396.112c-26.512 26.512-69.488 26.512-96 0l-252.112-252.112-32-128 128 32 252.112 252.112c26.512 26.512 26.512 69.504 0 96v0z" />
<glyph unicode="&#xefc5;" glyph-name="a-edit-line" d="M400 1001.784c-88.436-18.972-167.428-99.36-186.488-189.784-33.26-157.78 93.988-332 242.488-332 123.816 0 238.52 122.54 246.6 263.448 4.428 77.228-17.952 136.056-72.524 190.628-62.7 62.7-143.12 86.368-230.076 67.708M503.836 953.764c67.184-15.28 127.196-73.888 144.832-141.44 17.752-68.008 0.016-144.268-47.2-202.948-47.596-59.152-100.68-85.596-160.612-80-79.648 7.44-159.136 87.864-178.86 180.976-16.252 76.708 4.46 145.164 59.348 196.168 50.164 46.616 113.34 62.972 182.492 47.244M738.864 293c-76.672-76.452-140.88-141.7-142.68-145s-7.268-29.172-12.144-57.496c-9.696-56.288-8.204-68.304 9.020-72.624 10.108-2.54 104.188 12.288 114.588 18.056 3.492 1.936 68.9 66.256 145.352 142.928 106.004 106.308 139 141.7 139 149.084 0 13.744-90.308 104.052-104.052 104.052-7.384 0-42.776-32.996-149.084-139M344 395.304c-92.968-7.932-237.072-46.324-276.536-73.676-8.888-6.16-21.648-19.176-28.36-28.928-20.92-30.412-23.104-44.516-23.104-149.336 0-90.032 0.448-95.812 8-103.364 7.804-7.804 13.332-8 224-8s216.196 0.196 224 8c10.184 10.184 10.184 21.816 0 32-7.788 7.788-13.332 8-208 8h-200l0.024 75c0.012 41.248 1.788 81.364 3.948 89.14s10.824 20.872 19.248 29.1c25.456 24.856 116.88 53.608 220.78 69.436 65.576 9.988 222.684 9.98 292.72-0.016 55.628-7.94 65.196-6.364 69.672 11.484 4.84 19.272-6.38 28.36-41.16 33.344-86.456 12.396-196.32 15.404-285.232 7.816M912.096 349.904l21.82-22.096-251.916-250.944-23.336-2.76c-12.836-1.52-24.236-1.868-25.332-0.772s-0.748 12.496 0.776 25.332l2.768 23.336 124.476 125c68.464 68.748 125.476 125 126.7 125 1.22 0 12.040-9.944 24.044-22.096" />
<glyph unicode="&#xefc6;" glyph-name="a-heart" d="M448 496c137.36 0 240 143.6 240 272 0 132.336-107.664 240-240 240s-240-107.664-240-240c0-128.4 102.64-272 240-272zM604.144 165.632c-58.608 60.656-58.608 159.344 0 220 1.216 1.264 2.56 2.352 3.808 3.568-46.912 6.624-100.016 10.8-159.952 10.8-177.888 0-297.072-36.304-365.728-66.768-40.272-17.84-66.272-58-66.272-102.304v-166.928c0-8.832 7.168-16 16-16h685.792l-113.648 117.632zM972.832 363.376c-25.616 26.48-60.976 39.616-97.152 36.032-29.2-2.912-55.856-16.4-75.68-37.84-19.824 21.44-46.48 34.928-75.664 37.84-36.080 3.488-71.552-9.536-97.168-36.032-46.752-48.384-46.752-127.136 0-175.52l161.312-166.976c3.008-3.12 7.168-4.88 11.504-4.88s8.496 1.76 11.504 4.88l161.344 166.976c46.768 48.4 46.768 127.136 0 175.52z" />
<glyph unicode="&#xefc7;" glyph-name="a-heart-line" d="M400 1001.784c-88.436-18.972-167.428-99.36-186.488-189.784-33.26-157.78 93.988-332 242.488-332 123.816 0 238.52 122.54 246.6 263.448 4.428 77.228-17.952 136.056-72.524 190.628-62.7 62.7-143.12 86.368-230.076 67.708M503.836 953.764c67.184-15.28 127.196-73.888 144.832-141.44 17.752-68.008 0.016-144.268-47.2-202.948-47.596-59.152-100.68-85.596-160.612-80-79.648 7.44-159.136 87.864-178.86 180.976-16.252 76.708 4.46 145.164 59.348 196.168 50.164 46.616 113.34 62.972 182.492 47.244M686 426.688c-22.852-7.556-34.272-14.016-48.396-27.368l-12.4-11.72-33.6 4.332c-57.604 7.428-165.664 9.524-229.604 4.452-77.324-6.132-163.304-23.448-227.468-45.812-57.592-20.076-77.892-32.384-95.428-57.872-20.92-30.412-23.104-44.516-23.104-149.336 0-90.032 0.448-95.812 8-103.364 7.86-7.86 13.332-8 312-8s304.14 0.14 312 8c4.4 4.4 8 11.6 8 16s-3.6 11.6-8 16c-7.852 7.852-13.332 8-296 8h-288l0.024 75c0.012 41.248 1.788 81.364 3.948 89.14 7.004 25.204 29.74 42.496 78.436 59.648 48.856 17.208 116.552 33.084 173.592 40.708 43.148 5.768 202.5 7.176 248.592 2.2l30.596-3.304-4.060-14.696c-2.232-8.084-3.172-25.748-2.092-39.252 3.62-45.096 13.192-58.932 111.124-160.624 49.128-51.012 92.588-93.788 96.58-95.056s10.528-1.268 14.52 0c3.992 1.268 47.452 44.044 96.58 95.056 104.996 109.028 110.184 117.088 110.12 171.18-0.028 26.36-1.988 38.24-8.716 52.868-12.212 26.556-41.632 56.52-66.388 67.628-38.368 17.208-107.036 9.384-126.816-14.448-2.76-3.328-8.18-6.048-12.040-6.048s-9.28 2.72-12.040 6.048c-15.896 19.152-78.768 30.956-109.96 20.64M745.364 379.688c9.788-2.716 22.192-11.42 34.168-23.976 11.668-12.236 22.224-19.712 27.824-19.712 5.484 0 16.796 7.772 28.836 19.812 27.552 27.548 56.236 34.8 86.936 21.976 44.080-18.412 64.62-69.524 45.16-112.38-7.3-16.084-152.552-171.408-160.288-171.408s-152.988 155.324-160.288 171.408c-19.088 42.028-0.324 91.28 42.288 111.008 18.304 8.476 33.416 9.368 55.364 3.272" />
<glyph unicode="&#xefc8;" glyph-name="a-location" d="M448 496c137.36 0 240 143.6 240 272 0 132.336-107.664 240-240 240s-240-107.664-240-240c0-128.4 102.64-272 240-272zM832 464c-97.040 0-176-78.96-176-176 0-103.504 158.032-260.736 164.752-267.376 3.12-3.088 7.184-4.624 11.248-4.624s8.128 1.536 11.248 4.624c6.72 6.64 164.752 163.872 164.752 267.376 0 97.040-78.96 176-176 176zM832 240c-26.512 0-48 21.488-48 48s21.488 48 48 48c26.512 0 48-21.488 48-48s-21.488-48-48-48zM624 288c0 34.208 8.448 66.416 23.136 94.912-55.776 10.24-121.904 17.088-199.136 17.088-177.888 0-297.072-36.304-365.728-66.768-40.272-17.84-66.272-58-66.272-102.304v-166.928c0-8.832 7.168-16 16-16h719.552c-52.080 59.824-127.552 160.256-127.552 240z" />
<glyph unicode="&#xefc9;" glyph-name="a-location-line" d="M400 1001.784c-88.436-18.972-167.428-99.36-186.488-189.784-33.26-157.78 93.988-332 242.488-332 123.816 0 238.52 122.54 246.6 263.448 4.428 77.228-17.952 136.056-72.524 190.628-62.7 62.7-143.12 86.368-230.076 67.708M503.836 953.764c67.184-15.28 127.196-73.888 144.832-141.44 17.752-68.008 0.016-144.268-47.2-202.948-47.596-59.152-100.68-85.596-160.612-80-79.648 7.44-159.136 87.864-178.86 180.976-16.252 76.708 4.46 145.164 59.348 196.168 50.164 46.616 113.34 62.972 182.492 47.244M754.58 537.664c-60.092-14.548-116.276-59.972-141.848-114.692l-14.732-31.52-22 2.248c-12.1 1.24-52.6 3.4-90 4.8-124.728 4.68-249.244-12.3-351.468-47.928-57.592-20.076-77.892-32.384-95.428-57.872-20.92-30.412-23.104-44.516-23.104-149.336 0-90.032 0.448-95.812 8-103.364 7.868-7.868 13.332-8 328-8s320.132 0.132 328 8c4.4 4.4 8 11.6 8 16s-3.6 11.6-8 16c-7.86 7.86-13.332 8-312 8h-304l0.024 75c0.012 41.248 1.788 81.364 3.948 89.14 7.004 25.204 29.74 42.496 78.436 59.648 51.448 18.12 119.084 33.716 177.592 40.944 46.912 5.796 189.58 6.972 236.472 1.948l30.468-3.264 2.076-22.708c6.024-65.92 64.524-159.676 164.492-263.628 31.3-32.544 41.788-41.080 50.492-41.080 19.588 0 115.144 105.532 164.796 182 70.212 108.128 66.72 205.588-10.088 281.688-54.44 53.936-133.66 76.004-208.128 57.976M849.216 490.096c31.164-6.604 73.5-32.36 92.072-56.016 30.176-38.428 41.988-93.68 28.748-134.46-16.84-51.864-67.14-126.256-129.564-191.62l-32.472-34-32.472 34c-46.444 48.632-93.052 111.98-114.776 156-18.228 36.94-18.748 39.004-18.54 74 0.18 30.136 1.932 39.736 10.752 58.94 15.312 33.332 28.584 48.816 59.404 69.304 41.528 27.608 84.096 35.028 136.848 23.852M778.736 410.444c-60.648-22.58-77.708-98.62-32.308-144.016 43.904-43.904 115.656-29.976 142.056 27.572 18.416 40.14-0.612 91.384-41.852 112.708-16.672 8.62-49.868 10.448-67.896 3.736M835.908 353.904c15.248-15.24 13.9-39.16-3.064-54.312-20.764-18.556-47.204-13.552-58.928 11.148-10.184 21.464-0.324 45.836 22.084 54.584 10.7 4.176 29.76-1.28 39.908-11.42" />
<glyph unicode="&#xefca;" glyph-name="a-remove" d="M448 496c137.36 0 240 143.6 240 272 0 132.336-107.664 240-240 240s-240-107.664-240-240c0-128.4 102.64-272 240-272zM816 400c-106.032 0-192-85.968-192-192s85.968-192 192-192 192 85.968 192 192-85.968 192-192 192zM896 192h-160c-8.832 0-16 7.168-16 16s7.168 16 16 16h160c8.832 0 16-7.168 16-16s-7.168-16-16-16zM592 208c0 68.208 30.592 129.184 78.672 170.272-60.4 12.752-134.272 21.728-222.672 21.728-177.888 0-297.072-36.304-365.728-66.768-40.272-17.84-66.272-58-66.272-102.304v-166.928c0-8.832 7.168-16 16-16h627.376c-41.536 40.656-67.376 97.28-67.376 160z" />
<glyph unicode="&#xefcb;" glyph-name="a-remove-line" d="M400 1001.784c-88.436-18.972-167.428-99.36-186.488-189.784-33.26-157.78 93.988-332 242.488-332 123.816 0 238.52 122.54 246.6 263.448 4.428 77.228-17.952 136.056-72.524 190.628-62.7 62.7-143.12 86.368-230.076 67.708M503.836 953.764c67.184-15.28 127.196-73.888 144.832-141.44 17.752-68.008 0.016-144.268-47.2-202.948-47.596-59.152-100.68-85.596-160.612-80-79.648 7.44-159.136 87.864-178.86 180.976-16.252 76.708 4.46 145.164 59.348 196.168 50.164 46.616 113.34 62.972 182.492 47.244M762.848 427.436c-23.976-4.596-57.892-19.444-79.952-35.004l-16.896-11.92-31.476 5.62c-155.976 27.852-359.616 13.368-499.992-35.56-57.592-20.076-77.892-32.384-95.428-57.872-20.92-30.412-23.104-44.516-23.104-149.336 0-90.032 0.448-95.812 8-103.364 7.84-7.84 13.332-8 272-8s264.16 0.16 272 8c4.4 4.4 8 11.6 8 16s-3.6 11.6-8 16c-7.828 7.828-13.332 8-256 8h-248l0.024 75c0.012 41.248 1.788 81.364 3.948 89.14 7.004 25.204 29.74 42.496 78.436 59.648 48.656 17.14 116.184 33 173.592 40.776 76.084 10.304 313.548 4.040 306.976-8.1-30.568-56.456-39.576-99.868-31.844-153.464 9.812-68.032 54.956-129.868 117.164-160.488 130.604-64.284 287.716 17.732 308.612 161.104 21.836 149.8-108.096 272.56-258.060 243.82M850.16 377.792c124.804-32.5 167.036-188.424 75.752-279.704-65.556-65.56-170.268-65.56-235.824 0-64.168 64.164-65.84 168.46-3.724 232.232 45.112 46.316 103.384 63.204 163.796 47.472M728 232c-4.4-4.4-8-11.6-8-16s3.6-11.6 8-16c7.408-7.408 13.332-8 80-8s72.592 0.592 80 8c4.4 4.4 8 11.6 8 16s-3.6 11.6-8 16c-7.408 7.408-13.332 8-80 8s-72.592-0.592-80-8" />
<glyph unicode="&#xefcc;" glyph-name="a-search" d="M448 496c137.36 0 240 143.6 240 272 0 132.336-107.664 240-240 240s-240-107.664-240-240c0-128.4 102.64-272 240-272zM866.72 50.8c-2.208-1.056-4.528-1.824-6.768-2.8h4.048c1.632 0 3.104 0.48 4.592 0.928l-1.872 1.872zM592 224c0 63.28 30.912 119.344 78.288 154.352-60.336 12.704-134.080 21.648-222.288 21.648-177.888 0-297.072-36.304-365.728-66.768-40.272-17.84-66.272-58-66.272-102.304v-166.928c0-8.832 7.168-16 16-16h675.488c-67.872 29.632-115.488 97.328-115.488 176zM1003.312 49.936l-85.92 85.92c16.784 25.296 26.608 55.584 26.608 88.144 0 88.224-71.776 160-160 160s-160-71.776-160-160 71.776-160 160-160c32.56 0 62.848 9.84 88.144 26.608l85.904-85.92c6.256-6.256 16.384-6.256 22.624 0l22.624 22.624c6.272 6.256 6.272 16.384 0.016 22.624zM656 224c0 70.576 57.424 128 128 128s128-57.424 128-128-57.424-128-128-128-128 57.424-128 128z" />
<glyph unicode="&#xefcd;" glyph-name="a-search-line" d="M400 1001.784c-88.436-18.972-167.428-99.36-186.488-189.784-33.26-157.78 93.988-332 242.488-332 123.816 0 238.52 122.54 246.6 263.448 4.428 77.228-17.952 136.056-72.524 190.628-62.7 62.7-143.12 86.368-230.076 67.708M503.836 953.764c67.184-15.28 127.196-73.888 144.832-141.44 17.752-68.008 0.016-144.268-47.2-202.948-47.596-59.152-100.68-85.596-160.612-80-79.648 7.44-159.136 87.864-178.86 180.976-16.252 76.708 4.46 145.164 59.348 196.168 50.164 46.616 113.34 62.972 182.492 47.244M696.42 457.668c-32.496-8.736-57.756-24.216-83.82-51.356-26.388-27.48-37.868-47.436-46.62-81.032-11.396-43.752-5.148-93.68 16.76-133.932 12.692-23.316 53.188-63.068 76.22-74.816 55-28.060 122.4-26.536 176.56 3.992l21.524 12.132 66.744-66.328c69.844-69.408 76.76-73.78 92.212-58.328s11.080 22.368-58.328 92.212l-66.328 66.744 12.132 21.524c30.528 54.16 32.052 121.56 3.992 176.56-11.748 23.032-51.5 63.528-74.816 76.22-40.196 21.876-92.484 28.176-136.232 16.408M790.748 407.376c29.292-10.96 61.492-40.924 76.232-70.94 14.936-30.412 15.52-79.452 1.324-111.476-13.916-31.404-49.224-62.452-82.808-72.824-33.124-10.232-49.868-10.232-82.992 0-33.456 10.332-68.804 41.368-82.94 72.824-14.152 31.484-13.584 80.76 1.28 111.040 31.992 65.176 104.764 95.748 169.904 71.376M344 395.304c-92.968-7.932-237.072-46.324-276.536-73.676-8.888-6.16-21.648-19.176-28.36-28.928-20.92-30.412-23.104-44.516-23.104-149.336 0-90.032 0.448-95.812 8-103.364 7.84-7.84 13.332-8 272-8s264.16 0.16 272 8c4.4 4.4 8 11.6 8 16s-3.6 11.6-8 16c-7.828 7.828-13.332 8-256 8h-248l0.024 75c0.012 41.248 1.788 81.364 3.948 89.14 6.752 24.3 29.744 42.332 74.3 58.268 79.848 28.56 162.204 43.584 264.296 48.224 49.384 2.244 59.904 3.84 66.084 10.020 9.572 9.572 9.328 21.368-0.652 31.348-6.996 6.996-12.892 7.932-47 7.444-21.448-0.304-57.9-2.168-81-4.14" />
<glyph unicode="&#xefce;" glyph-name="a-security" d="M752 384c0 44.112 35.888 80 80 80s80-35.888 80-80v-80h32v80c0 61.76-50.24 112-112 112s-112-50.24-112-112v-80h32v80zM448 496c137.36 0 240 143.6 240 272 0 132.336-107.664 240-240 240s-240-107.664-240-240c0-128.4 102.64-272 240-272zM992 272h-320c-8.832 0-16-7.168-16-16v-224c0-8.832 7.168-16 16-16h320c8.832 0 16 7.168 16 16v224c0 8.832-7.168 16-16 16zM832 112c-17.68 0-32 14.32-32 32s14.32 32 32 32c17.68 0 32-14.32 32-32s-14.32-32-32-32zM624 256c0 26.464 21.536 48 48 48h16v70.384c-63.44 14.768-142.912 25.616-240 25.616-177.888 0-297.072-36.304-365.728-66.768-40.272-17.84-66.272-58-66.272-102.304v-166.928c0-8.832 7.168-16 16-16h592v208z" />
<glyph unicode="&#xefcf;" glyph-name="a-security-line" d="M400 1001.784c-88.436-18.972-167.428-99.36-186.488-189.784-33.26-157.78 93.988-332 242.488-332 123.816 0 238.52 122.54 246.6 263.448 4.428 77.228-17.952 136.056-72.524 190.628-62.7 62.7-143.12 86.368-230.076 67.708M503.836 953.764c67.184-15.28 127.196-73.888 144.832-141.44 17.752-68.008 0.016-144.268-47.2-202.948-47.596-59.152-100.68-85.596-160.612-80-79.648 7.44-159.136 87.864-178.86 180.976-16.252 76.708 4.46 145.164 59.348 196.168 50.164 46.616 113.34 62.972 182.492 47.244M807.168 490.628c-36.596-10.312-65.42-37.476-79.732-75.144-6.084-16.016-7.436-30.82-7.436-81.528v-61.956h-24c-41.476 0-40 5.016-40-136 0-114.668 0.356-120.356 8-128 7.748-7.748 13.332-8 176-8s168.252 0.252 176 8c7.644 7.644 8 13.332 8 128 0 141.016 1.476 136-40 136h-24v61.848c0 52.668-1.224 65.124-8.244 83.884-9.92 26.512-36.856 55.664-61.504 66.568-23.116 10.224-59.436 12.992-83.084 6.328M866.984 441.848c37.46-15.652 44.812-33.792 44.928-110.848l0.088-59h-144v58.128c0 75.952 6.968 94.264 42 110.348 19.648 9.024 37.636 9.456 56.984 1.372M344 395.304c-92.968-7.932-237.072-46.324-276.536-73.676-8.888-6.16-21.648-19.176-28.36-28.928-20.92-30.412-23.104-44.516-23.104-149.336 0-90.032 0.448-95.812 8-103.364 7.84-7.84 13.332-8 272-8s264.16 0.16 272 8c4.4 4.4 8 11.6 8 16s-3.6 11.6-8 16c-7.828 7.828-13.332 8-256 8h-248l0.024 75c0.012 41.248 1.788 81.364 3.948 89.14 6.752 24.3 29.744 42.332 74.3 58.268 114.568 40.976 264.984 57.844 406.208 45.552l60.768-5.292 7.376 9.108c8.716 10.764 9.356 19.984 2.080 29.94-11.26 15.396-164.624 22.984-274.704 13.588M976 136v-88h-272v176h272v-88M826 163.168c-11.852-6.796-17.728-15.88-17.872-27.624-0.168-13.836 17.72-31.544 31.872-31.544s32.040 17.708 31.872 31.544c-0.148 12.112-6.24 21.216-18.608 27.804-10.808 5.756-16.988 5.716-27.264-0.18" />
<glyph unicode="&#xefd0;" glyph-name="a-share" d="M448 496c137.36 0 240 143.6 240 272 0 132.336-107.664 240-240 240s-240-107.664-240-240c0-128.4 102.64-272 240-272zM816 96c0 0.768 0.016 1.536 0.032 2.32l-75.28 37.632c-19.504-15.424-43.52-23.952-68.752-23.952-61.744 0-112 50.24-112 112s50.256 112 112 112c25.248 0 49.264-8.528 68.768-23.952l56.384 28.192c-70.576 28.752-184.736 59.76-349.152 59.76-177.888 0-297.072-36.304-365.728-66.768-40.272-17.84-66.272-58-66.272-102.304v-166.928c0-8.832 7.168-16 16-16h794.96c-6.944 14.576-10.96 30.8-10.96 48zM928 176c-25.472 0-47.952-12.192-62.608-30.8l-116.416 58.208c1.776 6.608 3.024 13.424 3.024 20.592s-1.248 13.984-3.024 20.592l116.416 58.208c14.672-18.608 37.136-30.8 62.608-30.8 44.112 0 80 35.888 80 80s-35.888 80-80 80-80-35.888-80-80c0-7.168 1.248-13.984 3.024-20.592l-116.416-58.208c-14.656 18.608-37.136 30.8-62.608 30.8-44.112 0-80-35.888-80-80s35.888-80 80-80c25.472 0 47.936 12.192 62.608 30.8l116.432-58.208c-1.792-6.608-3.040-13.424-3.040-20.592 0-44.112 35.888-80 80-80s80 35.888 80 80-35.888 80-80 80z" />
<glyph unicode="&#xefd1;" glyph-name="a-share-line" d="M400 1001.784c-88.436-18.972-167.428-99.36-186.488-189.784-33.26-157.78 93.988-332 242.488-332 123.816 0 238.52 122.54 246.6 263.448 4.428 77.228-17.952 136.056-72.524 190.628-62.7 62.7-143.12 86.368-230.076 67.708M503.836 953.764c67.184-15.28 127.196-73.888 144.832-141.44 17.752-68.008 0.016-144.268-47.2-202.948-47.596-59.152-100.68-85.596-160.612-80-79.648 7.44-159.136 87.864-178.86 180.976-16.252 76.708 4.46 145.164 59.348 196.168 50.164 46.616 113.34 62.972 182.492 47.244M906.736 426.444c-34.48-12.836-58.476-46.84-58.648-83.1l-0.088-18.652-77.084-41.556-16.456 9.388c-20.268 11.56-61.5 12.948-80.544 2.712-42.104-22.628-60.916-72.868-42.4-113.236 21.812-47.548 73.724-66.552 119.488-43.748l20.576 10.256 76.42-41.2 0.088-18.652c0.224-47.24 41.2-88.48 87.912-88.48 61.292 0 105.604 67.068 80.484 121.824-23.82 51.932-87.016 69.544-131.572 36.672l-12.88-9.5-73.296 37.876v57.904l36.764 19c36.74 18.984 36.764 18.992 46.396 11.416 45.336-35.664 109.972-19.032 134.588 34.632 18.416 40.14-0.612 91.384-41.852 112.708-16.672 8.62-49.868 10.448-67.896 3.736M344 395.584c-94.988-8.74-237.38-46.82-276.536-73.956-8.888-6.16-21.648-19.176-28.36-28.928-20.92-30.412-23.104-44.516-23.104-149.336 0-90.032 0.448-95.812 8-103.364 7.856-7.856 13.332-8 304-8s296.144 0.144 304 8c4.4 4.4 8 11.6 8 16s-3.6 11.6-8 16c-7.848 7.848-13.332 8-288 8h-280l0.024 75c0.012 41.248 1.788 81.364 3.948 89.14 6.752 24.3 29.744 42.332 74.3 58.268 98.464 35.216 175.208 46.804 315.28 47.608 99.888 0.568 107.94 1.144 113 8.064 7.388 10.104 6.848 19.308-1.768 29.944-7 8.648-9.796 8.948-95 10.168-48.28 0.692-106.684-0.48-129.784-2.608M963.908 369.904c15.248-15.24 13.9-39.16-3.064-54.312-20.764-18.556-47.204-13.552-58.928 11.148-10.184 21.464-0.324 45.836 22.084 54.584 10.7 4.176 29.76-1.28 39.908-11.42M739.908 241.904c15.248-15.24 13.9-39.16-3.064-54.312-20.764-18.556-47.204-13.552-58.928 11.148-10.184 21.464-0.324 45.836 22.084 54.584 10.7 4.176 29.76-1.28 39.908-11.42M963.908 113.904c15.248-15.24 13.9-39.16-3.064-54.312-20.764-18.556-47.204-13.552-58.928 11.148-10.184 21.464-0.324 45.836 22.084 54.584 10.7 4.176 29.76-1.28 39.908-11.42" />
<glyph unicode="&#xefd2;" glyph-name="a-star" d="M530.352 291.36c5.68 17.488 20.528 30 38.736 32.656l118.752 17.264 14.608 29.584c-65.664 16.544-149.824 29.136-254.448 29.136-177.888 0-297.072-36.304-365.728-66.768-40.272-17.84-66.272-58-66.272-102.304v-166.928c0-8.832 7.168-16 16-16h577.488l18.944 110.384-85.936 83.744c-13.184 12.88-17.84 31.728-12.144 49.232zM994.304 292.336l-135.408 19.68-60.544 122.688c-5.392 10.944-23.312 10.944-28.704 0l-60.544-122.688-135.408-19.68c-6.016-0.88-11.024-5.088-12.912-10.896-1.888-5.776-0.32-12.144 4.048-16.384l97.984-95.504-23.136-134.864c-1.024-6 1.44-12.064 6.368-15.648 4.944-3.6 11.456-4.064 16.848-1.216l121.104 63.68 121.104-63.664c2.352-1.232 4.896-1.84 7.456-1.84 3.312 0 6.624 1.024 9.408 3.056 4.928 3.584 7.392 9.648 6.368 15.648l-23.136 134.864 97.984 95.504c4.352 4.256 5.936 10.608 4.048 16.384-1.904 5.792-6.896 10.016-12.928 10.88zM448 496c137.36 0 240 143.6 240 272 0 132.336-107.664 240-240 240s-240-107.664-240-240c0-128.4 102.64-272 240-272z" />
<glyph unicode="&#xefd3;" glyph-name="a-star-line" d="M400 1001.784c-88.436-18.972-167.428-99.36-186.488-189.784-33.26-157.78 93.988-332 242.488-332 123.816 0 238.52 122.54 246.6 263.448 4.428 77.228-17.952 136.056-72.524 190.628-62.7 62.7-143.12 86.368-230.076 67.708M503.836 953.764c67.184-15.28 127.196-73.888 144.832-141.44 17.752-68.008 0.016-144.268-47.2-202.948-47.596-59.152-100.68-85.596-160.612-80-79.648 7.44-159.136 87.864-178.86 180.976-16.252 76.708 4.46 145.164 59.348 196.168 50.164 46.616 113.34 62.972 182.492 47.244M748.828 473.292c-2.844-1.14-19.488-30.66-36.984-65.604-24.76-49.448-33.808-63.96-40.828-65.476-4.96-1.072-36.016-5.816-69.016-10.548-63.772-9.14-73.936-13.432-74.088-31.284-0.068-8.12 11.020-21.052 50.888-59.356l50.976-48.98-11.656-70.356c-12.5-75.428-12.1-80.548 6.804-87.288 8.528-3.040 19.796 1.476 72.584 29.088l62.492 32.692 62.492-32.692c52.788-27.612 64.056-32.128 72.584-29.088 18.904 6.74 19.304 11.86 6.804 87.288l-11.656 70.356 50.976 48.98c50.052 48.092 55.028 55.6 46.912 70.768-5.328 9.952-7.924 10.668-72.916 20.152-31.456 4.592-61.252 9.22-66.212 10.284-7.024 1.504-16.040 15.956-40.764 65.332-33.508 66.92-39.608 73.672-59.392 65.732M362 397.328c-83.936-6.952-183.644-28.564-248.908-53.948-46.568-18.116-69.020-36.4-85.28-69.444-9.524-19.348-9.848-22.956-11.056-122.692-1.204-99.296-0.968-103.032 7-111 8.12-8.12 11.448-8.244 224.244-8.244 210.668 0 216.196 0.196 224 8 4.4 4.4 8 11.6 8 16s-3.6 11.6-8 16c-7.788 7.788-13.332 8-208 8h-200l0.024 75c0.012 41.248 1.788 81.364 3.948 89.14 14.088 50.712 130.060 90.408 307.556 105.272 51.808 4.336 62.392 6.336 67 12.636 7.668 10.488 6.816 20.608-2.528 29.952-8.064 8.064-28.304 9.448-78 5.328M782.984 350.16c11.444-23.012 24.904-44.412 29.912-47.56 5.008-3.144 29.676-8.636 54.816-12.204 25.144-3.572 46.232-7.008 46.864-7.64s-14.984-16.028-34.7-34.212c-19.72-18.188-36.872-37.12-38.116-42.072-1.912-7.62 4.184-53.484 12.724-95.764l2.28-11.292-96.764 50.584-48-25.092c-26.4-13.8-48-24.064-48-22.812 0 1.256 3.736 23.136 8.3 48.632 4.564 25.492 7.26 50.48 5.992 55.528-1.264 5.048-18.488 24.020-38.268 42.16-19.78 18.136-35.396 33.544-34.708 34.236 0.692 0.688 21.828 4.172 46.972 7.744 25.14 3.568 49.808 9.060 54.816 12.204 5.008 3.148 18.468 24.548 29.912 47.56s21.788 41.84 22.984 41.84c1.196 0 11.54-18.828 22.984-41.84" />
<glyph unicode="&#xefd4;" glyph-name="a-sync" d="M448 496c137.36 0 240 143.6 240 272 0 132.336-107.664 240-240 240s-240-107.664-240-240c0-128.4 102.64-272 240-272zM640 208c0 64.192 29.12 121.568 74.832 159.712-67.328 18.096-155.6 32.288-266.832 32.288-177.888 0-297.072-36.304-365.728-66.768-40.272-17.84-66.272-58-66.272-102.304v-166.928c0-8.832 7.168-16 16-16h608v160zM703.68 236.816c13.552 66.752 72.896 115.184 141.12 115.184 26.112 0 50.8-7.12 72.288-20.288l-48.4-48.4c-10.032-10.032-2.944-27.312 11.312-27.312h112c8.848 0 16 7.152 16 16v112c0 14.16-17.152 21.424-27.312 11.312l-40.48-40.48c-27.888 18.88-60.608 29.168-95.408 29.168-83.376 0-155.904-59.216-172.48-140.816-1.744-8.656 3.84-17.104 12.496-18.88 9.184-1.728 17.184 4.208 18.864 12.512zM995.184 191.68c-8.768 1.648-17.104-3.856-18.88-12.496-13.536-66.752-72.88-115.184-141.104-115.184-26.112 0-50.8 7.12-72.288 20.288l48.4 48.4c10.032 10.032 2.944 27.312-11.312 27.312h-112c-8.848 0-16-7.152-16-16v-112c0-6.464 3.888-12.32 9.872-14.784 5.904-2.464 12.816-1.152 17.44 3.472l40.48 40.48c27.888-18.88 60.608-29.168 95.408-29.168 83.376 0 155.904 59.216 172.48 140.816 1.76 8.656-3.84 17.104-12.496 18.864z" />
<glyph unicode="&#xefd5;" glyph-name="a-sync-line" d="M400 1001.784c-88.436-18.972-167.428-99.36-186.488-189.784-33.26-157.78 93.988-332 242.488-332 123.816 0 238.52 122.54 246.6 263.448 4.428 77.228-17.952 136.056-72.524 190.628-62.7 62.7-143.12 86.368-230.076 67.708M503.836 953.764c67.184-15.28 127.196-73.888 144.832-141.44 17.752-68.008 0.016-144.268-47.2-202.948-47.596-59.152-100.68-85.596-160.612-80-79.648 7.44-159.136 87.864-178.86 180.976-16.252 76.708 4.46 145.164 59.348 196.168 50.164 46.616 113.34 62.972 182.492 47.244M344 395.304c-92.968-7.932-237.072-46.324-276.536-73.676-8.888-6.16-21.648-19.176-28.36-28.928-20.92-30.412-23.104-44.516-23.104-149.336 0-90.032 0.448-95.812 8-103.364 7.848-7.848 13.332-8 288-8s280.152 0.152 288 8c10.184 10.184 10.184 21.816 0 32-7.84 7.84-13.332 8-272 8h-264l0.024 75c0.012 41.248 1.788 81.364 3.948 89.14 6.752 24.3 29.744 42.332 74.3 58.268 48.992 17.524 106.5 31.596 161.732 39.58 63.628 9.192 176.172 12.020 245.808 6.168l59.812-5.024 7.188 8.876c8.536 10.544 9.128 19.812 1.892 29.708-11.26 15.396-164.624 22.984-274.704 13.588M984 392c-6.104-6.104-8-13.332-8-30.488v-22.488l-9 6.488c-20.372 14.688-55.068 30.188-78.32 34.992-30.904 6.384-76.884 0.612-109.28-13.716-47.064-20.812-94.836-79.624-101.664-125.156-3.096-20.652 4.904-33.632 20.728-33.632 10.296 0 25.516 14.136 25.576 23.756 0.080 13.148 19.472 46.964 36.348 63.38 9.684 9.424 27.512 22.024 39.612 28 18.792 9.28 26.956 10.848 56 10.764 38.32-0.108 59.328-7.872 86.656-32.012l15.344-13.556-39-0.164c-33.532-0.144-40.12-1.288-47-8.168-4.4-4.4-8-11.6-8-16s3.6-11.6 8-16c7.348-7.348 13.332-8 73.38-8 58.26 0 66.1 0.796 72 7.316 5.584 6.172 6.62 17.424 6.62 72 0 59.352-0.66 65.344-8 72.684-4.4 4.4-11.6 8-16 8s-11.6-3.6-16-8M999.12 187.744c-3.788-2.204-8.884-11.6-11.328-20.876-9.792-37.16-42.544-75.344-79.088-92.212-14.696-6.784-25.988-8.588-52.704-8.412-38.392 0.248-59.756 8.108-86.656 31.868l-15.344 13.556 39 0.164c33.532 0.144 40.12 1.288 47 8.168 4.4 4.4 8 11.6 8 16s-3.6 11.6-8 16c-7.348 7.348-13.332 8-73.38 8-58.26 0-66.1-0.796-72-7.316-5.584-6.172-6.62-17.424-6.62-72 0-59.352 0.66-65.344 8-72.684 9.416-9.416 19.476-10.192 30.22-2.332 5.68 4.152 8.288 12.12 9.764 29.844l2.016 24.184 20-13.388c32.468-21.732 54.864-28.088 98-27.82 68.020 0.428 121.224 29.32 156.548 85.020 10.368 16.348 11.452 21.392 11.452 53.276 0 33.888-0.34 35.212-9 35.096-4.952-0.068-12.096-1.928-15.88-4.136" />
<glyph unicode="&#xefd6;" glyph-name="a-time" d="M448 496c137.36 0 240 143.6 240 272 0 132.336-107.664 240-240 240s-240-107.664-240-240c0-128.4 102.64-272 240-272zM592 208c0 68.208 30.592 129.184 78.672 170.272-60.4 12.752-134.272 21.728-222.672 21.728-177.888 0-297.072-36.304-365.728-66.768-40.272-17.84-66.272-58-66.272-102.304v-166.928c0-8.832 7.168-16 16-16h627.376c-41.536 40.656-67.376 97.28-67.376 160zM816 400c-106.032 0-192-85.968-192-192s85.968-192 192-192 192 85.968 192 192-85.968 192-192 192zM928 192h-112c-8.848 0-16 7.168-16 16v112c0 8.832 7.152 16 16 16s16-7.168 16-16v-96h96c8.848 0 16-7.168 16-16s-7.152-16-16-16z" />
<glyph unicode="&#xefd7;" glyph-name="a-time-line" d="M400 1001.784c-88.436-18.972-167.428-99.36-186.488-189.784-33.26-157.78 93.988-332 242.488-332 123.816 0 238.52 122.54 246.6 263.448 4.428 77.228-17.952 136.056-72.524 190.628-62.7 62.7-143.12 86.368-230.076 67.708M503.836 953.764c67.184-15.28 127.196-73.888 144.832-141.44 17.752-68.008 0.016-144.268-47.2-202.948-47.596-59.152-100.68-85.596-160.612-80-79.648 7.44-159.136 87.864-178.86 180.976-16.252 76.708 4.46 145.164 59.348 196.168 50.164 46.616 113.34 62.972 182.492 47.244M762.848 427.436c-23.976-4.596-57.892-19.444-79.952-35.004l-16.896-11.92-31.476 5.62c-155.976 27.852-359.616 13.368-499.992-35.56-57.592-20.076-77.892-32.384-95.428-57.872-20.92-30.412-23.104-44.516-23.104-149.336 0-90.032 0.448-95.812 8-103.364 7.84-7.84 13.332-8 272-8s264.16 0.16 272 8c4.4 4.4 8 11.6 8 16s-3.6 11.6-8 16c-7.828 7.828-13.332 8-256 8h-248l0.024 75c0.012 41.248 1.788 81.364 3.948 89.14 7.004 25.204 29.74 42.496 78.436 59.648 48.656 17.14 116.184 33 173.592 40.776 76.084 10.304 313.548 4.040 306.976-8.1-30.568-56.456-39.576-99.868-31.844-153.464 9.812-68.032 54.956-129.868 117.164-160.488 130.604-64.284 287.716 17.732 308.612 161.104 21.836 149.8-108.096 272.56-258.060 243.82M850.16 377.792c124.804-32.5 167.036-188.424 75.752-279.704-65.556-65.56-170.268-65.56-235.824 0-64.168 64.164-65.84 168.46-3.724 232.232 45.112 46.316 103.384 63.204 163.796 47.472M792 312c-7.112-7.112-8-13.332-8-56s0.888-48.888 8-56c7.112-7.112 13.332-8 56-8s48.888 0.888 56 8c4.4 4.4 8 11.6 8 16s-3.6 11.6-8 16c-6.668 6.668-13.332 8-40 8h-32v32c0 26.668-1.332 33.332-8 40-4.4 4.4-11.6 8-16 8s-11.6-3.6-16-8" />
<glyph unicode="&#xefd8;" glyph-name="accessibility" d="M624 896c0-61.856-50.144-112-112-112s-112 50.144-112 112c0 61.856 50.144 112 112 112s112-50.144 112-112zM909.536 736h-795.072c-25.424 0-48.256-18.672-50.304-44.016-2.176-26.832 17.776-49.216 43.52-51.552l260.32-32.432v-541.536c0-25.408 18.656-48.24 43.984-50.304 26.816-2.176 49.216 17.744 51.568 43.456l30.464 244.496c1.136 9.088 8.848 15.888 17.984 15.888s16.848-6.8 17.984-15.872l30.464-244.496c2.368-25.712 24.752-45.632 51.568-43.456 25.328 2.048 43.984 24.88 43.984 50.288v541.536l260.32 32.432c25.744 2.336 45.696 24.72 43.52 51.552-2.048 25.344-24.896 44.016-50.304 44.016z" />
<glyph unicode="&#xefd9;" glyph-name="accessibility-line" d="M487.168 1002.628c-49.808-14.032-87.168-63.116-87.168-114.52 0-63.276 56.78-120.108 120-120.108 63.168 0 120 56.832 120 120 0 43.192-30.848 91.092-69.748 108.3-23.116 10.224-59.436 12.992-83.084 6.328M552.12 951c52.492-26.516 52.492-99.484 0-126-22.576-11.404-41.664-11.404-64.24 0-52.492 26.516-52.492 99.484 0 126 9.8 4.952 24.252 9 32.12 9s22.32-4.048 32.12-9M87.628 710.704c-39.064-20.604-50.864-66.588-26.5-103.256 16.492-24.816 29.988-28.5 166.172-45.36l124.7-15.44v-489.388l9.296-17.632c20.604-39.064 66.588-50.864 103.256-26.5 23.896 15.88 28.944 32.42 41.596 136.336 6.328 51.996 12.564 94.536 13.852 94.536s7.524-42.54 13.852-94.536c12.652-103.916 17.7-120.456 41.596-136.336 36.668-24.364 82.652-12.564 103.256 26.5l9.296 17.632v489.388l124.7 15.44c136.184 16.86 149.68 20.544 166.172 45.36 24.364 36.668 12.564 82.652-26.5 103.256l-17.632 9.296h-829.48l-17.632-9.296M936 664c4.4-4.4 8-11.6 8-16 0-8.868-13.204-23.98-21-24.036-2.748-0.016-61.7-7.2-131-15.964s-128.248-15.948-131-15.964c-2.748-0.020-8.6-3.636-13-8.036-7.832-7.832-8-13.332-8-264s-0.168-256.168-8-264c-9.94-9.94-21.768-10.232-31.228-0.772-5.884 5.884-10.088 30.664-22.568 133-8.512 69.8-17.996 131.636-21.312 138.948-14.556 32.112-59.228 32.112-73.784 0-3.316-7.312-12.8-69.148-21.312-138.948-12.48-102.336-16.684-127.116-22.568-133-9.46-9.46-21.288-9.168-31.228 0.772-7.832 7.832-8 13.332-8 264s-0.168 256.168-8 264c-4.4 4.4-10.248 8.016-13 8.036-2.748 0.016-61.7 7.2-131 15.964s-128.248 15.948-131 15.964c-7.796 0.056-21 15.168-21 24.036 0 4.4 3.6 11.6 8 16 7.896 7.896 13.332 8 416 8s408.104-0.104 416-8" />
<glyph unicode="&#xefda;" glyph-name="add-27" d="M920.624 316.528c-56.256 23.488-156.128 51.472-312.624 51.472s-256.368-27.984-312.624-51.472c-53.072-22.176-87.376-74.176-87.376-132.496v-152.032c0-8.848 7.152-16 16-16h768c8.848 0 16 7.152 16 16v152.032c0 58.32-34.304 110.32-87.376 132.496zM608 464c132.336 0 240 107.664 240 240v64c0 132.336-107.664 240-240 240s-240-107.664-240-240v-64c0-132.336 107.664-240 240-240zM288 496c8.848 0 16 7.152 16 16s-7.152 16-16 16h-112v112c0 8.848-7.152 16-16 16s-16-7.152-16-16v-112h-112c-8.848 0-16-7.152-16-16s7.152-16 16-16h112v-112c0-8.848 7.152-16 16-16s16 7.152 16 16v112h112z" />
<glyph unicode="&#xefdb;" glyph-name="add-27-line" d="M560 1001.784c-87.576-18.788-167.56-99.536-186.008-187.784-3.58-17.132-5.852-50.516-5.852-86 0-69.708 6.156-102.904 26.708-144 19.708-39.412 67.936-88.504 105.152-107.036 101.128-50.356 211.82-33.188 290.076 44.992 56.668 56.612 73.784 104.412 73.784 206.044 0 101.616-17.108 149.4-73.784 206.076-62.7 62.7-143.12 86.368-230.076 67.708M663.836 953.764c67.184-15.28 127.196-73.888 144.832-141.44 9.564-36.644 9.564-132.004 0-168.648-26.648-102.076-137.26-167.636-238.828-141.556-72.192 18.54-128.628 73.068-146.508 141.556-9.564 36.644-9.564 132.004 0 168.648 9.048 34.652 29.272 67.492 58.012 94.196 50.164 46.616 113.34 62.972 182.492 47.244M152 648c-7.24-7.24-8-13.332-8-64v-56h-56c-50.668 0-56.76-0.76-64-8-4.4-4.4-8-11.6-8-16s3.6-11.6 8-16c7.24-7.24 13.332-8 64-8h56v-56c0-50.668 0.76-56.76 8-64 4.4-4.4 11.6-8 16-8s11.6 3.6 16 8c7.24 7.24 8 13.332 8 64v56h56c50.668 0 56.76 0.76 64 8 4.4 4.4 8 11.6 8 16s-3.6 11.6-8 16c-7.24 7.24-13.332 8-64 8h-56v56c0 50.668-0.76 56.76-8 64-4.4 4.4-11.6 8-16 8s-11.6-3.6-16-8M510.364 363.616c-76.284-6.284-176.376-30.444-222.444-53.692-23.896-12.064-53.9-44.68-67.2-73.052-10.58-22.572-10.736-24.168-12.024-121.568-1.264-95.464-1.032-98.968 7-107 8.292-8.292 8.844-8.304 400.304-8.304s392.012 0.012 400.304 8.304c8.040 8.040 8.26 11.472 6.904 107-1.376 97.024-1.58 99.084-12.028 121.576-13.156 28.312-43.14 60.948-67.1 73.044-89.504 45.172-268.344 67.312-433.716 53.692M762 310.324c49.232-7.272 83.408-15.148 120.236-27.7 37.284-12.712 49.264-19.284 64.316-35.284 25.864-27.488 27.32-33.588 28.748-120.34l1.3-79h-721.2l1.3 79c1.428 86.752 2.884 92.852 28.748 120.34 31.88 33.888 112.96 56.46 252.552 70.312 33.396 3.312 185.688-1.668 224-7.328" />
<glyph unicode="&#xefdc;" glyph-name="add-29" d="M512 992c-132.336 0-240-107.664-240-240v-64c0-132.336 107.664-240 240-240s240 107.664 240 240v64c0 132.336-107.664 240-240 240zM816 416c-106.032 0-192-85.968-192-192s85.968-192 192-192 192 85.968 192 192-85.968 192-192 192zM896 208h-64v-64c0-8.832-7.168-16-16-16s-16 7.168-16 16v64h-64c-8.832 0-16 7.168-16 16s7.168 16 16 16h64v64c0 8.832 7.168 16 16 16s16-7.168 16-16v-64h64c8.832 0 16-7.168 16-16s-7.168-16-16-16zM592 224c0 47.632 14.976 91.696 40.32 128h-312.32c-167.632 0-304-136.368-304-304 0-8.848 7.152-16 16-16h669.056c-65.248 39.152-109.056 110.368-109.056 192z" />
<glyph unicode="&#xefdd;" glyph-name="add-29-line" d="M464 1001.784c-87.576-18.788-167.56-99.536-186.008-187.784-3.58-17.132-5.852-50.516-5.852-86 0-69.708 6.156-102.904 26.708-144 19.708-39.412 67.936-88.504 105.152-107.036 101.128-50.356 211.82-33.188 290.076 44.992 56.668 56.612 73.784 104.412 73.784 206.044 0 101.616-17.108 149.4-73.784 206.076-62.7 62.7-143.12 86.368-230.076 67.708M567.836 953.764c67.184-15.28 127.196-73.888 144.832-141.44 9.564-36.644 9.564-132.004 0-168.648-26.648-102.076-137.26-167.636-238.828-141.556-72.192 18.54-128.628 73.068-146.508 141.556-9.564 36.644-9.564 132.004 0 168.648 9.048 34.652 29.272 67.492 58.012 94.196 50.164 46.616 113.34 62.972 182.492 47.244M856 456c-7.24-7.24-8-13.332-8-64v-56h-56c-50.668 0-56.76-0.76-64-8-4.4-4.4-8-11.6-8-16s3.6-11.6 8-16c7.24-7.24 13.332-8 64-8h56v-56c0-50.668 0.76-56.76 8-64 4.4-4.4 11.6-8 16-8s11.6 3.6 16 8c7.24 7.24 8 13.332 8 64v56h56c50.668 0 56.76 0.76 64 8 4.4 4.4 8 11.6 8 16s-3.6 11.6-8 16c-7.24 7.24-13.332 8-64 8h-56v56c0 50.668-0.76 56.76-8 64-4.4 4.4-11.6 8-16 8s-11.6-3.6-16-8M273.032 331.568c-94.62-15.768-184.432-84.424-227.060-173.568-16.6-34.712-25.512-68.784-28.656-109.536-2.196-28.484-1.632-32.148 6.132-39.912l8.552-8.552h472c466.668 0 472.092 0.092 480 8 10.184 10.184 10.184 21.816 0 32-7.908 7.908-13.332 8-463.748 8h-455.748l2.060 15c11.556 84.124 68.3 160.672 147.436 198.892 48.704 23.524 71.856 26.108 233.832 26.108 138.836 0 144.464 0.296 152.168 8 4.4 4.4 8 11.6 8 16s-3.6 11.6-8 16c-7.732 7.732-13.004 7.984-157 7.532-81.952-0.256-158.436-2.040-169.968-3.964" />
<glyph unicode="&#xefde;" glyph-name="b-add" d="M640 816c8.832 0 16 7.152 16 16s-7.168 16-16 16h-112v112c0 8.848-7.168 16-16 16s-16-7.152-16-16v-112h-112c-8.832 0-16-7.152-16-16s7.168-16 16-16h112v-112c0-8.848 7.168-16 16-16s16 7.152 16 16v112h112zM912 448c0-61.856-50.144-112-112-112s-112 50.144-112 112c0 61.856 50.144 112 112 112s112-50.144 112-112zM336 448c0-61.856-50.144-112-112-112s-112 50.144-112 112c0 61.856 50.144 112 112 112s112-50.144 112-112zM392.672 228.384c-33.616 19.904-90.16 43.616-168.672 43.616-79.552 0-135.824-23.648-169.024-43.472-24.032-14.336-38.976-40.688-38.976-68.752v-95.776c0-8.848 7.168-16 16-16h384c8.832 0 16 7.152 16 16v95.44c0 28.192-15.072 54.624-39.328 68.944zM968.672 228.384c-33.616 19.904-90.16 43.616-168.672 43.616-79.552 0-135.824-23.648-169.024-43.472-24.032-14.336-38.976-40.688-38.976-68.752v-95.776c0-8.848 7.168-16 16-16h384c8.832 0 16 7.152 16 16v95.44c0 28.192-15.072 54.624-39.328 68.944z" />
<glyph unicode="&#xefdf;" glyph-name="b-add-line" d="M504 968c-7.24-7.24-8-13.332-8-64v-56h-56c-50.668 0-56.76-0.76-64-8-4.4-4.4-8-11.6-8-16s3.6-11.6 8-16c7.24-7.24 13.332-8 64-8h56v-56c0-50.668 0.76-56.76 8-64 10.184-10.184 21.816-10.184 32 0 7.24 7.24 8 13.332 8 64v56h56c50.668 0 56.76 0.76 64 8 4.4 4.4 8 11.6 8 16s-3.6 11.6-8 16c-7.24 7.24-13.332 8-64 8h-56v56c0 50.668-0.76 56.76-8 64-4.4 4.4-11.6 8-16 8s-11.6-3.6-16-8M199.168 554.628c-49.808-14.032-87.168-63.116-87.168-114.52 0-63.276 56.78-120.108 120-120.108 63.168 0 120 56.832 120 120 0 43.192-30.848 91.092-69.748 108.3-23.116 10.224-59.436 12.992-83.084 6.328M775.168 554.628c-67.060-18.896-103.364-91.036-78.824-156.632 16.6-44.368 64.744-77.996 111.656-77.996 63.168 0 120 56.832 120 120 0 43.192-30.848 91.092-69.748 108.3-23.116 10.224-59.436 12.992-83.084 6.328M264.12 503c52.492-26.516 52.492-99.484 0-126-9.8-4.952-24.252-9-32.12-9s-22.32 4.048-32.12 9c-52.492 26.516-52.492 99.484 0 126 9.8 4.952 24.252 9 32.12 9s22.32-4.048 32.12-9M840.12 503c52.492-26.516 52.492-99.484 0-126-9.8-4.952-24.252-9-32.12-9s-22.32 4.048-32.12 9c-52.492 26.516-52.492 99.484 0 126 9.8 4.952 24.252 9 32.12 9s22.32-4.048 32.12-9M167.18 266.076c-62.596-10.24-121.884-40.408-139.344-70.9-9.136-15.952-9.932-21.784-11.176-81.836-1.264-61.152-0.884-65.116 7-73 8.232-8.232 10.968-8.34 208.34-8.34s200.108 0.108 208.34 8.34c7.888 7.888 8.264 11.828 6.964 73-1.484 70.004-3.988 79.596-26.34 100.808-19.844 18.836-69.568 40.748-112.964 49.78-35.644 7.42-102.392 8.436-140.82 2.148M743.18 266.076c-62.596-10.24-121.884-40.408-139.344-70.9-9.136-15.952-9.932-21.784-11.176-81.836-1.264-61.152-0.884-65.116 7-73 8.232-8.232 10.968-8.34 208.34-8.34s200.108 0.108 208.34 8.34c7.888 7.888 8.264 11.828 6.964 73-1.484 70.004-3.988 79.596-26.34 100.808-19.844 18.836-69.568 40.748-112.964 49.78-35.644 7.42-102.392 8.436-140.82 2.148M309.92 214.252c36.312-10.064 69.3-26.172 80.248-39.18 9.068-10.776 9.832-14.932 9.832-53.38v-41.692h-336v41.692c0 38.372 0.78 42.62 9.768 53.3 12.416 14.76 57.788 35.772 93.008 43.076 34.844 7.224 110.604 5.204 143.144-3.816M885.92 214.252c36.312-10.064 69.3-26.172 80.248-39.18 9.068-10.776 9.832-14.932 9.832-53.38v-41.692h-336v41.692c0 38.372 0.78 42.62 9.768 53.3 12.416 14.76 57.788 35.772 93.008 43.076 34.844 7.224 110.604 5.204 143.144-3.816" />
<glyph unicode="&#xefe0;" glyph-name="b-check" d="M912 448c0-61.856-50.144-112-112-112s-112 50.144-112 112c0 61.856 50.144 112 112 112s112-50.144 112-112zM336 448c0-61.856-50.144-112-112-112s-112 50.144-112 112c0 61.856 50.144 112 112 112s112-50.144 112-112zM392.688 228.384c-33.616 19.904-90.176 43.616-168.688 43.616-79.552 0-135.824-23.648-169.024-43.472-24.032-14.336-38.976-40.688-38.976-68.752v-95.776c0-8.848 7.152-16 16-16h384c8.848 0 16 7.152 16 16v95.44c0 28.208-15.056 54.624-39.312 68.944zM968.688 228.384c-33.616 19.904-90.176 43.616-168.688 43.616-79.552 0-135.824-23.648-169.024-43.472-24.032-14.336-38.976-40.688-38.976-68.752v-95.776c0-8.848 7.152-16 16-16h384c8.848 0 16 7.152 16 16v95.44c0 28.208-15.056 54.624-39.312 68.944zM683.312 939.312c-6.256 6.256-16.368 6.256-22.624 0l-212.688-212.688-84.688 84.688c-6.256 6.256-16.368 6.256-22.624 0s-6.256-16.368 0-22.624l96-96c3.12-3.12 7.216-4.688 11.312-4.688s8.192 1.568 11.312 4.688l224 224c6.256 6.256 6.256 16.368 0 22.624z" />
<glyph unicode="&#xefe1;" glyph-name="b-check-line" d="M563.236 837.164l-107.104-106.836-43.468 42.836c-28.088 27.68-46.512 42.836-52.068 42.836-11.16 0-24.596-13.572-24.596-24.844 0-13.080 106.9-119.156 120.084-119.156 13.416 0 247.916 233.704 247.916 247.076 0 11.436-13.436 24.924-24.828 24.924-6.212 0-40.58-31.668-115.936-106.836M199.168 554.628c-49.808-14.032-87.168-63.116-87.168-114.52 0-63.276 56.78-120.108 120-120.108 63.168 0 120 56.832 120 120 0 43.192-30.848 91.092-69.748 108.3-23.116 10.224-59.436 12.992-83.084 6.328M775.168 554.628c-67.060-18.896-103.364-91.036-78.824-156.632 16.6-44.368 64.744-77.996 111.656-77.996 63.168 0 120 56.832 120 120 0 43.192-30.848 91.092-69.748 108.3-23.116 10.224-59.436 12.992-83.084 6.328M264.12 503c52.492-26.516 52.492-99.484 0-126-9.8-4.952-24.252-9-32.12-9s-22.32 4.048-32.12 9c-52.492 26.516-52.492 99.484 0 126 9.8 4.952 24.252 9 32.12 9s22.32-4.048 32.12-9M840.12 503c52.492-26.516 52.492-99.484 0-126-9.8-4.952-24.252-9-32.12-9s-22.32 4.048-32.12 9c-52.492 26.516-52.492 99.484 0 126 9.8 4.952 24.252 9 32.12 9s22.32-4.048 32.12-9M167.18 266.076c-62.596-10.24-121.884-40.408-139.344-70.9-9.136-15.952-9.932-21.784-11.176-81.836-1.264-61.152-0.884-65.116 7-73 8.232-8.232 10.968-8.34 208.34-8.34s200.108 0.108 208.34 8.34c7.888 7.888 8.264 11.828 6.964 73-1.484 70.004-3.988 79.596-26.34 100.808-19.844 18.836-69.568 40.748-112.964 49.78-35.644 7.42-102.392 8.436-140.82 2.148M743.18 266.076c-62.596-10.24-121.884-40.408-139.344-70.9-9.136-15.952-9.932-21.784-11.176-81.836-1.264-61.152-0.884-65.116 7-73 8.232-8.232 10.968-8.34 208.34-8.34s200.108 0.108 208.34 8.34c7.888 7.888 8.264 11.828 6.964 73-1.484 70.004-3.988 79.596-26.34 100.808-19.844 18.836-69.568 40.748-112.964 49.78-35.644 7.42-102.392 8.436-140.82 2.148M309.92 214.252c36.312-10.064 69.3-26.172 80.248-39.18 9.068-10.776 9.832-14.932 9.832-53.38v-41.692h-336v41.692c0 38.372 0.78 42.62 9.768 53.3 12.416 14.76 57.788 35.772 93.008 43.076 34.844 7.224 110.604 5.204 143.144-3.816M885.92 214.252c36.312-10.064 69.3-26.172 80.248-39.18 9.068-10.776 9.832-14.932 9.832-53.38v-41.692h-336v41.692c0 38.372 0.78 42.62 9.768 53.3 12.416 14.76 57.788 35.772 93.008 43.076 34.844 7.224 110.604 5.204 143.144-3.816" />
<glyph unicode="&#xefe2;" glyph-name="b-location" d="M912 448c0-61.856-50.144-112-112-112s-112 50.144-112 112c0 61.856 50.144 112 112 112s112-50.144 112-112zM336 448c0-61.856-50.144-112-112-112s-112 50.144-112 112c0 61.856 50.144 112 112 112s112-50.144 112-112zM392.672 228.384c-33.616 19.904-90.16 43.616-168.672 43.616-79.552 0-135.824-23.648-169.024-43.472-24.032-14.336-38.976-40.688-38.976-68.752v-95.776c0-8.848 7.168-16 16-16h384c8.832 0 16 7.152 16 16v95.44c0 28.192-15.072 54.624-39.328 68.944zM968.672 228.384c-33.616 19.904-90.16 43.616-168.672 43.616-79.552 0-135.824-23.648-169.024-43.472-24.032-14.336-38.976-40.688-38.976-68.752v-95.776c0-8.848 7.168-16 16-16h384c8.832 0 16 7.152 16 16v95.44c0 28.192-15.072 54.624-39.328 68.944zM512 976c-97.040 0-176-78.96-176-176 0-103.504 158.032-260.736 164.752-267.376 3.12-3.088 7.184-4.624 11.248-4.624s8.128 1.536 11.248 4.624c6.72 6.64 164.752 163.872 164.752 267.376 0 97.040-78.96 176-176 176zM512 752c-26.512 0-48 21.488-48 48s21.488 48 48 48c26.512 0 48-21.488 48-48s-21.488-48-48-48z" />
<glyph unicode="&#xefe3;" glyph-name="b-location-line" d="M472.42 969.668c-32.696-8.792-57.792-24.252-84.492-52.056-27.524-28.664-42.704-58.268-49.14-95.84-6.552-38.248 0.236-70.856 24.92-119.772 33.556-66.492 135.116-190 156.236-190 21.052 0 122.964 123.852 156.348 190 32.716 64.828 35.62 112.524 10.228 167.992-12.464 27.22-51.408 68.864-77.868 83.268-40.196 21.876-92.484 28.176-136.232 16.408M566.748 919.376c45.928-17.184 82.66-64.7 87.644-113.376 4.844-47.3-26.928-109.644-99.772-195.772-37.732-44.612-33.496-42.060-45.84-27.62-66.844 78.188-101.252 128.94-115.82 170.836-8.088 23.248-9.44 32.868-7.396 52.512 9.052 86.964 99.896 143.832 181.184 113.42M490.736 874.444c-60.648-22.58-77.708-98.62-32.308-144.016 43.904-43.904 115.656-29.976 142.056 27.572 18.416 40.14-0.612 91.384-41.852 112.708-16.672 8.62-49.868 10.448-67.896 3.736M547.908 817.904c15.248-15.24 13.9-39.16-3.064-54.312-20.764-18.556-47.204-13.552-58.928 11.148-10.184 21.464-0.324 45.836 22.084 54.584 10.7 4.176 29.76-1.28 39.908-11.42M199.168 554.628c-49.808-14.032-87.168-63.116-87.168-114.52 0-63.276 56.78-120.108 120-120.108 63.168 0 120 56.832 120 120 0 43.192-30.848 91.092-69.748 108.3-23.116 10.224-59.436 12.992-83.084 6.328M775.168 554.628c-67.060-18.896-103.364-91.036-78.824-156.632 16.6-44.368 64.744-77.996 111.656-77.996 63.168 0 120 56.832 120 120 0 43.192-30.848 91.092-69.748 108.3-23.116 10.224-59.436 12.992-83.084 6.328M264.12 503c52.492-26.516 52.492-99.484 0-126-9.8-4.952-24.252-9-32.12-9s-22.32 4.048-32.12 9c-52.492 26.516-52.492 99.484 0 126 9.8 4.952 24.252 9 32.12 9s22.32-4.048 32.12-9M840.12 503c52.492-26.516 52.492-99.484 0-126-9.8-4.952-24.252-9-32.12-9s-22.32 4.048-32.12 9c-52.492 26.516-52.492 99.484 0 126 9.8 4.952 24.252 9 32.12 9s22.32-4.048 32.12-9M167.18 266.076c-62.596-10.24-121.884-40.408-139.344-70.9-9.136-15.952-9.932-21.784-11.176-81.836-1.264-61.152-0.884-65.116 7-73 8.232-8.232 10.968-8.34 208.34-8.34s200.108 0.108 208.34 8.34c7.888 7.888 8.264 11.828 6.964 73-1.484 70.004-3.988 79.596-26.34 100.808-19.844 18.836-69.568 40.748-112.964 49.78-35.644 7.42-102.392 8.436-140.82 2.148M743.18 266.076c-62.596-10.24-121.884-40.408-139.344-70.9-9.136-15.952-9.932-21.784-11.176-81.836-1.264-61.152-0.884-65.116 7-73 8.232-8.232 10.968-8.34 208.34-8.34s200.108 0.108 208.34 8.34c7.888 7.888 8.264 11.828 6.964 73-1.484 70.004-3.988 79.596-26.34 100.808-19.844 18.836-69.568 40.748-112.964 49.78-35.644 7.42-102.392 8.436-140.82 2.148M309.92 214.252c36.312-10.064 69.3-26.172 80.248-39.18 9.068-10.776 9.832-14.932 9.832-53.38v-41.692h-336v41.692c0 38.372 0.78 42.62 9.768 53.3 12.416 14.76 57.788 35.772 93.008 43.076 34.844 7.224 110.604 5.204 143.144-3.816M885.92 214.252c36.312-10.064 69.3-26.172 80.248-39.18 9.068-10.776 9.832-14.932 9.832-53.38v-41.692h-336v41.692c0 38.372 0.78 42.62 9.768 53.3 12.416 14.76 57.788 35.772 93.008 43.076 34.844 7.224 110.604 5.204 143.144-3.816" />
<glyph unicode="&#xefe4;" glyph-name="b-love" d="M684.832 939.392c-25.616 26.48-61.040 39.616-97.152 36.032-29.2-2.912-55.84-16.416-75.68-37.84-19.824 21.44-46.48 34.944-75.664 37.84-36.096 3.616-71.568-9.552-97.168-36.032-46.768-48.4-46.768-127.136 0-175.52l161.312-166.976c3.008-3.136 7.168-4.896 11.504-4.896s8.496 1.76 11.504 4.88l161.344 166.992c46.768 48.384 46.768 127.12 0 175.52zM912 448c0-61.856-50.144-112-112-112s-112 50.144-112 112c0 61.856 50.144 112 112 112s112-50.144 112-112zM336 448c0-61.856-50.144-112-112-112s-112 50.144-112 112c0 61.856 50.144 112 112 112s112-50.144 112-112zM392.672 228.384c-33.616 19.904-90.16 43.616-168.672 43.616-79.552 0-135.824-23.648-169.024-43.472-24.032-14.336-38.976-40.688-38.976-68.752v-95.776c0-8.848 7.168-16 16-16h384c8.832 0 16 7.152 16 16v95.44c0 28.192-15.072 54.624-39.328 68.944zM968.672 228.384c-33.616 19.904-90.16 43.616-168.672 43.616-79.552 0-135.824-23.648-169.024-43.472-24.032-14.336-38.976-40.688-38.976-68.752v-95.776c0-8.848 7.168-16 16-16h384c8.832 0 16 7.152 16 16v95.44c0 28.192-15.072 54.624-39.328 68.944z" />
<glyph unicode="&#xefe5;" glyph-name="b-love-line" d="M398 970.66c-26.5-8.804-39.564-17.12-57.564-36.652-26.3-28.532-34.352-49.596-34.396-90.008-0.064-54.092 5.124-62.152 110.12-171.18 49.128-51.012 92.588-93.788 96.58-95.056s10.528-1.268 14.52 0c3.992 1.268 47.452 44.044 96.58 95.056 104.996 109.028 110.184 117.088 110.12 171.18-0.028 26.36-1.988 38.24-8.716 52.868-12.212 26.556-41.632 56.52-66.388 67.628-38.368 17.208-107.036 9.384-126.816-14.448-6.428-7.748-17.652-7.748-24.080 0-15.912 19.172-78.812 30.964-109.96 20.612M457.364 923.688c9.788-2.716 22.192-11.42 34.168-23.976 11.668-12.236 22.224-19.712 27.824-19.712 5.484 0 16.796 7.772 28.836 19.812 27.552 27.548 56.236 34.8 86.936 21.976 44.080-18.412 64.62-69.524 45.16-112.38-7.3-16.084-152.552-171.408-160.288-171.408s-152.988 155.324-160.288 171.408c-19.088 42.028-0.324 91.28 42.288 111.008 18.304 8.476 33.416 9.368 55.364 3.272M199.168 554.628c-49.808-14.032-87.168-63.116-87.168-114.52 0-63.276 56.78-120.108 120-120.108 63.168 0 120 56.832 120 120 0 43.192-30.848 91.092-69.748 108.3-23.116 10.224-59.436 12.992-83.084 6.328M775.168 554.628c-67.060-18.896-103.364-91.036-78.824-156.632 16.6-44.368 64.744-77.996 111.656-77.996 63.168 0 120 56.832 120 120 0 43.192-30.848 91.092-69.748 108.3-23.116 10.224-59.436 12.992-83.084 6.328M264.12 503c52.492-26.516 52.492-99.484 0-126-9.8-4.952-24.252-9-32.12-9s-22.32 4.048-32.12 9c-52.492 26.516-52.492 99.484 0 126 9.8 4.952 24.252 9 32.12 9s22.32-4.048 32.12-9M840.12 503c52.492-26.516 52.492-99.484 0-126-9.8-4.952-24.252-9-32.12-9s-22.32 4.048-32.12 9c-52.492 26.516-52.492 99.484 0 126 9.8 4.952 24.252 9 32.12 9s22.32-4.048 32.12-9M167.18 266.076c-62.596-10.24-121.884-40.408-139.344-70.9-9.136-15.952-9.932-21.784-11.176-81.836-1.264-61.152-0.884-65.116 7-73 8.232-8.232 10.968-8.34 208.34-8.34s200.108 0.108 208.34 8.34c7.888 7.888 8.264 11.828 6.964 73-1.484 70.004-3.988 79.596-26.34 100.808-19.844 18.836-69.568 40.748-112.964 49.78-35.644 7.42-102.392 8.436-140.82 2.148M743.18 266.076c-62.596-10.24-121.884-40.408-139.344-70.9-9.136-15.952-9.932-21.784-11.176-81.836-1.264-61.152-0.884-65.116 7-73 8.232-8.232 10.968-8.34 208.34-8.34s200.108 0.108 208.34 8.34c7.888 7.888 8.264 11.828 6.964 73-1.484 70.004-3.988 79.596-26.34 100.808-19.844 18.836-69.568 40.748-112.964 49.78-35.644 7.42-102.392 8.436-140.82 2.148M309.92 214.252c36.312-10.064 69.3-26.172 80.248-39.18 9.068-10.776 9.832-14.932 9.832-53.38v-41.692h-336v41.692c0 38.372 0.78 42.62 9.768 53.3 12.416 14.76 57.788 35.772 93.008 43.076 34.844 7.224 110.604 5.204 143.144-3.816M885.92 214.252c36.312-10.064 69.3-26.172 80.248-39.18 9.068-10.776 9.832-14.932 9.832-53.38v-41.692h-336v41.692c0 38.372 0.78 42.62 9.768 53.3 12.416 14.76 57.788 35.772 93.008 43.076 34.844 7.224 110.604 5.204 143.144-3.816" />
<glyph unicode="&#xefe6;" glyph-name="b-meeting" d="M992 1008h-544c-8.848 0-16-7.168-16-16v-448c0-6.144 3.536-11.76 9.056-14.416 2.224-1.056 4.592-1.584 6.944-1.584 3.568 0 7.104 1.2 10 3.504l155.616 124.496h378.384c8.848 0 16 7.168 16 16v320c0 8.832-7.152 16-16 16zM912 448c0-61.856-50.144-112-112-112s-112 50.144-112 112c0 61.856 50.144 112 112 112s112-50.144 112-112zM336 448c0-61.856-50.144-112-112-112s-112 50.144-112 112c0 61.856 50.144 112 112 112s112-50.144 112-112zM392.688 228.384c-33.616 19.904-90.176 43.616-168.688 43.616-79.552 0-135.824-23.648-169.024-43.472-24.032-14.336-38.976-40.688-38.976-68.752v-95.776c0-8.848 7.152-16 16-16h384c8.848 0 16 7.152 16 16v95.44c0 28.208-15.056 54.624-39.312 68.944zM968.688 228.384c-33.616 19.904-90.176 43.616-168.688 43.616-79.552 0-135.824-23.648-169.024-43.472-24.032-14.336-38.976-40.688-38.976-68.752v-95.776c0-8.848 7.152-16 16-16h384c8.848 0 16 7.152 16 16v95.44c0 28.208-15.056 54.624-39.312 68.944z" />
<glyph unicode="&#xefe7;" glyph-name="b-meeting-line" d="M440 1000c-7.816-7.816-8-13.332-8-240s0.184-232.184 8-240c15.868-15.868 14.448-16.68 123.444 70.728l61.444 49.272h191.556c186.224 0 191.78 0.224 199.556 8 7.748 7.748 8 13.332 8 176s-0.252 168.252-8 176c-7.848 7.848-13.332 8-288 8s-280.152-0.152-288-8M976 824v-136h-183.108c-165.732 0-184.052-0.644-193-6.796-5.44-3.736-32.392-24.732-59.892-46.656s-52.248-41.588-55-43.696c-3.984-3.052-5 34.088-5 182.66v186.488h496v-136M199.168 554.628c-49.808-14.032-87.168-63.116-87.168-114.52 0-63.276 56.78-120.108 120-120.108 63.168 0 120 56.832 120 120 0 43.192-30.848 91.092-69.748 108.3-23.116 10.224-59.436 12.992-83.084 6.328M775.168 554.628c-67.060-18.896-103.364-91.036-78.824-156.632 16.6-44.368 64.744-77.996 111.656-77.996 63.168 0 120 56.832 120 120 0 43.192-30.848 91.092-69.748 108.3-23.116 10.224-59.436 12.992-83.084 6.328M264.12 503c52.492-26.516 52.492-99.484 0-126-9.8-4.952-24.252-9-32.12-9s-22.32 4.048-32.12 9c-52.492 26.516-52.492 99.484 0 126 9.8 4.952 24.252 9 32.12 9s22.32-4.048 32.12-9M840.12 503c52.492-26.516 52.492-99.484 0-126-9.8-4.952-24.252-9-32.12-9s-22.32 4.048-32.12 9c-52.492 26.516-52.492 99.484 0 126 9.8 4.952 24.252 9 32.12 9s22.32-4.048 32.12-9M167.18 266.076c-62.596-10.24-121.884-40.408-139.344-70.9-9.136-15.952-9.932-21.784-11.176-81.836-1.264-61.152-0.884-65.116 7-73 8.232-8.232 10.968-8.34 208.34-8.34s200.108 0.108 208.34 8.34c7.888 7.888 8.264 11.828 6.964 73-1.484 70.004-3.988 79.596-26.34 100.808-19.844 18.836-69.568 40.748-112.964 49.78-35.644 7.42-102.392 8.436-140.82 2.148M743.18 266.076c-62.596-10.24-121.884-40.408-139.344-70.9-9.136-15.952-9.932-21.784-11.176-81.836-1.264-61.152-0.884-65.116 7-73 8.232-8.232 10.968-8.34 208.34-8.34s200.108 0.108 208.34 8.34c7.888 7.888 8.264 11.828 6.964 73-1.484 70.004-3.988 79.596-26.34 100.808-19.844 18.836-69.568 40.748-112.964 49.78-35.644 7.42-102.392 8.436-140.82 2.148M309.92 214.252c36.312-10.064 69.3-26.172 80.248-39.18 9.068-10.776 9.832-14.932 9.832-53.38v-41.692h-336v41.692c0 38.372 0.78 42.62 9.768 53.3 12.416 14.76 57.788 35.772 93.008 43.076 34.844 7.224 110.604 5.204 143.144-3.816M885.92 214.252c36.312-10.064 69.3-26.172 80.248-39.18 9.068-10.776 9.832-14.932 9.832-53.38v-41.692h-336v41.692c0 38.372 0.78 42.62 9.768 53.3 12.416 14.76 57.788 35.772 93.008 43.076 34.844 7.224 110.604 5.204 143.144-3.816" />
<glyph unicode="&#xefe8;" glyph-name="b-remove" d="M384 816h256c8.832 0 16 7.152 16 16s-7.168 16-16 16h-256c-8.832 0-16-7.152-16-16s7.168-16 16-16zM912 448c0-61.856-50.144-112-112-112s-112 50.144-112 112c0 61.856 50.144 112 112 112s112-50.144 112-112zM336 448c0-61.856-50.144-112-112-112s-112 50.144-112 112c0 61.856 50.144 112 112 112s112-50.144 112-112zM392.672 228.384c-33.616 19.904-90.16 43.616-168.672 43.616-79.552 0-135.824-23.648-169.024-43.472-24.032-14.336-38.976-40.688-38.976-68.752v-95.776c0-8.848 7.168-16 16-16h384c8.832 0 16 7.152 16 16v95.44c0 28.192-15.072 54.624-39.328 68.944zM968.672 228.384c-33.616 19.904-90.16 43.616-168.672 43.616-79.552 0-135.824-23.648-169.024-43.472-24.032-14.336-38.976-40.688-38.976-68.752v-95.776c0-8.848 7.168-16 16-16h384c8.832 0 16 7.152 16 16v95.44c0 28.192-15.072 54.624-39.328 68.944z" />
<glyph unicode="&#xefe9;" glyph-name="b-remove-line" d="M376 840c-4.4-4.4-8-11.6-8-16s3.6-11.6 8-16c7.688-7.688 13.332-8 144-8s136.312 0.312 144 8c4.4 4.4 8 11.6 8 16s-3.6 11.6-8 16c-7.688 7.688-13.332 8-144 8s-136.312-0.312-144-8M199.168 554.628c-49.808-14.032-87.168-63.116-87.168-114.52 0-63.276 56.78-120.108 120-120.108 63.168 0 120 56.832 120 120 0 43.192-30.848 91.092-69.748 108.3-23.116 10.224-59.436 12.992-83.084 6.328M775.168 554.628c-67.060-18.896-103.364-91.036-78.824-156.632 16.6-44.368 64.744-77.996 111.656-77.996 63.168 0 120 56.832 120 120 0 43.192-30.848 91.092-69.748 108.3-23.116 10.224-59.436 12.992-83.084 6.328M264.12 503c52.492-26.516 52.492-99.484 0-126-9.8-4.952-24.252-9-32.12-9s-22.32 4.048-32.12 9c-52.492 26.516-52.492 99.484 0 126 9.8 4.952 24.252 9 32.12 9s22.32-4.048 32.12-9M840.12 503c52.492-26.516 52.492-99.484 0-126-9.8-4.952-24.252-9-32.12-9s-22.32 4.048-32.12 9c-52.492 26.516-52.492 99.484 0 126 9.8 4.952 24.252 9 32.12 9s22.32-4.048 32.12-9M167.18 266.076c-62.596-10.24-121.884-40.408-139.344-70.9-9.136-15.952-9.932-21.784-11.176-81.836-1.264-61.152-0.884-65.116 7-73 8.232-8.232 10.968-8.34 208.34-8.34s200.108 0.108 208.34 8.34c7.888 7.888 8.264 11.828 6.964 73-1.484 70.004-3.988 79.596-26.34 100.808-19.844 18.836-69.568 40.748-112.964 49.78-35.644 7.42-102.392 8.436-140.82 2.148M743.18 266.076c-62.596-10.24-121.884-40.408-139.344-70.9-9.136-15.952-9.932-21.784-11.176-81.836-1.264-61.152-0.884-65.116 7-73 8.232-8.232 10.968-8.34 208.34-8.34s200.108 0.108 208.34 8.34c7.888 7.888 8.264 11.828 6.964 73-1.484 70.004-3.988 79.596-26.34 100.808-19.844 18.836-69.568 40.748-112.964 49.78-35.644 7.42-102.392 8.436-140.82 2.148M309.92 214.252c36.312-10.064 69.3-26.172 80.248-39.18 9.068-10.776 9.832-14.932 9.832-53.38v-41.692h-336v41.692c0 38.372 0.78 42.62 9.768 53.3 12.416 14.76 57.788 35.772 93.008 43.076 34.844 7.224 110.604 5.204 143.144-3.816M885.92 214.252c36.312-10.064 69.3-26.172 80.248-39.18 9.068-10.776 9.832-14.932 9.832-53.38v-41.692h-336v41.692c0 38.372 0.78 42.62 9.768 53.3 12.416 14.76 57.788 35.772 93.008 43.076 34.844 7.224 110.604 5.204 143.144-3.816" />
<glyph unicode="&#xefea;" glyph-name="b-security" d="M912 416c0-61.856-50.144-112-112-112s-112 50.144-112 112c0 61.856 50.144 112 112 112s112-50.144 112-112zM336 416c0-61.856-50.144-112-112-112s-112 50.144-112 112c0 61.856 50.144 112 112 112s112-50.144 112-112zM392.672 196.384c-33.616 19.904-90.16 43.616-168.672 43.616-79.552 0-135.824-23.648-169.024-43.472-24.032-14.336-38.976-40.688-38.976-68.752v-95.776c0-8.848 7.168-16 16-16h384c8.832 0 16 7.152 16 16v95.44c0 28.192-15.072 54.624-39.328 68.944zM968.672 196.384c-33.616 19.904-90.16 43.616-168.672 43.616-79.552 0-135.824-23.648-169.024-43.472-24.032-14.336-38.976-40.688-38.976-68.752v-95.776c0-8.848 7.168-16 16-16h384c8.832 0 16 7.152 16 16v95.44c0 28.192-15.072 54.624-39.328 68.944zM432 896c0 44.112 35.888 80 80 80s80-35.888 80-80v-80h32v80c0 61.76-50.24 112-112 112s-112-50.24-112-112v-80h32v80zM352 560h320c8.832 0 16 7.168 16 16v192c0 8.832-7.168 16-16 16h-320c-8.832 0-16-7.168-16-16v-192c0-8.832 7.168-16 16-16zM512 704c17.68 0 32-14.32 32-32s-14.32-32-32-32c-17.68 0-32 14.32-32 32s14.32 32 32 32z" />
<glyph unicode="&#xefeb;" glyph-name="b-security-line" d="M487.168 1002.628c-36.596-10.312-65.42-37.476-79.732-75.144-5.912-15.564-7.436-30.616-7.436-73.528v-53.956h-24c-41.224 0-40 3.916-40-128 0-106.668 0.38-112.38 8-120 7.748-7.748 13.332-8 176-8s168.252 0.252 176 8c7.62 7.62 8 13.332 8 120 0 131.916 1.224 128-40 128h-24v53.848c0 44.588-1.42 57.64-8.244 75.884-9.92 26.512-36.856 55.664-61.504 66.568-23.116 10.224-59.436 12.992-83.084 6.328M546.984 953.848c36.32-15.176 44.812-34.608 44.928-102.848l0.088-51h-144v50.128c0 67.184 8.028 86.748 42 102.348 19.648 9.024 37.636 9.456 56.984 1.372M656 672v-80h-272v160h272v-80M506 707.168c-20.536-11.776-23.692-32.384-7.456-48.624 13.668-13.668 29.244-13.668 42.912 0 16.5 16.504 12.968 37.532-8.192 48.804-10.808 5.756-16.988 5.716-27.264-0.18M199.168 522.628c-49.808-14.032-87.168-63.116-87.168-114.52 0-63.276 56.78-120.108 120-120.108 63.168 0 120 56.832 120 120 0 43.192-30.848 91.092-69.748 108.3-23.116 10.224-59.436 12.992-83.084 6.328M775.168 522.628c-67.060-18.896-103.364-91.036-78.824-156.632 16.6-44.368 64.744-77.996 111.656-77.996 63.168 0 120 56.832 120 120 0 43.192-30.848 91.092-69.748 108.3-23.116 10.224-59.436 12.992-83.084 6.328M264.12 471c52.492-26.516 52.492-99.484 0-126-9.8-4.952-24.252-9-32.12-9s-22.32 4.048-32.12 9c-52.492 26.516-52.492 99.484 0 126 9.8 4.952 24.252 9 32.12 9s22.32-4.048 32.12-9M840.12 471c52.492-26.516 52.492-99.484 0-126-9.8-4.952-24.252-9-32.12-9s-22.32 4.048-32.12 9c-52.492 26.516-52.492 99.484 0 126 9.8 4.952 24.252 9 32.12 9s22.32-4.048 32.12-9M167.18 234.076c-62.596-10.24-121.884-40.408-139.344-70.9-9.136-15.952-9.932-21.784-11.176-81.836-1.264-61.152-0.884-65.116 7-73 8.232-8.232 10.968-8.34 208.34-8.34s200.108 0.108 208.34 8.34c7.888 7.888 8.264 11.828 6.964 73-1.484 70.004-3.988 79.596-26.34 100.808-19.844 18.836-69.568 40.748-112.964 49.78-35.644 7.42-102.392 8.436-140.82 2.148M743.18 234.076c-62.596-10.24-121.884-40.408-139.344-70.9-9.136-15.952-9.932-21.784-11.176-81.836-1.264-61.152-0.884-65.116 7-73 8.232-8.232 10.968-8.34 208.34-8.34s200.108 0.108 208.34 8.34c7.888 7.888 8.264 11.828 6.964 73-1.484 70.004-3.988 79.596-26.34 100.808-19.844 18.836-69.568 40.748-112.964 49.78-35.644 7.42-102.392 8.436-140.82 2.148M309.92 182.252c36.312-10.064 69.3-26.172 80.248-39.18 9.068-10.776 9.832-14.932 9.832-53.38v-41.692h-336v41.692c0 38.372 0.78 42.62 9.768 53.3 12.416 14.76 57.788 35.772 93.008 43.076 34.844 7.224 110.604 5.204 143.144-3.816M885.92 182.252c36.312-10.064 69.3-26.172 80.248-39.18 9.068-10.776 9.832-14.932 9.832-53.38v-41.692h-336v41.692c0 38.372 0.78 42.62 9.768 53.3 12.416 14.76 57.788 35.772 93.008 43.076 34.844 7.224 110.604 5.204 143.144-3.816" />
<glyph unicode="&#xefec;" glyph-name="badge-13" d="M976 912h-176c-9.088 0-15.936-7.536-16-16.624-0.464-59.344-65.904-103.536-128.528-64.752-22.16 13.712-31.072 39.568-31.472 65.632-0.128 8.72-7.248 15.744-16 15.744h-192c-9.088 0-15.936-7.536-16-16.624-0.464-59.344-65.888-103.536-128.528-64.752-22.16 13.712-31.072 39.568-31.472 65.632-0.128 8.72-7.248 15.744-16 15.744h-176c-17.68 0-32-14.32-32-32v-736c0-17.68 14.32-32 32-32h928c17.68 0 32 14.32 32 32v736c0 17.68-14.32 32-32 32zM320 656c44.112 0 80-35.888 80-80s-35.888-80-80-80-80 35.888-80 80 35.888 80 80 80zM480 288h-320c-8.832 0-16 7.168-16 16 0 79.392 64.608 144 144 144h64c79.392 0 144-64.608 144-144 0-8.832-7.168-16-16-16zM832 368h-224c-8.832 0-16 7.168-16 16s7.168 16 16 16h224c8.832 0 16-7.168 16-16s-7.168-16-16-16zM832 528h-224c-8.832 0-16 7.168-16 16s7.168 16 16 16h224c8.832 0 16-7.168 16-16s-7.168-16-16-16z" />
<glyph unicode="&#xefed;" glyph-name="badge-13-line" d="M24 904c-7.892-7.892-8-13.332-8-400s0.108-392.108 8-400c7.912-7.912 13.332-8 496-8s488.088 0.088 496 8c7.892 7.892 8 13.332 8 400s-0.108 392.108-8 400c-7.588 7.588-13.332 8-112 8s-104.412-0.412-112-8c-4.4-4.4-8-13.020-8-19.152 0-6.136-4.052-19.168-9-28.968-26.516-52.492-99.484-52.492-126 0-4.952 9.8-9 22.832-9 28.968 0 6.132-3.6 14.752-8 19.152-7.588 7.588-13.332 8-112 8s-104.412-0.412-112-8c-4.4-4.4-8-13.020-8-19.152 0-6.136-4.048-19.168-9-28.968-26.516-52.492-99.484-52.492-126 0-4.948 9.8-9 22.832-9 28.968 0 6.132-3.6 14.752-8 19.152-7.588 7.588-13.332 8-112 8s-104.412-0.412-112-8M217.42 843.448c14.892-41.928 64.024-75.448 110.58-75.448s95.688 33.52 110.58 75.448l7.296 20.552h148.248l7.296-20.552c14.892-41.928 64.024-75.448 110.58-75.448s95.688 33.52 110.58 75.448l7.296 20.552h146.124v-720h-912v720h146.124l7.296-20.552M298.736 650.444c-60.648-22.58-77.708-98.62-32.308-144.016 43.904-43.904 115.656-29.976 142.056 27.572 18.416 40.14-0.612 91.384-41.852 112.708-16.672 8.62-49.868 10.448-67.896 3.736M355.908 593.904c15.248-15.24 13.9-39.16-3.064-54.312-20.764-18.556-47.204-13.552-58.928 11.148-10.184 21.464-0.324 45.836 22.084 54.584 10.7 4.176 29.76-1.28 39.908-11.42M600 552c-4.4-4.4-8-11.6-8-16s3.6-11.6 8-16c7.644-7.644 13.332-8 128-8s120.356 0.356 128 8c4.4 4.4 8 11.6 8 16s-3.6 11.6-8 16c-7.644 7.644-13.332 8-128 8s-120.356-0.356-128-8M258 442.404c-24.492-6.024-35.008-11.424-57.3-29.448-43.216-34.932-70.964-110.692-48.7-132.956 7.748-7.748 13.332-8 176-8s168.252 0.252 176 8c22.26 22.26-5.46 97.956-48.7 132.988-22.396 18.144-36.464 25.016-62.496 30.524-27.608 5.844-109.252 5.172-134.804-1.108M392.82 393.784c10.036-3.42 25.72-12.612 34.852-20.432 15.208-13.016 32.328-39.068 32.328-49.192 0-2.796-43.296-4.16-132-4.16s-132 1.364-132 4.16c0 2.288 3.536 11.092 7.864 19.568 9.92 19.448 36.292 42.22 57.676 49.804 23.444 8.312 107.148 8.476 131.28 0.252M600 392c-4.4-4.4-8-11.6-8-16s3.6-11.6 8-16c7.644-7.644 13.332-8 128-8s120.356 0.356 128 8c4.4 4.4 8 11.6 8 16s-3.6 11.6-8 16c-7.644 7.644-13.332 8-128 8s-120.356-0.356-128-8" />
<glyph unicode="&#xefee;" glyph-name="badge-14" d="M976 912h-176c-9.088 0-15.936-7.536-16-16.624-0.464-59.344-65.888-103.536-128.528-64.752-22.16 13.712-31.072 39.568-31.472 65.632-0.128 8.72-7.248 15.744-16 15.744h-192c-9.088 0-15.936-7.536-16-16.624-0.464-59.344-65.888-103.536-128.528-64.752-22.16 13.712-31.072 39.568-31.472 65.632-0.128 8.72-7.248 15.744-16 15.744h-176c-17.68 0-32-14.32-32-32v-736c0-17.68 14.32-32 32-32h928c17.68 0 32 14.32 32 32v736c0 17.68-14.32 32-32 32zM496 320c0-8.832-7.168-16-16-16h-288c-8.832 0-16 7.168-16 16v288c0 8.832 7.168 16 16 16h288c8.832 0 16-7.168 16-16v-288zM832 368h-224c-8.832 0-16 7.168-16 16s7.168 16 16 16h224c8.832 0 16-7.168 16-16s-7.168-16-16-16zM832 528h-224c-8.832 0-16 7.168-16 16s7.168 16 16 16h224c8.832 0 16-7.168 16-16s-7.168-16-16-16z" />
<glyph unicode="&#xefef;" glyph-name="badge-14-line" d="M24 904c-7.892-7.892-8-13.332-8-400s0.108-392.108 8-400c7.912-7.912 13.332-8 496-8s488.088 0.088 496 8c7.892 7.892 8 13.332 8 400s-0.108 392.108-8 400c-7.588 7.588-13.332 8-112 8s-104.412-0.412-112-8c-4.4-4.4-8-13.020-8-19.152 0-6.136-4.052-19.168-9-28.968-26.516-52.492-99.484-52.492-126 0-4.952 9.8-9 22.832-9 28.968 0 6.132-3.6 14.752-8 19.152-7.588 7.588-13.332 8-112 8s-104.412-0.412-112-8c-4.4-4.4-8-13.020-8-19.152 0-6.136-4.048-19.168-9-28.968-26.516-52.492-99.484-52.492-126 0-4.948 9.8-9 22.832-9 28.968 0 6.132-3.6 14.752-8 19.152-7.588 7.588-13.332 8-112 8s-104.412-0.412-112-8M217.42 843.448c14.892-41.928 64.024-75.448 110.58-75.448s95.688 33.52 110.58 75.448l7.296 20.552h148.248l7.296-20.552c14.892-41.928 64.024-75.448 110.58-75.448s95.688 33.52 110.58 75.448l7.296 20.552h146.124v-720h-912v720h146.124l7.296-20.552M184 616c-7.72-7.72-8-13.332-8-160s0.28-152.28 8-160c7.72-7.72 13.332-8 160-8s152.28 0.28 160 8c7.72 7.72 8 13.332 8 160s-0.28 152.28-8 160c-7.72 7.72-13.332 8-160 8s-152.28-0.28-160-8M464 456v-120h-240v240h240v-120M600 552c-4.4-4.4-8-11.6-8-16s3.6-11.6 8-16c7.644-7.644 13.332-8 128-8s120.356 0.356 128 8c4.4 4.4 8 11.6 8 16s-3.6 11.6-8 16c-7.644 7.644-13.332 8-128 8s-120.356-0.356-128-8M600 392c-4.4-4.4-8-11.6-8-16s3.6-11.6 8-16c7.644-7.644 13.332-8 128-8s120.356 0.356 128 8c4.4 4.4 8 11.6 8 16s-3.6 11.6-8 16c-7.644 7.644-13.332 8-128 8s-120.356-0.356-128-8" />
<glyph unicode="&#xeff0;" glyph-name="badge-15" d="M976 784h-336v-96c0-17.68-14.32-32-32-32h-192c-17.68 0-32 14.32-32 32v96h-336c-17.68 0-32-14.32-32-32v-704c0-17.68 14.32-32 32-32h928c17.68 0 32 14.32 32 32v704c0 17.68-14.32 32-32 32zM464 224c0-8.832-7.168-16-16-16h-256c-8.832 0-16 7.168-16 16v256c0 8.832 7.168 16 16 16h256c8.832 0 16-7.168 16-16v-256zM832 240h-256c-8.832 0-16 7.168-16 16s7.168 16 16 16h256c8.832 0 16-7.168 16-16s-7.168-16-16-16zM832 432h-256c-8.832 0-16 7.168-16 16s7.168 16 16 16h256c8.832 0 16-7.168 16-16s-7.168-16-16-16zM512 1008c-53.024 0-96-42.976-96-96v-208c0-8.832 7.168-16 16-16h160c8.832 0 16 7.168 16 16v208c0 53.024-42.976 96-96 96zM512 880c-17.68 0-32 14.32-32 32s14.32 32 32 32 32-14.32 32-32c0-17.68-14.32-32-32-32z" />
<glyph unicode="&#xeff1;" glyph-name="badge-15-line" d="M476.252 999.232c-29.312-11.252-56.548-38.868-67.68-68.62-7.404-19.796-8.572-31.328-8.572-84.764v-61.848h-184c-178.668 0-184.232-0.232-192-8-7.888-7.888-8-13.332-8-384s0.112-376.112 8-384c7.912-7.912 13.332-8 496-8s488.088 0.088 496 8c7.888 7.888 8 13.332 8 384s-0.112 376.112-8 384c-7.768 7.768-13.332 8-192 8h-184v61.848c0 75.868-6.108 97.036-36.56 126.696-34.756 33.856-82.456 43.864-127.188 26.688M546.984 953.848c19.832-8.288 28.752-16.816 37.492-35.848 6.54-14.24 7.356-27.76 7.436-123l0.088-107h-144v106.128c0 86.456 1.14 108.86 6.152 120.856 8.288 19.832 16.816 28.752 35.848 37.492 19.648 9.024 37.636 9.456 56.984 1.372M506 899.168c-11.852-6.796-17.728-15.88-17.872-27.624-0.168-13.836 17.72-31.544 31.872-31.544s32.040 17.708 31.872 31.544c-0.148 12.112-6.24 21.216-18.608 27.804-10.808 5.756-16.988 5.716-27.264-0.18M400 696c0-59.548-7.6-56 120-56s120-3.548 120 56v40h336v-688h-912v688h336v-40M184 488c-7.688-7.688-8-13.332-8-144s0.312-136.312 8-144c7.688-7.688 13.332-8 144-8s136.312 0.312 144 8c7.688 7.688 8 13.332 8 144s-0.312 136.312-8 144c-7.688 7.688-13.332 8-144 8s-136.312-0.312-144-8M568 456c-4.4-4.4-8-11.6-8-16s3.6-11.6 8-16c7.688-7.688 13.332-8 144-8s136.312 0.312 144 8c4.4 4.4 8 11.6 8 16s-3.6 11.6-8 16c-7.688 7.688-13.332 8-144 8s-136.312-0.312-144-8M432 344v-104h-208v208h208v-104M568 264c-4.4-4.4-8-11.6-8-16s3.6-11.6 8-16c7.688-7.688 13.332-8 144-8s136.312 0.312 144 8c4.4 4.4 8 11.6 8 16s-3.6 11.6-8 16c-7.688 7.688-13.332 8-144 8s-136.312-0.312-144-8" />
<glyph unicode="&#xeff2;" glyph-name="child" d="M400 432c0-26.51-21.49-48-48-48s-48 21.49-48 48c0 26.51 21.49 48 48 48s48-21.49 48-48zM720 432c0-26.51-21.49-48-48-48s-48 21.49-48 48c0 26.51 21.49 48 48 48s48-21.49 48-48zM885.696 621.728c-53.104 140.064-180 237.696-326.576 255.184 36.688 59.344 102.144 99.088 176.88 99.088 8.848 0 16 7.152 16 16s-7.152 16-16 16c-92.080 0-172.080-52.176-212.32-128.448-3.904 0.112-7.76 0.448-11.68 0.448-166.064 0-314.976-103.36-373.696-258.272-69.36-10.608-122.304-70.944-122.304-141.728s52.944-131.12 122.304-141.728c58.72-154.912 207.632-258.272 373.696-258.272s314.976 103.36 373.696 258.272c69.36 10.608 122.304 70.944 122.304 141.728s-52.944 131.12-122.304 141.728zM872.784 368.976c-6.32-0.496-11.728-4.672-13.824-10.656-51.696-147.328-191.12-246.32-346.96-246.32s-295.264 98.992-346.96 246.32c-2.096 5.984-7.52 10.16-13.824 10.656-57.872 4.56-103.216 53.344-103.216 111.024s45.344 106.464 103.216 111.024c6.32 0.496 11.728 4.672 13.824 10.656 51.456 146.688 189.904 245.376 344.928 246.24-8.88-25.040-13.968-51.872-13.968-79.92 0-8.848 7.152-16 16-16s16 7.152 16 16c0 27.792 5.584 54.288 15.52 78.56 142.864-12.32 267.264-107.552 315.44-244.864 2.096-5.984 7.52-10.16 13.824-10.656 57.872-4.576 103.216-53.36 103.216-111.040s-45.344-106.464-103.216-111.024z" />
<glyph unicode="&#xeff3;" glyph-name="child-line" d="M688 1001.784c-54.38-11.664-118.552-55.74-148.536-102.012-12.276-18.948-13.576-19.772-31.136-19.788-28.584-0.024-85.552-10.396-119.476-21.756-96.14-32.188-185.136-109.332-231.292-200.48-17.476-34.512-19.66-37.1-35.1-41.58-33.128-9.612-73.7-43.672-90.508-75.984-8.188-15.744-15.856-48.712-15.856-68.184 0-20.52 7.672-52.228 16.996-70.252 16.924-32.708 59.904-66.82 95.432-75.736 7.944-1.992 14.344-10.744 28.936-39.56 54.232-107.096 158.344-187.132 277.756-213.52 41.696-9.216 127.872-9.216 169.568 0 119.412 26.388 223.524 106.424 277.756 213.52 14.592 28.816 20.992 37.568 28.936 39.56 35.528 8.916 78.508 43.028 95.432 75.736 9.324 18.024 16.996 49.732 16.996 70.252 0 19.472-7.668 52.44-15.856 68.184-16.808 32.312-57.38 66.372-90.508 75.984-15.44 4.48-17.624 7.068-35.1 41.58-47.472 93.748-136.568 169.632-237.488 202.272-20.376 6.588-41.42 11.98-46.764 11.98s-11.024 2.12-12.624 4.708c-4.048 6.544 41.724 48.768 66.436 61.292 22.62 11.464 62.876 21.852 85 21.94 16.796 0.068 31 11.092 31 24.060 0 23.020-27.312 29.092-80 17.784M502.288 819c-1.488-7.152-3.756-24.908-5.032-39.464-2.060-23.452-1.356-27.436 6.208-35 17.984-17.984 40.264-4.664 40.92 24.464 0.212 9.348 2.464 26 5.008 37 4.048 17.504 6 20.16 15.672 21.272 16.824 1.936 73.388-13.68 106.58-29.428 80.5-38.188 143-102.796 178.556-184.592 14.248-32.78 14.728-33.188 49.8-42.892 26.488-7.328 48.164-24.408 63.004-49.656 14.672-24.956 15.628-69.604 2.040-95.276-11.368-21.48-36.5-42.792-58-49.184-43.612-12.972-42.408-12.008-56.9-45.488-44.24-102.216-131.896-177.892-240.144-207.332-45.852-12.468-134.148-12.468-180 0-108.248 29.44-195.904 105.116-240.144 207.332-14.492 33.48-13.288 32.516-56.9 45.488-21.5 6.392-46.632 27.704-58 49.184-13.588 25.672-12.632 70.32 2.040 95.276 14.84 25.248 36.516 42.328 63.004 49.656 35.072 9.704 35.552 10.112 49.8 42.892 48.468 111.496 144.588 188.664 264.732 212.536 15.108 3.004 32.644 5.628 38.968 5.836 10.912 0.356 11.36-0.292 8.788-12.624M327.88 487c-52.492-26.516-52.492-99.484 0-126 9.8-4.952 24.252-9 32.12-9s22.32 4.048 32.12 9c52.492 26.516 52.492 99.484 0 126-9.8 4.952-24.252 9-32.12 9s-22.32-4.048-32.12-9M647.88 487c-52.492-26.516-52.492-99.484 0-126 9.8-4.952 24.252-9 32.12-9s22.32 4.048 32.12 9c52.492 26.516 52.492 99.484 0 126-9.8 4.952-24.252 9-32.12 9s-22.32-4.048-32.12-9M376 440c4.4-4.4 8-11.6 8-16s-3.6-11.6-8-16c-4.4-4.4-11.6-8-16-8s-11.6 3.6-16 8c-4.4 4.4-8 11.6-8 16s3.6 11.6 8 16c4.4 4.4 11.6 8 16 8s11.6-3.6 16-8M696 440c4.4-4.4 8-11.6 8-16s-3.6-11.6-8-16c-4.4-4.4-11.6-8-16-8s-11.6 3.6-16 8c-4.4 4.4-8 11.6-8 16s3.6 11.6 8 16c4.4 4.4 11.6 8 16 8s11.6-3.6 16-8" />
<glyph unicode="&#xeff4;" glyph-name="circle-08" d="M512 1008c-273.504 0-496-222.512-496-496s222.496-496 496-496 496 222.512 496 496-222.496 496-496 496zM320 576c0 105.872 86.128 192 192 192s192-86.128 192-192v-48c0-105.872-86.128-192-192-192s-192 86.128-192 192v48zM512 48c-107.216 0-205.968 36.656-284.624 97.952 45.936 78.208 128.784 126.048 220.624 126.048h128c91.728 0 174.576-47.84 220.608-126.064-78.656-61.296-177.408-97.936-284.608-97.936z" />
<glyph unicode="&#xeff5;" glyph-name="circle-08-line" d="M444 1002.116c-83.82-14.156-161.072-46.224-224-92.992-9.9-7.36-34.624-29.808-54.94-49.888-169.872-167.876-197.152-430.504-65.644-631.948 90.676-138.904 254.188-227.256 420.584-227.256 164.824 0 323.7 84.776 417.156 222.596 37.44 55.208 62.656 115.52 77.508 185.372 10.004 47.052 10.004 144.948 0 192-24.42 114.852-75.536 202.592-165.872 284.728-102.596 93.28-266.34 140.764-404.792 117.388M590.476 953.94c50.796-8.66 86.056-19.952 129.752-41.544 127.188-62.848 215.936-177.068 246.348-317.052 10.728-49.376 9.764-140.78-2.012-190.884-14.608-62.148-42.824-123.432-79.86-173.464-17.728-23.944-72.728-79.728-76.988-78.088-1.56 0.6-11.264 11.484-21.568 24.184-31.568 38.904-82.652 71.508-134.456 85.812-37.868 10.46-225.516 10.46-263.384 0-51.804-14.304-102.888-46.908-134.456-85.812-10.304-12.7-20.044-23.592-21.64-24.208-5.984-2.3-69.776 66.336-90.26 97.116-123.404 185.432-97.9 423.384 62.308 581.316 99.956 98.54 249.344 145.968 386.216 122.624M471.092 761.78c-67.524-16.368-126.168-74.072-143.76-141.456-9.396-36.004-9.396-116.644 0-152.648 17.88-68.488 74.316-123.016 146.508-141.556 101.568-26.080 212.18 39.48 238.828 141.556 4.724 18.1 6.872 41.94 6.872 76.324 0 59.056-7.184 91.824-27.46 125.284-46.264 76.328-134.804 113.388-220.988 92.496M552.804 715.512c38.552-8.16 70.44-30.448 93.724-65.516 18.444-27.78 25.368-55.764 25.424-102.8 0.084-69.032-10.516-98.884-48.228-135.784-30.86-30.196-57.484-40.624-103.724-40.624s-72.864 10.428-103.724 40.624c-37.712 36.9-48.312 66.752-48.228 135.784 0.056 47.036 6.98 75.020 25.424 102.8 22.268 33.536 52.536 55.56 88.528 64.408 25.88 6.36 44.604 6.656 70.804 1.108M653.288 212.892c34.316-12.76 76.948-42.792 96.988-68.324l17.508-22.308-17.004-10.588c-21.684-13.496-75.476-37.184-103.292-45.484-117.484-35.072-257.368-16.872-360.78 46.932l-15.288 9.432 18.224 22.372c17.788 21.84 61.144 54.22 84.624 63.208 37.436 14.328 51.376 15.644 153.732 14.532 93.152-1.016 104.020-1.864 125.288-9.772" />
<glyph unicode="&#xeff6;" glyph-name="circle-09" d="M512 1008c-273.504 0-496-222.512-496-496 0-152.624 69.344-289.328 178.128-380.384 2.464-2.064 4.976-4.064 7.472-6.080 85.056-68.448 192.992-109.536 310.4-109.536 117.28 0 225.12 41.008 310.112 109.312v0c2.288 1.84 4.592 3.632 6.832 5.504 109.328 91.056 179.056 228.112 179.056 381.184 0 273.488-222.496 496-496 496zM336 640c0 97.040 78.96 176 176 176s176-78.96 176-176v-64c0-97.040-78.96-176-176-176s-176 78.96-176 176v64zM512 48c-122.768 0-234.48 48.016-317.552 126.144 17.312 92.992 85.232 123.76 159.776 148.608 34.656 11.552 54.464 38.384 65.936 66.896 27.744-13.728 58.848-21.648 91.84-21.648 32.976 0 64.064 7.92 91.792 21.632 11.168-27.248 30.912-55.184 65.984-66.88 74.32-24.768 142.032-55.52 159.264-149.088-83.008-77.84-194.512-125.664-317.040-125.664z" />
<glyph unicode="&#xeff7;" glyph-name="circle-09-line" d="M444 1002.116c-83.82-14.156-161.072-46.224-224-92.992-9.9-7.36-34.624-29.808-54.94-49.888-197.76-195.436-198.124-513.472-0.816-710.188 198.724-198.132 514.584-198.128 711.128 0.012 73.556 74.148 117.288 155.448 139.292 258.94 10.004 47.052 10.004 144.948 0 192-24.42 114.852-75.536 202.592-165.872 284.728-102.596 93.28-266.34 140.764-404.792 117.388M590.476 953.94c50.796-8.66 86.056-19.952 129.752-41.544 127.188-62.848 215.936-177.068 246.348-317.052 10.728-49.376 9.764-140.78-2.012-190.884-13.996-59.544-41.724-121-75.852-168.112-13.852-19.12-44.9-53.668-46.424-51.652-0.54 0.716-6.424 13.116-13.076 27.552-21.68 47.076-57.904 75.332-133.212 103.916-40.572 15.396-66.92 39.14-77.324 69.672l-6.504 19.084 29.060 27.136c49.88 46.584 62.768 81.064 62.768 167.944 0 84.296-12.664 120.164-57.688 163.4-37.044 35.568-77.94 52.6-126.312 52.6s-89.268-17.032-126.312-52.6c-45.024-43.236-57.688-79.104-57.688-163.4 0-86.88 12.888-121.36 62.768-167.944l29.060-27.136-6.504-19.084c-10.016-29.396-36.956-54.328-73.324-67.86-67.888-25.256-102.968-49.108-127.548-86.732-9.048-13.848-16.48-27.892-16.512-31.212-0.036-3.316-1.616-8.48-3.512-11.476-7.648-12.068-62.36 59.196-90.392 117.736-85.852 179.304-49.18 383.656 94.224 525.024 99.956 98.54 249.344 145.968 386.216 122.624M566.748 759.376c29.292-10.96 61.492-40.924 76.232-70.94 10.676-21.732 11.020-24.504 11.020-88.436 0-60.928-0.732-67.616-9.512-87.040-14.224-31.48-49.588-62.508-82.992-72.824-33.124-10.232-49.868-10.232-82.992 0-33.404 10.316-68.768 41.344-82.992 72.824-8.78 19.424-9.512 26.112-9.512 87.040 0 63.648 0.384 66.784 10.82 88 32.072 65.2 104.792 95.748 169.928 71.376M578.252 360.38c7.248-16.636 18.98-33.56 33.456-48.256 19.36-19.66 28.076-24.912 66.292-39.964 76.684-30.204 101.66-52.452 116.668-103.932l6.348-21.772-11.508-9.28c-32.556-26.252-109.408-63.112-155.508-74.584-107.248-26.688-214-16.016-310 30.992-38.164 18.688-79.772 45.168-82.616 52.58-3.292 8.58 10.564 48.564 22.572 65.14 16.444 22.704 39.98 37.516 94.996 59.788 26.404 10.692 53.348 23.82 59.876 29.176 18.468 15.152 35.996 39.944 45.152 63.872l8.364 21.86h94.748l11.16-25.62" />
<glyph unicode="&#xeff8;" glyph-name="circle-10" d="M512 1008c-273.504 0-496-222.512-496-496 0-146.48 63.872-278.272 165.168-369.152v0c1.712-1.536 3.504-3.024 5.232-4.544v0c87.2-76.064 201.072-122.304 325.6-122.304 124.496 0 238.32 46.208 325.504 122.24v0c1.776 1.552 3.6 3.056 5.344 4.64v0c101.296 90.864 165.152 222.656 165.152 369.12 0 273.488-222.496 496-496 496zM320 656c0 105.872 86.128 192 192 192s192-86.128 192-192v-32c0-103.584-83.872-224-192-224s-192 120.416-192 224v32zM848 192.512c-84.592-88.912-203.888-144.512-336-144.512s-251.408 55.6-336 144.512v1.888c0 52.464 37.232 98.512 88.528 109.52l151.472 29.28v63.136c30.736-18.128 63.92-28.336 96-28.336s65.264 10.208 96 28.336v-63.136l151.136-29.232c51.632-11.056 88.864-57.12 88.864-109.584v-1.872z" />
<glyph unicode="&#xeff9;" glyph-name="circle-10-line" d="M444 1002.116c-83.82-14.156-161.072-46.224-224-92.992-9.9-7.36-34.624-29.808-54.94-49.888-172.192-170.172-197.604-435.872-61.048-638.312 106.716-158.208 304.756-245.096 490.108-215.032 114.632 18.592 211.84 69.496 290.856 152.312 65.896 69.064 108.856 151.808 129.688 249.796 10.004 47.052 10.004 144.948 0 192-24.42 114.852-75.536 202.592-165.872 284.728-102.596 93.28-266.34 140.764-404.792 117.388M590.476 953.94c50.796-8.66 86.056-19.952 129.752-41.544 127.188-62.848 215.936-177.068 246.348-317.052 10.728-49.376 9.764-140.78-2.012-190.884-14.708-62.572-42.72-123.232-80.568-174.464-16.624-22.508-23.996-27.192-23.996-15.26 0 11.64-15.16 38.648-30.624 54.564-22.468 23.116-40.412 30.24-117.1 46.504l-70.276 14.904-1.156 34.736-1.16 34.74 22.76 28.908c40.568 51.532 57.356 101.216 57.488 170.12 0.088 47.476-8.692 85.844-26.408 115.416-47.108 78.632-133.36 115.908-220.6 95.34-34.684-8.176-60.192-21.996-87.58-47.448-45.676-42.44-64.76-89.536-65.044-160.52-0.292-72.016 13.72-115.308 54.744-169.164l25.264-33.164-1.156-34.484-1.152-34.48-70.856-15.028c-84.572-17.932-104.664-27.244-127.448-59.064-8.544-11.932-16.672-27.752-18.060-35.156s-4.136-13.46-6.1-13.46c-7.124 0-44.028 54.916-63.172 94-88.676 181.056-53.016 386.46 91.896 529.316 99.956 98.54 249.344 145.968 386.216 122.624M552.804 763.512c11.656-2.468 26.596-7.192 33.196-10.496 38.488-19.284 73.22-63.644 81.92-104.636 7.164-33.768 3.544-95.644-7.384-126.224-16.436-45.98-52.46-89.588-90.4-109.424-28.772-15.044-71.5-15.044-100.272 0-37.94 19.836-73.964 63.444-90.4 109.424-10.928 30.58-14.548 92.456-7.384 126.224 8.484 39.968 42.424 84.068 79.92 103.836 26.56 14 66.748 18.504 100.804 11.296M466.512 361.268c10.928-4.752 26.672-6.736 53.488-6.736s42.56 1.984 53.488 6.736c8.52 3.7 16.168 6.732 17 6.732s1.512-15.26 1.512-33.908c0-30.804 0.824-34.428 9-39.616 4.952-3.14 44.1-13.176 87-22.3 51.98-11.060 83.544-19.84 94.616-26.328 21.54-12.62 33.384-36.256 33.384-66.632 0-22.188-0.060-22.3-21-37.932-62.46-46.632-128.988-74.988-205-87.38-120.24-19.608-243.516 11.616-345 87.38l-21 15.676v22.892c0 30.128 12.724 54.9 34.4 66.96 9.252 5.152 48.22 15.704 93.72 25.384 42.832 9.116 81.932 19.14 86.88 22.28 8.176 5.188 9 8.812 9 39.616 0 18.648 0.68 33.908 1.512 33.908s8.48-3.032 17-6.732" />
<glyph unicode="&#xeffa;" glyph-name="contacts" d="M976 704h-48v192h48c8.832 0 16-7.168 16-16v-160c0-8.832-7.168-16-16-16zM976 448h-48v192h48c8.832 0 16-7.168 16-16v-160c0-8.832-7.168-16-16-16zM192 1008h-96c-17.68 0-32-14.32-32-32v-928c0-17.68 14.32-32 32-32h96v992zM813.088 1008h-589.088v-992h589.088c45.728 0 82.912 35.888 82.912 80v832c0 44.112-37.184 80-82.912 80zM736 448h-352c-8.848 0-16 7.152-16 16s7.152 16 16 16h352c8.848 0 16-7.152 16-16s-7.152-16-16-16zM752 608c0-8.848-7.152-16-16-16h-352c-8.848 0-16 7.152-16 16v192c0 8.848 7.152 16 16 16h352c8.848 0 16-7.152 16-16v-192z" />
<glyph unicode="&#xeffb;" glyph-name="contacts-line" d="M72 1000c-7.912-7.912-8-13.332-8-496s0.088-488.088 8-496c7.888-7.888 13.272-8 389-7.912 359.944 0.084 381.884 0.492 397 7.376 20.576 9.368 44.288 35.728 49.712 55.252 6.072 21.868 5.896 861.32-0.184 883.284-5.88 21.228-36.3 51.648-57.528 57.528-11.176 3.092-129.668 4.436-393 4.448-371.68 0.024-377.112-0.088-385-7.976M224 504v-456h-112v912h112v-456M850.912 946.908l11.088-11.088v-863.64l-22.18-22.18-567.82-2.156v912.312l567.82-2.156 11.092-11.092M968 872c-7.408-7.408-8-13.332-8-80s0.592-72.592 8-80c4.4-4.4 11.6-8 16-8s11.6 3.6 16 8c7.408 7.408 8 13.332 8 80s-0.592 72.592-8 80c-4.4 4.4-11.6 8-16 8s-11.6-3.6-16-8M376 808c-7.588-7.588-8-13.332-8-112s0.412-104.412 8-112c7.768-7.768 13.332-8 192-8s184.232 0.232 192 8c7.588 7.588 8 13.332 8 112s-0.412 104.412-8 112c-7.768 7.768-13.332 8-192 8s-184.232-0.232-192-8M720 696v-72h-304v144h304v-72M968 616c-7.408-7.408-8-13.332-8-80s0.592-72.592 8-80c4.4-4.4 11.6-8 16-8s11.6 3.6 16 8c7.408 7.408 8 13.332 8 80s-0.592 72.592-8 80c-4.4 4.4-11.6 8-16 8s-11.6-3.6-16-8M376 472c-4.4-4.4-8-11.6-8-16s3.6-11.6 8-16c7.768-7.768 13.332-8 192-8s184.232 0.232 192 8c4.4 4.4 8 11.6 8 16s-3.6 11.6-8 16c-7.768 7.768-13.332 8-192 8s-184.232-0.232-192-8" />
<glyph unicode="&#xeffc;" glyph-name="contacts-2" d="M992 704h-48v192h48c8.832 0 16-7.168 16-16v-160c0-8.832-7.168-16-16-16zM992 448h-48v192h48c8.832 0 16-7.168 16-16v-160c0-8.832-7.168-16-16-16zM829.088 1008h-589.088v-992h589.088c45.728 0 82.912 35.888 82.912 80v832c0 44.112-37.184 80-82.912 80zM576 704c44.112 0 80-35.888 80-80s-35.888-80-80-80-80 35.888-80 80 35.888 80 80 80zM736 336h-320c-8.848 0-16 7.168-16 16 0 79.392 64.592 144 144 144h64c79.408 0 144-64.608 144-144 0-8.832-7.152-16-16-16zM208 1008h-96c-17.68 0-32-14.32-32-32v-928c0-17.68 14.32-32 32-32h96v992z" />
<glyph unicode="&#xeffd;" glyph-name="contacts-2-line" d="M72 1000c-7.912-7.912-8-13.332-8-496s0.088-488.088 8-496c7.888-7.888 13.272-8 389-7.912 359.944 0.084 381.884 0.492 397 7.376 20.576 9.368 44.288 35.728 49.712 55.252 6.072 21.868 5.896 861.32-0.184 883.284-5.88 21.228-36.3 51.648-57.528 57.528-11.176 3.092-129.668 4.436-393 4.448-371.68 0.024-377.112-0.088-385-7.976M224 504v-456h-112v912h112v-456M850.912 946.908l11.088-11.088v-863.64l-22.18-22.18-567.82-2.156v912.312l567.82-2.156 11.092-11.092M968 872c-7.408-7.408-8-13.332-8-80s0.592-72.592 8-80c4.4-4.4 11.6-8 16-8s11.6 3.6 16 8c7.408 7.408 8 13.332 8 80s-0.592 72.592-8 80c-4.4 4.4-11.6 8-16 8s-11.6-3.6-16-8M538.736 698.444c-60.648-22.58-77.708-98.62-32.308-144.016 43.904-43.904 115.656-29.976 142.056 27.572 18.416 40.14-0.612 91.384-41.852 112.708-16.672 8.62-49.868 10.448-67.896 3.736M595.908 641.904c15.248-15.24 13.9-39.16-3.064-54.312-20.764-18.556-47.204-13.552-58.928 11.148-10.184 21.464-0.324 45.836 22.084 54.584 10.7 4.176 29.76-1.28 39.908-11.42M968 616c-7.408-7.408-8-13.332-8-80s0.592-72.592 8-80c4.4-4.4 11.6-8 16-8s11.6 3.6 16 8c7.408 7.408 8 13.332 8 80s-0.592 72.592-8 80c-4.4 4.4-11.6 8-16 8s-11.6-3.6-16-8M498 490.404c-24.492-6.024-35.008-11.424-57.3-29.448-43.216-34.932-70.964-110.692-48.7-132.956 7.748-7.748 13.332-8 176-8s168.252 0.252 176 8c22.26 22.26-5.46 97.956-48.7 132.988-22.396 18.144-36.464 25.016-62.496 30.524-27.608 5.844-109.252 5.172-134.804-1.108M632.82 441.784c10.036-3.42 25.72-12.612 34.852-20.432 15.208-13.016 32.328-39.068 32.328-49.192 0-2.796-43.296-4.16-132-4.16s-132 1.364-132 4.16c0 2.288 3.536 11.092 7.864 19.568 9.92 19.448 36.292 42.22 57.676 49.804 23.444 8.312 107.148 8.476 131.28 0.252" />
<glyph unicode="&#xeffe;" glyph-name="contacts-44" d="M992 816h-352c-8.832 0-16-7.152-16-16s7.168-16 16-16h352c8.832 0 16 7.152 16 16s-7.168 16-16 16zM992 624h-352c-8.832 0-16-7.152-16-16s7.168-16 16-16h352c8.832 0 16 7.152 16 16s-7.168 16-16 16zM992 432h-192c-8.832 0-16-7.152-16-16s7.168-16 16-16h192c8.832 0 16 7.152 16 16s-7.168 16-16 16zM992 240h-192c-8.832 0-16-7.152-16-16s7.168-16 16-16h192c8.832 0 16 7.152 16 16s-7.168 16-16 16zM520.528 433.536c-68.416 20.208-135.888 30.464-200.528 30.464-65.84 0-133.408-10.128-200.816-30.096-61.712-18.256-103.184-73.792-103.184-138.176v-151.728c0-8.848 7.168-16 16-16h576c8.832 0 16 7.152 16 16v151.28c0 64.384-41.584 119.952-103.472 138.256zM320 528c99.12 0 176 111.808 176 208 0 97.040-78.96 176-176 176s-176-78.96-176-176c0-96.192 76.88-208 176-208z" />
<glyph unicode="&#xefff;" glyph-name="contacts-44-line" d="M280.42 905.668c-11.872-3.192-30.3-10.544-40.952-16.344-23.472-12.772-63.172-53.22-75-76.412-31.772-62.276-24.512-143.080 18.816-209.404 23.064-35.308 52.932-63.136 83.948-78.216 19.988-9.716 27.408-11.068 60.768-11.068 33.444 0 40.756 1.34 60.992 11.176 64.996 31.588 115.56 110.388 121.632 189.552 2.632 34.348-4 68.38-19.092 97.96-11.804 23.144-51.512 63.628-74.88 76.348-40.196 21.876-92.484 28.176-136.232 16.408M374.748 855.376c29.308-10.964 61.504-40.932 76.212-70.94 9.372-19.116 11-27.464 11.008-56.436 0.016-56.54-24.4-106.956-68.592-141.64-56.888-44.652-124.192-27.784-169.624 42.508-22.352 34.584-29.728 59.192-29.72 99.132 0.008 28.828 1.656 37.348 10.812 56 31.992 65.176 104.764 95.748 169.904 71.376M632 808c-4.4-4.4-8-11.6-8-16s3.6-11.6 8-16c7.768-7.768 13.332-8 192-8s184.232 0.232 192 8c4.4 4.4 8 11.6 8 16s-3.6 11.6-8 16c-7.768 7.768-13.332 8-192 8s-184.232-0.232-192-8M632 616c-4.4-4.4-8-11.6-8-16s3.6-11.6 8-16c7.768-7.768 13.332-8 192-8s184.232 0.232 192 8c4.4 4.4 8 11.6 8 16s-3.6 11.6-8 16c-7.768 7.768-13.332 8-192 8s-184.232-0.232-192-8M242 457.792c-102.4-13.788-152.804-32.232-185.336-67.828-35.036-38.332-38.284-51.76-39.84-164.708-1.288-93.332-1.044-97.036 6.92-105 8.192-8.192 10.536-8.256 304.256-8.256 290.668 0 296.144 0.144 304 8 7.524 7.524 8 13.332 8 97.272 0 98.788-3.052 117.524-24.7 151.616-24.26 38.216-56.104 57.596-120.28 73.2-87.408 21.26-172.52 26.54-253.020 15.704M792 424c-4.4-4.4-8-11.6-8-16s3.6-11.6 8-16c7.588-7.588 13.332-8 112-8s104.412 0.412 112 8c4.4 4.4 8 11.6 8 16s-3.6 11.6-8 16c-7.588 7.588-13.332 8-112 8s-104.412-0.412-112-8M444.508 404.344c86.572-17.34 112.632-30.444 134.496-67.64 10.84-18.44 11.016-19.816 12.296-97.704l1.3-79h-529.2l1.3 79c1.092 66.344 2.432 81.072 8.376 91.948 11.008 20.144 30.764 40.824 46.544 48.716 18.324 9.164 79.908 24.22 126.376 30.896 48.576 6.98 148.196 3.86 198.512-6.216M792 232c-4.4-4.4-8-11.6-8-16s3.6-11.6 8-16c7.588-7.588 13.332-8 112-8s104.412 0.412 112 8c4.4 4.4 8 11.6 8 16s-3.6 11.6-8 16c-7.588 7.588-13.332 8-112 8s-104.412-0.412-112-8" />
<glyph unicode="&#xf000;" glyph-name="contacts-45" d="M224 240h-192c-8.832 0-16-7.152-16-16s7.168-16 16-16h192c8.832 0 16 7.152 16 16s-7.168 16-16 16zM32 784h352c8.832 0 16 7.152 16 16s-7.168 16-16 16h-352c-8.832 0-16-7.152-16-16s7.168-16 16-16zM384 624h-352c-8.832 0-16-7.152-16-16s7.168-16 16-16h352c8.832 0 16 7.152 16 16s-7.168 16-16 16zM224 432h-192c-8.832 0-16-7.152-16-16s7.168-16 16-16h192c8.832 0 16 7.152 16 16s-7.168 16-16 16zM904.816 433.904c-67.408 19.968-134.976 30.096-200.816 30.096-64.64 0-132.112-10.256-200.544-30.464-61.872-18.304-103.456-73.872-103.456-138.256v-151.28c0-8.848 7.168-16 16-16h576c8.832 0 16 7.152 16 16v151.728c0 64.384-41.472 119.92-103.184 138.176zM704 528c99.12 0 176 111.808 176 208 0 97.040-78.96 176-176 176s-176-78.96-176-176c0-96.192 76.88-208 176-208z" />
<glyph unicode="&#xf001;" glyph-name="contacts-45-line" d="M664.42 905.668c-11.872-3.192-30.3-10.544-40.952-16.344-23.472-12.772-63.172-53.22-75-76.412-31.772-62.276-24.512-143.080 18.816-209.404 23.064-35.308 52.932-63.136 83.948-78.216 19.988-9.716 27.408-11.068 60.768-11.068 33.444 0 40.756 1.34 60.992 11.176 64.996 31.588 115.56 110.388 121.632 189.552 2.632 34.348-4 68.38-19.092 97.96-11.804 23.144-51.512 63.628-74.88 76.348-40.196 21.876-92.484 28.176-136.232 16.408M758.748 855.376c29.308-10.964 61.504-40.932 76.212-70.94 9.372-19.116 11-27.464 11.008-56.436 0.016-56.54-24.4-106.956-68.592-141.64-56.888-44.652-124.192-27.784-169.624 42.508-22.352 34.584-29.728 59.192-29.72 99.132 0.008 28.828 1.656 37.348 10.812 56 31.992 65.176 104.764 95.748 169.904 71.376M24 808c-4.4-4.4-8-11.6-8-16s3.6-11.6 8-16c7.768-7.768 13.332-8 192-8s184.232 0.232 192 8c4.4 4.4 8 11.6 8 16s-3.6 11.6-8 16c-7.768 7.768-13.332 8-192 8s-184.232-0.232-192-8M24 616c-4.4-4.4-8-11.6-8-16s3.6-11.6 8-16c7.768-7.768 13.332-8 192-8s184.232 0.232 192 8c4.4 4.4 8 11.6 8 16s-3.6 11.6-8 16c-7.768 7.768-13.332 8-192 8s-184.232-0.232-192-8M627.628 457.94c-49.452-6.752-118.22-23.356-140.924-34.028-37.936-17.832-68.096-53.732-80.352-95.64-4.964-16.98-6.352-41.224-6.352-111 0-83.94 0.476-89.748 8-97.272 7.856-7.856 13.332-8 304-8 293.72 0 296.064 0.064 304.256 8.256 7.964 7.964 8.208 11.668 6.92 105-1.24 89.904-1.984 98.368-10.536 119.732-12.712 31.748-43.104 64.004-74.020 78.556-68.228 32.124-211.524 47.972-310.992 34.396M24 424c-4.4-4.4-8-11.6-8-16s3.6-11.6 8-16c7.588-7.588 13.332-8 112-8s104.412 0.412 112 8c10.184 10.184 10.184 21.816 0 32-7.588 7.588-13.332 8-112 8s-104.412-0.412-112-8M818 406.572c81.704-15.096 109.060-25.336 129.304-48.392 25.74-29.316 26.576-32.868 27.996-119.18l1.3-79h-529.2l1.3 79c1.28 77.888 1.456 79.264 12.296 97.704 21.224 36.108 46.56 49.456 124.46 65.564 17.18 3.552 43.228 7.984 57.888 9.844 37.068 4.704 136.232 1.56 174.656-5.54M24 232c-4.4-4.4-8-11.6-8-16s3.6-11.6 8-16c7.588-7.588 13.332-8 112-8s104.412 0.412 112 8c10.184 10.184 10.184 21.816 0 32-7.588 7.588-13.332 8-112 8s-104.412-0.412-112-8" />
<glyph unicode="&#xf002;" glyph-name="couple-gay" d="M992 992h-192v-64h114.752l-127.2-127.2c-49.296 39.44-111.664 63.2-179.552 63.2-59.296 0-114.464-18.048-160.32-48.896-45.728 30.736-100.56 48.896-159.68 48.896-158.8 0-288-129.2-288-288 0-147.968 112.224-270.128 256-286.112v-148.64l-96 96-45.248-45.248 150.624-150.624c6.256-6.256 14.432-9.376 22.624-9.376s16.368 3.12 22.624 9.376l150.624 150.624-45.248 45.248-96-96v148.64c143.776 15.984 256 138.144 256 286.112 0 63.712-21.040 122.448-56.192 170.192-19.104-9.936-36.336-22.976-51.008-38.48 27.024-37.024 43.2-82.464 43.2-131.712 0-60.8-24.432-115.936-63.872-156.336-39.552 40.384-64.128 95.472-64.128 156.336 0 123.52 100.48 224 224 224s224-100.48 224-224-100.48-224-224-224c-19.264 0-37.856 2.704-55.696 7.296l-38.576-55.12c29.584-10.304 61.216-16.176 94.272-16.176 158.8 0 288 129.2 288 288 0 67.888-23.76 130.256-63.2 179.552l127.2 127.2v-114.752h64v192c0 17.664-14.336 32-32 32zM320 576c0-75.504 29.52-143.984 77.264-195.36-32.368-18.176-69.584-28.64-109.264-28.64-123.52 0-224 100.48-224 224s100.48 224 224 224c39.6 0 76.672-10.56 108.96-28.704-47.6-51.376-76.96-119.888-76.96-195.296z" />
</font>
</defs>
</svg>
