<?xml version="1.0" standalone="no"?>
<!DOCTYPE svg PUBLIC "-//W3C//DTD SVG 1.1//EN" "http://www.w3.org/Graphics/SVG/1.1/DTD/svg11.dtd" >
<svg xmlns="http://www.w3.org/2000/svg">
<metadata>Generated by IcoMoon</metadata>
<defs>
<font id="icomoon" horiz-adv-x="1024">
<font-face units-per-em="1024" ascent="1024" descent="0" />
<missing-glyph horiz-adv-x="1024" />
<glyph unicode="&#x20;" horiz-adv-x="0" d="" />
<glyph unicode="&#xef3a;" glyph-name="brightness-46" d="M128 528h-96c-8.848 0-16-7.168-16-16s7.152-16 16-16h96c8.848 0 16 7.168 16 16s-7.152 16-16 16zM229.152 772.224c3.12-3.12 7.216-4.688 11.312-4.688s8.192 1.568 11.312 4.688c6.256 6.256 6.256 16.368 0 22.624l-67.872 67.888c-6.256 6.256-16.368 6.256-22.624 0s-6.256-16.368 0-22.624l67.872-67.888zM512 880c8.848 0 16 7.168 16 16v96c0 8.832-7.152 16-16 16s-16-7.168-16-16v-96c0-8.832 7.152-16 16-16zM840.096 862.72l-67.872-67.888c-6.256-6.256-6.256-16.368 0-22.624 3.12-3.12 7.216-4.688 11.312-4.688s8.192 1.568 11.312 4.688l67.872 67.888c6.256 6.256 6.256 16.368 0 22.624s-16.384 6.256-22.624 0zM992 528h-96c-8.848 0-16-7.168-16-16s7.152-16 16-16h96c8.848 0 16 7.168 16 16s-7.152 16-16 16zM794.848 251.776c-6.256 6.256-16.368 6.256-22.624 0s-6.256-16.368 0-22.624l67.872-67.888c3.12-3.12 7.216-4.688 11.312-4.688s8.192 1.568 11.312 4.688c6.256 6.256 6.256 16.368 0 22.624l-67.872 67.888zM512 144c-8.848 0-16-7.168-16-16v-96c0-8.832 7.152-16 16-16s16 7.168 16 16v96c0 8.832-7.152 16-16 16zM229.152 251.776l-67.872-67.888c-6.256-6.256-6.256-16.368 0-22.624 3.12-3.12 7.216-4.688 11.312-4.688s8.192 1.568 11.312 4.688l67.872 67.888c6.256 6.256 6.256 16.368 0 22.624s-16.368 6.256-22.624 0zM512 784c-149.984 0-272-122.016-272-272s122.016-272 272-272 272 122.016 272 272-122.016 272-272 272z" />
<glyph unicode="&#xef3b;" glyph-name="brightness-46-line" d="M504 1000c-7.24-7.24-8-13.332-8-64s0.76-56.76 8-64c4.4-4.4 11.6-8 16-8s11.6 3.6 16 8c7.24 7.24 8 13.332 8 64s-0.76 56.76-8 64c-10.184 10.184-21.816 10.184-32 0M170 863.22c-22.92-12.996-18.952-23.348 26.76-69.8 43.224-43.924 54.612-49.584 68.62-34.104 13.404 14.812 8.496 24.392-34.588 67.476-22.668 22.664-43.816 41.152-47 41.088-3.188-0.068-9.392-2.164-13.792-4.66M809.42 827.24c-43.924-43.224-49.584-54.612-34.104-68.62 14.42-13.052 24.116-8.28 65.196 32.084 40.196 39.488 45.812 47.668 41.68 60.688-2.244 7.076-17.72 16.608-26.96 16.608-2.416 0-23.032-18.34-45.812-40.76M461.46 778.288c-58.232-13.284-101.172-38.212-144.624-83.956-32.168-33.864-52.256-67.696-65.508-110.332-7.704-24.772-9.312-38.716-9.244-80 0.092-57.416 8.292-91.332 32.88-136 18.892-34.32 74.716-90.144 109.036-109.036 45.108-24.828 78.672-32.964 136-32.964 41.124 0 55.324 1.656 80 9.328 46.664 14.504 78.080 34.028 116.364 72.308 38.324 38.324 57.864 69.796 72.252 116.364 13.288 42.996 13.288 117.004 0 160-14.388 46.568-33.928 78.040-72.252 116.364-56.54 56.536-108.040 79.188-186.364 81.964-28.744 1.020-52.508-0.38-68.54-4.040M577.66 728.088c17.016-4.352 40.252-12.86 51.64-18.908 31.18-16.56 82.788-69.796 98.080-101.18 31.78-65.212 31.78-142.788 0-208-15.292-31.384-66.9-84.62-98.080-101.18-27.948-14.84-76.764-26.82-109.3-26.82-32.72 0-81.572 12.040-109.18 26.912-26.136 14.076-70.44 55.564-87.152 81.604-42.384 66.048-46.608 155.828-10.744 228.316 15.148 30.624 67.364 84.196 97.84 100.38 48.516 25.768 111.908 32.94 166.896 18.876M24 520c-4.4-4.4-8-11.6-8-16s3.6-11.6 8-16c7.24-7.24 13.332-8 64-8s56.76 0.76 64 8c4.4 4.4 8 11.6 8 16s-3.6 11.6-8 16c-7.24 7.24-13.332 8-64 8s-56.76-0.76-64-8M888 520c-4.4-4.4-8-11.6-8-16s3.6-11.6 8-16c7.24-7.24 13.332-8 64-8s56.76 0.76 64 8c4.4 4.4 8 11.6 8 16s-3.6 11.6-8 16c-7.24 7.24-13.332 8-64 8s-56.76-0.76-64-8M197.208 214.792c-43.516-43.52-47.82-52.18-33.208-66.792s23.272-10.308 66.792 33.208c43.524 43.524 48.984 54.512 33.892 68.172-14.812 13.404-24.392 8.496-67.476-34.588M774.62 248.684c-13.78-15.228-8.728-25.092 34.8-67.924 43.6-42.908 52.2-47.14 66.58-32.76 14.612 14.612 10.308 23.272-33.208 66.792-43.524 43.524-54.512 48.984-68.172 33.892M504 136c-7.24-7.24-8-13.332-8-64s0.76-56.76 8-64c4.4-4.4 11.6-8 16-8s11.6 3.6 16 8c7.24 7.24 8 13.332 8 64s-0.76 56.76-8 64c-4.4 4.4-11.6 8-16 8s-11.6-3.6-16-8" />
<glyph unicode="&#xef3c;" glyph-name="celsius" d="M673.184 796.688c-90.368 0-161.712-30.096-214.032-90.288s-78.464-142.592-78.464-247.216c0-107.632 25.216-190.784 75.664-249.472s122.336-88.032 215.712-88.032c57.376 0 122.816 10.32 196.32 30.944v-83.808c-56.992-21.376-127.312-32.064-210.944-32.064-121.12 0-214.592 36.752-280.4 110.256s-98.72 177.936-98.72 313.312c0 84.752 15.84 159.008 47.536 222.752s77.44 112.88 137.248 147.376 130.224 51.744 211.216 51.744c86.256 0 161.632-15.744 226.128-47.248l-40.496-82.128c-62.272 29.248-124.512 43.872-186.768 43.872zM192.016 768c-61.744 0-112 50.256-112 112s50.256 112 112 112 112-50.256 112-112-50.256-112-112-112zM192.016 960c-44.112 0-80-35.888-80-80s35.888-80 80-80 80 35.888 80 80-35.888 80-80 80z" />
<glyph unicode="&#xef3d;" glyph-name="celsius-line" d="M151.168 986.628c-49.808-14.032-87.168-63.116-87.168-114.52 0-63.276 56.78-120.108 120-120.108 63.168 0 120 56.832 120 120 0 43.192-30.848 91.092-69.748 108.3-23.116 10.224-59.436 12.992-83.084 6.328M216.12 935c52.492-26.516 52.492-99.484 0-126-22.576-11.404-41.664-11.404-64.24 0-52.492 26.516-52.492 99.484 0 126 9.8 4.952 24.252 9 32.12 9s22.32-4.048 32.12-9M596 825.876c-71.42-12.86-131.052-40.188-189.592-86.884-64.5-51.448-114.852-129.684-137.088-212.992-9.388-35.176-10.676-47.476-10.676-102 0-54.024 1.324-66.948 10.312-100.476 57.756-215.424 265.416-343.304 483.12-297.508 33.308 7.008 85.972 26.784 104.548 39.26 15.756 10.58 19.648 27.372 9.056 39.076-9.404 10.392-17.94 9.648-44.796-3.892-49.528-24.976-129.364-39.984-186.704-35.092-67.348 5.744-141.156 35.216-194.372 77.612-56.592 45.088-104.796 119.156-124.32 191.020-12.788 47.064-12.888 130.732-0.212 178 27.688 103.264 96.372 187.912 189.78 233.892 57.32 28.216 89.812 35.436 158.944 35.324 67.172-0.112 98.752-6.844 156.16-33.288 38.696-17.828 53.3-17.436 58.068 1.556 3.756 14.964-4.344 25.452-29.38 38.056-74.872 37.688-173.444 52.636-252.848 38.336" />
<glyph unicode="&#xef3e;" glyph-name="cloud-25" d="M844.8 558.4c-22.4 166.4-163.2 289.6-332.8 289.6-145.6 0-272-91.2-318.4-228.8-104-22.4-177.6-112-177.6-219.2 0-116.8 91.2-214.4 208-224h608c0 0 1.6 0 1.6 0 97.6 9.6 174.4 92.8 174.4 192 0 94.4-70.4 176-163.2 190.4z" />
<glyph unicode="&#xef3f;" glyph-name="cloud-25-line" d="M458 842.064c-106.584-19.84-198.896-90.052-245.4-186.644l-18.572-38.58-21.304-6.716c-33.416-10.532-65.144-31.348-93.044-61.036-31.032-33.020-45.28-58.42-55.768-99.428-10.044-39.272-10.044-76.048 0-115.32 11.256-44 25.304-67.684 62.524-105.384 36.284-36.752 71.64-56.56 115.3-64.588 33.136-6.096 633.812-6.048 663.068 0.052 68.288 14.24 127.98 68.948 150.124 137.58 14.384 44.584 9.060 106.608-12.864 149.872-16.492 32.548-53.816 69.108-87.088 85.304-15.936 7.76-34.724 15.288-41.748 16.732-11.784 2.424-13.136 4.388-17.468 25.36-21.044 101.908-106.448 203.504-204.6 243.388-56.664 23.024-132.704 30.664-193.16 19.408M579.168 793.68c62.836-12.884 115.324-42.896 159.344-91.116 40.416-44.272 63.876-92.428 73.124-150.1 5.004-31.224 11.412-38.844 35.604-42.336 70.612-10.192 128.684-77.048 128.668-148.128-0.004-22.304-7.38-53.66-17-72.252-12.716-24.572-42.844-53.216-70.088-66.624l-26.656-13.124h-660.584l-29.788 14.808c-64.832 32.22-100.828 85.368-106.468 157.192-3.688 46.992 11.132 91.3 42.412 126.78 26.844 30.448 46.548 43.552 85.384 56.776 40.064 13.644 36.676 10.128 60.212 62.444 17.896 39.78 44.264 74.516 77.484 102.064 31.276 25.944 89.148 55.348 121.184 61.58 12.1 2.352 25.6 4.988 30 5.852 19.764 3.892 69 1.956 97.168-3.816" />
<glyph unicode="&#xef40;" glyph-name="cloud-26" d="M640 880c-161.6 0-304-105.6-350.4-257.6-11.2 1.6-22.4 1.6-33.6 1.6-132.8 0-240-107.2-240-240s107.2-240 240-240h416c3.2 0 6.4 1.6 8 1.6 187.2 20.8 328 177.6 328 366.4 0 203.2-164.8 368-368 368z" />
<glyph unicode="&#xef41;" glyph-name="cloud-26-line" d="M581.368 874.364c-80.236-15.352-146.144-51.228-203.792-110.928-32.948-34.124-53.896-65.264-72.264-107.436l-13.068-30-37.376-2.5c-71.456-4.776-118.148-25.796-166.888-75.12-75.856-76.764-93.46-187.624-45.16-284.38 20.812-41.688 67.84-88.456 109.796-109.188 54.368-26.864 60.124-27.328 320.988-25.888l232.396 1.28 38.256 10.48c71.112 19.476 127.064 53.844 180.416 110.82 62.448 66.692 93.216 141.024 97.9 236.496 7.204 146.904-73.396 284.86-204.52 350.056-24.228 12.048-58.452 25.604-76.052 30.128-41.676 10.712-121 13.764-160.632 6.18M718.88 824.284c80.284-16.568 155.564-69.076 205.108-143.068 53.628-80.088 66.252-187.048 33.628-284.964-27.96-83.928-104.928-164.648-187.596-196.748-56.204-21.824-78.524-23.504-312.348-23.504-140.252 0-220.536 1.512-234.476 4.42-71.184 14.844-133.748 73.864-151.864 143.256-19.108 73.2 2.376 147.144 57.684 198.544 42.288 39.296 94.312 56.78 155.28 52.184 40.116-3.024 42.448-1.568 53.744 33.596 30.148 93.852 109.696 174.484 203.056 205.824 58.176 19.528 117.052 22.992 177.784 10.46" />
<glyph unicode="&#xef42;" glyph-name="cloud-download-95" d="M844.8 558.4c-22.4 166.4-163.2 289.6-332.8 289.6-145.6 0-272-91.2-318.4-228.8-104-22.4-177.6-112-177.6-219.2 0-116.8 91.2-214.4 208-224h608c0 0 1.6 0 1.6 0 97.6 9.6 174.4 92.8 174.4 192 0 94.4-70.4 176-163.2 190.4zM683.2 420.8l-160-160c-1.6-1.6-3.2-3.2-4.8-3.2-1.6-1.6-4.8-1.6-6.4-1.6s-4.8 0-6.4 1.6c-1.6 1.6-3.2 1.6-4.8 3.2l-160 160c-6.4 6.4-6.4 16 0 22.4s16 6.4 22.4 0l132.8-132.8v313.6c0 9.6 6.4 16 16 16s16-6.4 16-16v-313.6l132.8 132.8c6.4 6.4 16 6.4 22.4 0s6.4-16 0-22.4z" />
<glyph unicode="&#xef43;" glyph-name="cloud-download-95-line" d="M458 842.064c-106.584-19.84-198.896-90.052-245.4-186.644l-18.572-38.58-21.304-6.716c-33.416-10.532-65.144-31.348-93.044-61.036-31.032-33.020-45.28-58.42-55.768-99.428-10.044-39.272-10.044-76.048 0-115.32 11.256-44 25.304-67.684 62.524-105.384 25.664-25.992 38.904-35.94 62.092-46.632 41.468-19.124 65.008-22.324 164.208-22.324 81.932 0 87.752 0.488 95.264 8 9.416 9.416 10.192 19.472 2.332 30.236-5.284 7.236-12.584 7.9-107.216 9.764l-101.548 2-29.784 14.808c-64.828 32.224-100.82 85.372-106.46 157.192-3.688 46.992 11.132 91.3 42.412 126.78 26.844 30.448 46.548 43.552 85.384 56.776 40.064 13.644 36.676 10.128 60.212 62.444 27.344 60.776 75.108 109.84 136.668 140.376 40.944 20.312 66.792 27.164 114.080 30.244 89.172 5.8 172.68-28.416 234.432-96.056 40.416-44.272 63.876-92.428 73.124-150.1 5.004-31.224 11.412-38.844 35.604-42.336 70.612-10.192 128.684-77.048 128.668-148.128-0.004-22.304-7.38-53.66-17-72.252-12.704-24.552-42.844-53.216-70.064-66.624l-26.636-13.124-113.436-2c-106.408-1.876-113.784-2.48-119.104-9.764-7.86-10.764-7.084-20.82 2.332-30.236 7.58-7.58 13.332-8 109.804-8 58.868 0 110.74 1.864 123 4.42 68.288 14.24 127.98 68.948 150.124 137.58 14.384 44.584 9.060 106.608-12.864 149.872-16.492 32.548-53.816 69.108-87.088 85.304-15.936 7.76-34.724 15.288-41.748 16.732-11.784 2.424-13.136 4.388-17.468 25.36-21.044 101.908-106.448 203.504-204.6 243.388-56.664 23.024-132.704 30.664-193.16 19.408M504 616c-7.716-7.716-8-13.332-8-158.836v-150.84l-63.284 62.84c-66.244 65.78-73.368 70.184-88.716 54.836-15.924-15.924-11.912-21.66 78.88-112.792 68.020-68.276 89.104-87.208 97.12-87.208s29.1 18.932 97.12 87.208c90.792 91.132 94.804 96.868 78.88 112.792-15.348 15.348-22.472 10.944-88.716-54.836l-63.284-62.84v150.84c0 145.504-0.284 151.12-8 158.836-4.4 4.4-11.6 8-16 8s-11.6-3.6-16-8" />
<glyph unicode="&#xef44;" glyph-name="cloud-drop" d="M846.4 686.4c-22.4 166.4-164.8 289.6-334.4 289.6-144 0-272-91.2-320-228.8-100.8-22.4-176-115.2-176-219.2 0-116.8 89.6-212.8 208-224h171.2c17.6 28.8 38.4 62.4 65.6 99.2 12.8 16 30.4 25.6 51.2 25.6s38.4-9.6 51.2-25.6c27.2-36.8 49.6-68.8 65.6-99.2h203.2c0 0 1.6 0 1.6 0 99.2 11.2 174.4 92.8 174.4 192 0 94.4-68.8 174.4-161.6 190.4zM384 185.6c0 52.8 65.6 147.2 102.4 196.8 12.8 17.6 38.4 17.6 51.2 0 36.8-49.6 102.4-144 102.4-196.8 0-78.4-65.6-121.6-128-121.6s-128 44.8-128 121.6z" />
<glyph unicode="&#xef45;" glyph-name="cloud-drop-line" d="M458 970.064c-73.276-13.64-140-50.592-191.18-105.872-23.964-25.884-53.516-71.568-65.124-100.688-6.88-17.256-8.888-18.944-29.972-25.26-70.984-21.264-138.696-101.012-151.816-178.796-6.272-37.168-2.932-82.032 8.768-117.84 17.316-52.988 64.532-108.812 112.156-132.596 31.944-15.956 61.316-21.012 122.008-21.012 51.828 0 57.908 0.748 65.16 8 9.416 9.416 10.192 19.472 2.332 30.236-5.076 6.952-12.492 8.008-71 10.104-49.888 1.784-69.588 4.064-83.332 9.644-75.58 30.676-123.052 119.052-108.752 202.448 12.012 70.056 71.968 135.604 136.752 149.508 22.872 4.912 26.124 8.236 39.708 40.592 31.572 75.22 81.76 127.784 154.292 161.604 45.772 21.344 68.336 25.916 126 25.524 40.976-0.28 55.784-2.104 82.052-10.124 45.148-13.784 82.124-35.796 118.488-70.54 49.616-47.404 78.584-100.944 88.248-163.116 5.456-35.084 8.64-38.476 42.84-45.576 30.032-6.232 57.968-22.456 79.052-45.904 20.948-23.3 28.604-37.036 35.896-64.4 16.168-60.668-6.6-128.708-54.964-164.264-27.788-20.432-54.684-25.736-130.452-25.736-59.828 0-65.816-0.656-73.16-8-4.4-4.4-8-11.6-8-16s3.6-11.6 8-16c7.404-7.404 13.3-7.996 79-7.952 74.784 0.048 98.732 3.708 129.604 19.8 59.52 31.020 95.488 89.132 101.876 164.584 7.732 91.344-50.408 178.332-137.66 205.968l-23.608 7.476-4.924 24.060c-6.192 30.24-21.356 68.56-39.516 99.864-19.412 33.468-83.688 96.768-119.948 118.132-70.764 41.692-158.276 57.128-238.824 42.132M509.324 429.46c-6.916-2.824-48.456-57.684-78.948-104.26-63.032-96.276-75.46-152.728-46.556-211.44 14.9-30.264 36.544-50.556 71.688-67.208 23.912-11.328 30.192-12.552 64.492-12.552s40.58 1.224 64.492 12.552c35.144 16.652 56.788 36.944 71.688 67.208 14.56 29.576 18.716 60.976 12.012 90.772-7.2 32.012-40.312 95.496-77.352 148.304-51.396 73.272-63.004 84.184-81.516 76.624M546.388 332.924c55.876-80.028 80.108-132.672 76.248-165.652-4.56-38.94-30.804-70.18-68.364-81.388-82.6-24.644-155.676 40.532-132.876 118.508 3.476 11.884 15.54 37.652 26.808 57.264 20.772 36.144 68.132 106.196 71.796 106.196 1.1 0 12.972-15.72 26.388-34.928" />
<glyph unicode="&#xef46;" glyph-name="cloud-fog-31" d="M32 496h960c4.8 0 8 1.6 11.2 4.8s4.8 8 4.8 12.8c-8 86.4-75.2 158.4-160 172.8-24 166.4-166.4 289.6-336 289.6-144 0-272-91.2-320-228.8-100.8-22.4-176-115.2-176-219.2 0-6.4 0-11.2 0-17.6 1.6-8 8-14.4 16-14.4zM992 384h-960c-9.6 0-16-6.4-16-16s6.4-16 16-16h960c9.6 0 16 6.4 16 16s-6.4 16-16 16zM864 256h-704c-9.6 0-16-6.4-16-16s6.4-16 16-16h704c9.6 0 16 6.4 16 16s-6.4 16-16 16zM736 128h-448c-9.6 0-16-6.4-16-16s6.4-16 16-16h448c9.6 0 16 6.4 16 16s-6.4 16-16 16z" />
<glyph unicode="&#xef47;" glyph-name="cloud-fog-31-line" d="M458 970.064c-73.276-13.64-140-50.592-191.18-105.872-23.964-25.884-53.516-71.568-65.124-100.688-6.88-17.256-8.888-18.944-29.972-25.26-48.74-14.604-101.44-60.952-129.060-113.504-25.524-48.576-35.288-120.116-18.664-136.74 18.516-18.516 40-3.58 40 27.804 0 50.356 19.988 97.028 57.492 134.236 24.368 24.176 55.104 42.020 82.508 47.9 22.872 4.912 26.124 8.236 39.708 40.592 31.572 75.22 81.76 127.784 154.292 161.604 45.772 21.344 68.336 25.916 126 25.524 40.976-0.28 55.784-2.104 82.052-10.124 45.148-13.784 82.124-35.796 118.488-70.54 49.292-47.096 78.284-100.368 87.78-161.292 5.316-34.104 11.308-41.592 36.692-45.86 59.976-10.088 111.844-60.236 123.596-119.492 7.080-35.716 25.292-48.452 43.392-30.352 9.168 9.168 9.408 11.48 4.096 39.504-12.352 65.128-68.412 128.54-131.64 148.904l-27.088 8.728-5.004 24.432c-6.264 30.584-21.364 68.808-39.592 100.232-19.412 33.468-83.688 96.768-119.948 118.132-70.764 41.692-158.276 57.128-238.824 42.132M24 376c-4.4-4.4-8-11.6-8-16s3.6-11.6 8-16c7.912-7.912 13.332-8 496-8s488.088 0.088 496 8c4.4 4.4 8 11.6 8 16s-3.6 11.6-8 16c-7.912 7.912-13.332 8-496 8s-488.088-0.088-496-8M152 248c-4.4-4.4-8-11.6-8-16s3.6-11.6 8-16c7.88-7.88 13.332-8 368-8s360.12 0.12 368 8c4.4 4.4 8 11.6 8 16s-3.6 11.6-8 16c-7.88 7.88-13.332 8-368 8s-360.12-0.12-368-8M280 120c-4.4-4.4-8-11.6-8-16s3.6-11.6 8-16c7.816-7.816 13.332-8 240-8s232.184 0.184 240 8c4.4 4.4 8 11.6 8 16s-3.6 11.6-8 16c-7.816 7.816-13.332 8-240 8s-232.184-0.184-240-8" />
<glyph unicode="&#xef48;" glyph-name="cloud-fog-32" d="M846.448 622.128c-22.512 166.128-164.112 289.872-334.448 289.872-144.496 0-271.664-91.712-319.424-229.248-101.328-21.632-176.576-113.968-176.576-218.752 0-62.688 25.536-119.216 67.376-160h268.624c26.464 0 48-21.536 48-48 0-5.632-1.152-10.976-2.944-16h434.944c0.576 0 1.136 0.032 1.696 0.096 99.376 10.64 174.304 93.152 174.304 191.904 0 94.48-68.592 174.096-161.552 190.128zM352 240h-320c-8.832 0-16 7.168-16 16s7.168 16 16 16h320c8.832 0 16-7.168 16-16s-7.168-16-16-16zM512 144h-320c-8.832 0-16 7.168-16 16s7.168 16 16 16h320c8.832 0 16-7.168 16-16s-7.168-16-16-16z" />
<glyph unicode="&#xef49;" glyph-name="cloud-fog-32-line" d="M458 938.064c-73.276-13.64-140-50.592-191.18-105.872-23.964-25.884-53.516-71.568-65.124-100.688-6.88-17.256-8.888-18.944-29.972-25.26-48.74-14.604-101.44-60.952-129.060-113.504-25.524-48.576-35.288-120.116-18.664-136.74 18.516-18.516 40-3.58 40 27.804 0 50.356 19.988 97.028 57.492 134.236 24.368 24.176 55.104 42.020 82.508 47.9 22.872 4.912 26.124 8.236 39.708 40.592 31.572 75.22 81.76 127.784 154.292 161.604 45.772 21.344 68.336 25.916 126 25.524 40.976-0.28 55.784-2.104 82.052-10.124 45.148-13.784 82.124-35.796 118.488-70.54 49.616-47.404 78.584-100.944 88.248-163.116 5.456-35.084 8.64-38.476 42.84-45.576 30.032-6.232 57.968-22.456 79.052-45.904 20.948-23.3 28.604-37.036 35.896-64.4 9.308-34.928 4.844-76.336-11.668-108.252-12.776-24.696-42.956-53.356-70.236-66.7l-26.672-13.048-177.328-2c-169.68-1.912-177.572-2.336-183-9.764-7.864-10.764-7.088-20.82 2.328-30.236 7.744-7.744 13.332-8 175.16-8 137.080 0 171.448 1.104 191 6.128 71.536 18.384 128.796 73.704 146.508 141.548 19.108 73.2-2.376 147.144-57.684 198.544-22.572 20.976-62.824 43.548-85.88 48.16-10.604 2.12-12.104 4.54-16.696 26.976-6.304 30.78-21.368 68.952-39.636 100.444-19.412 33.468-83.688 96.768-119.948 118.132-70.764 41.692-158.276 57.128-238.824 42.132M184 424c-4.4-4.4-8-11.6-8-16s3.6-11.6 8-16c7.748-7.748 13.332-8 176-8s168.252 0.252 176 8c4.4 4.4 8 11.6 8 16s-3.6 11.6-8 16c-7.748 7.748-13.332 8-176 8s-168.252-0.252-176-8M24 296c-4.4-4.4-8-11.6-8-16s3.6-11.6 8-16c7.748-7.748 13.332-8 176-8s168.252 0.252 176 8c4.4 4.4 8 11.6 8 16s-3.6 11.6-8 16c-7.748 7.748-13.332 8-176 8s-168.252-0.252-176-8M184 168c-4.4-4.4-8-11.6-8-16s3.6-11.6 8-16c7.748-7.748 13.332-8 176-8s168.252 0.252 176 8c4.4 4.4 8 11.6 8 16s-3.6 11.6-8 16c-7.748 7.748-13.332 8-176 8s-168.252-0.252-176-8" />
<glyph unicode="&#xef4a;" glyph-name="cloud-hail" d="M846.448 702.128c-22.512 166.128-164.112 289.872-334.448 289.872-144.496 0-271.664-91.712-319.424-229.248-101.328-21.632-176.576-113.968-176.576-218.752 0-117.28 88.816-213.552 208-224h112v112c0 8.832 7.168 16 16 16s16-7.168 16-16v-112h288v112c0 8.832 7.168 16 16 16s16-7.168 16-16v-112h144c0.576 0 1.136 0.032 1.696 0.096 99.376 10.64 174.304 93.152 174.304 191.904 0 94.48-68.592 174.096-161.552 190.128zM352 80c-8.832 0-16 7.168-16 16v32c0 8.832 7.168 16 16 16s16-7.168 16-16v-32c0-8.832-7.168-16-16-16zM512 16c-8.832 0-16 7.168-16 16v32c0 8.832 7.168 16 16 16s16-7.168 16-16v-32c0-8.832-7.168-16-16-16zM672 80c-8.832 0-16 7.168-16 16v32c0 8.832 7.168 16 16 16s16-7.168 16-16v-32c0-8.832-7.168-16-16-16zM336 320v-112c0-8.832 7.168-16 16-16s16 7.168 16 16v112h-32zM512 256c-8.832 0-16-7.168-16-16v-96c0-8.832 7.168-16 16-16s16 7.168 16 16v96c0 8.832-7.168 16-16 16v0zM656 320v-112c0-8.832 7.168-16 16-16s16 7.168 16 16v112h-32z" />
<glyph unicode="&#xef4b;" glyph-name="cloud-hail-line" d="M458 970.064c-73.276-13.64-140-50.592-191.18-105.872-23.964-25.884-53.516-71.568-65.124-100.688-6.88-17.256-8.888-18.944-29.972-25.26-67.716-20.288-134.208-95.364-149.856-169.216-11.252-53.092-3.276-113.056 21.044-158.208 14.008-26 55.524-70.416 81.264-86.932 23.436-15.040 65.816-30.356 94.368-34.1 17.704-2.324 21.716-1.528 29 5.756 18.964 18.964 7.764 35.1-29.72 42.812-102.828 21.152-169.324 116.156-150.012 214.32 13.376 67.98 73.144 131.732 136.188 145.264 22.872 4.912 26.124 8.236 39.708 40.592 31.572 75.22 81.76 127.784 154.292 161.604 45.772 21.344 68.336 25.916 126 25.524 40.976-0.28 55.784-2.104 82.052-10.124 45.148-13.784 82.124-35.796 118.488-70.54 49.616-47.404 78.584-100.944 88.248-163.116 5.456-35.084 8.64-38.476 42.84-45.576 30.032-6.232 57.968-22.456 79.052-45.904 20.948-23.3 28.604-37.036 35.896-64.4 9.308-34.928 4.844-76.336-11.668-108.252-19.632-37.944-67.952-72.88-110.332-79.764-29.868-4.852-41.436-25.124-24.18-42.38 7.028-7.028 11.284-7.96 26.152-5.732 81.016 12.152 149.872 74.036 167.216 150.292 16.792 73.836-4.28 143.408-58.78 194.056-22.572 20.976-62.824 43.548-85.88 48.16-10.604 2.12-12.104 4.54-16.696 26.976-6.304 30.78-21.368 68.952-39.636 100.444-19.412 33.468-83.688 96.768-119.948 118.132-70.764 41.692-158.276 57.128-238.824 42.132M344 488c-7.516-7.516-8-13.332-8-96s0.484-88.484 8-96c4.4-4.4 11.6-8 16-8s11.6 3.6 16 8c7.516 7.516 8 13.332 8 96s-0.484 88.484-8 96c-4.4 4.4-11.6 8-16 8s-11.6-3.6-16-8M664 488c-7.516-7.516-8-13.332-8-96s0.484-88.484 8-96c4.4-4.4 11.6-8 16-8s11.6 3.6 16 8c7.516 7.516 8 13.332 8 96s-0.484 88.484-8 96c-4.4 4.4-11.6 8-16 8s-11.6-3.6-16-8M504 392c-7.516-7.516-8-13.332-8-96s0.484-88.484 8-96c4.4-4.4 11.6-8 16-8s11.6 3.6 16 8c7.516 7.516 8 13.332 8 96s-0.484 88.484-8 96c-4.4 4.4-11.6 8-16 8s-11.6-3.6-16-8M344 200c-6.224-6.224-8-13.332-8-32 0-26.084 8.348-40 24-40s24 13.916 24 40c0 26.084-8.348 40-24 40-4.4 0-11.6-3.6-16-8M664 200c-6.224-6.224-8-13.332-8-32 0-26.084 8.348-40 24-40s24 13.916 24 40c0 26.084-8.348 40-24 40-4.4 0-11.6-3.6-16-8M504 104c-6.224-6.224-8-13.332-8-32 0-26.084 8.348-40 24-40s24 13.916 24 40c0 26.084-8.348 40-24 40-4.4 0-11.6-3.6-16-8" />
<glyph unicode="&#xef4c;" glyph-name="cloud-light" d="M846.448 686.128c-22.512 166.128-164.112 289.872-334.448 289.872-144.496 0-271.664-91.712-319.424-229.248-101.328-21.632-176.576-113.968-176.576-218.752 0-117.28 88.816-213.552 208-224h108l189.6 252.8c9.024 12.016 23.376 19.2 38.4 19.2 7.696 0 15.392-1.888 22.224-5.456 21.008-11.008 30.8-35.28 23.312-57.728l-42.944-128.816h93.408c18.304 0 34.752-10.16 42.944-26.528 8.176-16.368 6.432-35.632-4.544-50.272l-2.4-3.2h140c0.576 0 1.136 0.032 1.696 0.096 99.376 10.64 174.304 93.152 174.304 191.904 0 94.48-68.592 174.096-161.552 190.128zM670.32 343.152c-2.72 5.424-8.256 8.848-14.32 8.848h-137.808l56.992 170.944c2.48 7.44-0.8 15.6-7.76 19.232-6.928 3.616-15.504 1.712-20.224-4.576l-192-256c-3.648-4.848-4.224-11.328-1.52-16.752s8.256-8.848 14.32-8.848h137.808l-56.992-170.944c-2.48-7.44 0.8-15.6 7.76-19.232 2.352-1.232 4.896-1.824 7.424-1.824 4.896 0 9.696 2.256 12.8 6.4l192 256c3.632 4.848 4.224 11.328 1.52 16.752z" />
<glyph unicode="&#xef4d;" glyph-name="cloud-light-line" d="M458 970.064c-73.276-13.64-140-50.592-191.18-105.872-23.964-25.884-53.516-71.568-65.124-100.688-6.88-17.256-8.888-18.944-29.972-25.26-50.404-15.1-103.516-62.844-131.004-117.764-37.756-75.436-31.208-164.928 17.304-236.448 44.976-66.304 103.424-96.032 188.816-96.032 35.828 0 42.196 1.036 49.16 8 9.416 9.416 10.192 19.472 2.328 30.236-4.892 6.692-12.488 8.104-55 10.236-33.044 1.656-55.272 4.84-67.328 9.644-75.264 29.996-123.056 118.904-108.752 202.316 12.012 70.056 71.968 135.604 136.752 149.508 22.872 4.912 26.124 8.236 39.708 40.592 31.572 75.22 81.76 127.784 154.292 161.604 45.772 21.344 68.336 25.916 126 25.524 40.976-0.28 55.784-2.104 82.052-10.124 45.148-13.784 82.124-35.796 118.488-70.54 49.616-47.404 78.584-100.944 88.248-163.116 5.456-35.084 8.64-38.476 42.84-45.576 30.032-6.232 57.968-22.456 79.052-45.904 20.948-23.3 28.604-37.036 35.896-64.4 16.168-60.668-6.6-128.708-54.964-164.264-25.876-19.024-55.728-25.736-114.452-25.736-43.828 0-50.028-0.868-57.16-8-10.184-10.184-10.184-21.816 0-32 7.228-7.228 13.296-7.996 63-7.952 57.984 0.048 84.62 4.692 113.604 19.8 59.52 31.020 95.488 89.132 101.876 164.584 7.732 91.344-50.408 178.332-137.66 205.968l-23.608 7.476-4.924 24.060c-6.192 30.24-21.356 68.56-39.516 99.864-19.412 33.468-83.688 96.768-119.948 118.132-70.764 41.692-158.276 57.128-238.824 42.132M539.104 523c-9.528-7.416-136.22-199.576-138.192-209.608-1.020-5.188 1.64-11.944 6.696-17 7.948-7.948 12.512-8.392 86.392-8.392 42.9 0 78-0.88 78-1.952 0-1.076-24.3-44.592-54-96.708s-54-98.040-54-102.048c0-9.376 13.88-23.292 23.236-23.292 3.98 0 10.2 2.248 13.824 5 8.872 6.732 138.92 235.132 138.932 244 0.004 3.852-3.592 10.6-7.992 15-7.452 7.452-13.332 8-86.048 8h-78.052l52.784 79c29.032 43.452 53.532 82.872 54.44 87.608 1.94 10.060-11.564 25.392-22.36 25.392-3.98 0-10.128-2.252-13.66-5" />
<glyph unicode="&#xef4e;" glyph-name="cloud-moon" d="M774.4 520c-14.4 0-27.2-3.2-40-4.8-43.2 160-185.6 268.8-352 268.8-203.2 0-366.4-164.8-366.4-368s163.2-368 364.8-368h392c132.8 0 235.2 104 235.2 236.8s-102.4 235.2-233.6 235.2zM755.2 550.4c6.4 0 11.2 1.6 17.6 1.6 67.2 0 126.4-24 172.8-62.4 40 51.2 62.4 115.2 62.4 182.4 0 9.6-6.4 16-16 16-150.4 0-272 121.6-272 272 0 9.6-6.4 16-16 16-115.2 0-217.6-64-270.4-163.2 150.4-19.2 272-118.4 321.6-262.4z" />
<glyph unicode="&#xef4f;" glyph-name="cloud-moon-line" d="M654 970.012c-90.92-17.108-173.476-77.672-215.92-158.4l-13.872-26.388-49.104-2.448c-96.372-4.812-175.116-38.98-243.912-105.844-97.172-94.448-135.6-228.4-103.328-360.204 28.484-116.34 117.488-216.172 232.26-260.512 58.492-22.6 79.708-24.188 323.044-24.204 247.54-0.012 259.172 0.992 310.548 26.836 40.184 20.216 85.432 66.1 104.244 105.72 43.36 91.304 30.392 199.496-32.472 270.876-12.944 14.7-17.724 22.968-15.188 26.284 43.876 57.368 73.7 135.112 73.7 192.104 0 26.148-7.812 32.324-45.156 35.708-89.292 8.092-165.816 58.108-211.832 138.46-14.396 25.132-26.796 68.22-29.772 103.448-3.152 37.28-9.24 44.704-36.24 44.192-10.452-0.2-31.6-2.732-47-5.628M689.58 915c12.584-65.304 24.056-96.316 49.192-133 19.248-28.088 50.764-60.864 79.112-82.264 35.856-27.068 106.42-55.608 137.956-55.796 18.92-0.116 20.36-3.592 14.080-34.072-6-29.12-34.82-91.372-51.712-111.7l-9.832-11.828-15.188 7.32c-38.048 18.336-59.052 23.352-103.064 24.612l-43.88 1.256-6.544 19.236c-31.648 93.052-112.952 178.496-205.624 216.092-17.64 7.156-37.928 14.144-45.076 15.524s-13 4.34-13 6.58c0 10.388 27.252 49.848 50.448 73.044 38.76 38.76 107.872 73.624 146.476 73.892 12.336 0.088 15.224-1.456 16.656-8.896M448.648 730.344c121.964-23.508 215.468-107.296 251.264-225.148 12.12-39.9 16.924-43.452 50.276-37.16 100.348 18.932 196.252-45.064 220.284-147 11.552-48.988 1.46-111.852-24.572-153.036-24.684-39.060-79.472-75.388-126.928-84.16-14.78-2.732-104.3-3.736-255.852-2.872-229.292 1.304-233.612 1.476-263.012 10.44-140.028 42.696-236.508 172.972-235.94 318.592 0.384 97.944 39.976 181.484 118.692 250.428 69.472 60.852 172.372 87.92 265.788 69.916" />
<glyph unicode="&#xef50;" glyph-name="cloud-rain" d="M846.448 686.128c-22.512 166.128-164.112 289.872-334.448 289.872-144.48 0-271.664-91.712-319.424-229.248-101.328-21.632-176.576-113.968-176.576-218.752 0-117.28 88.816-213.552 208-224h112v144c0 8.832 7.152 16 16 16s16-7.168 16-16v-144h288v144c0 8.832 7.152 16 16 16s16-7.168 16-16v-144h144c0.56 0 1.136 0.032 1.696 0.096 99.36 10.64 174.304 93.152 174.304 191.904 0 94.48-68.592 174.096-161.552 190.128zM336 304v-144c0-8.832 7.152-16 16-16s16 7.168 16 16v144h-32zM656 304v-144c0-8.832 7.152-16 16-16s16 7.168 16 16v144h-32zM512 224c-8.832 0-16-7.168-16-16v-176c0-8.832 7.152-16 16-16s16 7.168 16 16v176c0 8.832-7.168 16-16 16v0z" />
<glyph unicode="&#xef51;" glyph-name="cloud-rain-line" d="M458 970.064c-73.276-13.64-140-50.592-191.18-105.872-23.964-25.884-53.516-71.568-65.124-100.688-6.88-17.256-8.888-18.944-29.972-25.26-67.716-20.288-134.208-95.364-149.856-169.216-11.252-53.092-3.276-113.056 21.044-158.208 14.008-26 55.524-70.416 81.264-86.932 23.436-15.040 65.816-30.356 94.368-34.1 17.704-2.324 21.716-1.528 29 5.756 18.964 18.964 7.764 35.1-29.72 42.812-102.828 21.152-169.324 116.156-150.012 214.32 13.376 67.98 73.144 131.732 136.188 145.264 22.872 4.912 26.124 8.236 39.708 40.592 31.572 75.22 81.76 127.784 154.292 161.604 45.772 21.344 68.336 25.916 126 25.524 40.976-0.28 55.784-2.104 82.052-10.124 45.148-13.784 82.124-35.796 118.488-70.54 49.616-47.404 78.584-100.944 88.248-163.116 5.456-35.084 8.64-38.476 42.84-45.576 30.032-6.232 57.968-22.456 79.052-45.904 20.948-23.3 28.604-37.036 35.896-64.4 9.308-34.928 4.844-76.336-11.668-108.252-19.632-37.944-67.952-72.88-110.332-79.764-29.868-4.852-41.436-25.124-24.18-42.38 7.028-7.028 11.284-7.96 26.152-5.732 81.016 12.152 149.872 74.036 167.216 150.292 16.792 73.836-4.28 143.408-58.78 194.056-22.572 20.976-62.824 43.548-85.88 48.16-10.604 2.12-12.104 4.54-16.696 26.976-6.304 30.78-21.368 68.952-39.636 100.444-19.412 33.468-83.688 96.768-119.948 118.132-70.764 41.692-158.276 57.128-238.824 42.132M344 456c-7.72-7.72-8-13.332-8-160s0.28-152.28 8-160c4.4-4.4 11.6-8 16-8s11.6 3.6 16 8c7.72 7.72 8 13.332 8 160s-0.28 152.28-8 160c-4.4 4.4-11.6 8-16 8s-11.6-3.6-16-8M664 456c-7.72-7.72-8-13.332-8-160s0.28-152.28 8-160c4.4-4.4 11.6-8 16-8s11.6 3.6 16 8c7.72 7.72 8 13.332 8 160s-0.28 152.28-8 160c-4.4 4.4-11.6 8-16 8s-11.6-3.6-16-8M504 360c-7.72-7.72-8-13.332-8-160s0.28-152.28 8-160c4.4-4.4 11.6-8 16-8s11.6 3.6 16 8c7.72 7.72 8 13.332 8 160s-0.28 152.28-8 160c-4.4 4.4-11.6 8-16 8s-11.6-3.6-16-8" />
<glyph unicode="&#xef52;" d="M928 896c5.36 0 10.688-0.208 16-0.4v96.4h-16c-199.712 0-372.976-115.024-457.328-282.224 29.888-12.16 57.888-28.336 83.264-47.92 67.6 138.48 209.856 234.144 374.064 234.144z" />
<glyph unicode="&#xef53;" d="M680.672 544.944c29.632 11.296 61.040 17.344 93.136 17.344 5.616 0 11.12-0.48 16.656-0.832 27.872 46.96 78.96 78.544 137.536 78.544 5.408 0 10.736-0.288 16-0.8v96c-5.312 0.32-10.592 0.8-16 0.8-118.688 0-218.464-81.296-247.328-191.056z" />
<glyph unicode="&#xef54;" d="M579.232 640.384c27.808-25.984 51.216-56.768 69.552-91.072 31.152 125.376 144.352 218.688 279.216 218.688 5.408 0 10.672-0.512 16-0.816v96.4c-5.312 0.224-10.64 0.416-16 0.416-154.496 0-287.888-91.776-348.768-223.616z" />
<glyph unicode="&#xef55;" d="M773.808 530.288c-47.824 0-93.264-14.48-132.72-42.096-44.256 128.176-165.888 215.808-303.632 215.808-177.248 0-321.456-143.552-321.456-320s144.208-320 321.456-320h436.352c129.136 0 234.192 104.592 234.192 233.136 0 128.56-105.056 233.152-234.192 233.152z" />
<glyph unicode="&#xef56;" glyph-name="cloud-rainbow-line" d="M884 989.896c-3.3-0.648-19.5-3.276-36-5.844-67.332-10.48-139.212-39.132-201.436-80.288-40.88-27.044-102.784-86.684-131.144-126.352-16.9-23.644-52.508-84.964-53.528-92.188-0.064-0.428-13.564 3.040-30 7.7-43.856 12.44-129.188 12.3-173.552-0.284-62.704-17.784-107.732-45.696-155.032-96.104-52.752-56.216-81.28-122.736-86.008-200.536-5.684-93.616 24.792-176.596 89.892-244.736 35.54-37.2 71.652-62.236 114.512-79.4 59.6-23.864 67.28-24.368 350.956-23.056l257.34 1.192 26 9.332c40.148 14.412 67.432 31.788 98.252 62.568 63.004 62.924 85.168 155.448 58.060 242.388-21.364 68.528-87.248 133.348-156.672 154.144-13.004 3.896-23.64 9.116-23.64 11.604 0 9.656 29.224 37.976 49.344 47.82 11.628 5.688 30.768 11.48 42.532 12.876 33.392 3.952 46.168 23.224 27.66 41.732-7.472 7.472-11.276 8.148-32.5 5.744-58.776-6.648-108.304-40.936-134.636-93.208-7.796-15.48-9.912-17-23.64-17-21.268 0-58.804-10.424-85.468-23.736l-22.708-11.332-4.876 11.772c-9.192 22.196 10.54 83.532 42.192 131.144 49.664 74.704 133.844 123.984 223.744 130.976 23.004 1.788 33.648 4.468 39 9.82 9.74 9.74 9.3 21.412-1.204 31.916-7.868 7.868-11.336 8.356-43 6.068-127.476-9.212-243.22-94.272-292.176-214.716l-8.98-22.084-28.64 28.096c-15.756 15.452-38.98 34.928-51.612 43.28l-22.972 15.184 10.42 20.804c31.364 62.656 100.056 140.344 157.52 178.16 71.872 47.3 150.716 73.888 235.644 79.468 40.032 2.628 52.356 8.556 52.356 25.18 0 16.524-13.728 24.040-43 23.536-14.852-0.256-29.7-0.992-33-1.64M430 642.42c45.532-14.536 79.212-35.532 116.076-72.368 25.204-25.184 35.7-39.428 48.984-66.48 9.3-18.932 18.052-40.14 19.448-47.12 3.188-15.932 19.572-29.596 31.12-25.948 4.604 1.456 13.82 6.792 20.476 11.86s24.656 15.16 40 22.428c26.952 12.76 29.592 13.208 78.108 13.208 50.020 0 50.336-0.060 80.748-15.092 54.26-26.824 91.996-72.608 104.876-127.256 25.62-108.696-42.668-214.648-151.836-235.572-16.968-3.252-97.824-4.228-276-3.34l-252 1.26-33.904 11.828c-84.596 29.516-154.588 101.62-180.712 186.172-13.288 42.996-13.288 117.004 0 160 14.404 46.624 33.924 78.040 72.252 116.296 44.9 44.812 84.844 66.624 146.364 79.92 30.068 6.5 100.944 1.396 136-9.796" />
<glyph unicode="&#xef57;" glyph-name="cloud-snow-34" d="M846.448 670.128c-22.512 166.128-164.112 289.872-334.448 289.872-144.496 0-271.664-91.712-319.424-229.248-101.328-21.632-176.576-113.968-176.576-218.752 0-117.28 88.816-213.552 208-224h608c0.576 0 1.136 0.032 1.696 0.096 99.376 10.64 174.304 93.152 174.304 191.904 0 94.48-68.592 174.096-161.552 190.128zM498.688 168.88c-3.552-5.328-34.688-53.072-34.688-88.88 0-26.464 21.536-48 48-48s48 21.536 48 48c0 35.808-31.136 83.552-34.688 88.88-5.936 8.896-20.688 8.896-26.624 0zM307.36 217.824c-3.232-4.16-19.36-25.84-19.36-44.112 0-16.384 14.352-29.712 32-29.712s32 13.328 32 29.712c0 18.272-16.128 39.936-19.36 44.112-6.064 7.792-19.216 7.792-25.28 0zM716.64 217.824c-6.064 7.776-19.2 7.776-25.264 0-3.248-4.16-19.376-25.84-19.376-44.112 0-16.384 14.352-29.712 32-29.712s32 13.328 32 29.712c0 18.272-16.128 39.952-19.36 44.112z" />
<glyph unicode="&#xef58;" glyph-name="cloud-snow-34-line" d="M458 970.064c-73.276-13.64-140-50.592-191.18-105.872-23.964-25.884-53.516-71.568-65.124-100.688-6.88-17.256-8.888-18.944-29.972-25.26-67.716-20.288-134.208-95.364-149.856-169.216-11.252-53.092-3.276-113.056 21.044-158.208 14.008-26 55.524-70.416 81.264-86.932 23.436-15.040 65.816-30.356 94.368-34.1 17.704-2.324 21.716-1.528 29 5.756 18.964 18.964 7.764 35.1-29.72 42.812-102.828 21.152-169.324 116.156-150.012 214.32 13.376 67.98 73.144 131.732 136.188 145.264 22.872 4.912 26.124 8.236 39.708 40.592 31.572 75.22 81.76 127.784 154.292 161.604 45.772 21.344 68.336 25.916 126 25.524 40.976-0.28 55.784-2.104 82.052-10.124 45.148-13.784 82.124-35.796 118.488-70.54 49.616-47.404 78.584-100.944 88.248-163.116 5.456-35.084 8.64-38.476 42.84-45.576 30.032-6.232 57.968-22.456 79.052-45.904 20.948-23.3 28.604-37.036 35.896-64.4 9.308-34.928 4.844-76.336-11.668-108.252-19.632-37.944-67.952-72.88-110.332-79.764-29.868-4.852-41.436-25.124-24.18-42.38 7.028-7.028 11.284-7.96 26.152-5.732 81.016 12.152 149.872 74.036 167.216 150.292 16.792 73.836-4.28 143.408-58.78 194.056-22.572 20.976-62.824 43.548-85.88 48.16-10.604 2.12-12.104 4.54-16.696 26.976-6.304 30.78-21.368 68.952-39.636 100.444-19.412 33.468-83.688 96.768-119.948 118.132-70.764 41.692-158.276 57.128-238.824 42.132M344 360c-6.224-6.224-8-13.332-8-32 0-26.084 8.348-40 24-40s24 13.916 24 40c0 26.084-8.348 40-24 40-4.4 0-11.6-3.6-16-8M664 360c-6.224-6.224-8-13.332-8-32 0-26.084 8.348-40 24-40s24 13.916 24 40c0 26.084-8.348 40-24 40-4.4 0-11.6-3.6-16-8M504 264c-6.224-6.224-8-13.332-8-32 0-26.084 8.348-40 24-40s24 13.916 24 40c0 26.084-8.348 40-24 40-4.4 0-11.6-3.6-16-8M344 200c-6.224-6.224-8-13.332-8-32 0-26.084 8.348-40 24-40s24 13.916 24 40c0 26.084-8.348 40-24 40-4.4 0-11.6-3.6-16-8M664 200c-6.224-6.224-8-13.332-8-32 0-26.084 8.348-40 24-40s24 13.916 24 40c0 26.084-8.348 40-24 40-4.4 0-11.6-3.6-16-8M504 104c-6.224-6.224-8-13.332-8-32 0-26.084 8.348-40 24-40s24 13.916 24 40c0 26.084-8.348 40-24 40-4.4 0-11.6-3.6-16-8" />
<glyph unicode="&#xef59;" glyph-name="cloud-snow-42" d="M846.448 638.128c-22.512 166.128-164.112 289.872-334.448 289.872-144.496 0-271.664-91.712-319.424-229.248-101.328-21.632-176.576-113.968-176.576-218.752 0-117.28 88.816-213.552 208-224h160.624c-1.84 2.32-4.224 4.544-7.472 6.416-22.912 13.232-30.8 42.64-17.584 65.568 8.544 14.832 24.48 24.032 41.584 24.032 8.4 0 16.688-2.24 24-6.432 4.080-2.352 8.416-3.568 12.864-3.568 12.496 0 25.984 9.936 25.984 25.984 0 26.464 21.536 48 48 48s48-21.536 48-48c0-9.168 4.24-15.152 7.792-18.56 4.912-4.72 11.552-7.424 18.192-7.424 4.448 0 8.768 1.2 12.864 3.568 7.248 4.208 15.552 6.432 23.984 6.432 17.088 0 33.024-9.184 41.584-23.984 13.248-22.976 5.344-52.368-17.552-65.6-3.248-1.872-5.632-4.112-7.472-6.432h192.608c0.576 0 1.136 0.032 1.696 0.096 99.376 10.64 174.304 93.152 174.304 191.904 0 94.48-68.592 174.096-161.552 190.128zM630.848 189.856v0c-38.592 22.288-38.592 78 0 100.288v0c7.664 4.416 10.272 14.208 5.856 21.856-4.432 7.648-14.24 10.304-21.856 5.856v0c-38.608-22.288-86.848 5.568-86.848 50.144v0c0 8.832-7.168 16-16 16s-16-7.168-16-16v0c0-44.576-48.24-72.432-86.848-50.144v0c-7.68 4.432-17.44 1.792-21.856-5.856-4.416-7.664-1.792-17.44 5.856-21.856v0c38.592-22.288 38.592-78 0-100.288v0c-7.664-4.416-10.272-14.208-5.856-21.856 2.976-5.136 8.336-8 13.872-8 2.704 0 5.472 0.688 7.984 2.144v0c38.608 22.288 86.848-5.568 86.848-50.144v0c0-8.832 7.168-16 16-16s16 7.168 16 16v0c0 44.576 48.24 72.432 86.848 50.144v0c2.528-1.456 5.28-2.144 7.984-2.144 5.536 0 10.912 2.864 13.872 8 4.416 7.664 1.808 17.44-5.856 21.856z" />
<glyph unicode="&#xef5a;" glyph-name="cloud-snow-42-line" d="M458 938.064c-73.276-13.64-140-50.592-191.18-105.872-23.964-25.884-53.516-71.568-65.124-100.688-6.88-17.256-8.888-18.944-29.972-25.26-50.404-15.1-103.516-62.844-131.004-117.764-37.756-75.436-31.208-164.928 17.304-236.448 43.284-63.812 103.952-96.032 180.816-96.032 27.828 0 34.448 1.288 41.16 8 9.404 9.404 10.192 19.472 2.364 30.176-4.68 6.4-12.648 8.152-47 10.328-24.148 1.532-48.856 5.572-59.364 9.704-75.048 29.524-123.060 118.8-108.752 202.224 12.012 70.056 71.968 135.604 136.752 149.508 22.872 4.912 26.124 8.236 39.708 40.592 31.572 75.22 81.76 127.784 154.292 161.604 45.772 21.344 68.336 25.916 126 25.524 40.976-0.28 55.784-2.104 82.052-10.124 45.148-13.784 82.124-35.796 118.488-70.54 49.616-47.404 78.584-100.944 88.248-163.116 5.456-35.084 8.64-38.476 42.84-45.576 30.032-6.232 57.968-22.456 79.052-45.904 20.948-23.3 28.604-37.036 35.896-64.4 16.168-60.668-6.6-128.708-54.964-164.264-24.632-18.108-56.18-25.736-106.452-25.736-35.828 0-42.196-1.036-49.16-8-4.4-4.4-8-11.6-8-16s3.6-11.6 8-16c7.1-7.1 13.296-7.996 55-7.952 49.636 0.048 77.868 5.344 105.604 19.8 59.52 31.020 95.488 89.132 101.876 164.584 7.732 91.344-50.408 178.332-137.66 205.968l-23.608 7.476-4.924 24.060c-6.192 30.24-21.356 68.56-39.516 99.864-19.412 33.468-83.688 96.768-119.948 118.132-70.764 41.692-158.276 57.128-238.824 42.132M504 392c-7.072-7.072-8-13.332-8-54 0-25.3-1-46-2.224-46-1.22 0-19.044 9.9-39.6 22-45.556 26.808-54.752 27.828-65.576 7.26-8.324-15.812 0.112-25.916 40.944-49.044 21.148-11.98 38.456-22.876 38.456-24.216s-17.308-12.236-38.456-24.216c-34.668-19.636-45.544-29.976-45.544-43.292 0-6.484 16.78-20.492 24.552-20.492 4.532 0 25.064 9.9 45.624 22 20.556 12.1 38.38 22 39.6 22 1.224 0 2.224-20.7 2.224-46 0-40.668 0.928-46.928 8-54 4.4-4.4 11.6-8 16-8s11.6 3.6 16 8c7.072 7.072 8 13.332 8 54 0 25.3 1 46 2.224 46 1.22 0 19.044-9.9 39.6-22 45.556-26.808 54.752-27.828 65.576-7.26 8.324 15.812-0.112 25.916-40.944 49.044-21.148 11.98-38.456 22.876-38.456 24.216s17.308 12.236 38.456 24.216c40.832 23.128 49.268 33.232 40.944 49.044-10.824 20.568-20.020 19.548-65.576-7.26-20.556-12.1-38.38-22-39.6-22-1.224 0-2.224 20.7-2.224 46 0 40.668-0.928 46.928-8 54-4.4 4.4-11.6 8-16 8s-11.6-3.6-16-8" />
<glyph unicode="&#xef5b;" glyph-name="cloud-sun-17" d="M774.4 520c-14.4 0-27.2-3.2-40-4.8-43.2 160-185.6 268.8-352 268.8-203.2 0-366.4-164.8-366.4-368s163.2-368 364.8-368h392c132.8 0 235.2 104 235.2 236.8s-102.4 235.2-233.6 235.2zM755.2 550.4c6.4 0 11.2 1.6 17.6 1.6 67.2 0 126.4-24 172.8-62.4 40 51.2 62.4 115.2 62.4 182.4 0 168-136 304-304 304-115.2 0-217.6-64-270.4-163.2 150.4-19.2 272-118.4 321.6-262.4z" />
<glyph unicode="&#xef5c;" glyph-name="cloud-sun-17-line" d="M654 970.012c-90.92-17.108-173.476-77.672-215.92-158.4l-13.872-26.388-49.104-2.448c-96.372-4.812-175.116-38.98-243.912-105.844-97.172-94.448-135.6-228.4-103.328-360.204 28.484-116.34 117.488-216.172 232.26-260.512 58.492-22.6 79.708-24.188 323.044-24.204 247.54-0.012 259.172 0.992 310.548 26.836 40.184 20.216 85.432 66.1 104.244 105.72 43.36 91.304 30.392 199.496-32.472 270.876-12.944 14.7-17.724 22.968-15.188 26.284 52.388 68.5 77.040 143.532 72.348 220.2-2.92 47.676-9.16 72.388-28.664 113.46-61.86 130.272-199.624 201.032-339.984 174.624M794.312 914.388c75.864-24.188 139.42-87.34 167.28-166.212 10.844-30.688 12.080-39.072 12.128-82.176 0.040-35.312-1.888-54.344-7.288-72-8.42-27.52-34.112-78.424-48.368-95.832l-9.688-11.828-15.188 7.32c-38.048 18.336-59.052 23.352-103.064 24.612l-43.88 1.256-6.544 19.236c-31.648 93.052-112.952 178.496-205.624 216.092-17.64 7.156-37.928 14.144-45.076 15.524s-13 4.34-13 6.58c0 10.388 27.252 49.848 50.448 73.044 36.668 36.668 90.128 65.12 138.76 73.856 35.176 6.316 92.86 2.084 129.104-9.472M448.648 730.344c121.964-23.508 215.468-107.296 251.264-225.148 12.12-39.9 16.924-43.452 50.276-37.16 100.348 18.932 196.252-45.064 220.284-147 11.552-48.988 1.46-111.852-24.572-153.036-24.684-39.060-79.472-75.388-126.928-84.16-14.78-2.732-104.3-3.736-255.852-2.872-229.292 1.304-233.612 1.476-263.012 10.44-140.028 42.696-236.508 172.972-235.94 318.592 0.384 97.944 39.976 181.484 118.692 250.428 69.472 60.852 172.372 87.92 265.788 69.916" />
<glyph unicode="&#xef5d;" glyph-name="cloud-sun-19" d="M773.808 482.288c-47.824 0-93.248-14.48-132.72-42.096-44.256 128.176-165.888 215.808-303.632 215.808-177.248 0-321.456-143.552-321.456-320s144.208-320 321.456-320h436.352c129.136 0 234.192 104.592 234.192 233.136s-105.056 233.152-234.192 233.152zM337.456 688c137.568 0 261.376-79.504 319.2-201.392 36.368 18.192 76.256 27.68 117.152 27.68 22.368 0 43.984-3.072 64.752-8.272 6.032 22.672 9.44 46 9.44 69.984 0 149.984-122.016 272-272 272-108.464 0-204.8-64-248.064-160.24 3.168 0.080 6.32 0.24 9.52 0.24zM576 912c-8.848 0-16 7.168-16 16v64c0 8.832 7.152 16 16 16s16-7.168 16-16v-64c0-8.832-7.152-16-16-16zM824.912 808.896c-4.096 0-8.192 1.568-11.312 4.688-6.256 6.256-6.256 16.368 0 22.624l45.248 45.248c6.256 6.256 16.368 6.256 22.624 0s6.256-16.368 0-22.624l-45.248-45.248c-3.136-3.12-7.232-4.688-11.312-4.688zM327.088 808.896c-4.096 0-8.192 1.568-11.312 4.688l-45.248 45.248c-6.256 6.256-6.256 16.368 0 22.624s16.368 6.256 22.624 0l45.248-45.248c6.256-6.256 6.256-16.368 0-22.624-3.12-3.12-7.216-4.688-11.312-4.688zM992 560v0h-64c-8.848 0-16 7.168-16 16s7.168 16 16 16v0h64c8.848 0 16-7.168 16-16s-7.168-16-16-16z" />
<glyph unicode="&#xef5e;" glyph-name="cloud-sun-19-line" d="M568 1000c-6.932-6.932-8-13.332-8-48s1.068-41.068 8-48c4.4-4.4 11.6-8 16-8s11.6 3.6 16 8c6.932 6.932 8 13.332 8 48s-1.068 41.068-8 48c-10.184 10.184-21.816 10.184-32 0M271.988 877.988c-11.488-13.848-5.948-26.404 25.008-56.664 16.496-16.128 33.004-29.324 36.68-29.324 8.612 0 26.324 17.66 26.324 26.244 0 3.636-12.904 19.916-28.676 36.184-23.912 24.66-30.808 29.572-41.512 29.572-7.056 0-15.076-2.704-17.824-6.012M836.676 854.428c-16.476-16.992-28.676-33.036-28.676-37.712 0-8.82 17.392-24.716 27.044-24.716 3.28 0 19.464 13.196 35.96 29.324 22.496 21.988 29.996 31.988 29.996 39.988 0 14.928-7.804 22.688-22.812 22.688-10.704 0-17.6-4.912-41.512-29.572M533.288 843.868c-30.396-5.46-68.824-20.924-98.408-39.608-46.46-29.344-95.28-87.872-111.272-133.396-3.404-9.7-8.244-15.66-13.46-16.584-48.484-8.596-63.776-12.368-85.948-21.196-45.104-17.96-72.912-36.964-112.2-76.676-60.912-61.568-89.616-124.74-94.7-208.408-5.684-93.616 24.792-176.596 89.892-244.736 35.54-37.2 71.652-62.236 114.512-79.4 59.6-23.864 67.28-24.368 350.956-23.056l257.34 1.192 26 9.332c40.224 14.44 67.488 31.824 98.020 62.512 58.316 58.6 81.388 137.664 64.048 219.496-15.74 74.296-71.632 140.588-143.052 169.672-17.004 6.924-26.292 12.844-25.116 16.008 8.844 23.808 14.936 74.632 12.816 106.904-4.776 72.684-28.924 125.008-82.352 178.44-56.052 56.048-108.22 79.196-184.364 81.792-23.1 0.788-51.32-0.244-62.712-2.288M641.66 792.088c43.932-11.236 67.728-25.328 104.696-61.996 47.456-47.072 69.488-99.072 69.516-164.092 0.012-25.964-9.44-72.252-16.488-80.744-2.74-3.3-13.536-5.256-29.032-5.256-30.056 0-64.852-8.656-94.708-23.56l-22.36-11.16-12.44 26.36c-44.94 95.224-139.108 162.812-253.844 182.188-8.248 1.396-15 4.468-15 6.832 0 2.36 6.656 15.252 14.792 28.64 52.144 85.84 156.528 127.94 254.868 102.788M430 594.42c44.604-14.24 78.92-35.384 114.276-70.42 32.816-32.52 51.56-61.86 66.072-103.416 14.464-41.436 27.636-47.628 55.756-26.22 6.656 5.068 24.656 15.16 40 22.428 26.952 12.76 29.592 13.208 78.108 13.208 50.020 0 50.336-0.060 80.748-15.092 54.26-26.824 91.996-72.608 104.876-127.256 25.62-108.696-42.668-214.648-151.836-235.572-16.968-3.252-97.824-4.228-276-3.34l-252 1.26-33.904 11.828c-84.596 29.516-154.588 101.62-180.712 186.172-13.288 42.996-13.288 117.004 0 160 14.404 46.624 33.924 78.040 72.252 116.296 44.9 44.812 84.844 66.624 146.364 79.92 30.068 6.5 100.944 1.396 136-9.796M920 584c-4.4-4.4-8-11.6-8-16s3.6-11.6 8-16c6.932-6.932 13.332-8 48-8s41.068 1.068 48 8c4.4 4.4 8 11.6 8 16s-3.6 11.6-8 16c-6.932 6.932-13.332 8-48 8s-41.068-1.068-48-8" />
<glyph unicode="&#xef5f;" glyph-name="cloud-upload-96" d="M844.8 558.4c-22.4 166.4-163.2 289.6-332.8 289.6-145.6 0-272-91.2-318.4-228.8-104-22.4-177.6-112-177.6-219.2 0-116.8 91.2-214.4 208-224h608c0 0 1.6 0 1.6 0 97.6 9.6 174.4 92.8 174.4 192 0 94.4-70.4 176-163.2 190.4zM683.2 468.8c-3.2-3.2-6.4-4.8-11.2-4.8s-8 1.6-11.2 4.8l-132.8 132.8v-313.6c0-9.6-6.4-16-16-16s-16 6.4-16 16v313.6l-132.8-132.8c-6.4-6.4-16-6.4-22.4 0s-6.4 16 0 22.4l160 160c1.6 1.6 3.2 3.2 4.8 3.2 3.2 1.6 8 1.6 12.8 0 1.6-1.6 3.2-1.6 4.8-3.2l160-160c6.4-6.4 6.4-16 0-22.4z" />
<glyph unicode="&#xef60;" glyph-name="cloud-upload-96-line" d="M458 842.064c-106.584-19.84-198.896-90.052-245.4-186.644l-18.572-38.58-21.304-6.716c-33.416-10.532-65.144-31.348-93.044-61.036-31.032-33.020-45.28-58.42-55.768-99.428-10.044-39.272-10.044-76.048 0-115.32 11.256-44 25.304-67.684 62.524-105.384 25.664-25.992 38.904-35.94 62.092-46.632 41.468-19.124 65.008-22.324 164.208-22.324 81.932 0 87.752 0.488 95.264 8 9.416 9.416 10.192 19.472 2.332 30.236-5.284 7.236-12.584 7.9-107.216 9.764l-101.548 2-29.784 14.808c-64.828 32.224-100.82 85.372-106.46 157.192-3.688 46.992 11.132 91.3 42.412 126.78 26.844 30.448 46.548 43.552 85.384 56.776 40.064 13.644 36.676 10.128 60.212 62.444 27.344 60.776 75.108 109.84 136.668 140.376 40.944 20.312 66.792 27.164 114.080 30.244 89.172 5.8 172.68-28.416 234.432-96.056 40.416-44.272 63.876-92.428 73.124-150.1 5.004-31.224 11.412-38.844 35.604-42.336 70.612-10.192 128.684-77.048 128.668-148.128-0.004-22.304-7.38-53.66-17-72.252-12.704-24.552-42.844-53.216-70.064-66.624l-26.636-13.124-113.436-2c-106.408-1.876-113.784-2.48-119.104-9.764-7.86-10.764-7.084-20.82 2.332-30.236 7.58-7.58 13.332-8 109.804-8 58.868 0 110.74 1.864 123 4.42 68.288 14.24 127.98 68.948 150.124 137.58 14.384 44.584 9.060 106.608-12.864 149.872-16.492 32.548-53.816 69.108-87.088 85.304-15.936 7.76-34.724 15.288-41.748 16.732-11.784 2.424-13.136 4.388-17.468 25.36-21.044 101.908-106.448 203.504-204.6 243.388-56.664 23.024-132.704 30.664-193.16 19.408M422.88 536.792c-90.792-91.132-94.804-96.868-78.88-112.792 15.348-15.348 22.472-10.944 88.716 54.836l63.284 62.84v-150.84c0-145.504 0.284-151.12 8-158.836 4.4-4.4 11.6-8 16-8s11.6 3.6 16 8c7.716 7.716 8 13.332 8 158.836v150.84l63.284-62.84c66.244-65.78 73.368-70.184 88.716-54.836 15.924 15.924 11.912 21.66-78.88 112.792-68.020 68.276-89.104 87.208-97.12 87.208s-29.1-18.932-97.12-87.208" />
<glyph unicode="&#xef61;" glyph-name="compass-3" d="M512 1008c-273.504 0-496-222.512-496-496s222.496-496 496-496 496 222.512 496 496-222.496 496-496 496zM821.632 545.008l-249.2-93.44-93.44-249.184c-2.352-6.256-8.336-10.384-14.992-10.384-0.144 0-0.304 0-0.448 0-6.832 0.192-12.784 4.688-14.816 11.216l-160 512c-1.776 5.68-0.256 11.872 3.952 16.080 4.224 4.208 10.416 5.728 16.080 3.968l512-160c6.528-2.032 11.024-8 11.232-14.832 0.192-6.816-3.984-13.008-10.368-15.424z" />
<glyph unicode="&#xef62;" glyph-name="compass-3-line" d="M444 1002.116c-83.82-14.156-161.072-46.224-224-92.992-9.9-7.36-34.624-29.808-54.94-49.888-206.928-204.5-196.624-537.668 22.656-732.588 150.34-133.64 372.292-164.452 549.46-76.276 147.56 73.436 243.3 196.828 277.488 357.628 10.004 47.052 10.004 144.948 0 192-24.42 114.852-75.536 202.592-165.872 284.728-102.596 93.28-266.34 140.764-404.792 117.388M590.476 953.94c50.796-8.66 86.056-19.952 129.752-41.544 127.188-62.848 215.936-177.068 246.348-317.052 10.728-49.376 9.764-140.78-2.012-190.884-33.844-143.992-128.804-258.528-263.404-317.712-41.124-18.080-66.396-25.548-111.16-32.844-198.064-32.296-400.172 76.424-483.988 260.352-80.78 177.256-42.592 378.216 98.248 517.060 99.956 98.54 249.344 145.968 386.216 122.624M296 728c-4.4-4.4-7.936-11.148-7.864-15 0.076-3.852 36.772-123.876 81.548-266.724 55.416-176.788 83.716-261.408 88.628-265 9.064-6.624 18.192-6.712 27.020-0.26 3.776 2.76 28.148 61.704 54.164 130.988l47.3 125.972 127.004 48.012c83.596 31.604 128.356 50.504 130.964 55.3 5.188 9.56 0.992 25.488-7.976 30.292-10.272 5.496-519.308 164.42-526.644 164.42-3.38 0-9.744-3.6-14.144-8M553.128 611.312c110.564-34.476 192.884-62.108 189.944-63.752-2.856-1.596-47.252-18.664-98.66-37.92l-93.472-35.020-7.012-16.308c-3.86-8.972-20.972-53.712-38.028-99.424-17.056-45.708-31.5-82.608-32.096-82-1.964 2.012-121.804 386.632-121.804 390.92 0 2.308 1.352 4.228 3 4.272 1.648 0.048 90.808-27.3 198.128-60.768" />
<glyph unicode="&#xef63;" glyph-name="drop" d="M523.344 971.28c-6 6.048-16.688 6.048-22.688 0-14.56-14.64-356.656-361.28-356.656-587.28 0-239.024 189.6-368 368-368s368 128.976 368 368c0 226-342.096 572.64-356.656 587.28zM512 240c-1.44 0-144 1.648-144 144 0.832 23.504 14.016 56.144 32 90.208 5.344-120.88 48-183.536 160-225.6-26.096-8.368-47.456-8.608-48-8.608z" />
<glyph unicode="&#xef64;" glyph-name="drop-line" d="M474.456 939.040c-43.424-45.256-107.668-121.712-152-180.896-131.248-175.208-185.496-301.892-176.94-413.2 7.036-91.532 36.96-160.896 96.904-224.62 50.172-53.332 110.436-88.644 185.58-108.748 48.808-13.056 135.192-13.056 184 0 75.144 20.104 135.408 55.416 185.58 108.748 59.944 63.724 89.868 133.088 96.904 224.62 9.948 129.424-69.288 289.092-251.704 507.2-64.448 77.060-110.888 123.936-122.78 123.936-7.388 0-19.284-9.672-45.544-37.040M564.772 869c132.772-150.724 224.176-286.928 261.052-389 27.592-76.364 28.776-137.56 4.168-215.144-25.596-80.704-94.264-153.5-178.676-189.42-128.644-54.74-279.68-23.208-374.032 78.092-45.016 48.336-70.292 100.456-81.144 167.328-19.66 121.144 45.54 264.44 215.272 473.144 39.060 48.028 104.956 122 108.68 122 1.804 0 21.908-21.148 44.68-47M375.492 391.492c-17.46-17.46-2.104-82.772 27.116-115.304 35.824-39.888 112.344-65.236 133.392-44.188 18.176 18.176 7.056 34.388-28.716 41.872-58.292 12.196-83.832 37.344-89.84 88.456-4.112 34.984-23 48.116-41.952 29.164" />
<glyph unicode="&#xef65;" glyph-name="drop-15" d="M523.84 1002.768c-6.064 6.672-17.616 6.672-23.664 0-14.56-16-356.176-394.368-356.176-618.768 0-230.352 187.104-368 368-368s368 137.648 368 368c0 224.4-341.616 602.768-356.16 618.768z" />
<glyph unicode="&#xef66;" glyph-name="drop-15-line" d="M507.46 987.936c-8.868-5.176-78.804-84.684-118.020-134.164-144.472-182.288-225.876-330.924-241.712-441.356-7.956-55.444 0.808-125.648 22.636-181.344 32.596-83.176 110.68-162.348 195.84-198.576 54.212-23.060 89.844-30.012 153.796-30.012s99.584 6.952 153.796 30.012c85.16 36.228 163.244 115.4 195.84 198.576 31.496 80.368 33.572 165.236 6.136 250.928-36.724 114.7-154.108 295.4-296.972 457.148-47.52 53.804-54.54 58.6-71.34 48.788M544.232 905c31.484-34.424 95.32-114.452 137.188-171.988 111.892-153.76 166.672-273.732 166.548-364.748-0.068-50.976-17.94-117.62-42.864-159.852-32.576-55.188-92.248-106.788-153.788-132.976-128.644-54.74-279.68-23.208-374.032 78.092-33.404 35.868-54.352 70.576-67.38 111.652-39.7 125.184-12.672 228.072 107.408 408.82 60.492 91.056 190.476 254 202.624 254 1.792 0 12.728-10.348 24.296-23" />
<glyph unicode="&#xef67;" glyph-name="drops" d="M523.2 779.2c-6.4 6.4-16 6.4-22.4 0-11.2-11.2-292.8-291.2-292.8-467.2 0-185.6 155.2-296 304-296s304 110.4 304 296c0 176-281.6 456-292.8 467.2zM875.2 971.2c-6.4 6.4-16 6.4-22.4 0-12.8-12.8-132.8-129.6-132.8-209.6 0-86.4 73.6-137.6 144-137.6s144 51.2 144 137.6c0 80-120 196.8-132.8 209.6zM304 761.6c0 78.4-120 196.8-132.8 209.6-6.4 6.4-16 6.4-22.4 0-12.8-12.8-132.8-129.6-132.8-209.6 0-86.4 73.6-137.6 144-137.6s144 51.2 144 137.6z" />
<glyph unicode="&#xef68;" glyph-name="drops-line" d="M141.42 959.036c-23.656-21.804-75.544-86.304-94.216-117.112-34.584-57.064-39.32-103.544-15.48-151.972 31.752-64.492 114.276-97.684 184.116-74.048 51.96 17.588 83.764 48.864 97.824 96.208 16.724 56.316-1.78 107.008-70.024 191.848-36.62 45.528-64.456 72.040-75.64 72.040-4.5 0-16.46-7.632-26.58-16.964M845.42 959.036c-23.656-21.804-75.544-86.304-94.216-117.112-34.584-57.064-39.32-103.544-15.48-151.972 31.752-64.492 114.276-97.684 184.116-74.048 51.96 17.588 83.764 48.864 97.824 96.208 16.724 56.316-1.78 107.008-70.024 191.848-36.62 45.528-64.456 72.040-75.64 72.040-4.5 0-16.46-7.632-26.58-16.964M208.256 870.976c45.328-56.104 61.816-88.476 61.528-120.792-0.364-41.196-24.916-74.32-65.272-88.072-48.876-16.652-107.324 4.356-128.704 46.264-18.504 36.272-13.508 69.14 17.744 116.72 24.116 36.72 70.5 91.548 75.936 89.764 2.48-0.816 19.928-20.564 38.768-43.884M912.256 870.976c45.328-56.104 61.816-88.476 61.528-120.792-0.364-41.196-24.916-74.32-65.272-88.072-48.876-16.652-107.324 4.356-128.704 46.264-18.504 36.272-13.508 69.14 17.744 116.72 24.116 36.72 70.5 91.548 75.936 89.764 2.48-0.816 19.928-20.564 38.768-43.884M472.52 745.092c-122.872-127.856-214.552-260.836-249.216-361.476-11.82-34.32-12.948-41.824-12.896-85.616 0.036-33.224 2.228-56.004 7.116-74 27.764-102.264 108.996-182.060 216.476-212.66 45.904-13.068 126.18-13.052 172 0.028 107.004 30.552 188.872 110.968 216.476 212.632 4.888 17.996 7.080 40.776 7.116 74 0.052 43.792-1.076 51.296-12.896 85.616-28.344 82.292-79.86 164.24-175.028 278.428-59.396 71.272-110.016 122.048-121.668 122.048-7.42 0-19.668-10.060-47.48-39M558.328 685c121.088-135.148 203.436-262.868 220.168-341.484 11.368-53.412 0.196-121.22-27.748-168.428-16.76-28.308-49.292-61.536-81.044-82.772-82.812-55.388-202.82-58.444-289.232-7.364-28.008 16.556-75.868 63.284-90.272 88.136-29.068 50.152-40.212 116.332-28.696 170.428 12.936 60.78 67.076 154.856 146.028 253.744 45.976 57.584 107.348 126.74 112.476 126.74 1.86 0 19.104-17.552 38.32-39" />
<glyph unicode="&#xef69;" d="M1008 512c0-273.933-222.067-496-496-496s-496 222.067-496 496c0 273.933 222.067 496 496 496s496-222.067 496-496z" />
<glyph unicode="&#xef6a;" d="M272 512c0 229.664 156.128 422.784 368 479.232-40.848 10.88-83.728 16.768-128 16.768-273.936 0-496-222.064-496-496s222.064-496 496-496c44.272 0 87.152 5.888 128 16.768-211.872 56.448-368 249.568-368 479.232z" />
<glyph unicode="&#xef6b;" glyph-name="eclipse-line" d="M444 1002.116c-83.82-14.156-161.072-46.224-224-92.992-32.916-24.464-91.588-85.956-114.42-119.92-87.7-130.452-111.388-280.468-67.888-429.912 63-216.432 274.056-367.416 500.308-357.908 78.56 3.3 136.804 17.848 202.28 50.512 144.468 72.080 240.492 196.704 274.384 356.104 10.004 47.052 10.004 144.948 0 192-24.42 114.852-75.536 202.592-165.872 284.728-102.596 93.28-266.34 140.764-404.792 117.388M560 958.344c0-0.912-11.548-8.116-25.664-16.008-108.352-60.592-201.752-177.276-235.6-294.336-24.876-86.032-24.888-201.632-0.028-288 33.632-116.852 126.912-233.248 236.24-294.776l27.052-15.224-32-1.308c-174.66-7.136-349.668 102.48-423.988 265.564-80.78 177.256-42.592 378.216 98.248 517.060 82.452 81.28 195.272 127.28 314.74 128.324 22.548 0.2 41-0.384 41-1.296M697.188 923.568c56.852-24.78 100.056-53.896 142.52-96.048 64.564-64.096 107.372-142.44 126.868-232.176 10.728-49.376 9.764-140.78-2.012-190.884-20.056-85.324-60.856-159.632-120.612-219.664-45.784-45.992-88.648-74.808-150.752-101.344l-38.576-16.48-21.316 6.72c-59.2 18.66-135.252 67.42-179.896 115.332-85 91.224-125.412 192.72-125.412 314.976 0 104.868 28.356 190.512 90.492 273.3 53.348 71.084 117.924 119.704 203.48 153.208 27.964 10.948 35.836 10.22 75.216-6.94" />
<glyph unicode="&#xef6c;" glyph-name="fahrenheit" d="M496 48h-96v816h464v-80h-368v-304h336v-80h-336v-352zM160 768c-61.744 0-112 50.256-112 112s50.256 112 112 112 112-50.256 112-112-50.256-112-112-112zM160 960c-44.112 0-80-35.888-80-80s35.888-80 80-80 80 35.888 80 80-35.888 80-80 80z" />
<glyph unicode="&#xef6d;" glyph-name="fahrenheit-line" d="M119.168 986.628c-87.724-24.716-115.72-133.696-50.976-198.436 47.848-47.852 119.768-47.852 167.616 0 47.008 47.004 47.796 118.672 1.828 165.972-9.836 10.116-25.756 21.88-35.384 26.136-23.116 10.224-59.436 12.992-83.084 6.328M184.12 935c52.492-26.516 52.492-99.484 0-126-22.576-11.404-41.664-11.404-64.24 0-52.492 26.516-52.492 99.484 0 126 9.8 4.952 24.252 9 32.12 9s22.32-4.048 32.12-9M392 856c-7.896-7.896-8-13.332-8-416s0.104-408.104 8-416c4.4-4.4 11.6-8 16-8s11.6 3.6 16 8c7.804 7.804 8 13.332 8 224v216h200c194.668 0 200.212 0.212 208 8 4.4 4.4 8 11.6 8 16s-3.6 11.6-8 16c-7.788 7.788-13.332 8-208 8h-200v304h232c226.668 0 232.184 0.184 240 8 10.184 10.184 10.184 21.816 0 32-7.828 7.828-13.332 8-256 8s-248.172-0.172-256-8" />
<glyph unicode="&#xef6e;" glyph-name="flash-21" d="M880 624h-317.104l60.896 365.36c1.2 7.184-2.592 14.256-9.232 17.232-6.624 2.976-14.432 1.088-19.008-4.56l-464-576c-3.872-4.8-4.64-11.392-1.968-16.944 2.64-5.552 8.256-9.088 14.416-9.088h317.104l-60.896-365.36c-1.2-7.184 2.592-14.256 9.232-17.232 2.128-0.96 4.352-1.408 6.56-1.408 4.736 0 9.36 2.096 12.464 5.968l464 576c3.872 4.8 4.64 11.392 1.968 16.944-2.656 5.552-8.272 9.088-14.432 9.088z" />
<glyph unicode="&#xef6f;" glyph-name="flash-21-line" d="M590.316 926.848c-70.436-74.052-457.096-504.876-459.98-512.516-2.7-7.16-1.888-12.424 3.092-20.024l6.756-10.308h318.648l-29.76-148.648c-32.012-159.88-32.3-164.38-10.86-169.764 7.276-1.824 13.416-0.328 20.060 4.892 7.656 6.012 410.84 449.572 460.728 506.868 14.98 17.2 16.292 27.36 5 38.652-7.728 7.728-13.332 8-165.42 8h-157.424l29.424 146.868c16.18 80.776 29.42 149.176 29.42 152 0 8.144-15.172 21.132-24.684 21.132-5.028 0-15.56-7.224-25-17.152M551.428 719.164c-12.884-64.256-23.428-118.812-23.428-121.232 0-2.424 2.552-7.896 5.676-12.168 5.388-7.376 13.016-7.864 152.028-9.764l146.36-2-168.324-186c-92.576-102.3-175.172-192.956-183.548-201.46l-15.232-15.46 23.52 117.296c12.936 64.512 23.52 119.272 23.52 121.692 0 2.424-2.552 7.896-5.676 12.168-5.388 7.376-13.016 7.864-152.124 9.764l-146.452 2 182.256 201c100.24 110.552 182.836 201 183.552 201 0.712 0-9.244-52.576-22.128-116.836" />
<glyph unicode="&#xef70;" glyph-name="flash-24" d="M832 704h-252.288l59.936 284.704c0.992 4.72-0.192 9.632-3.232 13.376s-7.6 5.92-12.416 5.92h-304c-7.248 0-13.6-4.88-15.456-11.872l-128-480c-1.28-4.8-0.256-9.936 2.768-13.872s7.712-6.256 12.688-6.256h204.48l-92.16-460.864c-1.456-7.28 2.272-14.592 9.008-17.68 2.144-0.992 4.416-1.456 6.672-1.456 4.816 0 9.504 2.176 12.624 6.16l512 656c3.76 4.816 4.448 11.36 1.776 16.864-2.704 5.488-8.288 8.976-14.4 8.976z" />
<glyph unicode="&#xef71;" glyph-name="flash-24-line" d="M310.412 999c-5.476-8.54-134.412-485.712-134.412-497.436 0-3.060 3.6-9.164 8-13.564 7.584-7.584 13.332-8 110.18-8h102.184l-2.288-13c-5.44-30.968-58.076-376.88-58.076-381.688 0-2.92 3.6-8.912 8-13.312 19.568-19.568 11.252-28.728 260.588 287 278.844 353.1 259.412 327.832 259.412 337.308 0 4.228-3.6 11.292-8 15.692-7.632 7.632-13.332 8-124 8-93.044 0-116 1.040-116 5.248 0 2.884 12.6 61.724 28 130.752s28 127.868 28 130.752c0 2.888-3.6 8.848-8 13.248-7.748 7.748-13.332 8-177.908 8h-169.908l-5.772-9M616 954.752c0-2.884-12.6-61.724-28-130.752s-28-127.524-28-129.988c0-2.464 2.552-7.976 5.672-12.248 5.308-7.264 12.652-7.892 114.416-9.764l108.748-2-193.42-245.068c-106.38-134.788-193.9-242.788-194.496-240-0.592 2.788 9.76 75.104 23 160.704 13.244 85.6 24.080 158.048 24.080 161s-3.6 8.964-8 13.364c-7.576 7.576-13.332 8-108.292 8-83.892 0-100.084 0.916-99 5.596 0.712 3.080 26.492 100.264 57.292 215.972l56 210.372 135 0.028c108.74 0.028 135-0.988 135-5.216" />
<glyph unicode="&#xef72;" glyph-name="fog" d="M212.704 839.984c-9.512-2.016-27.14-8.176-39.172-13.684-23.94-10.96-123.752-69.724-144.532-85.092-13.696-10.132-16.528-22.244-7.856-33.624 11.716-15.388 19.496-12.872 89.168 28.836 93.896 56.208 95.98 57.052 141.688 57.152 45.972 0.1 50.44-1.652 123.644-48.456 74.792-47.82 93.532-54.244 152.356-52.252 55.2 1.872 70.2 7.8 147.88 58.456 41.544 27.092 54.796 33.62 79.32 39.076 53.844 11.98 77.912 4.484 177.86-55.38 65.76-39.388 68.084-40.416 78.356-34.68 10.764 6.016 16.044 24.72 9.628 34.12-5.056 7.408-128.904 81.384-153.776 91.852-32.588 13.716-75.54 19.064-109.812 13.672-34.608-5.444-62.984-18.66-123.288-57.42-53.668-34.496-75.412-42.56-114.756-42.56-37.656 0-56.472 7.508-121.572 48.508-31.16 19.624-67.072 39.344-79.812 43.82-26.42 9.284-79.456 13.14-105.324 7.656M226.208 578.996c-34.604-3.9-51.552-11.644-137.512-62.812-52.148-31.044-69.312-43.244-71.152-50.576-3.284-13.080 7.924-29.608 20.072-29.608 5.188 0 42.496 19.484 82.908 43.296 40.412 23.816 79.596 45.416 87.072 48 21.2 7.332 73.172 5.9 95.644-2.64 10.632-4.040 41.7-21.796 69.044-39.456 61.328-39.616 67.728-42.9 99.892-51.284 34.096-8.884 85.236-6.396 116.504 5.668 12.476 4.812 47.76 24.728 78.408 44.252 60.684 38.66 85.056 48.164 123.5 48.164 35.66 0 54.28-7.592 133.676-54.492 38.648-22.828 73.92-41.508 78.384-41.508 18.46 0 28.52 28.588 14.352 40.792-15.56 13.404-144.484 86.564-165 93.628-16.5 5.684-33 7.552-66 7.472-54.4-0.136-69.296-5.684-146.184-54.408-29.6-18.756-60.116-36.664-67.816-39.796-8.704-3.536-28.372-5.688-52-5.688-44.52 0-60.208 5.928-118.448 44.752-80.528 53.68-111.104 63.488-175.344 56.244M226.208 314.996c-34.604-3.9-51.552-11.644-137.512-62.812-52.148-31.044-69.312-43.244-71.152-50.576-3.284-13.080 7.924-29.608 20.072-29.608 5.188 0 42.496 19.484 82.908 43.296 40.412 23.816 79.596 45.416 87.072 48 21.2 7.332 73.172 5.9 95.644-2.64 10.632-4.040 41.7-21.796 69.044-39.456 61.328-39.616 67.728-42.9 99.892-51.284 34.096-8.884 85.236-6.396 116.504 5.668 12.476 4.812 47.76 24.728 78.408 44.252 60.684 38.66 85.056 48.164 123.5 48.164 35.66 0 54.28-7.592 133.676-54.492 38.648-22.828 73.92-41.508 78.384-41.508 18.46 0 28.52 28.588 14.352 40.792-15.56 13.404-144.484 86.564-165 93.628-16.5 5.684-33 7.552-66 7.472-54.4-0.136-69.296-5.684-146.184-54.408-29.6-18.756-60.116-36.664-67.816-39.796-8.704-3.536-28.372-5.688-52-5.688-44.52 0-60.208 5.928-118.448 44.752-80.528 53.68-111.104 63.488-175.344 56.244" />
<glyph unicode="&#xef73;" glyph-name="fog-line" d="M512 705.6c-36.8 0-73.6 11.2-105.6 32l-73.6 48c-51.2 33.6-116.8 35.2-169.6 4.8l-123.2-73.6c-8-4.8-17.6-1.6-22.4 4.8-4.8 8-1.6 17.6 4.8 22.4l123.2 73.6c62.4 38.4 142.4 35.2 203.2-4.8l73.6-48c52.8-35.2 123.2-35.2 176 0l73.6 48c60.8 40 140.8 43.2 203.2 4.8l123.2-73.6c8-4.8 9.6-14.4 4.8-22.4s-14.4-9.6-22.4-4.8l-123.2 73.6c-52.8 32-118.4 30.4-169.6-4.8l-73.6-48c-28.8-20.8-65.6-32-102.4-32zM512 179.2c-36.8 0-73.6 11.2-105.6 32l-73.6 48c-51.2 33.6-116.8 35.2-169.6 4.8l-123.2-73.6c-8-4.8-17.6-1.6-22.4 4.8-4.8 8-1.6 17.6 4.8 22.4l123.2 73.6c62.4 38.4 142.4 35.2 203.2-4.8l73.6-48c52.8-35.2 123.2-35.2 176 0l73.6 48c60.8 40 140.8 43.2 203.2 4.8l123.2-73.6c8-4.8 9.6-14.4 4.8-22.4s-14.4-9.6-22.4-4.8l-123.2 73.6c-52.8 32-118.4 30.4-169.6-4.8l-73.6-48c-28.8-22.4-65.6-32-102.4-32zM512 441.6c-36.8 0-73.6 11.2-105.6 32l-73.6 48c-51.2 33.6-116.8 35.2-169.6 4.8l-123.2-73.6c-8-4.8-17.6-1.6-22.4 6.4-3.2 6.4-1.6 16 6.4 20.8l123.2 73.6c62.4 38.4 142.4 35.2 203.2-4.8l73.6-48c52.8-35.2 123.2-35.2 176 0l73.6 48c60.8 40 140.8 43.2 203.2 4.8l123.2-73.6c8-4.8 9.6-14.4 4.8-22.4s-14.4-9.6-22.4-4.8l-123.2 73.6c-52.8 32-118.4 30.4-169.6-4.8l-73.6-48c-30.4-20.8-67.2-32-104-32z" />
<glyph unicode="&#xef74;" glyph-name="forecast" d="M96 16c-9.6 0-16 6.4-16 16v960c0 9.6 6.4 16 16 16s16-6.4 16-16v-960c0-9.6-6.4-16-16-16zM464 894.4l-236.8 49.6c-4.8 1.6-9.6 0-12.8-3.2-4.8-3.2-6.4-8-6.4-12.8v-576c0-4.8 1.6-9.6 6.4-12.8 3.2-1.6 6.4-3.2 9.6-3.2 1.6 0 1.6 0 3.2 0l236.8 49.6v508.8zM496 392l224 46.4v403.2l-224 46.4zM995.2 784l-243.2 49.6v-388.8l243.2 51.2c8 1.6 12.8 8 12.8 16v256c0 8-4.8 14.4-12.8 16z" />
<glyph unicode="&#xef75;" glyph-name="forecast-line" d="M88 1000c-7.912-7.912-8-13.332-8-496s0.088-488.088 8-496c10.184-10.184 21.816-10.184 32 0 7.912 7.912 8 13.332 8 496s-0.088 488.088-8 496c-10.184 10.184-21.816 10.184-32 0M216 936c-7.856-7.856-8-13.332-8-304s0.144-296.144 8-304c4.4-4.4 9.672-8 11.716-8s47.492 9.108 101 20.24c53.504 11.132 117.984 24.48 143.284 29.66s94.6 19.576 154 31.984c59.4 12.408 162.9 34.032 230 48.048s128.996 26.764 137.548 28.324c31.452 5.744 30.452 0.688 30.452 153.744s1 148-30.452 153.744c-8.552 1.56-70.448 14.308-137.548 28.324s-170.6 35.64-230 48.048c-59.4 12.408-128.7 26.804-154 31.984s-89.78 18.528-143.284 29.66c-53.508 11.132-98.956 20.24-101 20.24s-7.316-3.6-11.716-8M366.396 868c52.312-11 95.672-20 96.36-20 0.684 0 1.244-97.020 1.244-215.6v-215.596l-29-6.348c-15.952-3.492-62.748-13.36-104-21.932l-75-15.584v257.532c0 250.844 0.2 257.528 7.644 257.528 4.2 0 50.44-9 102.752-20M619 815.36l101-20.732v-325.256l-101-20.732c-55.548-11.4-102.352-20.712-104-20.684-1.648 0.024-3 91.844-3 204.044s1.352 204.020 3 204.044c1.648 0.028 48.452-9.284 104-20.684M874 762.492l100-21.092v-218.8l-100-21.092c-55-11.604-101.352-21.188-103-21.3-1.648-0.116-3 68.192-3 151.792s1.352 151.908 3 151.792c1.648-0.112 48-9.696 103-21.3" />
<glyph unicode="&#xef76;" glyph-name="humidity-26" d="M512 1008c-273.6 0-496-222.4-496-496s222.4-496 496-496 496 222.4 496 496-222.4 496-496 496zM512 144c-203.2 0-368 164.8-368 368 0 9.6 6.4 16 16 16h704c9.6 0 16-6.4 16-16 0-203.2-164.8-368-368-368z" />
<glyph unicode="&#xef77;" glyph-name="humidity-26-line" d="M444 1002.116c-83.82-14.156-161.072-46.224-224-92.992-9.9-7.36-34.624-29.808-54.94-49.888-206.928-204.5-196.624-537.668 22.656-732.588 150.34-133.64 372.292-164.452 549.46-76.276 147.56 73.436 243.3 196.828 277.488 357.628 10.004 47.052 10.004 144.948 0 192-24.42 114.852-75.536 202.592-165.872 284.728-102.596 93.28-266.34 140.764-404.792 117.388M590.476 953.94c50.796-8.66 86.056-19.952 129.752-41.544 127.188-62.848 215.936-177.068 246.348-317.052 10.728-49.376 9.764-140.78-2.012-190.884-33.844-143.992-128.804-258.528-263.404-317.712-41.124-18.080-66.396-25.548-111.16-32.844-198.064-32.296-400.172 76.424-483.988 260.352-80.78 177.256-42.592 378.216 98.248 517.060 99.956 98.54 249.344 145.968 386.216 122.624M151.444 519.444c-7.804-7.804-8.34-11.392-6.108-41 4.996-66.24 32.032-142.568 68.16-192.444 50.056-69.096 129.368-123.832 212.504-146.66 46.24-12.696 141.76-12.696 188 0 83.136 22.828 162.448 77.564 212.504 146.66 36.104 49.84 62.764 125.248 68.044 192.452 2.328 29.676 1.816 33.184-6 41l-8.548 8.548h-720l-8.556-8.556M845.368 461c-3.604-27.66-19.976-82.548-31.080-104.228-42.22-82.412-122.916-146.86-214.772-171.524-35.312-9.48-123.72-9.48-159.032 0-81.476 21.876-148.884 70.392-196.34 141.316-26.96 40.292-39.928 76.156-50.064 138.436l-2.444 15h656.212l-2.48-19" />
<glyph unicode="&#xef78;" glyph-name="humidity-52" d="M336 976c-158.4 0-288-129.6-288-288s129.6-288 288-288 288 129.6 288 288-129.6 288-288 288zM768 464c-115.2 0-208-92.8-208-208s92.8-208 208-208 208 92.8 208 208-92.8 208-208 208zM864 592c62.4 0 112 49.6 112 112s-49.6 112-112 112-112-49.6-112-112 49.6-112 112-112z" />
<glyph unicode="&#xef79;" glyph-name="humidity-52-line" d="M288.82 971.812c-103.288-18.524-200.488-107.144-229.368-209.124-11.928-42.124-13.048-118.58-2.324-158.688 26.512-99.136 110.804-183.056 211.416-210.484 35.020-9.548 115.892-9.548 150.912 0 100.956 27.524 183.42 109.74 211.108 210.484 10.976 39.936 10.008 116.236-2.016 158.688-25.432 89.808-102.476 168.828-194.508 199.504-25.416 8.468-41.388 10.936-78 12.036-25.324 0.76-55.572-0.328-67.22-2.416M398 922.008c89.548-18.72 168.924-98.296 188.040-188.524 11.98-56.56 4.688-114.34-20.888-165.484-19.708-39.412-67.936-88.504-105.152-107.036-101.128-50.356-211.82-33.188-290.076 44.992-62.592 62.528-86.060 141.316-67.932 228.044 18.448 88.248 98.432 168.996 186.008 187.784 34.284 7.356 75.476 7.44 110 0.224M839.168 810.628c-67.060-18.896-103.364-91.036-78.824-156.632 16.6-44.368 64.744-77.996 111.656-77.996 63.168 0 120 56.832 120 120 0 43.192-30.848 91.092-69.748 108.3-23.116 10.224-59.436 12.992-83.084 6.328M904.12 759c52.492-26.516 52.492-99.484 0-126-22.576-11.404-41.664-11.404-64.24 0-52.492 26.516-52.492 99.484 0 126 9.8 4.948 24.252 9 32.12 9s22.32-4.052 32.12-9M730 459.32c-58.18-11.016-119.764-59.292-147.488-115.616-52.316-106.292-8.096-237.076 97.784-289.192 130.604-64.284 287.716 17.732 308.612 161.104 21.9 150.256-107.776 272.316-258.908 243.704M818.16 409.792c124.804-32.5 167.036-188.424 75.752-279.704-65.556-65.56-170.268-65.56-235.824 0-64.168 64.164-65.84 168.46-3.724 232.232 45.112 46.316 103.384 63.204 163.796 47.472" />
<glyph unicode="&#xef7a;" glyph-name="hurricane-44" d="M665.6 152c-41.6-25.6-96-40-153.6-40-62.4 0-121.6 17.6-164.8 48-8 4.8-17.6 3.2-22.4-3.2-4.8-8-3.2-17.6 3.2-22.4 49.6-35.2 115.2-54.4 184-54.4 62.4 0 123.2 16 171.2 44.8 8 4.8 9.6 14.4 4.8 22.4s-14.4 9.6-22.4 4.8zM766.4 366.4c-51.2-51.2-150.4-81.6-254.4-81.6-102.4 0-198.4 30.4-251.2 78.4-6.4 6.4-16 4.8-22.4-1.6s-4.8-16 1.6-22.4c59.2-54.4 161.6-86.4 272-86.4 115.2 0 219.2 33.6 276.8 91.2 6.4 6.4 6.4 16 0 22.4-4.8 6.4-16 6.4-22.4 0zM835.2 540.8c-65.6-51.2-188.8-83.2-323.2-83.2-132.8 0-257.6 32-323.2 83.2-6.4 4.8-17.6 4.8-22.4-3.2-4.8-6.4-4.8-17.6 3.2-22.4 72-56 200-89.6 342.4-89.6s270.4 33.6 342.4 89.6c6.4 4.8 8 16 3.2 22.4-6.4 8-16 8-22.4 3.2zM992 787.2c0-95.435-214.903-172.8-480-172.8s-480 77.365-480 172.8c0 95.435 214.903 172.8 480 172.8s480-77.365 480-172.8z" />
<glyph unicode="&#xef7b;" glyph-name="hurricane-44-line" d="M426 973.564c-117.576-9.232-239.268-37.9-308-72.556-105.872-53.384-132.068-132.38-65.556-197.684 50.308-49.388 139.432-84.104 277.556-108.112 47.204-8.204 64.728-9.036 190-9.036s142.796 0.832 190 9.036c204.64 35.568 314.376 100.764 313.912 186.5-0.228 42.004-38.556 87.316-100.164 118.416-53.18 26.844-152.044 54.476-235.748 65.888-44.18 6.024-217.732 11.024-262 7.548M684 917.984c145.188-19.752 267-71.288 287.928-121.812 17.3-41.76-31.996-85.824-134.008-119.784-92.196-30.696-189.832-44.304-317.92-44.304s-225.724 13.608-317.92 44.304c-102.012 33.96-151.308 78.024-134.008 119.784 12.648 30.536 68.348 65.484 142.096 89.16 66.040 21.2 123.564 31.64 221.832 40.272 39.352 3.456 208.088-1.648 252-7.62M170.32 536.352c-13.036-14.404-6.912-28.616 20.156-46.76 45.972-30.82 116.352-55.484 197.82-69.32 67.604-11.48 192.756-11.688 261.704-0.436 85.060 13.884 164.192 42.564 209.24 75.828 14.86 10.976 17.068 14.48 16 25.408-0.88 8.988-4.468 14.46-12.32 18.804-10.332 5.708-12.096 5.5-26-3.056-85.896-52.868-184.716-76.82-316.92-76.82-129.16 0-234.060 24.552-308.224 72.144-21.488 13.788-31.836 14.84-41.456 4.208M757.396 354.512c-61.66-46.092-137.992-67.556-241.396-67.876-89.704-0.28-162.584 18.728-220.508 57.512-33.3 22.296-47.968 24.948-57.508 10.392-8.836-13.492-2.676-26.432 20.7-43.484 57.66-42.064 138.040-66.632 239.464-73.2 108.34-7.012 235.204 29.568 295.636 85.24 17.064 15.72 19.212 32.952 5.324 42.676-12.776 8.952-15.744 8.152-41.712-11.26M335.048 159.708c-21.624-12.6-15.972-32.612 14.416-51.024 88.924-53.896 221.212-58.348 321.532-10.82 34.164 16.184 42.232 27.564 31.34 44.188-3.74 5.708-9.504 11.416-12.808 12.684-3.3 1.264-19.848-4.172-36.764-12.084-45.656-21.352-78.608-28.216-134.764-28.072-58.172 0.152-86.564 6.768-135.24 31.508-38.676 19.656-37.784 19.404-47.712 13.62" />
<glyph unicode="&#xef7c;" glyph-name="hurricane-45" d="M56 920c-4.4-4.4-8-11.6-8-16s3.6-11.6 8-16c7.908-7.908 13.332-8 464-8s456.092 0.092 464 8c4.4 4.4 8 11.6 8 16s-3.6 11.6-8 16c-7.908 7.908-13.332 8-464 8s-456.092-0.092-464-8M184 760c-4.4-4.4-8-11.6-8-16s3.6-11.6 8-16c7.868-7.868 13.332-8 336-8s328.132 0.132 336 8c4.4 4.4 8 11.6 8 16s-3.6 11.6-8 16c-7.868 7.868-13.332 8-336 8s-328.132-0.132-336-8M312 600c-4.4-4.4-8-11.6-8-16s3.6-11.6 8-16c7.848-7.848 13.332-8 288-8s280.152 0.152 288 8c4.4 4.4 8 11.6 8 16s-3.6 11.6-8 16c-7.848 7.848-13.332 8-288 8s-280.152-0.152-288-8M440 440c-4.4-4.4-8-11.6-8-16s3.6-11.6 8-16c7.748-7.748 13.332-8 176-8s168.252 0.252 176 8c4.4 4.4 8 11.6 8 16s-3.6 11.6-8 16c-7.748 7.748-13.332 8-176 8s-168.252-0.252-176-8M280 280c-4.4-4.4-8-11.6-8-16s3.6-11.6 8-16c7.644-7.644 13.332-8 128-8s120.356 0.356 128 8c4.4 4.4 8 11.6 8 16s-3.6 11.6-8 16c-7.644 7.644-13.332 8-128 8s-120.356-0.356-128-8M152 120c-4.4-4.4-8-11.6-8-16s3.6-11.6 8-16c7.516-7.516 13.332-8 96-8s88.484 0.484 96 8c4.4 4.4 8 11.6 8 16s-3.6 11.6-8 16c-7.516 7.516-13.332 8-96 8s-88.484-0.484-96-8" />
<glyph unicode="&#xef7d;" glyph-name="hurricane-45-line" d="M960 912h-896c-8.832 0-16 7.168-16 16s7.168 16 16 16h896c8.832 0 16-7.168 16-16s-7.168-16-16-16zM832 752h-640c-8.832 0-16 7.168-16 16s7.168 16 16 16h640c8.832 0 16-7.168 16-16s-7.168-16-16-16zM864 592h-544c-8.832 0-16 7.168-16 16s7.168 16 16 16h544c8.832 0 16-7.168 16-16s-7.168-16-16-16zM768 432h-320c-8.832 0-16 7.168-16 16s7.168 16 16 16h320c8.832 0 16-7.168 16-16s-7.168-16-16-16zM512 272h-224c-8.832 0-16 7.168-16 16s7.168 16 16 16h224c8.832 0 16-7.168 16-16s-7.168-16-16-16zM320 112h-160c-8.832 0-16 7.168-16 16s7.168 16 16 16h160c8.832 0 16-7.168 16-16s-7.168-16-16-16z" />
<glyph unicode="&#xef7e;" glyph-name="moon" d="M955.2 416c-38.4-11.2-78.4-16-116.8-16-241.6 0-438.4 196.8-438.4 440 0 38.4 4.8 76.8 16 116.8 1.6 4.8 0 11.2-4.8 16s-9.6 6.4-16 4.8c-204.8-57.6-347.2-244.8-347.2-457.6 0-260.8 211.2-472 472-472 212.8 0 400 142.4 454.4 347.2 1.6 4.8 0 11.2-4.8 16-1.6 4.8-8 6.4-14.4 4.8z" />
<glyph unicode="&#xef7f;" glyph-name="moon-line" d="M372.868 965.872c-153.588-52.32-270.528-180.028-311.216-339.872-9.888-38.844-11.224-51.504-11.424-108-0.248-69.212 5.236-105.356 24.572-162 39.188-114.792 130.664-218.768 241.164-274.112 30.64-15.344 80.172-32.004 120.172-40.416 45.608-9.592 149.56-9.736 190.764-0.268 111.864 25.712 206.412 85.144 278.212 174.884 42.688 53.352 91.312 157.74 85.068 182.62-3.484 13.88-18.572 19.624-37.168 14.14-29.512-8.696-87.252-13.892-129.012-11.604-108.58 5.936-210.056 52.428-285.684 130.88-56.372 58.476-88.78 116.624-108.792 195.196-17.204 67.552-16.876 122.56 1.312 221.284 2.216 12.012-10.148 27.464-21.836 27.292-3.852-0.056-20.108-4.568-36.132-10.024M371.896 887.852c-12.58-87.052 6.52-191.048 50.852-276.88 66.632-129.016 186.268-219.1 330.244-248.672 40.492-8.316 118.172-11.96 151.008-7.084 14.3 2.124 26.58 3.34 27.292 2.696 3.704-3.336-34.112-73.008-54.48-100.372-61.068-82.048-144.864-138.168-248.688-166.552-24.804-6.78-42.136-8.252-98.124-8.34-60.956-0.096-72.020 0.976-106.824 10.348-252.54 68.008-389.204 330.988-298.816 575.004 36.456 98.416 133.456 200.368 226.7 238.264 12.516 5.088 23.168 8.844 23.664 8.344 0.5-0.5-0.772-12.54-2.828-26.756" />
<glyph unicode="&#xef80;" glyph-name="moon-cloud-drop" d="M817.6 620.8c-32 0-64-8-92.8-24-40 92.8-132.8 155.2-235.2 155.2-96 0-184-54.4-227.2-139.2-17.6 6.4-36.8 8-56 8-105.6 0-190.4-84.8-190.4-190.4s84.8-190.4 190.4-190.4h152c17.6 57.6 64 121.6 104 169.6 12.8 14.4 30.4 22.4 49.6 22.4s36.8-8 49.6-22.4c40-48 86.4-112 104-169.6h152c105.6 0 190.4 84.8 190.4 190.4s-84.8 190.4-190.4 190.4zM384 198.4c0 59.2 67.2 145.6 104 190.4 12.8 14.4 35.2 14.4 48 0 36.8-44.8 104-131.2 104-190.4 0-84.8-65.6-134.4-128-134.4s-128 48-128 134.4zM489.6 784c104 0 198.4-56 249.6-145.6 24 9.6 51.2 14.4 76.8 14.4 52.8 0 100.8-19.2 139.2-49.6 12.8 32 19.2 65.6 19.2 100.8 0 12.8-1.6 27.2-3.2 43.2 0 4.8-3.2 8-6.4 11.2s-8 3.2-12.8 1.6c-19.2-4.8-36.8-8-56-8-113.6 0-206.4 92.8-208 206.4 0 4.8-1.6 9.6-4.8 11.2s-8 4.8-12.8 3.2c-110.4-12.8-198.4-89.6-227.2-193.6 14.4 3.2 30.4 4.8 46.4 4.8z" />
<glyph unicode="&#xef81;" glyph-name="moon-cloud-drop-line" d="M622 960.612c-38.136-13.108-60.4-25.716-89.96-50.948-44.884-38.312-75.596-85.748-90.020-139.036-6.724-24.848-6.912-25.064-27.396-32.2-51.444-17.924-108.028-60.98-134.652-102.472l-12.64-19.696-36.696 2.408c-64.372 4.228-112.972-13.448-156.412-56.892-79-78.996-77.52-203.412 3.344-281.060 42.864-41.16 84.904-56.716 153.272-56.716 35.828 0 42.196 1.036 49.16 8 10.004 10.004 10.22 21.78 0.572 31.428-6.144 6.144-15.696 7.768-55.328 9.4-40.968 1.688-51.332 3.536-71.576 12.768-47.628 21.72-82.824 70.032-88.152 121.012-11.052 105.732 88.8 189.22 190.268 159.088 30.212-8.976 36.792-6.052 52.316 23.232 7.312 13.788 25.128 36.944 39.596 51.456 83.58 83.84 215.132 83.972 300.1 0.296 20.776-20.46 31.032-34.844 43.996-61.692 20.888-43.264 24.424-44.652 63.404-24.848 80.504 40.9 169.344 9.78 207.804-72.788 9.296-19.968 10.876-28.572 10.876-59.352 0-30.656-1.592-39.416-10.724-59.012-15.104-32.42-45.768-63.48-76.116-77.1-21.264-9.54-31.452-11.38-72.464-13.068-39.456-1.624-49.004-3.252-55.144-9.392-9.648-9.648-9.432-21.424 0.572-31.428 6.964-6.964 13.332-8 49.16-8 68.368 0 110.408 15.556 153.272 56.716 76.016 72.992 82.152 191.52 14.020 270.872l-15.1 17.588 11.3 27.764c21.276 52.288 25.22 140.884 7.004 157.372-6.956 6.296-10.5 6.548-33.184 2.368-73.904-13.62-139.44 7.336-188.692 60.336-31.88 34.308-53.78 86.792-53.78 128.896 0 7.432-2.828 16.344-6.284 19.804-9.468 9.464-39.14 7.468-75.716-5.104M662.724 896.024c12.080-63.56 68.032-134.944 129.376-165.056 37.764-18.532 83.352-28.276 122.972-26.272l29.952 1.512-2.456-29.044c-2.108-24.944-14.14-70.068-20.332-76.26-1.088-1.088-13.284 2.316-27.104 7.56-34.796 13.204-101.848 13.592-136.032 0.788l-22.9-8.576-12.964 22.66c-16.472 28.792-58.22 70.64-89.276 89.488-32.012 19.424-76.936 34.048-115.248 37.508-31.216 2.816-31.284 2.848-28.712 13.244 6.38 25.816 29.616 64.128 55.332 91.24 27.824 29.332 50.436 45.128 82.668 57.756 28.168 11.036 29.616 10.348 34.724-16.548M493.044 381c-31.996-34.38-80.404-101.796-98.468-137.136-23.748-46.464-29.284-72.136-23.784-110.304 13.304-92.332 97.092-150.448 184.588-128.032 60.572 15.516 102.432 61.884 113.3 125.504 6.5 38.044 1.328 63.496-22.552 111.036-30.56 60.84-108.1 157.932-126.128 157.932-5.912 0-15.68-6.884-26.956-19M555.136 295.736c35.444-45.904 65.232-103.348 67.88-130.896 7.64-79.536-74.456-140.356-145.016-107.428-40.020 18.676-65.296 62.868-61.076 106.792 2.208 22.968 24.9 72.124 48.676 105.44 31.384 43.976 50.888 66.86 55.684 65.332 2.592-0.828 17.828-18.484 33.852-39.24" />
<glyph unicode="&#xef82;" glyph-name="moon-cloud-fog" d="M992 240h-960c-9.6 0-16 6.4-16 16s6.4 16 16 16h960c9.6 0 16-6.4 16-16s-6.4-16-16-16zM864 112h-704c-9.6 0-16 6.4-16 16s6.4 16 16 16h704c9.6 0 16-6.4 16-16s-6.4-16-16-16zM817.6 588.8c-32 0-64-8-92.8-24-40 92.8-132.8 155.2-235.2 155.2-96 0-184-54.4-227.2-139.2-17.6 6.4-36.8 8-56 8-105.6 0-190.4-84.8-190.4-190.4 0-4.8 0-11.2 0-16 0-8 8-14.4 16-14.4h960c8 0 16 6.4 16 14.4 0 4.8 0 11.2 0 16 0 105.6-84.8 190.4-190.4 190.4zM489.6 752c104 0 198.4-56 249.6-145.6 24 9.6 51.2 14.4 76.8 14.4 52.8 0 100.8-17.6 139.2-48 12.8 32 19.2 67.2 19.2 102.4 0 12.8-1.6 27.2-3.2 43.2 0 4.8-3.2 8-6.4 11.2s-8 3.2-12.8 1.6c-19.2-4.8-38.4-8-56-8-113.6 0-206.4 92.8-208 206.4 0 4.8-1.6 9.6-4.8 11.2s-8 3.2-12.8 3.2c-110.4-14.4-198.4-91.2-228.8-196.8 16 3.2 32 4.8 48 4.8z" />
<glyph unicode="&#xef83;" glyph-name="moon-cloud-fog-line" d="M641.516 938.348c-94.916-23.032-181.456-111.064-201.62-205.096-4.036-18.812-4.888-19.72-25.036-26.744-51.688-18.008-108.212-60.98-134.888-102.552l-12.64-19.696-36.696 2.408c-22.344 1.468-45.192 0.588-58.416-2.248-73.016-15.66-136.788-79.348-151.812-151.616-7.168-34.476-5.736-63.476 3.592-72.804 18.308-18.308 40-3.584 40 27.16 0 101.972 95.676 175.076 191.784 146.536 30.212-8.976 36.792-6.052 52.316 23.232 7.312 13.788 25.128 36.944 39.596 51.456 83.58 83.84 215.132 83.972 300.1 0.296 20.776-20.46 31.032-34.844 43.996-61.692 20.888-43.264 24.424-44.652 63.404-24.848 99.924 50.764 211.244-12.46 219.74-124.804 2.464-32.596 9.508-45.336 25.064-45.336 15.452 0 24 13.952 24 39.16 0 44.916-16.464 89.944-46.26 126.524l-17.376 21.332 11.452 27.492c14.308 34.352 22.016 81.556 19.044 116.62-3.852 45.376-9.452 51.208-43.068 44.832-45.256-8.584-92.324-3.16-131.792 15.18-27.716 12.88-75.064 59.34-89.464 87.784-11.812 23.328-22.388 63.54-22.476 85.456-0.108 26.48-18.020 32.772-62.544 21.968M662.888 867.164c8.008-42.14 30.024-80.848 66.736-117.352 53.12-52.812 103.836-73.592 179.956-73.744l35.58-0.068-2.272-27c-2.364-28.1-17.58-81-23.304-81-1.808 0-12.804 3.96-24.436 8.8-30.508 12.692-102.944 12.956-136.048 0.496l-22.9-8.62-12.964 22.66c-16.472 28.792-58.22 70.64-89.276 89.488-32.036 19.44-76.944 34.048-115.344 37.516l-31.38 2.832 2.384 11.928c4.716 23.58 28.828 65.22 52.38 90.468 25.976 27.844 54.512 48.040 84.804 60.020 29.968 11.856 30.78 11.484 36.084-16.424M24 264c-4.4-4.4-8-11.6-8-16s3.6-11.6 8-16c7.912-7.912 13.332-8 496-8s488.088 0.088 496 8c4.4 4.4 8 11.6 8 16s-3.6 11.6-8 16c-7.912 7.912-13.332 8-496 8s-488.088-0.088-496-8M152 136c-4.4-4.4-8-11.6-8-16s3.6-11.6 8-16c7.88-7.88 13.332-8 368-8s360.12 0.12 368 8c4.4 4.4 8 11.6 8 16s-3.6 11.6-8 16c-7.88 7.88-13.332 8-368 8s-360.12-0.12-368-8" />
<glyph unicode="&#xef84;" glyph-name="moon-cloud-hail" d="M490.192 784c104.176 0 199.008-55.952 249.824-144.976 24.72 9.248 51.008 14.064 77.44 14.064 52.72 0 101.152-18.512 139.312-49.264 12.56 31.728 19.232 65.648 19.232 100.176 0 13.232-1.2 27.296-3.696 43.008-0.704 4.512-3.312 8.496-7.152 10.976-3.856 2.48-8.64 3.152-12.96 1.936-18.72-5.264-37.632-7.92-56.192-7.92-113.536 0-206.8 92.384-207.888 205.968-0.048 4.56-2.032 8.896-5.472 11.888s-7.888 4.368-12.512 3.824c-109.632-13.664-197.76-90.72-227.424-193.712 15.52 2.576 31.376 4.032 47.488 4.032zM512 48c-8.848 0-16 7.168-16 16v32c0 8.832 7.152 16 16 16s16-7.168 16-16v-32c0-8.832-7.152-16-16-16zM384 112c-8.848 0-16 7.168-16 16v32c0 8.832 7.152 16 16 16s16-7.168 16-16v-32c0-8.832-7.152-16-16-16zM640 112c-8.848 0-16 7.168-16 16v32c0 8.832 7.152 16 16 16s16-7.168 16-16v-32c0-8.832-7.152-16-16-16zM817.456 621.088c-32.416 0-63.936-8.272-92.224-24.064-40.096 93.472-132.192 154.976-235.040 154.976-96.4 0-184.304-54.304-227.888-139.536-18.352 5.728-37.040 8.624-55.744 8.624-105.072 0-190.56-85.472-190.56-190.544s85.488-190.544 190.544-190.544h161.456v144c0 8.832 7.152 16 16 16s16-7.168 16-16v-144h96v64c0 8.832 7.152 16 16 16s16-7.168 16-16v-64h96v144c0 8.832 7.152 16 16 16s16-7.168 16-16v-144h161.456c105.056 0 190.544 85.472 190.544 190.544s-85.488 190.544-190.544 190.544z" />
<glyph unicode="&#xef85;" glyph-name="moon-cloud-hail-line" d="M622 960.612c-38.136-13.108-60.4-25.716-89.96-50.948-44.884-38.312-75.596-85.748-90.020-139.036-6.724-24.848-6.912-25.064-27.396-32.2-51.444-17.924-108.028-60.98-134.652-102.472l-12.64-19.696-36.696 2.408c-64.372 4.228-112.972-13.448-156.412-56.892-79-78.996-77.52-203.412 3.344-281.060 42.864-41.16 84.904-56.716 153.272-56.716 35.828 0 42.196 1.036 49.16 8 10.004 10.004 10.22 21.78 0.572 31.428-6.144 6.144-15.696 7.768-55.328 9.4-40.968 1.688-51.332 3.536-71.576 12.768-47.628 21.72-82.824 70.032-88.152 121.012-11.052 105.732 88.8 189.22 190.268 159.088 30.212-8.976 36.792-6.052 52.316 23.232 7.312 13.788 25.128 36.944 39.596 51.456 83.58 83.84 215.132 83.972 300.1 0.296 20.776-20.46 31.032-34.844 43.996-61.692 20.888-43.264 24.424-44.652 63.404-24.848 80.504 40.9 169.344 9.78 207.804-72.788 9.296-19.968 10.876-28.572 10.876-59.352 0-30.656-1.592-39.416-10.724-59.012-15.104-32.42-45.768-63.48-76.116-77.1-21.264-9.54-31.452-11.38-72.464-13.068-39.456-1.624-49.004-3.252-55.144-9.392-9.648-9.648-9.432-21.424 0.572-31.428 6.964-6.964 13.332-8 49.16-8 68.368 0 110.408 15.556 153.272 56.716 76.016 72.992 82.152 191.52 14.020 270.872l-15.1 17.588 11.3 27.764c21.276 52.288 25.22 140.884 7.004 157.372-6.956 6.296-10.5 6.548-33.184 2.368-73.904-13.62-139.44 7.336-188.692 60.336-31.88 34.308-53.78 86.792-53.78 128.896 0 7.432-2.828 16.344-6.284 19.804-9.468 9.464-39.14 7.468-75.716-5.104M662.724 896.024c12.080-63.56 68.032-134.944 129.376-165.056 37.764-18.532 83.352-28.276 122.972-26.272l29.952 1.512-2.456-29.044c-2.108-24.944-14.14-70.068-20.332-76.26-1.088-1.088-13.284 2.316-27.104 7.56-34.796 13.204-101.848 13.592-136.032 0.788l-22.9-8.576-12.964 22.66c-16.472 28.792-58.22 70.64-89.276 89.488-32.012 19.424-76.936 34.048-115.248 37.508-31.216 2.816-31.284 2.848-28.712 13.244 6.38 25.816 29.616 64.128 55.332 91.24 27.824 29.332 50.436 45.128 82.668 57.756 28.168 11.036 29.616 10.348 34.724-16.548M376 424c-7.408-7.408-8-13.332-8-80s0.592-72.592 8-80c4.4-4.4 11.6-8 16-8s11.6 3.6 16 8c7.408 7.408 8 13.332 8 80s-0.592 72.592-8 80c-4.4 4.4-11.6 8-16 8s-11.6-3.6-16-8M632 424c-7.408-7.408-8-13.332-8-80s0.592-72.592 8-80c4.4-4.4 11.6-8 16-8s11.6 3.6 16 8c7.408 7.408 8 13.332 8 80s-0.592 72.592-8 80c-4.4 4.4-11.6 8-16 8s-11.6-3.6-16-8M504 328c-7.408-7.408-8-13.332-8-80s0.592-72.592 8-80c4.4-4.4 11.6-8 16-8s11.6 3.6 16 8c7.408 7.408 8 13.332 8 80s-0.592 72.592-8 80c-4.4 4.4-11.6 8-16 8s-11.6-3.6-16-8M376 200c-6.224-6.224-8-13.332-8-32 0-26.084 8.348-40 24-40s24 13.916 24 40c0 26.084-8.348 40-24 40-4.4 0-11.6-3.6-16-8M632 200c-6.224-6.224-8-13.332-8-32 0-26.084 8.348-40 24-40s24 13.916 24 40c0 26.084-8.348 40-24 40-4.4 0-11.6-3.6-16-8M504 104c-6.224-6.224-8-13.332-8-32 0-26.084 8.348-40 24-40s24 13.916 24 40c0 26.084-8.348 40-24 40-4.4 0-11.6-3.6-16-8" />
<glyph unicode="&#xef86;" glyph-name="moon-cloud-light" d="M490.192 784c104.176 0 199.008-55.952 249.824-144.976 24.72 9.248 51.008 14.064 77.44 14.064 52.72 0 101.152-18.512 139.312-49.264 12.56 31.728 19.232 65.648 19.232 100.176 0 13.232-1.2 27.296-3.696 43.008-0.704 4.512-3.312 8.496-7.152 10.976-3.856 2.48-8.64 3.152-12.96 1.936-18.72-5.264-37.632-7.92-56.192-7.92-113.536 0-206.8 92.384-207.888 205.968-0.048 4.56-2.032 8.896-5.472 11.888s-7.888 4.368-12.512 3.824c-109.632-13.664-197.76-90.72-227.424-193.712 15.52 2.576 31.376 4.032 47.488 4.032zM817.456 621.088c-32.416 0-63.936-8.272-92.224-24.064-40.096 93.472-132.192 154.976-235.040 154.976-96.4 0-184.304-54.304-227.888-139.536-18.352 5.728-37.040 8.624-55.744 8.624-105.072 0-190.56-85.472-190.56-190.544s85.488-190.544 190.544-190.544h100.256c-5.376 15.088-2.976 31.792 6.832 44.832l191.968 255.968c9.008 12.016 23.376 19.184 38.416 19.184 7.696 0 15.36-1.872 22.192-5.44 21.040-11.008 30.832-35.28 23.328-57.744l-42.944-128.8h93.408c18.304 0 34.752-10.176 42.944-26.528 8.176-16.352 6.432-35.632-4.528-50.272l-38.416-51.216h177.456c105.056 0 190.544 85.488 190.544 190.56s-85.488 190.544-190.544 190.544zM654.32 327.152c-2.72 5.424-8.256 8.848-14.32 8.848h-137.808l56.992 170.944c2.48 7.44-0.8 15.6-7.76 19.232-6.928 3.616-15.504 1.712-20.224-4.576l-192-256c-3.648-4.848-4.224-11.328-1.52-16.752s8.256-8.848 14.32-8.848h137.808l-56.992-170.944c-2.48-7.44 0.8-15.6 7.76-19.232 2.352-1.232 4.896-1.824 7.424-1.824 4.896 0 9.696 2.256 12.8 6.4l192 256c3.632 4.848 4.224 11.328 1.52 16.752z" />
<glyph unicode="&#xef87;" glyph-name="moon-cloud-light-line" d="M641.516 970.348c-94.916-23.032-181.456-111.064-201.62-205.096-4.036-18.812-4.888-19.72-25.036-26.744-51.688-18.008-108.212-60.98-134.888-102.552l-12.64-19.696-36.696 2.408c-64.372 4.228-112.972-13.448-156.412-56.892-77.32-77.316-77.972-196.58-1.508-276.208 45.036-46.9 86.516-61.568 174.124-61.568 51.828 0 57.908 0.748 65.16 8 9.416 9.416 10.192 19.472 2.332 30.236-5.084 6.96-12.44 7.996-71.012 10.016-60.084 2.072-67.268 3.132-89.328 13.196-47.972 21.876-83.132 70.028-88.476 121.16-11.052 105.732 88.8 189.22 190.268 159.088 30.212-8.976 36.792-6.052 52.316 23.232 7.312 13.788 25.128 36.944 39.596 51.456 83.58 83.84 215.132 83.972 300.1 0.296 20.776-20.46 31.032-34.844 43.996-61.692 20.888-43.264 24.424-44.652 63.404-24.848 80.504 40.9 169.344 9.78 207.804-72.788 9.296-19.968 10.876-28.572 10.876-59.352 0-30.656-1.592-39.416-10.724-59.012-15.116-32.448-45.756-63.464-76.264-77.204-22.992-10.356-29.86-11.384-90.22-13.496-58.54-2.052-65.92-3.096-71-10.052-7.86-10.764-7.084-20.82 2.332-30.236 7.252-7.252 13.332-8 65.16-8 87.608 0 129.088 14.668 174.124 61.568 71.7 74.668 76.012 183.636 10.456 264.116l-17.376 21.332 11.452 27.492c14.308 34.352 22.016 81.556 19.044 116.62-3.852 45.376-9.452 51.208-43.068 44.832-45.256-8.584-92.324-3.16-131.792 15.18-27.716 12.88-75.064 59.34-89.464 87.784-11.812 23.328-22.388 63.54-22.476 85.456-0.108 26.48-18.020 32.772-62.544 21.968M662.888 899.164c8.008-42.14 30.024-80.848 66.736-117.352 53.12-52.812 103.836-73.592 179.956-73.744l35.58-0.068-2.272-27c-2.364-28.1-17.58-81-23.304-81-1.808 0-12.804 3.96-24.436 8.8-30.508 12.692-102.944 12.956-136.048 0.496l-22.9-8.62-12.964 22.66c-16.472 28.792-58.22 70.64-89.276 89.488-32.036 19.44-76.944 34.048-115.344 37.516l-31.38 2.832 2.384 11.928c4.716 23.58 28.828 65.22 52.38 90.468 25.976 27.844 54.512 48.040 84.804 60.020 29.968 11.856 30.78 11.484 36.084-16.424M539.028 427c-8.644-6.648-107.020-171.284-107.024-179.108-0.004-3.364 2.8-10.112 6.224-15 5.848-8.352 9.156-8.892 54.332-8.892 26.46 0 47.508-1.516 46.772-3.372-0.732-1.852-18.28-31.692-38.996-66.304-32.788-54.788-37.192-64.268-34-73.216 4.824-13.528 14.020-18.888 26.872-15.664 8.436 2.116 20.484 19.364 62.62 89.668 28.696 47.872 52.172 90.156 52.172 93.964s-3.6 10.524-8 14.924c-7.072 7.072-13.332 8-54 8-25.3 0-46 0.772-46 1.716s17.1 30.192 37.996 65c20.896 34.804 37.996 66.432 38 70.284 0.004 9.132-14.004 23-23.232 23-3.98 0-10.16-2.252-13.736-5" />
<glyph unicode="&#xef88;" glyph-name="moon-cloud-rain" d="M817.456 621.088c-32.416 0-63.936-8.272-92.224-24.064-40.096 93.472-132.192 154.976-235.040 154.976-96.4 0-184.304-54.304-227.888-139.536-18.352 5.728-37.040 8.624-55.744 8.624-105.072 0-190.56-85.472-190.56-190.544s85.488-190.544 190.544-190.544h161.456v112c0 8.832 7.152 16 16 16s16-7.168 16-16v-112h224v112c0 8.832 7.152 16 16 16s16-7.168 16-16v-112h161.456c105.056 0 190.544 85.472 190.544 190.544s-85.488 190.544-190.544 190.544zM368 240v-112c0-8.832 7.152-16 16-16s16 7.168 16 16v112h-32zM624 240v-112c0-8.832 7.152-16 16-16s16 7.168 16 16v112h-32zM512 192c-8.832 0-16-7.168-16-16v-112c0-8.832 7.152-16 16-16s16 7.168 16 16v112c0 8.832-7.168 16-16 16v0zM490.192 784c104.176 0 199.008-55.952 249.824-144.976 24.72 9.248 51.008 14.064 77.44 14.064 52.72 0 101.152-18.512 139.312-49.264 12.56 31.728 19.232 65.648 19.232 100.176 0 13.232-1.2 27.296-3.696 43.008-0.704 4.512-3.312 8.496-7.152 10.976-3.856 2.48-8.64 3.152-12.96 1.936-18.72-5.264-37.632-7.92-56.192-7.92-113.536 0-206.8 92.384-207.888 205.968-0.048 4.56-2.032 8.896-5.472 11.888s-7.888 4.368-12.512 3.824c-109.632-13.664-197.76-90.72-227.424-193.712 15.52 2.576 31.376 4.032 47.488 4.032z" />
<glyph unicode="&#xef89;" glyph-name="moon-cloud-rain-line" d="M622 960.612c-38.136-13.108-60.4-25.716-89.96-50.948-44.884-38.312-75.596-85.748-90.020-139.036-6.724-24.848-6.912-25.064-27.396-32.2-51.444-17.924-108.028-60.98-134.652-102.472l-12.64-19.696-36.696 2.408c-64.372 4.228-112.972-13.448-156.412-56.892-79-78.996-77.52-203.412 3.344-281.060 42.864-41.16 84.904-56.716 153.272-56.716 35.828 0 42.196 1.036 49.16 8 10.004 10.004 10.22 21.78 0.572 31.428-6.144 6.144-15.696 7.768-55.328 9.4-40.968 1.688-51.332 3.536-71.576 12.768-47.628 21.72-82.824 70.032-88.152 121.012-11.052 105.732 88.8 189.22 190.268 159.088 30.212-8.976 36.792-6.052 52.316 23.232 7.312 13.788 25.128 36.944 39.596 51.456 83.58 83.84 215.132 83.972 300.1 0.296 20.776-20.46 31.032-34.844 43.996-61.692 20.888-43.264 24.424-44.652 63.404-24.848 80.504 40.9 169.344 9.78 207.804-72.788 9.296-19.968 10.876-28.572 10.876-59.352 0-30.656-1.592-39.416-10.724-59.012-15.104-32.42-45.768-63.48-76.116-77.1-21.264-9.54-31.452-11.38-72.464-13.068-39.456-1.624-49.004-3.252-55.144-9.392-9.648-9.648-9.432-21.424 0.572-31.428 6.964-6.964 13.332-8 49.16-8 68.368 0 110.408 15.556 153.272 56.716 76.016 72.992 82.152 191.52 14.020 270.872l-15.1 17.588 11.3 27.764c21.276 52.288 25.22 140.884 7.004 157.372-6.956 6.296-10.5 6.548-33.184 2.368-73.904-13.62-139.44 7.336-188.692 60.336-31.88 34.308-53.78 86.792-53.78 128.896 0 7.432-2.828 16.344-6.284 19.804-9.468 9.464-39.14 7.468-75.716-5.104M662.724 896.024c12.080-63.56 68.032-134.944 129.376-165.056 37.764-18.532 83.352-28.276 122.972-26.272l29.952 1.512-2.456-29.044c-2.108-24.944-14.14-70.068-20.332-76.26-1.088-1.088-13.284 2.316-27.104 7.56-34.796 13.204-101.848 13.592-136.032 0.788l-22.9-8.576-12.964 22.66c-16.472 28.792-58.22 70.64-89.276 89.488-32.012 19.424-76.936 34.048-115.248 37.508-31.216 2.816-31.284 2.848-28.712 13.244 6.38 25.816 29.616 64.128 55.332 91.24 27.824 29.332 50.436 45.128 82.668 57.756 28.168 11.036 29.616 10.348 34.724-16.548M376 424c-7.688-7.688-8-13.332-8-144s0.312-136.312 8-144c4.4-4.4 11.6-8 16-8s11.6 3.6 16 8c7.688 7.688 8 13.332 8 144s-0.312 136.312-8 144c-4.4 4.4-11.6 8-16 8s-11.6-3.6-16-8M632 424c-7.688-7.688-8-13.332-8-144s0.312-136.312 8-144c4.4-4.4 11.6-8 16-8s11.6 3.6 16 8c7.688 7.688 8 13.332 8 144s-0.312 136.312-8 144c-4.4 4.4-11.6 8-16 8s-11.6-3.6-16-8M504 328c-7.688-7.688-8-13.332-8-144s0.312-136.312 8-144c4.4-4.4 11.6-8 16-8s11.6 3.6 16 8c7.688 7.688 8 13.332 8 144s-0.312 136.312-8 144c-4.4 4.4-11.6 8-16 8s-11.6-3.6-16-8" />
<glyph unicode="&#xef8a;" glyph-name="moon-cloud-snow-61" d="M490.192 784c104.176 0 199.024-55.952 249.824-144.976 24.72 9.248 51.008 14.064 77.44 14.064 52.72 0 101.136-18.512 139.312-49.264 12.56 31.728 19.232 65.664 19.232 100.192 0 13.296-1.216 27.36-3.712 43.008-0.704 4.512-3.328 8.496-7.168 10.96-3.84 2.448-8.528 3.12-12.944 1.936-18.688-5.248-37.6-7.904-56.176-7.904-113.536 0-206.784 92.384-207.888 205.952-0.048 4.56-2.032 8.896-5.472 11.888-3.424 3.008-8 4.352-12.512 3.824-109.632-13.648-197.792-90.704-227.44-193.712 15.536 2.576 31.392 4.032 47.504 4.032zM817.456 620.656c-32.416 0-63.936-8.272-92.224-24.064-40.096 93.472-132.192 154.976-235.040 154.976-96.4 0-184.304-54.304-227.888-139.536-18.352 5.728-37.040 8.624-55.744 8.624-105.072 0-190.56-85.488-190.56-190.56s85.488-190.544 190.544-190.544h610.912c105.056 0 190.544 85.472 190.544 190.544s-85.488 190.56-190.544 190.56zM498.688 184.88c-3.552-5.328-34.688-53.072-34.688-88.88 0-26.464 21.536-48 48-48s48 21.536 48 48c0 35.808-31.136 83.552-34.688 88.88-5.936 8.896-20.688 8.896-26.624 0zM307.36 201.376c-3.232-4.16-19.36-25.84-19.36-44.096 0-16.384 14.352-29.712 32-29.712s32 13.328 32 29.712c0 18.272-16.128 39.936-19.36 44.112-6.064 7.776-19.216 7.776-25.28-0.016zM716.64 201.376c-6.064 7.776-19.2 7.776-25.264 0-3.248-4.16-19.376-25.84-19.376-44.096 0-16.384 14.352-29.712 32-29.712s32 13.328 32 29.712c0 18.256-16.128 39.936-19.36 44.096z" />
<glyph unicode="&#xef8b;" glyph-name="moon-cloud-snow-61-line" d="M622 960.612c-38.136-13.108-60.4-25.716-89.96-50.948-44.884-38.312-75.596-85.748-90.020-139.036-6.724-24.848-6.912-25.064-27.396-32.2-51.444-17.924-108.028-60.98-134.652-102.472l-12.64-19.696-36.696 2.408c-64.372 4.228-112.972-13.448-156.412-56.892-79-78.996-77.52-203.412 3.344-281.060 42.864-41.16 84.904-56.716 153.272-56.716 35.828 0 42.196 1.036 49.16 8 10.004 10.004 10.22 21.78 0.572 31.428-6.144 6.144-15.696 7.768-55.328 9.4-40.968 1.688-51.332 3.536-71.576 12.768-47.628 21.72-82.824 70.032-88.152 121.012-11.052 105.732 88.8 189.22 190.268 159.088 30.212-8.976 36.792-6.052 52.316 23.232 7.312 13.788 25.128 36.944 39.596 51.456 83.58 83.84 215.132 83.972 300.1 0.296 20.776-20.46 31.032-34.844 43.996-61.692 20.888-43.264 24.424-44.652 63.404-24.848 80.504 40.9 169.344 9.78 207.804-72.788 9.296-19.968 10.876-28.572 10.876-59.352 0-30.656-1.592-39.416-10.724-59.012-15.104-32.42-45.768-63.48-76.116-77.1-21.264-9.54-31.452-11.38-72.464-13.068-39.456-1.624-49.004-3.252-55.144-9.392-9.648-9.648-9.432-21.424 0.572-31.428 6.964-6.964 13.332-8 49.16-8 68.368 0 110.408 15.556 153.272 56.716 76.016 72.992 82.152 191.52 14.020 270.872l-15.1 17.588 11.3 27.764c21.276 52.288 25.22 140.884 7.004 157.372-6.956 6.296-10.5 6.548-33.184 2.368-73.904-13.62-139.44 7.336-188.692 60.336-31.88 34.308-53.78 86.792-53.78 128.896 0 7.432-2.828 16.344-6.284 19.804-9.468 9.464-39.14 7.468-75.716-5.104M662.724 896.024c12.080-63.56 68.032-134.944 129.376-165.056 37.764-18.532 83.352-28.276 122.972-26.272l29.952 1.512-2.456-29.044c-2.108-24.944-14.14-70.068-20.332-76.26-1.088-1.088-13.284 2.316-27.104 7.56-34.796 13.204-101.848 13.592-136.032 0.788l-22.9-8.576-12.964 22.66c-16.472 28.792-58.22 70.64-89.276 89.488-32.012 19.424-76.936 34.048-115.248 37.508-31.216 2.816-31.284 2.848-28.712 13.244 6.38 25.816 29.616 64.128 55.332 91.24 27.824 29.332 50.436 45.128 82.668 57.756 28.168 11.036 29.616 10.348 34.724-16.548M376 392c-6.224-6.224-8-13.332-8-32 0-26.084 8.348-40 24-40s24 13.916 24 40c0 26.084-8.348 40-24 40-4.4 0-11.6-3.6-16-8M632 392c-6.224-6.224-8-13.332-8-32 0-26.084 8.348-40 24-40s24 13.916 24 40c0 26.084-8.348 40-24 40-4.4 0-11.6-3.6-16-8M504 296c-6.224-6.224-8-13.332-8-32 0-26.084 8.348-40 24-40s24 13.916 24 40c0 26.084-8.348 40-24 40-4.4 0-11.6-3.6-16-8M376 200c-6.224-6.224-8-13.332-8-32 0-26.084 8.348-40 24-40s24 13.916 24 40c0 26.084-8.348 40-24 40-4.4 0-11.6-3.6-16-8M632 200c-6.224-6.224-8-13.332-8-32 0-26.084 8.348-40 24-40s24 13.916 24 40c0 26.084-8.348 40-24 40-4.4 0-11.6-3.6-16-8M504 104c-6.224-6.224-8-13.332-8-32 0-26.084 8.348-40 24-40s24 13.916 24 40c0 26.084-8.348 40-24 40-4.4 0-11.6-3.6-16-8" />
<glyph unicode="&#xef8c;" glyph-name="moon-cloud-snow-62" d="M490.192 784c104.176 0 199.024-55.952 249.824-144.976 24.72 9.248 51.008 14.064 77.44 14.064 52.72 0 101.136-18.512 139.312-49.264 12.56 31.728 19.232 65.664 19.232 100.192 0 13.296-1.216 27.36-3.712 43.008-0.704 4.512-3.328 8.496-7.168 10.96-3.84 2.448-8.528 3.12-12.944 1.936-18.688-5.248-37.6-7.904-56.176-7.904-113.536 0-206.784 92.384-207.888 205.952-0.048 4.56-2.032 8.896-5.472 11.888-3.424 3.008-8 4.352-12.512 3.824-109.632-13.648-197.792-90.704-227.44-193.712 15.536 2.576 31.392 4.032 47.504 4.032zM817.456 621.088c-32.416 0-63.936-8.272-92.224-24.064-40.096 93.472-132.192 154.976-235.040 154.976-96.4 0-184.304-54.304-227.888-139.536-18.352 5.728-37.040 8.624-55.744 8.624-105.072 0-190.56-85.472-190.56-190.544s85.488-190.544 190.544-190.544h179.216c-1.84 2.32-4.208 4.544-7.472 6.416-22.912 13.232-30.8 42.64-17.584 65.568 8.544 14.832 24.48 24.032 41.584 24.032 8.4 0 16.688-2.24 24-6.432 4.080-2.352 8.416-3.568 12.864-3.568 12.496 0 26 9.936 26 25.984 0 26.464 21.536 48 48 48s48-21.536 48-48c0-9.168 4.24-15.152 7.792-18.56 4.928-4.72 11.552-7.424 18.192-7.424 4.448 0 8.784 1.2 12.864 3.568 7.248 4.208 15.552 6.432 23.984 6.432 17.088 0 33.024-9.184 41.584-23.984 13.248-22.976 5.344-52.368-17.552-65.6-3.248-1.872-5.632-4.112-7.472-6.432h176.928c105.040 0 190.528 85.472 190.528 190.544s-85.488 190.544-190.544 190.544zM632 173.856v0c-38.592 22.288-38.592 78 0 100.288v0c7.664 4.416 10.272 14.208 5.856 21.856-4.432 7.648-14.24 10.304-21.856 5.856v0c-38.592-22.288-86.848 5.568-86.848 50.144v0c0 8.832-7.168 16-16 16s-16-7.168-16-16v0c0-44.576-48.24-72.432-86.848-50.144v0c-7.68 4.432-17.44 1.792-21.856-5.856-4.416-7.664-1.792-17.44 5.856-21.856v0c38.592-22.288 38.592-78 0-100.288v0c-7.664-4.416-10.272-14.208-5.856-21.856 2.976-5.136 8.336-8 13.872-8 2.704 0 5.472 0.688 7.984 2.144v0c38.592 22.288 86.848-5.568 86.848-50.144v0c0-8.832 7.168-16 16-16s16 7.168 16 16v0c0 44.576 48.24 72.432 86.848 50.144v0c2.512-1.456 5.264-2.144 7.984-2.144 5.536 0 10.912 2.864 13.872 8 4.416 7.664 1.792 17.44-5.856 21.856z" />
</font>
</defs>
</svg>
