<?xml version="1.0" standalone="no"?>
<!DOCTYPE svg PUBLIC "-//W3C//DTD SVG 1.1//EN" "http://www.w3.org/Graphics/SVG/1.1/DTD/svg11.dtd" >
<svg xmlns="http://www.w3.org/2000/svg">
<metadata>Generated by IcoMoon</metadata>
<defs>
<font id="ucalgary" horiz-adv-x="1024">
<font-face units-per-em="1024" ascent="960" descent="-64" />
<missing-glyph horiz-adv-x="1024" />
<glyph unicode="&#x20;" horiz-adv-x="512" d="" />
<glyph unicode="&#xe900;" glyph-name="uniE900" d="M512 934.4c-268.8 0-486.4-217.6-486.4-486.4s217.6-486.4 486.4-486.4 486.4 217.6 486.4 486.4c0 268.8-217.6 486.4-486.4 486.4z" />
<glyph unicode="&#xe901;" glyph-name="uniE901" d="M710.4 601.6c-3.2 3.2-9.6 9.6-12.8 16-25.6 32-57.6 67.2-96 70.4-22.4 0-44.8-6.4-64-25.6-38.4-35.2-80-76.8-121.6-121.6-35.2-41.6-35.2-86.4 3.2-121.6 35.2-35.2 44.8-44.8 48-48 6.4-6.4 12.8-9.6 19.2-9.6s12.8 3.2 16 6.4c9.6 9.6 12.8 25.6 3.2 35.2-3.2 3.2-9.6 12.8-51.2 51.2-16 16-19.2 28.8 0 54.4 41.6 41.6 80 83.2 118.4 118.4 16 12.8 25.6 12.8 25.6 12.8 19.2 0 41.6-28.8 60.8-51.2 3.2-6.4 9.6-9.6 12.8-16 19.2-22.4 19.2-38.4 0-57.6-9.6-9.6-6.4-25.6 3.2-35.2s25.6-6.4 35.2 3.2c32 35.2 32 80 0 118.4z" />
<glyph unicode="&#xe902;" glyph-name="uniE902" d="M576 528c-9.6 9.6-25.6 9.6-35.2 0s-9.6-25.6 0-35.2c3.2-6.4 16-16 57.6-51.2 9.6-9.6 12.8-16 12.8-22.4 0-9.6-9.6-22.4-16-28.8-44.8-44.8-89.6-83.2-128-118.4-32-28.8-51.2-16-99.2 38.4-3.2 6.4-9.6 9.6-12.8 16-19.2 19.2-19.2 35.2 0 57.6 9.6 9.6 9.6 25.6 0 35.2s-25.6 9.6-35.2 0c-35.2-38.4-35.2-83.2 0-124.8 3.2-3.2 9.6-9.6 12.8-16 25.6-28.8 64-70.4 108.8-70.4 19.2 0 38.4 6.4 60.8 25.6 41.6 35.2 86.4 76.8 131.2 121.6 19.2 22.4 32 44.8 28.8 67.2 0 22.4-12.8 41.6-32 57.6-38.4 32-51.2 44.8-54.4 48z" />
<glyph unicode="&#xe903;" glyph-name="bullhorn" d="M96 544c-64-6.4-96-44.8-96-108.8s32-102.4 96-108.8v217.6zM979.2 870.4c25.6 0 44.8-19.2 44.8-44.8v-742.4c0-25.6-19.2-44.8-44.8-44.8s-44.8 19.2-44.8 44.8v742.4c0 25.6 19.2 44.8 44.8 44.8zM889.6 729.6c-6.4 44.8-19.2 76.8-51.2 89.6-25.6 12.8-64 6.4-96-19.2-32-19.2-115.2-64-345.6-160h-204.8c-25.6 0-44.8-19.2-44.8-44.8v-288c0-25.6 19.2-44.8 44.8-44.8h64v-166.4c0-38.4 32-70.4 70.4-70.4s70.4 32 70.4 70.4v166.4c102.4 0 243.2-89.6 313.6-134.4l25.6-12.8c12.8-6.4 38.4-25.6 70.4-25.6 12.8 0 25.6 0 32 6.4 19.2 6.4 38.4 32 44.8 83.2l6.4 550.4z" />
<glyph unicode="&#xe904;" glyph-name="camera" d="M508.8 492.8c-70.4 0-128-57.6-128-128s57.6-128 128-128 128 57.6 128 128-57.6 128-128 128zM876.8 704h-70.4c6.4 16 0 28.8-6.4 48l-12.8 28.8c-16 57.6-76.8 92.8-134.4 92.8h-268.8c-48 0-92.8-22.4-121.6-64l-22.4-41.6c-6.4-12.8-12.8-25.6-12.8-35.2s0-16 6.4-22.4h-86.4c-83.2-3.2-147.2-67.2-147.2-147.2v-393.6c0-83.2 64-147.2 147.2-147.2h732.8c83.2 0 147.2 64 147.2 147.2v393.6c-3.2 73.6-73.6 140.8-150.4 140.8zM508.8 153.6c-118.4 0-211.2 92.8-211.2 211.2s92.8 211.2 211.2 211.2 217.6-92.8 211.2-211.2c0-118.4-92.8-211.2-211.2-211.2zM806.4 486.4c-48 0-86.4 38.4-86.4 86.4s38.4 86.4 86.4 86.4c48 0 86.4-38.4 86.4-86.4 3.2-48-38.4-86.4-86.4-86.4z" />
<glyph unicode="&#xe905;" glyph-name="chevron" d="M515.2 281.6c-12.8 0-25.6 6.4-35.2 16l-214.4 233.6c-16 19.2-16 48 3.2 67.2 19.2 16 48 16 67.2-3.2l179.2-195.2 169.6 195.2c16 19.2 44.8 22.4 67.2 3.2 19.2-16 22.4-44.8 3.2-67.2l-204.8-233.6c-9.6-9.6-22.4-16-35.2-16v0z" />
<glyph unicode="&#xe906;" glyph-name="close" d="M723.2 284.8l-163.2 166.4 160 156.8c12.8 12.8 12.8 35.2 0 48s-35.2 12.8-48 0l-160-153.6-160 156.8c-12.8 12.8-35.2 12.8-51.2 0-12.8-12.8-12.8-35.2 3.2-51.2l160-156.8-160-166.4c-12.8-12.8-12.8-35.2 0-48 6.4-6.4 16-9.6 25.6-9.6s19.2 3.2 25.6 9.6l160 166.4 160-166.4c6.4-6.4 16-9.6 25.6-9.6s16 3.2 25.6 9.6c9.6 12.8 9.6 35.2-3.2 48z" />
<glyph unicode="&#xe907;" glyph-name="exclamation" d="M486.4 304l-22.4 387.2c3.2 35.2 25.6 54.4 67.2 54.4s67.2-19.2 70.4-54.4l-22.4-387.2c-6.4-16-22.4-25.6-48-25.6s-38.4 9.6-44.8 25.6zM604.8 144c0-38.4-32-67.2-70.4-67.2s-70.4 28.8-70.4 67.2c0 38.4 32 67.2 70.4 67.2s70.4-32 70.4-67.2z" />
<glyph unicode="&#xe908;" glyph-name="link-arrow" d="M784 451.2c0 9.6-3.2 19.2-9.6 25.6l-185.6 182.4c-12.8 12.8-35.2 12.8-48 0s-12.8-35.2 0-48l128-124.8h-393.6c-19.2 0-35.2-16-35.2-35.2s16-35.2 35.2-35.2h387.2l-124.8-128c-12.8-12.8-12.8-35.2 0-48 6.4-6.4 16-9.6 25.6-9.6s19.2 3.2 25.6 9.6l172.8 179.2c12.8 3.2 22.4 12.8 22.4 32 0-6.4 0-6.4 0 0 0-3.2 0-3.2 0 0z" />
<glyph unicode="&#xe909;" glyph-name="uniE909" d="M512 960c-281.6 0-512-230.4-512-512s230.4-512 512-512 512 230.4 512 512-230.4 512-512 512zM736 627.2l-233.6-377.6c-3.2-12.8-12.8-16-25.6-19.2-12.8 0-22.4 6.4-28.8 16l-147.2 201.6c-12.8 16-6.4 38.4 6.4 48 16 12.8 38.4 6.4 48-6.4l115.2-160 204.8 332.8c9.6 16 32 22.4 48 12.8s22.4-32 12.8-48z" />
<glyph unicode="&#xe90a;" glyph-name="uniE90A" d="M476.8 230.4c-12.8 0-22.4 6.4-28.8 16l-147.2 201.6c-12.8 16-6.4 38.4 6.4 48 16 12.8 38.4 6.4 48-6.4l115.2-160 204.8 332.8c9.6 16 32 22.4 48 12.8s22.4-32 12.8-48l-233.6-377.6c-3.2-12.8-12.8-16-25.6-19.2v0z" />
<glyph unicode="&#xe90b;" glyph-name="uniE90B" d="M512 960c-281.6 0-512-230.4-512-512s230.4-512 512-512 512 230.4 512 512-230.4 512-512 512zM675.2 316.8c9.6-9.6 9.6-28.8 0-38.4-6.4-3.2-12.8-6.4-19.2-6.4s-12.8 3.2-19.2 9.6l-128 131.2-124.8-128c-6.4-6.4-12.8-9.6-19.2-9.6s-12.8 0-19.2 6.4c-9.6 9.6-9.6 28.8 0 38.4l128 131.2-124.8 124.8c-9.6 9.6-9.6 28.8 0 38.4s28.8 9.6 38.4 0l124.8-124.8 128 124.8c9.6 9.6 28.8 9.6 38.4 0s9.6-28.8 0-38.4l-128-124.8 124.8-134.4z" />
<glyph unicode="&#xe90c;" glyph-name="uniE90C" d="M550.4 451.2l128 124.8c9.6 9.6 9.6 28.8 0 38.4s-28.8 9.6-38.4 0l-128-124.8-124.8 124.8c-9.6 9.6-28.8 9.6-38.4 0s-9.6-28.8 0-38.4l124.8-124.8-128-131.2c-9.6-9.6-9.6-28.8 0-38.4 6.4-6.4 12.8-6.4 19.2-6.4s12.8 3.2 19.2 9.6l124.8 128 128-131.2c6.4-6.4 12.8-9.6 19.2-9.6s12.8 3.2 19.2 6.4c9.6 9.6 9.6 28.8 0 38.4l-124.8 134.4z" />
<glyph unicode="&#xe90d;" glyph-name="uniE90D" d="M512 960c-281.6 0-512-230.4-512-512s230.4-512 512-512 512 230.4 512 512c0 281.6-230.4 512-512 512zM492.8 192c-28.8 0-54.4 22.4-54.4 54.4s25.6 54.4 54.4 54.4 54.4-22.4 54.4-54.4c0-32-22.4-54.4-54.4-54.4zM531.2 371.2c-6.4-12.8-19.2-19.2-38.4-19.2s-32 6.4-35.2 19.2v0l-16 304c3.2 28.8 19.2 41.6 54.4 41.6s51.2-12.8 57.6-41.6l-22.4-304z" />
<glyph unicode="&#xe90e;" glyph-name="uniE90E" d="M454.4 371.2l-16 304c3.2 28.8 19.2 41.6 54.4 41.6s51.2-12.8 54.4-41.6l-19.2-304c-3.2-12.8-16-19.2-35.2-19.2-22.4 0-32 6.4-38.4 19.2v0z" />
<glyph unicode="&#xe90f;" glyph-name="uniE90F" d="M547.2 246.4c0-28.8-25.6-54.4-54.4-54.4s-54.4 22.4-54.4 54.4 25.6 54.4 54.4 54.4c32-3.2 54.4-25.6 54.4-54.4z" />
<glyph unicode="&#xe910;" glyph-name="uniE910" d="M512 960c-281.6 0-512-230.4-512-512s230.4-512 512-512 512 230.4 512 512c0 281.6-230.4 512-512 512zM492.8 192c-28.8 0-54.4 22.4-54.4 54.4s25.6 54.4 54.4 54.4 54.4-22.4 54.4-54.4c0-32-22.4-54.4-54.4-54.4zM531.2 371.2c-6.4-12.8-19.2-19.2-38.4-19.2s-32 6.4-35.2 19.2v0l-16 304c3.2 28.8 19.2 41.6 54.4 41.6s51.2-12.8 57.6-41.6l-22.4-304z" />
<glyph unicode="&#xe911;" glyph-name="uniE911" d="M454.4 371.2l-16 304c3.2 28.8 19.2 41.6 54.4 41.6s51.2-12.8 54.4-41.6l-19.2-304c-3.2-12.8-16-19.2-35.2-19.2-22.4 0-32 6.4-38.4 19.2v0z" />
<glyph unicode="&#xe912;" glyph-name="uniE912" d="M547.2 246.4c0-28.8-25.6-54.4-54.4-54.4s-54.4 22.4-54.4 54.4 25.6 54.4 54.4 54.4c32-3.2 54.4-25.6 54.4-54.4z" />
<glyph unicode="&#xe913;" glyph-name="uniE913" d="M873.6 809.6c-198.4 198.4-524.8 198.4-723.2 0s-198.4-524.8 0-723.2 524.8-198.4 723.2 0 198.4 524.8 0 723.2zM720 419.2c-12.8 0-179.2 0-179.2 0s0-169.6 0-179.2c0-16-12.8-28.8-28.8-28.8s-28.8 12.8-28.8 28.8c0 9.6 0 179.2 0 179.2s-166.4 0-179.2 0c-16 0-28.8 12.8-28.8 28.8s12.8 28.8 28.8 28.8c12.8 0 179.2 0 179.2 0s0 169.6 0 179.2c0 16 12.8 28.8 28.8 28.8s28.8-12.8 28.8-28.8c0-12.8 0-179.2 0-179.2s166.4 0 179.2 0c16 0 28.8-12.8 28.8-28.8s-12.8-28.8-28.8-28.8z" />
<glyph unicode="&#xe914;" glyph-name="uniE914" d="M720 476.8c-12.8 0-179.2 0-179.2 0s0 169.6 0 179.2c0 16-12.8 28.8-28.8 28.8s-28.8-12.8-28.8-28.8c0-9.6 0-179.2 0-179.2s-166.4 0-179.2 0c-16 0-28.8-12.8-28.8-28.8s12.8-28.8 28.8-28.8c12.8 0 179.2 0 179.2 0s0-169.6 0-179.2c0-16 12.8-28.8 28.8-28.8s28.8 12.8 28.8 28.8c0 12.8 0 179.2 0 179.2s166.4 0 179.2 0c16 0 28.8 12.8 28.8 28.8s-12.8 28.8-28.8 28.8z" />
<glyph unicode="&#xe915;" glyph-name="uniE915" d="M512 960c-281.6 0-512-230.4-512-512s230.4-512 512-512 512 230.4 512 512-230.4 512-512 512zM492.8 156.8c-28.8 0-51.2 22.4-51.2 51.2s22.4 51.2 51.2 51.2c28.8 0 51.2-22.4 51.2-51.2s-22.4-51.2-51.2-51.2zM614.4 473.6c-19.2-22.4-38.4-41.6-54.4-57.6s-28.8-28.8-32-38.4c-6.4-9.6-6.4-12.8-6.4-35.2v-6.4c0-12.8-12.8-25.6-28.8-25.6s-28.8 12.8-28.8 28.8v6.4c0 25.6 0 38.4 12.8 60.8 6.4 12.8 22.4 28.8 41.6 48 16 16 32 35.2 51.2 54.4 32 38.4 22.4 92.8 0 112-22.4 22.4-92.8 19.2-121.6 3.2-9.6-6.4-25.6-19.2-25.6-51.2 0-16-12.8-28.8-28.8-28.8s-28.8 12.8-28.8 28.8c0 54.4 28.8 83.2 51.2 96 57.6 35.2 156.8 35.2 198.4-6.4s51.2-128 0-188.8z" />
<glyph unicode="&#xe916;" glyph-name="uniE916" d="M492.8 259.2c-28.8 0-51.2-22.4-51.2-51.2s22.4-51.2 51.2-51.2c28.8 0 51.2 22.4 51.2 51.2s-22.4 51.2-51.2 51.2z" />
<glyph unicode="&#xe917;" glyph-name="uniE917" d="M614.4 662.4c-41.6 41.6-140.8 41.6-198.4 6.4-22.4-12.8-51.2-41.6-51.2-96 0-16 12.8-28.8 28.8-28.8s28.8 12.8 28.8 28.8c0 32 16 44.8 25.6 51.2 28.8 16 99.2 19.2 121.6-3.2 22.4-19.2 32-73.6 0-112-19.2-19.2-35.2-38.4-51.2-54.4-19.2-19.2-35.2-35.2-41.6-48-12.8-22.4-12.8-35.2-12.8-60.8v-6.4c0-16 12.8-28.8 28.8-28.8s28.8 12.8 28.8 25.6v6.4c0 22.4 0 25.6 6.4 35.2 3.2 9.6 16 22.4 32 38.4s35.2 35.2 54.4 57.6c51.2 60.8 41.6 147.2 0 188.8z" />
<glyph unicode="&#xe918;" glyph-name="search" d="M787.2 268.8l-115.2 70.4c-3.2 3.2-6.4 3.2-9.6 3.2 16 32 25.6 67.2 25.6 105.6 0 121.6-99.2 220.8-220.8 220.8s-224-99.2-224-220.8 99.2-220.8 220.8-220.8c60.8 0 115.2 25.6 156.8 64 3.2-6.4 6.4-9.6 12.8-12.8l115.2-70.4c6.4-3.2 12.8-6.4 19.2-6.4 12.8 0 22.4 6.4 28.8 16 9.6 19.2 6.4 41.6-9.6 51.2zM464 297.6c-83.2 0-150.4 67.2-150.4 150.4s67.2 150.4 150.4 150.4 150.4-67.2 150.4-150.4-64-150.4-150.4-150.4z" />
<glyph unicode="&#xe919;" glyph-name="uniE919" d="M534.4 854.4c-224 0-406.4-182.4-406.4-406.4s182.4-406.4 406.4-406.4c224 0 406.4 182.4 406.4 406.4s-182.4 406.4-406.4 406.4z" />
<glyph unicode="&#xe91a;" glyph-name="uniE91A" d="M518.4 300.8c-9.6 0-19.2 3.2-25.6 12.8l-99.2 112c-12.8 16-12.8 35.2 3.2 48s35.2 12.8 48-3.2l70.4-80 150.4 192c12.8 16 35.2 19.2 48 6.4 16-12.8 19.2-35.2 6.4-48l-176-227.2c-3.2-9.6-12.8-12.8-25.6-12.8 0 0 0 0 0 0z" />
<glyph unicode="&#xe91b;" glyph-name="uniE91B" d="M534.4 854.4c-224 0-406.4-182.4-406.4-406.4s182.4-406.4 406.4-406.4c224 0 406.4 182.4 406.4 406.4s-182.4 406.4-406.4 406.4z" />
<glyph unicode="&#xe91c;" glyph-name="uniE91C" d="M518.4 300.8c-9.6 0-19.2 3.2-25.6 12.8l-99.2 112c-12.8 16-12.8 35.2 3.2 48s35.2 12.8 48-3.2l70.4-80 150.4 192c12.8 16 35.2 19.2 48 6.4 16-12.8 19.2-35.2 6.4-48l-176-227.2c-3.2-9.6-12.8-12.8-25.6-12.8 0 0 0 0 0 0z" />
<glyph unicode="&#xe91d;" glyph-name="uniE91D" d="M534.4 854.4c-224 0-406.4-182.4-406.4-406.4s182.4-406.4 406.4-406.4c224 0 406.4 182.4 406.4 406.4s-182.4 406.4-406.4 406.4z" />
<glyph unicode="&#xe91e;" glyph-name="uniE91E" d="M700.8 332.8l-115.2 118.4 115.2 112c12.8 12.8 12.8 35.2 0 48s-35.2 12.8-48 0l-115.2-112-115.2 112c-12.8 12.8-35.2 12.8-48 0s-12.8-35.2 0-48l115.2-112-115.2-118.4c-12.8-12.8-12.8-35.2 0-48 6.4-6.4 16-9.6 25.6-9.6s19.2 3.2 25.6 9.6l115.2 118.4 115.2-118.4c6.4-6.4 16-9.6 25.6-9.6s16 3.2 25.6 9.6c6.4 12.8 6.4 35.2-6.4 48z" />
<glyph unicode="&#xe91f;" glyph-name="webform-bullet" d="M1024 448c0-282.77-229.23-512-512-512s-512 229.23-512 512c0 282.77 229.23 512 512 512s512-229.23 512-512z" />
<glyph unicode="&#xe920;" glyph-name="webform-checkmark" d="M1014.4 841.6l-537.6-864c-6.4-28.8-28.8-35.2-57.6-44.8-28.8 0-51.2 16-67.2 35.2l-336 464c-28.8 35.2-16 86.4 16 108.8 35.2 28.8 89.6 16 108.8-16l262.4-364.8 470.4 764.8c22.4 35.2 73.6 51.2 112 28.8 35.2-22.4 51.2-73.6 28.8-112z" />
<glyph unicode="&#xe921;" glyph-name="webform-drag" d="M976 486.4l-176 140.8c-19.2 16-44.8 12.8-60.8-6.4s-12.8-44.8 6.4-60.8l83.2-67.2h-275.2v268.8l67.2-80c16-19.2 41.6-19.2 60.8-6.4 19.2 16 19.2 41.6 6.4 60.8l-144 176c-9.6 9.6-19.2 16-35.2 16-12.8 0-25.6-6.4-32-16l-144-176c-16-16-12.8-44.8 6.4-60.8 9.6-6.4 19.2-9.6 28.8-9.6 12.8 0 25.6 6.4 35.2 16l67.2 83.2v-272h-275.2l83.2 67.2c19.2 16 22.4 41.6 6.4 60.8s-44.8 22.4-64 6.4l-176-144c-6.4-9.6-12.8-22.4-12.8-35.2s6.4-25.6 16-32l166.4-147.2c9.6-6.4 19.2-9.6 28.8-9.6 12.8 0 25.6 6.4 32 16 16 16 12.8 44.8-3.2 60.8l-80 67.2h275.2v-275.2l-67.2 83.2c-16 19.2-41.6 22.4-60.8 6.4s-22.4-41.6-6.4-60.8l140.8-176c9.6-9.6 19.2-16 32-16 0 0 0 0 0 0 12.8 0 25.6 6.4 32 16l147.2 176c16 19.2 12.8 44.8-6.4 60.8s-44.8 12.8-60.8-6.4l-67.2-80v272h281.6l-73.6-70.4c-16-16-19.2-44.8-3.2-60.8 9.6-9.6 19.2-12.8 32-12.8 9.6 0 22.4 3.2 28.8 12.8l160 150.4c9.6 9.6 12.8 22.4 12.8 32 3.2 12.8-3.2 25.6-12.8 32z" />
<glyph unicode="&#xe922;" glyph-name="webform-enlarge" d="M966.4 163.2l-198.4 118.4c-6.4 6.4-9.6 6.4-16 6.4 28.8 54.4 44.8 115.2 44.8 182.4 0 208-169.6 377.6-377.6 377.6s-387.2-169.6-387.2-377.6 169.6-377.6 377.6-377.6c105.6 0 198.4 44.8 268.8 108.8 6.4-9.6 9.6-16 22.4-22.4l198.4-121.6c9.6-6.4 22.4-9.6 32-9.6 22.4 0 38.4 9.6 48 28.8 19.2 32 16 70.4-12.8 86.4zM409.6 211.2c-144 0-259.2 115.2-259.2 259.2s115.2 259.2 259.2 259.2 259.2-115.2 259.2-259.2-108.8-259.2-259.2-259.2zM566.4 486.4c-9.6 0-134.4 0-134.4 0s0 128 0 134.4c0 12.8-9.6 22.4-22.4 22.4s-22.4-9.6-22.4-22.4c0-6.4 0-134.4 0-134.4s-124.8 0-134.4 0c-12.8 0-22.4-9.6-22.4-22.4s9.6-22.4 22.4-22.4c9.6 0 134.4 0 134.4 0s0-128 0-134.4c0-12.8 9.6-22.4 22.4-22.4s22.4 9.6 22.4 22.4c0 9.6 0 134.4 0 134.4s124.8 0 134.4 0c12.8 0 22.4 9.6 22.4 22.4s-9.6 22.4-22.4 22.4z" />
<glyph unicode="&#xe923;" glyph-name="webform-remove" d="M963.2 89.6c25.6-25.6 25.6-80 0-105.6-19.2-9.6-35.2-19.2-54.4-19.2s-35.2 9.6-54.4 25.6l-352 364.8-345.6-355.2c-19.2-19.2-35.2-25.6-54.4-25.6s-35.2 0-54.4 19.2c-25.6 25.6-25.6 80 0 105.6l355.2 361.6-342.4 345.6c-25.6 25.6-25.6 80 0 105.6s80 25.6 105.6 0l345.6-345.6 355.2 345.6c25.6 25.6 80 25.6 105.6 0s25.6-80 0-105.6l-355.2-345.6 345.6-371.2z" />
<glyph unicode="&#xe924;" glyph-name="map-pin" d="M511.885-63.413c279.935 0 511.707 232.275 511.707 511.707 0 279.933-232.275 511.706-512.209 511.706-279.431 0-511.204-231.773-511.204-511.706 0-279.432 232.274-511.707 511.706-511.707zM511.885 21.874c-236.79 0-425.92 189.632-425.92 426.42 0 236.79 188.629 426.421 425.418 426.421 236.787 0 426.922-189.632 426.922-426.421s-189.632-426.42-426.42-426.42zM397.002 635.92c0-50.669 33.612-93.813 79.766-108.361v-252.342c0-73.245 12.040-138.461 34.615-138.461 23.077 0 34.112 64.214 34.112 138.461v252.342c46.655 14.047 80.268 57.191 80.268 108.361 0 63.211-51.171 114.381-114.38 114.381-62.709 0-114.381-51.17-114.381-114.381zM445.664 665.519c-0.502 19.565 17.057 36.622 36.12 36.622 20.067 0 36.623-17.057 36.623-36.622s-16.556-36.622-36.623-36.622c-19.063 0-36.12 17.057-36.12 36.622z" />
<glyph unicode="&#xe925;" glyph-name="clock" d="M249.511 394.115h261.873c19.564 0 35.119 15.047 35.119 35.117v338.125c0 19.565-15.555 34.615-35.119 34.615s-34.615-15.050-34.615-34.615v-303.512h-227.257c-20.067 0-35.117-15.050-35.117-34.614 0-20.071 15.050-35.117 35.117-35.117zM511.885-63.413c279.935 0 511.707 232.275 511.707 511.707 0 279.933-232.275 511.706-512.209 511.706-279.431 0-511.204-231.773-511.204-511.706 0-279.432 232.274-511.707 511.706-511.707zM511.885 21.874c-236.79 0-425.92 189.632-425.92 426.42 0 236.79 188.629 426.421 425.418 426.421 236.787 0 426.922-189.632 426.922-426.421s-189.632-426.42-426.42-426.42z" />
<glyph unicode="&#xe926;" glyph-name="table-sort" horiz-adv-x="1274" d="M290.241 943.048l-274.994-280.44c-9.257-9.802-15.247-23.96-15.247-35.94 0-28.861 19.604-48.464 47.92-48.464 14.158 0 25.049 4.901 34.306 14.158l113.265 117.077 87.671 101.285-5.445-125.79v-699.742c0-28.856 20.148-49.007 49.009-49.007 28.316 0 48.464 20.151 48.464 49.007v699.742l-4.901 125.79 87.127-101.285 113.809-117.077c9.257-9.257 19.604-14.158 33.762-14.158 28.316 0 47.92 19.604 47.92 48.464 0 11.98-5.446 26.138-15.247 35.94l-274.45 280.44c-20.148 21.237-52.276 22.326-72.969 0zM984.534-48.019l274.45 281.525c9.8 9.263 15.244 23.42 15.244 35.943 0 28.861-19.6 47.92-47.913 47.92-14.163 0-24.507-4.356-33.763-13.613l-113.265-117.075-87.671-101.834 4.9 125.79v699.74c0 28.316-20.151 49.009-48.463 49.009-28.863 0-49.014-20.693-49.014-49.009v-699.74l5.451-125.79-87.671 101.834-113.265 117.075c-9.261 9.257-20.151 13.613-33.765 13.613-28.317 0-48.465-19.059-48.465-47.92 0-12.523 5.99-26.68 15.792-35.943l274.448-281.525c20.151-21.238 51.732-21.782 72.971 0z" />
<glyph unicode="&#xe927;" glyph-name="arrow-down" horiz-adv-x="822" d="M410.687 960c-28.204 0-48.272-19.525-48.272-47.729v-714.308l5.424-161.625 30.373 10.851-194.17 213.152-123.661 121.49c-8.135 8.678-21.152 13.017-34.169 13.017-27.119 0-46.644-20.611-46.644-47.187 0-13.017 4.881-24.407 15.186-35.254l359.593-360.676c10.305-10.851 22.779-16.273 36.339-16.273s26.034 5.422 36.338 16.273l360.135 360.676c10.302 10.847 14.648 22.237 14.648 35.254 0 26.576-19.529 47.187-46.646 47.187-13.017 0-25.492-4.339-34.17-13.017l-123.662-121.49-194.712-213.152 30.915-10.851 5.424 161.625v714.308c0 28.203-20.068 47.729-48.271 47.729z" />
<glyph unicode="&#xe928;" glyph-name="arrow-up" horiz-adv-x="822" d="M410.687-64.542c28.203 0 48.271 19.522 48.271 47.729v714.304l-5.424 161.627-30.915-10.848 194.712-213.152 123.662-121.492c8.678-8.678 21.153-13.017 34.17-13.017 27.117 0 46.646 20.611 46.646 47.187 0 13.017-4.346 24.407-14.648 35.254l-360.135 360.678c-10.305 10.847-22.779 16.271-36.338 16.271s-26.034-5.424-36.339-16.271l-359.593-360.678c-10.305-10.847-15.186-22.237-15.186-35.254 0-26.576 19.525-47.187 46.644-47.187 13.017 0 26.034 4.339 34.169 13.017l123.661 121.492 194.17 213.152-30.373 10.848-5.424-161.627v-714.304c0-28.207 20.068-47.729 48.272-47.729z" />
</font>
</defs>
</svg>
