<?xml version="1.0" standalone="no"?>
<!DOCTYPE svg PUBLIC "-//W3C//DTD SVG 1.1//EN" "http://www.w3.org/Graphics/SVG/1.1/DTD/svg11.dtd" >
<svg xmlns="http://www.w3.org/2000/svg">
<metadata>Generated by IcoMoon</metadata>
<defs>
<font id="icomoon" horiz-adv-x="1024">
<font-face units-per-em="1024" ascent="1024" descent="0" />
<missing-glyph horiz-adv-x="1024" />
<glyph unicode="&#x20;" horiz-adv-x="0" d="" />
<glyph unicode="&#xe900;" glyph-name="agenda" d="M800 416h128v-208h-128v208zM800 448h128v480c0 44.112-37.184 80-82.912 80h-45.088v-560zM96 416h672v-208h-672v208zM768 448v560h-208v-352c0-6.064-3.424-11.6-8.848-14.32-2.256-1.12-4.72-1.68-7.152-1.68-3.392 0-6.784 1.072-9.6 3.2l-118.4 88.8-118.4-88.8c-4.832-3.664-11.328-4.224-16.752-1.52-5.424 2.72-8.848 8.256-8.848 14.32v352h-144c-17.68 0-32-14.32-32-32v-528h672zM800 176v-160h45.088c45.728 0 82.912 35.888 82.912 80v80h-128zM768 176h-672v-128c0-17.68 14.32-32 32-32h640v160z" />
<glyph unicode="&#xe901;" glyph-name="atm" d="M992 32h-960c-8.832 0-16 7.152-16 16s7.168 16 16 16h960c8.832 0 16-7.152 16-16s-7.168-16-16-16zM832 992h-640c-44.112 0-80-35.888-80-80v-816h800v816c0 44.112-35.888 80-80 80zM336 320h-80c-8.832 0-16 7.152-16 16s7.168 16 16 16h80c8.832 0 16-7.152 16-16s-7.168-16-16-16zM336 448h-80c-8.832 0-16 7.152-16 16s7.168 16 16 16h80c8.832 0 16-7.152 16-16s-7.168-16-16-16zM512 320h-80c-8.832 0-16 7.152-16 16s7.168 16 16 16h80c8.832 0 16-7.152 16-16s-7.168-16-16-16zM512 448h-80c-8.832 0-16 7.152-16 16s7.168 16 16 16h80c8.832 0 16-7.152 16-16s-7.168-16-16-16zM768 448h-160c-8.832 0-16 7.152-16 16s7.168 16 16 16h160c8.832 0 16-7.152 16-16s-7.168-16-16-16zM784 592c0-8.848-7.168-16-16-16h-512c-8.832 0-16 7.152-16 16v256c0 8.848 7.168 16 16 16h512c8.832 0 16-7.152 16-16v-256z" />
<glyph unicode="&#xe902;" glyph-name="award-49" d="M80 944h688v-272h64v320c0 8.832-7.168 16-16 16h-784c-8.832 0-16-7.168-16-16v-832c0-8.832 7.168-16 16-16h608v64h-560v736zM656 768c0 8.832-7.152 16-16 16h-448c-8.848 0-16-7.168-16-16s7.152-16 16-16h448c8.848 0 16 7.168 16 16zM448 592h-256c-8.848 0-16-7.168-16-16s7.152-16 16-16h256c8.848 0 16 7.168 16 16s-7.152 16-16 16zM448 400h-256c-8.848 0-16-7.168-16-16s7.152-16 16-16h256c8.848 0 16 7.168 16 16s-7.152 16-16 16zM672 229.328v-197.328c0-5.696 3.024-10.976 7.968-13.84s11.024-2.896 15.968-0.048l104.064 59.456 104.064-59.456c2.448-1.408 5.2-2.112 7.936-2.112 2.784 0 5.552 0.72 8.032 2.16 4.944 2.864 7.968 8.144 7.968 13.84v197.328c-37.104-23.504-80.912-37.328-128-37.328s-90.896 13.824-128 37.328zM800 640c-114.688 0-208-93.312-208-208s93.312-208 208-208 208 93.312 208 208-93.312 208-208 208z" />
<glyph unicode="&#xe903;" glyph-name="badge" d="M512 1008c-53.024 0-96-42.976-96-96v-208c0-8.832 7.168-16 16-16h160c8.832 0 16 7.168 16 16v208c0 53.024-42.976 96-96 96zM512 880c-17.68 0-32 14.32-32 32s14.32 32 32 32 32-14.32 32-32-14.32-32-32-32zM976 784h-336v-96c0-17.68-14.32-32-32-32h-192c-17.68 0-32 14.32-32 32v96h-336c-17.68 0-32-14.32-32-32v-704c0-17.68 14.32-32 32-32h928c17.68 0 32 14.32 32 32v704c0 17.68-14.32 32-32 32zM336 544c44.112 0 80-35.888 80-80s-35.888-80-80-80c-44.112 0-80 35.888-80 80s35.888 80 80 80zM496 176h-320c-8.832 0-16 7.168-16 16 0 79.392 64.608 144 144 144h64c79.392 0 144-64.608 144-144 0-8.832-7.168-16-16-16zM848 256h-224c-8.832 0-16 7.168-16 16s7.168 16 16 16h224c8.832 0 16-7.168 16-16s-7.168-16-16-16zM848 416h-224c-8.832 0-16 7.168-16 16s7.168 16 16 16h224c8.832 0 16-7.168 16-16s-7.168-16-16-16z" />
<glyph unicode="&#xe904;" glyph-name="bank" d="M96 560h64v-400h-64v400zM608 560h64v-400h-64v400zM352 560h64v-400h-64v400zM864 560h64v-400h-64v400zM992 128h-960c-8.832 0-16-7.152-16-16v-64c0-8.848 7.168-16 16-16h960c8.832 0 16 7.152 16 16v64c0 8.848-7.168 16-16 16zM999.536 734.128l-480 256c-4.704 2.496-10.352 2.496-15.056 0l-480-256c-5.216-2.784-8.48-8.224-8.48-14.128v-112c0-8.848 7.168-16 16-16h960c8.832 0 16 7.152 16 16v112c0 5.904-3.264 11.344-8.464 14.128zM512 704c-35.344 0-64 28.656-64 64s28.656 64 64 64c35.344 0 64-28.656 64-64s-28.656-64-64-64z" />
<glyph unicode="&#xe905;" glyph-name="bill" d="M880 992h-736c-17.673 0-32-14.327-32-32v0-912c0 0 0 0 0 0 0-8.837 7.163-16 16-16 3.142 0 6.073 0.906 8.546 2.471l-0.066-0.039 119.52 74.688 119.52-74.688c2.407-1.526 5.338-2.432 8.48-2.432s6.073 0.906 8.546 2.471l-0.066-0.039 119.52 74.688 119.52-74.688c2.407-1.526 5.338-2.432 8.48-2.432s6.073 0.906 8.546 2.471l-0.066-0.039 119.52 74.688 119.52-74.688c2.407-1.526 5.338-2.432 8.48-2.432 8.837 0 16 7.163 16 16 0 0 0 0 0 0v0 912c0 17.673-14.327 32-32 32v0zM544 304h-256c-8.837 0-16 7.163-16 16s7.163 16 16 16v0h256c8.837 0 16-7.163 16-16s-7.163-16-16-16v0zM544 432h-256c-8.837 0-16 7.163-16 16s7.163 16 16 16v0h256c8.837 0 16-7.163 16-16s-7.163-16-16-16v0zM512 576c-70.692 0-128 57.308-128 128s57.308 128 128 128c70.692 0 128-57.308 128-128v0c0-70.692-57.308-128-128-128v0zM736 304h-64c-8.837 0-16 7.163-16 16s7.163 16 16 16v0h64c8.837 0 16-7.163 16-16s-7.163-16-16-16v0zM736 432h-64c-8.837 0-16 7.163-16 16s7.163 16 16 16v0h64c8.837 0 16-7.163 16-16s-7.163-16-16-16v0z" />
<glyph unicode="&#xe906;" glyph-name="board-27" d="M112 336h800v592c0 8.832-7.168 16-16 16h-352v48c0 8.832-7.168 16-16 16h-32c-8.832 0-16-7.168-16-16v-48h-352c-8.832 0-16-7.168-16-16v-592zM992 304h-960c-8.848 0-16-7.168-16-16v-32c0-8.832 7.152-16 16-16h349.216l-169.36-197.584c-5.76-6.704-4.992-16.816 1.728-22.56 3.024-2.592 6.736-3.856 10.416-3.856 4.496 0 8.992 1.904 12.144 5.584l187.216 218.416h72.64v-176c0-8.832 7.152-16 16-16s16 7.168 16 16v176h72.64l187.216-218.416c3.152-3.68 7.648-5.584 12.144-5.584 3.68 0 7.392 1.264 10.4 3.856 6.72 5.744 7.504 15.856 1.728 22.56l-169.344 197.584h349.216c8.848 0 16 7.168 16 16v32c0 8.832-7.152 16-16 16z" />
<glyph unicode="&#xe907;" glyph-name="board-28" d="M992 304h-960c-8.848 0-16-7.168-16-16v-32c0-8.832 7.152-16 16-16h349.216l-169.36-197.584c-5.76-6.704-4.992-16.816 1.728-22.56 3.024-2.592 6.736-3.856 10.416-3.856 4.496 0 8.992 1.904 12.144 5.584l187.216 218.416h72.64v-176c0-8.832 7.152-16 16-16s16 7.168 16 16v176h72.64l187.216-218.416c3.152-3.68 7.648-5.584 12.144-5.584 3.68 0 7.392 1.264 10.4 3.856 6.72 5.744 7.504 15.856 1.728 22.56l-169.344 197.584h349.216c8.848 0 16 7.168 16 16v32c0 8.832-7.152 16-16 16zM896 944h-352v48c0 8.832-7.168 16-16 16h-32c-8.832 0-16-7.168-16-16v-48h-352c-8.832 0-16-7.168-16-16v-592h800v592c0 8.832-7.168 16-16 16zM752 592c0-8.832-7.152-16-16-16s-16 7.168-16 16v105.376l-180.688-180.688c-3.12-3.12-7.216-4.688-11.312-4.688s-8.192 1.568-11.312 4.688l-116.688 116.688-116.688-116.688-22.624 22.624 128 128c6.256 6.256 16.368 6.256 22.624 0l116.688-116.688 169.376 169.376h-105.376c-8.848 0-16 7.168-16 16s7.152 16 16 16h144c8.848 0 16-7.168 16-16v-144z" />
<glyph unicode="&#xe908;" glyph-name="board-29" d="M992 304h-960c-8.848 0-16-7.168-16-16v-32c0-8.832 7.152-16 16-16h349.216l-169.36-197.584c-5.76-6.704-4.992-16.816 1.728-22.56 3.024-2.592 6.736-3.856 10.416-3.856 4.496 0 8.992 1.904 12.144 5.584l187.216 218.416h72.64v-176c0-8.832 7.152-16 16-16s16 7.168 16 16v176h72.64l187.216-218.416c3.152-3.68 7.648-5.584 12.144-5.584 3.68 0 7.392 1.264 10.4 3.856 6.72 5.744 7.504 15.856 1.728 22.56l-169.344 197.584h349.216c8.848 0 16 7.168 16 16v32c0 8.832-7.152 16-16 16zM896 944h-352v48c0 8.832-7.168 16-16 16h-32c-8.832 0-16-7.168-16-16v-48h-352c-8.832 0-16-7.168-16-16v-592h800v592c0 8.832-7.168 16-16 16zM512 464c-97.040 0-176 78.96-176 176s78.96 176 176 176v-176h176c0-97.040-78.96-176-176-176z" />
<glyph unicode="&#xe909;" glyph-name="board-30" d="M992 304h-960c-8.848 0-16-7.168-16-16v-32c0-8.832 7.152-16 16-16h349.216l-169.36-197.584c-5.76-6.704-4.992-16.816 1.728-22.56 3.024-2.592 6.736-3.856 10.416-3.856 4.496 0 8.992 1.904 12.144 5.584l187.216 218.416h72.64v-176c0-8.832 7.152-16 16-16s16 7.168 16 16v176h72.64l187.216-218.416c3.152-3.68 7.648-5.584 12.144-5.584 3.68 0 7.392 1.264 10.4 3.856 6.72 5.744 7.504 15.856 1.728 22.56l-169.344 197.584h349.216c8.848 0 16 7.168 16 16v32c0 8.832-7.152 16-16 16zM896 944h-352v48c0 8.832-7.168 16-16 16h-32c-8.832 0-16-7.168-16-16v-48h-352c-8.832 0-16-7.168-16-16v-592h800v592c0 8.832-7.168 16-16 16zM352 480c0-8.832-7.152-16-16-16h-64c-8.848 0-16 7.168-16 16v128c0 8.832 7.152 16 16 16h64c8.848 0 16-7.168 16-16v-128zM560 480c0-8.832-7.152-16-16-16h-64c-8.848 0-16 7.168-16 16v320c0 8.832 7.152 16 16 16h64c8.848 0 16-7.168 16-16v-320zM768 480c0-8.832-7.152-16-16-16h-64c-8.848 0-16 7.168-16 16v208c0 8.832 7.152 16 16 16h64c8.848 0 16-7.168 16-16v-208z" />
<glyph unicode="&#xe90a;" glyph-name="books" d="M288 336v608c0 8.848-7.168 16-16 16h-224c-8.832 0-16-7.152-16-16v-608h256zM144 768c0 8.848 7.168 16 16 16s16-7.152 16-16v-192c0-8.848-7.168-16-16-16s-16 7.152-16 16v192zM32 304v-256c0-8.848 7.168-16 16-16h224c8.832 0 16 7.152 16 16v256h-256zM592 336v608c0 8.848-7.168 16-16 16h-224c-8.832 0-16-7.152-16-16v-608h256zM448 768c0 8.848 7.168 16 16 16s16-7.152 16-16v-192c0-8.848-7.168-16-16-16s-16 7.152-16 16v192zM336 304v-256c0-8.848 7.168-16 16-16h224c8.832 0 16 7.152 16 16v256h-256zM927.056 376.32l-115.408 596.944c-0.8 4.176-3.232 7.84-6.752 10.224s-7.856 3.296-12 2.448l-219.936-42.528c-8.672-1.664-14.336-10.064-12.672-18.736l115.424-596.96 251.344 48.608zM716.336 791.872c8.624 1.76 17.056-3.984 18.752-12.672l36.448-188.512c1.664-8.672-4-17.056-12.672-18.736-1.024-0.208-2.048-0.304-3.056-0.304-7.52 0-14.208 5.312-15.696 12.976l-36.448 188.512c-1.664 8.672 4 17.072 12.672 18.736zM681.776 296.304l48.592-251.344c1.488-7.648 8.192-12.96 15.696-12.96 1.008 0 2.016 0.096 3.056 0.304l219.936 42.512c4.16 0.8 7.84 3.232 10.224 6.752s3.264 7.824 2.448 11.984l-48.592 251.36-251.36-48.608z" />
<glyph unicode="&#xe90b;" glyph-name="briefcase-24" d="M688 864h-32v80h-288v-80h-32v96c0 8.832 7.168 16 16 16h320c8.832 0 16-7.168 16-16v-96zM624 288v-48c0-8.832-7.168-16-16-16h-192c-8.832 0-16 7.168-16 16v48h-320v-176c0-35.344 28.656-64 64-64h736c35.344 0 64 28.656 64 64v176h-320zM944 832h-864c-35.344 0-64-28.656-64-64v-432c0-8.832 7.168-16 16-16h368v48c0 8.832 7.168 16 16 16h192c8.832 0 16-7.168 16-16v-48h368c8.832 0 16 7.168 16 16v432c0 35.344-28.656 64-64 64z" />
<glyph unicode="&#xe90c;" glyph-name="briefcase-25" d="M688 864h-32v80h-288v-80h-32v96c0 8.832 7.168 16 16 16h320c8.832 0 16-7.168 16-16v-96zM208 832h-128c-35.344 0-64-28.656-64-64v-432c0-8.832 7.168-16 16-16h176v512zM944 832h-128v-512h176c8.832 0 16 7.168 16 16v432c0 35.344-28.656 64-64 64zM784 320v512h-544v-512h160v48c0 8.832 7.168 16 16 16h192c8.832 0 16-7.168 16-16v-48h160zM208 288h-128v-176c0-35.344 28.656-64 64-64h64v240zM240 288v-240h544v240h-160v-48c0-8.832-7.168-16-16-16h-192c-8.832 0-16 7.168-16 16v48h-160zM816 288v-240h64c35.344 0 64 28.656 64 64v176h-128z" />
<glyph unicode="&#xe90d;" glyph-name="briefcase-26" d="M944 288h-864v-176c0-35.344 28.656-64 64-64h736c35.344 0 64 28.656 64 64v176zM688 864h-32v80h-288v-80h-32v96c0 8.832 7.168 16 16 16h320c8.832 0 16-7.168 16-16v-96zM944 832h-864c-35.344 0-64-28.656-64-64v-432c0-8.832 7.168-16 16-16h960c8.832 0 16 7.168 16 16v432c0 35.344-28.656 64-64 64zM688 496c0-8.832-7.152-16-16-16h-320c-8.848 0-16 7.168-16 16v160c0 8.832 7.152 16 16 16h320c8.848 0 16-7.168 16-16v-160z" />
<glyph unicode="&#xe90e;" glyph-name="building" d="M752 912h-224v80c0 8.848-7.152 16-16 16s-16-7.152-16-16v-80h-224c-8.848 0-16-7.152-16-16v-480h144c26.464 0 48-21.536 48-48v-352h128v464c0 26.464 21.536 48 48 48h144v368c0 8.848-7.152 16-16 16zM624 640h-224c-8.848 0-16 7.152-16 16s7.152 16 16 16h224c8.848 0 16-7.152 16-16s-7.152-16-16-16zM624 752h-224c-8.848 0-16 7.152-16 16s7.152 16 16 16h224c8.848 0 16-7.152 16-16s-7.152-16-16-16zM976 496h-352c-8.848 0-16-7.152-16-16v-448c0-8.848 7.152-16 16-16h352c8.848 0 16 7.152 16 16v448c0 8.848-7.152 16-16 16zM864 128h-128c-8.848 0-16 7.152-16 16s7.152 16 16 16h128c8.848 0 16-7.152 16-16s-7.152-16-16-16zM864 240h-128c-8.848 0-16 7.152-16 16s7.152 16 16 16h128c8.848 0 16-7.152 16-16s-7.152-16-16-16zM864 352h-128c-8.848 0-16 7.152-16 16s7.152 16 16 16h128c8.848 0 16-7.152 16-16s-7.152-16-16-16zM400 384h-352c-8.848 0-16-7.152-16-16v-336c0-8.848 7.152-16 16-16h352c8.848 0 16 7.152 16 16v336c0 8.848-7.152 16-16 16zM288 128h-128c-8.848 0-16 7.152-16 16s7.152 16 16 16h128c8.848 0 16-7.152 16-16s-7.152-16-16-16zM288 240h-128c-8.848 0-16 7.152-16 16s7.152 16 16 16h128c8.848 0 16-7.152 16-16s-7.152-16-16-16z" />
<glyph unicode="&#xe90f;" glyph-name="bulb-61" d="M448 16h128c61.856 0 112 50.144 112 112v0h-352c0-61.856 50.144-112 112-112zM640 592c-26.464 0-48-21.536-48-48v-48h48c26.464 0 48 21.536 48 48s-21.536 48-48 48zM432 544c0 26.464-21.536 48-48 48s-48-21.536-48-48 21.536-48 48-48h48v48zM512 1008c-202.912 0-368-165.072-368-368 0-135.36 73.312-258.192 192-322.912v-157.088h352v157.088c118.688 64.72 192 187.552 192 322.912 0 202.928-165.088 368-368 368zM640 464h-48v-208c0-8.848-7.168-16-16-16s-16 7.152-16 16v208h-96v-208c0-8.848-7.168-16-16-16s-16 7.152-16 16v208h-48c-44.112 0-80 35.888-80 80s35.888 80 80 80 80-35.888 80-80v-48h96v48c0 44.112 35.888 80 80 80s80-35.888 80-80-35.888-80-80-80z" />
<glyph unicode="&#xe910;" glyph-name="bulb-62" d="M448 16h128c61.856 0 112 50.144 112 112v0h-352c0-61.856 50.144-112 112-112zM512 1008c-202.912 0-368-165.072-368-368 0-135.36 73.312-258.192 192-322.912v-157.088h352v157.088c118.688 64.72 192 187.552 192 322.912 0 202.928-165.088 368-368 368zM731.312 580.688l-112-112c-3.12-3.12-7.216-4.688-11.312-4.688s-8.192 1.568-11.312 4.688l-84.688 84.688-84.688-84.688c-6.256-6.256-16.368-6.256-22.624 0l-112 112c-6.256 6.256-6.256 16.368 0 22.624s16.368 6.256 22.624 0l100.688-100.688 84.688 84.688c6.256 6.256 16.368 6.256 22.624 0l84.688-84.688 100.688 100.688c6.256 6.256 16.368 6.256 22.624 0s6.256-16.368 0-22.624z" />
<glyph unicode="&#xe911;" glyph-name="bulb-63" d="M128 528h-96c-8.832 0-16-7.152-16-16s7.168-16 16-16h96c8.832 0 16 7.152 16 16s-7.168 16-16 16zM240.464 767.536c4.096 0 8.192 1.568 11.312 4.688 6.256 6.256 6.256 16.368 0 22.624l-67.888 67.872c-6.256 6.256-16.368 6.256-22.624 0s-6.256-16.368 0-22.624l67.888-67.872c3.136-3.136 7.216-4.688 11.312-4.688zM512 880c8.832 0 16 7.152 16 16v96c0 8.848-7.168 16-16 16s-16-7.152-16-16v-96c0-8.848 7.168-16 16-16zM840.096 862.72l-67.888-67.872c-6.256-6.256-6.256-16.368 0-22.624 3.12-3.12 7.216-4.688 11.312-4.688s8.192 1.568 11.312 4.688l67.888 67.872c6.256 6.256 6.256 16.368 0 22.624s-16.368 6.256-22.624 0zM992 528h-96c-8.832 0-16-7.152-16-16s7.168-16 16-16h96c8.832 0 16 7.152 16 16s-7.168 16-16 16zM512 800c-158.8 0-288-129.2-288-288 0-109.232 62.464-209.296 160-257.776v-126.224h256v126.224c97.536 48.48 160 148.544 160 257.776 0 158.8-129.2 288-288 288zM464 16h96c44.176 0 80 35.824 80 80h-256c0-44.176 35.824-80 80-80z" />
<glyph unicode="&#xe912;" glyph-name="business-contact-85" d="M886.896 336.8l-230.896 95.2-115.376-230.752c-11.792-23.584-45.456-23.584-57.248 0l-115.376 230.752-230.896-95.2c-53.92-22.224-89.104-74.8-89.104-133.12v-171.68c0-8.832 7.168-16 16-16h896c8.832 0 16 7.168 16 16v171.68c0 58.32-35.184 110.896-89.104 133.12zM832 128h-128c-8.832 0-16 7.152-16 16s7.168 16 16 16h128c8.832 0 16-7.152 16-16s-7.168-16-16-16zM512 1008c-132.336 0-240-107.664-240-240v-64c0-128.384 102.64-272 240-272s240 143.616 240 272v64c0 132.336-107.664 240-240 240zM512 464c-117.136 0-208 129.008-208 240v47.44c30.512-10.096 62.64-15.44 96-15.44 74.368 0 143.376 25.568 192.016 70.624 33.76-31.136 78.352-53.184 127.984-63.6v-39.024c0-110.992-90.864-240-208-240z" />
<glyph unicode="&#xe913;" glyph-name="business-contact-86" d="M886.896 336.8l-230.896 95.2-115.376-230.752c-11.792-23.584-45.456-23.584-57.248 0l-115.376 230.752-230.896-95.2c-53.92-22.224-89.104-74.8-89.104-133.12v-171.68c0-8.832 7.168-16 16-16h896c8.832 0 16 7.168 16 16v171.68c0 58.32-35.184 110.896-89.104 133.12zM512 1008c-132.336 0-240-107.664-240-240v-64c0-128.384 102.64-272 240-272s240 143.616 240 272v64c0 132.336-107.664 240-240 240zM512 464c-117.136 0-208 129.008-208 240v47.44c30.512-10.096 62.64-15.44 96-15.44 74.368 0 143.376 25.568 192.016 70.624 33.76-31.136 78.352-53.184 127.984-63.6v-39.024c0-110.992-90.864-240-208-240z" />
<glyph unicode="&#xe914;" glyph-name="business-contact-87" d="M886.896 336.8l-230.896 95.2-115.376-230.752c-11.792-23.584-45.456-23.584-57.248 0l-115.376 230.752-230.896-95.2c-53.92-22.224-89.104-74.8-89.104-133.12v-171.68c0-8.832 7.168-16 16-16h896c8.832 0 16 7.168 16 16v171.68c0 58.32-35.184 110.896-89.104 133.12zM832 128h-128c-8.848 0-16 7.152-16 16s7.152 16 16 16h128c8.848 0 16-7.152 16-16s-7.152-16-16-16zM868.16 433.152l-8.048 9.312c-102.144 118.192-108.112 325.536-108.112 325.536 0 132.336-107.664 240-240 240s-240-107.664-240-240c0 0-5.968-207.344-108.112-325.536l-8.048-9.312c10.912-16 17.008-25.296 31.92-40.864l200.224 82.608c35.76-26.416 77.84-42.896 124.016-42.896s88.256 16.48 124.016 42.896l200.224-82.608c14.912 15.568 21.008 24.864 31.92 40.864zM304 704v47.44c30.512-10.096 62.64-15.44 96-15.44 74.368 0 143.376 25.568 192.016 70.624 33.76-31.136 78.352-53.184 127.984-63.6v-39.024c0-110.992-90.864-240-208-240s-208 129.008-208 240z" />
<glyph unicode="&#xe915;" glyph-name="business-contact-88" d="M886.896 336.8l-230.896 95.2-115.376-230.752c-11.792-23.584-45.456-23.584-57.248 0l-115.376 230.752-230.896-95.2c-53.92-22.224-89.104-74.8-89.104-133.12v-171.68c0-8.832 7.168-16 16-16h896c8.832 0 16 7.168 16 16v171.68c0 58.32-35.184 110.896-89.104 133.12zM868.16 433.152l-8.048 9.312c-102.144 118.192-108.112 325.536-108.112 325.536 0 132.336-107.664 240-240 240s-240-107.664-240-240c0 0-5.968-207.344-108.112-325.536l-8.048-9.312c10.912-16 17.008-25.296 31.92-40.864l200.224 82.608c35.76-26.416 77.84-42.896 124.016-42.896s88.256 16.48 124.016 42.896l200.224-82.608c14.912 15.568 21.008 24.864 31.92 40.864zM304 704v47.44c30.512-10.096 62.64-15.44 96-15.44 74.368 0 143.376 25.568 192.016 70.624 33.76-31.136 78.352-53.184 127.984-63.6v-39.024c0-110.992-90.864-240-208-240s-208 129.008-208 240z" />
<glyph unicode="&#xe916;" glyph-name="business-contact-89" d="M512 1008c-132.336 0-240-107.664-240-240v-64c0-128.384 102.64-272 240-272s240 143.616 240 272v64c0 132.336-107.664 240-240 240zM512 464c-117.136 0-208 129.008-208 240v47.44c30.512-10.096 62.64-15.44 96-15.44 74.368 0 143.376 25.568 192.016 70.624 33.76-31.136 78.352-53.184 127.984-63.6v-39.024c0-110.992-90.864-240-208-240zM886.896 336.8l-247.584 101.776c-37.536-24.064-80.64-38.576-127.312-38.576-47.008 0-90.384 14.704-128.096 39.088l-246.8-102.288c-53.92-22.224-89.104-74.8-89.104-133.12v-171.68c0-8.832 7.168-16 16-16h369.376l45.616 205.248-44.704 74.512c-2.976 4.944-3.040 11.088-0.208 16.128 2.848 5.024 8.16 8.112 13.92 8.112h128c5.76 0 11.072-3.088 13.92-8.112s2.768-11.184-0.208-16.128l-44.704-74.512 45.616-205.248h369.376c8.832 0 16 7.168 16 16v171.68c0 58.32-35.184 110.896-89.104 133.12z" />
<glyph unicode="&#xe917;" glyph-name="businessman-03" d="M944 880h-160v112c0 8.832-7.168 16-16 16h-512c-8.832 0-16-7.168-16-16v-112h-160c-35.344 0-64-28.656-64-64v-736c0-35.344 28.656-64 64-64h206.24l146.496 468.768c2.080 6.688 8.272 11.232 15.264 11.232h128c6.992 0 13.184-4.544 15.28-11.232l146.48-468.768h206.24c35.344 0 64 28.656 64 64v736c0 35.344-28.656 64-64 64zM272 665.728v291.008l197.040-172.4c8.080-7.072 7.040-19.92-2.064-25.616l-170.496-106.56c-10.656-6.656-24.48 1.008-24.48 13.568zM663.136 634.272l-74.288-99.824c-3.024-4.064-7.792-6.448-12.848-6.448h-128c-5.056 0-9.824 2.384-12.832 6.448l-74.288 99.824c-5.584 7.504-3.568 18.16 4.352 23.12l138.288 86.432c5.184 3.248 11.776 3.248 16.96 0l138.288-86.432c7.936-4.944 9.936-15.616 4.368-23.12zM752 665.728c0-12.56-13.824-20.224-24.48-13.568l-170.496 106.56c-9.104 5.68-10.128 18.544-2.064 25.616l197.040 172.4v-291.008z" />
<glyph unicode="&#xe918;" glyph-name="businessman-04" d="M944 880h-160v112c0 8.832-7.168 16-16 16h-512c-8.832 0-16-7.168-16-16v-112h-160c-35.344 0-64-28.656-64-64v-736c0-35.344 28.656-64 64-64h416v656c0 8.832 7.168 16 16 16s16-7.168 16-16v-656h416c35.344 0 64 28.656 64 64v736c0 35.344-28.656 64-64 64zM466.976 758.736l-170.496-106.576c-10.656-6.656-24.48 1.008-24.48 13.568v291.008l197.040-172.4c8.064-7.072 7.040-19.92-2.064-25.6zM554.96 784.336l197.040 172.4v-291.008c0-12.56-13.824-20.224-24.48-13.568l-170.496 106.56c-9.104 5.696-10.128 18.544-2.064 25.616zM864 400h-160c-8.832 0-16 7.168-16 16s7.168 16 16 16h160c8.832 0 16-7.168 16-16s-7.168-16-16-16z" />
<glyph unicode="&#xe919;" glyph-name="calculator" d="M880 1008h-736c-35.344 0-64-28.656-64-64v-864c0-35.344 28.656-64 64-64h736c35.344 0 64 28.656 64 64v864c0 35.344-28.656 64-64 64zM336 160c0-8.832-7.152-16-16-16h-96c-8.848 0-16 7.168-16 16v80c0 8.832 7.152 16 16 16h96c8.848 0 16-7.168 16-16v-80zM336 352c0-8.832-7.152-16-16-16h-96c-8.848 0-16 7.168-16 16v80c0 8.832 7.152 16 16 16h96c8.848 0 16-7.168 16-16v-80zM336 544c0-8.832-7.152-16-16-16h-96c-8.848 0-16 7.168-16 16v80c0 8.832 7.152 16 16 16h96c8.848 0 16-7.168 16-16v-80zM576 160c0-8.832-7.152-16-16-16h-96c-8.848 0-16 7.168-16 16v80c0 8.832 7.152 16 16 16h96c8.848 0 16-7.168 16-16v-80zM576 352c0-8.832-7.152-16-16-16h-96c-8.848 0-16 7.168-16 16v80c0 8.832 7.152 16 16 16h96c8.848 0 16-7.168 16-16v-80zM576 544c0-8.832-7.152-16-16-16h-96c-8.848 0-16 7.168-16 16v80c0 8.832 7.152 16 16 16h96c8.848 0 16-7.168 16-16v-80zM816 160c0-8.832-7.152-16-16-16h-96c-8.848 0-16 7.168-16 16v272c0 8.832 7.152 16 16 16h96c8.848 0 16-7.168 16-16v-272zM816 544c0-8.832-7.152-16-16-16h-96c-8.848 0-16 7.168-16 16v80c0 8.832 7.152 16 16 16h96c8.848 0 16-7.168 16-16v-80zM816 736c0-8.832-7.152-16-16-16h-576c-8.848 0-16 7.168-16 16v128c0 8.832 7.152 16 16 16h576c8.848 0 16-7.168 16-16v-128z" />
<glyph unicode="&#xe91a;" glyph-name="certificate" d="M576 624c0 8.848-7.168 16-16 16h-352c-8.832 0-16-7.152-16-16s7.168-16 16-16h352c8.832 0 16 7.152 16 16zM464 512h-256c-8.832 0-16-7.152-16-16s7.168-16 16-16h256c8.832 0 16 7.152 16 16s-7.168 16-16 16zM464 384h-256c-8.832 0-16-7.152-16-16s7.168-16 16-16h256c8.832 0 16 7.152 16 16s-7.168 16-16 16zM672 229.328v-197.328c0-5.696 3.024-10.976 7.968-13.84s11.024-2.896 15.968-0.048l104.064 59.456 104.064-59.456c2.448-1.408 5.2-2.112 7.936-2.112 2.784 0 5.552 0.72 8.032 2.16 4.944 2.864 7.968 8.144 7.968 13.84v197.328c-37.104-23.504-80.912-37.328-128-37.328s-90.896 13.824-128 37.328zM80 784h784v-120.928c22.896-6.352 44.384-15.984 64-28.416v197.344c0 8.832-7.168 16-16 16h-880c-8.832 0-16-7.168-16-16v-672c0-8.832 7.168-16 16-16h608v64h-560v576zM800 640c-114.688 0-208-93.312-208-208s93.312-208 208-208 208 93.312 208 208-93.312 208-208 208zM464 972.944l143.632-92.944h58.928l-193.872 125.44c-5.296 3.408-12.096 3.408-17.392 0l-193.856-125.44h58.928l143.632 92.944z" />
<glyph unicode="&#xe91b;" glyph-name="chair" d="M736 48h-208v112h-32v-112h-208c-8.848 0-16-7.168-16-16s7.152-16 16-16h448c8.848 0 16 7.168 16 16s-7.152 16-16 16zM256 416h512c8.848 0 16 7.168 16 16v560c0 8.832-7.152 16-16 16h-512c-8.848 0-16-7.168-16-16v-560c0-8.832 7.152-16 16-16zM960 544h-80c-8.848 0-16-7.168-16-16s7.152-16 16-16h64v-256h-64v16c0 61.76-50.256 112-112 112h-512c-61.744 0-112-50.24-112-112v-16h-64v256h64c8.848 0 16 7.168 16 16s-7.152 16-16 16h-80c-8.848 0-16-7.168-16-16v-288c0-8.832 7.152-16 16-16h896c8.848 0 16 7.168 16 16v288c0 8.832-7.152 16-16 16z" />
<glyph unicode="&#xe91c;" glyph-name="chart-bar-32" d="M624 944h-224c-8.832 0-16-7.168-16-16v-832c0-8.832 7.168-16 16-16h224c8.832 0 16 7.168 16 16v832c0 8.832-7.168 16-16 16zM256 368h-224c-8.832 0-16-7.168-16-16v-256c0-8.832 7.168-16 16-16h224c8.832 0 16 7.168 16 16v256c0 8.832-7.168 16-16 16zM992 624h-224c-8.832 0-16-7.168-16-16v-512c0-8.832 7.168-16 16-16h224c8.832 0 16 7.168 16 16v512c0 8.832-7.168 16-16 16z" />
<glyph unicode="&#xe91d;" glyph-name="chart-bar-33" d="M624 448h-224c-8.832 0-16-7.168-16-16v-384c0-8.832 7.168-16 16-16h224c8.832 0 16 7.168 16 16v384c0 8.832-7.168 16-16 16zM256 256h-224c-8.832 0-16-7.168-16-16v-192c0-8.832 7.168-16 16-16h224c8.832 0 16 7.168 16 16v192c0 8.832-7.168 16-16 16zM992 640h-224c-8.832 0-16-7.168-16-16v-576c0-8.832 7.168-16 16-16h224c8.832 0 16 7.168 16 16v576c0 8.832-7.168 16-16 16zM523.312 612.688l324.688 324.688v-185.376c0-8.832 7.168-16 16-16s16 7.168 16 16v224c0 8.832-7.168 16-16 16h-224c-8.832 0-16-7.168-16-16s7.168-16 16-16h185.376l-313.376-313.376-148.688 148.688c-6.256 6.256-16.368 6.256-22.624 0l-192-192 22.624-22.624 180.688 180.688 148.688-148.688c6.256-6.256 16.368-6.256 22.624 0z" />
<glyph unicode="&#xe91e;" glyph-name="chart-growth" d="M368 432h-192c-8.832 0-16-7.168-16-16v-384c0-8.832 7.168-16 16-16h192c8.832 0 16 7.168 16 16v384c0 8.832-7.168 16-16 16zM940.672 649.776l-272 352c-6.064 7.84-19.264 7.84-25.328 0l-272-352c-3.728-4.832-4.384-11.36-1.696-16.832s8.256-8.944 14.352-8.944h160v-592c0-8.832 7.168-16 16-16h192c8.832 0 16 7.168 16 16v592h160c6.096 0 11.664 3.472 14.352 8.944 2.704 5.472 2.032 12.016-1.68 16.832z" />
<glyph unicode="&#xe91f;" glyph-name="chart-pie-35" d="M496 518.928v488.672c-266.096-8.496-480-227.472-480-495.6 0-125.424 46.88-240.032 123.92-327.456l356.080 334.384zM528 528h479.6c-8.336 260.768-218.832 471.264-479.6 479.6v-479.6zM518.336 496l-356.576-334.864c89.792-89.632 213.648-145.136 350.24-145.136 268.128 0 487.104 213.904 495.6 480h-489.264z" />
<glyph unicode="&#xe920;" glyph-name="chart-pie-36" d="M864 464h-400v400c0 8.832-7.152 16-16 16-238.208 0-432-193.792-432-432s193.792-432 432-432 432 193.792 432 432c0 8.832-7.152 16-16 16zM576 1008c-8.848 0-16-7.168-16-16v-416c0-8.832 7.152-16 16-16h416c8.848 0 16 7.168 16 16 0 238.208-193.792 432-432 432z" />
<glyph unicode="&#xe921;" glyph-name="chart" d="M719.184 496c-8.224-107.216-97.888-192-207.184-192-54.32 0-103.664 21.088-140.752 55.312l-211.44-196.16c89.936-90.8 214.592-147.152 352.192-147.152 268.128 0 487.104 213.904 495.6 480h-288.416zM528 719.184c101.92-7.808 183.376-89.264 191.184-191.184h288.4c-8.32 260.768-218.8 471.264-479.584 479.6v-288.416zM349.392 382.656c-28.336 35.552-45.392 80.464-45.392 129.344 0 109.296 84.784 198.96 192 207.184v288.416c-266.112-8.496-480-227.472-480-495.6 0-124.416 46.16-238.192 122.096-325.36l211.296 196.016z" />
<glyph unicode="&#xe922;" glyph-name="cheque" d="M992 528h-368c-8.832 0-16-7.152-16-16s7.168-16 16-16h352v-448h-928v448h112c8.832 0 16 7.152 16 16s-7.168 16-16 16h-128c-8.832 0-16-7.152-16-16v-480c0-8.848 7.168-16 16-16h960c8.832 0 16 7.152 16 16v480c0 8.848-7.168 16-16 16zM240 384c1.536 0 3.088 0.224 4.592 0.672l160 48c2.544 0.768 4.848 2.144 6.72 4.016l416 416c6.256 6.256 6.256 16.368 0 22.624l-112 112c-6.256 6.256-16.368 6.256-22.624 0l-416-416c-1.872-1.872-3.248-4.176-4.016-6.72l-48-160c-1.68-5.648-0.144-11.744 4.016-15.904 3.040-3.040 7.136-4.688 11.312-4.688zM224 272h576c8.832 0 16 7.152 16 16s-7.168 16-16 16h-576c-8.832 0-16-7.152-16-16s7.168-16 16-16zM224 144h256c8.832 0 16 7.152 16 16s-7.168 16-16 16h-256c-8.832 0-16-7.152-16-16s7.168-16 16-16zM800 176h-128c-8.832 0-16-7.152-16-16s7.168-16 16-16h128c8.832 0 16 7.152 16 16s-7.168 16-16 16z" />
<glyph unicode="&#xe923;" glyph-name="cockade" d="M222.016 445.84l-140.464-294.96c-2.48-5.248-1.952-11.424 1.424-16.144 3.344-4.72 8.928-7.28 14.8-6.624l134 14.88 74.672-119.456c2.912-4.704 8.048-7.536 13.552-7.536 0.256 0 0.496 0 0.768 0.016 5.776 0.272 10.96 3.664 13.552 8.832l140.512 281.024c-102.48 10.32-192.592 62.928-252.816 139.968zM801.984 445.84l140.464-294.976c2.48-5.248 1.952-11.424-1.424-16.144-3.344-4.72-8.928-7.28-14.8-6.624l-134 14.88-74.672-119.456c-2.912-4.688-8.048-7.52-13.552-7.52-0.256 0-0.496 0-0.768 0.016-5.776 0.272-10.96 3.664-13.552 8.832l-140.512 281.024c102.48 10.32 192.592 62.928 252.816 139.968zM512 1008c-185.264 0-336-150.72-336-336s150.736-336 336-336 336 150.72 336 336-150.736 336-336 336zM683.072 695.552l-74.512-71.552 16.688-101.952c0.992-6.016-1.536-12.064-6.48-15.6-2.784-1.984-6.032-2.992-9.312-2.992-2.592 0-5.184 0.624-7.552 1.904l-91.072 48.768-91.792-47.376c-5.392-2.8-11.952-2.272-16.848 1.344-4.912 3.616-7.328 9.696-6.256 15.696l18.24 101.696-73.424 72.672c-4.336 4.288-5.856 10.656-3.92 16.432 1.92 5.776 6.96 9.968 12.992 10.784l102.336 14.064 46.416 92.304c2.736 5.456 8.032 9.2 14.416 8.816 6.096-0.048 11.632-3.552 14.288-9.024l45.008-92.992 102.128-15.632c6.016-0.912 11.008-5.184 12.832-10.992 1.84-5.808 0.224-12.16-4.176-16.368z" />
<glyph unicode="&#xe924;" glyph-name="coins" d="M224 592c-91.232 0-167.296 27.616-208 70.288v-54.288c0-62.8 91.36-112 208-112s208 49.2 208 112v54.288c-40.704-42.672-116.768-70.288-208-70.288zM224 720c-91.232 0-167.296 27.616-208 70.288v-54.288c0-62.8 91.36-112 208-112s208 49.2 208 112v54.288c-40.704-42.672-116.768-70.288-208-70.288zM800 592c-91.232 0-167.296 27.616-208 70.288v-54.288c0-62.8 91.36-112 208-112s208 49.2 208 112v54.288c-40.704-42.672-116.768-70.288-208-70.288zM800 848c-116.64 0-208-49.2-208-112s91.36-112 208-112 208 49.2 208 112-91.36 112-208 112zM224 976c-116.64 0-208-49.2-208-112s91.36-112 208-112 208 49.2 208 112-91.36 112-208 112zM800 336c-16.624 0-32.576 1.12-48 2.96v-95.68c15.424-1.952 31.328-3.28 48-3.28 116.64 0 208 49.2 208 112v54.288c-40.704-42.672-116.768-70.288-208-70.288zM800 464c-22.256 0-43.568 1.696-63.712 4.8 10.048-16.224 15.712-33.936 15.712-52.8v-44.784c15.424-1.936 31.344-3.216 48-3.216 116.64 0 208 49.2 208 112v54.288c-40.704-42.672-116.768-70.288-208-70.288zM512 144c-91.232 0-167.296 27.616-208 70.288v-54.288c0-62.8 91.36-112 208-112s208 49.2 208 112v54.288c-40.704-42.672-116.768-70.288-208-70.288zM512 272c-91.232 0-167.296 27.616-208 70.288v-54.288c0-62.8 91.36-112 208-112s208 49.2 208 112v54.288c-40.704-42.672-116.768-70.288-208-70.288zM512 528c-116.64 0-208-49.2-208-112s91.36-112 208-112 208 49.2 208 112-91.36 112-208 112zM272 338.96c-15.488-1.744-31.376-2.96-48-2.96-91.232 0-167.296 27.616-208 70.288v-54.288c0-62.8 91.36-112 208-112 16.608 0 32.608 1.104 48 2.992v95.968zM272 416c0 18.864 5.664 36.576 15.712 52.8-20.144-3.104-41.456-4.8-63.712-4.8-91.232 0-167.296 27.616-208 70.288v-54.288c0-62.8 91.36-112 208-112 16.656 0 32.576 1.28 48 3.216v44.784z" />
<glyph unicode="&#xe925;" glyph-name="connect" d="M192 432c-97.040 0-176-78.96-176-176s78.96-176 176-176 176 78.96 176 176-78.96 176-176 176zM399.184 272c0.416-5.296 0.816-10.592 0.816-16s-0.4-10.704-0.816-16h225.616c-0.4 5.296-0.8 10.592-0.8 16s0.4 10.704 0.816 16h-225.632zM832 432c-97.040 0-176-78.96-176-176s78.96-176 176-176 176 78.96 176 176-78.96 176-176 176zM415.728 583.792c-9.504 4.992-18.48 10.752-27.056 17.088l-100.416-160.688c9.504-4.992 18.48-10.752 27.056-17.088l100.416 160.688zM608.272 583.792l100.416-160.688c8.56 6.336 17.552 12.112 27.056 17.088l-100.416 160.688c-8.576-6.336-17.568-12.096-27.056-17.088zM512 592c97.040 0 176 78.96 176 176s-78.96 176-176 176-176-78.96-176-176 78.96-176 176-176z" />
<glyph unicode="&#xe926;" glyph-name="contacts-2" d="M992 704h-48v192h48c8.832 0 16-7.168 16-16v-160c0-8.832-7.168-16-16-16zM992 448h-48v192h48c8.832 0 16-7.168 16-16v-160c0-8.832-7.168-16-16-16zM829.088 1008h-589.088v-992h589.088c45.728 0 82.912 35.888 82.912 80v832c0 44.112-37.184 80-82.912 80zM576 704c44.112 0 80-35.888 80-80s-35.888-80-80-80-80 35.888-80 80 35.888 80 80 80zM736 336h-320c-8.848 0-16 7.168-16 16 0 79.392 64.592 144 144 144h64c79.408 0 144-64.608 144-144 0-8.832-7.152-16-16-16zM208 1008h-96c-17.68 0-32-14.32-32-32v-928c0-17.68 14.32-32 32-32h96v992z" />
<glyph unicode="&#xe927;" glyph-name="contacts" d="M976 704h-48v192h48c8.832 0 16-7.168 16-16v-160c0-8.832-7.168-16-16-16zM976 448h-48v192h48c8.832 0 16-7.168 16-16v-160c0-8.832-7.168-16-16-16zM192 1008h-96c-17.68 0-32-14.32-32-32v-928c0-17.68 14.32-32 32-32h96v992zM813.088 1008h-589.088v-992h589.088c45.728 0 82.912 35.888 82.912 80v832c0 44.112-37.184 80-82.912 80zM736 448h-352c-8.848 0-16 7.152-16 16s7.152 16 16 16h352c8.848 0 16-7.152 16-16s-7.152-16-16-16zM752 608c0-8.848-7.152-16-16-16h-352c-8.848 0-16 7.152-16 16v192c0 8.848 7.152 16 16 16h352c8.848 0 16-7.152 16-16v-192z" />
<glyph unicode="&#xe928;" glyph-name="currency-dollar" d="M717.376 223.136c-39.84-34.576-101.888-56.352-173.376-65.328v-141.808h-64v136.528c-70.528 0-168.864 8.928-233.136 38.672v91.408c67.6-30.144 159.68-49.216 233.136-49.216v257.808c-126.416 40.080-222 86.416-222 218.56 0 116.656 105.504 173.68 222 186.24v112h64v-112c71.872-1.968 147.584-15.744 214.384-42.688l-30.464-76.752c-58.208 23.040-123.776 35.136-183.92 39.44v-252.736c80.24-25.568 170.592-53.088 211.456-120.992 31.408-52.24 37.328-153.728-38.080-219.136zM357.024 710.928c0-73.632 51.52-96.064 122.976-122.464v227.536c-65.088-10.528-122.976-39.072-122.976-105.072zM677.52 347.056c0 28.128-8.688 50.88-26.080 68.272-17.376 17.376-57.456 34.656-107.456 51.856v-227.184c84.768 11.712 133.536 46.896 133.536 107.056z" />
<glyph unicode="&#xe929;" glyph-name="currency-euro" d="M621.088 870.576c-126.768 0-205.712-86.416-237.088-246.576h304v-64h-312.528c-2.816-35.664-2.48-67.328 0-112h280.528v-64h-272c14.704-71.536 43.232-133.312 83.584-172.464 86.592-84.016 236.928-66.448 346.064-19.376v-89.424c-126.624-56.368-308.352-59.136-416.416 41.44-57.44 53.44-95.28 137.664-113.552 239.808h-91.68v64h83.328c-2.656 31.664-2.656 65.328 0 112h-83.328v64h90.48c15.52 103.728 52.272 190.928 110.288 248.96 58.032 58.048 134.144 87.056 228.32 87.056 79.904 0 152.608-19.28 218.208-57.824l-42.336-82.864c-65.984 34.176-124.592 51.264-175.872 51.264z" />
<glyph unicode="&#xe92a;" glyph-name="currency-pound" d="M575.232 960c76.624 0 149.216-16.944 217.792-50.816l-36.896-80.464c-62.112 31.056-122.016 46.592-179.696 46.592-49.616 0-87.024-12.496-112.224-37.504-25.216-25.008-37.824-65.744-37.824-122.208v-187.6h245.616v-80h-245.6v-121.424c0-40.336-6.544-74.208-19.664-101.632-13.12-27.44-34.576-50.016-64.416-67.76h473.68v-93.184h-615.28v85.312c82.688 18.96 124.032 77.648 124.032 176.048v122.64h-116.752v80h116.752v200.288c0 71.792 22.592 128.352 67.76 169.712 45.184 41.328 106.080 62 182.72 62z" />
<glyph unicode="&#xe92b;" glyph-name="currency-yen" d="M850.912 960h-106.64l-232.272-445.552-229.808 445.552h-109.104l247.664-464h-148.752v-80h192v-112h-192v-80h192v-160h96v160h192v80h-192v112h192v80h-151.76z" />
<glyph unicode="&#xe92c;" glyph-name="dice" d="M768 745.376v-704l219.312 219.312c3.008 2.992 4.688 7.072 4.688 11.312v697.376l-224-224zM745.376 768l224 224h-697.376c-4.24 0-8.32-1.68-11.312-4.688l-219.312-219.312h704zM736 736h-704v-688c0-8.832 7.168-16 16-16h688v704zM544 592c26.464 0 48-21.536 48-48s-21.536-48-48-48-48 21.536-48 48 21.536 48 48 48zM224 176c-26.464 0-48 21.536-48 48s21.536 48 48 48 48-21.536 48-48-21.536-48-48-48zM224 496c-26.464 0-48 21.536-48 48s21.536 48 48 48 48-21.536 48-48-21.536-48-48-48zM384 336c-26.464 0-48 21.536-48 48s21.536 48 48 48 48-21.536 48-48-21.536-48-48-48zM544 176c-26.464 0-48 21.536-48 48s21.536 48 48 48 48-21.536 48-48-21.536-48-48-48z" />
<glyph unicode="&#xe92d;" glyph-name="factory" d="M48 816h542.384c4.544 0 8.896 1.936 11.92 5.328 3.040 3.408 4.48 7.92 3.984 12.448-9.088 81.088-77.152 142.224-158.288 142.224-37.408 0-72.72-12.816-101.296-36.432-33.264 43.168-83.84 68.432-138.704 68.432-97.040 0-176-78.96-176-176 0-8.848 7.152-16 16-16zM983.024 718.368c-5.504 2.688-12.016 2.016-16.864-1.744l-262.16-203.904v191.28c0 5.968-3.312 11.44-8.608 14.192-5.296 2.768-11.664 2.352-16.56-1.072l-307.024-214.912-150.8 211.088c-2.992 4.208-7.84 6.704-13.008 6.704h-160c-8.848 0-16-7.152-16-16v-672c0-8.848 7.152-16 16-16h928c8.848 0 16 7.152 16 16v672c0 6.112-3.488 11.68-8.976 14.368zM576 176c0-8.848-7.152-16-16-16h-128c-8.848 0-16 7.152-16 16v128c0 8.848 7.152 16 16 16h128c8.848 0 16-7.152 16-16v-128zM832 176c0-8.848-7.152-16-16-16h-128c-8.848 0-16 7.152-16 16v128c0 8.848 7.152 16 16 16h128c8.848 0 16-7.152 16-16v-128z" />
<glyph unicode="&#xe92e;" glyph-name="globe" d="M512 1008c-273.504 0-496-222.512-496-496s222.496-496 496-496 496 222.512 496 496-222.496 496-496 496zM894.464 311.472h-129.12c15.168 56.496 24.112 118.848 25.376 184.528h152.896c-2.448-66.4-19.92-129.008-49.152-184.528zM590.352 87.248c-20.336-3.744-41.136-6.064-62.352-6.848v199.072h194.992c-30.080-89.488-76.976-158.336-132.64-192.224zM301.008 279.472h194.992v-199.056c-21.216 0.784-42.016 3.104-62.352 6.848-55.664 33.872-102.56 102.72-132.64 192.208zM80.4 496h152.896c1.264-65.68 10.208-128.048 25.376-184.528h-129.12c-29.248 55.52-46.72 118.128-49.152 184.528zM129.536 712.528h129.12c-15.152-56.48-24.096-118.848-25.36-184.528h-152.896c2.432 66.4 19.904 129.008 49.136 184.528zM433.648 936.752c20.336 3.744 41.136 6.064 62.352 6.848v-199.056h-194.992c30.080 89.472 76.976 158.32 132.64 192.208zM722.992 744.528h-194.992v199.072c21.216-0.784 42.016-3.104 62.352-6.848 55.664-33.888 102.56-102.736 132.64-192.224zM732.72 712.528c15.488-55.888 24.704-118.384 26-184.528h-230.72v184.528h204.72zM496 712.528v-184.528h-230.72c1.296 66.144 10.512 128.64 26 184.528h204.72zM265.28 496h230.72v-184.528h-204.72c-15.488 55.888-24.704 118.384-26 184.528zM528 311.472v184.528h230.72c-1.296-66.144-10.512-128.64-26-184.528h-204.72zM790.704 528c-1.264 65.68-10.208 128.048-25.376 184.528h129.12c29.232-55.52 46.704-118.128 49.136-184.528h-152.88zM875.792 744.528h-119.872c-22.752 70.416-55.52 129.936-94.944 172.976 89.040-32.816 164.304-94.224 214.816-172.976zM363.040 917.504c-39.424-43.040-72.176-102.576-94.944-172.976h-119.888c50.512 78.752 125.776 140.16 214.832 172.976zM148.208 279.472h119.872c22.752-70.416 55.52-129.936 94.944-172.976-89.040 32.816-164.304 94.224-214.816 172.976zM660.96 106.496c39.424 43.040 72.176 102.576 94.944 172.976h119.872c-50.496-78.752-125.76-140.16-214.816-172.976z" />
<glyph unicode="&#xe92f;" glyph-name="goal-64" d="M416 16c-220.56 0-400 179.44-400 400s179.44 400 400 400c51.872 0 102.336-9.776 150-29.072 8.192-3.312 12.144-12.64 8.816-20.832-3.312-8.208-12.624-12.16-20.832-8.832-43.824 17.744-90.256 26.736-137.984 26.736-202.912 0-368-165.072-368-368s165.088-368 368-368 368 165.072 368 368c0 47.712-8.992 94.16-26.736 138-3.328 8.192 0.64 17.52 8.832 20.832 8.208 3.328 17.52-0.64 20.832-8.832 19.296-47.664 29.072-98.144 29.072-150 0-220.56-179.44-400-400-400zM416 192c-123.52 0-224 100.48-224 224s100.48 224 224 224 224-100.48 224-224-100.48-224-224-224zM416 608c-105.872 0-192-86.128-192-192s86.128-192 192-192 192 86.128 192 192-86.128 192-192 192zM991.312 788.64c-1.712 5.648-6.384 9.888-12.176 11.040l-130.688 26.128 90.864 90.864c6.256 6.256 6.256 16.368 0 22.624s-16.368 6.256-22.624 0l-90.864-90.864-26.144 130.704c-1.152 5.776-5.408 10.464-11.056 12.176-5.664 1.728-11.776 0.176-15.952-4l-128-128c-3.776-3.776-5.424-9.2-4.368-14.448l30.32-151.6-234.048-234.064c-6.256 2.992-13.184 4.8-20.576 4.8-26.512 0-48-21.488-48-48s21.488-48 48-48 48 21.488 48 48c0 7.392-1.808 14.32-4.8 20.576l234.064 234.064 151.6-30.32c1.040-0.208 2.096-0.32 3.136-0.32 4.208 0 8.288 1.664 11.312 4.688l128 128c4.176 4.176 5.712 10.304 4 15.952z" />
<glyph unicode="&#xe930;" glyph-name="goal-65" d="M416 208c-220.56 0-400 179.44-400 400s179.44 400 400 400 400-179.44 400-400c0-8.848-7.168-16-16-16s-16 7.152-16 16c0 202.928-165.088 368-368 368s-368-165.072-368-368 165.088-368 368-368c8.832 0 16-7.152 16-16s-7.168-16-16-16zM1003.312 203.312l-180.688 180.688 116.688 116.688c4.304 4.304 5.792 10.672 3.84 16.432s-7.008 9.936-13.040 10.736l-480 64c-4.992 0.672-9.904-1.008-13.424-4.544-3.52-3.52-5.2-8.48-4.544-13.424l64-480c0.8-6.048 4.96-11.088 10.72-13.040 5.76-1.92 12.144-0.464 16.448 3.84l116.688 116.688 180.688-180.688c3.12-3.12 7.216-4.688 11.312-4.688s8.192 1.568 11.312 4.688l160 160c6.256 6.256 6.256 16.368 0 22.624zM384.016 402.656c-0.88 0-1.76 0.064-2.672 0.224-100.432 16.848-173.344 103.12-173.344 205.12 0 114.688 93.312 208 208 208 102 0 188.272-72.912 205.12-173.36 1.456-8.704-4.416-16.96-13.136-18.416-8.752-1.568-16.96 4.416-18.432 13.136-14.24 84.976-87.232 146.64-173.552 146.64-97.040 0-176-78.96-176-176 0-86.32 61.68-159.312 146.656-173.568 8.704-1.472 14.592-9.712 13.136-18.416-1.312-7.824-8.096-13.36-15.776-13.36z" />
<glyph unicode="&#xe931;" glyph-name="gold" d="M846.4 358.4c-3.2 6.4-8 9.6-14.4 9.6h-224c-6.4 0-12.8-4.8-14.4-9.6l-81.6-217.6-81.6 216c-1.6 6.4-8 11.2-14.4 11.2h-224c-6.4 0-11.2-3.2-14.4-9.6l-128-256c-3.2-4.8-1.6-11.2 0-16s9.6-6.4 14.4-6.4h896c4.8 0 11.2 3.2 14.4 8s3.2 11.2 0 16l-128 254.4zM257.6 408c3.2-4.8 8-8 14.4-8h480c4.8 0 11.2 3.2 14.4 8s3.2 11.2 0 16l-128 256c-3.2 4.8-8 8-14.4 8h-224c-6.4 0-11.2-3.2-14.4-9.6l-128-256c-1.6-4.8-1.6-9.6 0-14.4zM144 480c0 9.6-6.4 16-16 16h-96c-9.6 0-16-6.4-16-16s6.4-16 16-16h96c9.6 0 16 6.4 16 16zM228.8 740.8c3.2-3.2 8-4.8 11.2-4.8s8 1.6 11.2 4.8c6.4 6.4 6.4 16 0 22.4l-67.2 67.2c-6.4 6.4-16 6.4-22.4 0s-6.4-16 0-22.4l67.2-67.2zM512 848c9.6 0 16 6.4 16 16v96c0 9.6-6.4 16-16 16s-16-6.4-16-16v-96c0-9.6 6.4-16 16-16zM784 736c4.8 0 8 1.6 11.2 4.8l67.2 67.2c6.4 6.4 6.4 16 0 22.4s-16 6.4-22.4 0l-67.2-67.2c-6.4-6.4-6.4-16 0-22.4 3.2-3.2 6.4-4.8 11.2-4.8zM992 496h-96c-9.6 0-16-6.4-16-16s6.4-16 16-16h96c9.6 0 16 6.4 16 16s-6.4 16-16 16z" />
<glyph unicode="&#xe932;" glyph-name="hammer" d="M208 464h-128c-8.848 0-16 7.152-16 16s7.152 16 16 16h128c8.848 0 16-7.152 16-16s-7.152-16-16-16zM254.864 577.136c-4.096 0-8.192 1.568-11.312 4.688l-90.496 90.496c-6.256 6.256-6.256 16.368 0 22.624s16.368 6.256 22.624 0l90.496-90.496c6.256-6.256 6.256-16.368 0-22.624-3.136-3.12-7.216-4.688-11.312-4.688zM992 384h-960c-4.816 0-9.376-2.176-12.4-5.904-3.040-3.728-4.24-8.624-3.264-13.344 1.424-6.896 37.504-165.856 287.664-172.432v-160.32c0-8.848 7.152-16 16-16h512c8.848 0 16 7.152 16 16 0 79.408 64.592 144 144 144 8.848 0 16 7.152 16 16v176c0 8.848-7.152 16-16 16zM923.312 571.312l-158.064 158.064-118.624-118.624 158.064-158.064c3.12-3.12 7.216-4.688 11.312-4.688s8.192 1.568 11.312 4.688l96 96c6.256 6.256 6.256 16.368 0 22.624zM843.312 875.312l-128 128c-6.256 6.256-16.368 6.256-22.624 0l-320-320c-6.256-6.256-6.256-16.368 0-22.624l128-128c3.12-3.12 7.216-4.688 11.312-4.688s8.192 1.568 11.312 4.688l320 320c6.256 6.256 6.256 16.368 0 22.624z" />
<glyph unicode="&#xe933;" glyph-name="handout" d="M384 976c-79.408 0-144-64.592-144-144s64.592-144 144-144 144 64.592 144 144-64.592 144-144 144zM432 816h-96c-8.848 0-16 7.152-16 16s7.152 16 16 16h96c8.848 0 16-7.152 16-16s-7.152-16-16-16zM768 784c-79.408 0-144-64.592-144-144s64.592-144 144-144 144 64.592 144 144-64.592 144-144 144zM816 624h-96c-8.848 0-16 7.152-16 16s7.152 16 16 16h96c8.848 0 16-7.152 16-16s-7.152-16-16-16zM926.8 304.144l-382.272-33.248c-35.392-3.072-70.88 4.72-101.712 22.336l-105.36 60.208h245.84c32.928 0 59.616 26.688 59.616 59.616 0 28.688-20.432 53.312-48.624 58.592l-220.736 41.392c-53.040 9.952-106.88 14.96-160.848 14.96h-180.704v-315.904l358.896-149.616c39.728-14.896 83.68-14.688 124.112-4.48l476.992 186.384c0 35.184-30.144 62.816-65.2 59.76z" />
<glyph unicode="&#xe934;" glyph-name="handshake" d="M987.312 715.312l-224 224c-2.895 2.894-6.895 4.685-11.312 4.685s-8.417-1.79-11.312-4.685l-43.312-43.312h-98.224c-0.146 0-0.318 0.001-0.491 0.001-57.718 0-109.942-23.524-147.607-61.506l-0.014-0.014-165.040-172.688c-9.211-9.644-14.88-22.74-14.88-37.16 0-29.735 24.105-53.84 53.84-53.84 11.032 0 21.29 3.318 29.829 9.011l-0.197-0.123 181.408 119.904c27.864-26.867 65.832-43.418 107.666-43.418 0.629 0 1.258 0.004 1.886 0.011l-0.095-0.001c1.765-0.074 3.836-0.117 5.918-0.117 30.104 0 58.139 8.856 81.643 24.104l-0.585-0.355 165.76-171.392s29.632 71.248 29.632 124.8l59.488 59.488c2.89 2.894 4.677 6.891 4.677 11.304s-1.787 8.41-4.677 11.304v0zM910.4 450.016l-163.936 168.496-21.552 22.752c-23.279-10.793-50.527-17.088-79.244-17.088-0.063 0-0.126 0-0.19 0h0.010c-0.463-0.004-1.011-0.006-1.559-0.006-41.38 0-79.651 13.312-110.763 35.888l0.546-0.378-161.472-106.688c-13.318-8.893-29.695-14.192-47.31-14.192-23.7 0-45.159 9.592-60.708 25.105l0.002-0.002c-15.421 15.584-24.948 37.027-24.948 60.695 0 22.988 8.988 43.877 23.641 59.345l-0.037-0.039 165.024 172.688c9.648 9.565 20.099 18.357 31.232 26.251l0.768 0.517c-24.156 7.879-51.961 12.49-80.822 12.64h-52.458l-43.312 43.312c-2.895 2.894-6.895 4.685-11.312 4.685s-8.417-1.79-11.312-4.685l-224-224c-2.894-2.895-4.685-6.895-4.685-11.312s1.79-8.417 4.685-11.312l58.272-58.272c-1.654-11.618-2.598-25.037-2.598-38.677 0-33.916 5.84-66.468 16.568-96.705l-0.626 2.022c14.73 7.94 32.236 12.605 50.833 12.605 52.339 0 96.046-36.957 106.449-86.199l0.126-0.71c45.804-7.916 81.512-43.279 89.848-88.25l0.104-0.678c41.139-7.489 73.813-37.211 85.449-76.028l0.199-0.772c57.597-4.114 102.765-51.85 102.765-110.136 0-23.286-7.209-44.888-19.518-62.697l0.241 0.368c13.66-12.154 31.761-19.579 51.596-19.579 41.743 0 75.805 32.885 77.693 74.161l0.006 0.17c9.024-3.944 19.54-6.24 30.591-6.24 43.14 0 78.112 34.972 78.112 78.112 0 0.546-0.006 1.090-0.017 1.633l0.001-0.081c6.881-2.191 14.795-3.454 23.004-3.454 43.255 0 78.32 35.065 78.32 78.32 0 10.212-1.954 19.967-5.509 28.912l0.186-0.529c21.275 0.827 40.191 10.282 53.462 24.943l0.058 0.065c12.276 13.573 19.788 31.656 19.788 51.494 0 20.818-8.273 39.704-21.71 53.549l0.018-0.019zM489.024 206.256c-14.102 14.183-33.627 22.96-55.202 22.96-0.078 0-0.156 0-0.234 0h0.012c-7.090-0.105-13.895-1.133-20.362-2.966l0.554 0.134c0.054 1.082 0.085 2.349 0.085 3.623 0 42.866-34.75 77.616-77.616 77.616-4.13 0-8.184-0.323-12.139-0.944l0.438 0.057c0.546 3.47 0.859 7.473 0.859 11.547 0 43.122-34.958 78.080-78.080 78.080-4.371 0-8.658-0.359-12.833-1.049l0.454 0.062c0.514 3.064 0.843 6.641 0.911 10.281l0.001 0.071c-0.18 21.514-9.243 40.876-23.696 54.626l-0.032 0.030c-13.789 13.115-32.484 21.182-53.064 21.182-21.495 0-40.934-8.801-54.911-22.996l-0.010-0.010-9.312-9.6c-13.439-13.804-21.727-32.682-21.727-53.495 0-41.713 33.289-75.65 74.75-76.695l0.097-0.002h1.936c1.296 0 2.528 0.304 3.808 0.368-1.483-5.681-2.335-12.203-2.335-18.923 0-42.99 34.85-77.84 77.84-77.84 8.406 0 16.502 1.333 24.086 3.798l-0.551-0.155c0-0.432-0.128-0.832-0.128-1.264 0-43.299 35.101-78.4 78.4-78.4v0c5.784 0.026 11.402 0.672 16.812 1.874l-0.524-0.098c-0.144-1.92-0.56-3.792-0.56-5.744 0.006-43.295 35.105-78.39 78.4-78.39 21.651 0 41.252 8.776 55.44 22.966l8.4 8.4c14.184 14.199 22.957 33.807 22.957 55.464 0 21.641-8.759 41.236-22.926 55.433l0.001-0.001z" />
<glyph unicode="&#xe935;" glyph-name="hat" d="M848 416v176c0 185.28-150.72 336-336 336s-336-150.72-336-336v-176h672zM176 384h672v-224h-672v224zM864 96h-704c-79.392 0-144 64.608-144 144 0 8.832 7.168 16 16 16s16-7.168 16-16c0-61.76 50.24-112 112-112h704c61.76 0 112 50.24 112 112 0 8.832 7.168 16 16 16s16-7.168 16-16c0-79.392-64.608-144-144-144z" />
<glyph unicode="&#xe936;" glyph-name="hierarchy-53" d="M256 304h-224c-8.832 0-16-7.152-16-16v-224c0-8.848 7.168-16 16-16h224c8.832 0 16 7.152 16 16v224c0 8.848-7.168 16-16 16zM624 304h-224c-8.832 0-16-7.152-16-16v-224c0-8.848 7.168-16 16-16h224c8.832 0 16 7.152 16 16v224c0 8.848-7.168 16-16 16zM400 720h224c8.832 0 16 7.152 16 16v224c0 8.848-7.168 16-16 16h-224c-8.832 0-16-7.152-16-16v-224c0-8.848 7.168-16 16-16zM992 304h-224c-8.832 0-16-7.152-16-16v-224c0-8.848 7.168-16 16-16h224c8.832 0 16 7.152 16 16v224c0 8.848-7.168 16-16 16zM144 368c8.832 0 16 7.152 16 16v112h336v-112c0-8.848 7.168-16 16-16s16 7.152 16 16v112h336v-112c0-8.848 7.168-16 16-16s16 7.152 16 16v128c0 8.848-7.168 16-16 16h-352v112c0 8.848-7.168 16-16 16s-16-7.152-16-16v-112h-352c-8.832 0-16-7.152-16-16v-128c0-8.848 7.168-16 16-16z" />
<glyph unicode="&#xe937;" glyph-name="hierarchy-54" d="M256 304h-224c-8.832 0-16-7.152-16-16v-224c0-8.848 7.168-16 16-16h224c8.832 0 16 7.152 16 16v224c0 8.848-7.168 16-16 16zM624 304h-224c-8.832 0-16-7.152-16-16v-224c0-8.848 7.168-16 16-16h224c8.832 0 16 7.152 16 16v224c0 8.848-7.168 16-16 16zM992 304h-224c-8.832 0-16-7.152-16-16v-224c0-8.848 7.168-16 16-16h224c8.832 0 16 7.152 16 16v224c0 8.848-7.168 16-16 16zM144 368c8.832 0 16 7.152 16 16v112h336v-112c0-8.848 7.168-16 16-16s16 7.152 16 16v112h336v-112c0-8.848 7.168-16 16-16s16 7.152 16 16v128c0 8.848-7.168 16-16 16h-352v112c0 8.848-7.168 16-16 16s-16-7.152-16-16v-112h-352c-8.832 0-16-7.152-16-16v-128c0-8.848 7.168-16 16-16zM640 848c0-70.692-57.308-128-128-128s-128 57.308-128 128c0 70.692 57.308 128 128 128s128-57.308 128-128z" />
<glyph unicode="&#xe938;" glyph-name="hierarchy-55" d="M144 368c8.832 0 16 7.152 16 16v112h336v-112c0-8.848 7.168-16 16-16s16 7.152 16 16v112h336v-112c0-8.848 7.168-16 16-16s16 7.152 16 16v128c0 8.848-7.168 16-16 16h-352v112c0 8.848-7.168 16-16 16s-16-7.152-16-16v-112h-352c-8.832 0-16-7.152-16-16v-128c0-8.848 7.168-16 16-16zM640 848c0-70.692-57.308-128-128-128s-128 57.308-128 128c0 70.692 57.308 128 128 128s128-57.308 128-128zM272 176c0-70.692-57.308-128-128-128s-128 57.308-128 128c0 70.692 57.308 128 128 128s128-57.308 128-128zM640 176c0-70.692-57.308-128-128-128s-128 57.308-128 128c0 70.692 57.308 128 128 128s128-57.308 128-128zM1008 176c0-70.692-57.308-128-128-128s-128 57.308-128 128c0 70.692 57.308 128 128 128s128-57.308 128-128z" />
<glyph unicode="&#xe939;" glyph-name="hierarchy-56" d="M400 720h224c8.848 0 16 7.152 16 16v224c0 8.848-7.152 16-16 16h-224c-8.848 0-16-7.152-16-16v-224c0-8.848 7.152-16 16-16zM144 368c8.848 0 16 7.152 16 16v112h336v-112c0-8.848 7.152-16 16-16s16 7.152 16 16v112h336v-112c0-8.848 7.152-16 16-16s16 7.152 16 16v128c0 8.848-7.152 16-16 16h-352v112c0 8.848-7.152 16-16 16s-16-7.152-16-16v-112h-352c-8.848 0-16-7.152-16-16v-128c0-8.848 7.152-16 16-16zM272 176c0-70.692-57.308-128-128-128s-128 57.308-128 128c0 70.692 57.308 128 128 128s128-57.308 128-128zM640 176c0-70.692-57.308-128-128-128s-128 57.308-128 128c0 70.692 57.308 128 128 128s128-57.308 128-128zM1008 176c0-70.692-57.308-128-128-128s-128 57.308-128 128c0 70.692 57.308 128 128 128s128-57.308 128-128z" />
<glyph unicode="&#xe93a;" glyph-name="laptop-71" d="M736 528c8.832 0 16 7.152 16 16v144c0 8.848-7.168 16-16 16h-144c-8.832 0-16-7.152-16-16s7.168-16 16-16h105.376l-169.376-169.376-116.688 116.688c-6.256 6.256-16.368 6.256-22.624 0l-128-128c-6.256-6.256-6.256-16.368 0-22.624s16.368-6.256 22.624 0l116.688 116.688 116.688-116.688c3.12-3.12 7.216-4.688 11.312-4.688s8.192 1.568 11.312 4.688l180.688 180.688v-105.376c0-8.848 7.168-16 16-16zM160 800c0 17.648 14.352 32 32 32h640c17.648 0 32-14.352 32-32v-464h64v464c0 52.944-43.056 96-96 96h-640c-52.944 0-96-43.056-96-96v-464h64v464zM992 304h-352v-48h-256v48h-352c-8.848 0-16-7.168-16-16 0-79.392 64.592-144 144-144h704c79.408 0 144 64.608 144 144 0 8.832-7.152 16-16 16z" />
<glyph unicode="&#xe93b;" glyph-name="laptop-72" d="M480 752c-8.832 0-16-7.152-16-16v-320c0-8.848 7.168-16 16-16h64c8.832 0 16 7.152 16 16v320c0 8.848-7.168 16-16 16h-64zM272 560c-8.832 0-16-7.152-16-16v-128c0-8.848 7.168-16 16-16h64c8.832 0 16 7.152 16 16v128c0 8.848-7.168 16-16 16h-64zM688 640c-8.832 0-16-7.152-16-16v-208c0-8.848 7.168-16 16-16h64c8.832 0 16 7.152 16 16v208c0 8.848-7.168 16-16 16h-64zM160 800c0 17.648 14.352 32 32 32h640c17.648 0 32-14.352 32-32v-464h64v464c0 52.944-43.056 96-96 96h-640c-52.944 0-96-43.056-96-96v-464h64v464zM992 304h-352v-48h-256v48h-352c-8.848 0-16-7.168-16-16 0-79.392 64.592-144 144-144h704c79.408 0 144 64.608 144 144 0 8.832-7.152 16-16 16z" />
<glyph unicode="&#xe93c;" glyph-name="laptop-91" d="M512 400c-97.040 0-176 78.96-176 176s78.96 176 176 176v-176h176c0-97.040-78.96-176-176-176zM160 800c0 17.648 14.352 32 32 32h640c17.648 0 32-14.352 32-32v-464h64v464c0 52.944-43.056 96-96 96h-640c-52.944 0-96-43.056-96-96v-464h64v464zM992 304h-352v-48h-256v48h-352c-8.848 0-16-7.168-16-16 0-79.392 64.592-144 144-144h704c79.408 0 144 64.608 144 144 0 8.832-7.152 16-16 16z" />
<glyph unicode="&#xe93d;" glyph-name="law" d="M640 48h-64v128c0 8.832-7.168 16-16 16h-448c-8.832 0-16-7.168-16-16v-128h-64c-8.832 0-16-7.152-16-16s7.168-16 16-16h608c8.832 0 16 7.152 16 16s-7.168 16-16 16zM144 304h-112c-8.832 0-16 7.152-16 16s7.168 16 16 16h112c8.832 0 16-7.152 16-16s-7.168-16-16-16zM204.928 451.072c-4.096 0-8.192 1.568-11.312 4.688l-79.2 79.2c-6.256 6.256-6.256 16.368 0 22.624s16.368 6.256 22.624 0l79.2-79.2c6.256-6.256 6.256-16.368 0-22.624-3.136-3.12-7.232-4.688-11.312-4.688zM987.312 395.312l-222.064 222.064-118.624-118.624 222.064-222.064c3.12-3.12 7.216-4.688 11.312-4.688s8.192 1.568 11.312 4.688l96 96c6.256 6.256 6.256 16.368 0 22.624zM907.312 763.312l-224 224c-6.256 6.256-16.368 6.256-22.624 0s-6.256-16.368 0-22.624l20.688-20.688-361.376-361.376-20.688 20.688c-6.256 6.256-16.368 6.256-22.624 0s-6.256-16.368 0-22.624l224-224c3.12-3.12 7.216-4.688 11.312-4.688s8.192 1.568 11.312 4.688c6.256 6.256 6.256 16.368 0 22.624l-20.688 20.688 361.376 361.376 20.688-20.688c3.12-3.12 7.216-4.688 11.312-4.688s8.192 1.568 11.312 4.688c6.256 6.256 6.256 16.368 0 22.624z" />
<glyph unicode="&#xe93e;" glyph-name="math" d="M496 496h-448v-432c0-8.848 7.152-16 16-16h432v448zM363.312 180.688c-3.12-3.12-7.216-4.688-11.312-4.688s-8.192 1.568-11.312 4.688l-68.688 68.688-68.688-68.688c-3.12-3.12-7.216-4.688-11.312-4.688s-8.192 1.568-11.312 4.688c-6.256 6.256-6.256 16.368 0 22.624l68.688 68.688-68.688 68.688c-6.256 6.256-6.256 16.368 0 22.624s16.368 6.256 22.624 0l68.688-68.688 68.688 68.688c6.256 6.256 16.368 6.256 22.624 0s6.256-16.368 0-22.624l-68.688-68.688 68.688-68.688c6.256-6.256 6.256-16.368 0-22.624zM496 528v448h-432c-8.848 0-16-7.152-16-16v-432h448zM176 768h80v80c0 8.848 7.152 16 16 16s16-7.152 16-16v-80h80c8.848 0 16-7.152 16-16s-7.152-16-16-16h-80v-80c0-8.848-7.152-16-16-16s-16 7.152-16 16v80h-80c-8.848 0-16 7.152-16 16s7.152 16 16 16zM528 496v-448h432c8.848 0 16 7.152 16 16v432h-448zM848 192h-192c-8.848 0-16 7.152-16 16s7.152 16 16 16h192c8.848 0 16-7.152 16-16s-7.152-16-16-16zM848 320h-192c-8.848 0-16 7.152-16 16s7.152 16 16 16h192c8.848 0 16-7.152 16-16s-7.152-16-16-16zM528 528h448v432c0 8.848-7.152 16-16 16h-432v-448zM656 768h192c8.848 0 16-7.152 16-16s-7.152-16-16-16h-192c-8.848 0-16 7.152-16 16s7.152 16 16 16z" />
<glyph unicode="&#xe93f;" glyph-name="money-11" d="M720.848 720h-417.696c-7.152-67.696-59.456-120-127.152-127.152v-161.68c67.696-7.168 120-59.456 127.152-127.152h417.68c7.168 67.696 59.456 120 127.152 127.152v161.68c-67.68 7.152-119.984 59.456-127.136 127.152zM512 416c-53.024 0-96 42.976-96 96s42.976 96 96 96 96-42.976 96-96-42.976-96-96-96zM992 880h-960c-8.832 0-16-7.168-16-16v-704c0-8.832 7.168-16 16-16h960c8.832 0 16 7.168 16 16v704c0 8.832-7.168 16-16 16zM880 416c0-8.832-7.168-16-16-16-63.856 0-112-48.144-112-112 0-8.832-7.168-16-16-16h-448c-8.832 0-16 7.168-16 16 0 63.856-48.144 112-112 112-8.832 0-16 7.168-16 16v192c0 8.832 7.168 16 16 16 63.856 0 112 48.144 112 112 0 8.832 7.168 16 16 16h448c8.832 0 16-7.168 16-16 0-63.856 48.144-112 112-112 8.832 0 16-7.168 16-16v-192z" />
<glyph unicode="&#xe940;" glyph-name="money-12" d="M720.848 656h-417.696c-7.152-67.696-59.456-120-127.152-127.152v-161.68c67.696-7.168 120-59.456 127.152-127.152h417.68c7.168 67.696 59.456 120 127.152 127.152v161.68c-67.68 7.152-119.984 59.456-127.136 127.152zM512 352c-53.024 0-96 42.976-96 96s42.976 96 96 96 96-42.976 96-96-42.976-96-96-96zM992 816h-960c-8.832 0-16-7.168-16-16v-704c0-8.832 7.168-16 16-16h960c8.832 0 16 7.168 16 16v704c0 8.832-7.168 16-16 16zM880 352c0-8.832-7.168-16-16-16-63.856 0-112-48.144-112-112 0-8.832-7.168-16-16-16h-448c-8.832 0-16 7.168-16 16 0 63.856-48.144 112-112 112-8.832 0-16 7.168-16 16v192c0 8.832 7.168 16 16 16 63.856 0 112 48.144 112 112 0 8.832 7.168 16 16 16h448c8.832 0 16-7.168 16-16 0-63.856 48.144-112 112-112 8.832 0 16-7.168 16-16v-192zM896 848h-768v96c0 8.832 7.168 16 16 16h736c8.832 0 16-7.168 16-16v-96z" />
<glyph unicode="&#xe941;" glyph-name="money-13" d="M832 896h-640c-8.832 0-16-7.168-16-16v-64h672v64c0 8.832-7.168 16-16 16zM672 992h-320c-8.832 0-16-7.168-16-16v-48h352v48c0 8.832-7.168 16-16 16zM720.848 624h-417.696c-7.152-67.696-59.456-120-127.152-127.152v-161.68c67.696-7.168 120-59.456 127.152-127.152h417.68c7.168 67.696 59.456 120 127.152 127.152v161.68c-67.68 7.152-119.984 59.456-127.136 127.152zM512 320c-53.024 0-96 42.976-96 96s42.976 96 96 96 96-42.976 96-96-42.976-96-96-96zM992 784h-960c-8.832 0-16-7.168-16-16v-704c0-8.832 7.168-16 16-16h960c8.832 0 16 7.168 16 16v704c0 8.832-7.168 16-16 16zM880 320c0-8.832-7.168-16-16-16-63.856 0-112-48.144-112-112 0-8.832-7.168-16-16-16h-448c-8.832 0-16 7.168-16 16 0 63.856-48.144 112-112 112-8.832 0-16 7.168-16 16v192c0 8.832 7.168 16 16 16 63.856 0 112 48.144 112 112 0 8.832 7.168 16 16 16h448c8.832 0 16-7.168 16-16 0-63.856 48.144-112 112-112 8.832 0 16-7.168 16-16v-192z" />
<glyph unicode="&#xe942;" glyph-name="money-bag" d="M360.912 752h135.088v112c0 8.832 7.168 16 16 16s16-7.168 16-16v-112h135.68l87.312 234.416c1.824 4.912 1.136 10.4-1.856 14.704s-7.888 6.88-13.136 6.88h-448c-5.248 0-10.16-2.576-13.152-6.88-2.992-4.32-3.664-9.824-1.84-14.736l87.904-234.384zM862.464 261.648l-197.504 458.352h-305.296l-197.872-458.224c-23.568-54.56-18.144-116.784 14.512-166.448 32.656-49.68 87.632-79.328 147.056-79.328h377.472c59.408 0 114.368 29.632 147.024 79.264s38.128 111.824 14.608 166.384z" />
<glyph unicode="&#xe943;" glyph-name="money-coins" d="M800 128c-91.232 0-167.296 27.616-208 70.288v-54.288c0-62.8 91.36-112 208-112s208 49.2 208 112v54.288c-40.704-42.672-116.768-70.288-208-70.288zM800 256c-91.232 0-167.296 27.616-208 70.288v-54.288c0-62.8 91.36-112 208-112s208 49.2 208 112v54.288c-40.704-42.672-116.768-70.288-208-70.288zM800 544c16.544 0 32.56-0.944 48-2.688v163.52c-67.696 7.168-120 59.472-127.152 127.168h-417.696c-7.152-67.696-59.456-120-127.152-127.152v-161.68c67.696-7.168 120-59.456 127.152-127.152h258.24c12.464 73.984 110.832 127.984 238.608 127.984zM416 624c0 53.024 42.976 96 96 96s96-42.976 96-96-42.976-96-96-96-96 42.976-96 96zM800 512c-116.64 0-208-49.2-208-112s91.36-112 208-112 208 49.2 208 112-91.36 112-208 112zM560 384h-272c-8.832 0-16 7.168-16 16 0 63.856-48.144 112-112 112-8.832 0-16 7.168-16 16v192c0 8.832 7.168 16 16 16 63.856 0 112 48.144 112 112 0 8.832 7.168 16 16 16h448c8.832 0 16-7.168 16-16 0-63.856 48.144-112 112-112 8.832 0 16-7.168 16-16v-183.744c55.088-10.976 99.952-33.136 128-62.56v502.304c0 8.832-7.168 16-16 16h-960c-8.832 0-16-7.168-16-16v-704c0-8.832 7.168-16 16-16h528v128z" />
<glyph unicode="&#xe944;" glyph-name="money-growth" d="M992 1008h-960c-8.832 0-16-7.168-16-16v-512c0-8.832 7.168-16 16-16h960c8.832 0 16 7.168 16 16v512c0 8.832-7.168 16-16 16zM272 864h-128c-8.832 0-16 7.168-16 16s7.168 16 16 16h128c8.832 0 16-7.168 16-16s-7.168-16-16-16zM512 624c-61.76 0-112 50.24-112 112s50.24 112 112 112 112-50.24 112-112-50.24-112-112-112zM880 576h-128c-8.832 0-16 7.168-16 16s7.168 16 16 16h128c8.832 0 16-7.168 16-16s-7.168-16-16-16zM800 304h-64c-88.928 0-166.544-48.736-208-120.784v248.784h-32v-400c0-8.832 7.168-16 16-16h64c132.336 0 240 107.664 240 240v32c0 8.832-7.168 16-16 16z" />
<glyph unicode="&#xe945;" glyph-name="money-time" d="M800 112c-91.232 0-167.296 27.616-208 70.288v-54.288c0-62.8 91.36-112 208-112s208 49.2 208 112v54.288c-40.704-42.672-116.768-70.288-208-70.288zM800 240c-91.232 0-167.296 27.616-208 70.288v-54.288c0-62.8 91.36-112 208-112s208 49.2 208 112v54.288c-40.704-42.672-116.768-70.288-208-70.288zM800 496c-116.64 0-208-49.2-208-112s91.36-112 208-112 208 49.2 208 112-91.36 112-208 112zM448 1008c-238.208 0-432-193.792-432-432s193.792-432 432-432c38.752 0 76.256 5.248 112 14.88v225.12c0 82.096 103.168 144 240 144 26.976 0 52.56-2.48 76.384-6.976 2.304 18.016 3.616 36.336 3.616 54.976 0 238.208-193.792 432-432 432zM464 576c0-8.832-7.152-16-16-16h-240c-8.848 0-16 7.168-16 16s7.152 16 16 16h224v208c0 8.832 7.152 16 16 16s16-7.168 16-16v-224z" />
<glyph unicode="&#xe946;" glyph-name="name-card" d="M976 960h-928c-8.837 0-16-7.163-16-16v0-544c0-8.837 7.163-16 16-16v0h288v64c0 26.51 21.49 48 48 48v0h256c26.51 0 48-21.49 48-48v0-64h288c8.837 0 16 7.163 16 16v0 544c0 8.837-7.163 16-16 16v0zM752 592h-480c-8.837 0-16 7.163-16 16s7.163 16 16 16v0h480c8.837 0 16-7.163 16-16s-7.163-16-16-16v0zM752 752h-480c-8.837 0-16 7.163-16 16s7.163 16 16 16v0h480c8.837 0 16-7.163 16-16s-7.163-16-16-16v0zM736 96h-192v224h96c8.837 0 16 7.163 16 16v0 112c0 8.837-7.163 16-16 16v0h-256c-8.837 0-16-7.163-16-16v0-112c0-8.837 7.163-16 16-16v0h96v-224h-192c-8.837 0-16-7.163-16-16s7.163-16 16-16v0h448c8.837 0 16 7.163 16 16s-7.163 16-16 16v0z" />
<glyph unicode="&#xe947;" glyph-name="net" d="M992 528h-84.8c-36.8 16-182.4 256-184 304l49.6 83.2c4.8 8 1.6 17.6-4.8 22.4-8 4.8-17.6 1.6-22.4-4.8l-46.4-78.4c-1.6-1.6-1.6-1.6-3.2-3.2-11.2-8-73.6-17.6-184-17.6s-172.8 9.6-184 17.6c-1.6 1.6-1.6 1.6-3.2 3.2l-46.4 78.4c-4.8 8-14.4 9.6-22.4 4.8s-9.6-14.4-4.8-22.4l49.6-83.2c-3.2-48-148.8-288-184-304h-84.8c-9.6 0-16-6.4-16-16s6.4-16 16-16h84.8c36.8-16 182.4-256 184-304l-49.6-83.2c-4.8-8-1.6-17.6 4.8-22.4 3.2-1.6 4.8-1.6 8-1.6 4.8 0 11.2 3.2 14.4 8l46.4 78.4c1.6 1.6 1.6 1.6 3.2 3.2 11.2 8 73.6 17.6 184 17.6s172.8-9.6 184-17.6c0-1.6 1.6-1.6 3.2-1.6l48-78.4c3.2-4.8 8-8 14.4-8 3.2 0 6.4 0 8 1.6 8 4.8 9.6 14.4 4.8 22.4l-51.2 81.6c1.6 46.4 147.2 288 184 304h84.8c9.6 0 16 6.4 16 16s-6.4 16-16 16zM512 801.6c56 0 120 1.6 163.2 11.2l-68.8-112c0 0 0 0-1.6 0-8-3.2-41.6-8-92.8-8s-84.8 4.8-92.8 8c0 0 0 0-1.6 0l-68.8 112c43.2-9.6 107.2-11.2 163.2-11.2zM483.2 528h-148.8c32 38.4 64 96 65.6 96 4.8 8 9.6 16 12.8 22.4l70.4-118.4zM440 662.4c17.6-1.6 40-3.2 72-3.2s54.4 1.6 72 3.2l-72-120-72 120zM483.2 496l-72-120c-3.2 6.4-6.4 14.4-12.8 22.4 0 1.6-33.6 59.2-65.6 96h150.4zM512 481.6l72-118.4c-17.6 1.6-40 3.2-72 3.2s-54.4-1.6-72-3.2l72 118.4zM540.8 496h148.8c-32-38.4-64-96-65.6-96-4.8-8-9.6-16-12.8-22.4l-70.4 118.4zM540.8 528l72 120c3.2-6.4 6.4-14.4 12.8-22.4 0-1.6 33.6-59.2 65.6-96h-150.4zM270.4 689.6c27.2 48 43.2 81.6 51.2 105.6l68.8-113.6c-6.4-28.8-80-139.2-100.8-153.6h-128c43.2 48 96 137.6 108.8 161.6zM321.6 228.8c-8 22.4-24 56-51.2 105.6-12.8 24-65.6 113.6-108.8 161.6h128c20.8-12.8 94.4-124.8 100.8-153.6l-68.8-113.6zM512 222.4c-56 0-120-1.6-163.2-11.2l68.8 112c0 0 0 0 1.6 0 8 3.2 41.6 8 92.8 8s84.8-4.8 92.8-8c0 0 0 0 0 0l68.8-112c-41.6 9.6-105.6 11.2-161.6 11.2zM753.6 334.4c-27.2-48-43.2-81.6-51.2-105.6l-68.8 113.6c6.4 28.8 80 139.2 100.8 153.6h128c-43.2-48-96-137.6-108.8-161.6zM734.4 528c-20.8 12.8-94.4 124.8-100.8 153.6l68.8 113.6c8-22.4 24-56 51.2-105.6 12.8-24 65.6-113.6 108.8-161.6h-128z" />
<glyph unicode="&#xe948;" glyph-name="notes" d="M688 576h-352c-8.848 0-16 7.152-16 16s7.152 16 16 16h352c8.848 0 16-7.152 16-16s-7.152-16-16-16zM688 416h-352c-8.848 0-16 7.152-16 16s7.152 16 16 16h352c8.848 0 16-7.152 16-16s-7.152-16-16-16zM480 256h-144c-8.848 0-16 7.152-16 16s7.152 16 16 16h144c8.848 0 16-7.152 16-16s-7.152-16-16-16zM896 912h-160v-96h80c8.832 0 16-7.168 16-16v-672c0-8.832-7.168-16-16-16h-608c-8.832 0-16 7.168-16 16v672c0 8.832 7.168 16 16 16h80v96h-160c-17.68 0-32-14.32-32-32v-832c0-17.68 14.32-32 32-32h768c17.68 0 32 14.32 32 32v832c0 17.68-14.32 32-32 32zM608 912c0 53.024-42.976 96-96 96s-96-42.976-96-96h-96v-112c0-8.832 7.168-16 16-16h352c8.832 0 16 7.168 16 16v112h-96zM512 880c-17.68 0-32 14.32-32 32s14.32 32 32 32 32-14.32 32-32-14.32-32-32-32z" />
<glyph unicode="&#xe992;" glyph-name="payment" d="M960 784h-896c-8.848 0-16-7.168-16-16v-416c0-8.832 7.152-16 16-16h176c0-176.448 143.552-320 320-320s320 143.552 320 320h80c8.848 0 16 7.168 16 16v416c0 8.832-7.152 16-16 16zM944 368h-64v272c0 8.832-7.152 16-16 16-70.576 0-128-57.424-128-128v-96.544c-56.608-3.856-107.536-28-142.752-63.456h-513.248v384h864v-384zM352 888c0 30.928-25.072 56-56 56s-56-25.072-56-56v-72h112v72zM496 920c0 30.928-25.072 56-56 56s-56-25.072-56-56v-104h112v104zM640 952c0 30.928-25.072 56-56 56s-56-25.072-56-56v-136h112v136zM784 920c0 30.928-25.072 56-56 56s-56-25.072-56-56v-104h112v104zM608 560c0-53.019-42.981-96-96-96s-96 42.981-96 96c0 53.019 42.981 96 96 96s96-42.981 96-96zM192 624h128c8.848 0 16 7.168 16 16s-7.152 16-16 16h-128c-8.848 0-16-7.168-16-16s7.152-16 16-16z" />
<glyph unicode="&#xe993;" glyph-name="percentage-38" d="M416 672c0-35.346-28.654-64-64-64s-64 28.654-64 64c0 35.346 28.654 64 64 64s64-28.654 64-64zM736 352c0-35.346-28.654-64-64-64s-64 28.654-64 64c0 35.346 28.654 64 64 64s64-28.654 64-64zM512 1008c-273.504 0-496-222.512-496-496s222.496-496 496-496 496 222.512 496 496-222.496 496-496 496zM256 672c0 52.944 43.056 96 96 96s96-43.056 96-96-43.056-96-96-96-96 43.056-96 96zM315.312 292.688c-3.12-3.12-7.216-4.688-11.312-4.688s-8.192 1.568-11.312 4.688c-6.256 6.256-6.256 16.368 0 22.624l416 416c6.256 6.256 16.368 6.256 22.624 0s6.256-16.368 0-22.624l-416-416zM672 256c-52.944 0-96 43.056-96 96s43.056 96 96 96 96-43.056 96-96-43.056-96-96-96z" />
<glyph unicode="&#xe994;" glyph-name="percentage-39" d="M736 352c0-35.346-28.654-64-64-64s-64 28.654-64 64c0 35.346 28.654 64 64 64s64-28.654 64-64zM416 672c0-35.346-28.654-64-64-64s-64 28.654-64 64c0 35.346 28.654 64 64 64s64-28.654 64-64zM512 1008c-273.504 0-496-222.512-496-496s222.496-496 496-496 496 222.512 496 496-222.496 496-496 496zM256 672c0 52.944 43.056 96 96 96s96-43.056 96-96-43.056-96-96-96-96 43.056-96 96zM672 256c-52.944 0-96 43.056-96 96s43.056 96 96 96 96-43.056 96-96-43.056-96-96-96zM768 560c0-8.832-7.152-16-16-16s-16 7.168-16 16v153.376l-420.688-420.688c-3.12-3.12-7.216-4.688-11.312-4.688s-8.192 1.568-11.312 4.688c-6.256 6.256-6.256 16.368 0 22.624l420.688 420.688h-153.376c-8.848 0-16 7.168-16 16s7.152 16 16 16h192c8.848 0 16-7.168 16-16v-192z" />
<glyph unicode="&#xe995;" glyph-name="pig" d="M704 896c0-61.856-50.144-112-112-112s-112 50.144-112 112c0 61.856 50.144 112 112 112s112-50.144 112-112zM720 688h-311.12c-82.432 130.992-219.664 95.824-221.040 95.456-4.256-1.152-7.84-4-9.936-7.872-2.080-3.888-2.48-8.448-1.088-12.64l45.536-136.592c-42.976-33.776-75.824-79.392-93.92-130.336h-96.432c-8.832 0-16-7.152-16-16v-224c0-8.848 7.168-16 16-16h128.848c38.016-56.816 93.904-97.712 159.152-116.56v-91.456c0-8.848 7.168-16 16-16h160c8.832 0 16 7.152 16 16v80h128v-80c0-8.848 7.168-16 16-16h160c8.832 0 16 7.152 16 16v102.944c105.728 44.736 176 149.872 176 265.056 0 158.8-129.2 288-288 288zM296 432c-22.096 0-40 17.904-40 40s17.904 40 40 40c22.096 0 40-17.904 40-40s-17.904-40-40-40zM688 560h-192c-8.832 0-16 7.152-16 16s7.168 16 16 16h192c8.832 0 16-7.152 16-16s-7.168-16-16-16z" />
<glyph unicode="&#xe996;" glyph-name="pin" d="M327.44 350.064l-274.752-274.752c-6.256-6.256-6.256-16.368 0-22.624 3.12-3.12 7.216-4.688 11.312-4.688s8.192 1.568 11.312 4.688l274.752 274.752-22.624 22.624zM971.312 651.312l-320 320c-6.256 6.256-16.368 6.256-22.624 0s-6.256-16.368 0-22.624l49.776-49.776-484.16-302.592-87.008 87.008c-6.256 6.256-16.368 6.256-22.624 0s-6.256-16.368 0-22.624l576-576c3.136-3.136 7.232-4.704 11.328-4.704s8.192 1.568 11.312 4.688c6.256 6.256 6.256 16.368 0 22.624l-87.008 87.008 302.592 484.16 49.776-49.776c3.136-3.136 7.232-4.704 11.328-4.704s8.192 1.568 11.312 4.688c6.256 6.256 6.256 16.368 0 22.624z" />
<glyph unicode="&#xe997;" glyph-name="plug" d="M896 864h-176v128c0 8.848-7.152 16-16 16s-16-7.152-16-16v-128h-352v128c0 8.848-7.152 16-16 16s-16-7.152-16-16v-128h-176c-8.848 0-16-7.152-16-16v-96c0-8.848 7.152-16 16-16h768c8.848 0 16 7.152 16 16v96c0 8.848-7.152 16-16 16zM208 704v-80c0-124.56 76.688-236.608 192-282.336v-101.664c0-8.848 7.152-16 16-16h192c8.848 0 16 7.152 16 16v101.664c115.312 45.728 192 157.776 192 282.336v80h-608zM496 176v-144c0-8.848 7.152-16 16-16s16 7.152 16 16v144h-32z" />
<glyph unicode="&#xe998;" glyph-name="privacy-policy" d="M288 792c0-57.438-46.562-104-104-104s-104 46.562-104 104c0 57.438 46.562 104 104 104s104-46.562 104-104zM944 792c0-57.438-46.562-104-104-104s-104 46.562-104 104c0 57.438 46.562 104 104 104s104-46.562 104-104zM490.272 395.392c-56.705 31.136-103.613 73.488-139.099 124.396l-0.869 1.316c-43.968 58.464-89.424 118.896-190.304 118.896-79.492-0.091-143.909-64.508-144-143.991v-368.009c0-8.837 7.163-16 16-16v0h256c8.837 0 16 7.163 16 16v0 300.4c42.727-39.852 91.424-74.131 144.418-101.196l3.598-1.668c5.745-3.331 12.609-5.364 19.934-5.535l0.050-0.001c0.027 0 0.060 0 0.092 0 22.030 0 39.888 17.858 39.888 39.888 0 15.393-8.719 28.749-21.487 35.399l-0.221 0.105zM864 640c-100.8 0-146.336-60.432-190.304-118.896-33.498-47.515-75.295-86.78-123.615-116.455l-1.809-1.033c7.383-12.523 11.744-27.59 11.744-43.676 0-14.525-3.556-28.22-9.845-40.26l0.229 0.481c0.544 0 1.072-0.16 1.6-0.16 7.375 0.172 14.239 2.205 20.188 5.645l-0.204-0.109c56.592 28.733 105.289 63.012 148.392 103.211l-0.376-0.347v-300.4c0-8.837 7.163-16 16-16v0h256c8.837 0 16 7.163 16 16v0 368c-0.091 79.492-64.508 143.909-143.991 144h-0.009z" />
<glyph unicode="&#xe999;" glyph-name="progress-line" d="M488.64 361.376h-201.296v36.16l76.576 76.992c43.088 44.128 66.224 68.192 66.224 104 0 13.408-4.032 23.968-12.080 31.68-16.16 15.472-54.368 20.992-103.296-17.472l-25.792 31.488c29.664 25.056 58.896 38.384 97.904 38.384 51.664 0 91.408-27.808 91.408-79.824 0-13.408-2.4-26.144-7.216-38.192-4.8-12.048-12.192-24.464-22.128-37.28-15.504-19.888-32.528-35.296-101.264-101.856v-2.032h140.976v-42.048zM736.656 426.176h-40.016v-64.8h-46.512v64.8h-135.68v36.768l135.68 196.224h46.512v-193.376h40.016v-39.616zM650.128 465.792c0 78.224-0.464 108.768 2.032 139.744h-1.632c-9.632-22.688-20.48-36.288-91.616-139.744h91.216zM976 528c-8.848 0-16-7.152-16-16 0-247.024-200.976-448-448-448s-448 200.976-448 448 200.976 448 448 448c99.488 0 194.592-32.592 272.496-92.464l-115.76-113.056c-4.368-4.288-5.936-10.656-4.032-16.448 1.92-5.808 6.976-10.016 13.008-10.848l280.32-38.656c0.736-0.112 1.472-0.16 2.192-0.16 4.112 0 8.096 1.584 11.088 4.464 3.536 3.408 5.312 8.24 4.832 13.104l-28.32 284.752c-0.608 6.128-4.672 11.36-10.448 13.456-5.76 2.112-12.256 0.72-16.64-3.584l-113.072-110.416c-84.16 65.968-187.504 101.856-295.664 101.856-264.672 0-480-215.328-480-480s215.328-480 480-480 480 215.328 480 480c0 8.848-7.152 16-16 16z" />
<glyph unicode="&#xe99a;" glyph-name="puzzle-09" d="M848 688v240c0 9.6-6.4 16-16 16h-160c-9.6 0-16-6.4-16-16 0-80-64-144-144-144s-144 64-144 144c0 9.6-6.4 16-16 16h-160c-9.6 0-16-6.4-16-16v-240c-89.6-9.6-160-84.8-160-176s70.4-166.4 160-176v-240c0-9.6 6.4-16 16-16h160c9.6 0 16 6.4 16 16 0 80 64 144 144 144s144-64 144-144c0-9.6 6.4-16 16-16h160c9.6 0 16 6.4 16 16v240c89.6 8 160 83.2 160 176s-70.4 166.4-160 176z" />
<glyph unicode="&#xe99b;" glyph-name="puzzle-10" d="M880 623.12v240.88c0 8.832-7.152 16-16 16h-256.896c-7.984 71.904-69.104 128-143.104 128s-135.12-56.096-143.104-128h-288.896c-8.848 0-16-7.168-16-16v-224c0-8.832 7.152-16 16-16 79.408 0 144-64.608 144-144s-64.592-144-144-144c-8.848 0-16-7.168-16-16v-288c0-8.832 7.152-16 16-16h272c8.848 0 16 7.168 16 16 0 79.392 64.592 144 144 144s144-64.608 144-144c0-8.832 7.152-16 16-16h240c8.848 0 16 7.168 16 16v304.88c71.904 7.984 128 69.12 128 143.12s-56.096 135.136-128 143.12z" />
<glyph unicode="&#xe99c;" glyph-name="ranking-line" d="M275.2 520.992l18.928-10.528 90.656 181.296 280.976-207.088c3.931-2.924 8.881-4.682 14.241-4.682 8.024 0 15.129 3.938 19.486 9.987l0.049 0.071 293.952 411.536-39.072 27.904-279.792-391.728-284.384 209.568c-3.931 2.925-8.881 4.682-14.242 4.682-9.345 0-17.443-5.341-21.407-13.138l-0.063-0.136-105.44-210.88c9.596-0.141 18.571-2.668 26.399-7.010l-0.287 0.146zM233.488 416h-41.072l-160.72-314.448 42.752-21.856 169.040 330.752-10 5.552zM680 208c-0.002 0-0.004 0-0.006 0-4.279 0-8.297 1.115-11.779 3.071l0.121-0.063-426.56 236.992h-209.776v48h216c4.28-0.002 8.3-1.117 11.786-3.071l-0.122 0.063 418.736-232.656 287.2 205.152 27.904-39.072-299.552-213.952c-3.872-2.791-8.711-4.464-13.941-4.464-0.004 0-0.008 0-0.012 0h0.001z" />
<glyph unicode="&#xe99d;" glyph-name="round-dollar" d="M416.4 634.704c0-42.48 28.72-58.672 69.152-74.128v137.712c-37.392-6.816-69.152-25.424-69.152-63.584zM538.432 483.36v-139.088c50.336 7.648 75.664 29.568 75.664 65.984 0 43.472-32.944 58.112-75.664 73.104zM512 1008c-273.504 0-496-222.512-496-496s222.496-496 496-496 496 222.512 496 496-222.496 496-496 496zM638.672 333.824c-24.048-20.864-57.504-34.128-100.24-39.872v-85.952h-52.864v82.336c-41.552 0.288-99.472 6.352-137.104 23.792v56.384c38.88-17.344 94.080-29.648 137.104-30.24v160.064c-75.152 24.368-130.24 55.488-130.24 133.632 0 69.072 60.768 105.568 130.24 114v68.032h52.864v-66.928c43.344-1.504 85.2-10.272 125.536-26.544l-18.8-47.344c-35.008 13.856-70.592 22.128-106.752 24.992v-157.456c36.416-11.728 63.856-23.184 82.176-34.336 39.264-23.92 54.928-52.96 54.928-93.424 0.016-32.768-12.272-59.808-36.848-81.136z" />
<glyph unicode="&#xe99e;" glyph-name="round-euro" d="M512 1008c-273.504 0-496-222.512-496-496s222.496-496 496-496 496 222.512 496 496-222.496 496-496 496zM601.824 591.424v-52.944h-188.784c-1.072-32.704-0.912-41.184-0.384-52.944h189.168v-52.944h-182.992c8.912-43.44 25.632-79.232 50.128-102.992 24.48-23.776 57.232-35.648 98.272-35.648 37.648 0 74.928 7.968 111.84 23.888v-54.288c-35.248-15.712-73.488-23.552-114.736-23.552-57.184 0-103.216 16.224-138.080 48.688-34.88 32.448-57.856 81.888-68.944 143.904h-59.92v52.944h54.368c-0.32 8.736-0.24 7.68-0.24 22.672l0.72 30.272h-54.864v52.944h60.56c10.048 59.28 31.808 105.952 65.6 139.728 35.216 35.232 81.44 52.848 138.624 52.848 48.496 0 92.656-11.712 132.464-35.104l-25.696-50.304c-40.064 20.752-75.648 31.12-106.768 31.12-74.912 0-122.32-46.192-142.368-138.288h182.032z" />
<glyph unicode="&#xe99f;" glyph-name="round-pound" d="M512 1008c-273.504 0-496-222.512-496-496s222.496-496 496-496 496 222.512 496 496-222.496 496-496 496zM702.4 256h-380.8v54.4c50.192 11.504 76.72 44.528 76.72 104.288v72.512h-76.72v54.4h76.72v117.712c0 43.584 13.712 77.936 41.136 103.040 27.424 25.088 64.4 37.648 110.928 37.648 46.512 0 90.592-10.288 132.24-30.848l-22.4-48.848c-37.712 18.848-74.080 28.288-109.088 28.288-30.128 0-52.848-7.6-68.144-22.768-15.312-15.184-22.96-39.92-22.96-74.192v-110h147.168v-54.4h-147.168v-71.776c0-24.496-3.984-45.056-11.936-61.712-7.968-16.656-21.008-32.544-39.12-43.312h293.424v-54.432z" />
<glyph unicode="&#xe9a0;" glyph-name="round-yen" d="M512 1008c-273.504 0-496-222.512-496-496s222.496-496 496-496 496 222.512 496 496-222.496 496-496 496zM661.648 482.48v-54.416h-122.432v-54.416h122.432v-54.416h-122.432v-95.232h-54.416v95.232h-122.432v54.416h122.432v54.416h-122.432v54.416h96.336l-152.416 285.52h66.208l139.504-270.432 140.976 270.432h64.72l-154.256-285.52h98.208z" />
<glyph unicode="&#xe9a1;" glyph-name="safe" d="M422.432 477.056c-14.016 18.704-22.432 41.824-22.432 66.944s8.416 48.24 22.432 66.944l-68.208 68.208c-31.232-36.384-50.224-83.552-50.224-135.152s18.992-98.768 50.208-135.152l68.224 68.208zM445.056 633.568c18.704 14.016 41.824 22.432 66.944 22.432s48.24-8.416 66.944-22.432l68.208 68.208c-36.384 31.232-83.552 50.224-135.152 50.224s-98.768-18.992-135.152-50.208l68.208-68.224zM601.568 610.944c14.016-18.704 22.432-41.824 22.432-66.944s-8.416-48.24-22.432-66.944l68.208-68.208c31.232 36.384 50.224 83.552 50.224 135.152s-18.992 98.768-50.208 135.152l-68.224-68.208zM160 240h704v608h-704v-608zM512 784c132.336 0 240-107.664 240-240s-107.664-240-240-240-240 107.664-240 240 107.664 240 240 240zM976 992h-928c-17.68 0-32-14.32-32-32v-832c0-17.68 14.32-32 32-32h928c17.68 0 32 14.32 32 32v832c0 17.68-14.32 32-32 32zM896 224c0-8.832-7.168-16-16-16h-736c-8.832 0-16 7.168-16 16v640c0 8.832 7.168 16 16 16h736c8.832 0 16-7.168 16-16v-640zM578.944 454.432c-18.704-14.016-41.824-22.432-66.944-22.432s-48.24 8.416-66.944 22.432l-68.208-68.208c36.384-31.232 83.552-50.224 135.152-50.224s98.768 18.992 135.152 50.208l-68.208 68.224zM592 544c0-44.183-35.817-80-80-80s-80 35.817-80 80c0 44.183 35.817 80 80 80s80-35.817 80-80zM256 64h-128v-32c0-8.832 7.168-16 16-16h96c8.832 0 16 7.168 16 16v32zM896 64h-128v-32c0-8.832 7.168-16 16-16h96c8.832 0 16 7.168 16 16v32z" />
<glyph unicode="&#xe9a2;" glyph-name="scale" d="M736 96h-448c-8.832 0-16-7.152-16-16s7.168-16 16-16h448c8.832 0 16 7.152 16 16s-7.168 16-16 16zM1005.312 568.88l-191.808 287.696c-1.088 1.728-2.544 3.264-4.32 4.512 0 0 0 0-0.016 0.016v0c-0.16 0.112-0.32 0.224-0.48 0.336v0 0.016c-2.736 1.744-5.92 2.656-8.896 2.544h-226.048c-5.808 22.416-23.328 39.936-45.744 45.744v50.256c0 8.848-7.168 16-16 16s-16-7.152-16-16v-50.256c-22.416-5.808-39.936-23.328-45.744-45.744h-226.032c-3.232-0.016-6.144-0.784-8.88-2.544 0 0-0.016-0.016-0.016-0.016v0c-0.16-0.112-0.32-0.224-0.48-0.336v0c0-0.016 0-0.016-0.016-0.016-1.776-1.248-3.216-2.784-4.32-4.512l-191.824-287.696c-1.744-2.624-2.688-5.728-2.688-8.88 0-70.992 66.112-176 208-176s208 105.008 208 176c0 3.152-0.944 6.256-2.688 8.88l-175.408 263.12h196.368c5.808-22.416 23.328-39.936 45.744-45.744v-658.256h32v658.256c22.416 5.808 39.936 23.328 45.744 45.744h196.368l-175.44-263.12c-1.744-2.624-2.688-5.728-2.688-8.88 0-70.992 66.112-176 208-176s208 105.008 208 176c0 3.152-0.944 6.256-2.688 8.88zM386.096 576h-324.192l162.096 243.152 162.096-243.152zM637.904 576l162.096 243.152 162.096-243.152h-324.192z" />
<glyph unicode="&#xe9a3;" glyph-name="sign" d="M992 16h-960c-8.832 0-16 7.168-16 16s7.168 16 16 16h960c8.832 0 16-7.168 16-16s-7.168-16-16-16zM282.080 346.064c-35.744 35.728-82.464 55.12-126.944 53.632-42.992-60.592-85.632-231.296-90.672-251.904-1.328-5.44 0.272-11.168 4.224-15.12 3.040-3.024 7.12-4.672 11.312-4.672 1.264 0 2.544 0.144 3.808 0.464 20.576 5.040 190.976 47.616 251.712 90.56 1.552 44.608-17.792 91.392-53.44 127.040zM906.176 970.176c-24.4 24.384-56.816 37.824-91.312 37.824s-66.928-13.44-91.312-37.824l-539.792-539.792c43.6-5.904 86.768-27.52 120.944-61.696 34.144-34.128 55.696-77.344 61.536-121.088l539.936 539.936c24.384 24.4 37.824 56.832 37.824 91.328s-13.44 66.912-37.824 91.312zM885.248 721.376l-22.624-22.624 74.752-74.752-180.688-180.688c-6.256-6.256-6.256-16.368 0-22.624 3.12-3.12 7.216-4.688 11.312-4.688s8.192 1.568 11.312 4.688l192 192c6.256 6.256 6.256 16.368 0 22.624l-86.064 86.064z" />
<glyph unicode="&#xe9a4;" glyph-name="signature" d="M923.008 683.6l-320 304c-4.592 4.352-11.312 5.6-17.104 3.184l-384.144-158.4c-4.992-2.048-8.576-6.448-9.616-11.728l-126.928-652.8 336.576 336.576c-11.504 16.144-17.792 35.344-17.792 55.568 0 25.648 9.984 49.744 28.128 67.888 18.128 18.128 42.224 28.112 67.872 28.112s49.744-9.984 67.872-28.112c18.144-18.144 28.128-42.24 28.128-67.888s-9.984-49.744-28.128-67.888c-18.128-18.128-42.224-28.112-67.872-28.112-20.224 0-39.44 6.288-55.568 17.808l-336.752-336.752 666.944 111.152c5.52 0.928 10.16 4.656 12.24 9.84l160 400c2.416 6.096 0.896 13.040-3.856 17.552zM992 16h-960c-8.848 0-16 7.168-16 16s7.152 16 16 16h960c8.848 0 16-7.168 16-16s-7.152-16-16-16z" />
<glyph unicode="&#xe9a5;" glyph-name="stock" d="M844.56 486.080c-2.64-3.344-6.496-5.504-10.736-5.984-0.608-0.064-1.216-0.096-1.824-0.096-3.616 0-7.152 1.232-10 3.504l-64.88 51.904c-20.544-24.080-51.056-39.408-85.12-39.408-36.384 0-68.672 17.52-89.152 44.48l-74.72-86.912c-3.008-3.488-7.344-5.52-11.952-5.568-4.56 0.192-8.992 1.872-12.064 5.296l-130.784 145.328-116.384-160.032c-2.752-3.776-7.024-6.176-11.68-6.544-4.624-0.352-9.264 1.328-12.56 4.64l-68.704 68.688-128-128v-265.376c0-17.68 14.32-32 32-32h608v368h32v-368h288c17.68 0 32 14.32 32 32v581.12l-163.44-207.040zM688 718.72c54.192-7.808 96-54.416 96-110.72 0-16.16-3.504-31.472-9.68-45.36l55.104-44.080 178.576 226.192v167.248c0 17.68-14.32 32-32 32h-288v-225.28zM132.688 539.312c6.24 6.24 16.384 6.24 22.624 0l66.752-66.752 116.992 160.864c2.832 3.904 7.296 6.32 12.112 6.56 4.736 0.32 9.504-1.68 12.72-5.28l131.84-146.48 70.832 82.384c-4.176 11.712-6.56 24.272-6.56 37.392 0 56.304 41.808 102.912 96 110.72v225.28h-608c-17.68 0-32-14.32-32-32v-489.376l116.688 116.688z" />
<glyph unicode="&#xe9a6;" glyph-name="strategy" d="M366.4 585.808l-87.904-409.808h467.008l-87.824 409.808 168.448 137.808c3.596 2.956 5.871 7.404 5.872 12.384v0 256c0 8.837-7.163 16-16 16v0h-112c-8.837 0-16-7.163-16-16v0-112h-96v112c0 8.837-7.163 16-16 16v0h-128c-8.837 0-16-7.163-16-16v0-112h-96v112c0 8.837-7.163 16-16 16v0h-112c-8.837 0-16-7.163-16-16v0-256c0.001-4.98 2.276-9.428 5.844-12.362l0.028-0.022zM160 144h704c8.837 0 16-7.163 16-16v-96c0-8.837-7.163-16-16-16h-704c-8.837 0-16 7.163-16 16v96c0 8.837 7.163 16 16 16z" />
<glyph unicode="&#xe9a7;" glyph-name="tactic" d="M100.688 692.688c2.895-2.894 6.895-4.685 11.312-4.685s8.417 1.79 11.312 4.685l116.688 116.688 116.688-116.688c2.874-2.779 6.795-4.491 11.115-4.491 8.837 0 16 7.163 16 16 0 4.321-1.712 8.241-4.496 11.12l-116.684 116.684 116.688 116.688c3.014 2.914 4.885 6.993 4.885 11.509 0 8.837-7.163 16-16 16-4.516 0-8.595-1.871-11.504-4.88l-116.692-116.692-116.688 116.688c-2.874 2.779-6.795 4.491-11.115 4.491-8.837 0-16-7.163-16-16 0-4.321 1.712-8.241 4.496-11.12l116.684-116.684-116.688-116.688c-2.894-2.895-4.685-6.895-4.685-11.312s1.79-8.417 4.685-11.312v0zM971.312 379.312c-2.895 2.894-6.895 4.685-11.312 4.685s-8.417-1.79-11.312-4.685l-116.688-116.688-116.688 116.688c-2.874 2.779-6.795 4.491-11.115 4.491-8.837 0-16-7.163-16-16 0-4.321 1.712-8.241 4.496-11.12l116.684-116.684-116.688-116.688c-3.014-2.914-4.885-6.993-4.885-11.509 0-8.837 7.163-16 16-16 4.516 0 8.595 1.871 11.504 4.88l116.692 116.692 116.688-116.688c2.874-2.779 6.795-4.491 11.115-4.491 8.837 0 16 7.163 16 16 0 4.321-1.712 8.241-4.496 11.12l-116.684 116.684 116.688 116.688c2.894 2.895 4.685 6.895 4.685 11.312s-1.79 8.417-4.685 11.312v0zM448 240c0-114.875-93.125-208-208-208s-208 93.125-208 208c0 114.875 93.125 208 208 208s208-93.125 208-208zM960 976h-288c-8.835-0.002-15.997-7.165-15.997-16 0-4.417 1.79-8.417 4.685-11.312l132.688-132.688-324.688-324.688c-3.014-2.914-4.885-6.993-4.885-11.509 0-8.837 7.163-16 16-16 4.516 0 8.595 1.871 11.504 4.88l324.692 324.692 132.688-132.688c2.895-2.894 6.895-4.685 11.312-4.685 8.835 0 15.998 7.161 16 15.996v0 288c0 8.837-7.163 16-16 16v0z" />
<glyph unicode="&#xe9a8;" glyph-name="tie-01" d="M390.112 816h243.776l84.432 168.848c2.48 4.96 2.208 10.848-0.704 15.568-2.928 4.704-8.064 7.584-13.616 7.584h-384c-5.552 0-10.688-2.88-13.616-7.584-2.912-4.72-3.184-10.608-0.704-15.568l84.432-168.848zM751.584 259.664l-123.392 524.336h-232.384l-123.376-524.336c-1.264-5.392 0.336-11.056 4.272-14.976l224-224c3.104-3.12 7.2-4.688 11.296-4.688s8.192 1.568 11.312 4.688l224 224c3.92 3.92 5.536 9.584 4.272 14.976z" />
<glyph unicode="&#xe9a9;" glyph-name="tie-02" d="M845.2 507.696l-181.552 265.344 89.952-382.288 90.128 97.024c5.088 5.488 5.696 13.76 1.472 19.92zM390.112 816h243.776l84.432 168.848c2.48 4.96 2.208 10.848-0.704 15.568-2.928 4.704-8.064 7.584-13.616 7.584h-384c-5.552 0-10.688-2.88-13.616-7.584-2.912-4.72-3.184-10.608-0.704-15.568l84.432-168.848zM751.584 259.664l-123.392 524.336h-232.384l-123.376-524.336c-1.264-5.392 0.336-11.056 4.272-14.976l224-224c3.104-3.12 7.2-4.688 11.296-4.688s8.192 1.568 11.312 4.688l224 224c3.92 3.92 5.536 9.584 4.272 14.976z" />
<glyph unicode="&#xe9aa;" glyph-name="wallet-43" d="M784 304c-70.576 0-128 57.424-128 128s57.424 128 128 128h160v224c0 8.832-7.168 16-16 16h-816c-35.296 0-64 28.704-64 64s28.704 64 64 64h624v-80h32v96c0 8.832-7.168 16-16 16h-640c-52.944 0-96-43.056-96-96v-656c0-79.392 64.608-144 144-144h768c8.832 0 16 7.168 16 16v224h-160zM688 432c0-53.024 42.976-96 96-96h208c8.832 0 16 7.168 16 16v160c0 8.832-7.168 16-16 16h-208c-53.024 0-96-42.976-96-96zM816 432c0-17.68-14.32-32-32-32s-32 14.32-32 32 14.32 32 32 32 32-14.32 32-32z" />
<glyph unicode="&#xe9ab;" glyph-name="wallet-44" d="M688 432c0-53.024 42.976-96 96-96h208c8.832 0 16 7.168 16 16v160c0 8.832-7.168 16-16 16h-208c-53.024 0-96-42.976-96-96zM816 432c0-17.68-14.32-32-32-32s-32 14.32-32 32 14.32 32 32 32 32-14.32 32-32zM784 560h160v224c0 8.832-7.168 16-16 16h-816c-35.296 0-64 28.704-64 64s28.704 64 64 64h624v-80h32v96c0 8.832-7.168 16-16 16h-640c-52.944 0-96-43.056-96-96v-656c0-79.392 64.608-144 144-144h768c8.832 0 16 7.168 16 16v224h-160c-70.576 0-128 57.424-128 128s57.424 128 128 128zM736 688h64c8.832 0 16-7.168 16-16s-7.168-16-16-16h-64c-8.832 0-16 7.168-16 16s7.168 16 16 16zM736 208h64c8.832 0 16-7.168 16-16s-7.168-16-16-16h-64c-8.832 0-16 7.168-16 16s7.168 16 16 16zM224 176h-64c-8.832 0-16 7.168-16 16s7.168 16 16 16h64c8.832 0 16-7.168 16-16s-7.168-16-16-16zM224 656h-64c-8.832 0-16 7.168-16 16s7.168 16 16 16h64c8.832 0 16-7.168 16-16s-7.168-16-16-16zM416 176h-64c-8.832 0-16 7.168-16 16s7.168 16 16 16h64c8.832 0 16-7.168 16-16s-7.168-16-16-16zM416 656h-64c-8.832 0-16 7.168-16 16s7.168 16 16 16h64c8.832 0 16-7.168 16-16s-7.168-16-16-16zM608 176h-64c-8.832 0-16 7.168-16 16s7.168 16 16 16h64c8.832 0 16-7.168 16-16s-7.168-16-16-16zM608 656h-64c-8.832 0-16 7.168-16 16s7.168 16 16 16h64c8.832 0 16-7.168 16-16s-7.168-16-16-16z" />
<glyph unicode="&#xe9ac;" glyph-name="wallet-90" d="M688 384c0-53.024 42.976-96 96-96h208c8.832 0 16 7.168 16 16v160c0 8.832-7.168 16-16 16h-208c-53.024 0-96-42.976-96-96zM816 384c0-17.68-14.32-32-32-32s-32 14.32-32 32 14.32 32 32 32 32-14.32 32-32zM192 992v-176h608v176c0 8.832-7.168 16-16 16h-576c-8.832 0-16-7.168-16-16zM784 512h160v224c0 8.832-7.168 16-16 16h-816c-35.296 0-64 28.704-64 64s28.704 64 64 64h48v32h-48c-52.944 0-96-43.056-96-96v-656c0-79.392 64.608-144 144-144h768c8.832 0 16 7.168 16 16v224h-160c-70.576 0-128 57.424-128 128s57.424 128 128 128z" />
<glyph unicode="&#xea4a;" glyph-name="agenda-line" d="M120 1000c-7.912-7.912-8-13.332-8-496s0.088-488.088 8-496c7.88-7.88 13.332-8 369.288-8 407.032 0 385.18-1.576 414.172 29.876 8.764 9.508 17.86 24.224 20.216 32.704 2.92 10.524 4.26 151.992 4.212 445.42-0.060 407.372-0.448 430.84-7.352 446-9.368 20.576-35.728 44.288-55.252 49.712-10.252 2.848-134.124 4.252-376.284 4.264-355.68 0.024-361.116-0.092-369-7.976M272 792c0-162.668 0.252-168.252 8-176 4.4-4.4 11.484-8 15.748-8 4.26 0 34.364 19.836 66.9 44.080 32.54 24.244 61.276 43.272 63.86 42.28 2.588-0.996 30.176-20.832 61.308-44.084s60.112-42.276 64.396-42.276c4.284 0 11.388 3.6 15.788 8 7.748 7.748 8 13.332 8 176v168h144v-512h-560v512h112v-168M528 819.876v-140.124l-47.836 36.124c-26.312 19.868-51.584 36.124-56.164 36.124s-29.852-16.256-56.164-36.124l-47.836-36.124v280.248h208v-140.124M864.936 948.328l13.064-11.668 1.092-244.332 1.088-244.328h-112.18v512h41.936c40.684 0 42.328-0.348 55-11.672M720 304v-96h-560v192h560v-96M880 304v-96h-112v192h112v-96M720 104v-56h-560v112h560v-56M880 118.064c0-40.676-0.352-42.332-11.664-55l-11.664-13.064-88.672-2.708v112.708h112v-41.936" />
<glyph unicode="&#xea4b;" glyph-name="atm-line" d="M170.736 986.252c-23.648-8.508-38.556-22.648-50.868-48.252-7.428-15.452-7.696-29.596-7.78-413-0.088-391.728 0.020-397.108 7.912-405 9.416-9.416 19.476-10.192 30.236-2.324 7.572 5.536 7.812 15.532 9.764 404.328l2 398.656 26.128 23.34h663.744l26.128-23.34 2-398.656c1.952-388.796 2.192-398.792 9.764-404.328 10.76-7.868 20.82-7.092 30.236 2.324 7.892 7.892 8 13.272 7.912 405-0.084 376.508-0.468 397.824-7.428 413-8.332 18.168-24.664 35.64-42.4 45.372-10.948 6.004-44.088 6.708-352.084 7.5-279.752 0.712-342.704-0.104-355.264-4.62M248 856c-7.688-7.688-8-13.332-8-144s0.312-136.312 8-144c7.84-7.84 13.332-8 272-8s264.16 0.16 272 8c7.688 7.688 8 13.332 8 144s-0.312 136.312-8 144c-7.84 7.84-13.332 8-272 8s-264.16-0.16-272-8M752 712v-104h-464v208h464v-104M248 472c-4.4-4.4-8-11.6-8-16s3.6-11.6 8-16c7.112-7.112 13.332-8 56-8s48.888 0.888 56 8c4.4 4.4 8 11.6 8 16s-3.6 11.6-8 16c-7.112 7.112-13.332 8-56 8s-48.888-0.888-56-8M424 472c-4.4-4.4-8-11.6-8-16s3.6-11.6 8-16c7.112-7.112 13.332-8 56-8s48.888 0.888 56 8c4.4 4.4 8 11.6 8 16s-3.6 11.6-8 16c-7.112 7.112-13.332 8-56 8s-48.888-0.888-56-8M600 472c-4.4-4.4-8-11.6-8-16s3.6-11.6 8-16c7.516-7.516 13.332-8 96-8s88.484 0.484 96 8c4.4 4.4 8 11.6 8 16s-3.6 11.6-8 16c-7.516 7.516-13.332 8-96 8s-88.484-0.484-96-8M248 344c-4.4-4.4-8-11.6-8-16s3.6-11.6 8-16c7.112-7.112 13.332-8 56-8s48.888 0.888 56 8c4.4 4.4 8 11.6 8 16s-3.6 11.6-8 16c-7.112 7.112-13.332 8-56 8s-48.888-0.888-56-8M424 344c-4.4-4.4-8-11.6-8-16s3.6-11.6 8-16c7.112-7.112 13.332-8 56-8s48.888 0.888 56 8c4.4 4.4 8 11.6 8 16s-3.6 11.6-8 16c-7.112 7.112-13.332 8-56 8s-48.888-0.888-56-8M24 56c-4.4-4.4-8-11.6-8-16s3.6-11.6 8-16c7.912-7.912 13.332-8 496-8s488.088 0.088 496 8c4.4 4.4 8 11.6 8 16s-3.6 11.6-8 16c-7.912 7.912-13.332 8-496 8s-488.088-0.088-496-8" />
<glyph unicode="&#xea4c;" glyph-name="award-49-line" d="M24 1000c-7.9-7.9-8-13.332-8-432s0.1-424.1 8-432c7.852-7.852 13.332-8 296-8s288.148 0.148 296 8c4.4 4.4 8 11.6 8 16s-3.6 11.6-8 16c-7.844 7.844-13.332 8-280 8h-272v784h720.096l-2.096-305.816-20-3.324c-56.712-9.432-119.628-58.556-147.488-115.156-39.372-79.996-25.532-175.22 35.228-242.364l22.26-24.6v-110.368c0-105.040 0.388-110.76 8-118.372 4.4-4.4 11.212-8 15.14-8s30.928 13.484 60 29.96l52.86 29.96 52.86-29.96c29.072-16.476 56.072-29.96 60-29.96s10.74 3.6 15.14 8c7.612 7.612 8 13.332 8 118.372v110.368l22.312 24.632c60.344 66.604 74.152 160.924 35.364 241.568-27.356 56.876-90.456 106.404-147.676 115.916l-20 3.324-2 171.236c-1.912 163.648-2.344 171.484-9.764 176.908-6.58 4.808-67.512 5.676-399 5.676-385.904 0-391.344-0.108-399.236-8M184 776c-4.4-4.4-8-11.6-8-16s3.6-11.6 8-16c7.816-7.816 13.332-8 240-8s232.184 0.184 240 8c4.4 4.4 8 11.6 8 16s-3.6 11.6-8 16c-7.816 7.816-13.332 8-240 8s-232.184-0.184-240-8M850.16 601.792c124.804-32.5 167.036-188.424 75.752-279.704-65.556-65.56-170.268-65.56-235.824 0-64.168 64.164-65.84 168.46-3.724 232.232 45.112 46.316 103.384 63.204 163.796 47.472M184 584c-4.4-4.4-8-11.6-8-16s3.6-11.6 8-16c7.688-7.688 13.332-8 144-8s136.312 0.312 144 8c4.4 4.4 8 11.6 8 16s-3.6 11.6-8 16c-7.688 7.688-13.332 8-144 8s-136.312-0.312-144-8M184 392c-4.4-4.4-8-11.6-8-16s3.6-11.6 8-16c7.688-7.688 13.332-8 144-8s136.312 0.312 144 8c4.4 4.4 8 11.6 8 16s-3.6 11.6-8 16c-7.688 7.688-13.332 8-144 8s-136.312-0.312-144-8M760 229.728c41.248-8.868 81.028-6.252 127 8.348l9 2.856v-70.464c0-38.76-1.080-70.468-2.4-70.468s-19.884 9.9-41.256 22c-21.368 12.1-41.324 22-44.344 22s-22.976-9.9-44.344-22c-21.372-12.1-39.936-22-41.256-22s-2.4 31.692-2.4 70.428c0 65.464 0.492 70.232 7 67.66 3.852-1.524 18.7-5.288 33-8.36" />
<glyph unicode="&#xea4d;" glyph-name="badge-line" d="M476.252 999.232c-29.312-11.252-56.548-38.868-67.68-68.62-7.404-19.796-8.572-31.328-8.572-84.764v-61.848h-184c-178.668 0-184.232-0.232-192-8-7.888-7.888-8-13.332-8-384s0.112-376.112 8-384c7.912-7.912 13.332-8 496-8s488.088 0.088 496 8c7.888 7.888 8 13.332 8 384s-0.112 376.112-8 384c-7.768 7.768-13.332 8-192 8h-184v61.848c0 75.868-6.108 97.036-36.56 126.696-34.756 33.856-82.456 43.864-127.188 26.688M546.984 953.848c19.832-8.288 28.752-16.816 37.492-35.848 6.54-14.24 7.356-27.76 7.436-123l0.088-107h-144v106.128c0 86.456 1.14 108.86 6.152 120.856 8.288 19.832 16.816 28.752 35.848 37.492 19.648 9.024 37.636 9.456 56.984 1.372M506 899.168c-11.852-6.796-17.728-15.88-17.872-27.624-0.168-13.836 17.72-31.544 31.872-31.544s32.040 17.708 31.872 31.544c-0.148 12.112-6.24 21.216-18.608 27.804-10.808 5.756-16.988 5.716-27.264-0.18M400 696c0-59.548-7.6-56 120-56s120-3.548 120 56v40h336v-688h-912v688h336v-40M298.736 538.444c-60.648-22.58-77.708-98.62-32.308-144.016 43.904-43.904 115.656-29.976 142.056 27.572 18.416 40.14-0.612 91.384-41.852 112.708-16.672 8.62-49.868 10.448-67.896 3.736M355.908 481.904c15.248-15.24 13.9-39.16-3.064-54.312-20.764-18.556-47.204-13.552-58.928 11.148-10.184 21.464-0.324 45.836 22.084 54.584 10.7 4.176 29.76-1.28 39.908-11.42M600 440c-4.4-4.4-8-11.6-8-16s3.6-11.6 8-16c7.644-7.644 13.332-8 128-8s120.356 0.356 128 8c4.4 4.4 8 11.6 8 16s-3.6 11.6-8 16c-7.644 7.644-13.332 8-128 8s-120.356-0.356-128-8M258 330.404c-24.492-6.024-35.008-11.424-57.3-29.448-43.216-34.932-70.964-110.692-48.7-132.956 7.748-7.748 13.332-8 176-8s168.252 0.252 176 8c22.26 22.26-5.46 97.956-48.7 132.988-22.396 18.144-36.464 25.016-62.496 30.524-27.608 5.844-109.252 5.172-134.804-1.108M392.82 281.784c10.036-3.42 25.72-12.612 34.852-20.432 15.208-13.016 32.328-39.068 32.328-49.192 0-2.796-43.296-4.16-132-4.16s-132 1.364-132 4.16c0 2.288 3.536 11.092 7.864 19.568 9.92 19.448 36.292 42.22 57.676 49.804 23.444 8.312 107.148 8.476 131.28 0.252M600 280c-4.4-4.4-8-11.6-8-16s3.6-11.6 8-16c7.644-7.644 13.332-8 128-8s120.356 0.356 128 8c4.4 4.4 8 11.6 8 16s-3.6 11.6-8 16c-7.644 7.644-13.332 8-128 8s-120.356-0.356-128-8" />
<glyph unicode="&#xea4e;" glyph-name="bank-line" d="M270 861.772c-134.2-71.556-246.248-133.072-249-136.704-3.512-4.632-5-25.428-5-69.832 0-57.904 0.676-63.912 8-71.236 7.912-7.912 13.332-8 496-8s488.088 0.088 496 8c7.332 7.332 8 13.332 8 72 0 55.988-0.888 64.876-7.096 71-9.096 8.972-489.616 265.020-497.208 264.94-3.132-0.032-115.496-58.608-249.696-130.168M748.892 819l227.080-121 0.012-37 0.016-37h-912l0.032 74 226.984 120.984c124.84 66.54 227.84 120.988 228.892 121 1.048 0.008 104.088-54.432 228.984-120.984M490.736 842.444c-60.648-22.58-77.708-98.62-32.308-144.016 43.904-43.904 115.656-29.976 142.056 27.572 18.416 40.14-0.612 91.384-41.852 112.708-16.672 8.62-49.868 10.448-67.896 3.736M547.908 785.904c15.248-15.24 13.9-39.16-3.064-54.312-20.764-18.556-47.204-13.552-58.928 11.148-10.184 21.464-0.324 45.836 22.084 54.584 10.7 4.176 29.76-1.28 39.908-11.42M120 520c-7.748-7.748-8-13.332-8-176v-168h-40c-57.796 0-56 2.824-56-88 0-66.668 0.592-72.592 8-80 7.912-7.912 13.332-8 496-8s488.088 0.088 496 8c7.408 7.408 8 13.332 8 80 0 90.824 1.796 88-56 88h-40v168c0 162.668-0.252 168.252-8 176-10.184 10.184-21.816 10.184-32 0-7.748-7.748-8-13.332-8-176v-168h-208v168c0 162.668-0.252 168.252-8 176-10.184 10.184-21.816 10.184-32 0-7.748-7.748-8-13.332-8-176v-168h-208v168c0 162.668-0.252 168.252-8 176-4.4 4.4-11.6 8-16 8s-11.6-3.6-16-8c-7.748-7.748-8-13.332-8-176v-168h-208v168c0 162.668-0.252 168.252-8 176-4.4 4.4-11.6 8-16 8s-11.6-3.6-16-8M976 88v-40h-912v80h912v-40" />
<glyph unicode="&#xea4f;" glyph-name="bill-line" d="M120 1000c-7.908-7.908-8-13.332-8-480s0.092-472.092 8-480c4.4-4.4 11.22-8 15.156-8 3.94 0 34.54 17.096 68 37.992l60.844 37.996 60.844-37.996c33.46-20.896 63.684-37.992 67.156-37.992s33.696 17.096 67.156 37.992l60.844 37.996 60.844-37.996c33.46-20.896 63.684-37.992 67.156-37.992s33.696 17.096 67.156 37.992l60.844 37.996 60.844-37.996c33.46-20.896 64.060-37.992 68-37.992 3.936 0 10.756 3.6 15.156 8 7.908 7.908 8 13.332 8 480s-0.092 472.092-8 480c-7.892 7.892-13.332 8-400 8s-392.108-0.108-400-8M880 529.672v-430.324l-15 9.192c-8.248 5.056-30.204 18.7-48.788 30.324s-36.656 21.136-40.156 21.136c-3.504 0-33.752-17.096-67.212-37.992l-60.844-37.996-60.844 37.996c-33.46 20.896-63.684 37.992-67.156 37.992s-33.696-17.096-67.156-37.992l-60.844-37.996-60.844 37.996c-33.46 20.896-63.708 37.992-67.212 37.992-3.5 0-21.572-9.512-40.156-21.136s-40.536-25.268-48.788-30.324l-15-9.192v860.652h720v-430.328M484 842.452c-27.548-6.108-40.968-13.212-65.064-34.444-66.696-58.772-67.476-162.248-1.676-222.9 39.5-36.408 90.344-49.104 141.796-35.408 115.988 30.876 151.62 179.312 62.008 258.316-24.492 21.592-41.652 30.208-70.924 35.62-28.592 5.284-37.7 5.12-66.14-1.184M567.048 788.408c36.036-18.572 54.556-49.948 54.556-92.408 0-33.292-5.896-48.852-27.052-71.352-21.264-22.616-40.468-30.464-74.552-30.464s-53.288 7.848-74.552 30.464c-21.424 22.788-27.288 38.124-27.288 71.352 0 33.232 5.868 48.576 27.288 71.34 13.668 14.528 29.824 24.228 48.552 29.152 18.184 4.784 56.26 0.568 73.048-8.084M280 456c-4.4-4.4-8-11.6-8-16s3.6-11.6 8-16c7.688-7.688 13.332-8 144-8s136.312 0.312 144 8c4.4 4.4 8 11.6 8 16s-3.6 11.6-8 16c-7.688 7.688-13.332 8-144 8s-136.312-0.312-144-8M664 456c-4.4-4.4-8-11.6-8-16s3.6-11.6 8-16c6.932-6.932 13.332-8 48-8s41.068 1.068 48 8c4.4 4.4 8 11.6 8 16s-3.6 11.6-8 16c-6.932 6.932-13.332 8-48 8s-41.068-1.068-48-8M280 328c-4.4-4.4-8-11.6-8-16s3.6-11.6 8-16c7.688-7.688 13.332-8 144-8s136.312 0.312 144 8c4.4 4.4 8 11.6 8 16s-3.6 11.6-8 16c-7.688 7.688-13.332 8-144 8s-136.312-0.312-144-8M664 328c-4.4-4.4-8-11.6-8-16s3.6-11.6 8-16c6.932-6.932 13.332-8 48-8s41.068 1.068 48 8c4.4 4.4 8 11.6 8 16s-3.6 11.6-8 16c-6.932 6.932-13.332 8-48 8s-41.068-1.068-48-8" />
<glyph unicode="&#xea50;" glyph-name="board-27-line" d="M504 1000c-6.668-6.668-8-13.332-8-40v-32h-184c-178.668 0-184.232-0.232-192-8-7.852-7.852-8-13.332-8-296s0.148-288.148 8-296c10.184-10.184 21.816-10.184 32 0 7.844 7.844 8 13.332 8 280v272h720v-272c0-266.668 0.156-272.156 8-280 10.184-10.184 21.816-10.184 32 0 7.852 7.852 8 13.332 8 296s-0.148 288.148-8 296c-7.768 7.768-13.332 8-192 8h-184v32c0 26.668-1.332 33.332-8 40-10.184 10.184-21.816 10.184-32 0M24 264c-4.4-4.4-8-11.6-8-16s3.6-11.6 8-16c7.748-7.748 13.332-8 176-8 92.4 0 168-0.976 168-2.168s-31.992-39.444-71.096-85c-100.1-116.62-97.404-112.332-80.904-128.832 17.964-17.964 21.328-15.124 122.7 103.748l95.3 111.748 62 0.504v-88c0-82.668 0.484-88.484 8-96 4.4-4.4 11.6-8 16-8s11.6 3.6 16 8c7.516 7.516 8 13.332 8 96v88l62-0.504 95.3-111.748c101.372-118.872 104.736-121.712 122.7-103.748 16.5 16.5 19.196 12.212-80.904 128.832-39.104 45.556-71.096 83.808-71.096 85s75.6 2.168 168 2.168c162.668 0 168.252 0.252 176 8 4.4 4.4 8 11.6 8 16s-3.6 11.6-8 16c-7.912 7.912-13.332 8-496 8s-488.088-0.088-496-8" />
<glyph unicode="&#xea51;" glyph-name="board-28-line" d="M504 1000c-6.668-6.668-8-13.332-8-40v-32h-184c-178.668 0-184.232-0.232-192-8-7.852-7.852-8-13.332-8-296s0.148-288.148 8-296c10.184-10.184 21.816-10.184 32 0 7.844 7.844 8 13.332 8 280v272h720v-272c0-266.668 0.156-272.156 8-280 10.184-10.184 21.816-10.184 32 0 7.852 7.852 8 13.332 8 296s-0.148 288.148-8 296c-7.768 7.768-13.332 8-192 8h-184v32c0 26.668-1.332 33.332-8 40-10.184 10.184-21.816 10.184-32 0M584 712c-4.4-4.4-8-11.6-8-16s3.6-11.6 8-16c7.092-7.092 13.332-8 54.988-8h46.984l-149.812-149.812-59.38 58.904c-43.284 42.94-61.976 58.908-68.956 58.908-13.104 0-151.824-138.080-151.824-151.124 0-11.344 13.436-24.876 24.7-24.876 5.852 0 28.12 19.264 68 58.828l59.3 58.828 59.3-58.828c42.924-42.584 61.92-58.828 68.792-58.828 7.020 0 32.192 22.616 96.7 86.88l87.208 86.88v-46.88c0-41.548 0.912-47.792 8-54.88 10.184-10.184 21.816-10.184 32 0 7.476 7.476 8 13.332 8 89.38 0 73.76-0.684 82-7.316 88-6.296 5.7-18.532 6.62-88 6.62-75.352 0-81.212-0.528-88.684-8M24 264c-4.4-4.4-8-11.6-8-16s3.6-11.6 8-16c7.748-7.748 13.332-8 176-8 92.4 0 168-0.976 168-2.168s-31.992-39.444-71.096-85c-100.1-116.62-97.404-112.332-80.904-128.832 17.964-17.964 21.328-15.124 122.7 103.748l95.3 111.748 62 0.504v-88c0-82.668 0.484-88.484 8-96 4.4-4.4 11.6-8 16-8s11.6 3.6 16 8c7.516 7.516 8 13.332 8 96v88l62-0.504 95.3-111.748c101.372-118.872 104.736-121.712 122.7-103.748 16.5 16.5 19.196 12.212-80.904 128.832-39.104 45.556-71.096 83.808-71.096 85s75.6 2.168 168 2.168c162.668 0 168.252 0.252 176 8 4.4 4.4 8 11.6 8 16s-3.6 11.6-8 16c-7.912 7.912-13.332 8-496 8s-488.088-0.088-496-8" />
<glyph unicode="&#xea52;" glyph-name="board-29-line" d="M504 1000c-6.668-6.668-8-13.332-8-40v-32h-184c-178.668 0-184.232-0.232-192-8-7.852-7.852-8-13.332-8-296s0.148-288.148 8-296c10.184-10.184 21.816-10.184 32 0 7.844 7.844 8 13.332 8 280v272h720v-272c0-266.668 0.156-272.156 8-280 10.184-10.184 21.816-10.184 32 0 7.852 7.852 8 13.332 8 296s-0.148 288.148-8 296c-7.768 7.768-13.332 8-192 8h-184v32c0 26.668-1.332 33.332-8 40-10.184 10.184-21.816 10.184-32 0M472.42 761.668c-32.496-8.736-57.756-24.216-83.82-51.356-26.388-27.48-37.868-47.436-46.62-81.032-11.396-43.752-5.148-93.68 16.76-133.932 12.692-23.316 53.188-63.068 76.22-74.816 53.712-27.404 120.852-26.552 173.692 2.208 23.316 12.692 63.068 53.188 74.816 76.22 26.592 52.124 26.592 117.956 0 170.080-11.748 23.032-51.5 63.528-74.816 76.22-40.196 21.876-92.484 28.176-136.232 16.408M505.764 565.668c5.992-4.372 23.576-5.668 77-5.668 78.928 0 76.356 1.46 59.84-34.012-13.96-29.972-48.668-59.832-81.248-69.896-32.98-10.188-49.76-10.18-82.852 0.044-33.456 10.332-68.804 41.368-82.94 72.824-14.152 31.484-13.584 80.76 1.28 111.040 14.724 29.996 44.188 58.060 73.46 69.964l23.696 9.64 2-74.132c1.82-67.468 2.7-74.644 9.764-79.804M586.672 702.688c16.604-8.588 48.472-43.944 57.468-63.76 14.248-31.384 14.928-30.928-46.14-30.928h-54v111.644l15.544-5.484c8.552-3.016 20.756-8.18 27.128-11.472M24 264c-4.4-4.4-8-11.6-8-16s3.6-11.6 8-16c7.748-7.748 13.332-8 176-8 92.4 0 168-0.976 168-2.168s-31.992-39.444-71.096-85c-100.1-116.62-97.404-112.332-80.904-128.832 17.964-17.964 21.328-15.124 122.7 103.748l95.3 111.748 62 0.504v-88c0-82.668 0.484-88.484 8-96 4.4-4.4 11.6-8 16-8s11.6 3.6 16 8c7.516 7.516 8 13.332 8 96v88l62-0.504 95.3-111.748c101.372-118.872 104.736-121.712 122.7-103.748 16.5 16.5 19.196 12.212-80.904 128.832-39.104 45.556-71.096 83.808-71.096 85s75.6 2.168 168 2.168c162.668 0 168.252 0.252 176 8 4.4 4.4 8 11.6 8 16s-3.6 11.6-8 16c-7.912 7.912-13.332 8-496 8s-488.088-0.088-496-8" />
</font>
</defs>
</svg>
